<svg width="230" height="238" viewBox="0 0 230 238" fill="none" xmlns="http://www.w3.org/2000/svg">
<mask id="mask0_112_1005" style="mask-type:luminance" maskUnits="userSpaceOnUse" x="0" y="0" width="230" height="238">
<path d="M106.542 0L229.462 86.9535L122.92 237.565L-3.10651e-05 150.611L106.542 0Z" fill="white"/>
</mask>
<g mask="url(#mask0_112_1005)">
<path d="M5.83694 142.376C5.62051 142.682 5.65792 143.098 5.92676 143.361C10.1205 147.424 14.1531 151.626 18.42 156.076C28.2712 166.347 38.378 176.884 50.4134 185.398C54.2058 188.08 58.1873 190.561 62.4165 192.774C77.9268 206.982 96.1488 215.181 113.771 223.111C118.663 225.313 123.285 227.391 127.82 229.585C128.153 229.747 128.555 229.642 128.768 229.341L185.986 148.456C209.931 114.607 201.839 67.5632 167.947 43.5877C134.051 19.6103 86.9975 27.6447 63.0529 61.4935L5.83694 142.376ZM167.688 45.2678C200.377 68.8937 208.062 114.62 184.747 147.579L127.9 227.94C123.534 225.839 119.088 223.84 114.395 221.727C97.0419 213.919 79.103 205.843 63.863 192.038L167.688 45.2678ZM64.2922 62.3702C87.6075 29.411 133.286 21.4338 166.446 44.3894L62.6193 191.162C45.4369 182.055 32.2624 168.318 19.5168 155.027C15.5769 150.917 11.5087 146.677 7.45089 142.723L64.2922 62.3702Z" fill="#002C1F"/>
</g>
<path d="M119.432 24.6688C119.566 24.7634 119.728 24.8125 119.901 24.8076C120.94 24.7674 121.997 24.7468 123.035 24.7519C123.455 24.7522 123.794 24.4138 123.797 23.9953C123.798 23.575 123.457 23.2336 123.041 23.2325C121.978 23.2293 120.901 23.2467 119.84 23.2907C119.423 23.308 119.097 23.6599 119.112 24.0798C119.125 24.3239 119.247 24.5379 119.435 24.6706L119.432 24.6688Z" fill="#002C1F"/>
<path d="M87.9921 32.9743C88.2158 33.1326 88.5172 33.1645 88.7788 33.0293C96.1148 29.2303 103.996 26.7002 112.202 25.5153C112.617 25.4534 112.903 25.0698 112.843 24.6531C112.781 24.2389 112.398 23.9522 111.983 24.0097C103.607 25.2215 95.5653 27.8038 88.0795 31.6783C87.7062 31.8733 87.5634 32.3316 87.7558 32.703C87.8131 32.813 87.8944 32.9052 87.9895 32.9725L87.9921 32.9743Z" fill="#002C1F"/>
<path d="M157.994 143.827C156.171 140.813 153.537 138.479 150.407 137.041C150.413 134.202 149.718 131.384 148.369 128.856C146.191 124.769 142.547 121.774 138.117 120.423C133.685 119.07 128.995 119.521 124.907 121.695C120.82 123.873 117.828 127.508 116.479 131.935C115.132 136.364 115.592 141.053 117.773 145.141C119.054 147.54 120.882 149.597 123.077 151.151C123.939 151.76 124.858 152.287 125.822 152.729C125.811 155.804 126.616 158.92 128.322 161.739C129.579 163.817 131.22 165.571 133.143 166.932C134.891 168.168 136.875 169.078 139.018 169.61C143.514 170.719 148.175 170.015 152.137 167.622C156.101 165.23 158.892 161.437 159.997 156.941C161.104 152.447 160.392 147.788 157.994 143.827ZM119.112 144.426C117.124 140.697 116.703 136.418 117.933 132.377C119.161 128.339 121.894 125.022 125.621 123.037C129.35 121.053 133.631 120.64 137.674 121.873C141.718 123.109 145.04 125.841 147.03 129.571C148.162 131.695 148.796 134.045 148.883 136.43C148.367 136.249 147.837 136.087 147.297 135.956C142.803 134.844 138.14 135.55 134.179 137.944C129.32 140.876 126.42 145.831 125.904 151.086C123.031 149.624 120.641 147.293 119.112 144.426ZM151.351 166.321C147.735 168.505 143.483 169.15 139.379 168.134C135.274 167.12 131.812 164.57 129.622 160.953C127.434 157.338 126.785 153.086 127.795 148.986C128.802 144.885 131.35 141.425 134.966 139.242C138.582 137.059 142.833 136.416 146.938 137.43C148.891 137.913 150.699 138.744 152.296 139.873C154.049 141.114 155.548 142.714 156.695 144.61C158.883 148.225 159.532 152.477 158.522 156.577C157.512 160.677 154.967 164.138 151.351 166.321Z" fill="#002C1F"/>
<path d="M128.946 78.3087C132.061 73.9044 131.008 67.7856 126.599 64.6663C123.824 62.7039 120.377 62.3909 117.426 63.5203C113.083 60.8573 107.28 62.0144 104.317 66.2027C102.339 69.0001 101.98 72.6314 103.344 75.7642C101.895 79.7157 103.387 84.3472 106.974 86.8844C111.383 90.0037 117.503 88.9594 120.619 84.555C121.092 83.8865 121.474 83.1614 121.763 82.3978C124.546 82.1672 127.212 80.759 128.946 78.3087ZM125.722 65.9056C129.448 68.5411 130.336 73.7098 127.704 77.4303C125.072 81.1507 119.902 82.0343 116.177 79.3989C112.451 76.7634 111.561 71.5928 114.193 67.8724C116.824 64.152 121.996 63.2702 125.722 65.9056ZM116.487 81.6322C114.981 83.7611 112.022 84.2638 109.893 82.7578C109.168 82.2449 108.618 81.5551 108.279 80.775C110.654 81.857 113.356 81.9475 115.837 80.9912C116.093 81.1485 116.352 81.2938 116.616 81.4226C116.574 81.4931 116.535 81.5654 116.487 81.6322ZM111.315 74.3622C111.451 75.1183 111.673 75.8619 111.985 76.5722C111.127 76.5136 110.301 76.2259 109.584 75.7185C109.494 75.6548 109.409 75.5834 109.324 75.5121C109.882 74.9691 110.567 74.5739 111.315 74.3622ZM108.707 76.9578C109.913 77.8108 111.355 78.1985 112.813 78.0842C113.243 78.7313 113.759 79.332 114.351 79.8744C112.157 80.4358 109.835 80.0744 107.893 78.8393C107.896 78.6445 107.909 78.4456 107.936 78.2489C108.009 77.7214 108.176 77.2069 108.42 76.7313C108.516 76.8074 108.607 76.8868 108.707 76.9578ZM107.909 70.3095C108.045 69.8501 108.228 69.4436 108.452 69.1274C109.458 67.7055 111.158 66.9758 112.838 67.1647C112.41 67.796 112.063 68.461 111.8 69.1501C110.42 69.2622 109.099 69.6582 107.909 70.3095ZM105.559 67.0812C107.867 63.8185 112.209 62.7424 115.749 64.3521C115.092 64.7629 114.478 65.2545 113.923 65.8264C111.423 65.1568 108.723 66.1097 107.21 68.2489C106.433 69.3468 106.217 70.7485 106.157 71.5429C105.994 71.686 105.834 71.8354 105.68 71.9928C105.297 72.3702 104.945 72.7921 104.627 73.2421C104.503 73.4169 104.386 73.6041 104.273 73.7906C103.723 71.4991 104.167 69.0437 105.557 67.0794L105.559 67.0812ZM119.38 83.6784C116.748 87.3988 111.574 88.2832 107.849 85.6477C104.75 83.4561 103.49 79.4243 104.85 76.0619C104.961 75.7854 105.364 74.8284 105.866 74.1187C106.135 73.7382 106.434 73.3865 106.756 73.0624C108.005 71.8046 109.605 71.0039 111.348 70.7367C111.21 71.4293 111.151 72.1285 111.162 72.827C109.699 73.1771 108.398 74.0464 107.519 75.2882C106.941 76.1058 106.564 77.0584 106.432 78.0412C106.111 80.3602 107.103 82.6439 109.016 83.9971C111.829 85.9869 115.739 85.3191 117.727 82.5089C117.843 82.3443 117.951 82.1699 118.052 81.9945C118.728 82.2063 119.421 82.3382 120.116 82.3976C119.908 82.8445 119.665 83.2747 119.38 83.6784Z" fill="#002C1F"/>
<path d="M117.34 77.7487C120.155 79.7403 124.065 79.0725 126.053 76.2623C128.041 73.4521 127.367 69.5458 124.552 67.5542C121.739 65.5644 117.831 66.2296 115.843 69.0398C113.855 71.85 114.527 75.7589 117.34 77.7487ZM116.355 71.5278C117.33 72.0205 118.241 72.7343 118.945 73.5717C118.959 73.5895 118.972 73.61 118.989 73.6297C119.888 74.7093 120.485 75.9919 120.741 77.3692C119.865 77.3318 118.988 77.055 118.219 76.5112C116.589 75.3581 115.912 73.3593 116.354 71.5303L116.355 71.5278ZM124.811 75.3838C124.166 76.2966 123.254 76.9092 122.254 77.1935C122.119 76.4304 121.895 75.6937 121.591 74.9958C122.363 72.6989 122.242 70.1598 121.279 67.9433C122.114 68.0014 122.942 68.2751 123.675 68.7935C125.806 70.3012 126.315 73.2575 124.811 75.3838ZM119.676 68.0982C120.458 69.6385 120.739 71.4001 120.49 73.0945C120.395 72.9661 120.304 72.8394 120.203 72.7143C120.189 72.6964 120.174 72.6742 120.159 72.6563C119.678 72.0768 119.124 71.5572 118.513 71.0947C118.423 70.3826 118.212 69.6891 117.889 69.0484C118.418 68.6008 119.027 68.2795 119.676 68.0982Z" fill="#002C1F"/>
<path d="M140.49 206.336C142.208 204.322 142.629 201.557 141.587 199.119L122.636 154.808C121.774 152.798 120.066 151.339 117.944 150.806C115.823 150.27 113.63 150.748 111.923 152.114L74.2445 182.265C72.1722 183.924 71.2393 186.563 71.8081 189.156C72.1876 190.883 73.1806 192.353 74.5657 193.329C75.2573 193.818 76.0484 194.189 76.9075 194.403L133.535 208.56C136.108 209.204 138.772 208.35 140.49 206.336ZM134.113 189.627C132.559 195.865 128.574 201.073 122.885 204.332L113.412 201.963C120.883 200.667 126.979 195.447 128.762 188.291C130.006 183.299 129.091 177.787 126.255 173.162C123.434 168.562 118.934 165.205 113.917 163.948C103.361 161.31 91.8394 168.07 89.2628 178.415C87.4797 185.571 90.4131 193.051 96.4018 197.712L86.9287 195.343C83.4325 189.787 82.3595 183.315 83.9118 177.079C83.9805 176.808 84.0496 176.552 84.121 176.309L105.707 159.035C106.358 158.96 107.021 158.873 107.721 158.778C110.346 158.416 113.059 158.044 115.426 158.635C118.783 159.474 121.53 161.753 124.183 163.958C124.554 164.262 124.918 164.566 125.285 164.865L134.641 186.744C134.524 187.71 134.348 188.678 134.112 189.629L134.113 189.627ZM101.397 198.961C93.223 195.274 88.7407 186.799 90.7381 178.783C93.1192 169.222 103.778 162.979 113.549 165.423C118.184 166.581 122.346 169.691 124.961 173.956C127.586 178.235 128.433 183.325 127.287 187.922C125.291 195.935 117.362 201.309 108.417 200.714L101.397 198.961ZM112.874 153.299C114.207 152.233 115.92 151.862 117.575 152.277C118.243 152.445 118.856 152.728 119.396 153.11C120.198 153.678 120.837 154.465 121.238 155.404L123.985 161.827C121.551 159.842 118.973 157.957 115.793 157.162C113.301 156.541 110.509 156.866 107.992 157.207L112.874 153.299ZM77.2716 192.928C75.2297 192.417 73.7429 190.887 73.2912 188.832C72.8421 186.778 73.5523 184.765 75.1956 183.451L82.1837 177.859C81.0254 183.652 81.9678 189.573 84.8659 194.829L77.2742 192.93L77.2716 192.928ZM124.948 204.847C130.301 201.358 134.056 196.148 135.589 189.995C135.643 189.771 135.695 189.545 135.744 189.318L140.189 199.715C141.015 201.646 140.696 203.754 139.332 205.35C137.972 206.946 135.941 207.597 133.904 207.085L124.948 204.847Z" fill="#002C1F"/>
<path d="M115.603 192.769C118.516 191.617 120.455 189.416 121.206 186.402C122.397 181.616 119.904 175.863 111.649 173.801C108.411 172.991 105.191 173.07 102.58 174.024C99.5609 175.129 97.567 177.298 96.8189 180.303C96.0697 183.314 96.7726 186.176 98.8503 188.584C99.4896 189.321 100.245 189.998 101.096 190.6C102.67 191.714 104.57 192.572 106.657 193.095C109.863 193.897 113.04 193.78 115.603 192.769ZM107.024 191.623C101.828 190.324 96.8824 186.343 98.2942 180.671C99.0787 177.523 101.342 176.096 103.102 175.451C105.433 174.599 108.336 174.536 111.283 175.273C113.072 175.721 114.793 176.468 116.225 177.481C118.966 179.42 120.65 182.34 119.731 186.033C119.103 188.552 117.484 190.393 115.042 191.358C112.774 192.253 109.925 192.348 107.024 191.623Z" fill="#002C1F"/>
<path d="M56.2437 115.091L59.024 118.948C59.0738 119.014 59.1341 119.076 59.2009 119.123C59.4581 119.305 59.8143 119.314 60.0836 119.119C60.4234 118.873 60.5003 118.399 60.2545 118.059L57.4742 114.202C57.231 113.864 56.7543 113.785 56.4146 114.031C56.0749 114.277 55.9979 114.751 56.2437 115.091Z" fill="#002C1F"/>
<path d="M51.6961 124.758C51.2849 124.838 51.0144 125.237 51.0939 125.648L51.9906 130.314C52.0296 130.515 52.1439 130.681 52.2981 130.79C52.4601 130.904 52.6683 130.959 52.8801 130.916C53.2894 130.839 53.56 130.44 53.4805 130.029L52.5838 125.363C52.5043 124.952 52.1072 124.679 51.6943 124.761L51.6961 124.758Z" fill="#002C1F"/>
<path d="M60.9073 127.656C60.4962 127.736 60.2256 128.135 60.3051 128.546L61.2018 133.211C61.2408 133.413 61.3551 133.578 61.5119 133.689C61.6739 133.804 61.8795 133.857 62.0913 133.814C62.505 133.736 62.7738 133.34 62.6943 132.929L61.795 128.261C61.718 127.852 61.321 127.579 60.9073 127.656Z" fill="#002C1F"/>
<path d="M72.4611 137.62C72.0474 137.697 71.7794 138.098 71.8589 138.509L72.7556 143.175C72.7946 143.376 72.9089 143.542 73.0631 143.651C73.2251 143.765 73.4333 143.82 73.6451 143.777C74.0544 143.7 74.325 143.301 74.2455 142.89L73.3488 138.224C73.2693 137.813 72.8723 137.54 72.4593 137.622L72.4611 137.62Z" fill="#002C1F"/>
<path d="M60.8986 167.554L58.1182 163.697C57.8725 163.357 57.3984 163.281 57.0586 163.526C56.7189 163.772 56.642 164.246 56.8877 164.586L59.6681 168.443C59.7186 168.513 59.7781 168.571 59.845 168.618C60.1021 168.8 60.4584 168.809 60.7277 168.614C61.0674 168.368 61.1443 167.894 60.8986 167.554Z" fill="#002C1F"/>
<path d="M82.3025 148.597C82.3667 148.643 82.4409 148.68 82.5215 148.702L84.7667 149.384C85.1696 149.507 85.5936 149.278 85.7148 148.878C85.8334 148.476 85.6093 148.051 85.2045 147.93L82.9619 147.25C82.559 147.127 82.135 147.356 82.0138 147.756C81.9175 148.078 82.0428 148.413 82.3025 148.597Z" fill="#002C1F"/>
<path d="M55.8716 154.886C55.9124 155.085 56.0249 155.253 56.1791 155.362C56.3411 155.477 56.5511 155.529 56.7611 155.489C57.1723 155.409 57.4428 155.01 57.3633 154.599L56.4666 149.933C56.3871 149.522 55.9883 149.252 55.5771 149.331C55.1634 149.409 54.8946 149.805 54.9749 150.221L55.8716 154.886Z" fill="#002C1F"/>
<path d="M63.6972 142.685C63.7398 142.881 63.8515 143.045 64.0032 143.152C64.1677 143.268 64.3821 143.32 64.5957 143.274C65.008 143.188 65.2716 142.788 65.1851 142.376L64.5822 139.503C64.4983 139.093 64.0958 138.827 63.6836 138.914C63.2758 139 63.0103 139.402 63.0986 139.812L63.6972 142.685Z" fill="#002C1F"/>
<path d="M68.9042 168.546L67.3306 165.982C67.1133 165.624 66.6445 165.512 66.2871 165.734C65.929 165.951 65.8173 166.42 66.0364 166.776L67.6099 169.339C67.666 169.429 67.7399 169.504 67.8196 169.561C68.0613 169.732 68.3884 169.755 68.656 169.589C69.0141 169.372 69.1258 168.903 68.9042 168.546Z" fill="#002C1F"/>
<path d="M46.1115 125.924C46.1505 126.125 46.2648 126.291 46.4216 126.401C46.5836 126.516 46.791 126.566 47.001 126.526C47.4147 126.448 47.6835 126.052 47.6058 125.638L46.7065 120.971C46.6296 120.561 46.2307 120.291 45.817 120.368C45.4059 120.448 45.1371 120.844 45.2148 121.258L46.1115 125.924Z" fill="#002C1F"/>
<path d="M67.0099 149.055L64.2278 145.2C63.9838 144.858 63.5097 144.781 63.1674 145.025C62.8277 145.271 62.7508 145.745 62.9966 146.085L65.7769 149.942C65.8274 150.012 65.887 150.07 65.9538 150.117C66.2135 150.301 66.5672 150.308 66.8391 150.114C67.1788 149.869 67.2557 149.395 67.0099 149.055Z" fill="#002C1F"/>
<path d="M37.7982 136.782C38.0553 136.963 38.4097 136.975 38.6808 136.777C39.0188 136.534 39.0975 136.057 38.8517 135.718L36.0696 131.863C35.8282 131.523 35.3515 131.444 35.0118 131.69C34.6721 131.935 34.5952 132.409 34.8409 132.749L37.6213 136.606C37.6717 136.677 37.7313 136.734 37.7982 136.782Z" fill="#002C1F"/>
<path d="M49.1205 139.513L46.3384 135.658C46.0944 135.316 45.6203 135.239 45.278 135.483C44.9383 135.729 44.8614 136.203 45.1072 136.543L47.8875 140.4C47.938 140.47 47.9976 140.528 48.0644 140.575C48.3241 140.759 48.6778 140.766 48.9497 140.572C49.2894 140.327 49.3663 139.853 49.1205 139.513Z" fill="#002C1F"/>
<path d="M51.5946 135.874L54.3749 139.731C54.4254 139.802 54.4849 139.859 54.5518 139.906C54.8089 140.088 55.1652 140.097 55.4345 139.902C55.7768 139.658 55.8537 139.184 55.6079 138.844L52.8276 134.987C52.5811 134.643 52.1052 134.569 51.7654 134.814C51.4257 135.06 51.3488 135.534 51.5946 135.874Z" fill="#002C1F"/>
<path d="M46.9881 147.889C46.6959 148.187 46.7017 148.67 47.0029 148.964L50.401 152.286C50.4308 152.315 50.4624 152.341 50.4958 152.364C50.7941 152.575 51.2117 152.547 51.477 152.275C51.7692 151.977 51.7634 151.494 51.4648 151.202L48.0641 147.878C47.7647 147.582 47.2848 147.589 46.99 147.886L46.9881 147.889Z" fill="#002C1F"/>
<path d="M39.4009 143.813L36.6205 139.956C36.3748 139.617 35.9007 139.54 35.5584 139.784C35.2187 140.029 35.1417 140.503 35.3875 140.843L38.1678 144.7C38.2183 144.771 38.2779 144.828 38.3447 144.876C38.6044 145.059 38.9581 145.066 39.23 144.873C39.5697 144.627 39.6466 144.153 39.4009 143.813Z" fill="#002C1F"/>
<path d="M71.3859 132.399L74.168 136.254C74.2185 136.324 74.2806 136.383 74.3449 136.429C74.6046 136.613 74.9583 136.62 75.2302 136.426C75.5699 136.18 75.6468 135.706 75.4011 135.367L72.6189 131.512C72.375 131.17 71.899 131.095 71.5611 131.339C71.2188 131.583 71.1419 132.057 71.3877 132.396L71.3859 132.399Z" fill="#002C1F"/>
<path d="M64.6473 120.384L67.5696 124.133C67.6186 124.195 67.6723 124.244 67.7314 124.286C67.9988 124.475 68.3675 124.478 68.6363 124.267C68.9694 124.009 69.028 123.533 68.768 123.203L65.8458 119.453C65.5858 119.123 65.1103 119.064 64.779 119.32C64.4485 119.58 64.3899 120.055 64.6473 120.384Z" fill="#002C1F"/>
<path d="M90.8251 67.5684C91.3524 68.3117 91.841 68.8426 92.3193 69.1809C92.7898 69.5137 93.2488 69.661 93.7247 69.6427C95.1783 69.5947 96.146 68.0031 97.4862 65.8033C99.5862 62.3547 102.756 57.1436 109.676 55.0178C118.511 52.3062 128.082 55.2729 131.908 57.22C132.636 57.5879 134.057 59.4186 135.611 61.9878C135.854 62.3912 136.259 62.6698 136.72 62.7534C137.185 62.8388 137.662 62.7209 138.031 62.427L139.612 61.1802C139.939 60.9253 140.148 60.537 140.188 60.1257C140.226 59.7125 140.093 59.2947 139.822 58.9796C138.769 57.7638 136.241 54.8146 135.477 53.7029C135.052 53.0865 134.951 52.1932 134.844 51.2492C134.751 50.4313 134.656 49.589 134.346 48.8062C132.976 45.349 128.96 42.4538 123.602 41.0629C117.684 39.5307 110.999 40.0369 104.775 42.4931C96.8988 45.6052 91.1177 51.0945 89.3127 57.1744C88.1986 60.9307 88.7361 64.6208 90.8251 67.5684ZM137.088 61.2353C137.053 61.264 137.017 61.2656 136.991 61.2588C136.956 61.2534 136.93 61.2353 136.909 61.205C135.912 59.5503 134.588 57.5607 133.432 56.4845L134.748 55.267C135.773 56.5938 137.569 58.7014 138.671 59.9902L137.088 61.2353ZM105.335 43.9041C115.221 40.0026 124.503 41.8394 129.491 45.3679C131.175 46.5592 132.372 47.9424 132.934 49.3622C133.17 49.9611 133.25 50.6659 133.334 51.4153C133.431 52.2866 133.539 53.1809 133.901 53.9774L132.118 55.6319C127.824 53.5977 118.181 50.8194 109.228 53.5671C101.758 55.8594 98.405 61.3687 96.1869 65.0114C95.2192 66.603 94.3064 68.106 93.6705 68.1269C93.4546 68.1322 92.9613 67.9569 92.064 66.6895C90.2231 64.0949 89.7752 60.9542 90.7696 57.607C92.4401 51.9682 97.8886 46.8455 105.335 43.9041Z" fill="#002C1F"/>
<path d="M87.7864 105.631L87.843 105.671C89.0451 106.503 90.5679 106.449 91.7229 105.542C92.8993 104.615 93.3165 103.12 92.78 101.73C92.4654 100.909 91.8234 100.235 91.0171 99.8811C89.3328 99.1372 87.0753 98.9637 86.1023 100.339C85.0183 101.872 85.7578 104.196 87.7864 105.631ZM90.4054 101.269C90.5159 101.32 90.6183 101.377 90.716 101.447C91.0065 101.652 91.2345 101.941 91.3616 102.274C91.7172 103.189 91.2934 103.946 90.7816 104.348C90.2902 104.737 89.4836 104.961 88.7017 104.419L88.6631 104.392C87.375 103.481 86.7686 102.026 87.3415 101.216C87.7217 100.679 89.1244 100.703 90.4054 101.269Z" fill="#002C1F"/>
<path d="M78.5649 112.68C80.4649 114.024 82.9523 113.785 84.1109 112.147C85.2677 110.512 84.6646 108.087 82.7645 106.743C80.867 105.401 78.3796 105.639 77.2229 107.275C76.0643 108.912 76.6674 111.337 78.5649 112.68ZM81.8878 107.982C83.104 108.843 83.5438 110.315 82.8691 111.269C82.1943 112.223 80.6577 112.301 79.4415 111.44C78.228 110.582 77.7899 109.107 78.4647 108.153C79.1395 107.199 80.6743 107.124 81.8878 107.982Z" fill="#002C1F"/>
<path d="M142.766 116.332C145.615 118.347 149.86 119.714 153.841 119.895C158.479 120.106 162.078 118.748 163.972 116.071C167.889 110.533 167.611 99.8011 161.716 95.6306C159.009 93.7154 154.085 92.86 148.867 93.4041C143.439 93.966 139.07 95.8942 137.187 98.5553C133.16 104.248 136.948 112.216 142.766 116.332ZM149.026 94.9132C153.819 94.415 158.456 95.1838 160.839 96.8699C165.938 100.477 166.23 110.25 162.732 115.195C160.593 118.218 156.285 118.484 153.908 118.377C150.201 118.208 146.268 116.95 143.643 115.093C138.421 111.399 134.942 104.363 138.429 99.4338C140.039 97.1584 144.1 95.4253 149.026 94.9132Z" fill="#002C1F"/>
<path d="M159.882 127.776C157.191 132.593 160.038 138.237 164.088 141.102C168.318 144.094 176.867 145.308 180.014 140.86C182.413 137.469 182.035 134.409 181.6 130.864C181.486 129.95 181.371 129.001 181.294 127.997C180.98 123.86 178.473 120.875 174.589 120.014C170.145 119.031 163.644 121.04 159.882 127.776ZM176.924 122.645C178.59 123.824 179.599 125.714 179.779 128.11C179.858 129.149 179.976 130.116 180.092 131.048C180.506 134.411 180.835 137.07 178.775 139.983C176.263 143.534 168.621 142.449 164.965 139.863C161.458 137.382 158.949 132.563 161.208 128.518C164.596 122.458 170.348 120.632 174.263 121.5C175.275 121.722 176.168 122.111 176.924 122.645Z" fill="#002C1F"/>
<path d="M179.767 90.0445C179.899 90.5663 180.216 91.0181 180.666 91.3364C180.818 91.4437 180.988 91.5367 181.166 91.6124C184.358 92.9451 187.532 93.8089 191.152 94.325C191.881 94.4282 192.554 94.2293 193.048 93.765C193.558 93.2845 193.812 92.5654 193.75 91.7921C193.444 88.0961 192.645 85.0811 191.077 81.7189C190.739 81.0018 190.151 80.4971 189.455 80.3362C188.791 80.1833 188.115 80.3489 187.55 80.8095C184.831 83.0062 182.441 85.3815 180.244 88.0671C179.769 88.6456 179.594 89.3669 179.767 90.0445ZM188.506 81.9877C188.643 81.8762 188.86 81.7554 189.111 81.814C189.197 81.8355 189.279 81.871 189.357 81.9256C189.493 82.022 189.611 82.1712 189.698 82.3597C191.187 85.5502 191.947 88.4068 192.234 91.9118C192.26 92.2236 192.176 92.4956 192.005 92.6604C191.81 92.8429 191.552 92.8488 191.366 92.8219C187.873 92.3223 184.819 91.4924 181.75 90.213C181.483 90.1007 181.298 89.9042 181.241 89.679C181.186 89.4669 181.251 89.2345 181.419 89.0294C183.58 86.3882 185.831 84.1498 188.506 81.9877Z" fill="#002C1F"/>
<path d="M178.854 93.4692C178.205 93.6662 177.703 94.1521 177.442 94.8317C176.196 98.0933 175.317 101.348 174.761 104.779C174.644 105.517 174.856 106.226 175.344 106.73C175.438 106.827 175.539 106.914 175.649 106.992C176.12 107.325 176.713 107.467 177.339 107.385C180.765 106.942 183.942 106.1 187.334 104.734C188.015 104.459 188.499 103.949 188.693 103.299C188.894 102.628 188.754 101.877 188.31 101.239C186.193 98.19 183.985 95.9767 180.949 93.8557C180.302 93.4018 179.537 93.2618 178.854 93.4692ZM180.239 95.2089C183.044 97.1932 185.093 99.2641 187.062 102.103C187.239 102.36 187.305 102.638 187.238 102.864C187.161 103.119 186.938 103.254 186.765 103.325C183.496 104.642 180.437 105.453 177.142 105.88C176.854 105.916 176.598 105.842 176.435 105.673C176.28 105.517 176.22 105.285 176.263 105.023C176.808 101.651 177.636 98.5832 178.864 95.3744C178.926 95.2101 179.054 94.9961 179.301 94.9199C179.533 94.8485 179.818 94.915 180.082 95.0979C180.133 95.1343 180.187 95.1725 180.239 95.2089Z" fill="#002C1F"/>
<path d="M156.061 76.3842C158.078 78.899 160.374 81.0632 162.922 82.8656C165.47 84.6681 168.275 86.1124 171.318 87.177C171.58 87.2699 171.869 87.2115 172.076 87.0267C175.054 84.361 177.449 80.9748 179.198 76.9652C179.308 76.7113 179.273 76.4168 179.103 76.1997C175.15 71.0501 170.007 67.4125 163.82 65.3887C163.552 65.2992 163.256 65.3679 163.055 65.565C159.947 68.6012 157.561 71.9789 155.959 75.6019C155.845 75.8609 155.881 76.1643 156.061 76.3842ZM163.787 66.9782C169.342 68.8822 173.991 72.175 177.623 76.7696C176.046 80.2483 173.956 83.2139 171.394 85.5914C165.911 83.5871 161.253 80.2958 157.539 75.7942C158.998 72.6364 161.099 69.6712 163.787 66.9782Z" fill="#002C1F"/>
<path d="M161.361 76.38C161.402 76.4091 161.447 76.4331 161.494 76.4545C161.879 76.6233 162.326 76.4496 162.496 76.068C163.181 74.5159 164.181 73.0589 165.474 71.728C168.151 72.6926 170.388 74.3291 172.133 76.5969C172.387 76.9307 172.863 76.9937 173.194 76.7381C173.53 76.4818 173.593 76.0055 173.334 75.6725C171.31 73.0369 168.675 71.1726 165.505 70.1342C165.235 70.0472 164.94 70.1159 164.739 70.3131C163.15 71.8664 161.927 73.5942 161.107 75.452C160.957 75.7895 161.071 76.1745 161.361 76.38Z" fill="#002C1F"/>
<path d="M33.0599 145.851C32.0638 149.163 33.2844 152.831 36.1846 154.882C37.8558 156.065 39.8517 156.57 41.8646 156.331C44.1481 160.269 46.8504 160.441 48.9254 159.694C49.8081 160.955 50.8711 161.726 52.0897 161.994C53.5618 162.318 55.24 161.893 57.0802 160.725C60.3985 162.764 64.7756 162.161 67.4076 159.285C70.7653 159.3 73.2055 158.272 75.2833 155.972C77.0015 154.067 78.8465 149.223 78.2551 146.378C81.2325 144.819 82.6464 142.101 82.4667 138.27C83.3575 137.878 84.3983 137.056 84.885 136.138C86.367 133.329 86.1739 130.172 84.4909 127.616C85.3188 127.727 86.1577 127.757 87.0006 127.613C88.8382 127.3 90.3809 126.243 91.8729 125.219C92.3057 124.923 92.7528 124.618 93.1913 124.342C93.6155 124.075 94.0602 123.823 94.5273 123.555C96.0898 122.666 97.7013 121.746 98.8144 120.172C99.9293 118.596 100.26 116.77 100.577 115.003C100.675 114.471 100.763 113.97 100.876 113.479C100.988 112.976 101.129 112.451 101.263 111.944C101.732 110.196 102.215 108.389 101.898 106.553C101.583 104.713 100.523 103.169 99.4967 101.675C99.1993 101.245 98.8945 100.797 98.6183 100.359C98.3487 99.933 98.097 99.4926 97.8287 99.0212C96.9377 97.4612 96.0169 95.8454 94.4408 94.7305C92.8621 93.6137 91.0319 93.2834 89.2668 92.9646C88.733 92.8685 88.2313 92.776 87.7424 92.6655C87.237 92.551 86.714 92.4124 86.2066 92.2734C84.4588 91.8048 82.6469 91.3177 80.8101 91.6347C78.9682 91.9481 77.4254 93.0056 75.9334 94.0295C75.5006 94.3251 75.0535 94.6299 74.6176 94.9079C74.1908 95.1731 73.7505 95.4248 73.279 95.6932C71.7209 96.5815 70.1069 97.4998 68.9919 99.0759C67.8788 100.649 67.5485 102.48 67.2297 104.245C67.1355 104.776 67.0455 105.279 66.935 105.768C66.9339 105.775 66.9285 105.783 66.9274 105.79C64.7262 105.853 62.6696 106.786 61.1807 108.395C60.6568 107.118 59.8131 105.807 58.3348 105.263C56.9699 104.76 55.6514 104.819 54.5141 105.434C53.3111 106.088 52.3486 107.367 51.7953 109.016C50.4715 108.477 48.2285 108.125 46.0687 111.052C42.6927 109.93 38.8797 111.148 36.8027 114.084C35.544 115.863 35.0589 118.016 35.4094 120.127C32.204 119.947 29.7723 121.143 28.3422 123.623C26.5239 126.777 26.5959 130.203 28.5418 133.555C26.2939 137.169 27.0927 141.962 30.4712 144.668C31.2388 145.285 32.1442 145.69 33.0573 145.85L33.0599 145.851ZM93.7765 122.233C93.3113 122.498 92.8337 122.77 92.381 123.055C91.9177 123.345 91.459 123.661 91.0163 123.965C90.3349 124.432 89.6732 124.882 89.0031 125.256C88.9663 125.226 88.9278 125.199 88.8954 125.169C88.4041 124.701 88.1962 123.976 88.3098 123.122C88.4354 122.181 88.926 121.221 89.6901 120.419C90.456 119.614 91.3919 119.076 92.3272 118.905C93.173 118.751 93.9075 118.923 94.3936 119.387C94.9121 119.881 95.1082 120.656 94.9552 121.543C94.5668 121.781 94.1698 122.01 93.7765 122.233ZM81.0666 93.1317C82.5768 92.8729 84.1493 93.2948 85.8165 93.7412C86.3352 93.8805 86.8729 94.0256 87.4061 94.1443C87.9306 94.2645 88.4714 94.3617 88.9965 94.4592C90.6007 94.7491 92.2606 95.0476 93.5641 95.9698C94.8651 96.8901 95.7018 98.3577 96.5093 99.7738C96.7736 100.235 97.0478 100.714 97.3332 101.167C97.6228 101.63 97.9386 102.089 98.2453 102.533C99.2187 103.955 100.14 105.297 100.401 106.809C100.662 108.317 100.24 109.889 99.7975 111.551C99.6563 112.072 99.5131 112.608 99.3925 113.143C99.2741 113.665 99.177 114.206 99.082 114.733C98.7939 116.335 98.4954 117.995 97.5769 119.293C97.2677 119.73 96.8964 120.108 96.4883 120.456C96.3808 119.604 96.0269 118.845 95.4412 118.288C94.5899 117.473 93.3872 117.166 92.0532 117.411C90.8043 117.638 89.5748 118.335 88.5884 119.369C87.6039 120.401 86.9712 121.666 86.8045 122.922C86.6509 124.082 86.9087 125.125 87.5292 125.911C87.2707 125.998 87.0093 126.068 86.7415 126.114C85.2313 126.373 83.6588 125.951 81.9942 125.506C81.473 125.365 80.9352 125.22 80.3994 125.099C79.8775 124.981 79.3385 124.881 78.8142 124.788C77.2074 124.496 75.5476 124.198 74.244 123.276C72.943 122.355 72.1089 120.89 71.2988 119.472C71.0345 119.011 70.7603 118.532 70.4749 118.079C70.1854 117.616 69.8695 117.157 69.5647 116.71C68.5895 115.291 67.668 113.948 67.4092 112.438C67.1479 110.926 67.5679 109.356 68.0125 107.692C68.1518 107.173 68.2969 106.635 68.4156 106.102C68.534 105.58 68.6311 105.039 68.7243 104.515C68.8158 104.02 68.9065 103.521 69.0144 103.031C69.2658 103.482 69.6037 103.872 70.0254 104.17C71.9228 105.512 74.894 104.59 76.6492 102.109C78.3188 99.7482 78.289 96.8184 76.6404 95.386C76.6904 95.348 76.7437 95.3163 76.7937 95.2784C78.2152 94.305 79.5558 93.3861 81.0685 93.1291L81.0666 93.1317ZM74.036 97.0117C74.4453 96.7766 74.8689 96.5323 75.2778 96.2815C75.357 96.3222 75.4345 96.3654 75.5091 96.4181C76.7021 97.262 76.6576 99.4681 75.4081 101.234C74.1586 103.001 72.0932 103.777 70.9002 102.933C70.1623 102.411 69.8711 101.345 70.1178 100.135C70.1571 100.074 70.1938 100.011 70.2338 99.9544C71.1541 98.6534 72.6173 97.8175 74.0341 97.0143L74.036 97.0117ZM30.0618 134.013C30.2382 133.763 30.2466 133.43 30.0825 133.171C28.2112 130.189 28.0655 127.15 29.6608 124.382C30.9303 122.178 33.1595 121.29 36.2841 121.738C36.5417 121.777 36.8004 121.678 36.9701 121.482C37.1373 121.284 37.1946 121.012 37.1184 120.765C36.506 118.774 36.8441 116.66 38.0463 114.96C39.8342 112.433 43.205 111.469 46.0633 112.669C46.4011 112.807 46.7923 112.691 46.993 112.385C48.4858 110.1 49.8695 109.644 51.9226 110.761C52.1318 110.874 52.3823 110.885 52.6 110.785C52.816 110.687 52.9751 110.495 53.0278 110.262C53.4006 108.601 54.2083 107.328 55.2426 106.771C55.9949 106.362 56.8555 106.334 57.8105 106.686C59.192 107.192 59.8274 108.923 60.1875 110.181C60.2679 110.465 60.5076 110.677 60.7982 110.724C61.0887 110.772 61.3806 110.643 61.5472 110.402L61.7414 110.111C62.8745 108.509 64.62 107.514 66.5387 107.332C66.0729 109.07 65.5967 110.867 65.9123 112.695C66.2293 114.532 67.2893 116.076 68.3132 117.568C68.6088 118.001 68.9162 118.45 69.1924 118.888C69.4594 119.313 69.7137 119.755 69.9795 120.224C70.8704 121.784 71.7931 123.398 73.3717 124.514C74.9478 125.629 76.7763 125.962 78.5439 126.283C79.0777 126.379 79.5794 126.471 80.0683 126.582C80.5737 126.696 81.0967 126.835 81.6033 126.97C81.7672 127.016 81.9329 127.06 82.096 127.102C84.4539 129.364 85.0263 132.612 83.5433 135.429C83.1451 136.177 82.0478 136.894 81.5269 136.992C81.1439 137.064 80.8808 137.414 80.9137 137.804C81.2441 141.591 80.0109 143.967 77.036 145.276C76.6582 145.445 76.4826 145.884 76.6433 146.268C77.452 148.178 75.851 153.076 74.1572 154.952C72.3282 156.976 70.1494 157.842 67.0854 157.761C66.854 157.756 66.6318 157.857 66.4836 158.034C64.2756 160.681 60.3389 161.191 57.5184 159.195C57.2613 159.013 56.9127 159.01 56.65 159.19C55.0003 160.323 53.5741 160.768 52.4164 160.512C51.4376 160.298 50.6051 159.594 49.8702 158.364C49.6706 158.03 49.2504 157.899 48.8945 158.064C47.3824 158.772 45.1194 159.239 42.9425 155.145C42.7863 154.854 42.4586 154.695 42.1301 154.756C40.3479 155.088 38.5448 154.692 37.0613 153.643C34.4593 151.802 33.5155 148.365 34.8188 145.475C34.9286 145.233 34.9032 144.953 34.7528 144.734C34.6024 144.516 34.3525 144.389 34.0864 144.406C33.1974 144.452 32.2029 144.107 31.4224 143.482C28.5371 141.174 27.9392 137.013 30.0618 134.013Z" fill="#002C1F"/>
<path d="M152.422 112.09C152.771 112.616 153.194 113.054 153.675 113.394C154.259 113.807 154.926 114.074 155.643 114.173C158.303 114.542 160.798 112.438 161.206 109.478C161.587 106.692 159.773 105.81 158.156 105.446L157.677 104.961L158.062 102.165C158.119 101.751 157.83 101.369 157.413 101.309C156.999 101.252 156.615 101.543 156.557 101.958L156.175 104.735L155.484 105.095C154.808 105.068 154.15 105.115 153.569 105.326C152.436 105.739 151.759 106.684 151.559 108.14C151.364 109.556 151.672 110.958 152.422 112.09ZM154.09 106.755C154.755 106.512 155.768 106.607 156.668 106.731C157.876 106.899 158.662 107.108 159.138 107.444C159.688 107.833 159.82 108.394 159.699 109.268C159.409 111.397 157.68 112.925 155.851 112.669C154.981 112.551 154.215 112.047 153.686 111.253C153.142 110.428 152.918 109.398 153.063 108.347C153.221 107.209 153.693 106.895 154.087 106.753L154.09 106.755Z" fill="#002C1F"/>
<path d="M142.754 108.747C142.599 109.174 142.645 109.638 142.88 110.032C142.991 110.218 143.135 110.374 143.307 110.496C143.5 110.633 143.726 110.723 143.965 110.761C146.221 111.095 147.921 110.512 148.514 109.195C148.836 108.478 148.762 107.677 148.341 106.986C150.772 105.31 151.932 103.435 151.318 102.09C151.176 101.777 150.646 100.94 149.092 101.048C149.223 100.361 149.247 99.6679 149.153 99.0423C148.997 97.9981 148.149 97.2712 147.087 97.2724C145.997 97.2763 145.13 98.0213 144.976 99.0892C144.541 102.11 143.972 105.369 142.754 108.747ZM147.09 98.7903C147.174 98.7917 147.318 98.8053 147.442 98.8927C147.539 98.9618 147.622 99.0742 147.652 99.2611C147.76 100.013 147.637 100.945 147.314 101.757C147.206 102.028 147.264 102.339 147.464 102.554C147.663 102.768 147.968 102.849 148.247 102.761C149.302 102.431 149.868 102.569 149.936 102.717C150.077 103.025 149.578 104.478 146.807 106.171C146.596 106.299 146.464 106.519 146.447 106.761C146.428 107.006 146.527 107.242 146.713 107.4C147.129 107.749 147.294 108.209 147.13 108.571C146.911 109.056 146.009 109.529 144.186 109.254C145.449 105.75 146.035 102.403 146.48 99.3082C146.55 98.8173 147 98.7922 147.09 98.7903Z" fill="#002C1F"/>
</svg>
