<svg width="250" height="192" viewBox="0 0 250 192" fill="none" xmlns="http://www.w3.org/2000/svg">
<mask id="mask0_112_965" style="mask-type:luminance" maskUnits="userSpaceOnUse" x="0" y="0" width="250" height="192">
<path d="M0.591309 99.6348L204.513 0.813209L249.068 92.7541L45.1464 191.576L0.591309 99.6348Z" fill="white"/>
</mask>
<g mask="url(#mask0_112_965)">
<path d="M139.586 60.8137C143.417 58.957 148.05 60.5632 149.908 64.3971C151.766 68.231 150.156 72.8626 146.325 74.7193C142.491 76.5772 137.858 74.971 136 71.1371C134.142 67.3032 135.752 62.6716 139.586 60.8137ZM146.955 76.0197C151.506 73.814 153.419 68.3159 151.214 63.7644C149.008 59.213 143.505 57.3024 138.953 59.5081C134.399 61.715 132.496 67.2146 134.702 71.766C136.908 76.3175 142.401 78.2266 146.955 76.0197ZM93.0483 70.9963C99.4986 67.8704 107.293 70.5741 110.421 77.0295C113.547 83.4798 110.839 91.2727 104.389 94.3985C97.9389 97.5244 90.1473 94.8194 87.0214 88.3692C83.8931 81.9137 86.598 74.1221 93.0483 70.9963ZM105.019 95.6989C112.19 92.2241 115.202 83.5673 111.727 76.3968C108.251 69.2238 99.5885 66.221 92.4181 69.6958C85.2503 73.1694 82.2449 81.8263 85.721 88.9993C89.1959 96.1698 97.8515 99.1725 105.019 95.6989ZM41.8642 97.8028C47.8819 94.8866 55.1467 97.4022 58.0629 103.42C60.9803 109.44 58.4532 116.701 52.4355 119.617C46.4231 122.531 39.1582 120.015 36.2408 113.995C33.3246 107.977 35.8517 100.716 41.8642 97.8028ZM53.0682 120.923C59.806 117.658 62.626 109.522 59.3633 102.79C56.1019 96.0596 47.9693 93.232 41.2315 96.4972C34.4989 99.7599 31.679 107.895 34.9404 114.625C38.203 121.358 46.3356 124.185 53.0682 120.923ZM151.086 129.569C142.931 133.52 133.078 130.1 129.126 121.945C125.176 113.793 128.599 103.945 136.753 99.9932C144.903 96.0438 154.754 99.4592 158.704 107.611C162.656 115.766 159.235 125.619 151.086 129.569ZM107.494 131.308C103.473 123.011 106.957 112.984 115.254 108.963C119.075 107.111 123.349 106.783 127.381 108.012C125.524 112.552 125.526 117.829 127.826 122.575C129.885 126.824 133.414 129.889 137.507 131.456C135.859 134.756 133.172 137.443 129.838 139.059C121.541 143.08 111.515 139.606 107.494 131.308ZM136.123 98.6928C132.468 100.464 129.69 103.32 127.983 106.687C123.553 105.283 118.831 105.617 114.621 107.657C105.604 112.027 101.825 122.924 106.194 131.939C110.564 140.956 121.454 144.734 130.471 140.365C134.155 138.579 137.111 135.589 138.882 131.932C142.999 133.139 147.556 132.885 151.716 130.869C160.583 126.572 164.304 115.854 160.005 106.981C155.705 98.1089 144.99 94.3957 136.123 98.6928ZM176.354 65.9312C176.534 66.2887 176.398 66.7222 176.041 66.9019L36.9143 137.359C36.9091 137.362 36.9039 137.364 36.9039 137.364C36.549 137.536 36.1195 137.396 35.9423 137.043C35.76 136.687 35.9032 136.25 36.2608 136.07L175.383 65.6179C175.759 65.4358 176.174 65.5736 176.354 65.9312ZM226.103 50.3283C226.113 50.3619 226.126 50.4032 226.145 50.4421C229.766 58.4087 229.184 65.8146 224.415 72.4696C213.088 88.2654 188.884 107.557 181.647 108.214C181.215 108.253 180.649 108.24 180.356 107.96C175.877 103.634 165.441 108.233 164.996 108.43C164.688 108.585 164.502 108.935 164.593 109.274C164.675 109.615 164.997 109.843 165.348 109.817C170.408 109.419 173.573 116.505 174.264 118.221C167.411 126.548 136.964 141.194 124.069 147.162C120.934 148.614 117.251 148.07 114.689 145.773C105.312 137.394 98.0872 140.313 95.4288 141.957L95.3873 141.983C95.3484 142.002 95.3096 142.021 95.2745 142.048L95.2693 142.05C95.0202 142.203 94.8943 142.491 94.9423 142.775C94.9851 143.061 95.1986 143.29 95.4796 143.362C95.6233 143.401 95.7741 143.389 95.9138 143.34C97.3484 143 98.5665 143.19 99.6324 143.925C102.336 145.768 103.097 150.454 103.17 150.953C103.101 166.785 61.6708 181.514 48.9663 185.655C47.1592 186.243 45.1836 185.46 44.2644 183.795C31.8169 161.178 12.5364 122.184 7.26249 107.678C6.22296 104.813 8.01668 101.465 10.3447 99.8854C17.2002 95.2261 24.3122 91.2678 31.1199 87.9687C45.5152 80.9927 58.5696 76.9664 65.0848 75.5652C66.6675 75.2205 68.3068 75.9167 69.1615 77.2843C71.199 80.5449 72.9522 84.935 69.7461 87.3556C69.5085 87.5123 69.3878 87.7979 69.441 88.0792C69.4915 88.3682 69.7113 88.5975 69.9963 88.6642C70.1813 88.7025 70.3684 88.6662 70.524 88.578C71.1214 88.2597 79.2651 83.6446 78.7261 69.6871C78.5822 65.9247 80.6323 62.4585 83.9559 60.8479C83.9636 60.8441 83.9636 60.8441 83.9636 60.8441C94.5534 55.7186 120.598 43.5131 133.736 40.9787C136.188 40.5006 138.645 41.9202 139.437 44.268C140.31 46.8486 140.892 50.4053 138.708 52.6789C138.47 52.9322 138.444 53.3284 138.653 53.6078C138.861 53.891 139.261 53.9977 139.558 53.825C139.993 53.6077 150.17 48.4359 149.615 42.266C149.578 41.8677 149.916 41.4226 150.207 41.1249C155.248 35.9371 185.563 29.3811 205.093 30.5784C218.393 31.4011 223.862 41.7698 226.103 50.3283ZM205.183 29.1337C186.386 27.9777 154.976 34.1339 149.166 40.1194C148.438 40.8687 148.099 41.6344 148.166 42.3922C148.49 45.9393 144.116 49.3419 141.267 51.1606C141.927 49.168 141.779 46.6775 140.81 43.8074C139.784 40.773 136.623 38.943 133.456 39.5565C120.638 42.0318 96.5474 53.1401 83.3309 59.5385C83.3309 59.5385 83.3309 59.5385 83.3232 59.5423C79.4841 61.4027 77.1093 65.4069 77.2796 69.7451C77.5835 77.5341 75.0695 82.1752 72.8842 84.7088C73.1965 82.4687 72.3659 79.6788 70.3902 76.5193C69.215 74.6289 66.9582 73.6817 64.7818 74.1479C55.0819 76.2382 31.0654 84.0606 9.53423 98.6884C6.74019 100.58 4.626 104.646 5.90072 108.168C11.1931 122.739 30.5226 161.834 42.998 184.488C44.2521 186.766 46.9489 187.836 49.414 187.035C55.1484 185.164 66.6318 181.163 77.6517 175.823C91.5081 169.108 104.625 160.273 104.619 150.9C104.618 150.872 104.614 150.838 104.617 150.811C104.583 150.575 103.836 145.041 100.453 142.727C99.9744 142.406 99.4728 142.156 98.9418 141.991C102.196 141.07 107.383 141.186 113.721 146.851C116.716 149.532 121.021 150.171 124.681 148.477C137.832 142.392 169.139 127.31 175.663 118.784C175.815 118.589 175.855 118.336 175.772 118.105C175.645 117.75 173.082 110.653 168.164 108.795C171.38 107.748 176.781 106.516 179.351 109C179.903 109.532 180.719 109.751 181.773 109.656C190.127 108.893 214.689 88.5131 225.597 73.3108C230.599 66.3253 231.255 58.234 227.49 49.9026C225.537 42.5064 220.053 30.0493 205.183 29.1337Z" fill="#100F0D"/>
</g>
</svg>
