<svg width="532" height="852" viewBox="0 0 532 852" fill="none" xmlns="http://www.w3.org/2000/svg">
<path d="M156.043 0.000872729C155.819 0.00949767 155.602 0.0761591 155.412 0.194308C155.221 0.312456 155.065 0.478025 154.959 0.674738C154.852 0.871452 154.798 1.09254 154.803 1.31627C154.808 1.54 154.87 1.75868 154.985 1.9508C155.213 2.34245 155.334 2.78732 155.335 3.24047C155.335 3.69361 155.217 4.13897 154.99 4.53152C154.764 4.92407 154.438 5.24991 154.045 5.4761C153.653 5.70229 153.207 5.82082 152.754 5.81971C152.301 5.82015 151.856 5.70118 151.463 5.47478C151.071 5.24838 150.745 4.92254 150.518 4.53007C150.423 4.35975 150.29 4.21323 150.13 4.10154C149.97 3.98985 149.787 3.9159 149.595 3.88526C149.512 3.87198 149.428 3.8668 149.344 3.86978H149.339H149.329C149.203 3.87737 149.079 3.90344 148.96 3.94716C148.879 3.97383 148.802 4.00838 148.728 4.05033C148.692 4.07271 148.658 4.09681 148.625 4.12255C148.589 4.14744 148.555 4.17413 148.522 4.20251C148.492 4.23121 148.463 4.26134 148.436 4.29278L148.431 4.29794C148.248 4.50305 148.135 4.76135 148.109 5.03512C148.083 5.30889 148.146 5.5838 148.287 5.81971C148.515 6.21154 148.635 6.65666 148.636 7.11002C148.637 7.56339 148.518 8.00892 148.291 8.40155C148.065 8.79418 147.738 9.11997 147.345 9.34598C146.952 9.57199 146.507 9.69018 146.053 9.68862C145.6 9.68906 145.155 9.57009 144.762 9.34369C144.37 9.11729 144.044 8.79145 143.817 8.39898C143.732 8.24891 143.618 8.11735 143.482 8.01209C143.449 7.98459 143.414 7.95877 143.378 7.93471H143.373C143.191 7.82098 142.983 7.75458 142.769 7.74151C142.555 7.72845 142.34 7.76915 142.146 7.85991L142.14 7.86507C142.103 7.88134 142.066 7.89942 142.03 7.91923C141.993 7.94154 141.958 7.96564 141.924 7.99145C141.888 8.01635 141.854 8.04303 141.821 8.07141C141.792 8.10018 141.764 8.13031 141.738 8.16169L141.733 8.16685C141.559 8.3598 141.448 8.60064 141.413 8.85787C141.379 9.11511 141.423 9.37678 141.539 9.60866C141.552 9.63578 141.566 9.66245 141.581 9.68862C141.809 10.0803 141.929 10.5251 141.93 10.9783C141.931 11.4314 141.812 11.8768 141.586 12.2693C141.36 12.6619 141.034 12.9877 140.641 13.2139C140.248 13.4401 139.803 13.5586 139.35 13.5575C138.897 13.5578 138.453 13.4388 138.061 13.2123C137.669 12.9859 137.344 12.6601 137.119 12.2679C137.035 12.1168 136.921 11.9841 136.785 11.8777C136.649 11.7714 136.492 11.6935 136.325 11.6488C136.158 11.604 135.984 11.5933 135.813 11.6172C135.642 11.6412 135.477 11.6993 135.329 11.7881C135.293 11.8105 135.259 11.8346 135.225 11.8604C135.19 11.8853 135.155 11.9119 135.122 11.9403C135.092 11.969 135.064 11.9992 135.037 12.0306L135.032 12.0358C134.848 12.24 134.733 12.4979 134.706 12.7716C134.679 13.0454 134.739 13.3208 134.88 13.5575C135.108 13.9492 135.228 14.394 135.229 14.8472C135.23 15.3003 135.111 15.7457 134.885 16.1382C134.659 16.5308 134.333 16.8566 133.94 17.0828C133.547 17.309 133.102 17.4275 132.649 17.4264C132.196 17.4269 131.75 17.3079 131.358 17.0815C130.965 16.8551 130.639 16.5293 130.412 16.1368C130.328 15.9871 130.215 15.8557 130.08 15.7502C129.944 15.6448 129.789 15.5674 129.623 15.5228C129.458 15.4781 129.285 15.4669 129.115 15.49C128.944 15.5131 128.781 15.5698 128.633 15.6571C128.487 15.7434 128.359 15.8578 128.258 15.9935C128.156 16.1293 128.082 16.2837 128.04 16.4481C127.998 16.6125 127.989 16.7835 128.013 16.9514C128.038 17.1192 128.095 17.2807 128.181 17.4264C128.636 18.2092 129.287 18.859 130.072 19.3106C130.856 19.7623 131.745 20 132.65 20C133.555 20 134.444 19.7623 135.228 19.3106C136.013 18.859 136.664 18.2092 137.119 17.4264C137.407 16.9235 137.575 16.3792 137.681 15.8247C138.215 16.0078 138.769 16.1368 139.35 16.1368C141.189 16.1368 142.896 15.1515 143.817 13.5575C144.108 13.0546 144.273 12.5103 144.382 11.9558C144.916 12.1389 145.468 12.2679 146.048 12.2679C147.89 12.2679 149.597 11.2826 150.518 9.68862C150.809 9.18308 150.974 8.63886 151.083 8.08173C151.617 8.26744 152.171 8.39898 152.754 8.39898C153.659 8.39805 154.548 8.15902 155.332 7.70589C156.115 7.25275 156.765 6.60146 157.218 5.81742C157.67 5.03338 157.908 4.14418 157.907 3.23912C157.907 2.33405 157.669 1.44497 157.216 0.661165C157.1 0.453671 156.93 0.282203 156.723 0.165686C156.515 0.0491685 156.28 -0.00786655 156.043 0.000872729Z" fill="#46AF4E"/>
<path d="M111.684 297.824C111.806 298.012 111.974 298.165 112.172 298.269C112.371 298.372 112.592 298.422 112.816 298.414C113.04 298.405 113.257 298.339 113.448 298.221C113.638 298.103 113.794 297.938 113.901 297.741C114.122 297.346 114.444 297.016 114.833 296.784C115.223 296.553 115.667 296.428 116.12 296.423C116.573 296.418 117.019 296.533 117.414 296.756C117.808 296.979 118.137 297.302 118.367 297.692C118.598 298.082 118.722 298.526 118.727 298.979C118.732 299.432 118.618 299.879 118.395 300.274C118.297 300.442 118.238 300.631 118.224 300.825C118.209 301.02 118.238 301.215 118.31 301.397C118.341 301.475 118.379 301.549 118.424 301.62L118.427 301.624L118.432 301.633C118.503 301.738 118.588 301.832 118.686 301.911C118.75 301.967 118.82 302.016 118.893 302.059C118.931 302.078 118.969 302.095 119.008 302.111C119.048 302.129 119.088 302.145 119.129 302.159C119.169 302.17 119.21 302.179 119.25 302.186L119.257 302.188C119.527 302.241 119.807 302.207 120.056 302.09C120.305 301.973 120.51 301.779 120.641 301.538C120.862 301.142 121.184 300.812 121.574 300.58C121.963 300.349 122.408 300.224 122.861 300.22C123.314 300.215 123.761 300.33 124.155 300.553C124.55 300.776 124.879 301.1 125.108 301.491C125.339 301.881 125.463 302.325 125.468 302.778C125.473 303.231 125.359 303.677 125.136 304.072C125.05 304.222 124.995 304.387 124.974 304.558C124.967 304.6 124.962 304.643 124.96 304.686L124.962 304.69C124.957 304.905 125.006 305.118 125.104 305.309C125.202 305.5 125.346 305.664 125.523 305.785L125.53 305.787C125.563 305.811 125.598 305.834 125.633 305.855C125.671 305.875 125.71 305.893 125.749 305.909C125.789 305.927 125.829 305.943 125.87 305.957C125.91 305.968 125.95 305.976 125.99 305.982L125.997 305.984C126.252 306.035 126.516 306.009 126.755 305.907C126.994 305.806 127.197 305.635 127.337 305.417C127.354 305.392 127.37 305.366 127.385 305.341C127.606 304.945 127.927 304.615 128.317 304.383C128.706 304.152 129.15 304.027 129.603 304.022C130.056 304.017 130.503 304.132 130.897 304.355C131.292 304.578 131.621 304.901 131.85 305.292C132.081 305.681 132.205 306.124 132.209 306.577C132.214 307.029 132.099 307.475 131.876 307.868C131.789 308.018 131.732 308.183 131.71 308.354C131.688 308.526 131.701 308.7 131.747 308.866C131.793 309.033 131.873 309.188 131.981 309.324C132.088 309.459 132.222 309.571 132.374 309.653C132.412 309.673 132.45 309.69 132.489 309.705C132.529 309.723 132.569 309.739 132.61 309.753C132.65 309.765 132.691 309.774 132.731 309.781L132.738 309.783C133.008 309.837 133.288 309.804 133.538 309.689C133.787 309.573 133.993 309.38 134.126 309.139C134.347 308.743 134.668 308.413 135.058 308.182C135.448 307.95 135.891 307.826 136.344 307.821C136.798 307.816 137.244 307.931 137.639 308.153C138.033 308.376 138.362 308.699 138.592 309.09C138.823 309.48 138.947 309.924 138.952 310.377C138.957 310.83 138.842 311.276 138.62 311.671C138.534 311.82 138.478 311.984 138.456 312.154C138.435 312.325 138.447 312.498 138.493 312.663C138.539 312.828 138.617 312.983 138.724 313.118C138.83 313.252 138.962 313.364 139.113 313.447C139.261 313.529 139.425 313.581 139.593 313.599C139.762 313.617 139.933 313.602 140.095 313.555C140.258 313.507 140.41 313.428 140.542 313.322C140.674 313.215 140.784 313.084 140.866 312.935C141.308 312.146 141.536 311.254 141.525 310.349C141.515 309.444 141.267 308.558 140.806 307.779C140.345 307 139.688 306.356 138.9 305.91C138.112 305.465 137.221 305.235 136.316 305.243C135.736 305.25 135.183 305.383 134.651 305.574C134.537 305.021 134.366 304.478 134.071 303.979C133.134 302.396 131.417 301.427 129.576 301.446C128.995 301.451 128.443 301.586 127.91 301.775C127.796 301.223 127.626 300.682 127.331 300.182C126.393 298.597 124.676 297.629 122.835 297.648C122.252 297.654 121.699 297.789 121.165 297.98C121.053 297.426 120.884 296.881 120.587 296.379C120.125 295.601 119.467 294.957 118.678 294.514C117.89 294.07 116.998 293.842 116.093 293.852C115.188 293.862 114.301 294.109 113.522 294.57C112.744 295.031 112.1 295.689 111.655 296.477C111.536 296.683 111.475 296.917 111.48 297.155C111.485 297.392 111.556 297.624 111.684 297.824Z" fill="#46AF4E"/>
<path d="M508.501 90.162C508.535 90.383 508.627 90.5914 508.766 90.7664C508.906 90.9414 509.088 91.0771 509.296 91.1602C509.504 91.2433 509.73 91.2709 509.951 91.2403C510.173 91.2097 510.383 91.1219 510.56 90.9856C510.923 90.7137 511.351 90.5423 511.801 90.4887C512.251 90.4351 512.707 90.5013 513.123 90.6805C513.539 90.8597 513.901 91.1456 514.171 91.5093C514.441 91.873 514.611 92.3016 514.662 92.7518C514.716 93.2019 514.649 93.658 514.47 94.0742C514.291 94.4904 514.005 94.8521 513.641 95.1228C513.483 95.2371 513.353 95.3857 513.261 95.5576C513.169 95.7294 513.116 95.9199 513.108 96.1149C513.105 96.1985 513.109 96.2824 513.122 96.3652L513.123 96.3703L513.124 96.3805C513.146 96.5049 513.186 96.6253 513.244 96.7379C513.279 96.8148 513.323 96.888 513.373 96.9564C513.399 96.9891 513.427 97.0205 513.457 97.0505C513.486 97.0831 513.516 97.1142 513.548 97.1437C513.58 97.17 513.613 97.1947 513.648 97.2177L513.653 97.2223C513.878 97.3804 514.148 97.4624 514.423 97.4564C514.698 97.4503 514.964 97.3566 515.182 97.1888C515.544 96.9168 515.972 96.7453 516.423 96.6918C516.873 96.6383 517.329 96.7047 517.746 96.8842C518.162 97.0637 518.523 97.35 518.794 97.714C519.064 98.0781 519.233 98.5071 519.284 98.9576C519.337 99.4076 519.271 99.8637 519.092 100.28C518.912 100.696 518.627 101.058 518.263 101.329C518.124 101.43 518.007 101.559 517.918 101.707C517.894 101.743 517.873 101.78 517.853 101.818L517.854 101.823C517.762 102.017 517.72 102.231 517.732 102.446C517.744 102.66 517.809 102.868 517.922 103.051L517.928 103.056C517.948 103.091 517.971 103.126 517.994 103.16C518.021 103.193 518.049 103.225 518.078 103.256C518.107 103.289 518.138 103.32 518.17 103.349C518.202 103.375 518.235 103.399 518.269 103.421L518.275 103.425C518.487 103.575 518.739 103.658 518.998 103.662C519.258 103.667 519.513 103.593 519.729 103.45C519.755 103.434 519.78 103.417 519.804 103.4C520.166 103.128 520.594 102.956 521.044 102.903C521.494 102.849 521.95 102.915 522.367 103.095C522.783 103.274 523.144 103.56 523.415 103.923C523.685 104.287 523.854 104.716 523.906 105.166C523.959 105.615 523.892 106.071 523.713 106.486C523.534 106.901 523.248 107.262 522.884 107.532C522.744 107.633 522.626 107.761 522.536 107.909C522.446 108.056 522.387 108.221 522.362 108.392C522.337 108.563 522.346 108.737 522.39 108.904C522.434 109.072 522.511 109.228 522.616 109.365C522.642 109.398 522.67 109.43 522.7 109.459C522.729 109.492 522.759 109.523 522.791 109.553C522.823 109.579 522.856 109.604 522.891 109.627L522.896 109.631C523.121 109.791 523.39 109.874 523.665 109.869C523.94 109.865 524.207 109.772 524.426 109.605C524.788 109.334 525.216 109.162 525.666 109.109C526.116 109.055 526.572 109.121 526.988 109.3C527.404 109.48 527.766 109.765 528.036 110.129C528.307 110.493 528.476 110.921 528.528 111.372C528.581 111.822 528.514 112.278 528.335 112.694C528.156 113.11 527.87 113.472 527.507 113.743C527.368 113.843 527.25 113.971 527.161 114.118C527.072 114.265 527.014 114.428 526.989 114.598C526.963 114.767 526.972 114.941 527.015 115.107C527.058 115.273 527.133 115.429 527.237 115.566C527.34 115.701 527.468 115.814 527.615 115.9C527.762 115.985 527.924 116.04 528.092 116.063C528.26 116.085 528.431 116.075 528.595 116.031C528.759 115.987 528.912 115.912 529.047 115.809C529.772 115.267 530.341 114.544 530.699 113.712C531.056 112.881 531.189 111.97 531.084 111.071C530.978 110.172 530.639 109.317 530.099 108.59C529.559 107.864 528.838 107.292 528.008 106.932C527.475 106.704 526.915 106.6 526.352 106.56C526.472 106.008 526.535 105.442 526.468 104.866C526.254 103.04 525.077 101.458 523.387 100.729C522.853 100.498 522.294 100.397 521.73 100.354C521.85 99.8025 521.914 99.2393 521.846 98.6629C521.632 96.8337 520.455 95.2524 518.765 94.5231C518.229 94.2924 517.669 94.1917 517.103 94.1489C517.226 93.597 517.292 93.0309 517.224 92.452C517.118 91.5531 516.777 90.6981 516.236 89.9726C515.695 89.2471 514.973 88.6768 514.141 88.3189C513.31 87.9609 512.399 87.828 511.5 87.9335C510.601 88.0389 509.746 88.379 509.02 88.9196C508.827 89.0587 508.677 89.2484 508.585 89.4676C508.494 89.6868 508.464 89.9271 508.501 90.162Z" fill="#46AF4E"/>
<path d="M455.218 438.177C455.252 438.398 455.344 438.606 455.483 438.782C455.622 438.957 455.805 439.092 456.013 439.175C456.221 439.258 456.446 439.286 456.668 439.255C456.89 439.225 457.1 439.137 457.277 439.001C457.64 438.729 458.067 438.557 458.517 438.504C458.967 438.45 459.424 438.516 459.84 438.696C460.256 438.875 460.618 439.161 460.888 439.524C461.158 439.888 461.328 440.317 461.379 440.767C461.432 441.217 461.366 441.673 461.187 442.089C461.007 442.506 460.722 442.867 460.358 443.138C460.2 443.252 460.07 443.401 459.978 443.573C459.885 443.745 459.833 443.935 459.825 444.13C459.822 444.214 459.826 444.298 459.839 444.38L459.839 444.385L459.841 444.396C459.863 444.52 459.903 444.64 459.96 444.753C459.996 444.83 460.04 444.903 460.09 444.972C460.116 445.004 460.144 445.036 460.174 445.066C460.202 445.098 460.233 445.129 460.265 445.159C460.297 445.185 460.33 445.21 460.365 445.233L460.37 445.237C460.595 445.395 460.865 445.478 461.14 445.471C461.415 445.465 461.681 445.372 461.899 445.204C462.261 444.932 462.689 444.76 463.139 444.707C463.59 444.653 464.046 444.72 464.462 444.899C464.879 445.079 465.24 445.365 465.51 445.729C465.78 446.093 465.95 446.522 466.001 446.973C466.054 447.423 465.988 447.879 465.808 448.295C465.629 448.711 465.343 449.073 464.98 449.344C464.841 449.445 464.723 449.574 464.635 449.722C464.611 449.758 464.59 449.795 464.57 449.833L464.57 449.838C464.479 450.033 464.437 450.247 464.449 450.461C464.461 450.675 464.526 450.884 464.639 451.066L464.645 451.071C464.665 451.107 464.687 451.141 464.711 451.175C464.738 451.208 464.766 451.241 464.795 451.271C464.824 451.304 464.855 451.335 464.887 451.365C464.919 451.39 464.952 451.414 464.986 451.436L464.992 451.441C465.203 451.591 465.456 451.673 465.715 451.678C465.975 451.682 466.229 451.608 466.446 451.465C466.472 451.449 466.496 451.432 466.521 451.415C466.883 451.143 467.311 450.972 467.761 450.918C468.211 450.864 468.667 450.931 469.083 451.11C469.5 451.289 469.861 451.575 470.131 451.939C470.402 452.302 470.571 452.731 470.623 453.181C470.676 453.63 470.609 454.086 470.43 454.501C470.25 454.917 469.965 455.277 469.601 455.547C469.461 455.648 469.342 455.776 469.253 455.924C469.163 456.072 469.104 456.236 469.079 456.407C469.054 456.578 469.063 456.752 469.107 456.92C469.15 457.087 469.227 457.244 469.333 457.381C469.359 457.413 469.387 457.445 469.417 457.475C469.445 457.507 469.476 457.538 469.508 457.568C469.54 457.594 469.573 457.619 469.608 457.642L469.613 457.646C469.838 457.806 470.107 457.889 470.382 457.885C470.657 457.88 470.924 457.787 471.142 457.621C471.505 457.349 471.933 457.177 472.383 457.124C472.833 457.07 473.289 457.136 473.705 457.315C474.121 457.495 474.483 457.781 474.753 458.144C475.023 458.508 475.193 458.937 475.244 459.387C475.298 459.837 475.231 460.293 475.052 460.709C474.873 461.125 474.587 461.487 474.224 461.758C474.085 461.859 473.967 461.986 473.878 462.133C473.789 462.28 473.73 462.443 473.705 462.613C473.68 462.783 473.689 462.956 473.732 463.122C473.775 463.288 473.85 463.444 473.954 463.581C474.057 463.716 474.185 463.829 474.332 463.915C474.478 464 474.64 464.055 474.808 464.078C474.977 464.101 475.148 464.09 475.311 464.046C475.475 464.002 475.629 463.927 475.764 463.824C476.488 463.282 477.058 462.559 477.415 461.727C477.773 460.896 477.906 459.985 477.8 459.086C477.695 458.187 477.356 457.332 476.816 456.606C476.276 455.879 475.555 455.307 474.725 454.947C474.192 454.719 473.632 454.616 473.069 454.575C473.188 454.023 473.252 453.458 473.185 452.881C472.971 451.055 471.794 449.473 470.103 448.744C469.57 448.513 469.01 448.412 468.447 448.369C468.567 447.818 468.631 447.254 468.563 446.678C468.349 444.849 467.172 443.268 465.482 442.538C464.946 442.308 464.386 442.207 463.82 442.164C463.943 441.612 464.009 441.046 463.941 440.467C463.835 439.568 463.494 438.713 462.953 437.988C462.412 437.262 461.689 436.692 460.858 436.334C460.027 435.976 459.116 435.843 458.217 435.949C457.318 436.054 456.463 436.394 455.737 436.935C455.544 437.074 455.394 437.264 455.302 437.483C455.211 437.702 455.181 437.942 455.218 438.177Z" fill="#46AF4E"/>
<path d="M398.042 492.097C397.825 492.043 397.597 492.045 397.382 492.105C397.166 492.165 396.97 492.28 396.812 492.439C396.655 492.598 396.541 492.795 396.482 493.011C396.424 493.227 396.423 493.455 396.479 493.671C396.588 494.111 396.578 494.572 396.452 495.007C396.325 495.442 396.086 495.836 395.759 496.149C395.431 496.463 395.027 496.684 394.586 496.79C394.146 496.897 393.685 496.886 393.251 496.757C392.816 496.63 392.422 496.391 392.108 496.063C391.795 495.736 391.574 495.332 391.467 494.891C391.423 494.701 391.337 494.523 391.215 494.371C391.093 494.219 390.938 494.096 390.762 494.013C390.686 493.977 390.607 493.948 390.526 493.928L390.521 493.926L390.511 493.923C390.388 493.895 390.262 493.885 390.136 493.894C390.051 493.897 389.966 493.908 389.884 493.928C389.843 493.939 389.804 493.953 389.765 493.968C389.723 493.982 389.683 493.998 389.643 494.016C389.606 494.035 389.571 494.056 389.536 494.079L389.53 494.082C389.296 494.227 389.115 494.444 389.013 494.699C388.912 494.954 388.894 495.236 388.963 495.502C389.072 495.942 389.063 496.403 388.936 496.838C388.809 497.274 388.57 497.668 388.242 497.981C387.914 498.294 387.509 498.515 387.069 498.622C386.628 498.728 386.167 498.716 385.732 498.587C385.297 498.46 384.903 498.221 384.59 497.893C384.277 497.566 384.056 497.161 383.949 496.721C383.91 496.553 383.837 496.395 383.736 496.256C383.712 496.22 383.686 496.185 383.658 496.152L383.653 496.151C383.511 495.991 383.33 495.868 383.128 495.796C382.926 495.723 382.709 495.702 382.496 495.734L382.49 495.738C382.449 495.743 382.408 495.75 382.368 495.758C382.327 495.77 382.286 495.783 382.246 495.798C382.205 495.812 382.165 495.828 382.125 495.846C382.089 495.865 382.054 495.886 382.02 495.909L382.014 495.913C381.793 496.049 381.619 496.249 381.513 496.486C381.408 496.723 381.376 496.987 381.423 497.242C381.428 497.272 381.433 497.301 381.44 497.33C381.549 497.77 381.54 498.231 381.413 498.666C381.287 499.101 381.048 499.495 380.72 499.809C380.392 500.122 379.988 500.343 379.548 500.45C379.107 500.556 378.646 500.545 378.212 500.416C377.778 500.29 377.384 500.05 377.072 499.723C376.76 499.396 376.539 498.992 376.433 498.552C376.395 498.383 376.323 498.224 376.222 498.084C376.121 497.943 375.993 497.825 375.846 497.735C375.698 497.645 375.534 497.586 375.363 497.56C375.192 497.535 375.017 497.545 374.85 497.588C374.81 497.6 374.77 497.613 374.731 497.629C374.689 497.643 374.649 497.658 374.609 497.676C374.573 497.696 374.537 497.717 374.502 497.739L374.496 497.743C374.261 497.887 374.079 498.102 373.976 498.357C373.873 498.612 373.854 498.894 373.922 499.16C374.031 499.6 374.021 500.061 373.895 500.496C373.768 500.931 373.529 501.325 373.202 501.639C372.874 501.952 372.47 502.173 372.029 502.279C371.589 502.386 371.128 502.375 370.694 502.246C370.259 502.119 369.865 501.88 369.552 501.553C369.238 501.225 369.017 500.821 368.91 500.38C368.871 500.213 368.8 500.055 368.699 499.916C368.599 499.777 368.472 499.659 368.325 499.569C368.179 499.48 368.016 499.421 367.846 499.395C367.676 499.369 367.503 499.378 367.337 499.42C367.172 499.462 367.018 499.536 366.882 499.637C366.746 499.739 366.632 499.866 366.546 500.012C366.459 500.158 366.402 500.32 366.379 500.488C366.355 500.656 366.364 500.827 366.406 500.991C366.622 501.87 367.065 502.677 367.691 503.33C368.317 503.984 369.103 504.462 369.972 504.717C370.84 504.971 371.76 504.993 372.64 504.78C373.519 504.566 374.328 504.126 374.983 503.502C375.402 503.101 375.716 502.626 375.973 502.123C376.434 502.449 376.93 502.729 377.487 502.892C379.252 503.409 381.167 502.943 382.499 501.672C382.92 501.271 383.232 500.795 383.491 500.293C383.952 500.619 384.446 500.898 385.003 501.061C386.77 501.579 388.686 501.113 390.017 499.842C390.439 499.439 390.75 498.963 391.011 498.458C391.471 498.787 391.966 499.069 392.526 499.233C393.395 499.486 394.315 499.506 395.194 499.292C396.073 499.077 396.881 498.635 397.535 498.009C398.189 497.384 398.667 496.597 398.921 495.729C399.176 494.86 399.197 493.94 398.983 493.061C398.93 492.829 398.814 492.616 398.648 492.446C398.482 492.276 398.272 492.155 398.042 492.097Z" fill="#FD961E"/>
<path d="M91.4869 471.222C91.2771 471.3 91.0911 471.431 90.9473 471.602C90.8035 471.774 90.7068 471.98 90.6666 472.2C90.6265 472.42 90.6443 472.647 90.7184 472.858C90.7924 473.069 90.9202 473.258 91.089 473.404C91.4276 473.706 91.6806 474.091 91.8225 474.521C91.9644 474.952 91.9903 475.412 91.8973 475.855C91.8044 476.299 91.5961 476.71 91.2934 477.047C90.9906 477.384 90.6043 477.636 90.1733 477.776C89.7428 477.917 89.2826 477.943 88.839 477.85C88.3955 477.757 87.9842 477.549 87.6467 477.246C87.5033 477.114 87.3317 477.016 87.145 476.96C86.9582 476.903 86.7611 476.89 86.5685 476.921C86.4858 476.934 86.4045 476.955 86.3259 476.984L86.321 476.986L86.3112 476.989C86.1937 477.035 86.0838 477.099 85.9848 477.177C85.9165 477.228 85.8534 477.285 85.7963 477.348C85.7695 477.38 85.7443 477.414 85.7207 477.448C85.6945 477.483 85.6701 477.519 85.6476 477.556C85.6282 477.593 85.6106 477.631 85.5948 477.669L85.5915 477.675C85.4813 477.927 85.4545 478.208 85.515 478.476C85.5756 478.744 85.7203 478.986 85.928 479.166C86.2667 479.468 86.5198 479.853 86.6617 480.284C86.8036 480.714 86.8293 481.175 86.7361 481.619C86.6429 482.062 86.4342 482.473 86.1311 482.811C85.8279 483.148 85.4412 483.399 85.0098 483.538C84.5793 483.68 84.1191 483.706 83.6756 483.613C83.232 483.52 82.8208 483.311 82.4832 483.009C82.3559 482.893 82.2066 482.803 82.0442 482.746C82.0042 482.73 81.9634 482.716 81.922 482.704L81.9171 482.706C81.7085 482.655 81.4905 482.656 81.2826 482.711C81.0748 482.765 80.8839 482.87 80.7271 483.017L80.7238 483.024C80.6929 483.051 80.6634 483.08 80.6353 483.11C80.6076 483.142 80.5816 483.176 80.5573 483.211C80.5311 483.246 80.5067 483.282 80.4841 483.319C80.4656 483.356 80.4488 483.393 80.4338 483.431L80.4305 483.437C80.3256 483.675 80.2948 483.938 80.3421 484.193C80.3894 484.449 80.5126 484.684 80.6955 484.868C80.7162 484.889 80.7375 484.911 80.7596 484.931C81.0982 485.232 81.3512 485.617 81.4931 486.048C81.6351 486.478 81.6609 486.938 81.568 487.382C81.4751 487.825 81.2667 488.236 80.964 488.574C80.6613 488.911 80.2749 489.162 79.8439 489.302C79.4141 489.443 78.9545 489.468 78.5118 489.375C78.069 489.282 77.6587 489.074 77.3222 488.771C77.1954 488.654 77.0462 488.563 76.8836 488.504C76.7209 488.446 76.5482 488.42 76.3756 488.43C76.2029 488.439 76.034 488.483 75.8787 488.559C75.7235 488.635 75.5851 488.742 75.4718 488.872C75.445 488.905 75.4198 488.938 75.3963 488.973C75.3701 489.008 75.3457 489.044 75.3231 489.081C75.3037 489.118 75.2861 489.155 75.2703 489.194L75.267 489.2C75.1554 489.452 75.1271 489.732 75.1863 490.001C75.2456 490.27 75.3892 490.512 75.5962 490.694C75.9347 490.995 76.1877 491.38 76.3297 491.81C76.4716 492.241 76.4974 492.701 76.4045 493.144C76.3116 493.588 76.1033 493.999 75.8005 494.336C75.4978 494.673 75.1114 494.925 74.6805 495.065C74.2499 495.206 73.7897 495.232 73.3462 495.139C72.9026 495.046 72.4914 494.838 72.1539 494.535C72.0274 494.419 71.8791 494.33 71.7175 494.272C71.5559 494.214 71.3844 494.188 71.2129 494.198C71.0415 494.207 70.8736 494.25 70.7191 494.325C70.5646 494.4 70.4266 494.505 70.3133 494.634C70.2014 494.761 70.1159 494.91 70.0615 495.07C70.0071 495.231 69.9849 495.401 69.9962 495.57C70.0075 495.739 70.0522 495.904 70.1275 496.056C70.2028 496.208 70.3074 496.344 70.4352 496.456C71.1105 497.058 71.9322 497.473 72.8181 497.658C73.7039 497.843 74.6229 497.792 75.4829 497.51C76.3429 497.228 77.1139 496.726 77.7185 496.052C78.3231 495.379 78.7403 494.559 78.9282 493.673C79.0462 493.105 79.036 492.536 78.9639 491.976C79.5283 491.984 80.0954 491.934 80.6469 491.753C82.3945 491.181 83.7104 489.713 84.0892 487.911C84.2096 487.343 84.1971 486.774 84.1274 486.213C84.6917 486.221 85.2564 486.172 85.8079 485.991C87.558 485.418 88.8739 483.95 89.2527 482.148C89.3723 481.577 89.3597 481.009 89.2892 480.446C89.8544 480.456 90.4223 480.408 90.9763 480.227C91.8361 479.944 92.6064 479.44 93.2098 478.766C93.8133 478.091 94.2287 477.27 94.4142 476.384C94.5998 475.498 94.5491 474.579 94.2671 473.719C93.9851 472.859 93.4818 472.088 92.8077 471.484C92.6331 471.323 92.4173 471.213 92.1842 471.167C91.9512 471.121 91.7098 471.14 91.4869 471.222Z" fill="#FD961E"/>
<path d="M250.634 850.724C250.833 850.623 251.003 850.471 251.126 850.284C251.249 850.097 251.321 849.881 251.335 849.658C251.35 849.435 251.306 849.212 251.208 849.01C251.109 848.809 250.961 848.637 250.776 848.511C250.405 848.251 250.109 847.897 249.918 847.486C249.727 847.075 249.648 846.621 249.689 846.17C249.73 845.719 249.89 845.286 250.151 844.916C250.413 844.546 250.767 844.252 251.179 844.063C251.591 843.872 252.045 843.794 252.496 843.835C252.947 843.876 253.38 844.035 253.75 844.296C253.908 844.411 254.09 844.488 254.282 844.522C254.474 844.557 254.671 844.547 254.859 844.494C254.94 844.472 255.018 844.441 255.093 844.403L255.097 844.401L255.107 844.397C255.218 844.337 255.32 844.261 255.409 844.172C255.471 844.114 255.527 844.05 255.576 843.981C255.599 843.946 255.62 843.909 255.64 843.872C255.662 843.835 255.682 843.796 255.7 843.756C255.715 843.718 255.728 843.678 255.739 843.639L255.742 843.632C255.822 843.369 255.816 843.087 255.725 842.828C255.634 842.568 255.462 842.345 255.235 842.19C254.864 841.93 254.568 841.576 254.377 841.165C254.186 840.753 254.107 840.299 254.148 839.848C254.189 839.396 254.349 838.964 254.611 838.594C254.873 838.224 255.228 837.929 255.641 837.741C256.052 837.55 256.506 837.472 256.957 837.513C257.409 837.553 257.841 837.713 258.211 837.974C258.351 838.075 258.51 838.146 258.678 838.184C258.72 838.196 258.762 838.205 258.804 838.211L258.809 838.209C259.022 838.236 259.238 838.209 259.439 838.131C259.639 838.053 259.816 837.926 259.955 837.762L259.957 837.756C259.985 837.725 260.011 837.693 260.035 837.66C260.059 837.624 260.081 837.588 260.101 837.55C260.123 837.512 260.143 837.474 260.161 837.434C260.175 837.396 260.188 837.357 260.198 837.318L260.201 837.311C260.277 837.063 260.278 836.797 260.201 836.549C260.124 836.301 259.975 836.082 259.772 835.921C259.749 835.901 259.725 835.883 259.701 835.865C259.33 835.605 259.034 835.252 258.843 834.841C258.652 834.43 258.573 833.976 258.614 833.525C258.655 833.073 258.814 832.641 259.076 832.271C259.338 831.901 259.692 831.607 260.104 831.418C260.515 831.228 260.968 831.149 261.419 831.191C261.869 831.232 262.301 831.391 262.67 831.653C262.81 831.755 262.969 831.828 263.137 831.867C263.305 831.906 263.48 831.912 263.65 831.882C263.821 831.853 263.983 831.79 264.129 831.696C264.274 831.602 264.399 831.481 264.497 831.338C264.519 831.303 264.541 831.266 264.56 831.229C264.582 831.191 264.602 831.153 264.62 831.113C264.635 831.075 264.648 831.035 264.659 830.996L264.662 830.989C264.744 830.726 264.739 830.444 264.649 830.184C264.559 829.924 264.389 829.699 264.162 829.543C263.791 829.283 263.495 828.93 263.304 828.519C263.113 828.108 263.034 827.654 263.075 827.203C263.116 826.751 263.276 826.319 263.537 825.949C263.799 825.579 264.153 825.284 264.565 825.095C264.977 824.905 265.431 824.826 265.882 824.867C266.333 824.908 266.766 825.067 267.136 825.329C267.275 825.429 267.433 825.501 267.6 825.54C267.767 825.579 267.941 825.584 268.11 825.555C268.279 825.526 268.441 825.464 268.586 825.372C268.73 825.279 268.855 825.159 268.953 825.018C269.049 824.878 269.117 824.721 269.153 824.555C269.188 824.389 269.19 824.218 269.16 824.051C269.129 823.884 269.065 823.725 268.973 823.583C268.88 823.441 268.761 823.318 268.621 823.222C267.88 822.702 267.016 822.386 266.115 822.304C265.214 822.223 264.307 822.38 263.485 822.76C262.663 823.139 261.956 823.728 261.433 824.467C260.911 825.205 260.591 826.069 260.507 826.97C260.456 827.547 260.532 828.112 260.668 828.66C260.107 828.717 259.549 828.833 259.023 829.076C257.353 829.847 256.216 831.457 256.048 833.291C255.995 833.869 256.073 834.433 256.207 834.982C255.646 835.039 255.091 835.154 254.564 835.397C252.892 836.169 251.755 837.78 251.587 839.613C251.535 840.194 251.613 840.757 251.748 841.308C251.186 841.364 250.627 841.477 250.098 841.721C249.277 842.102 248.57 842.691 248.049 843.431C247.527 844.171 247.21 845.035 247.128 845.936C247.046 846.838 247.203 847.745 247.583 848.566C247.963 849.388 248.552 850.095 249.291 850.617C249.483 850.757 249.711 850.841 249.947 850.86C250.184 850.879 250.422 850.832 250.634 850.724Z" fill="#FD961E"/>
<path d="M20.6507 37.7338C20.7057 37.5169 20.7034 37.2894 20.644 37.0737C20.5845 36.8579 20.4699 36.6614 20.3114 36.5034C20.153 36.3453 19.9562 36.2312 19.7403 36.1723C19.5244 36.1134 19.2969 36.1116 19.0802 36.1673C18.64 36.2749 18.1792 36.2645 17.7444 36.137C17.3095 36.0095 16.916 35.7695 16.6037 35.4412C16.2913 35.1129 16.0712 34.708 15.9655 34.2673C15.8598 33.8267 15.8723 33.3659 16.0017 32.9317C16.1296 32.4969 16.3699 32.1036 16.6982 31.7912C17.0265 31.4788 17.4313 31.2585 17.8719 31.1523C18.0622 31.1093 18.2403 31.0238 18.3927 30.902C18.5451 30.7802 18.6679 30.6255 18.7519 30.4494C18.788 30.3739 18.8167 30.295 18.8376 30.2139L18.8391 30.2089L18.842 30.199C18.8704 30.076 18.8806 29.9494 18.8722 29.8234C18.8695 29.7385 18.8584 29.6542 18.8391 29.5715C18.8277 29.5311 18.8143 29.4912 18.799 29.4521C18.7853 29.4108 18.7694 29.3702 18.7516 29.3305C18.7325 29.2938 18.7116 29.258 18.6891 29.2233L18.6856 29.2169C18.5408 28.9831 18.325 28.8018 18.0698 28.6993C17.8146 28.5968 17.5334 28.5786 17.2671 28.6473C16.8267 28.7551 16.3657 28.7445 15.9307 28.6169C15.4956 28.4892 15.102 28.2489 14.7897 27.9203C14.4774 27.5917 14.2574 27.1865 14.1519 26.7455C14.0465 26.3046 14.0594 25.8436 14.1893 25.4093C14.3173 24.9745 14.5575 24.5812 14.8858 24.2688C15.2142 23.9564 15.619 23.7361 16.0596 23.6299C16.2275 23.5911 16.386 23.519 16.5256 23.4179C16.5613 23.394 16.5959 23.3683 16.629 23.3409L16.6305 23.336C16.7912 23.1934 16.9137 23.013 16.987 22.8111C17.0602 22.6091 17.0819 22.3921 17.05 22.1797L17.0465 22.1733C17.0416 22.1324 17.0348 22.0918 17.026 22.0516C17.0149 22.0103 17.0018 21.9697 16.9867 21.9297C16.9729 21.8884 16.9571 21.8478 16.9392 21.8081C16.9198 21.7722 16.8987 21.7373 16.876 21.7034L16.8725 21.697C16.7366 21.4759 16.5372 21.3009 16.3003 21.1949C16.0634 21.0889 15.8 21.0569 15.5446 21.1031C15.5149 21.1077 15.4854 21.1133 15.4562 21.12C15.016 21.2276 14.5552 21.2172 14.1204 21.0897C13.6855 20.9622 13.2921 20.7222 12.9797 20.3939C12.6674 20.0656 12.4472 19.6607 12.3415 19.22C12.2358 18.7794 12.2483 18.3187 12.3777 17.8844C12.5056 17.4504 12.7457 17.0578 13.0738 16.7462C13.4019 16.4347 13.8064 16.2152 14.2465 16.11C14.4152 16.0722 14.5746 16.001 14.7152 15.9004C14.8558 15.7998 14.9748 15.672 15.065 15.5245C15.1552 15.377 15.2149 15.2129 15.2404 15.0419C15.2659 14.871 15.2568 14.6966 15.2136 14.5292C15.2022 14.4888 15.1889 14.4489 15.1736 14.4098C15.1598 14.3685 15.144 14.3279 15.1261 14.2882C15.107 14.2515 15.0862 14.2157 15.0637 14.181L15.0602 14.1746C14.9165 13.9399 14.7016 13.7573 14.4468 13.6535C14.1919 13.5497 13.9106 13.5301 13.6438 13.5976C13.2037 13.7052 12.7429 13.6948 12.308 13.5673C11.8732 13.4398 11.4797 13.1998 11.1674 12.8715C10.855 12.5432 10.6348 12.1383 10.5291 11.6976C10.4234 11.257 10.4359 10.7963 10.5653 10.362C10.6933 9.92724 10.9335 9.53387 11.2619 9.2215C11.5902 8.90913 11.995 8.68879 12.4356 8.58264C12.603 8.54447 12.7611 8.47326 12.9006 8.3732C13.0401 8.27313 13.1582 8.14622 13.248 7.9999C13.3378 7.85358 13.3975 7.69081 13.4236 7.52112C13.4496 7.35143 13.4416 7.17825 13.3998 7.01172C13.3583 6.84726 13.2848 6.69259 13.1834 6.55659C13.082 6.42059 12.9548 6.30593 12.8091 6.21916C12.6633 6.13239 12.5019 6.07524 12.334 6.05095C12.1661 6.02667 11.9951 6.03574 11.8308 6.07765C10.9514 6.29149 10.1436 6.73258 9.48832 7.35676C8.83302 7.98094 8.35317 8.76631 8.09682 9.63424C7.84047 10.5022 7.81662 11.4222 8.02764 12.3023C8.23866 13.1823 8.67715 13.9915 9.29922 14.6488C9.69975 15.0683 10.1742 15.3832 10.6761 15.6417C10.3492 16.1019 10.0685 16.5972 9.90407 17.1538C9.38315 18.9175 9.84442 20.8341 11.1123 22.1687C11.5121 22.5907 11.9873 22.9032 12.4884 23.1642C12.1616 23.6243 11.8815 24.1172 11.7171 24.6737C11.1955 26.4399 11.6568 28.3565 12.9247 29.6911C13.3269 30.1138 13.8021 30.4263 14.3057 30.688C13.9764 31.1475 13.6932 31.642 13.528 32.2011C13.2726 33.0693 13.25 33.9895 13.4627 34.8693C13.6753 35.749 14.1157 36.5573 14.7396 37.213C15.3634 37.8687 16.1488 38.3487 17.0169 38.6048C17.8849 38.861 18.8051 38.8842 19.685 38.6723C19.9168 38.62 20.1296 38.5047 20.3001 38.3391C20.4705 38.1735 20.5918 37.964 20.6507 37.7338Z" fill="#FD961E"/>
<path d="M77.0152 598.733C76.7933 598.704 76.5677 598.733 76.3604 598.817C76.1532 598.901 75.9714 599.038 75.8331 599.214C75.6948 599.39 75.6046 599.599 75.5714 599.82C75.5382 600.041 75.5632 600.268 75.6438 600.476C75.8024 600.901 75.8461 601.36 75.7706 601.806C75.695 602.253 75.5028 602.672 75.2134 603.021C74.9241 603.37 74.5478 603.636 74.1226 603.792C73.6974 603.949 73.2384 603.991 72.7919 603.913C72.3452 603.837 71.9263 603.645 71.5776 603.355C71.2288 603.066 70.9625 602.69 70.8054 602.265C70.7404 602.081 70.6345 601.914 70.4957 601.777C70.3569 601.64 70.1888 601.536 70.004 601.473C69.9248 601.446 69.8431 601.427 69.7601 601.416L69.755 601.415L69.7448 601.413C69.6193 601.4 69.4924 601.404 69.3682 601.427C69.2843 601.44 69.2018 601.461 69.122 601.49C69.0832 601.506 69.0452 601.524 69.0081 601.544C68.9687 601.562 68.9303 601.583 68.8929 601.605C68.8587 601.628 68.8256 601.653 68.7938 601.68L68.7878 601.684C68.5727 601.855 68.4179 602.091 68.3461 602.356C68.2743 602.622 68.2892 602.903 68.3887 603.159C68.5473 603.584 68.591 604.043 68.5153 604.49C68.4396 604.937 68.2471 605.356 67.9575 605.705C67.6678 606.054 67.2911 606.32 66.8656 606.476C66.4401 606.633 65.9808 606.674 65.5342 606.596C65.0875 606.52 64.6686 606.328 64.3199 606.038C63.9711 605.749 63.7048 605.373 63.5477 604.947C63.4894 604.785 63.3992 604.636 63.2825 604.51C63.2545 604.477 63.2249 604.446 63.1938 604.416L63.1887 604.415C63.0283 604.272 62.8348 604.172 62.6256 604.123C62.4165 604.074 62.1984 604.078 61.9912 604.134L61.9853 604.138C61.9453 604.148 61.9057 604.16 61.8668 604.173C61.8271 604.189 61.7883 604.207 61.7504 604.226C61.711 604.245 61.6726 604.265 61.6352 604.288C61.6019 604.311 61.5696 604.336 61.5386 604.363L61.5327 604.367C61.329 604.528 61.1786 604.747 61.1012 604.994C61.0238 605.242 61.0229 605.507 61.0987 605.756C61.1068 605.784 61.1158 605.813 61.1259 605.841C61.2845 606.266 61.3282 606.725 61.2526 607.171C61.177 607.618 60.9849 608.037 60.6955 608.386C60.4061 608.735 60.0298 609.001 59.6046 609.157C59.1795 609.314 58.7204 609.356 58.274 609.278C57.8279 609.202 57.4099 609.01 57.062 608.721C56.7141 608.431 56.4486 608.055 56.2925 607.631C56.2352 607.468 56.1457 607.318 56.0293 607.19C55.9129 607.062 55.772 606.959 55.615 606.887C55.458 606.814 55.288 606.774 55.1152 606.769C54.9424 606.764 54.7703 606.793 54.6091 606.856C54.5703 606.872 54.5323 606.89 54.4952 606.91C54.4558 606.928 54.4174 606.949 54.3801 606.971C54.3458 606.994 54.3128 607.019 54.2809 607.046L54.275 607.05C54.0588 607.22 53.9027 607.455 53.8295 607.72C53.7563 607.985 53.7698 608.267 53.8682 608.524C54.0268 608.949 54.0705 609.407 53.9949 609.854C53.9193 610.301 53.7272 610.72 53.4378 611.069C53.1484 611.417 52.7721 611.683 52.3469 611.84C51.9218 611.997 51.4627 612.039 51.0163 611.961C50.5695 611.885 50.1507 611.693 49.8019 611.403C49.4532 611.114 49.1868 610.738 49.0297 610.312C48.9722 610.151 48.8829 610.002 48.7672 609.875C48.6514 609.749 48.5115 609.646 48.3557 609.574C48.1998 609.502 48.0312 609.462 47.8596 609.456C47.688 609.45 47.517 609.478 47.3565 609.539C47.198 609.6 47.0531 609.691 46.9299 609.808C46.8067 609.924 46.7078 610.064 46.6387 610.219C46.5697 610.374 46.5319 610.541 46.5275 610.711C46.523 610.88 46.5521 611.049 46.613 611.207C46.9286 612.055 47.4615 612.806 48.1582 613.383C48.855 613.961 49.6913 614.345 50.5833 614.498C51.4753 614.651 52.3918 614.566 53.241 614.253C54.0902 613.941 54.8423 613.41 55.4221 612.715C55.7917 612.268 56.0487 611.76 56.2465 611.231C56.7419 611.502 57.2667 611.723 57.8388 611.821C59.6514 612.131 61.5007 611.448 62.6772 610.032C63.0494 609.586 63.3039 609.077 63.5043 608.549C63.9996 608.819 64.5219 609.039 65.0939 609.137C66.9091 609.448 68.7584 608.765 69.9349 607.349C70.3075 606.9 70.562 606.392 70.7628 605.861C71.2577 606.134 71.7821 606.357 72.3567 606.456C73.2489 606.607 74.1654 606.522 75.0141 606.207C75.8628 605.893 76.6138 605.361 77.1918 604.664C77.7697 603.968 78.1542 603.131 78.3067 602.239C78.4592 601.347 78.3743 600.431 78.0605 599.582C77.9814 599.358 77.8419 599.16 77.6575 599.01C77.473 598.86 77.2507 598.764 77.0152 598.733Z" fill="#46AF4E"/>
</svg>
