<svg width="140" height="139" viewBox="0 0 140 139" fill="none" xmlns="http://www.w3.org/2000/svg">
<path d="M55.2575 35.2316C51.0908 35.8322 46.7294 38.1495 42.9757 41.7583C39.1817 45.4051 36.5891 49.7665 35.6821 54.0354C34.647 58.9025 35.8507 63.2972 39.1627 66.7422C41.9192 69.6102 45.3594 71.087 49.2247 71.087C50.0224 71.087 50.8415 71.0229 51.6725 70.8947C55.9864 70.237 60.4357 67.8794 64.2012 64.2611C67.9549 60.6523 70.4573 56.3265 71.2479 52.079C72.1335 47.3116 70.8419 42.9596 67.5133 39.4957C64.1822 36.0293 59.9443 34.5549 55.2575 35.2316ZM70.1225 51.8701C69.3747 55.8825 66.9909 59.9923 63.4082 63.4349C56.9409 69.653 46.8528 73.0908 39.989 65.9492C36.9523 62.7891 35.8483 58.7506 36.8028 54.2728C37.6622 50.2247 40.1362 46.0746 43.7687 42.5821C47.3514 39.1395 51.4897 36.9315 55.4214 36.3641C56.1004 36.2667 56.7699 36.2169 57.43 36.2169C60.9367 36.2169 64.1063 37.6034 66.687 40.2886C69.7498 43.4748 70.9369 47.4801 70.1225 51.8677V51.8701Z" fill="#002C1F"/>
<path d="M32.8853 53.3728C32.9376 53.387 32.9898 53.3941 33.0396 53.3941C33.2913 53.3941 33.5216 53.2279 33.5905 52.9739C33.6427 52.7887 33.6973 52.6035 33.7567 52.4183C33.8493 52.1144 33.6831 51.7939 33.3815 51.6989C33.0776 51.6063 32.7571 51.7725 32.6621 52.0741C32.6004 52.2711 32.5434 52.4706 32.4888 52.6676C32.4034 52.9715 32.5814 53.2873 32.8853 53.3728Z" fill="#002C1F"/>
<path d="M33.0754 55.7014C33.1062 55.3857 32.8759 55.1055 32.5601 55.0746C32.2468 55.0462 31.9666 55.2765 31.9357 55.5899C31.6128 58.9256 32.3702 61.9575 34.1889 64.6024C34.3005 64.7638 34.4785 64.8493 34.6613 64.8493C34.7729 64.8493 34.8869 64.8184 34.9842 64.7496C35.2454 64.5691 35.3119 64.213 35.1314 63.9518C33.4695 61.5373 32.7786 58.7618 33.0754 55.7014Z" fill="#002C1F"/>
<path d="M99.4014 101.906C100.866 102.201 102.336 102.346 103.798 102.346C108.12 102.346 112.346 101.075 116.026 98.6251C120.947 95.3463 124.297 90.3486 125.461 84.5508C126.622 78.7505 125.458 72.8459 122.18 67.9241C115.411 57.7648 101.64 55.0036 91.4787 61.7701C81.317 68.539 78.5582 82.3119 85.3247 92.4711C88.6035 97.3929 93.6012 100.745 99.4014 101.906ZM92.1126 62.7246C96.7803 59.6143 102.381 58.5103 107.877 59.612C113.376 60.7136 118.117 63.8903 121.225 68.558C124.335 73.2257 125.439 78.8265 124.338 84.3252C123.236 89.8239 120.06 94.5628 115.392 97.6731C110.724 100.781 105.123 101.885 99.6246 100.783C94.1259 99.6816 89.387 96.5049 86.2768 91.8372C79.8592 82.2003 82.478 69.1421 92.1126 62.7246Z" fill="#002C1F"/>
<path d="M103.78 97.9341C107.156 97.9341 110.572 96.9725 113.587 94.9639C121.729 89.5412 123.939 78.5059 118.516 70.3623C113.096 62.2211 102.061 60.0107 93.917 65.4334C85.7758 70.8561 83.5631 81.8915 88.9858 90.0327C92.3999 95.1586 98.0387 97.9341 103.78 97.9341ZM94.5533 66.3855C97.3098 64.5478 100.479 63.5981 103.718 63.5981C104.812 63.5981 105.916 63.705 107.013 63.9258C111.36 64.7971 115.107 67.3091 117.564 70.9986C122.638 78.6151 120.568 88.9382 112.951 94.0095C105.335 99.0832 95.0115 97.0129 89.9402 89.3988C84.8665 81.7823 86.9368 71.4592 94.5533 66.3855Z" fill="#002C1F"/>
<path d="M97.7798 91.0606C97.7442 91.0796 97.7134 91.1033 97.6825 91.1318C97.3454 91.4381 97.2908 91.9295 97.5543 92.2999C97.7276 92.5445 97.9959 92.6774 98.2737 92.6774C98.371 92.6774 98.4684 92.6608 98.5633 92.6276C102.044 92.3688 107.607 90.4528 112.165 86.8084C112.22 86.984 112.353 87.1289 112.536 87.1882C112.593 87.2072 112.652 87.2143 112.709 87.2143C112.889 87.2143 113.06 87.1312 113.172 86.9817L113.196 86.9508C114.095 85.74 115.416 83.6269 114.981 82.162L116.802 80.8728C117.061 80.69 117.123 80.3339 116.94 80.0751C116.757 79.8187 116.401 79.7569 116.142 79.9397L114.319 81.2266C113.397 80.5618 111.7 80.5998 109.06 81.3358C108.822 81.4023 108.651 81.6159 108.642 81.8652C108.632 82.1121 108.784 82.3401 109.017 82.4255L109.197 82.4896C106.365 85.4242 102.528 88.3041 97.7798 91.0582V91.0606ZM110.356 82.9313L110.047 84.4887C110.017 84.6431 110.05 84.8021 110.14 84.9303C110.23 85.0586 110.37 85.144 110.525 85.1678L112.075 85.3909C108.02 88.8644 102.994 90.8398 99.5083 91.3692C104.055 88.6294 107.614 85.8587 110.356 82.9313ZM113.808 82.3163C114.095 82.7318 113.868 83.6554 113.238 84.7903C113.193 84.5552 113.003 84.37 112.761 84.3344L111.287 84.1207L111.576 82.6606C111.631 82.3876 111.481 82.1169 111.225 82.0172C113.117 81.7062 113.656 82.0932 113.811 82.3163H113.808Z" fill="#002C1F"/>
<path d="M92.388 72.3688C92.4735 72.7202 92.7299 73.0075 93.0908 73.1405C94.9878 73.7554 96.4455 74.8214 97.4261 76.31C97.54 76.4857 97.6872 76.6234 97.8558 76.7255C97.7751 80.2584 97.1578 82.9104 96.0134 84.6103C95.8354 84.8715 95.9042 85.2276 96.1677 85.4033C96.2651 85.4698 96.3767 85.5006 96.4859 85.5006C96.6711 85.5006 96.8515 85.4128 96.9631 85.249C98.2167 83.3852 98.9005 80.5646 98.9978 76.868C99.1023 76.8347 99.2067 76.7896 99.3041 76.7303C100.926 75.7426 102.642 75.4031 104.551 75.6927C104.563 75.6951 104.575 75.6951 104.587 75.6975C104.95 75.7283 105.301 75.5764 105.529 75.2939C105.757 75.0113 105.826 74.6338 105.719 74.2872L105.605 73.9239L105.926 73.7079C106.325 73.4349 106.498 72.9434 106.353 72.4804C106.208 72.0222 105.793 71.7183 105.316 71.7183H105.299L104.914 71.723L104.824 71.4381C104.717 71.101 104.454 70.8351 104.119 70.7282C103.784 70.619 103.414 70.6831 103.134 70.8944L100.814 72.6324C100.797 72.6466 100.778 72.649 100.757 72.6466C100.738 72.6419 100.721 72.63 100.712 72.611C100.7 72.5896 100.7 72.5611 100.714 72.5398L102.445 69.7691C102.63 69.4699 102.661 69.0972 102.526 68.7719C102.388 68.4466 102.103 68.2068 101.759 68.1309L101.465 68.0667L101.439 67.6797C101.403 67.1978 101.061 66.8013 100.589 66.6968C100.116 66.5924 99.6412 66.8037 99.4038 67.2263L99.2139 67.5658L98.8435 67.4827C98.4874 67.402 98.1193 67.5064 97.8558 67.7557C97.5923 68.0074 97.4736 68.3706 97.5353 68.7292L98.0766 71.856C98.0885 71.9225 98.0576 71.9866 98.0006 72.0198C97.9532 72.0459 97.908 72.0412 97.8796 72.0317C97.8511 72.0246 97.8107 72.0032 97.787 71.9557L96.4265 69.4011C96.2603 69.09 95.9541 68.8764 95.6027 68.8312C95.256 68.7885 94.9023 68.9167 94.6649 69.1755L94.4607 69.3963L94.114 69.2277C93.6772 69.0164 93.1644 69.1138 92.8367 69.4723C92.5091 69.8284 92.4568 70.3484 92.7038 70.7639L92.9008 71.0963L92.6444 71.3764C92.3999 71.6447 92.3025 72.0151 92.388 72.3688ZM94.0333 71.5568C94.2043 71.3693 94.2328 71.0939 94.1022 70.8754L93.784 70.3412L94.3443 70.6119C94.5723 70.7235 94.8453 70.6713 95.0162 70.4837L95.4531 70.0089L96.7755 72.4947C96.9417 72.8057 97.2195 73.0336 97.559 73.131C97.8985 73.2307 98.2547 73.1903 98.5633 73.0146C99.0405 72.7463 99.297 72.2026 99.2044 71.6613L98.6773 68.6176L99.3801 68.7743C99.627 68.8289 99.881 68.7149 100.004 68.4941L100.308 67.9528L100.353 68.5725C100.372 68.8241 100.553 69.0354 100.8 69.09L101.431 69.2301L99.7409 71.9343C99.5106 72.3047 99.4964 72.7724 99.7053 73.1571C99.8739 73.4681 100.168 73.6889 100.513 73.7649C100.859 73.8408 101.22 73.7601 101.5 73.5488L103.756 71.8584L103.948 72.4733C104.024 72.7131 104.245 72.8745 104.494 72.8745H104.501L105.126 72.865L104.61 73.2164C104.399 73.3565 104.309 73.62 104.385 73.8598L104.599 74.5412C102.462 74.2445 100.534 74.6386 98.7082 75.7521C98.5989 75.8186 98.4517 75.7877 98.3829 75.6809C97.2718 73.9928 95.6383 72.7796 93.5466 72.0839L94.0333 71.5568Z" fill="#002C1F"/>
<path d="M113.507 74.0679C113.78 74.0679 114.055 73.9895 114.3 73.8281C114.62 73.6144 114.836 73.2915 114.912 72.914C114.988 72.5389 114.912 72.1543 114.701 71.8361C114.487 71.5156 114.162 71.2996 113.787 71.2236C113.412 71.1476 113.027 71.2236 112.707 71.4349C112.049 71.8741 111.868 72.7692 112.308 73.4292C112.585 73.8423 113.041 74.0679 113.507 74.0679ZM113.217 72.5745C113.234 72.4985 113.279 72.4321 113.343 72.3893C113.407 72.3466 113.485 72.33 113.561 72.3466C113.637 72.3608 113.704 72.4059 113.746 72.47C113.837 72.603 113.801 72.7858 113.666 72.8737C113.533 72.9639 113.35 72.9283 113.262 72.7929C113.203 72.7051 113.21 72.6196 113.217 72.5745Z" fill="#002C1F"/>
<path d="M104.188 83.8645C104.283 83.8835 104.38 83.893 104.475 83.893C104.755 83.893 105.028 83.8122 105.268 83.6532C105.586 83.4395 105.805 83.1142 105.881 82.7391C105.954 82.3616 105.881 81.9793 105.667 81.6588C105.453 81.3407 105.13 81.1222 104.753 81.0463C104.378 80.9727 103.993 81.0463 103.675 81.2599C103.354 81.4736 103.138 81.7965 103.062 82.174C102.986 82.5491 103.062 82.9338 103.276 83.2519C103.487 83.5724 103.813 83.7885 104.188 83.8645ZM104.309 82.2144C104.375 82.1693 104.451 82.155 104.527 82.1693C104.572 82.1788 104.656 82.2073 104.715 82.2951C104.772 82.383 104.767 82.4684 104.758 82.5135C104.741 82.5895 104.698 82.656 104.632 82.6987C104.568 82.7415 104.489 82.7581 104.413 82.7415C104.337 82.7272 104.271 82.6821 104.228 82.618C104.138 82.485 104.176 82.3022 104.309 82.2144Z" fill="#002C1F"/>
<path d="M92.6492 80.6923C92.9223 80.6923 93.2001 80.6139 93.4446 80.4501C94.1023 80.0109 94.2827 79.1182 93.8435 78.4581C93.6298 78.14 93.3069 77.9216 92.9294 77.8456C92.5543 77.772 92.1697 77.8456 91.8515 78.0593C91.531 78.2729 91.3149 78.5958 91.239 78.9733C91.163 79.3485 91.239 79.7307 91.4503 80.0512C91.728 80.4667 92.1839 80.6923 92.6492 80.6923ZM92.362 79.1965C92.3762 79.1205 92.4213 79.0541 92.4854 79.0113C92.5353 78.9781 92.5923 78.9638 92.6469 78.9638C92.7418 78.9638 92.8344 79.009 92.889 79.0944C92.9793 79.2274 92.9437 79.4078 92.8083 79.498C92.7205 79.5574 92.635 79.5503 92.5899 79.5408C92.5139 79.5265 92.4474 79.4814 92.4047 79.4173C92.362 79.3508 92.3453 79.2749 92.362 79.1965Z" fill="#002C1F"/>
<path d="M71.4781 121.88C71.5897 121.883 71.7013 121.885 71.8128 121.885C76.1102 121.885 80.1725 120.252 83.2779 117.265C89.8617 110.938 90.0682 100.434 83.7433 93.8527C77.416 87.269 66.9125 87.0625 60.3311 93.3898C57.1426 96.4549 55.3381 100.577 55.2503 105C55.1625 109.42 56.803 113.611 59.8682 116.8C62.9333 119.988 67.0549 121.793 71.4781 121.88ZM61.1241 94.2136C64.1085 91.3456 67.9571 89.921 71.801 89.921C75.8514 89.921 79.8971 91.5023 82.9171 94.6457C88.8075 100.774 88.6128 110.548 82.485 116.439C79.5172 119.292 75.6235 120.819 71.4995 120.736C67.3849 120.655 63.5458 118.974 60.692 116.007C57.8406 113.039 56.314 109.138 56.3947 105.021C56.4754 100.907 58.1563 97.0674 61.1241 94.2136Z" fill="#002C1F"/>
<path d="M71.8083 118.616C75.1251 118.616 78.4443 117.388 81.0203 114.912C86.3053 109.833 86.4715 101.398 81.3907 96.1127C76.3122 90.8253 67.8766 90.6591 62.5916 95.74C57.3042 100.821 57.138 109.254 62.2189 114.541C64.8257 117.253 68.3135 118.618 71.8083 118.618V118.616ZM63.3846 96.5662C65.7374 94.3036 68.7717 93.1806 71.8036 93.1806C74.9945 93.1806 78.1855 94.427 80.5668 96.9057C85.2108 101.737 85.0565 109.444 80.2273 114.088C75.3958 118.73 67.6867 118.578 63.0451 113.746C58.4011 108.917 58.5531 101.208 63.3846 96.5662Z" fill="#002C1F"/>
<path d="M65.1081 101.956C65.4643 101.956 65.8252 101.823 66.1029 101.555C66.6727 101.007 66.6917 100.095 66.1433 99.5252C65.5949 98.953 64.6832 98.9364 64.111 99.4848C63.5412 100.033 63.5222 100.945 64.0706 101.517C64.3531 101.809 64.7306 101.956 65.1081 101.956ZM64.904 100.309C64.9609 100.256 65.0345 100.228 65.1058 100.228C65.1841 100.228 65.2601 100.259 65.3171 100.318C65.4287 100.434 65.4239 100.62 65.3099 100.729C65.253 100.783 65.177 100.812 65.101 100.812C65.0227 100.81 64.9514 100.779 64.8968 100.722C64.8232 100.646 64.8137 100.558 64.8161 100.513C64.8161 100.437 64.8493 100.363 64.904 100.309Z" fill="#002C1F"/>
<path d="M66.1885 107.471C65.64 106.899 64.7283 106.883 64.1585 107.431C63.5863 107.98 63.5673 108.891 64.1182 109.463C64.3983 109.755 64.7758 109.903 65.1533 109.903C65.5118 109.903 65.8703 109.77 66.1481 109.504C66.7203 108.953 66.7393 108.044 66.1885 107.471ZM65.3551 108.678C65.2388 108.789 65.0536 108.784 64.942 108.668C64.8708 108.594 64.8613 108.507 64.8613 108.461C64.8637 108.383 64.8945 108.31 64.9515 108.257C65.0061 108.203 65.0797 108.174 65.1533 108.174C65.2293 108.174 65.3076 108.205 65.3646 108.264C65.4738 108.381 65.4715 108.566 65.3551 108.678Z" fill="#002C1F"/>
<path d="M77.4044 107.082C76.8536 106.51 75.9419 106.493 75.3721 107.042C74.7999 107.59 74.7833 108.502 75.3317 109.074C75.6143 109.366 75.9894 109.513 76.3669 109.513C76.7254 109.513 77.0839 109.381 77.3641 109.115C77.9339 108.564 77.9529 107.654 77.4044 107.082ZM76.5687 108.288C76.4547 108.4 76.2695 108.395 76.158 108.279C76.0464 108.165 76.0487 107.98 76.1651 107.868C76.2387 107.797 76.3218 107.785 76.3669 107.785C76.3693 107.785 76.3716 107.785 76.374 107.785C76.45 107.787 76.5236 107.818 76.5782 107.875C76.6898 107.992 76.685 108.177 76.5687 108.288Z" fill="#002C1F"/>
<path d="M69.9232 100.74C71.0224 100.65 71.6706 101.476 72.4256 102.433C73.2328 103.456 74.1611 104.634 75.7637 104.634C76.6327 104.634 77.7011 104.28 79.052 103.373C79.7002 103.952 80.1442 104.546 80.4053 105.175C80.4979 105.396 80.7116 105.529 80.9348 105.529C81.0084 105.529 81.082 105.515 81.1556 105.486C81.4476 105.365 81.5853 105.03 81.4642 104.738C81.1081 103.879 80.4979 103.093 79.61 102.345C79.1921 100.374 78.278 99.0519 76.8939 98.4156C75.0681 97.5752 72.4754 98.0215 69.5931 99.6716C69.3605 99.8045 69.2513 100.082 69.3296 100.339C69.4103 100.595 69.6549 100.761 69.9232 100.74ZM76.4143 99.4555C77.4138 99.9138 78.0976 100.906 78.4514 102.402C75.4622 104.434 74.5149 103.233 73.3254 101.725C72.8173 101.079 72.2689 100.384 71.5329 99.966C73.0263 99.3036 74.9351 98.7741 76.4143 99.4555Z" fill="#002C1F"/>
<mask id="mask0_112_1048" style="mask-type:luminance" maskUnits="userSpaceOnUse" x="0" y="0" width="140" height="139">
<path d="M0 0H139.186V138.557H0V0Z" fill="white"/>
</mask>
<g mask="url(#mask0_112_1048)">
<path d="M0.693273 73.1259C1.60497 89.6457 8.43322 105.325 19.9149 117.272C32.7381 130.61 49.9868 138.161 68.4843 138.526C68.9544 138.536 69.4221 138.54 69.8922 138.54C87.8698 138.54 104.855 131.705 117.856 119.212C131.195 106.389 138.745 89.14 139.11 70.6425C139.476 52.1449 132.617 34.609 119.794 21.2706C108.469 9.48735 93.2925 2.06792 77.06 0.377473C61.0981 -1.28448 44.9914 2.6496 31.6863 11.4556L25.4516 10.4679C22.2583 9.96219 19.0887 10.9546 16.7549 13.1911C14.421 15.4276 13.2956 18.5521 13.6636 21.7644L14.3593 27.8068C4.64635 40.7724 -0.206556 56.8554 0.693273 73.1259ZM17.5478 14.0174C19.2644 12.372 21.4938 11.4841 23.8205 11.4841C24.3001 11.4841 24.7868 11.5221 25.2712 11.598L39.4809 13.8488C39.4002 13.8749 39.3218 13.901 39.2411 13.9271C33.7543 15.7292 28.0775 17.5953 23.7493 21.7549C20.6557 24.7298 18.678 29.1174 16.9329 32.9897C16.7097 33.4836 16.4913 33.9655 16.2753 34.438L14.8009 21.6315C14.4732 18.78 15.4752 16.0046 17.5478 14.0174ZM41.9382 14.2382L80.27 20.309C81.5615 21.3466 82.8032 22.4791 83.9619 23.6828C91.3504 31.3705 95.1326 41.5844 94.6292 52.4631L80.4765 66.065C83.157 61.0815 84.5554 55.5329 84.4604 50.0438C84.3299 42.6576 81.609 35.9931 76.5875 30.7698C70.944 24.896 62.7767 21.4748 54.1844 21.3822C45.6254 21.2967 37.337 24.4924 31.4323 30.1692C25.5181 35.853 21.9615 44.0394 21.6719 52.6293C21.3822 61.2786 24.4497 69.6026 30.0861 75.4669C35.1076 80.6902 41.658 83.6746 49.0347 84.0948C49.6164 84.128 50.1981 84.1447 50.7798 84.1447C55.6944 84.1447 60.6494 82.9694 65.1937 80.7566L51.0481 94.3538C40.1575 94.4274 30.1027 90.2416 22.7141 82.5539C22.3461 82.1717 22.0043 81.7966 21.6837 81.4333L16.5246 36.5986C17.0113 35.599 17.4814 34.5591 17.9752 33.4598C19.7606 29.4973 21.6078 25.4017 24.5423 22.5812C28.6829 18.602 34.2315 16.7786 39.5996 15.0145C40.3855 14.7581 41.1666 14.4993 41.9382 14.2382ZM82.4495 20.6557L103.229 23.9463C106.716 24.4995 109.432 26.8405 110.491 30.2119C111.548 33.5809 110.66 37.0568 108.112 39.5046L95.8116 51.3282C96.0086 40.5777 92.1268 30.5253 84.7857 22.8898C84.0402 22.1134 83.2567 21.3679 82.4495 20.6557ZM68.5864 77.4945C62.7435 81.3977 55.825 83.335 49.0988 82.9528C42.0189 82.5468 35.7296 79.6835 30.9123 74.6739C25.4872 69.0304 22.5361 61.0079 22.8162 52.6673C23.0964 44.3741 26.5248 36.4727 32.2253 30.993C37.9163 25.5228 45.9269 22.434 54.1725 22.5266C62.4609 22.6168 70.3291 25.9098 75.7637 31.5628C80.5786 36.5748 83.1902 42.9733 83.3161 50.0651C83.4324 56.7984 81.222 63.6362 77.0909 69.32L68.5864 77.4945ZM49.8657 95.4887L39.2007 105.741C36.6508 108.191 33.1393 108.941 29.8107 107.742C26.4797 106.545 24.2503 103.732 23.8467 100.216L21.9069 83.3659C29.2432 90.9895 39.1247 95.2631 49.8657 95.4887ZM22.7094 100.346C23.1581 104.245 25.7294 107.493 29.4237 108.82C30.5681 109.233 31.748 109.432 32.9162 109.432C35.5112 109.432 38.0445 108.44 39.9961 106.564L108.905 40.3284C111.731 37.6147 112.756 33.607 111.584 29.8676C110.408 26.1306 107.277 23.4288 103.407 22.8162L42.7763 13.2125C53.8758 7.93224 66.5921 6.09459 78.7979 8.04145C92.0271 10.1498 103.939 16.3845 113.248 26.0713C124.58 37.8593 130.644 53.3582 130.321 69.707C129.996 86.0583 123.324 101.303 111.534 112.635C99.7457 123.967 84.2468 130.034 67.8979 129.706C51.549 129.381 36.3018 122.709 24.9697 110.921C15.4894 101.054 9.70343 88.6675 8.24091 75.0989C6.88523 62.5298 9.50162 49.6734 15.6129 38.6974L22.7094 100.346ZM14.5516 29.4759L15.3921 36.779C8.60892 48.2512 5.66489 61.8959 7.10129 75.2223C8.5923 89.045 14.4851 101.664 24.1458 111.714C35.6893 123.725 51.219 130.52 67.8742 130.85C68.2991 130.86 68.7217 130.865 69.1444 130.865C85.3318 130.865 100.624 124.713 112.327 113.462C124.338 101.918 131.135 86.3859 131.465 69.7308C131.795 53.0756 125.618 37.2871 114.074 25.2783C104.591 15.411 92.4544 9.05999 78.9784 6.91132C66.0033 4.841 52.4584 6.96831 40.8128 12.9015L33.3744 11.7239C46.2521 3.54468 61.6632 -0.0760025 76.9437 1.5171C92.9055 3.17905 107.83 10.475 118.97 22.0636C131.579 35.1835 138.324 52.4275 137.966 70.6187C137.605 88.8124 130.181 105.776 117.063 118.386C103.943 130.995 86.6993 137.745 68.5057 137.382C50.3144 137.021 33.3506 129.599 20.7412 116.479C9.44702 104.729 2.73273 89.311 1.83527 73.0618C0.973431 57.4703 5.48207 42.0521 14.5516 29.4759Z" fill="#002C1F"/>
</g>
</svg>
