<svg width="166" height="136" viewBox="0 0 166 136" fill="none" xmlns="http://www.w3.org/2000/svg">
<mask id="mask0_112_1100" style="mask-type:luminance" maskUnits="userSpaceOnUse" x="0" y="0" width="166" height="136">
<path d="M0 0L165.763 -4.8316e-07L165.763 135.116L3.9383e-07 135.116L0 0Z" fill="white"/>
</mask>
<g mask="url(#mask0_112_1100)">
<path d="M71.5784 33.4351L72.305 33.027C76.2936 30.7027 79.8283 27.8236 82.9114 24.3898C86.1251 20.8803 89.2449 17.2814 92.4541 13.7765C93.6828 12.4402 94.9756 11.1679 96.3349 9.9645C97.6071 8.77481 99.0971 8.00461 100.807 7.65618C101.224 7.5622 101.646 7.52323 102.072 7.53927C102.499 7.55303 102.918 7.6195 103.329 7.7387C103.739 7.86019 104.129 8.02753 104.495 8.24529C104.864 8.46306 105.199 8.72209 105.499 9.02467C106.382 9.86134 107.136 10.7989 107.764 11.8396C108.722 13.49 109.566 15.1978 110.295 16.9628C111.64 20.2453 113.075 23.4774 114.673 26.6545C116.31 29.8224 117.449 33.16 118.091 36.6695C118.274 37.7445 118.414 38.8265 118.549 39.8993C118.588 40.1629 118.623 40.4265 118.678 40.8093C119.116 40.6878 119.489 40.6053 119.847 40.4861C122.398 39.5738 124.798 38.3612 127.042 36.8437C130.203 34.7302 133.124 32.3233 135.801 29.6253C137.995 27.4591 140.452 25.6505 143.173 24.2018C145.497 22.9548 147.819 21.7078 150.178 20.541C151.161 20.0665 152.186 19.7021 153.247 19.4476C155.109 18.9869 156.296 19.6769 156.904 21.5015C157.172 22.3382 157.387 23.1886 157.55 24.0528C158.653 29.4992 160.296 34.776 162.485 39.8832C163.345 42.0196 164.09 44.1927 164.718 46.4093C165.841 50.0334 165.937 53.7469 165.394 57.4764C164.913 60.7681 164.273 64.0392 163.796 67.3355C163.473 69.4604 163.4 71.6151 163.116 73.747C162.909 75.214 162.618 76.665 162.245 78.1C161.931 79.3034 161.323 80.3372 160.422 81.1968C160.14 81.4605 160.012 81.7837 160.037 82.1665C160.179 90.9138 157.027 98.4989 151.79 105.33C147.613 110.776 142.462 115.166 136.732 118.898C129.316 123.744 121.282 127.219 112.83 129.782C106.584 131.661 100.225 133.014 93.7538 133.839C87.0375 134.724 80.2936 135.056 73.5222 134.838C61.1394 134.41 49.0637 132.351 37.4327 127.982C29.9966 125.192 23.0533 121.552 16.8321 116.596C11.4911 112.349 6.98446 107.363 3.88301 101.22C1.32255 96.147 0.00448958 90.7785 0.217671 85.0891C0.437729 79.0627 2.28071 73.4994 5.3409 68.328C8.13747 63.6953 11.5873 59.6151 15.6882 56.0827L17.1255 54.8243C16.7266 54.6363 16.4286 54.501 16.1375 54.3612C14.4756 53.5566 12.7931 52.7887 11.161 51.9291C9.90939 51.2758 8.8114 50.4277 7.8624 49.3824C5.74892 47.0443 5.25379 44.399 6.42514 41.4649C7.09907 39.8878 8.03202 38.4804 9.22401 37.2471C10.7369 35.6609 12.3942 34.2419 14.1937 32.9927C16.7266 31.1634 19.2917 29.3869 21.8017 27.5302C25.5931 24.7221 28.9146 21.3915 32.1467 17.992C36.0619 13.9003 39.9817 9.80862 43.9061 5.71692C45.4557 4.06419 47.223 2.69112 49.2081 1.59771C50.9067 0.687674 52.6878 0.0412535 54.6522 0.0412535C55.4202 0.0343771 56.1606 0.176498 56.8712 0.465324C57.5818 0.75415 58.2099 1.17134 58.7531 1.71232C59.6838 2.64069 60.4448 3.69284 61.0408 4.86419C62.5973 7.78455 63.8695 10.8241 64.8574 13.9806C65.6185 16.4791 66.5881 18.8952 67.7663 21.2264C69.5543 24.6511 70.5308 28.3348 71.2414 32.0849C71.3171 32.4723 71.3904 32.8574 71.4684 33.2448C71.5004 33.3113 71.5371 33.3732 71.5784 33.4351ZM46.5147 88.3923C45.5451 87.629 44.6144 86.9894 43.7777 86.2536C41.678 84.4152 40.0986 82.1596 38.737 79.7412C36.8596 76.3418 35.2115 72.8369 33.7903 69.2243C32.8711 66.9641 31.9886 64.6581 31.5645 62.2283C31.3903 61.2174 31.3353 60.1836 31.2161 59.1612C31.1381 58.5171 31.2871 58.2214 30.2854 58.1412C29.561 58.0839 28.8504 57.9211 28.133 57.818C24.9903 57.2976 21.8636 56.7131 18.902 55.4913C18.7094 55.395 18.5077 55.3675 18.2945 55.4111C18.0836 55.4523 17.9071 55.5555 17.7673 55.7182C16.149 57.2266 14.4527 58.6592 12.9169 60.2409C8.96269 64.2799 5.76955 68.8507 3.65837 74.1344C2.59017 76.7269 1.87957 79.4135 1.52656 82.194C1.17584 84.9745 1.19418 87.755 1.58157 90.531C2.36094 96.037 4.52714 100.997 7.70423 105.529C11.067 110.327 15.2664 114.277 20.0137 117.667C26.7095 122.444 34.0745 125.876 41.8705 128.411C51.6425 131.59 61.6849 133.236 71.9383 133.713C78.8884 134.02 85.818 133.754 92.7269 132.915C99.2713 132.145 105.701 130.82 112.016 128.938C120.33 126.451 128.253 123.081 135.581 118.396C141.527 114.598 146.861 110.098 151.152 104.457C155.148 99.2049 157.894 93.4009 158.744 86.7992C158.969 85.3459 159.033 83.8857 158.941 82.4186C155.168 84.0072 151.459 83.1522 147.673 82.3659C147.618 82.7418 147.553 83.0605 147.524 83.3814C147.466 83.9842 147.411 84.5894 147.386 85.1923C147.292 87.3997 147.033 89.6026 147.251 91.8192C147.602 95.3723 147.558 98.9574 147.492 102.536C147.453 104.725 146.488 106.412 144.535 107.379C143.239 108.055 141.901 108.617 140.512 109.066C136.507 110.311 132.381 110.682 128.204 110.552C126.167 110.494 124.163 110.201 122.194 109.671C120.422 109.192 118.799 108.379 117.179 107.556C115.494 106.641 113.731 105.926 111.886 105.406C111.604 105.334 111.317 105.291 111.026 105.231C110.985 105.348 110.96 105.467 110.948 105.591C111.154 107.37 110.458 108.86 109.405 110.21C108.461 111.432 107.466 112.617 106.476 113.8C105.247 115.294 103.842 116.601 102.256 117.715C100.672 118.829 98.9687 119.709 97.1418 120.36C93.6048 121.623 90.0816 122.928 86.5286 124.133C81.9555 125.71 77.2518 126.458 72.4151 126.38C69.05 126.32 65.685 126.38 62.3153 126.361C61.497 126.371 60.6786 126.329 59.8649 126.24C57.944 125.999 56.0253 125.729 54.109 125.429C50.8356 124.915 47.6448 124.115 44.6465 122.639C44.1032 122.373 43.5141 122.206 42.9548 121.992C41.3662 121.38 39.874 120.59 38.4757 119.618C37.1806 118.703 35.8877 117.825 34.5949 116.92C33.827 116.436 33.098 115.897 32.4103 115.304C30.6269 113.614 30.1204 111.558 31.0052 109.25C31.3261 108.397 31.757 107.604 32.3003 106.873C33.0315 105.905 33.843 105.009 34.737 104.188C36.4356 102.604 37.921 100.839 39.1886 98.8932C41.3066 95.7528 43.5026 92.6697 45.6551 89.5568C45.9393 89.1671 46.2304 88.782 46.5147 88.3923ZM66.219 114.054C66.3749 114.357 66.5125 114.666 66.6294 114.985C67.3102 117.289 68.2363 119.492 69.4099 121.589C70.0334 122.689 70.8082 123.705 71.5165 124.757C71.6586 124.959 71.8397 125.11 72.0643 125.211C72.2867 125.314 72.5205 125.351 72.7658 125.325C76.3646 125.378 79.8993 124.922 83.3675 123.959C88.3257 122.554 93.1464 120.729 97.9441 118.877C100.227 118.02 102.212 116.713 103.904 114.96C105.499 113.266 106.978 111.457 108.484 109.676C108.821 109.247 109.117 108.789 109.371 108.305C109.706 107.748 109.894 107.145 109.933 106.497C109.974 105.848 109.862 105.227 109.598 104.635C109.328 103.957 108.963 103.336 108.505 102.769C107.808 102.011 107.067 101.298 106.283 100.631C104.887 99.3791 103.372 98.2353 102.079 96.892C98.6043 93.3046 95.1636 89.676 91.7595 86.0014C88.6329 82.618 85.5498 79.1888 82.8289 75.4639C80.5824 72.4106 78.5102 69.2449 76.6122 65.9624C75.9818 64.8209 75.2368 63.7572 74.3795 62.7739C73.0844 61.3389 71.7205 61.2587 70.1916 62.4254C69.3824 63.0673 68.6374 63.7733 67.9543 64.5481C66.7234 65.8845 65.5978 67.3217 64.3394 68.6329C59.7319 73.3779 55.4339 78.3888 51.4454 83.6656C47.874 88.4496 44.1651 93.1304 40.933 98.1642C39.1932 100.887 37.302 103.462 34.8149 105.559C34.6315 105.717 34.4596 105.889 34.3015 106.073C33.3295 107.056 32.5754 108.184 32.0367 109.458C31.2688 111.441 31.6699 113.231 33.2631 114.646C33.827 115.106 34.4161 115.53 35.0281 115.922C36.2476 116.771 37.5336 117.536 38.6751 118.474C39.9198 119.457 41.2906 120.211 42.7874 120.736C43.0144 120.823 43.2459 120.894 43.466 120.993C46.8425 122.524 50.2992 123.764 53.9898 124.344C57.4694 124.885 60.9331 125.426 64.47 125.312C66.3176 125.259 68.1721 125.312 70.0196 125.293C70.2787 125.293 70.5377 125.261 70.8999 125.238C70.8265 125.08 70.7417 124.929 70.6477 124.782C69.0317 122.71 67.9222 120.351 66.9778 117.914C66.5858 116.901 66.2901 115.847 65.9509 114.813C65.889 114.568 65.7629 114.3 66.219 114.054ZM146.655 80.6215C146.685 77.8433 146.607 75.9246 146.135 74.0702C145.433 71.3194 144.635 68.5779 143.81 65.8615C143.349 64.2501 142.673 62.7349 141.779 61.316C141.169 60.3945 140.757 59.3905 140.544 58.3062C140.321 57.1165 140.115 55.9245 139.934 54.7303C139.831 53.8775 139.563 53.0798 139.125 52.3394C137.807 50.2328 136.044 49.8867 134.082 51.3904C133.243 52.0391 132.438 52.7314 131.673 53.4672C129.713 55.3492 127.434 56.6856 124.835 57.4764C122.403 58.226 119.984 58.9756 117.511 59.6105C115.042 60.2271 112.695 61.1509 110.469 62.3842C108.241 63.6151 106.212 65.112 104.378 66.877C103.592 67.6289 102.762 68.3326 101.912 69.0249C100.798 69.9739 99.5166 70.5538 98.0679 70.7624C97.0982 70.8885 96.1286 70.9802 95.1773 71.0673C94.6249 71.1108 94.1068 71.2621 93.6186 71.5257C93.1326 71.7894 92.72 72.1378 92.3807 72.5756C91.3469 73.8409 91.104 75.3172 91.3492 76.8622C91.8283 80.0645 92.8575 83.0788 94.4369 85.9075C95.8558 88.4244 97.575 90.7167 99.5945 92.7843C102.1 95.3379 104.521 97.9534 107.379 100.149C108.33 100.823 109.114 101.653 109.726 102.643C110.373 103.819 111.248 104.259 112.459 104.534C114.51 104.991 116.397 105.914 118.256 106.879C120.019 107.851 121.887 108.544 123.858 108.954C126.659 109.463 129.481 109.626 132.321 109.445C135.164 109.263 137.94 108.743 140.654 107.883C141.864 107.487 143.031 106.987 144.152 106.384C145.616 105.632 146.348 104.351 146.442 102.71C146.458 102.437 146.483 102.162 146.476 101.891C146.421 99.0468 146.416 96.1975 146.279 93.3573C146.132 91.2393 146.116 89.1212 146.235 87.0032C146.416 84.5986 146.552 82.1802 146.655 80.6215ZM30.9639 57.1372C31.0212 57.0707 31.0671 56.9973 31.106 56.9194C31.1519 56.7429 31.1863 56.5641 31.2092 56.383C31.5324 53.0111 33.0017 50.132 35.1381 47.5578C37.302 45.011 39.8556 42.9434 42.7966 41.3549C48.8024 37.9967 55.3055 36.3738 62.1273 35.8649C64.642 35.6723 67.1543 35.6723 69.6689 35.8649C70.0196 35.8901 70.3727 35.8649 70.8288 35.8649C70.6729 34.9205 70.556 34.0861 70.4024 33.2609C69.6254 29.1416 68.6328 25.1004 66.6477 21.3525C65.5703 19.2436 64.6947 17.0545 64.0162 14.7851C63.0511 11.5828 61.7766 8.5112 60.1927 5.56563C59.6058 4.50889 58.909 3.5278 58.1067 2.62464C56.9606 1.33409 55.427 0.932948 53.7216 1.17593C51.9611 1.45558 50.3359 2.08596 48.8436 3.06247C47.3239 4.02064 45.9462 5.15073 44.7084 6.45274C40.8276 10.494 36.949 14.5445 33.0682 18.6041C30.0332 21.7651 26.9685 24.917 23.4728 27.5944C20.8871 29.5772 18.1799 31.4454 15.53 33.3594C13.5014 34.8173 11.5094 36.2958 9.83604 38.1617C8.73575 39.3193 7.8922 40.642 7.30767 42.1274C6.90652 43.1337 6.78044 44.1721 6.92486 45.2449C7.20451 46.987 8.14205 48.3165 9.44177 49.4443C10.7392 50.501 12.1489 51.3813 13.671 52.085C18.7163 54.6455 24.0481 56.273 29.6642 56.9698C30.1181 57.0134 30.5559 57.0821 30.9616 57.1372L30.9639 57.1372ZM147.716 81.1648C147.987 81.261 148.182 81.3458 148.379 81.3986C150.643 82.0198 152.952 82.2971 155.301 82.2352C158.245 82.1115 160.25 80.6444 161.243 77.857C161.72 76.3854 162.015 74.877 162.128 73.3344C162.343 71.2278 162.488 69.1097 162.776 67.0146C163.253 63.7206 163.895 60.4518 164.37 57.1555C164.867 53.7056 164.787 50.2558 163.723 46.9022C162.935 44.3921 162.167 41.8592 161.135 39.4431C159.134 34.6523 157.626 29.7078 156.612 24.6144C156.422 23.631 156.172 22.6614 155.865 21.7078C155.482 20.5479 154.797 20.1605 153.603 20.4539C152.658 20.6763 151.746 20.9903 150.863 21.3938C149.004 22.2809 147.196 23.2643 145.369 24.1995C141.6 26.1021 138.242 28.5594 135.29 31.5737C132.775 34.1594 129.891 36.2591 126.884 38.2122C124.56 39.7319 122.066 40.8781 119.397 41.6506C119.2 41.7079 119.008 41.7973 118.827 41.8683C118.685 43.1612 119.604 56.9973 119.897 57.8271C120.544 57.6575 121.165 57.4718 121.804 57.3068C125.66 56.3165 129.146 54.6821 131.957 51.7641C132.67 51.0581 133.458 50.4483 134.325 49.9394C135.833 49.0111 137.328 49.1761 138.708 50.2924C139.386 50.8265 139.92 51.4775 140.31 52.2477C140.7 53.0179 140.908 53.834 140.936 54.6982C141.048 57.0271 141.804 59.1246 142.905 61.1578C143.544 62.3269 144.09 63.5372 144.544 64.7888C145.231 66.728 145.795 68.7108 146.403 70.6799C147.336 73.7149 147.767 76.8209 147.696 79.9957C147.705 80.3579 147.712 80.7201 147.712 81.1648L147.716 81.1648ZM82.6386 73.3252C82.9022 73.2381 83.1612 73.1349 83.4111 73.018C85.0569 72.1126 86.7349 71.2644 88.3234 70.2719C90.2994 69.0386 92.0232 67.5234 93.4971 65.7194C93.8432 65.2976 94.0862 64.8209 94.226 64.2913C95.0581 61.0042 94.5859 57.8592 93.0088 54.8793C91.4684 51.9704 89.1922 49.7285 86.4873 47.9176C81.0844 44.2981 75.0191 42.6844 68.6076 42.1893C64.9927 41.9142 61.3984 42.0907 57.827 42.7188C53.3021 43.5073 49.0178 44.9193 45.0614 47.2643C41.9691 49.0959 39.2734 51.3675 37.3341 54.43C34.9754 58.148 34.3129 62.1091 35.7777 66.3246C35.9519 66.8449 36.2361 67.2988 36.6281 67.6839C37.7444 68.7521 38.9227 69.7469 40.1651 70.6661C44.3301 73.5727 49.0431 75.1636 53.9714 76.241C55.2643 76.5229 56.0299 76.2157 56.8803 75.2186C59.3973 72.3097 62.054 69.5246 64.6603 66.6822C65.8844 65.3412 67.0328 63.9269 68.3073 62.6294C68.9812 61.967 69.7354 61.4145 70.5698 60.9744C70.8494 60.814 71.1451 60.6971 71.4592 60.6237C71.7732 60.5526 72.0919 60.5274 72.4128 60.5481C72.7337 60.571 73.0454 60.6397 73.3457 60.7567C73.646 60.8713 73.9234 61.0271 74.1778 61.2266C74.8151 61.6896 75.379 62.2283 75.8718 62.8426C76.3967 63.5463 76.8827 64.2776 77.3274 65.0363C78.8999 67.5166 80.4724 69.9922 82.0449 72.4656C82.2214 72.7659 82.4323 73.0249 82.6386 73.3252ZM118.597 58.1664C118.664 56.9171 118.639 55.6701 118.52 54.4231C118.295 51.7068 118.102 48.9904 117.894 46.2718C117.683 43.5554 117.571 40.7818 117.227 38.0379C116.759 34.1846 115.462 30.5651 113.715 27.1084C112.09 23.8786 110.609 20.5938 109.277 17.2562C108.72 15.8465 108.069 14.4826 107.322 13.1645C106.705 12.0826 105.983 11.0808 105.151 10.1548C103.684 8.541 101.855 8.25217 99.8398 9.04071C98.7487 9.50375 97.7561 10.125 96.8644 10.9043C94.9573 12.4814 93.371 14.3565 91.7297 16.1926C88.6558 19.6241 85.5727 23.0465 82.43 26.4115C79.7595 29.2677 76.7199 31.6563 73.3159 33.5772C72.9194 33.7995 72.5618 34.0838 72.1675 34.313C72.0781 34.3543 71.9979 34.4116 71.9291 34.4826C71.8603 34.556 71.8076 34.6362 71.7709 34.7279C71.732 34.8196 71.7113 34.9159 71.709 35.0144C71.7067 35.113 71.7228 35.2093 71.7572 35.301C71.8145 35.5302 71.8443 35.764 71.8718 35.9222L80.5733 37.7239C80.4999 37.3411 80.4472 36.9881 80.367 36.642C80.0713 35.2735 79.9566 33.8866 80.0231 32.4884C80.0231 32.2431 79.9612 31.9268 80.3463 31.8809C80.4174 31.9428 80.493 31.9772 80.4999 32.0207C80.5274 32.2591 80.5549 32.4975 80.5641 32.7359C80.5985 34.3176 80.8139 35.874 81.2105 37.4053C81.2541 37.6437 81.3595 37.8523 81.5223 38.0334C81.685 38.2122 81.8821 38.3382 82.116 38.407C82.9458 38.6867 83.7641 39.0145 84.5664 39.3766C88.0415 40.901 91.2209 42.8701 93.8295 45.662C96.7544 48.7887 98.5103 52.4128 98.3705 56.7933C98.3063 58.822 98.2031 60.8483 98.1183 62.8747C98.1183 63.136 98.1183 63.3951 98.1183 63.7206C99.622 63.5624 100.855 64.1653 102.109 64.6902C102.611 64.8988 103.125 65.0799 103.645 65.2495C103.893 65.3343 104.145 65.3458 104.399 65.2839C104.654 65.2243 104.874 65.0982 105.055 64.9102C105.756 64.2868 106.506 63.7183 107.26 63.1544C110.247 60.9332 113.639 59.6013 117.197 58.6134C117.644 58.4713 118.1 58.3223 118.611 58.1664L118.597 58.1664ZM95.7343 62.1251C95.8467 62.022 95.9475 61.9097 96.0369 61.7859C96.5435 60.7269 96.8988 59.6197 97.1028 58.4644C97.3068 57.3114 97.3527 56.1492 97.2404 54.9824C96.8805 51.5876 95.3011 48.7727 93.0042 46.3314C90.987 44.2385 88.6741 42.5491 86.0655 41.2632C80.9996 38.6775 75.5738 37.3847 69.9394 36.9354C64.3004 36.4769 58.7394 36.9514 53.2608 38.3612C48.4677 39.6059 43.9611 41.4855 39.9725 44.4678C37.2677 46.4918 34.9868 48.8919 33.5335 51.9841C31.7983 55.6793 31.7433 59.4134 33.435 63.1314C33.5611 63.3813 33.7009 63.6243 33.8522 63.8604C33.9622 63.5463 34.0058 63.2231 33.9805 62.8908C33.9072 61.5521 34.0149 60.2294 34.3038 58.9205C35.145 55.2758 37.1485 52.3371 39.835 49.8202C42.4505 47.4248 45.4006 45.5658 48.6923 44.2431C53.215 42.3795 57.921 41.3297 62.8082 41.0935C68.9056 40.7703 74.8449 41.5176 80.571 43.6792C84.5572 45.1875 88.1744 47.3033 91.104 50.4621C94.0335 53.6208 95.7825 57.2105 95.6679 61.591C95.6816 61.7698 95.7022 61.9486 95.7343 62.1251ZM47.2665 87.3906L54.8723 77.4788C50.8035 76.7177 46.9777 75.606 43.372 73.8157C39.7318 72.0002 36.6327 69.5154 34.0722 66.3567C34.0058 66.508 33.9553 66.5676 33.9645 66.6111C34.0012 66.7899 34.0493 66.9618 34.1135 67.1315C35.7135 71.4226 37.6321 75.567 39.8648 79.5648C40.7817 81.2152 41.8751 82.7395 43.1428 84.1378C44.321 85.4009 45.5657 86.5928 47.2665 87.3906ZM89.0822 81.3871C89.4902 81.1327 89.8272 80.9424 90.1435 80.7201C90.9389 80.1562 90.9389 80.1516 90.7051 79.237C90.3567 77.9418 90.1985 76.6261 90.2375 75.2851C90.3429 72.8438 92.2547 70.1389 95.1567 69.9945C95.4822 69.9945 95.8054 69.9074 96.1011 69.8638C96.6444 68.2753 97.1555 63.5968 96.8851 62.563C93.912 68.2524 88.9836 71.6381 83.3056 74.2971C85.0317 76.8324 87.0718 79.0169 89.0822 81.3871ZM98.0129 64.8644C97.8111 66.4461 97.6048 68.0438 97.3985 69.6553C99.2025 69.7653 102.345 67.9131 103.196 66.2627C102.694 66.0518 102.194 65.8432 101.694 65.6163C101.197 65.3916 100.702 65.167 100.195 64.9698C99.512 64.7131 98.8037 64.532 98.0129 64.8644ZM89.559 81.8501C90.4277 83.088 92.2249 85.0249 92.8163 85.4032C92.2455 83.9246 91.6633 82.4255 91.0581 80.8576L89.559 81.8501Z" fill="#002C1F"/>
</g>
<path d="M19.9657 62.1692C19.9107 62.348 19.8258 62.5107 19.7158 62.662C15.6287 66.5383 13.5542 71.446 12.3874 76.8008C11.4247 81.0965 11.4178 85.3945 12.3668 89.6948C13.3364 94.0203 15.5645 97.6375 18.6568 100.764C18.9181 101.032 19.145 101.337 19.3903 101.624L19.2918 101.803C19.1107 101.821 18.9319 101.803 18.7554 101.75C18.5582 101.61 18.3817 101.447 18.2258 101.262C14.1318 97.1699 11.702 92.2942 11.2069 86.4856C10.5949 79.32 12.0092 72.6311 15.7662 66.458C16.6442 64.991 17.7147 63.6821 18.98 62.5291C19.223 62.3274 19.4751 62.1394 19.7387 61.9629L19.9657 62.1692Z" fill="#002C1F"/>
<path d="M118.279 124.809C118.187 124.289 118.602 124.266 118.87 124.163C120.163 123.636 121.456 123.148 122.731 122.588C126.281 121.034 129.681 119.198 132.927 117.078C133.124 116.933 133.33 116.812 133.552 116.711C133.692 116.67 133.818 116.699 133.931 116.798C133.974 116.938 133.954 117.068 133.869 117.188C133.722 117.341 133.557 117.472 133.374 117.58C128.885 120.534 124.111 122.921 119.051 124.732C118.882 124.793 118.71 124.844 118.533 124.885C118.481 124.883 118.421 124.844 118.279 124.809Z" fill="#002C1F"/>
<path d="M101.316 129.421C101.456 128.802 101.903 128.876 102.21 128.807C103.331 128.562 104.473 128.374 105.591 128.14C108.986 127.388 112.328 126.441 115.613 125.302C115.973 125.18 116.331 124.979 116.743 125.222C116.743 125.744 116.296 125.758 115.98 125.868C114.4 126.388 112.821 126.909 111.23 127.392C108.262 128.252 105.252 128.928 102.203 129.421C101.908 129.444 101.612 129.444 101.316 129.421Z" fill="#002C1F"/>
<path d="M64.4562 109.027C64.3508 108.766 64.2683 108.495 64.2064 108.22C63.874 104.78 63.7938 101.334 63.968 97.8822C64.1559 94.5286 64.4493 91.1888 64.9032 87.8673C65.6069 82.8609 66.6247 77.9165 67.9542 73.0363C68.5686 70.7302 69.3411 68.4655 70.0631 66.1892C70.2052 65.8316 70.3795 65.4878 70.5789 65.1577C71.0419 65.4809 70.831 65.756 70.7485 66.0311C70.0425 68.344 69.2792 70.6408 68.6488 72.9767C67.1244 78.4942 66.0058 84.0942 65.2975 89.7744C64.6877 94.4644 64.4402 99.175 64.5502 103.904C64.5892 105.142 64.7107 106.38 64.8184 107.613C64.8849 108.378 64.9032 108.392 64.4562 109.027Z" fill="#002C1F"/>
<path d="M77.9188 114.371C78.038 113.967 78.391 114.07 78.6684 114.048C82.8014 113.559 86.8518 112.688 90.8197 111.434C94.6066 110.222 98.265 108.697 101.793 106.864C101.974 106.77 102.166 106.699 102.332 106.627C102.655 106.847 102.627 107.077 102.396 107.242C102.075 107.466 101.733 107.664 101.378 107.833C96.3762 110.249 91.253 112.356 85.7813 113.447C83.4661 113.912 81.1257 114.229 78.7945 114.605C78.3337 114.669 78.3268 114.644 77.9188 114.371Z" fill="#002C1F"/>
<path d="M36.9285 106.904C37.3021 106.531 37.4855 106.753 37.6643 106.904C38.1869 107.315 38.705 107.736 39.2207 108.156C42.6706 110.973 46.6569 112.525 51.0351 113.107C51.6082 113.183 52.1835 113.203 52.752 113.281C52.9377 113.334 53.1119 113.412 53.2724 113.517C53.0615 113.967 52.7337 113.896 52.4517 113.873C48.658 113.588 45.0156 112.74 41.7812 110.684C40.2523 109.715 38.8563 108.539 37.4076 107.454C37.2288 107.289 37.0683 107.106 36.9285 106.904Z" fill="#002C1F"/>
<path d="M88.759 94.583C88.9883 94.5899 89.2106 94.6266 89.4284 94.693C90.7762 95.4816 92.1149 96.2839 93.4444 97.0976C93.4788 97.1206 93.4444 97.2627 93.4238 97.3933C92.7453 97.5309 92.3121 97.0197 91.8078 96.7767C91.2622 96.5177 90.7373 96.2197 90.2375 95.8827C89.7516 95.5458 89.1281 95.3761 88.759 94.583Z" fill="#002C1F"/>
<path d="M92.0873 93.9214C92.924 94.428 93.5818 95.1088 94.0563 95.9638C93.7308 95.9478 93.497 96.0051 93.4237 95.9225C92.8919 95.322 92.2156 94.8131 92.0873 93.9214Z" fill="#002C1F"/>
<path d="M133.357 56.3098C133.107 56.5528 132.844 56.7774 132.569 56.9883C131.714 57.566 130.863 58.1482 129.981 58.6777C123.132 62.7832 117.816 68.4107 113.671 75.1752C112.406 77.236 111.31 79.4022 110.137 81.5133C110.001 81.7563 109.843 81.9878 109.697 82.2239L109.467 82.1644C109.467 81.9878 109.382 81.7861 109.444 81.644C109.731 80.9724 110.04 80.3168 110.37 79.6727C113.568 73.4193 117.543 67.7391 122.863 63.0949C124.454 61.7058 126.189 60.4703 127.913 59.2439C129.341 58.2262 130.847 57.3047 132.324 56.3671C132.58 56.1998 132.83 55.9018 133.357 56.3098Z" fill="#002C1F"/>
<path d="M112.255 92.1261C111.746 92.5548 111.45 92.3256 111.187 92.1513C110.004 91.3674 108.752 90.6522 107.67 89.7422C105.314 87.8052 103.297 85.5611 101.621 83.0143C99.9453 80.4676 98.6823 77.7307 97.8342 74.8011C97.747 74.51 97.6829 74.2166 97.6416 73.9163C97.6416 73.8063 97.7539 73.6825 97.9213 73.373C98.068 73.6825 98.1963 73.9965 98.3064 74.3198C99.645 79.0487 102.132 83.1221 105.419 86.7347C107.161 88.6533 109.16 90.251 111.414 91.5324C111.705 91.7135 111.984 91.9129 112.255 92.1261Z" fill="#002C1F"/>
<path d="M141.266 100.28C141.108 100.693 140.729 100.631 140.422 100.622C139.331 100.594 138.242 100.574 137.16 100.47C131.664 99.9478 126.396 98.5105 121.156 96.9013C120.922 96.8119 120.695 96.7111 120.473 96.5942C120.612 96.1518 120.874 96.216 121.119 96.271C121.619 96.397 122.109 96.5483 122.604 96.6882C126.008 97.6578 129.417 98.6251 132.911 99.2051C135.416 99.6269 137.933 100.014 140.486 99.9959C140.856 99.9959 140.856 100.003 141.266 100.28Z" fill="#002C1F"/>
<path d="M52.7016 33.316C52.2134 32.814 52.5091 32.4885 52.6122 32.1791C53.1532 30.6043 53.7813 29.0616 54.2306 27.4639C55.8696 22.0197 56.5114 16.4609 56.1492 10.7853C55.9979 8.64659 55.661 6.52166 55.4134 4.38984C55.3813 4.13082 55.2231 3.85116 55.5647 3.67236C55.9154 3.67236 55.92 3.94285 55.9521 4.17896C56.1882 5.82481 56.4472 7.46837 56.6489 9.1188C56.9515 11.6197 57.0088 14.1274 56.8163 16.6397C56.4678 22.0908 55.269 27.3469 53.2174 32.4106C53.0638 32.7223 52.8919 33.0249 52.7016 33.316Z" fill="#002C1F"/>
<path d="M28.7404 49.323C28.3644 49.5866 28.0252 49.4353 27.6859 49.3413C24.6189 48.5046 21.7764 47.1911 19.1541 45.3963C17.2125 44.1057 15.3993 42.6387 13.5311 41.245C13.3638 41.1166 13.2102 40.9722 13.075 40.8095C13.0246 40.7521 13.0246 40.649 12.9741 40.4862C13.169 40.4862 13.3569 40.406 13.4693 40.4702C13.7237 40.6352 13.9644 40.8186 14.1913 41.0203C17.3065 43.4891 20.518 45.8112 24.1948 47.3883C25.4418 47.9224 26.7507 48.3166 28.0343 48.7591C28.3392 48.8599 28.6945 48.8668 28.7404 49.323Z" fill="#002C1F"/>
<path d="M150.536 23.5237C150.08 24.1702 149.309 24.5163 148.766 25.0802C148.223 25.6464 147.629 26.169 147.081 26.7352C146.536 27.3014 145.963 27.9249 145.426 28.5415C144.89 29.1581 144.37 29.7885 143.868 30.4349C143.368 31.0791 142.907 31.7003 142.451 32.3467C141.997 32.9931 141.552 33.7129 141.135 34.4143C140.718 35.1158 140.353 35.7782 139.991 36.4751C139.629 37.1719 139.265 37.9375 138.928 38.6825C138.591 39.4252 138.281 40.1771 137.974 40.9427C137.667 41.7083 137.429 42.4166 137.147 43.1502C136.865 43.8814 136.8 44.7227 136.374 45.4104C135.964 45.337 135.902 45.1124 135.971 44.8556C136.106 44.3307 136.255 43.8058 136.422 43.2877C138.747 36.1817 142.488 29.9971 148.026 24.9358C148.516 24.4888 149.034 24.067 149.562 23.6636C149.8 23.5123 150.052 23.3862 150.316 23.2808L150.536 23.5237Z" fill="#002C1F"/>
<path d="M125.983 53.0957C125.743 52.8344 125.518 52.5593 125.307 52.2751C124.014 50.3358 123.368 48.188 123.024 45.9301C122.829 44.6372 122.733 43.3467 122.614 42.0538C122.588 41.7306 122.504 41.3868 122.824 41.1553C123.228 41.2791 123.12 41.6023 123.148 41.8475C123.384 43.5209 123.544 45.2057 123.851 46.8676C124.188 48.7679 124.899 50.5215 125.979 52.1238C126.167 52.392 126.538 52.6969 125.983 53.0957Z" fill="#002C1F"/>
<path d="M158.346 75.7206C158.139 76.1676 157.809 76.0439 157.525 76.0164C155.499 75.8146 153.527 75.3653 151.616 74.6662C150.875 74.4072 150.139 74.1138 149.413 73.8181C149.172 73.6943 148.941 73.5545 148.718 73.3986C149.138 72.9814 149.429 73.2106 149.727 73.3046C151.304 73.8181 152.876 74.3705 154.472 74.8198C155.4 75.0811 156.374 75.1682 157.326 75.3401C157.69 75.402 158.107 75.3608 158.346 75.7206Z" fill="#002C1F"/>
<path d="M158.799 52.6603C159.061 52.6236 159.219 52.5548 159.322 52.6007C159.723 52.7749 161.158 54.164 161.33 54.5399C161.135 54.5399 160.936 54.6041 160.826 54.5399C160.088 54.0425 159.345 53.5405 158.799 52.6603Z" fill="#002C1F"/>
<path d="M160.693 51.125C161.493 51.6522 161.773 52.3651 162.203 52.9451C162.336 53.188 162.435 53.4448 162.501 53.7153C161.715 53.47 160.785 52.1565 160.693 51.125Z" fill="#002C1F"/>
<path d="M46.8381 56.9191C46.7762 56.8939 46.7212 56.855 46.6776 56.8022C46.6341 56.7495 46.6043 56.6899 46.5882 56.6234C46.5722 56.557 46.5722 56.4905 46.5882 56.424C46.6065 56.3598 46.6363 56.3002 46.6799 56.2475C46.9687 55.7845 47.2919 55.3466 47.6495 54.9363C49.3848 53.1002 51.4341 51.7317 53.7928 50.8263C57.8341 49.2125 62.0152 48.3231 66.3866 48.6165C67.7115 48.7059 69.0204 48.9948 70.3338 49.1988C70.4874 49.2217 70.6273 49.2744 70.7579 49.3569C70.8427 49.4165 70.9413 49.5862 70.9138 49.6389C70.8519 49.7489 70.7121 49.8842 70.5906 49.8864C70.3453 49.8864 70.1069 49.8544 69.8708 49.7902C65.2519 48.722 60.7315 49.2377 56.2662 50.636C53.9487 51.3122 51.8123 52.3621 49.8616 53.7856C48.7727 54.6108 47.732 55.4888 47.0696 56.722C47.0352 56.7931 46.9435 56.8366 46.8381 56.9191Z" fill="#002C1F"/>
<path d="M68.2044 56.0164C66.7648 55.37 65.2542 55.354 63.7413 55.4548C62.2192 55.5373 60.743 55.8399 59.3126 56.3626C58.6456 56.5849 58.0335 56.9104 57.4765 57.3414C56.9172 57.77 56.4473 58.2766 56.0599 58.8657C55.7252 59.4067 55.5098 59.9935 55.4135 60.6216C55.2553 61.715 55.6977 62.4348 56.7636 62.7924C57.5453 63.0308 58.343 63.1798 59.1568 63.2417C59.7321 63.2669 60.3075 63.2554 60.8805 63.2073C61.0593 63.1935 61.2381 63.205 61.4146 63.2417C61.5247 63.2944 61.5889 63.3815 61.6072 63.5007C61.5866 63.6153 61.527 63.707 61.4307 63.7712C61.3482 63.8124 61.2611 63.8308 61.1671 63.8239C59.778 63.9316 58.382 63.9889 57.0158 63.6107C55.0123 63.056 54.2169 61.4789 54.9665 59.5282C55.5487 58.0153 56.6673 56.9792 58.061 56.2136C59.3103 55.5648 60.6353 55.1591 62.0336 54.9987C63.5969 54.7717 65.1671 54.6136 66.735 54.9505C67.2072 55.0537 67.668 55.1981 68.1172 55.3769C68.2456 55.4273 68.3029 55.6565 68.3946 55.8055L68.2044 56.0164Z" fill="#002C1F"/>
<path d="M73.6805 50.657C73.825 50.1664 74.1069 50.226 74.3659 50.3086C75.0284 50.5103 75.7 50.7005 76.3442 50.9527C78.5058 51.771 80.3877 53.0111 81.9923 54.6753C83.386 56.1699 84.4359 57.8547 84.633 59.9338C84.8898 62.6135 83.5923 64.6903 81.0227 65.5338C80.6972 65.6026 80.3671 65.6439 80.0324 65.6576C80.241 65.3367 80.3006 65.1189 80.4382 65.041C80.6857 64.9333 80.9402 64.8416 81.2015 64.7682C83.5419 63.7986 84.2067 61.747 83.9751 59.8788C83.7826 58.4966 83.2531 57.2587 82.3797 56.1676C80.3556 53.5086 77.6026 51.9475 74.4851 50.9344C74.2146 50.8472 73.9487 50.7601 73.6805 50.657Z" fill="#002C1F"/>
<path d="M102.038 11.6704C102.203 11.7392 102.432 11.7575 102.522 11.8813C102.808 12.271 103.065 12.6813 103.292 13.11C104.511 15.432 105.231 17.926 105.818 20.4704C106.421 23.3151 106.836 26.1874 107.063 29.0871C107.092 29.3026 107.088 29.518 107.047 29.7335C107.019 29.8458 106.861 30.004 106.767 30.004C106.622 29.9696 106.524 29.8825 106.473 29.7427C106.389 29.0963 106.338 28.4796 106.279 27.8493C105.974 24.0968 105.261 20.42 104.142 16.8234C103.668 15.2234 102.987 13.7151 102.1 12.3008C102.026 12.1747 101.965 12.0441 101.912 11.9065L102.038 11.6704Z" fill="#002C1F"/>
<path d="M109.887 57.5431C109.417 57.2199 108.271 55.6841 107.947 54.923C107.911 54.7511 107.899 54.5769 107.915 54.4004C108.511 54.6365 108.626 54.7763 109.784 56.6789C109.937 56.9356 110.192 57.1763 109.887 57.5431Z" fill="#002C1F"/>
<path d="M110.946 56.8073C110.54 55.9179 110.354 54.985 110.389 54.0107C110.618 54.1162 110.804 54.1414 110.847 54.2354C111.131 54.8245 111.246 56.397 110.946 56.8073Z" fill="#002C1F"/>
</svg>
