<svg width="1024" height="768" viewBox="0 0 1024 768" fill="none" xmlns="http://www.w3.org/2000/svg">
<mask id="mask0_758_74" style="mask-type:luminance" maskUnits="userSpaceOnUse" x="307" y="236" width="411" height="296">
<path d="M307.198 236.542H717.198V531.542H307.198V236.542Z" fill="white"/>
</mask>
<g mask="url(#mask0_758_74)">
<path d="M412.937 366.849C410.666 366 408.281 365.089 405.838 363.844C398.057 359.927 389.994 359.073 383.578 361.344C382.614 361.688 381.703 362.083 380.797 362.594C378.411 363.896 376.651 365.542 375.114 367.021C373.869 368.156 372.843 369.177 371.765 369.688C370.859 370.141 369.437 370.479 367.963 370.766C367.791 370.823 367.562 370.88 367.396 370.88C364.666 371.505 361.432 372.354 358.651 374.625C351.948 380.073 352.234 389.547 359.271 399.365C363.531 405.323 371.427 408.844 381.479 409.297C382.156 409.354 382.896 409.354 383.578 409.354C389.198 409.354 394.708 408.448 399.593 407.594L412.823 405.38L419.067 404.302C423.838 403.51 426.51 395.964 427.812 390.286C428.666 386.714 428.953 383.818 428.953 383.76C427.76 372.526 419.864 369.516 412.937 366.849ZM382.047 396.531C376.198 396.245 371.541 394.542 369.666 391.932C366.994 388.188 366.369 385.292 366.656 384.667C366.656 384.667 366.656 384.609 366.771 384.557C367.396 384.042 369.323 383.589 370.859 383.25C372.843 382.797 375.114 382.286 377.333 381.208C380.172 379.844 382.213 377.917 383.864 376.385C385 375.307 386.021 374.396 386.984 373.828C388.062 373.203 389.541 372.922 391.13 372.922C393.802 372.922 396.979 373.714 399.989 375.25C403 376.781 405.838 377.859 408.281 378.823C414.468 381.208 415.604 381.885 416.005 384.385C415.604 386.089 414.468 389.833 413.619 392.271L397.375 394.995C392.323 395.849 387.041 396.755 382.047 396.531ZM553.484 451.859C554.901 451.464 558.198 451.464 560.807 451.516C565.75 451.573 570.859 451.63 574.833 449.76C576.369 449.021 579.776 447.375 578.755 438.578C579.38 438.578 580.005 438.635 580.682 438.635C584.093 438.635 587.328 438.411 590.224 438.24C592.437 438.068 594.484 437.953 596.187 437.953C601.354 437.953 613.166 430.292 614.302 423.995C615.437 417.469 610.724 413.385 607.942 410.885C607.317 410.375 606.75 409.807 606.182 409.24C606.067 409.125 605.896 408.958 605.786 408.844C604.817 407.651 604.25 405.609 603.567 403.281C603.114 401.521 602.604 399.766 601.922 398.062C600.786 395.281 598.63 390.682 595.224 386.542C591.76 382.344 586.989 378.651 580.739 377.974C578.411 377.688 576.593 376.609 574.494 375.359C571.427 373.547 567.281 370.99 561.661 372.125C552.062 374 547.578 379.448 545.531 383.76C542.692 389.719 542.692 396.87 544 403.62C537.698 401.865 531.166 400.276 523.786 401.693C512.823 403.792 501.182 411.172 499.989 422.802C499.765 425.245 499.422 428.135 499.479 431.203C499.593 436.25 500.729 441.698 504.817 445.844C506.291 447.375 508.166 448.682 510.494 449.818C516.968 452.88 526.281 454.188 535.14 454.188C541.958 454.13 548.599 453.333 553.484 451.859ZM515.833 438.182C512.312 436.536 511.63 433.474 512.599 424.109C513.109 419.453 519.864 415.427 526.114 414.234C531.109 413.271 536.109 414.688 541.843 416.276C543.547 416.729 545.25 417.24 546.953 417.641C547.349 417.755 547.807 417.807 548.26 417.865C549.51 418.094 550.869 418.318 552.177 418.49C553.312 418.661 554.619 418.833 555.698 419.057C556.609 419.229 557.343 419.453 557.744 419.797C560.073 421.667 561.489 424.505 562.797 428.083C563.25 429.271 563.651 430.578 564.104 431.938C564.385 432.792 564.786 434.495 565.125 436.307C565.297 437.104 565.463 437.953 565.578 438.75C563.989 438.807 562.229 438.807 560.864 438.75C556.776 438.693 552.974 438.635 549.625 439.656C540.479 442.438 523.385 441.698 515.833 438.182ZM557.005 389.266C557.744 387.734 559.276 385.578 563.989 384.667C564.672 384.557 565.463 384.896 567.791 386.312C570.463 387.901 574.099 390.115 579.208 390.682C582.958 391.083 587.156 395.849 589.942 402.828C590.453 404.021 590.791 405.323 591.135 406.63C592.041 409.979 593.062 413.781 595.901 417.13C596.927 418.318 598.177 419.453 599.422 420.531C599.823 420.875 600.333 421.328 600.786 421.724C599.198 423.031 596.869 424.62 595.562 425.13C593.744 425.13 591.646 425.302 589.375 425.411C584.885 425.698 580.005 425.979 575.515 425.469C573.812 420.307 571.26 414.177 565.864 409.807C563.422 407.823 560.526 406.911 557.802 406.344C555.812 399.708 555.13 393.24 557.005 389.266ZM609.135 381.318C609.021 382.286 609.135 383.307 609.25 384.271C610.099 390.115 614.755 396.016 620.265 400.333C623.672 403.057 627.422 405.156 630.656 406.292C637.302 408.557 642.015 409.297 646.218 409.297C649.567 409.297 652.521 408.844 655.812 408.333C658.937 407.823 662.458 407.312 667.172 407.026C668.703 406.969 672.791 406.745 675.406 403.224C677.505 400.385 677.734 396.87 675.974 392.672C675.349 391.193 675.573 388.755 675.859 386.255C676.198 382.625 676.656 378.141 674.838 373.714C673.192 369.745 669.104 367.984 665.468 366.396C665.067 366.224 664.5 366 664.047 365.771C664.104 365.432 664.161 365.089 664.161 364.807C664.614 361.854 665.635 354.99 659.448 352.208C655.698 350.562 650.932 351.245 645.875 351.922C643.776 352.208 640.312 352.719 639.119 352.547C631.963 349.542 623.901 349.88 617.88 353.458C612.713 356.521 609.531 361.688 608.963 367.927C608.739 370.594 608.906 373.094 609.021 375.531C609.192 377.63 609.307 379.562 609.135 381.318ZM647.692 364.635C648.771 364.464 650.135 364.297 651.385 364.125C650.984 367.245 650.817 371.333 653.937 374.396C655.646 376.042 657.974 377.062 660.411 378.141C661.265 378.484 662.515 379.052 663.255 379.448C663.536 380.922 663.307 382.911 663.14 385.01C662.854 387.792 662.515 391.083 663.255 394.484C659.448 394.828 656.437 395.281 653.885 395.677C647.125 396.755 643.776 397.266 634.859 394.203C628.271 391.932 621.911 384.724 621.854 382.453C622.14 379.729 621.968 377.177 621.797 374.74C621.682 372.693 621.573 370.823 621.682 369.12C621.854 366.964 622.765 365.432 624.411 364.464C625.661 363.729 627.307 363.333 629.067 363.333C630.771 363.333 632.588 363.672 634.234 364.411C637.984 366.057 642.698 365.375 647.692 364.635ZM716.974 361.286C717.031 360.266 717.088 359.188 717.088 358.167C717.088 291.146 625.151 236.609 512.198 236.609C399.25 236.609 307.312 291.146 307.312 358.167C307.312 359.245 307.427 360.266 307.427 361.286L307.369 361.854C307.312 362.766 307.255 363.615 307.255 364.521C307.255 431.37 361.828 530.911 512.14 530.911C653.484 530.911 717.031 433.641 717.031 364.521C717.031 363.615 716.974 362.766 716.916 361.854L716.974 361.286ZM512.198 518.141C421.057 518.141 367.505 479.724 340.989 435.911C336.729 428.875 333.151 421.667 330.255 414.464C333.208 417.865 336.442 421.156 339.963 424.391C348.599 432.339 358.703 439.599 370.062 446.068C375.286 449.078 380.797 451.859 386.531 454.526C411.63 466.047 441.442 474.104 474.093 477.677C482.5 478.589 491.021 479.214 499.765 479.495C499.989 479.724 500.161 479.891 500.39 480.12L500.958 479.552C501.526 479.552 502.036 479.609 502.604 479.609C505.781 479.724 508.963 479.781 512.198 479.781C515.437 479.781 518.614 479.724 521.797 479.609C522.422 479.609 523.047 479.552 523.672 479.552C574.437 477.906 620.093 465.536 654.281 446.068C665.692 439.599 675.802 432.281 684.432 424.391C687.276 421.781 690 419.057 692.5 416.276C688.635 424.958 683.698 433.583 677.849 441.927C648.656 483.469 594.484 518.141 512.198 518.141ZM512.198 249.38C618.109 249.38 704.255 298.182 704.255 358.167C704.255 359.13 704.198 360.094 704.14 361.062C703.968 364.182 703.573 367.302 702.948 370.37C697.494 342.161 675.005 317.083 641.843 298.865L641.672 298.469L639.63 297.391C636.166 295.573 632.416 293.302 628.557 291.031C612.828 281.672 593.406 270.094 575.349 275.031C555.526 270.885 534.291 268.562 512.198 268.562C467.166 268.562 425.713 277.922 392.948 293.531C366.427 294.781 346.099 317.536 336.672 336.828L336.442 337.281C328.833 347.609 323.666 358.677 321.453 370.312C320.828 367.302 320.432 364.24 320.26 361.062C320.203 360.094 320.146 359.13 320.146 358.167C320.088 298.182 406.291 249.38 512.198 249.38ZM469.953 436.026C469.156 437.385 468.359 438.75 467.734 440.167C465.291 445.901 465.974 451.63 466.541 456.74C466.713 458.156 466.885 459.578 466.942 460.995C467 461.958 466.942 462.87 466.828 463.776C443.656 460.542 422.135 454.865 403 447.26C404.474 443.969 406.125 440.792 408.281 438.182C411.177 434.609 416.062 430.974 421.286 431.599C423.156 431.828 425.203 432.562 427.416 433.417C430.146 434.438 433.265 435.573 436.786 435.969C443.656 436.651 449.849 434.151 455.244 431.995C459.786 430.182 463.817 428.646 467.338 429.214C469.609 429.557 471.713 431.542 471.599 432.734C471.484 433.474 470.687 434.776 469.953 436.026ZM505.156 466.839L500.333 462.016L495.843 466.5C490.338 466.214 484.942 465.818 479.547 465.307C479.776 463.604 479.833 461.901 479.718 460.312C479.604 458.667 479.432 457.021 479.265 455.318C479.093 453.729 478.922 452.141 478.864 450.667C478.755 448.568 478.864 446.693 479.547 445.161C479.942 444.255 480.458 443.458 480.968 442.609C482.271 440.453 483.864 437.844 484.317 434.38C484.547 432.677 484.432 430.974 484.088 429.385C482.5 422.578 475.968 417.469 469.271 416.505C462.567 415.484 456.547 417.641 450.474 420.078C446.041 421.896 441.843 423.542 438.151 423.198C436.276 423.031 434.177 422.234 431.958 421.385C429.234 420.365 426.166 419.229 422.76 418.885C414.073 417.979 404.932 422.12 398.401 430.068C395.333 433.812 393.119 438.01 391.302 442.214C385.338 439.432 379.661 436.479 374.323 433.302L381.422 426.208L372.39 417.13L363.307 426.208C351.89 418.266 342.406 409.354 335.25 399.818C333.776 394.542 332.979 389.151 332.979 383.646C332.979 377.802 333.89 372.068 335.536 366.453C336.442 367.359 334.062 364.974 340.307 371.219L349.333 362.198L340.817 353.625C342.182 351.13 343.713 348.635 345.416 346.193C347.573 346.193 349.619 345.911 351.494 345.682C353.708 345.344 355.75 345.057 357.968 345.229C358.536 345.396 359.729 346.078 360.75 346.76C361.146 347.042 361.604 347.271 361.942 347.5C365.177 349.599 368.812 351.979 372.958 351.979C373.583 351.979 374.265 351.922 374.89 351.812L381.192 350.62L392.776 348.464C395.729 347.896 399.703 347.156 403.172 344.547C410.666 338.818 410.724 328.203 407.427 320.203C406.578 318.104 405.552 316.057 404.474 314.016C402.828 310.839 401.239 307.776 400.843 304.88C400.786 304.427 400.786 303.974 400.729 303.516C403.625 302.214 406.578 300.964 409.588 299.714C416.005 306.073 408.619 298.75 417.14 307.208L426.166 298.182L422.932 294.891C449.224 286.208 479.718 281.214 512.255 281.214C516.854 281.214 521.401 281.328 525.942 281.557C530.484 286.042 524.463 280.083 532.416 288.026L538.093 282.349C545.422 282.974 552.573 283.828 559.614 284.906C556.948 287.458 554.505 290.297 552.463 293.302C549.849 297.219 548.317 300.906 547.75 304.542C547.578 305.505 547.463 306.411 547.463 307.375C547.463 309.818 547.974 312.198 548.885 314.359C550.531 318.161 553.484 321.224 557.234 322.583C561.718 324.229 565.922 323.266 569.328 322.474C571.088 322.073 572.791 321.677 573.927 321.792C575.458 322.016 577.333 323.38 579.323 324.911C580.172 325.536 580.968 326.161 581.823 326.729C590.224 332.458 600.104 334.276 608.849 335.922C612.484 336.604 616.859 337.396 621.401 337.396C624.807 337.396 628.328 336.943 631.734 335.693C639.573 332.745 643.208 327.75 645.875 322.812C646.953 320.828 647.297 318.724 647.239 316.516C652.234 319.807 656.89 323.208 661.151 326.844L657.687 330.302C666.771 339.328 657.687 330.302 666.771 339.328L670.406 335.693C683.807 350.052 691.416 366.396 691.416 383.76C691.416 389.266 690.625 394.656 689.146 399.932C680.687 411.281 668.932 421.667 654.562 430.693L647.578 423.656L638.494 432.734C644.172 438.411 642.75 436.932 643.093 437.333C610.781 454.469 568.307 465.479 521.739 466.839C518.562 466.953 515.323 466.953 512.14 466.953C509.812 466.953 507.484 466.896 505.156 466.839ZM393.119 320.089C393.968 321.792 394.88 323.495 395.614 325.198C397.208 329.057 397.093 333.255 395.448 334.557C394.422 335.354 392.323 335.75 390.505 336.094L373.073 339.328C372.161 338.984 370.234 337.74 369.041 336.943C365.974 334.958 362.849 332.911 359.161 332.63C358.479 332.573 357.854 332.573 357.229 332.573C356.151 332.573 355.073 332.573 354.047 332.688C362 320.938 373.922 309.875 388.291 307.036C388.406 307.943 388.63 308.797 388.859 309.703C389.765 313.505 391.474 316.969 393.119 320.089ZM578.13 287.458C591.021 283.484 607.489 293.302 622.026 301.984C624.864 303.688 627.588 305.276 630.26 306.807C630.713 307.094 631.166 307.318 631.625 307.604C632.927 310.781 634.802 315.49 634.687 316.74C632.474 320.771 630.656 322.531 627.25 323.776C622.932 325.365 617.593 324.63 611.177 323.438C603.343 321.964 595.224 320.484 589.031 316.286C588.349 315.833 587.672 315.323 586.989 314.812C584.036 312.656 580.401 309.932 575.573 309.307C574.833 309.193 574.099 309.193 573.416 309.193C570.802 309.193 568.416 309.76 566.375 310.214C564.5 310.667 562.567 311.12 561.661 310.781C560.979 310.557 560.239 309.135 560.297 307.719C560.297 305.786 561.265 303.464 563.135 300.625C566.547 295.573 571.26 291.375 576.823 288.307C577.218 288.026 577.619 287.688 578.13 287.458ZM511.802 392.896C515.265 393.917 518.901 393.068 521.567 390.74C524.182 388.411 525.432 384.896 524.864 381.375C523.385 372.125 520.661 363.219 516.744 354.818C519.354 354.307 521.567 353.568 522.875 352.547C524.692 351.13 525.771 349.146 525.885 346.99L527.817 318.896L527.875 318.443C528.099 314.87 528.552 307.943 524.922 302.667C524.297 301.76 523.614 300.964 522.76 300.172C516.911 294.891 509.869 296.88 505.213 298.182C502.828 298.865 500.39 299.547 499.026 299.146C498.286 298.922 497.093 298.125 496.015 297.333C494.593 296.37 493.177 295.401 491.698 294.667C484.146 291.031 476.14 293.302 470.802 294.891L447.177 301.703C444.963 302.328 441.672 303.292 439 305.958C432.984 311.917 434.63 321.396 435.198 324.516C435.651 327.068 436.562 329.906 437.755 332.688C440.536 338.984 445.021 345.172 450.073 347.609C451.213 348.177 452.401 348.464 453.541 348.635C453.14 349.484 452.916 350.333 452.744 351.188C451.724 356.75 455.302 361.911 457.63 365.318C458.422 366.453 459.218 367.531 459.786 368.609C461.317 371.448 461.661 374.224 461.203 375.417C459.39 380.583 462.172 386.37 467.338 388.359L491.021 397.323L493.744 395.505C498.968 392.104 505.672 391.135 511.802 392.896ZM473.984 377.12C475.062 370.99 472.448 365.031 471.146 362.594C470.349 361.12 469.328 359.531 468.192 357.938C467.281 356.635 465.864 354.536 465.463 353.458C466.146 352.323 466.942 351.245 467.734 350.167C469.099 348.406 470.573 346.703 472.109 345.229C473.984 343.469 475.911 341.938 477.901 340.802C481.536 338.703 485.281 337.964 488.463 339.438C490.052 340.177 491.588 341.198 493.062 342.505C495.052 344.208 497.036 346.422 498.911 349.198C499.875 350.562 500.786 352.036 501.75 353.682C502.151 354.365 502.432 355.047 502.828 355.781C506.864 363.333 509.812 371.333 511.521 379.729C504.078 378.484 496.302 379.672 489.656 383.078L473.984 377.12ZM448.031 315.036C448.369 314.698 449.906 314.245 450.755 314.016L474.38 307.208C479.093 305.844 483.239 304.823 486.135 306.24C487.041 306.698 487.838 307.266 488.692 307.885C490.505 309.135 492.724 310.724 495.505 311.521C500.333 312.938 504.989 311.578 508.734 310.557C510.781 309.99 513.619 309.193 514.187 309.703C514.812 310.271 515.437 312.089 515.041 317.646L513.333 342.729C512.427 342.844 511.291 342.958 510.041 343.016C505.213 335.807 499.875 330.87 493.802 328.089C483.75 323.438 473.015 327.521 464.5 335.125C463.307 334.844 462.114 334.672 460.807 334.672C458.932 334.672 457.062 335.016 455.073 335.922C452.859 334.333 448.771 328.203 447.744 322.474C446.781 316.344 447.974 315.036 448.031 315.036ZM423.724 340.63L432.526 349.542L427.474 354.594L423.5 358.562C414.411 349.542 423.5 358.562 414.411 349.542L423.5 340.464L423.724 340.63ZM539.682 340.292C539.062 339.667 537.979 338.589 536.109 336.714L545.192 327.635L551.156 333.651L554.224 336.714L545.192 345.74C537.922 338.589 542.182 342.786 539.682 340.292ZM580.911 355.896L590 346.818L599.026 355.896L590 364.922C580.911 355.896 590 364.922 580.911 355.896ZM563.76 357.995C563.192 357.427 562.515 356.807 561.661 355.953L570.744 346.875L577.39 353.568L579.776 355.953L570.744 364.974C562.567 356.807 569.156 363.333 563.76 357.995ZM442.75 391.646L451.781 400.729L442.75 409.75C440.026 407.026 438.942 405.948 438.489 405.552C437.468 404.531 440.026 407.026 433.661 400.729L439.515 394.885L442.75 391.646Z" fill="#002C1F"/>
</g>
</svg>
