<svg width="56" height="39" viewBox="0 0 56 39" fill="none" xmlns="http://www.w3.org/2000/svg">
<mask id="mask0_174_138" style="mask-type:luminance" maskUnits="userSpaceOnUse" x="0" y="-1" width="56" height="40">
<path d="M1.12793 0.526855L55.1345 -0.000737711L54.7588 38.1525L0.752223 38.6801L1.12793 0.526855Z" fill="white"/>
</mask>
<g mask="url(#mask0_174_138)">
<path d="M54.9088 14.3853C54.7319 11.0299 52.1972 8.03383 48.9686 7.20667C46.8953 6.67171 44.5226 6.92971 42.6137 7.98317C42.5351 7.68743 42.4404 7.39383 42.3328 7.10832C41.0544 3.6522 37.6493 1.34819 34.0878 0.672547C33.3867 0.534125 32.6771 0.449517 31.965 0.409707C29.9145 0.190937 28.0482 0.959405 26.3278 1.97122C21.8483 4.59603 18.14 9.02921 12.777 9.62985C12.6833 9.63773 12.604 9.70815 12.5931 9.80478C12.5812 9.90937 12.6569 10.0032 12.7622 10.0121C13.6657 10.1187 14.5845 10.0779 15.4865 9.9188C18.1778 9.43381 20.6468 7.97986 22.9057 6.54687C25.5372 4.96596 28.6679 2.2996 31.6909 2.5815C35.4397 2.72498 39.2645 4.34629 41.183 7.6678C41.3612 7.96854 41.5223 8.28139 41.6653 8.60536C41.164 8.99135 40.7138 9.44549 40.3335 9.96561C39.8754 10.6198 39.578 11.4128 39.5883 12.1908C39.5904 12.2733 39.6454 12.3494 39.7308 12.3705C39.834 12.3973 39.9421 12.3336 39.97 12.2288C40.1567 11.5594 40.5364 10.9895 41.0166 10.5261C41.3429 10.2264 41.6977 9.96124 42.0771 9.73266C42.3264 9.58098 42.5864 9.4461 42.8532 9.32608C45.1809 8.27848 48.0871 8.4093 50.1495 9.75331C51.5829 10.6985 52.6235 12.2386 52.8833 13.9434C52.9927 14.7503 52.9289 15.5708 52.8384 16.3767C52.553 18.7914 51.3213 21.0999 49.1339 22.2456C47.8175 22.951 46.3556 23.3852 44.8737 23.5181C42.0805 23.8329 39.9017 22.7985 37.5447 21.8743C39.3277 21.1723 41.0659 19.7643 41.1304 17.7647C41.1354 17.5547 40.8355 17.4989 40.7549 17.6947C40.2318 18.8879 39.2699 19.6594 38.1409 20.2326C37.3708 20.6312 36.5474 20.887 35.751 21.2311C35.4435 21.1346 35.131 21.0461 34.8103 20.9667C34.042 20.7801 33.2682 20.6544 32.4918 20.5794L32.4908 20.5794C34.1354 19.3862 35.4094 17.527 35.8126 15.6863C36.0389 14.7299 36.0991 13.6716 35.6961 12.7641C35.6066 12.56 35.2901 12.6656 35.3288 12.8811C35.4526 13.7486 35.24 14.6233 34.9156 15.4324C34.0738 17.6525 32.2557 19.3926 30.1314 20.3955C30.0684 20.4289 30.0025 20.4594 29.9385 20.4919C29.0586 20.5154 28.1773 20.5877 27.2977 20.6938C27.355 20.6315 27.4104 20.5693 27.4657 20.5051C28.447 19.3691 29.0977 17.8573 29.0377 16.3764C29.0345 16.2928 28.9766 16.2188 28.8912 16.1987C28.786 16.1748 28.6788 16.2436 28.6559 16.3502C28.5512 16.7751 28.4059 17.1815 28.227 17.5664C27.6835 18.698 26.8015 19.6549 25.751 20.3318C23.0752 22.0763 19.0792 21.777 16.411 20.3196C14.9696 19.4729 13.8728 18.0867 12.6708 16.8755C12.522 16.7277 12.2776 16.8943 12.3483 17.0876C12.6713 17.9362 13.0652 18.7533 13.5659 19.5384C14.5914 21.192 15.9993 22.2061 17.7213 22.7515C17.1044 22.9575 16.499 23.1963 15.9142 23.4796C14.3617 24.2112 12.8359 25.2688 11.1417 25.3341C7.41388 25.8929 3.86898 20.6053 3.12623 17.4195C2.4594 14.7087 3.70368 11.6249 6.14517 10.1374C9.23262 8.2247 13.087 8.25371 16.4551 6.8457C18.0142 6.24342 19.3521 5.17166 20.7311 4.27263C20.9294 4.14333 20.7712 3.8414 20.5503 3.94007C19.0797 4.64298 17.7186 5.54283 16.161 5.99585C13.8585 6.7049 11.3645 6.85464 8.981 7.40428C7.30073 7.7779 5.57407 8.41566 4.20488 9.5315C1.8502 11.3993 0.677659 14.5738 1.2061 17.495C1.71437 20.4442 3.83533 23.8195 6.14218 25.6984C7.54176 26.8509 9.42337 27.6554 11.3304 27.393C11.8381 27.3741 12.3304 27.2887 12.7993 27.1647C13.1 29.4682 13.3498 31.7841 13.5031 34.101C13.6019 35.488 13.6233 37.1515 13.5857 38.5469L15.3052 37.7331C16.9705 36.9576 18.8609 36.4635 20.6807 36.0696C25.6787 35.0537 33.0782 34.2908 37.8448 36.0592C37.9349 36.0971 38.0428 36.0582 38.0894 35.9682C38.1391 35.8742 38.1034 35.7591 38.0094 35.7113C33.2706 33.4452 25.6377 33.5556 20.3971 34.1451C18.8898 34.3359 17.4149 34.5682 15.9473 34.9646C15.6611 32.1068 15.1724 29.2897 14.6409 26.4741C14.6409 26.4741 14.6409 26.4741 14.6419 26.474C15.6935 25.9862 16.6482 25.4276 17.7369 25.013C19.0412 24.5177 20.4193 24.2176 21.8004 23.9126C23.8895 23.4544 26.0211 23.0177 28.1245 22.819C30.5357 22.5915 32.9319 22.6725 35.2143 23.3965C36.5474 23.8243 37.8072 24.4159 39.1368 24.8895C38.8887 27.1486 38.8729 29.4651 38.7879 31.7336C36.6237 31.0294 34.3617 30.6575 32.0877 30.4896C29.2974 30.3159 26.406 30.5083 23.7661 31.5391C23.6762 31.5748 23.6235 31.6718 23.6474 31.7671C23.6733 31.8693 23.7771 31.929 23.8799 31.9011C25.1958 31.549 26.5523 31.4193 27.8975 31.4261C31.2423 31.465 34.5569 32.2505 37.606 33.5312C38.2054 33.788 38.7867 34.0749 39.3239 34.385L40.9087 35.1238C40.9311 34.6609 41.0267 33.245 41.036 32.8012C41.0991 30.4394 41.0317 27.8869 41.2046 25.4832C44.1966 26.0938 47.4322 25.5995 50.1336 24.0905C53.6771 22.1455 55.0861 18.1985 54.9088 14.3853Z" fill="#46AF4E"/>
</g>
</svg>
