<svg width="1024" height="768" viewBox="0 0 1024 768" fill="none" xmlns="http://www.w3.org/2000/svg">
<mask id="mask0_758_162" style="mask-type:luminance" maskUnits="userSpaceOnUse" x="358" y="230" width="308" height="308">
<path d="M358.401 230.401H665.401V537.401H358.401V230.401Z" fill="white"/>
</mask>
<g mask="url(#mask0_758_162)">
<path d="M511.901 230.401C509.385 230.401 506.875 230.464 504.37 230.584C501.859 230.709 499.354 230.891 496.854 231.141C494.354 231.386 491.859 231.693 489.375 232.063C486.89 232.433 484.417 232.86 481.953 233.349C479.489 233.839 477.042 234.391 474.604 235C472.167 235.61 469.745 236.282 467.344 237.011C464.937 237.74 462.552 238.526 460.187 239.375C457.823 240.219 455.479 241.125 453.156 242.084C450.838 243.047 448.542 244.063 446.271 245.136C444 246.214 441.755 247.339 439.542 248.526C437.323 249.709 435.14 250.948 432.984 252.24C430.828 253.532 428.708 254.875 426.62 256.271C424.531 257.667 422.479 259.11 420.458 260.61C418.443 262.104 416.463 263.651 414.521 265.245C412.578 266.839 410.677 268.479 408.818 270.162C406.953 271.849 405.135 273.584 403.359 275.36C401.583 277.136 399.849 278.953 398.161 280.818C396.479 282.677 394.838 284.578 393.245 286.521C391.651 288.464 390.104 290.443 388.609 292.459C387.109 294.479 385.667 296.532 384.271 298.62C382.875 300.709 381.531 302.828 380.239 304.985C378.948 307.141 377.708 309.323 376.526 311.542C375.338 313.756 374.213 316 373.135 318.271C372.062 320.542 371.047 322.839 370.083 325.157C369.125 327.479 368.219 329.823 367.375 332.188C366.526 334.552 365.739 336.938 365.01 339.344C364.281 341.745 363.609 344.167 363 346.604C362.39 349.042 361.838 351.49 361.349 353.953C360.859 356.417 360.432 358.891 360.062 361.375C359.693 363.86 359.385 366.354 359.14 368.854C358.89 371.354 358.708 373.86 358.583 376.37C358.463 378.875 358.401 381.386 358.401 383.901C358.401 386.412 358.463 388.922 358.583 391.433C358.708 393.943 358.89 396.448 359.14 398.948C359.385 401.448 359.693 403.938 360.062 406.422C360.432 408.907 360.859 411.381 361.349 413.849C361.838 416.313 362.39 418.761 363 421.198C363.609 423.636 364.281 426.058 365.01 428.459C365.739 430.865 366.526 433.245 367.375 435.615C368.219 437.979 369.125 440.323 370.083 442.641C371.047 444.964 372.062 447.261 373.135 449.532C374.213 451.802 375.338 454.042 376.526 456.261C377.708 458.474 378.948 460.662 380.239 462.813C381.531 464.969 382.875 467.094 384.271 469.183C385.667 471.271 387.109 473.323 388.609 475.339C390.104 477.36 391.651 479.339 393.245 481.282C394.838 483.219 396.479 485.125 398.161 486.985C399.849 488.844 401.583 490.667 403.359 492.443C405.135 494.219 406.953 495.948 408.818 497.636C410.677 499.323 412.578 500.964 414.521 502.558C416.463 504.151 418.443 505.698 420.458 507.193C422.479 508.688 424.531 510.136 426.62 511.532C428.708 512.927 430.828 514.271 432.984 515.563C435.14 516.854 437.323 518.089 439.542 519.276C441.755 520.459 444 521.589 446.271 522.662C448.542 523.735 450.838 524.756 453.156 525.714C455.479 526.677 457.823 527.578 460.187 528.427C462.552 529.271 464.937 530.063 467.344 530.792C469.745 531.521 472.167 532.188 474.604 532.802C477.042 533.412 479.489 533.959 481.953 534.453C484.417 534.943 486.89 535.37 489.375 535.74C491.859 536.11 494.354 536.417 496.854 536.662C499.354 536.907 501.859 537.094 504.37 537.214C506.875 537.339 509.385 537.401 511.901 537.401C514.411 537.401 516.922 537.339 519.432 537.214C521.943 537.094 524.448 536.907 526.948 536.662C529.448 536.417 531.937 536.11 534.422 535.74C536.906 535.37 539.38 534.943 541.844 534.448C544.312 533.959 546.76 533.412 549.198 532.802C551.635 532.188 554.052 531.521 556.458 530.792C558.864 530.063 561.245 529.271 563.614 528.427C565.979 527.578 568.323 526.677 570.64 525.714C572.963 524.756 575.26 523.735 577.531 522.662C579.802 521.589 582.042 520.459 584.26 519.276C586.474 518.089 588.661 516.854 590.812 515.563C592.969 514.271 595.094 512.927 597.182 511.532C599.271 510.136 601.323 508.688 603.338 507.193C605.359 505.698 607.338 504.151 609.281 502.558C611.219 500.964 613.125 499.323 614.984 497.636C616.844 495.948 618.667 494.219 620.443 492.443C622.219 490.667 623.948 488.844 625.635 486.985C627.323 485.125 628.963 483.219 630.557 481.282C632.151 479.339 633.698 477.36 635.193 475.339C636.687 473.323 638.135 471.271 639.531 469.183C640.927 467.094 642.271 464.969 643.562 462.813C644.854 460.662 646.088 458.474 647.276 456.261C648.458 454.042 649.588 451.802 650.661 449.532C651.734 447.261 652.755 444.964 653.713 442.641C654.677 440.323 655.578 437.979 656.427 435.615C657.271 433.245 658.062 430.865 658.792 428.459C659.521 426.058 660.187 423.636 660.802 421.198C661.411 418.761 661.958 416.313 662.448 413.849C662.943 411.381 663.37 408.907 663.739 406.422C664.109 403.938 664.417 401.448 664.661 398.948C664.906 396.448 665.094 393.943 665.213 391.433C665.338 388.922 665.401 386.412 665.401 383.901C665.396 381.391 665.333 378.881 665.208 376.37C665.083 373.865 664.896 371.36 664.646 368.86C664.396 366.36 664.088 363.87 663.713 361.386C663.344 358.901 662.911 356.427 662.422 353.964C661.932 351.506 661.38 349.052 660.765 346.62C660.156 344.183 659.484 341.766 658.75 339.36C658.021 336.959 657.229 334.573 656.385 332.209C655.536 329.849 654.63 327.506 653.672 325.188C652.708 322.865 651.687 320.573 650.614 318.302C649.536 316.032 648.406 313.787 647.224 311.573C646.042 309.36 644.802 307.177 643.51 305.021C642.219 302.87 640.875 300.75 639.479 298.662C638.083 296.573 636.635 294.521 635.14 292.506C633.64 290.49 632.099 288.511 630.505 286.568C628.911 284.625 627.271 282.724 625.583 280.865C623.896 279.006 622.167 277.188 620.39 275.412C618.614 273.636 616.797 271.901 614.937 270.214C613.073 268.532 611.172 266.891 609.234 265.297C607.292 263.703 605.312 262.157 603.297 260.662C601.281 259.167 599.229 257.719 597.14 256.323C595.052 254.927 592.932 253.584 590.776 252.292C588.625 251 586.437 249.761 584.224 248.578C582.01 247.391 579.771 246.261 577.5 245.188C575.229 244.11 572.932 243.094 570.614 242.131C568.297 241.167 565.953 240.266 563.588 239.417C561.224 238.568 558.844 237.782 556.437 237.047C554.036 236.318 551.62 235.646 549.182 235.037C546.745 234.422 544.297 233.87 541.833 233.381C539.37 232.886 536.896 232.453 534.417 232.084C531.932 231.714 529.437 231.401 526.943 231.157C524.443 230.907 521.937 230.719 519.427 230.594C516.922 230.469 514.411 230.401 511.901 230.401ZM511.901 527.808C509.547 527.808 507.193 527.75 504.838 527.636C502.484 527.516 500.14 527.344 497.797 527.115C495.453 526.881 493.114 526.594 490.786 526.25C488.453 525.901 486.135 525.5 483.823 525.042C481.515 524.584 479.219 524.068 476.932 523.495C474.651 522.922 472.38 522.292 470.125 521.61C467.875 520.927 465.635 520.188 463.422 519.396C461.203 518.599 459.005 517.756 456.828 516.854C454.651 515.953 452.5 514.995 450.37 513.99C448.245 512.985 446.14 511.922 444.062 510.813C441.984 509.703 439.937 508.542 437.917 507.334C435.896 506.12 433.906 504.865 431.948 503.552C429.989 502.245 428.068 500.891 426.177 499.485C424.281 498.084 422.427 496.636 420.609 495.141C418.786 493.646 417.005 492.11 415.26 490.526C413.515 488.948 411.807 487.323 410.14 485.657C408.479 483.99 406.854 482.287 405.271 480.542C403.693 478.797 402.151 477.016 400.661 475.193C399.167 473.375 397.719 471.516 396.312 469.625C394.911 467.735 393.557 465.808 392.245 463.849C390.937 461.891 389.677 459.901 388.469 457.881C387.255 455.865 386.094 453.813 384.984 451.735C383.875 449.662 382.818 447.558 381.812 445.427C380.802 443.297 379.849 441.146 378.948 438.969C378.047 436.797 377.198 434.599 376.406 432.381C375.614 430.162 374.875 427.927 374.193 425.672C373.505 423.422 372.88 421.151 372.307 418.865C371.734 416.584 371.219 414.287 370.76 411.974C370.297 409.667 369.896 407.344 369.552 405.016C369.208 402.688 368.917 400.349 368.687 398.006C368.458 395.662 368.281 393.313 368.167 390.964C368.052 388.61 367.995 386.256 367.995 383.901C367.995 381.547 368.052 379.193 368.167 376.839C368.281 374.485 368.458 372.141 368.687 369.797C368.917 367.453 369.208 365.115 369.552 362.787C369.896 360.453 370.297 358.136 370.76 355.823C371.219 353.516 371.734 351.219 372.307 348.933C372.88 346.651 373.505 344.381 374.193 342.125C374.875 339.875 375.614 337.636 376.406 335.422C377.198 333.203 378.047 331.006 378.948 328.828C379.849 326.651 380.802 324.5 381.812 322.37C382.818 320.245 383.875 318.141 384.984 316.063C386.094 313.985 387.255 311.938 388.469 309.917C389.677 307.896 390.937 305.907 392.245 303.948C393.557 301.99 394.911 300.068 396.312 298.177C397.719 296.282 399.167 294.427 400.661 292.61C402.151 290.787 403.693 289.006 405.271 287.261C406.854 285.516 408.479 283.808 410.14 282.141C411.807 280.479 413.515 278.854 415.26 277.271C417.005 275.693 418.786 274.151 420.609 272.662C422.427 271.167 424.281 269.719 426.177 268.313C428.068 266.912 429.989 265.558 431.948 264.245C433.906 262.938 435.896 261.677 437.917 260.469C439.937 259.256 441.984 258.094 444.062 256.985C446.14 255.875 448.245 254.818 450.37 253.813C452.5 252.802 454.651 251.849 456.828 250.948C459.005 250.047 461.203 249.198 463.422 248.407C465.635 247.615 467.875 246.875 470.125 246.193C472.38 245.506 474.651 244.881 476.932 244.308C479.219 243.735 481.515 243.219 483.823 242.761C486.135 242.297 488.453 241.896 490.786 241.552C493.114 241.209 495.453 240.917 497.797 240.688C500.14 240.459 502.484 240.282 504.838 240.167C507.193 240.052 509.547 239.995 511.901 239.995C514.255 239.995 516.609 240.052 518.963 240.167C521.312 240.282 523.661 240.459 526.005 240.688C528.349 240.917 530.687 241.209 533.015 241.552C535.344 241.896 537.667 242.297 539.974 242.761C542.286 243.219 544.583 243.735 546.864 244.308C549.151 244.881 551.422 245.506 553.672 246.193C555.927 246.875 558.161 247.615 560.38 248.407C562.599 249.198 564.797 250.047 566.969 250.948C569.146 251.849 571.297 252.802 573.427 253.813C575.557 254.818 577.661 255.875 579.734 256.985C581.812 258.094 583.864 259.256 585.88 260.469C587.901 261.677 589.89 262.938 591.849 264.245C593.807 265.558 595.734 266.912 597.625 268.313C599.515 269.719 601.375 271.167 603.193 272.662C605.015 274.151 606.797 275.693 608.542 277.271C610.286 278.854 611.989 280.479 613.656 282.141C615.323 283.808 616.948 285.516 618.526 287.261C620.109 289.006 621.646 290.787 623.14 292.61C624.635 294.427 626.083 296.282 627.484 298.177C628.89 300.068 630.245 301.99 631.552 303.948C632.864 305.907 634.12 307.896 635.333 309.917C636.542 311.938 637.703 313.985 638.812 316.063C639.922 318.141 640.984 320.245 641.989 322.37C642.995 324.5 643.953 326.651 644.854 328.828C645.755 331.006 646.599 333.203 647.396 335.422C648.187 337.636 648.927 339.875 649.609 342.125C650.292 344.381 650.922 346.651 651.495 348.933C652.068 351.219 652.583 353.516 653.042 355.823C653.5 358.136 653.901 360.453 654.25 362.787C654.594 365.115 654.88 367.453 655.114 369.797C655.344 372.141 655.515 374.485 655.635 376.839C655.75 379.193 655.807 381.547 655.807 383.901C655.802 386.256 655.745 388.61 655.625 390.959C655.505 393.313 655.333 395.657 655.099 398C654.864 400.344 654.573 402.677 654.229 405.006C653.88 407.339 653.474 409.657 653.015 411.964C652.552 414.271 652.036 416.568 651.463 418.854C650.885 421.136 650.26 423.401 649.573 425.657C648.89 427.907 648.146 430.141 647.354 432.36C646.557 434.573 645.708 436.771 644.807 438.943C643.906 441.12 642.953 443.271 641.943 445.401C640.937 447.526 639.875 449.631 638.765 451.703C637.656 453.782 636.495 455.828 635.281 457.849C634.073 459.865 632.812 461.854 631.505 463.813C630.193 465.771 628.838 467.693 627.437 469.584C626.031 471.474 624.583 473.328 623.088 475.151C621.599 476.969 620.057 478.75 618.479 480.495C616.896 482.24 615.276 483.943 613.609 485.61C611.943 487.276 610.239 488.896 608.495 490.479C606.75 492.058 604.969 493.599 603.151 495.094C601.328 496.584 599.474 498.032 597.583 499.438C595.693 500.839 593.771 502.193 591.812 503.506C589.854 504.813 587.864 506.073 585.849 507.282C583.828 508.495 581.781 509.657 579.703 510.766C577.63 511.875 575.526 512.938 573.401 513.943C571.271 514.953 569.12 515.907 566.943 516.808C564.771 517.709 562.573 518.558 560.359 519.354C558.14 520.146 555.906 520.891 553.656 521.573C551.401 522.261 549.135 522.886 546.854 523.464C544.568 524.037 542.271 524.552 539.963 525.016C537.656 525.474 535.338 525.881 533.005 526.229C530.677 526.573 528.344 526.865 526 527.099C523.656 527.334 521.312 527.506 518.958 527.625C516.609 527.745 514.255 527.802 511.901 527.808Z" fill="#002C1F"/>
</g>
<path d="M612.292 321.886C612.062 320.391 611.719 318.922 611.255 317.479C610.792 316.042 610.219 314.646 609.536 313.292C608.854 311.943 608.068 310.657 607.182 309.427C606.297 308.203 605.318 307.052 604.245 305.985C603.177 304.912 602.031 303.933 600.807 303.042C599.583 302.151 598.297 301.365 596.948 300.677C595.599 299.99 594.203 299.417 592.766 298.948C591.323 298.485 589.859 298.136 588.365 297.901C588.229 296.907 588.047 295.917 587.823 294.933C587.599 293.953 587.333 292.985 587.021 292.026C586.714 291.068 586.359 290.131 585.964 289.203C585.568 288.276 585.13 287.37 584.656 286.485C584.177 285.599 583.661 284.735 583.109 283.896C582.557 283.058 581.964 282.245 581.339 281.453C580.714 280.667 580.052 279.912 579.354 279.183C578.661 278.453 577.932 277.761 577.177 277.099C576.422 276.438 575.635 275.808 574.823 275.214C574.005 274.625 573.167 274.068 572.307 273.552C571.443 273.037 570.557 272.558 569.651 272.12C568.745 271.683 567.823 271.287 566.88 270.933C565.938 270.578 564.979 270.266 564.01 269.995C563.042 269.729 562.062 269.506 561.073 269.323C560.083 269.141 559.089 269.006 558.083 268.917C557.083 268.823 556.078 268.776 555.073 268.776H533.302C532.635 268.021 531.927 267.308 531.177 266.631C530.432 265.953 529.651 265.318 528.839 264.719C528.026 264.125 527.188 263.573 526.312 263.068C525.443 262.563 524.547 262.099 523.63 261.688C522.708 261.276 521.771 260.912 520.812 260.599C519.854 260.287 518.88 260.026 517.896 259.813C516.911 259.604 515.917 259.448 514.917 259.339C513.911 259.235 512.906 259.183 511.901 259.183C510.891 259.183 509.885 259.235 508.885 259.339C507.88 259.448 506.891 259.604 505.901 259.813C504.917 260.026 503.948 260.287 502.99 260.599C502.031 260.912 501.094 261.276 500.172 261.688C499.25 262.099 498.359 262.563 497.484 263.068C496.615 263.573 495.771 264.125 494.958 264.719C494.146 265.318 493.365 265.953 492.62 266.631C491.875 267.308 491.167 268.021 490.495 268.776H468.729C467.724 268.776 466.719 268.823 465.714 268.917C464.714 269.006 463.719 269.141 462.729 269.323C461.74 269.506 460.755 269.729 459.786 270C458.818 270.266 457.859 270.578 456.922 270.933C455.979 271.287 455.052 271.683 454.146 272.12C453.24 272.558 452.359 273.037 451.495 273.552C450.63 274.068 449.792 274.625 448.979 275.219C448.167 275.808 447.38 276.438 446.62 277.099C445.865 277.761 445.135 278.459 444.443 279.188C443.75 279.912 443.089 280.672 442.458 281.459C441.833 282.245 441.245 283.058 440.688 283.901C440.135 284.74 439.62 285.604 439.141 286.49C438.667 287.375 438.229 288.282 437.833 289.209C437.443 290.131 437.089 291.073 436.776 292.032C436.469 292.99 436.198 293.959 435.974 294.938C435.75 295.922 435.573 296.912 435.438 297.907C433.943 298.141 432.474 298.49 431.036 298.953C429.594 299.422 428.198 299.995 426.854 300.683C425.505 301.37 424.219 302.157 422.99 303.047C421.766 303.938 420.62 304.917 419.552 305.99C418.484 307.058 417.505 308.209 416.62 309.433C415.729 310.662 414.948 311.948 414.26 313.297C413.578 314.651 413.005 316.047 412.547 317.485C412.083 318.927 411.734 320.396 411.505 321.891C409.828 322.157 408.182 322.568 406.573 323.125C404.969 323.683 403.422 324.375 401.938 325.203C400.453 326.037 399.052 326.99 397.734 328.068C396.422 329.146 395.208 330.328 394.104 331.625C393 332.917 392.016 334.297 391.151 335.761C390.292 337.229 389.562 338.761 388.974 340.354C388.385 341.948 387.938 343.584 387.635 345.261C387.333 346.933 387.182 348.62 387.182 350.323V383.901C387.167 388.724 387.432 393.537 387.974 398.328C388.521 403.125 389.344 407.87 390.448 412.568C391.547 417.266 392.922 421.886 394.562 426.422C396.203 430.959 398.104 435.386 400.26 439.703C402.417 444.016 404.823 448.193 407.469 452.224C410.115 456.261 412.99 460.125 416.089 463.828C419.188 467.526 422.49 471.032 426 474.344C429.51 477.657 433.198 480.75 437.068 483.631C437.594 483.959 438.161 484.188 438.771 484.313C439.375 484.443 439.99 484.464 440.599 484.375C441.214 484.287 441.797 484.099 442.344 483.802C442.891 483.511 443.37 483.136 443.786 482.672C444.167 482.162 444.438 481.599 444.594 480.985C444.75 480.37 444.786 479.745 444.698 479.115C444.604 478.485 444.401 477.896 444.073 477.349C443.75 476.802 443.333 476.339 442.823 475.959C439.25 473.297 435.844 470.438 432.609 467.381C429.37 464.323 426.318 461.089 423.458 457.672C420.599 454.261 417.948 450.693 415.505 446.969C413.063 443.245 410.844 439.391 408.849 435.407C406.859 431.422 405.104 427.339 403.589 423.151C402.073 418.959 400.807 414.698 399.792 410.36C398.776 406.026 398.016 401.646 397.51 397.219C397.005 392.792 396.76 388.354 396.776 383.901V350.323C396.776 349.063 396.896 347.813 397.146 346.578C397.391 345.344 397.755 344.141 398.234 342.979C398.719 341.818 399.307 340.709 400.01 339.662C400.708 338.615 401.505 337.646 402.396 336.756C403.286 335.865 404.255 335.068 405.302 334.37C406.349 333.667 407.458 333.078 408.62 332.594C409.781 332.115 410.984 331.75 412.219 331.506C413.453 331.256 414.703 331.136 415.964 331.136C416.599 331.136 417.208 331.011 417.797 330.771C418.385 330.526 418.906 330.177 419.354 329.729C419.802 329.282 420.151 328.761 420.396 328.172C420.635 327.584 420.76 326.974 420.76 326.339C420.755 325.078 420.875 323.828 421.115 322.589C421.359 321.349 421.719 320.151 422.198 318.985C422.677 317.818 423.271 316.709 423.969 315.662C424.667 314.61 425.464 313.641 426.354 312.745C427.25 311.854 428.219 311.058 429.271 310.36C430.318 309.662 431.427 309.068 432.594 308.589C433.76 308.11 434.958 307.75 436.198 307.506C437.438 307.266 438.688 307.146 439.948 307.151C440.583 307.151 441.193 307.026 441.781 306.787C442.37 306.542 442.891 306.193 443.339 305.745C443.786 305.297 444.135 304.776 444.38 304.188C444.62 303.599 444.745 302.99 444.745 302.354C444.745 301.568 444.786 300.787 444.865 300.006C444.943 299.224 445.057 298.448 445.214 297.677C445.365 296.907 445.557 296.146 445.786 295.396C446.016 294.646 446.281 293.907 446.583 293.183C446.88 292.459 447.219 291.75 447.589 291.058C447.958 290.365 448.365 289.693 448.797 289.037C449.234 288.386 449.703 287.756 450.203 287.151C450.698 286.542 451.224 285.964 451.781 285.407C452.339 284.849 452.917 284.323 453.526 283.828C454.13 283.328 454.76 282.86 455.411 282.422C456.068 281.99 456.74 281.584 457.432 281.214C458.125 280.844 458.833 280.506 459.557 280.209C460.281 279.907 461.021 279.641 461.771 279.412C462.521 279.183 463.281 278.99 464.052 278.839C464.823 278.683 465.599 278.568 466.38 278.49C467.161 278.412 467.943 278.37 468.729 278.37H484.786C484.333 279.62 483.969 280.901 483.693 282.209C483.568 282.828 483.562 283.453 483.688 284.078C483.807 284.703 484.042 285.282 484.391 285.813C484.745 286.344 485.182 286.787 485.708 287.141C486.24 287.5 486.812 287.74 487.438 287.865C488.057 287.995 488.682 287.995 489.307 287.875C489.932 287.756 490.51 287.521 491.042 287.167C491.573 286.818 492.016 286.381 492.37 285.849C492.729 285.323 492.969 284.75 493.094 284.125C493.656 281.302 494.807 278.745 496.552 276.448C496.995 275.854 497.474 275.292 497.984 274.75C498.495 274.214 499.036 273.709 499.604 273.229C500.177 272.756 500.771 272.313 501.391 271.907C502.01 271.5 502.656 271.131 503.318 270.802C503.984 270.469 504.661 270.177 505.359 269.922C506.057 269.672 506.771 269.459 507.49 269.287C508.214 269.12 508.943 268.99 509.682 268.907C510.417 268.818 511.156 268.776 511.901 268.776C512.641 268.776 513.38 268.818 514.12 268.907C514.854 268.99 515.589 269.12 516.307 269.287C517.031 269.459 517.74 269.672 518.438 269.922C519.135 270.177 519.818 270.469 520.479 270.802C521.146 271.131 521.786 271.5 522.406 271.907C523.031 272.313 523.625 272.756 524.193 273.229C524.766 273.709 525.302 274.214 525.818 274.75C526.328 275.292 526.802 275.854 527.25 276.448C528.995 278.74 530.146 281.302 530.703 284.125C530.849 284.74 531.099 285.302 531.458 285.823C531.818 286.339 532.26 286.771 532.786 287.12C533.312 287.469 533.88 287.709 534.5 287.839C535.115 287.969 535.734 287.979 536.354 287.875C536.979 287.75 537.557 287.511 538.089 287.151C538.615 286.797 539.057 286.354 539.406 285.823C539.76 285.287 539.995 284.709 540.12 284.084C540.24 283.459 540.234 282.834 540.104 282.209C539.828 280.901 539.469 279.625 539.016 278.37H555.073C555.859 278.37 556.641 278.412 557.422 278.49C558.203 278.568 558.979 278.683 559.75 278.839C560.516 278.99 561.276 279.183 562.031 279.412C562.781 279.641 563.521 279.907 564.245 280.209C564.969 280.506 565.677 280.844 566.37 281.214C567.062 281.584 567.734 281.99 568.385 282.422C569.042 282.86 569.667 283.328 570.276 283.828C570.88 284.323 571.464 284.849 572.021 285.407C572.573 285.964 573.099 286.542 573.599 287.151C574.099 287.756 574.562 288.386 575 289.037C575.438 289.693 575.839 290.365 576.214 291.058C576.583 291.75 576.917 292.459 577.219 293.183C577.521 293.907 577.786 294.646 578.016 295.396C578.245 296.146 578.432 296.907 578.589 297.677C578.745 298.448 578.859 299.224 578.938 300.006C579.016 300.787 579.057 301.568 579.057 302.354C579.057 302.99 579.177 303.599 579.422 304.188C579.667 304.776 580.01 305.297 580.464 305.745C580.911 306.193 581.432 306.542 582.016 306.787C582.604 307.026 583.219 307.151 583.854 307.151C585.115 307.146 586.365 307.266 587.604 307.506C588.839 307.75 590.042 308.11 591.208 308.589C592.375 309.068 593.484 309.662 594.531 310.36C595.583 311.058 596.552 311.854 597.443 312.745C598.333 313.641 599.13 314.61 599.828 315.662C600.531 316.709 601.12 317.818 601.599 318.985C602.083 320.151 602.443 321.349 602.682 322.589C602.927 323.828 603.047 325.078 603.042 326.339C603.042 326.974 603.161 327.584 603.406 328.172C603.651 328.761 603.995 329.282 604.448 329.729C604.896 330.177 605.417 330.526 606 330.771C606.589 331.011 607.203 331.136 607.839 331.136C609.099 331.136 610.344 331.256 611.583 331.506C612.818 331.75 614.016 332.115 615.182 332.594C616.344 333.078 617.448 333.667 618.5 334.37C619.547 335.068 620.516 335.865 621.406 336.756C622.297 337.646 623.094 338.615 623.792 339.662C624.49 340.709 625.083 341.818 625.562 342.979C626.047 344.141 626.411 345.344 626.656 346.578C626.901 347.813 627.026 349.063 627.026 350.323V383.901C627.021 385.782 626.974 387.667 626.88 389.547C626.786 391.427 626.646 393.308 626.458 395.183C626.271 397.052 626.042 398.922 625.76 400.787C625.484 402.651 625.161 404.506 624.792 406.349C624.422 408.198 624.005 410.037 623.547 411.86C623.089 413.688 622.583 415.5 622.036 417.302C621.49 419.104 620.896 420.896 620.26 422.667C619.625 424.438 618.948 426.198 618.224 427.938C617.505 429.677 616.74 431.396 615.932 433.099C615.125 434.802 614.281 436.485 613.391 438.141C612.505 439.802 611.573 441.443 610.604 443.058C609.635 444.672 608.63 446.261 607.583 447.828C606.536 449.396 605.448 450.933 604.328 452.448C603.203 453.959 602.047 455.443 600.854 456.901C599.656 458.354 598.427 459.782 597.161 461.177C595.896 462.573 594.599 463.933 593.266 465.266C591.932 466.599 590.573 467.896 589.177 469.162C587.781 470.427 586.354 471.657 584.896 472.854C583.443 474.047 581.958 475.203 580.448 476.328C578.932 477.448 577.396 478.537 575.828 479.584C574.26 480.631 572.672 481.636 571.057 482.604C569.443 483.573 567.802 484.506 566.141 485.391C564.484 486.282 562.802 487.131 561.099 487.933C559.396 488.74 557.677 489.506 555.938 490.224C554.198 490.948 552.438 491.625 550.667 492.261C548.896 492.896 547.104 493.49 545.302 494.037C543.5 494.584 541.688 495.089 539.859 495.547C538.036 496.006 536.198 496.422 534.349 496.792C532.505 497.162 530.651 497.485 528.786 497.761C526.922 498.042 525.052 498.271 523.182 498.459C521.307 498.646 519.427 498.787 517.547 498.881C515.667 498.974 513.781 499.021 511.901 499.026C503.12 499.047 494.448 498.068 485.896 496.084C477.339 494.099 469.125 491.167 461.25 487.282C460.677 487 460.073 486.839 459.438 486.797C458.797 486.761 458.177 486.839 457.573 487.047C456.969 487.256 456.432 487.568 455.953 487.99C455.474 488.412 455.094 488.907 454.812 489.479C454.531 490.052 454.37 490.657 454.328 491.292C454.286 491.933 454.37 492.552 454.578 493.157C454.786 493.761 455.099 494.302 455.521 494.776C455.943 495.256 456.443 495.636 457.016 495.917C465.552 500.12 474.453 503.297 483.724 505.443C492.995 507.589 502.385 508.646 511.901 508.62C513.943 508.615 515.979 508.563 518.016 508.464C520.057 508.36 522.089 508.209 524.12 508.006C526.151 507.802 528.177 507.552 530.193 507.25C532.214 506.948 534.219 506.599 536.224 506.198C538.224 505.797 540.214 505.349 542.193 504.854C544.172 504.354 546.135 503.808 548.089 503.214C550.042 502.625 551.974 501.979 553.896 501.292C555.818 500.604 557.719 499.87 559.604 499.089C561.49 498.308 563.354 497.479 565.198 496.604C567.042 495.729 568.865 494.813 570.661 493.849C572.464 492.886 574.24 491.881 575.984 490.834C577.734 489.782 579.458 488.688 581.156 487.558C582.854 486.422 584.521 485.245 586.156 484.032C587.797 482.813 589.406 481.558 590.984 480.266C592.557 478.969 594.104 477.636 595.615 476.266C597.125 474.896 598.604 473.49 600.047 472.047C601.49 470.604 602.896 469.125 604.266 467.615C605.635 466.104 606.969 464.558 608.266 462.985C609.557 461.407 610.812 459.797 612.031 458.157C613.245 456.521 614.422 454.854 615.557 453.157C616.688 451.459 617.781 449.735 618.833 447.985C619.88 446.24 620.885 444.464 621.849 442.662C622.812 440.865 623.729 439.042 624.604 437.198C625.479 435.354 626.307 433.49 627.089 431.604C627.87 429.719 628.604 427.818 629.292 425.896C629.979 423.974 630.625 422.042 631.214 420.089C631.807 418.136 632.354 416.172 632.854 414.193C633.349 412.214 633.797 410.224 634.198 408.224C634.599 406.219 634.948 404.214 635.25 402.193C635.552 400.177 635.802 398.151 636.005 396.12C636.208 394.089 636.359 392.058 636.464 390.016C636.563 387.979 636.615 385.943 636.62 383.901V350.323C636.615 348.62 636.464 346.933 636.167 345.261C635.865 343.584 635.417 341.948 634.828 340.354C634.234 338.761 633.51 337.229 632.651 335.761C631.786 334.292 630.802 332.912 629.698 331.62C628.594 330.328 627.38 329.141 626.068 328.063C624.75 326.985 623.349 326.032 621.865 325.198C620.38 324.37 618.833 323.677 617.224 323.12C615.62 322.563 613.974 322.151 612.292 321.886Z" fill="#002C1F"/>
<path d="M559.87 345.526C559.864 343.953 559.786 342.386 559.635 340.823C559.479 339.261 559.245 337.709 558.937 336.172C558.63 334.631 558.25 333.11 557.792 331.604C557.333 330.104 556.807 328.625 556.203 327.177C555.599 325.724 554.932 324.308 554.187 322.922C553.448 321.537 552.64 320.193 551.771 318.886C550.896 317.584 549.958 316.323 548.963 315.11C547.969 313.896 546.917 312.735 545.802 311.62C544.693 310.511 543.531 309.459 542.318 308.459C541.104 307.464 539.844 306.532 538.536 305.657C537.234 304.782 535.885 303.979 534.5 303.235C533.114 302.495 531.698 301.823 530.25 301.224C528.797 300.62 527.323 300.089 525.818 299.636C524.318 299.177 522.797 298.797 521.255 298.485C519.713 298.177 518.161 297.948 516.599 297.792C515.036 297.636 513.469 297.558 511.901 297.558C510.328 297.558 508.765 297.641 507.203 297.792C505.64 297.948 504.088 298.183 502.547 298.49C501.005 298.797 499.484 299.183 497.984 299.641C496.479 300.094 495.005 300.625 493.557 301.229C492.104 301.828 490.687 302.5 489.302 303.245C487.917 303.985 486.573 304.792 485.265 305.662C483.963 306.537 482.703 307.474 481.489 308.469C480.276 309.464 479.114 310.516 478.005 311.631C476.89 312.74 475.838 313.901 474.844 315.115C473.849 316.328 472.911 317.589 472.036 318.891C471.167 320.198 470.359 321.542 469.62 322.927C468.875 324.313 468.203 325.729 467.604 327.183C467 328.631 466.469 330.104 466.015 331.61C465.557 333.11 465.172 334.631 464.864 336.172C464.557 337.714 464.323 339.266 464.167 340.828C464.015 342.391 463.932 343.953 463.932 345.526V365.625C463.932 368.62 464.088 371.61 464.411 374.594C464.729 377.573 465.203 380.532 465.838 383.459C466.469 386.391 467.255 389.282 468.198 392.125C469.135 394.974 470.224 397.761 471.463 400.495C472.703 403.224 474.078 405.881 475.599 408.469C477.12 411.052 478.771 413.547 480.557 415.953C482.344 418.365 484.255 420.672 486.286 422.875C488.318 425.078 490.458 427.172 492.713 429.151V441.703C492.703 444.063 492.25 446.328 491.349 448.511C490.443 450.688 489.161 452.615 487.5 454.287C486.453 455.334 485.578 456.511 484.885 457.813C484.187 459.12 483.693 460.5 483.406 461.948C483.114 463.401 483.047 464.865 483.187 466.339C483.333 467.808 483.693 469.229 484.255 470.599C484.823 471.964 485.578 473.219 486.515 474.365C487.453 475.511 488.542 476.49 489.771 477.313C491 478.136 492.323 478.761 493.739 479.193C495.156 479.62 496.604 479.839 498.083 479.839H525.713C526.698 479.839 527.672 479.745 528.635 479.552C529.599 479.36 530.536 479.078 531.443 478.703C532.354 478.328 533.213 477.865 534.031 477.318C534.849 476.776 535.609 476.151 536.302 475.459C536.995 474.766 537.62 474.006 538.161 473.188C538.708 472.37 539.172 471.511 539.547 470.599C539.922 469.693 540.203 468.756 540.396 467.792C540.588 466.828 540.682 465.854 540.682 464.87C540.687 462.886 540.312 460.974 539.552 459.141C538.792 457.302 537.708 455.688 536.302 454.287C534.64 452.615 533.354 450.688 532.453 448.511C531.547 446.328 531.094 444.063 531.088 441.703V429.151C533.338 427.172 535.484 425.078 537.515 422.875C539.547 420.672 541.453 418.365 543.239 415.953C545.026 413.547 546.677 411.052 548.198 408.464C549.719 405.881 551.099 403.224 552.333 400.495C553.573 397.761 554.661 394.974 555.599 392.125C556.542 389.282 557.328 386.391 557.963 383.459C558.594 380.532 559.073 377.573 559.39 374.594C559.708 371.61 559.87 368.62 559.87 365.625V345.526ZM525.713 470.245H516.698V465.448C516.698 464.813 516.573 464.198 516.333 463.61C516.088 463.026 515.739 462.506 515.292 462.058C514.844 461.604 514.323 461.261 513.734 461.016C513.146 460.771 512.536 460.651 511.901 460.651C511.265 460.651 510.651 460.771 510.062 461.016C509.479 461.261 508.958 461.604 508.51 462.058C508.057 462.506 507.713 463.026 507.469 463.61C507.224 464.198 507.104 464.813 507.104 465.448V470.245H498.083C497.552 470.245 497.031 470.167 496.526 470.011C496.015 469.86 495.542 469.631 495.099 469.339C494.656 469.042 494.265 468.688 493.932 468.276C493.594 467.87 493.323 467.417 493.12 466.927C492.917 466.433 492.786 465.927 492.734 465.396C492.682 464.865 492.708 464.344 492.812 463.823C492.917 463.297 493.094 462.802 493.344 462.334C493.594 461.865 493.906 461.443 494.281 461.068C495.547 459.792 496.682 458.407 497.677 456.912C498.672 455.417 499.515 453.839 500.203 452.177C500.89 450.516 501.411 448.808 501.765 447.042C502.12 445.282 502.302 443.5 502.307 441.703V431.87H521.495V441.703C521.5 443.5 521.677 445.282 522.031 447.042C522.385 448.808 522.906 450.516 523.594 452.177C524.281 453.839 525.125 455.417 526.12 456.912C527.12 458.407 528.25 459.792 529.521 461.068C530.573 462.12 531.094 463.386 531.088 464.87C531.099 465.229 531.073 465.578 531.015 465.933C530.953 466.282 530.859 466.625 530.724 466.953C530.594 467.287 530.432 467.599 530.234 467.896C530.042 468.198 529.818 468.469 529.568 468.724C529.312 468.974 529.042 469.198 528.739 469.391C528.443 469.589 528.13 469.75 527.797 469.881C527.469 470.016 527.125 470.11 526.776 470.172C526.422 470.229 526.073 470.256 525.713 470.245ZM550.276 365.625C550.271 368.297 550.12 370.964 549.833 373.625C549.542 376.287 549.114 378.922 548.547 381.537C547.979 384.146 547.271 386.724 546.427 389.266C545.583 391.802 544.609 394.287 543.505 396.724C542.396 399.162 541.167 401.532 539.807 403.834C538.448 406.136 536.969 408.365 535.375 410.511C533.781 412.657 532.078 414.714 530.26 416.683C528.448 418.646 526.536 420.511 524.526 422.276H499.281C497.26 420.516 495.344 418.657 493.521 416.693C491.703 414.729 489.995 412.677 488.396 410.532C486.797 408.386 485.318 406.162 483.953 403.854C482.594 401.552 481.359 399.183 480.25 396.745C479.146 394.308 478.172 391.823 477.328 389.282C476.484 386.74 475.781 384.162 475.219 381.547C474.651 378.933 474.229 376.292 473.948 373.631C473.661 370.969 473.521 368.302 473.526 365.625V345.526C473.526 344.271 473.588 343.016 473.719 341.766C473.844 340.516 474.026 339.276 474.276 338.042C474.521 336.813 474.828 335.594 475.193 334.396C475.557 333.193 475.984 332.011 476.463 330.849C476.948 329.693 477.484 328.558 478.078 327.448C478.672 326.344 479.318 325.266 480.015 324.224C480.713 323.177 481.458 322.172 482.255 321.198C483.057 320.229 483.896 319.297 484.786 318.412C485.672 317.521 486.604 316.683 487.573 315.881C488.547 315.084 489.552 314.339 490.599 313.641C491.64 312.943 492.719 312.297 493.823 311.703C494.932 311.11 496.068 310.573 497.224 310.089C498.385 309.61 499.568 309.183 500.771 308.818C501.969 308.453 503.187 308.146 504.417 307.901C505.651 307.651 506.89 307.469 508.14 307.344C509.39 307.214 510.646 307.151 511.901 307.151C513.156 307.151 514.411 307.214 515.661 307.339C516.911 307.464 518.151 307.646 519.385 307.896C520.614 308.141 521.833 308.448 523.036 308.813C524.234 309.177 525.417 309.599 526.578 310.084C527.739 310.563 528.875 311.099 529.979 311.693C531.088 312.287 532.167 312.933 533.208 313.631C534.255 314.328 535.26 315.078 536.234 315.875C537.203 316.672 538.135 317.516 539.021 318.401C539.911 319.292 540.755 320.219 541.552 321.193C542.349 322.162 543.094 323.172 543.797 324.214C544.495 325.261 545.14 326.334 545.729 327.443C546.323 328.552 546.859 329.688 547.344 330.844C547.823 332.006 548.245 333.188 548.614 334.391C548.979 335.594 549.286 336.808 549.531 338.042C549.776 339.276 549.963 340.516 550.088 341.766C550.208 343.016 550.276 344.271 550.276 345.526V365.625Z" fill="#002C1F"/>
<path d="M516.698 326.339C516.698 325.703 516.573 325.089 516.333 324.5C516.088 323.917 515.739 323.396 515.292 322.948C514.844 322.495 514.323 322.151 513.734 321.907C513.146 321.662 512.536 321.542 511.901 321.542C511.114 321.542 510.333 321.584 509.552 321.657C508.771 321.735 507.995 321.854 507.224 322.006C506.453 322.162 505.693 322.349 504.943 322.578C504.187 322.808 503.453 323.073 502.724 323.375C502 323.677 501.292 324.011 500.599 324.381C499.906 324.75 499.234 325.157 498.583 325.594C497.927 326.026 497.297 326.495 496.693 326.995C496.083 327.49 495.505 328.021 494.948 328.573C494.396 329.131 493.864 329.709 493.37 330.318C492.87 330.922 492.401 331.552 491.969 332.209C491.531 332.86 491.125 333.532 490.755 334.224C490.385 334.917 490.052 335.625 489.75 336.349C489.448 337.078 489.182 337.813 488.953 338.568C488.724 339.318 488.536 340.078 488.38 340.849C488.229 341.62 488.109 342.396 488.031 343.177C487.958 343.959 487.917 344.74 487.917 345.526C487.917 346.162 488.036 346.771 488.281 347.36C488.526 347.948 488.87 348.469 489.323 348.917C489.771 349.365 490.292 349.714 490.875 349.959C491.463 350.198 492.078 350.323 492.713 350.323C493.349 350.323 493.958 350.198 494.547 349.959C495.135 349.714 495.656 349.365 496.104 348.917C496.552 348.469 496.901 347.948 497.146 347.36C497.385 346.771 497.51 346.162 497.51 345.526C497.51 344.578 497.599 343.646 497.786 342.719C497.969 341.792 498.245 340.891 498.604 340.016C498.969 339.146 499.411 338.318 499.932 337.532C500.458 336.745 501.057 336.016 501.724 335.349C502.39 334.683 503.12 334.084 503.906 333.558C504.693 333.037 505.521 332.594 506.39 332.229C507.265 331.87 508.167 331.594 509.094 331.412C510.021 331.224 510.953 331.136 511.901 331.136C512.536 331.136 513.146 331.011 513.734 330.771C514.323 330.526 514.844 330.177 515.292 329.729C515.739 329.282 516.088 328.761 516.333 328.172C516.573 327.584 516.698 326.974 516.698 326.339Z" fill="#002C1F"/>
<path d="M424.151 342.708C423.698 342.27 423.182 341.937 422.594 341.703C422.01 341.468 421.406 341.359 420.776 341.364C420.146 341.369 419.542 341.494 418.963 341.734C418.385 341.979 417.87 342.322 417.427 342.765C416.979 343.213 416.635 343.723 416.396 344.302C416.151 344.885 416.026 345.489 416.021 346.119C416.015 346.744 416.13 347.354 416.364 347.937C416.594 348.52 416.932 349.041 417.37 349.489C418.265 350.338 419.239 351.088 420.286 351.744C421.328 352.401 422.427 352.953 423.578 353.395C424.729 353.843 425.911 354.171 427.13 354.39C428.344 354.604 429.568 354.703 430.802 354.687C432.036 354.666 433.255 354.526 434.463 354.27C435.672 354.015 436.844 353.651 437.979 353.166C439.12 352.687 440.198 352.098 441.219 351.411C442.245 350.723 443.193 349.942 444.068 349.067C444.937 348.192 445.719 347.244 446.411 346.223C447.099 345.197 447.682 344.119 448.167 342.984C448.646 341.848 449.015 340.677 449.271 339.468C449.526 338.26 449.661 337.041 449.682 335.807C449.703 334.572 449.604 333.348 449.385 332.13C449.172 330.916 448.838 329.734 448.396 328.583C447.948 327.432 447.401 326.333 446.739 325.286C446.083 324.244 445.333 323.27 444.489 322.369C444.036 321.932 443.521 321.598 442.932 321.364C442.349 321.13 441.745 321.02 441.114 321.026C440.484 321.031 439.88 321.156 439.302 321.395C438.724 321.64 438.208 321.984 437.765 322.427C437.323 322.875 436.979 323.385 436.734 323.963C436.489 324.546 436.364 325.151 436.359 325.781C436.354 326.406 436.469 327.015 436.703 327.598C436.932 328.182 437.271 328.703 437.708 329.151C438.12 329.604 438.489 330.088 438.812 330.614C439.135 331.135 439.406 331.682 439.62 332.255C439.838 332.828 440 333.416 440.104 334.02C440.208 334.625 440.25 335.234 440.239 335.848C440.229 336.463 440.156 337.067 440.026 337.666C439.896 338.265 439.713 338.848 439.474 339.411C439.234 339.979 438.943 340.515 438.599 341.02C438.255 341.531 437.864 342 437.432 342.432C437 342.869 436.526 343.255 436.021 343.598C435.51 343.942 434.974 344.234 434.411 344.473C433.849 344.713 433.265 344.901 432.667 345.031C432.068 345.156 431.458 345.229 430.849 345.239C430.234 345.255 429.625 345.208 429.021 345.104C428.417 345 427.828 344.838 427.255 344.625C426.682 344.406 426.13 344.135 425.609 343.817C425.088 343.494 424.604 343.125 424.151 342.708Z" fill="#002C1F"/>
<path d="M582.448 405.067C581.995 404.63 581.479 404.296 580.89 404.062C580.307 403.828 579.703 403.718 579.073 403.723C578.443 403.729 577.838 403.854 577.26 404.093C576.682 404.338 576.167 404.682 575.724 405.125C575.276 405.572 574.932 406.083 574.693 406.661C574.448 407.244 574.323 407.848 574.318 408.479C574.312 409.104 574.427 409.713 574.661 410.296C574.89 410.88 575.229 411.401 575.667 411.848C576.547 412.786 577.51 413.63 578.557 414.375C579.604 415.114 580.719 415.75 581.896 416.27C583.068 416.786 584.286 417.187 585.542 417.463C586.797 417.739 588.068 417.885 589.354 417.906C590.635 417.927 591.911 417.817 593.177 417.583C594.437 417.348 595.667 416.989 596.859 416.505C598.052 416.026 599.182 415.427 600.255 414.718C601.323 414.005 602.318 413.197 603.224 412.291C604.135 411.38 604.943 410.39 605.651 409.317C606.364 408.244 606.958 407.114 607.443 405.921C607.922 404.734 608.281 403.505 608.521 402.239C608.755 400.979 608.864 399.703 608.844 398.416C608.823 397.13 608.672 395.859 608.396 394.604C608.12 393.348 607.724 392.135 607.203 390.958C606.682 389.781 606.052 388.671 605.307 387.619C604.562 386.572 603.724 385.609 602.786 384.729C602.333 384.291 601.818 383.958 601.229 383.723C600.646 383.489 600.042 383.38 599.411 383.385C598.781 383.39 598.177 383.515 597.599 383.755C597.021 384 596.505 384.343 596.062 384.786C595.614 385.234 595.271 385.744 595.031 386.322C594.786 386.906 594.661 387.51 594.656 388.14C594.651 388.765 594.765 389.375 595 389.958C595.229 390.541 595.568 391.062 596.005 391.51C596.479 391.953 596.906 392.432 597.286 392.958C597.661 393.479 597.984 394.036 598.25 394.625C598.515 395.213 598.724 395.828 598.864 396.458C599.005 397.088 599.083 397.723 599.099 398.375C599.109 399.02 599.062 399.661 598.943 400.296C598.828 400.932 598.651 401.552 598.406 402.151C598.167 402.75 597.87 403.322 597.51 403.859C597.156 404.401 596.75 404.895 596.292 405.354C595.833 405.812 595.333 406.218 594.797 406.578C594.255 406.932 593.687 407.229 593.083 407.473C592.484 407.713 591.87 407.89 591.234 408.01C590.594 408.125 589.953 408.177 589.307 408.161C588.661 408.151 588.021 408.072 587.39 407.927C586.76 407.786 586.151 407.583 585.562 407.317C584.974 407.052 584.417 406.729 583.89 406.348C583.364 405.973 582.885 405.546 582.448 405.067Z" fill="#002C1F"/>
<path d="M461.115 458.984C460.885 459.203 460.682 459.442 460.5 459.703C460.318 459.963 460.161 460.239 460.036 460.531C459.911 460.823 459.818 461.125 459.755 461.432C459.693 461.744 459.661 462.057 459.661 462.375C459.661 462.692 459.693 463.01 459.755 463.317C459.818 463.63 459.911 463.932 460.036 464.224C460.161 464.515 460.318 464.791 460.5 465.052C460.682 465.312 460.885 465.552 461.115 465.771C461.568 466.218 462.083 466.562 462.672 466.807C463.26 467.052 463.87 467.172 464.505 467.172C465.141 467.172 465.755 467.052 466.344 466.807C466.932 466.562 467.448 466.218 467.896 465.771C468.833 464.89 469.677 463.922 470.422 462.875C471.161 461.828 471.797 460.713 472.318 459.541C472.833 458.364 473.234 457.146 473.51 455.89C473.786 454.635 473.932 453.364 473.953 452.083C473.974 450.797 473.865 449.521 473.63 448.255C473.396 446.994 473.036 445.765 472.552 444.573C472.073 443.385 471.474 442.25 470.766 441.182C470.052 440.109 469.245 439.119 468.339 438.208C467.427 437.302 466.438 436.489 465.365 435.781C464.292 435.073 463.161 434.474 461.969 433.989C460.776 433.51 459.552 433.151 458.286 432.916C457.026 432.677 455.75 432.573 454.464 432.593C453.177 432.609 451.906 432.76 450.651 433.036C449.396 433.312 448.182 433.708 447.005 434.229C445.828 434.75 444.719 435.38 443.667 436.125C442.62 436.869 441.656 437.708 440.776 438.646C440.339 439.099 440.005 439.619 439.771 440.203C439.536 440.786 439.427 441.39 439.432 442.021C439.438 442.651 439.563 443.255 439.802 443.833C440.047 444.416 440.391 444.927 440.833 445.369C441.281 445.817 441.792 446.161 442.37 446.401C442.953 446.646 443.557 446.771 444.188 446.776C444.813 446.781 445.422 446.666 446.005 446.432C446.589 446.203 447.109 445.864 447.557 445.427C448 444.953 448.479 444.526 449.005 444.146C449.526 443.771 450.083 443.448 450.672 443.182C451.26 442.916 451.875 442.713 452.505 442.567C453.135 442.427 453.771 442.349 454.422 442.333C455.068 442.323 455.708 442.375 456.344 442.489C456.979 442.604 457.599 442.786 458.198 443.026C458.797 443.265 459.37 443.567 459.906 443.922C460.448 444.281 460.943 444.687 461.401 445.14C461.859 445.599 462.266 446.099 462.625 446.635C462.979 447.177 463.276 447.744 463.521 448.349C463.76 448.948 463.938 449.567 464.057 450.203C464.172 450.838 464.224 451.479 464.208 452.125C464.198 452.771 464.12 453.411 463.974 454.041C463.833 454.672 463.63 455.281 463.365 455.869C463.099 456.463 462.776 457.015 462.396 457.541C462.021 458.067 461.594 458.547 461.115 458.984Z" fill="#002C1F"/>
<path d="M428.365 407.886C430.281 407.891 432.125 407.521 433.896 406.782C435.667 406.042 437.224 404.985 438.568 403.615C439.01 403.162 439.354 402.641 439.594 402.052C439.833 401.464 439.953 400.849 439.948 400.214C439.943 399.578 439.818 398.964 439.568 398.381C439.323 397.792 438.974 397.276 438.521 396.828C438.068 396.386 437.547 396.042 436.958 395.802C436.365 395.563 435.755 395.443 435.12 395.448C434.479 395.453 433.87 395.578 433.287 395.823C432.698 396.073 432.182 396.422 431.734 396.875C431.276 397.256 430.76 397.542 430.198 397.735C429.63 397.927 429.047 398.006 428.453 397.979C427.854 397.953 427.287 397.818 426.74 397.578C426.193 397.339 425.708 397.011 425.281 396.589C424.859 396.167 424.526 395.683 424.287 395.136C424.042 394.589 423.906 394.021 423.875 393.422C423.849 392.828 423.927 392.245 424.115 391.677C424.302 391.11 424.589 390.599 424.969 390.136C425.417 389.688 425.76 389.167 426.005 388.578C426.25 387.99 426.37 387.381 426.37 386.745C426.37 386.104 426.25 385.495 426.005 384.907C425.76 384.318 425.412 383.802 424.964 383.349C424.516 382.901 423.995 382.552 423.406 382.313C422.818 382.068 422.208 381.948 421.573 381.948C420.932 381.948 420.323 382.068 419.734 382.313C419.146 382.558 418.63 382.901 418.177 383.354C417.177 384.36 416.344 385.49 415.677 386.745C415.016 388 414.542 389.323 414.271 390.719C413.995 392.11 413.927 393.511 414.068 394.927C414.214 396.339 414.552 397.698 415.099 399.011C415.641 400.323 416.365 401.526 417.266 402.625C418.167 403.724 419.208 404.667 420.385 405.453C421.568 406.245 422.839 406.844 424.198 407.261C425.552 407.672 426.943 407.881 428.365 407.886Z" fill="#002C1F"/>
<path d="M587.208 442.864C587.656 443.328 588.172 443.687 588.76 443.948C589.349 444.203 589.969 444.333 590.609 444.343C591.25 444.354 591.87 444.239 592.469 444C593.063 443.76 593.594 443.411 594.047 442.963C594.505 442.51 594.859 441.989 595.104 441.396C595.354 440.802 595.474 440.182 595.474 439.541C595.474 438.896 595.349 438.281 595.099 437.687C594.849 437.093 594.495 436.573 594.036 436.125C593.365 435.474 592.63 434.89 591.844 434.38C591.057 433.864 590.229 433.432 589.359 433.083C588.495 432.729 587.599 432.463 586.677 432.281C585.755 432.099 584.828 432.01 583.891 432.005C582.948 432.005 582.021 432.093 581.099 432.271C580.177 432.448 579.281 432.708 578.411 433.057C577.542 433.406 576.708 433.833 575.922 434.343C575.13 434.854 574.401 435.432 573.724 436.078C573.047 436.744 572.443 437.468 571.911 438.255C571.38 439.036 570.932 439.864 570.562 440.739C570.198 441.614 569.922 442.515 569.734 443.442C569.547 444.375 569.453 445.312 569.453 446.26C569.453 447.208 569.547 448.146 569.734 449.073C569.922 450.005 570.198 450.906 570.562 451.776C570.932 452.651 571.38 453.479 571.911 454.265C572.443 455.052 573.047 455.776 573.724 456.437C574.188 456.864 574.714 457.187 575.297 457.411C575.885 457.64 576.495 457.75 577.12 457.744C577.75 457.744 578.359 457.625 578.943 457.39C579.526 457.156 580.047 456.828 580.505 456.396C580.734 456.177 580.938 455.932 581.115 455.672C581.297 455.411 581.448 455.135 581.568 454.843C581.693 454.547 581.786 454.25 581.844 453.937C581.906 453.625 581.938 453.312 581.938 452.994C581.932 452.677 581.901 452.364 581.833 452.052C581.766 451.744 581.672 451.442 581.547 451.151C581.417 450.859 581.266 450.588 581.083 450.328C580.901 450.067 580.693 449.828 580.464 449.614C580.073 449.135 579.771 448.609 579.568 448.026C579.359 447.442 579.26 446.849 579.266 446.229C579.266 445.614 579.375 445.015 579.589 444.437C579.802 443.859 580.109 443.333 580.505 442.864C580.719 442.635 580.958 442.432 581.214 442.25C581.469 442.073 581.745 441.916 582.031 441.791C582.323 441.672 582.62 441.578 582.927 441.51C583.234 441.448 583.542 441.416 583.859 441.416C584.172 441.416 584.484 441.448 584.792 441.51C585.099 441.578 585.396 441.672 585.682 441.791C585.974 441.916 586.245 442.073 586.5 442.25C586.76 442.432 586.995 442.635 587.208 442.864Z" fill="#002C1F"/>
<path d="M578.469 327.745C578.016 327.292 577.5 326.948 576.911 326.703C576.323 326.459 575.708 326.339 575.073 326.339C574.437 326.339 573.828 326.459 573.24 326.703C572.651 326.948 572.135 327.292 571.682 327.745C571.016 328.412 570.417 329.141 569.891 329.922C569.37 330.709 568.927 331.542 568.562 332.412C568.203 333.287 567.927 334.188 567.745 335.115C567.557 336.042 567.469 336.979 567.469 337.922C567.469 338.865 567.557 339.802 567.745 340.729C567.927 341.657 568.203 342.558 568.562 343.433C568.927 344.302 569.37 345.136 569.891 345.922C570.417 346.703 571.016 347.433 571.682 348.099C572.354 348.771 573.078 349.365 573.865 349.891C574.651 350.417 575.479 350.86 576.354 351.224C577.229 351.584 578.125 351.854 579.052 352.042C579.979 352.224 580.917 352.318 581.865 352.318C582.807 352.318 583.745 352.224 584.672 352.042C585.599 351.854 586.5 351.584 587.37 351.224C588.245 350.86 589.073 350.417 589.859 349.891C590.646 349.365 591.375 348.771 592.042 348.099C592.505 347.657 592.865 347.136 593.115 346.542C593.37 345.953 593.5 345.334 593.505 344.693C593.51 344.047 593.391 343.427 593.151 342.834C592.906 342.24 592.557 341.714 592.099 341.261C591.646 340.802 591.12 340.453 590.526 340.214C589.932 339.969 589.312 339.849 588.667 339.854C588.026 339.86 587.406 339.99 586.818 340.245C586.224 340.495 585.703 340.854 585.26 341.318C584.807 341.771 584.286 342.115 583.698 342.36C583.109 342.604 582.5 342.724 581.865 342.724C581.224 342.724 580.615 342.604 580.026 342.36C579.438 342.115 578.917 341.771 578.469 341.318C578.016 340.87 577.667 340.349 577.427 339.761C577.182 339.172 577.057 338.558 577.057 337.922C577.057 337.287 577.182 336.672 577.427 336.084C577.667 335.495 578.016 334.974 578.469 334.526C578.917 334.078 579.26 333.558 579.505 332.969C579.75 332.381 579.87 331.771 579.87 331.136C579.87 330.5 579.75 329.886 579.505 329.297C579.26 328.714 578.917 328.193 578.469 327.745Z" fill="#002C1F"/>
<path d="M526.292 400.688C526.292 401.162 526.245 401.631 526.151 402.094C526.062 402.558 525.922 403.006 525.745 403.443C525.562 403.881 525.338 404.292 525.078 404.688C524.818 405.078 524.515 405.443 524.182 405.776C523.849 406.11 523.484 406.412 523.094 406.672C522.698 406.933 522.286 407.157 521.849 407.339C521.411 407.516 520.963 407.657 520.5 407.745C520.036 407.839 519.568 407.886 519.094 407.886C518.625 407.886 518.156 407.839 517.693 407.745C517.229 407.657 516.776 407.516 516.344 407.339C515.906 407.157 515.489 406.933 515.099 406.672C514.703 406.412 514.344 406.11 514.005 405.776C513.672 405.443 513.375 405.078 513.114 404.688C512.849 404.292 512.63 403.881 512.448 403.443C512.265 403.006 512.13 402.558 512.036 402.094C511.948 401.631 511.901 401.162 511.901 400.688C511.901 400.219 511.948 399.75 512.036 399.287C512.13 398.823 512.265 398.37 512.448 397.938C512.63 397.5 512.849 397.084 513.114 396.693C513.375 396.297 513.672 395.938 514.005 395.599C514.344 395.266 514.703 394.969 515.099 394.709C515.489 394.443 515.906 394.224 516.344 394.042C516.776 393.86 517.229 393.724 517.693 393.631C518.156 393.542 518.625 393.495 519.094 393.495C519.568 393.495 520.036 393.542 520.5 393.631C520.963 393.724 521.411 393.86 521.849 394.042C522.286 394.224 522.698 394.443 523.094 394.709C523.484 394.969 523.849 395.266 524.182 395.599C524.515 395.938 524.818 396.297 525.078 396.693C525.338 397.084 525.562 397.5 525.745 397.938C525.922 398.37 526.062 398.823 526.151 399.287C526.245 399.75 526.292 400.219 526.292 400.688Z" fill="#002C1F"/>
<path d="M463.932 415.078C463.932 415.552 463.885 416.021 463.792 416.485C463.703 416.948 463.562 417.396 463.385 417.834C463.203 418.271 462.979 418.683 462.719 419.078C462.458 419.469 462.156 419.834 461.823 420.167C461.489 420.5 461.125 420.802 460.734 421.063C460.338 421.323 459.927 421.547 459.489 421.729C459.052 421.907 458.604 422.047 458.14 422.136C457.677 422.229 457.208 422.276 456.734 422.276C456.265 422.276 455.797 422.229 455.333 422.136C454.87 422.047 454.417 421.907 453.984 421.729C453.547 421.547 453.13 421.323 452.739 421.063C452.344 420.802 451.984 420.5 451.646 420.167C451.312 419.834 451.015 419.469 450.755 419.078C450.489 418.683 450.271 418.271 450.088 417.834C449.906 417.396 449.771 416.948 449.677 416.485C449.588 416.021 449.542 415.552 449.542 415.078C449.542 414.61 449.588 414.141 449.677 413.677C449.771 413.214 449.906 412.761 450.088 412.328C450.271 411.891 450.489 411.474 450.755 411.084C451.015 410.688 451.312 410.328 451.646 409.99C451.984 409.657 452.344 409.36 452.739 409.099C453.13 408.834 453.547 408.615 453.984 408.433C454.417 408.25 454.87 408.115 455.333 408.021C455.797 407.933 456.265 407.886 456.734 407.886C457.208 407.886 457.677 407.933 458.14 408.021C458.604 408.115 459.052 408.25 459.489 408.433C459.927 408.615 460.338 408.834 460.734 409.099C461.125 409.36 461.489 409.657 461.823 409.99C462.156 410.328 462.458 410.688 462.719 411.084C462.979 411.474 463.203 411.891 463.385 412.328C463.562 412.761 463.703 413.214 463.792 413.677C463.885 414.141 463.932 414.61 463.932 415.078Z" fill="#002C1F"/>
<path d="M583.854 371.907C583.854 372.381 583.807 372.849 583.713 373.313C583.625 373.776 583.484 374.224 583.307 374.662C583.125 375.099 582.901 375.511 582.64 375.907C582.38 376.297 582.078 376.662 581.745 376.995C581.411 377.328 581.047 377.631 580.656 377.891C580.26 378.151 579.849 378.375 579.411 378.558C578.974 378.735 578.526 378.875 578.062 378.964C577.599 379.058 577.13 379.104 576.656 379.104C576.187 379.104 575.719 379.058 575.255 378.964C574.792 378.875 574.338 378.735 573.906 378.558C573.469 378.375 573.052 378.151 572.661 377.891C572.265 377.631 571.906 377.328 571.568 376.995C571.234 376.662 570.937 376.297 570.677 375.907C570.411 375.511 570.193 375.099 570.01 374.662C569.828 374.224 569.693 373.776 569.599 373.313C569.51 372.849 569.463 372.381 569.463 371.907C569.463 371.438 569.51 370.969 569.599 370.506C569.693 370.042 569.828 369.589 570.01 369.157C570.193 368.719 570.411 368.302 570.677 367.912C570.937 367.516 571.234 367.157 571.568 366.818C571.906 366.485 572.265 366.188 572.661 365.927C573.052 365.662 573.469 365.443 573.906 365.261C574.338 365.078 574.792 364.943 575.255 364.849C575.719 364.761 576.187 364.714 576.656 364.714C577.13 364.714 577.599 364.761 578.062 364.849C578.526 364.943 578.974 365.078 579.411 365.261C579.849 365.443 580.26 365.662 580.656 365.927C581.047 366.188 581.411 366.485 581.745 366.818C582.078 367.157 582.38 367.516 582.64 367.912C582.901 368.302 583.125 368.719 583.307 369.157C583.484 369.589 583.625 370.042 583.713 370.506C583.807 370.969 583.854 371.438 583.854 371.907Z" fill="#002C1F"/>
<path d="M559.87 455.854C559.87 456.49 559.745 457.099 559.505 457.688C559.26 458.276 558.911 458.797 558.463 459.245C558.015 459.693 557.495 460.042 556.906 460.287C556.318 460.526 555.708 460.651 555.073 460.651C554.437 460.651 553.823 460.526 553.234 460.287C552.651 460.042 552.13 459.693 551.682 459.245C551.229 458.797 550.885 458.276 550.64 457.688C550.396 457.099 550.276 456.49 550.276 455.854C550.276 455.219 550.396 454.604 550.64 454.016C550.885 453.433 551.229 452.912 551.682 452.464C552.13 452.011 552.651 451.667 553.234 451.422C553.823 451.177 554.437 451.058 555.073 451.058C555.708 451.058 556.318 451.177 556.906 451.422C557.495 451.667 558.015 452.011 558.463 452.464C558.911 452.912 559.26 453.433 559.505 454.016C559.745 454.604 559.87 455.219 559.87 455.854Z" fill="#002C1F"/>
<path d="M415.963 369.511C415.963 370.146 415.838 370.756 415.599 371.344C415.354 371.933 415.005 372.453 414.557 372.901C414.109 373.349 413.588 373.698 413 373.943C412.411 374.183 411.802 374.308 411.167 374.308C410.531 374.308 409.917 374.183 409.328 373.943C408.745 373.698 408.224 373.349 407.776 372.901C407.323 372.453 406.979 371.933 406.734 371.344C406.489 370.756 406.37 370.146 406.37 369.511C406.37 368.875 406.489 368.261 406.734 367.672C406.979 367.089 407.323 366.568 407.776 366.12C408.224 365.667 408.745 365.323 409.328 365.078C409.917 364.834 410.531 364.714 411.167 364.714C411.802 364.714 412.411 364.834 413 365.078C413.588 365.323 414.109 365.667 414.557 366.12C415.005 366.568 415.354 367.089 415.599 367.672C415.838 368.261 415.963 368.875 415.963 369.511Z" fill="#002C1F"/>
<path d="M468.729 297.558C468.729 298.193 468.604 298.802 468.364 299.391C468.12 299.979 467.771 300.5 467.323 300.948C466.875 301.396 466.354 301.745 465.765 301.99C465.177 302.229 464.568 302.354 463.932 302.354C463.297 302.354 462.682 302.229 462.094 301.99C461.51 301.745 460.989 301.396 460.542 300.948C460.088 300.5 459.745 299.979 459.5 299.391C459.255 298.802 459.135 298.193 459.135 297.558C459.135 296.922 459.255 296.308 459.5 295.719C459.745 295.136 460.088 294.615 460.542 294.167C460.989 293.714 461.51 293.37 462.094 293.125C462.682 292.881 463.297 292.761 463.932 292.761C464.568 292.761 465.177 292.881 465.765 293.125C466.354 293.37 466.875 293.714 467.323 294.167C467.771 294.615 468.12 295.136 468.364 295.719C468.604 296.308 468.729 296.922 468.729 297.558Z" fill="#002C1F"/>
<path d="M540.682 376.703C540.682 377.177 540.635 377.646 540.542 378.11C540.453 378.573 540.312 379.021 540.135 379.459C539.953 379.896 539.729 380.308 539.469 380.703C539.208 381.094 538.906 381.459 538.573 381.792C538.239 382.125 537.875 382.427 537.484 382.688C537.088 382.948 536.677 383.172 536.239 383.354C535.802 383.532 535.354 383.672 534.89 383.761C534.427 383.854 533.958 383.901 533.484 383.901C533.015 383.901 532.547 383.854 532.083 383.761C531.62 383.672 531.167 383.532 530.734 383.354C530.297 383.172 529.88 382.948 529.489 382.688C529.094 382.427 528.734 382.125 528.396 381.792C528.062 381.459 527.765 381.094 527.505 380.703C527.239 380.308 527.021 379.896 526.838 379.459C526.656 379.021 526.521 378.573 526.427 378.11C526.338 377.646 526.292 377.177 526.292 376.703C526.292 376.235 526.338 375.766 526.427 375.302C526.521 374.839 526.656 374.386 526.838 373.953C527.021 373.516 527.239 373.099 527.505 372.709C527.765 372.313 528.062 371.953 528.396 371.615C528.734 371.282 529.094 370.985 529.489 370.724C529.88 370.459 530.297 370.24 530.734 370.058C531.167 369.875 531.62 369.74 532.083 369.646C532.547 369.558 533.015 369.511 533.484 369.511C533.958 369.511 534.427 369.558 534.89 369.646C535.354 369.74 535.802 369.875 536.239 370.058C536.677 370.24 537.088 370.459 537.484 370.724C537.875 370.985 538.239 371.282 538.573 371.615C538.906 371.953 539.208 372.313 539.469 372.709C539.729 373.099 539.953 373.516 540.135 373.953C540.312 374.386 540.453 374.839 540.542 375.302C540.635 375.766 540.682 376.235 540.682 376.703Z" fill="#002C1F"/>
</svg>
