<svg width="1024" height="768" viewBox="0 0 1024 768" fill="none" xmlns="http://www.w3.org/2000/svg">
<path d="M477.437 315.875C469.047 317.068 460.312 321.724 452.771 328.989C445.172 336.307 439.953 345.052 438.141 353.62C436.042 363.437 438.479 372.349 445.172 379.333C450.448 385.005 457.818 388.187 465.531 388.13C467.177 388.13 468.818 388.015 470.464 387.729C479.141 386.427 488.042 381.656 495.583 374.448C503.13 367.187 508.12 358.5 509.708 349.989C511.521 340.338 508.911 331.542 502.161 324.562C495.417 317.578 486.911 314.515 477.437 315.875ZM506.359 349.307C504.885 357.14 500.234 365.198 493.203 371.953C480.615 384.099 460.937 390.854 447.609 376.948C441.713 370.818 439.615 362.984 441.427 354.302C443.13 346.411 447.953 338.239 455.094 331.427C462.13 324.672 470.182 320.359 477.891 319.224C479.198 319.057 480.5 318.943 481.807 318.943C488.609 318.943 494.734 321.609 499.724 326.828C505.682 333.015 507.948 340.792 506.359 349.307Z" fill="#002C1F"/>
<path d="M433.037 352.938C433.943 353.167 434.906 352.656 435.136 351.745C435.25 351.406 435.359 351.011 435.474 350.667C435.761 349.761 435.307 348.797 434.396 348.511C433.49 348.229 432.526 348.682 432.245 349.589C432.245 349.589 432.245 349.589 432.245 349.646C432.13 350.047 432.016 350.443 431.901 350.839C431.563 351.745 432.13 352.714 433.037 352.938Z" fill="#002C1F"/>
<path d="M438.083 373.088C434.849 368.432 433.432 362.76 434.114 357.083C434.229 356.171 433.547 355.322 432.64 355.208C431.734 355.093 430.88 355.776 430.771 356.687V356.739C430.031 363.156 431.677 369.682 435.307 374.958C435.818 375.755 436.89 375.927 437.687 375.416C438.479 374.906 438.651 373.88 438.083 373.088Z" fill="#002C1F"/>
<path d="M573.614 450.052C598.172 449.995 618.021 430.073 617.963 405.495C617.906 380.922 598 361.057 573.448 361.109C548.89 361.167 529.041 381.089 529.099 405.667C529.099 414.406 531.708 422.979 536.531 430.245C544.807 442.672 558.76 450.109 573.614 450.052ZM550.364 371.724C550.536 371.615 550.651 371.557 550.818 371.443C569.703 358.844 595.166 364.005 607.698 382.849C620.229 401.693 615.125 427.234 596.297 439.776C577.416 452.38 551.953 447.214 539.422 428.37C526.833 409.698 531.708 384.328 550.364 371.724Z" fill="#002C1F"/>
<path d="M565.167 388.864L568.057 384.213L567.604 384.099C567.036 383.984 566.583 383.531 566.359 383.021C565.958 383.416 565.339 383.588 564.771 383.474L564.203 383.359L565.109 388.583C565.167 388.698 565.167 388.755 565.167 388.864Z" fill="#002C1F"/>
<path d="M563.354 396.245C566.698 394.203 570.552 393.292 574.469 393.693L574.297 393.183C574.125 392.615 574.24 391.99 574.635 391.589C574.068 391.422 573.615 391.021 573.448 390.453L573.276 390L569.474 392.896C569.021 393.235 568.51 393.407 567.948 393.464C566.302 393.636 564.885 392.386 564.714 390.74C564.427 391.25 563.974 391.589 563.521 391.875C561.99 392.667 560.062 392.099 559.271 390.568L557 386.37L556.661 386.709C556.266 387.162 555.698 387.334 555.073 387.219C555.245 387.787 555.073 388.412 554.677 388.808L554.281 389.209C558.021 390.568 561.198 393.011 563.354 396.245Z" fill="#002C1F"/>
<path d="M573.614 441.312C593.349 441.255 609.286 425.25 609.229 405.494C609.172 385.744 593.182 369.796 573.448 369.854C553.713 369.911 537.776 385.916 537.833 405.666C537.833 412.703 539.932 419.572 543.844 425.416C550.479 435.406 561.651 441.364 573.614 441.312ZM589.552 389.942C589.719 389.036 590.229 388.296 591.026 387.786C592.614 386.765 594.713 387.161 595.734 388.755C596.755 390.343 596.354 392.442 594.771 393.463C593.182 394.484 591.083 394.088 590.062 392.5C589.552 391.76 589.38 390.796 589.552 389.942ZM583.937 407.312C589.041 405.895 592.443 405.781 594.484 406.973L597.776 404.645C598.568 404.078 599.588 404.302 600.156 405.041C600.724 405.838 600.495 406.859 599.76 407.427L596.469 409.755C597.036 412.645 594.88 416.447 592.729 419.343L592.672 419.401C592.614 419.515 592.557 419.572 592.443 419.63C591.76 420.255 590.687 420.255 590.062 419.515C581.047 426.552 570.271 430.244 563.406 430.807C562.557 431.093 561.594 430.807 560.969 430.13C560.12 429.161 560.177 427.687 561.14 426.838C561.255 426.781 561.312 426.666 561.422 426.609C570.495 421.333 577.87 415.88 583.37 410.265C583.088 410.036 582.859 409.697 582.745 409.354C582.521 408.505 583.031 407.541 583.937 407.312ZM571.573 410.093C571.573 408.218 573.104 406.687 574.979 406.687C576.849 406.687 578.38 408.218 578.38 410.093C578.38 411.968 576.849 413.5 574.979 413.5C574.75 413.5 574.526 413.5 574.297 413.442C573.39 413.27 572.651 412.76 572.14 411.968C571.802 411.401 571.573 410.776 571.573 410.093ZM551.219 387.161C550.76 386.369 550.708 385.406 551.104 384.552C551.781 383.192 553.37 382.625 554.734 383.302L555.015 383.473L555.13 383.359C555.354 383.135 555.583 382.963 555.864 382.791C557.172 382.114 558.818 382.567 559.552 383.927L561.479 387.562L560.687 382.963C560.63 382.625 560.63 382.223 560.687 381.885C561.026 380.411 562.443 379.5 563.916 379.843L564.26 379.901L564.427 379.614C564.885 378.817 565.677 378.307 566.583 378.255C568.057 378.14 569.364 379.276 569.474 380.75V381.088L569.646 381.145C569.932 381.203 570.213 381.317 570.495 381.489C571.745 382.281 572.14 383.984 571.349 385.234L569.135 388.755L571.916 386.708C572.14 386.541 572.427 386.369 572.708 386.312C574.125 385.859 575.656 386.651 576.109 388.072L576.166 388.239H576.51C577.416 388.239 578.265 388.697 578.776 389.432C579.625 390.682 579.286 392.385 578.041 393.234L577.755 393.406L577.87 393.75C577.984 394.088 578.041 394.427 577.984 394.828C577.87 396.302 576.51 397.437 575.036 397.322C574.979 397.322 574.979 397.322 574.922 397.322C571.463 396.755 567.89 397.437 564.885 399.307C564.771 399.364 564.656 399.421 564.541 399.479C564.318 406.802 562.953 412.25 560.401 416.052C560.401 416.052 560.401 416.109 560.349 416.109C559.838 416.906 558.76 417.072 557.963 416.505C557.172 415.994 557 414.916 557.568 414.125C559.724 410.89 560.911 405.838 561.14 399.083C560.859 398.854 560.573 398.572 560.401 398.286C558.531 395.395 555.807 393.406 552.125 392.213H552.068C551.729 392.098 551.443 391.932 551.161 391.645C550.026 390.625 549.969 388.921 550.989 387.786L551.219 387.562V387.161ZM551.557 400.276C553.427 400.276 554.958 401.807 554.958 403.682C554.958 405.552 553.427 407.083 551.557 407.083C551.328 407.083 551.104 407.083 550.875 407.026C549.286 406.687 548.156 405.328 548.156 403.682C548.156 401.807 549.687 400.276 551.557 400.276Z" fill="#002C1F"/>
<path d="M589.156 412.875L591.479 413.214C591.76 413.271 592.047 413.385 592.271 413.557C593.125 411.797 593.349 410.547 593.01 410.094C592.953 409.979 592.328 409.297 589.495 409.583C589.609 409.865 589.667 410.208 589.609 410.547L589.156 412.875Z" fill="#002C1F"/>
<path d="M588.755 416.281L586.943 415.994C586.886 415.994 586.886 415.994 586.828 415.994C585.922 415.828 585.297 414.916 585.469 414.01L585.693 412.817C580.99 417.583 575.203 422.125 568.115 426.609C575.656 424.682 582.688 421.161 588.755 416.281Z" fill="#002C1F"/>
<path d="M509.594 488.817C509.818 488.817 510.047 488.817 510.271 488.817C528.703 488.817 543.672 473.833 543.672 455.385C543.672 436.937 528.703 421.958 510.271 421.958C491.844 421.958 476.87 436.937 476.87 455.385C476.87 473.604 491.448 488.474 509.594 488.817ZM489.515 433.817C495.073 428.427 502.505 425.416 510.271 425.474C510.5 425.474 510.672 425.474 510.896 425.474C527.458 425.817 540.614 439.494 540.271 456.067C539.932 472.64 526.265 485.807 509.708 485.468C493.146 485.125 479.989 471.448 480.333 454.875C480.5 446.869 483.792 439.323 489.515 433.817Z" fill="#002C1F"/>
<path d="M513.734 447.953C516 450.843 517.589 452.833 522.807 449.369C522.125 446.817 520.932 445.057 519.177 444.26C517.135 443.354 514.245 443.578 510.953 444.885C511.974 445.791 512.938 446.817 513.734 447.953Z" fill="#002C1F"/>
<path d="M510.271 482.344C525.13 482.344 537.151 470.255 537.151 455.385C537.151 440.516 525.073 428.484 510.219 428.484C495.359 428.484 483.338 440.573 483.338 455.443C483.338 462.365 486.057 469.062 490.823 474.057C495.927 479.396 502.958 482.344 510.271 482.344ZM521.672 463.333C520.312 464.635 518.156 464.578 516.849 463.219C515.547 461.854 515.604 459.698 516.963 458.396C518.328 457.089 520.479 457.146 521.786 458.505C521.786 458.505 521.786 458.505 521.844 458.562C523.088 459.927 523.031 462.026 521.672 463.333ZM505.625 443.693C511.521 440.344 516.797 439.438 520.594 441.198C523.484 442.5 525.359 445.224 526.265 449.198C527.854 450.505 529.099 452.151 529.953 454.026C530.292 454.875 529.896 455.896 529.042 456.24C528.193 456.578 527.172 456.182 526.833 455.328C526.323 454.135 525.583 453.115 524.62 452.266C522.01 453.969 519.911 454.594 518.156 454.594C514.698 454.594 512.713 452.036 511.125 449.995C509.536 447.953 508.458 446.703 506.646 446.87C505.963 446.927 505.338 446.589 505 446.021C504.489 445.224 504.771 444.203 505.625 443.693ZM499.443 464.125C498.083 465.432 495.927 465.375 494.62 464.01C493.318 462.651 493.375 460.495 494.734 459.188C496.094 457.885 498.25 457.938 499.557 459.302C500.859 460.667 500.802 462.823 499.443 464.125ZM494.62 443.411C495.984 442.104 498.135 442.161 499.443 443.526C500.068 444.146 500.406 445 500.406 445.906C500.406 447.781 498.875 449.312 497.005 449.312H496.948C496.042 449.312 495.187 448.917 494.562 448.292C493.26 446.87 493.26 444.714 494.62 443.411Z" fill="#002C1F"/>
<path d="M506.302 246.011C479.422 246.011 453.167 253.896 430.713 268.714L418.521 266.782C407.12 264.964 396.458 272.74 394.646 284.151C394.359 286.021 394.307 287.953 394.531 289.823L395.89 301.573C376.614 327.511 367.026 359.355 368.844 391.646C372.812 463.615 431.62 520.375 503.693 521.849C504.661 521.849 505.568 521.849 506.474 521.849C582.578 521.792 644.219 459.985 644.161 383.813C644.104 307.646 582.406 245.953 506.302 246.011ZM403.151 274.787C406.385 271.662 410.693 269.901 415.172 269.901C416.083 269.901 417.047 269.959 417.953 270.131L443.812 274.219C433.432 277.62 422.885 281.427 414.661 289.313C408.427 295.276 404.51 304.073 401.052 311.792C400.885 312.131 400.771 312.469 400.599 312.813L397.932 289.427C397.255 283.98 399.239 278.532 403.151 274.787ZM533.979 293.912C548.437 309.011 555.864 328.99 554.958 350.328L529.495 374.849C533.864 365.766 536.073 355.834 535.963 345.787C535.677 330.974 530.234 317.636 520.198 307.193C508.911 295.443 492.578 288.578 475.396 288.407C458.271 288.235 441.713 294.651 429.917 306C418.125 317.355 410.979 333.756 410.411 350.953C409.844 368.266 415.969 384.896 427.25 396.641C437.292 407.084 450.39 413.105 465.193 413.953C466.323 414.011 467.515 414.068 468.708 414.068C477.552 414.011 486.344 412.193 494.453 408.677L468.989 433.136C447.667 433.193 427.989 424.964 413.474 409.922C412.792 409.24 412.167 408.506 411.547 407.881L407.802 375.302C407.687 374.391 406.838 373.714 405.932 373.828C405.021 373.938 404.344 374.792 404.458 375.698L412.51 445.683C413.417 453.568 418.687 460.266 426.177 462.933C428.443 463.787 430.88 464.183 433.265 464.183C438.651 464.183 443.812 462.084 447.667 458.339L584.161 327C592.5 319 592.729 305.776 584.729 297.49C581.557 294.193 577.417 292.037 572.937 291.302L454.64 272.573C476.359 262.693 500.463 259.459 523.995 263.151C589.891 273.651 634.693 335.631 624.141 401.521C620.005 427.464 607.526 451.297 588.588 469.521C540.5 515.776 464.057 514.245 417.896 466.115C399.411 446.818 387.781 421.959 384.89 395.448C382.281 371.157 387.104 346.698 398.557 325.183L401.505 350.667C401.62 351.578 402.469 352.261 403.38 352.146C404.286 352.032 404.969 351.177 404.854 350.271L401.338 319.224C402.302 317.297 403.208 315.25 404.172 313.151C407.687 305.318 411.318 297.261 417.047 291.756C425.156 283.98 436.099 280.349 446.646 276.886C448.177 276.375 449.651 275.865 451.125 275.407L526.833 287.386C529.328 289.427 531.708 291.584 533.979 293.912ZM533.182 288.407L572.484 294.651C582.01 296.183 588.531 305.094 587 314.631C586.375 318.375 584.62 321.839 581.838 324.506L558.474 346.98C558.531 326.037 550.818 306.453 536.474 291.526C535.338 290.448 534.26 289.427 533.182 288.407ZM520.312 383.646L503.526 399.766C492.068 407.427 478.515 411.23 465.302 410.49C451.411 409.698 439.104 404.078 429.635 394.261C418.974 383.193 413.187 367.412 413.755 351.011C414.323 334.719 421.015 319.167 432.245 308.443C443.417 297.714 459.125 291.641 475.338 291.813C491.614 291.98 507.042 298.453 517.703 309.578C527.172 319.396 532.276 331.938 532.505 345.901C532.729 359.068 528.422 372.464 520.312 383.646ZM465.474 436.427L445.344 455.839C438.37 462.537 427.307 462.313 420.62 455.328C417.953 452.605 416.25 449.032 415.854 445.224L412.224 413.443C426.401 427.631 445.114 435.693 465.474 436.427ZM577.13 498.349C514.016 537.401 431.167 517.875 392.094 454.703C363.797 408.901 365.552 350.61 396.458 306.568L397.932 319.396C384.437 342.438 378.708 369.23 381.547 395.792C388.292 457.938 440.068 505.391 502.505 506.584C503.354 506.584 504.203 506.584 505.057 506.584C573.614 506.526 629.135 450.901 629.135 382.282C629.135 350.214 616.713 319.396 594.484 296.24C575.771 276.771 551.219 263.886 524.562 259.688C498.703 255.599 472.167 259.745 448.745 271.547L435.703 269.506C498.875 230.401 581.724 249.98 620.739 313.151C659.755 376.323 640.25 459.245 577.13 498.349Z" fill="#002C1F"/>
</svg>
