<svg width="57" height="60" viewBox="0 0 57 60" fill="none" xmlns="http://www.w3.org/2000/svg">
<mask id="mask0_127_1398" style="mask-type:luminance" maskUnits="userSpaceOnUse" x="0" y="0" width="57" height="60">
<path d="M0 0H56.4665V60H0V0Z" fill="white"/>
</mask>
<g mask="url(#mask0_127_1398)">
<path d="M53.309 20.6447C53.0181 20.0793 52.4376 19.7312 51.7893 19.7312H35.7675L35.8878 19.2582L38.2182 10.0967C38.5301 8.876 39.2858 7.83054 40.3488 7.1542L48.6284 1.87434L49.5173 1.30898C49.7077 1.18866 49.7614 0.936349 49.6411 0.74478C49.5208 0.554377 49.2673 0.499476 49.0769 0.619792L39.9131 6.46035C38.6749 7.24882 37.7906 8.46949 37.4285 9.89342L34.9241 19.7312H15.3349L10.7734 10.2672C11.6378 9.95533 12.6097 9.86422 13.6855 10.0056C13.689 10.0056 13.689 10.0056 13.6937 10.0056C13.6984 10.0056 13.6984 10.0056 13.7019 10.0056C13.7147 10.0056 13.7264 10.0056 13.7392 10.0056C13.7521 10.0056 13.7603 10.0009 13.7731 10.0009C13.7848 10.0009 13.8012 9.99738 13.814 9.99738C13.835 9.99271 13.8561 9.98921 13.8759 9.98103C13.8888 9.97636 13.9016 9.97285 13.9098 9.96818C13.9308 9.96 13.9472 9.94715 13.9682 9.93547C13.9764 9.92613 13.9881 9.92262 13.9974 9.91445C14.0173 9.89809 14.0348 9.88057 14.0511 9.86071C14.0546 9.85137 14.0628 9.84787 14.0675 9.84319C14.0675 9.84319 14.0675 9.84319 14.0675 9.83969C14.0675 9.83969 14.0675 9.83969 14.0675 9.83502C14.0803 9.81866 15.2263 8.24171 17.0088 7.42754C18.0017 6.97548 19.0028 6.83881 19.9863 7.02571C20.1358 7.05375 20.29 6.99651 20.3858 6.87619C20.4816 6.75588 20.4979 6.59351 20.436 6.45217C19.2516 3.86247 17.1244 1.8907 14.4495 0.89897C11.7792 -0.0939238 8.87991 0.0147104 6.28787 1.20151H6.2832C3.69583 2.38831 1.72172 4.51427 0.728831 7.18341C-0.262895 9.85137 -0.155429 12.7495 1.03254 15.3392C1.09912 15.4805 1.23579 15.5716 1.38998 15.5763C1.39349 15.5763 1.39816 15.5763 1.40634 15.5763C1.55585 15.5763 1.69369 15.4933 1.76378 15.3649C1.84321 15.2153 3.78227 11.7659 7.46649 12.8079C7.50037 12.8195 7.53775 12.8242 7.57513 12.8242C7.57863 12.8242 7.5833 12.8242 7.58798 12.8242C7.61601 12.8242 7.63704 12.816 7.66274 12.8114C7.67909 12.8079 7.69077 12.8079 7.70829 12.8032C7.741 12.795 7.7702 12.7787 7.7994 12.7611C7.80291 12.7576 7.80758 12.7576 7.81225 12.753C7.90337 12.691 7.96995 12.5999 8.03653 12.5006C8.59722 11.6619 9.26188 11.0312 10.0258 10.6036L14.4203 19.7266H6.6897C6.04257 19.7266 5.46085 20.0758 5.16999 20.64C3.19705 24.4843 2.19598 28.6346 2.19598 32.9765C2.19598 40.3402 5.10808 47.2181 10.3914 52.3531C15.4844 57.3012 22.1473 59.9995 29.2296 59.9995C29.4912 59.9995 29.7564 59.9949 30.018 59.9867C44.1171 59.5884 55.6394 48.2565 56.2585 34.1843C56.4664 29.4815 55.4443 24.7997 53.309 20.6447ZM14.1668 1.66642C16.4025 2.49695 18.2213 4.06572 19.359 6.1286C18.4619 6.09122 17.5613 6.27345 16.6677 6.68112C15.3431 7.2862 14.3583 8.24171 13.8304 8.83511C13.8012 8.7732 13.7685 8.71013 13.7392 8.64822C13.6727 8.51505 13.6108 8.38656 13.5442 8.2534C13.4612 8.08752 13.3783 7.92632 13.2907 7.76396C13.2241 7.63546 13.154 7.50697 13.0828 7.37848C12.9998 7.22079 12.9122 7.06659 12.8258 6.91357C12.7545 6.78858 12.6844 6.6636 12.6132 6.54328C12.5267 6.39376 12.4391 6.24892 12.348 6.10407C12.2768 5.98726 12.202 5.86694 12.1319 5.7513C12.0408 5.60529 11.9485 5.46862 11.8574 5.32728C11.7873 5.21981 11.7161 5.11118 11.646 5.00371C11.5502 4.86237 11.4509 4.7257 11.3551 4.58903C11.2886 4.49325 11.222 4.39746 11.1519 4.30635C11.0432 4.1615 10.9358 4.02367 10.8271 3.88349C10.7699 3.80873 10.7115 3.73397 10.6578 3.66272C10.4907 3.45947 10.3249 3.26439 10.159 3.0775C9.98844 2.8906 9.82257 2.71655 9.6602 2.55418C9.64736 2.5425 9.631 2.52615 9.61815 2.50863C9.46046 2.3556 9.31094 2.21894 9.15792 2.08927C9.13689 2.07292 9.11586 2.0519 9.09484 2.03554C8.94999 1.91172 8.80515 1.80309 8.66381 1.7038C8.63811 1.68744 8.61708 1.66992 8.59255 1.65357C8.45121 1.55895 8.31454 1.47485 8.18138 1.40126C8.16853 1.39191 8.15685 1.38374 8.144 1.38023C10.1216 0.852245 12.2067 0.939854 14.1668 1.66642ZM1.49394 14.3147C0.671593 12.1058 0.666921 9.70302 1.49745 7.46959C2.22051 5.53053 3.49959 3.90335 5.17816 2.76211C5.17349 2.77496 5.17349 2.79131 5.16999 2.80416C5.14546 2.90345 5.12443 3.01091 5.10808 3.11955C5.1034 3.15693 5.09523 3.18964 5.09056 3.22701C5.0742 3.33448 5.06135 3.44311 5.05318 3.55525C5.04967 3.57978 5.04967 3.60081 5.045 3.62534C5.03332 3.76201 5.02865 3.89985 5.02397 4.04469C5.02397 4.08207 5.02397 4.12412 5.02397 4.1615C5.02397 4.27364 5.02397 4.38929 5.02865 4.5061C5.02865 4.54698 5.02865 4.58903 5.03332 4.63459C5.03682 4.78761 5.045 4.9418 5.06135 5.0995C5.06135 5.11935 5.06603 5.14038 5.06603 5.16141C5.07887 5.30275 5.09523 5.44759 5.11158 5.59361C5.11625 5.64267 5.12443 5.6929 5.13261 5.74196C5.14896 5.87512 5.16999 6.00829 5.19101 6.14496C5.19452 6.18233 5.20269 6.21971 5.20737 6.26177C5.23657 6.43114 5.26577 6.60169 5.29848 6.77573C5.30666 6.82129 5.31483 6.86685 5.32768 6.91357C5.35688 7.05024 5.38609 7.18691 5.41529 7.32825C5.42697 7.38198 5.43982 7.43572 5.45267 7.48595C5.49355 7.66467 5.53911 7.84689 5.58583 8.02912C5.58934 8.04197 5.59401 8.05832 5.59752 8.07117C5.64307 8.24171 5.68863 8.41576 5.73886 8.58981C5.75521 8.64354 5.77273 8.70195 5.78909 8.75568C5.82997 8.9017 5.87553 9.05121 5.92225 9.20073C5.93393 9.24629 5.95029 9.29185 5.96313 9.33273C6.02154 9.51963 6.08345 9.70652 6.15003 9.89809C6.16639 9.93898 6.17923 9.98453 6.19559 10.0266C6.25049 10.1796 6.30422 10.3291 6.35796 10.4833C6.37898 10.5371 6.40001 10.5908 6.41636 10.6445C6.48645 10.8314 6.5577 11.0183 6.63246 11.2052C6.63246 11.2087 6.63597 11.2134 6.63597 11.2181C6.71073 11.4085 6.79016 11.6 6.87309 11.7904C6.88127 11.8115 6.88945 11.8313 6.89762 11.8523C4.11051 11.4587 2.28242 13.2844 1.49394 14.3147ZM10.0387 9.6855C9.20698 10.0675 8.3928 10.6737 7.67091 11.6035C5.56831 6.71382 5.35688 2.52615 6.62429 1.94443C6.72357 1.89887 6.83104 1.87785 6.95136 1.87785C7.59148 1.87785 8.52597 2.50512 9.54339 3.63352C10.7524 4.97918 11.9859 6.91357 13.0582 9.12948C12.1273 9.0921 11.0725 9.21709 10.0387 9.6855C10.0422 9.6855 10.0422 9.6855 10.0387 9.6855ZM55.4408 34.1516C54.8416 47.7951 43.6686 58.7824 29.9982 59.169C22.8447 59.3676 16.086 56.7405 10.9603 51.7632C5.83815 46.787 3.01366 40.1159 3.01366 32.9765C3.01366 28.7678 3.98552 24.7413 5.90122 21.0173C6.04607 20.7312 6.35796 20.5489 6.6897 20.5489H51.7928C52.1257 20.5489 52.4376 20.7312 52.5824 21.0173C54.6512 25.0438 55.6394 29.5889 55.4408 34.1516Z" fill="#898989"/>
</g>
</svg>
