<svg width="60" height="60" viewBox="0 0 60 60" fill="none" xmlns="http://www.w3.org/2000/svg">
<path d="M23.6999 15.1955C21.8797 15.4591 19.976 16.4707 18.3423 18.0437C16.6891 19.6348 15.5613 21.5368 15.1652 23.4029C14.7101 25.5439 15.2388 27.4771 16.6956 28.9961C17.2669 29.6099 17.9364 30.0846 18.7057 30.4169C19.4751 30.7492 20.2788 30.9129 21.1169 30.908C21.477 30.9063 21.8355 30.8785 22.1923 30.8229C24.0747 30.5348 26.0144 29.5068 27.6546 27.9288C29.2898 26.3542 30.38 24.4652 30.7254 22.6073C31.115 20.5105 30.547 18.597 29.0836 17.0714C27.6202 15.5475 25.7574 14.8976 23.6999 15.1955ZM29.997 22.4715C29.681 24.1787 28.6662 25.9269 27.1422 27.3936C24.3988 30.0339 20.1266 31.5005 17.2293 28.4821C15.9509 27.1497 15.4876 25.4473 15.8887 23.5567C16.2553 21.8347 17.3078 20.0669 18.8547 18.5773C20.3786 17.1107 22.1366 16.1711 23.8046 15.9288C24.0862 15.8879 24.3677 15.8683 24.6509 15.8666C26.1274 15.8666 27.4631 16.4526 28.55 17.5854C29.8415 18.9293 30.3407 20.6202 29.997 22.4715Z" fill="#898989"/>
<path d="M14.0489 23.2615C14.1471 23.2877 14.2404 23.2762 14.3288 23.2271C14.4188 23.1764 14.4761 23.1011 14.504 23.0029C14.5252 22.9243 14.5482 22.8457 14.5727 22.7672C14.6054 22.6689 14.5973 22.574 14.5514 22.4823C14.504 22.3907 14.4303 22.3285 14.3321 22.2974C14.2339 22.2679 14.1389 22.2761 14.0489 22.3252C13.9572 22.3727 13.8967 22.4463 13.8672 22.5462C13.841 22.6313 13.8148 22.7181 13.7903 22.8048C13.7641 22.903 13.7755 22.9963 13.8247 23.0864C13.8754 23.1747 13.9507 23.2337 14.0489 23.2615Z" fill="#898989"/>
<path d="M14.2863 24.1589C14.2977 24.0557 14.2716 23.9641 14.2061 23.8839C14.1406 23.8037 14.0571 23.7578 13.954 23.748C13.8509 23.7382 13.7592 23.766 13.6806 23.8331C13.6021 23.8986 13.5579 23.9837 13.5497 24.0868C13.4695 24.7874 13.5153 25.4782 13.6855 26.1624C13.8558 26.845 14.1406 27.4768 14.54 28.0563C14.5973 28.143 14.6775 28.1954 14.779 28.2151C14.8805 28.2347 14.9738 28.2151 15.0573 28.1561C15.1424 28.0972 15.1948 28.017 15.2128 27.9155C15.2308 27.814 15.2095 27.7207 15.1506 27.6372C14.8003 27.1282 14.5515 26.5749 14.4025 25.9758C14.2535 25.3783 14.2143 24.7711 14.2863 24.1589Z" fill="#898989"/>
<path d="M44.6178 44.382C44.9747 44.382 45.3282 44.3624 45.6818 44.3214C46.0354 44.2821 46.3857 44.2232 46.7327 44.1446C47.0797 44.0661 47.4202 43.9679 47.7574 43.8516C48.0929 43.7354 48.422 43.5996 48.7428 43.4473C49.0652 43.2951 49.3763 43.1249 49.6791 42.9366C49.9819 42.75 50.2733 42.547 50.5532 42.3277C50.8331 42.1067 51.0999 41.8727 51.3536 41.6238C51.609 41.375 51.848 41.1131 52.0738 40.8365C52.2981 40.5615 52.5076 40.2734 52.7024 39.9755C52.8956 39.676 53.0723 39.3682 53.2311 39.049C53.3915 38.7315 53.5323 38.4041 53.6567 38.0702C53.7795 37.7362 53.8842 37.3974 53.971 37.052C54.0561 36.705 54.1232 36.3564 54.1707 36.0028C54.2182 35.6509 54.246 35.2957 54.2542 34.9404C54.2624 34.5836 54.2525 34.2284 54.2214 33.8732C54.1903 33.518 54.1396 33.1661 54.0708 32.8174C54.0005 32.4671 53.9121 32.1234 53.804 31.7845C53.696 31.4441 53.57 31.1118 53.4259 30.786C53.2819 30.4603 53.1198 30.1444 52.9414 29.8366C52.7613 29.5289 52.5665 29.2326 52.3538 28.9462C52.141 28.6597 51.9151 28.3864 51.6728 28.1261C51.4305 27.8658 51.1752 27.6187 50.9051 27.3862C50.635 27.1538 50.3535 26.9361 50.0605 26.7347C49.7675 26.5334 49.4646 26.3484 49.1504 26.1815C48.8361 26.0129 48.5136 25.8639 48.1846 25.7313C47.854 25.5987 47.5168 25.4858 47.1746 25.3909C46.8309 25.2959 46.4839 25.2206 46.1336 25.1633C45.7817 25.106 45.4297 25.07 45.0745 25.052C44.7193 25.0357 44.3641 25.0373 44.0089 25.0586C43.6537 25.0815 43.3001 25.1224 42.9498 25.183C42.5996 25.2435 42.2542 25.3237 41.9121 25.4236C41.57 25.5218 41.236 25.6397 40.907 25.7755C40.578 25.913 40.2572 26.0669 39.9462 26.2371C39.6352 26.409 39.334 26.5972 39.0426 26.8035C38.7512 27.0081 38.473 27.2291 38.2062 27.4648C37.9393 27.7005 37.6873 27.9493 37.4483 28.2145C37.2093 28.478 36.985 28.753 36.7772 29.0428C36.5676 29.3308 36.3761 29.6304 36.201 29.9398C36.0258 30.2491 35.8671 30.5683 35.7263 30.8957C35.5871 31.2231 35.4644 31.557 35.3613 31.8975C35.2581 32.238 35.173 32.5833 35.1075 32.9336C35.0421 33.2839 34.9962 33.6375 34.97 33.9927C34.9438 34.3479 34.9373 34.7031 34.9504 35.0583C34.9619 35.4151 34.9946 35.7687 35.047 36.1206C35.0977 36.4742 35.1697 36.8229 35.2598 37.1666C35.3498 37.5104 35.4595 37.8492 35.5871 38.1815C35.7148 38.5154 35.8605 38.8395 36.0226 39.1554C36.1862 39.4713 36.3663 39.7774 36.5644 40.0754C37.0047 40.7399 37.5187 41.3407 38.1079 41.8792C38.6989 42.4161 39.3438 42.8728 40.0477 43.2476C40.7499 43.6241 41.4881 43.9089 42.2624 44.1005C43.0366 44.292 43.8207 44.3869 44.6178 44.382ZM39.6597 27.2782C39.902 27.1161 40.1524 26.9655 40.411 26.828C40.668 26.6905 40.9316 26.5661 41.2017 26.4548C41.4717 26.3435 41.7467 26.2453 42.0266 26.1602C42.3066 26.0767 42.5897 26.0063 42.8762 25.949C43.1626 25.8917 43.4524 25.8492 43.7421 25.8214C44.0335 25.7935 44.3248 25.7788 44.6162 25.7804C44.9092 25.7804 45.2006 25.7952 45.4903 25.8246C45.7817 25.8541 46.0698 25.8967 46.3562 25.954C46.6427 26.0112 46.9258 26.0833 47.2057 26.1684C47.484 26.2535 47.759 26.3534 48.0291 26.4647C48.2992 26.5776 48.5627 26.702 48.8197 26.8411C49.0767 26.9786 49.3272 27.1292 49.5694 27.2929C49.8133 27.455 50.0474 27.6301 50.2716 27.8151C50.4975 28.0017 50.7136 28.1981 50.9198 28.406C51.1261 28.6123 51.3225 28.83 51.5075 29.0558C51.6924 29.2817 51.866 29.5174 52.0264 29.7613C52.1884 30.0036 52.339 30.2557 52.4765 30.5127C52.614 30.7713 52.7384 31.0365 52.8497 31.3066C52.961 31.5766 53.0592 31.8516 53.1427 32.1316C53.2278 32.4115 53.2982 32.6963 53.3539 32.9827C53.4112 33.2692 53.4537 33.5589 53.4816 33.8503C53.5094 34.1416 53.5241 34.433 53.5225 34.726C53.5225 35.0174 53.5078 35.3104 53.4783 35.6001C53.4505 35.8915 53.4063 36.1812 53.349 36.4677C53.2917 36.7541 53.2213 37.0373 53.1345 37.3172C53.0494 37.5971 52.9512 37.8721 52.8399 38.1422C52.727 38.4123 52.6026 38.6775 52.4634 38.9344C52.3259 39.1931 52.1753 39.4435 52.0133 39.6858C51.8496 39.928 51.6761 40.1637 51.4895 40.3896C51.3045 40.6155 51.1081 40.8316 50.9018 41.0378C50.6939 41.2441 50.4779 41.4405 50.252 41.6255C50.0261 41.8105 49.792 41.984 49.5481 42.146C49.3059 42.3081 49.0554 42.4587 48.7968 42.5962C48.5382 42.7337 48.2746 42.8581 48.0045 42.9694C47.7345 43.0807 47.4595 43.1789 47.1812 43.264C46.9013 43.3491 46.6181 43.4195 46.3317 43.4752C46.0452 43.5325 45.7555 43.575 45.4657 43.6028C45.1744 43.6307 44.883 43.6454 44.59 43.6454C44.2986 43.6438 44.0073 43.629 43.7159 43.6012C43.4262 43.5717 43.1365 43.5275 42.85 43.4703C42.5635 43.413 42.282 43.3409 42.0021 43.2558C41.7222 43.1707 41.4472 43.0725 41.1787 42.9595C40.9087 42.8482 40.6451 42.7222 40.3881 42.5847C40.1295 42.4456 39.8807 42.295 39.6368 42.1329C39.3945 41.9692 39.1605 41.7957 38.9346 41.6091C38.7103 41.4225 38.4942 41.2261 38.288 41.0198C38.0818 40.812 37.8853 40.5959 37.7004 40.3684C37.5154 40.1425 37.3419 39.9084 37.1798 39.6645C37.0161 39.4206 36.8656 39.1702 36.7264 38.9132C36.5873 38.6545 36.4612 38.391 36.3483 38.1209C36.2353 37.8508 36.1355 37.5742 36.0504 37.2943C35.9636 37.0144 35.8932 36.7312 35.8359 36.4431C35.777 36.1567 35.7345 35.8669 35.705 35.5756C35.6772 35.2826 35.6624 34.9912 35.6624 34.6982C35.6624 34.4052 35.6755 34.1122 35.705 33.8208C35.7345 33.5295 35.777 33.2397 35.8343 32.9516C35.8916 32.6652 35.9636 32.3804 36.0487 32.1005C36.1355 31.8205 36.2337 31.5455 36.3467 31.2755C36.4596 31.0037 36.5856 30.7402 36.7248 30.4816C36.8639 30.2246 37.0145 29.9741 37.1782 29.7319C37.3419 29.488 37.517 29.2539 37.7053 29.028C37.8919 28.8021 38.0883 28.5877 38.2978 28.3815C38.5057 28.1752 38.7234 27.9804 38.9509 27.7954C39.1785 27.6121 39.4142 27.4386 39.6597 27.2782Z" fill="#898989"/>
<path d="M44.6161 42.4855C44.9009 42.4855 45.1858 42.4691 45.4706 42.438C45.7538 42.4053 46.0353 42.3578 46.3152 42.294C46.5935 42.2318 46.8685 42.1532 47.1386 42.0599C47.4087 41.965 47.6722 41.8569 47.9308 41.7342C48.1894 41.6114 48.4399 41.4755 48.6838 41.3249C48.926 41.1743 49.1601 41.0107 49.386 40.8339C49.6103 40.6571 49.8263 40.4688 50.0293 40.2691C50.2339 40.0694 50.4271 39.8583 50.6088 39.6357C50.7888 39.4147 50.9574 39.1839 51.1129 38.9433C51.2684 38.7027 51.4108 38.4555 51.5385 38.2001C51.6678 37.9431 51.7808 37.6812 51.8806 37.4128C51.9788 37.1443 52.064 36.871 52.1327 36.5927C52.2015 36.3161 52.2555 36.0345 52.2948 35.7513C52.3324 35.4665 52.3553 35.1817 52.3619 34.8969C52.3684 34.6104 52.3586 34.324 52.334 34.0392C52.3095 33.7543 52.2686 33.4712 52.2129 33.1896C52.1573 32.9097 52.0852 32.6331 52.0001 32.3597C51.9134 32.0864 51.8119 31.8196 51.6957 31.5576C51.5794 31.2957 51.4501 31.042 51.3044 30.7949C51.1604 30.5477 51.0033 30.3087 50.833 30.0779C50.6628 29.8487 50.4811 29.6294 50.2863 29.4199C50.0915 29.2087 49.8853 29.0107 49.6692 28.8241C49.4515 28.6374 49.2256 28.4623 48.9899 28.3002C48.7542 28.1398 48.5103 27.9909 48.2582 27.8567C48.0061 27.7208 47.7475 27.5997 47.4823 27.4949C47.2155 27.3885 46.9454 27.2968 46.6704 27.2199C46.3954 27.1446 46.1155 27.0824 45.834 27.0382C45.5508 26.9924 45.2676 26.9629 44.9812 26.9482C44.6963 26.9351 44.4099 26.9367 44.1251 26.9531C43.8402 26.9711 43.5571 27.0038 43.2755 27.0529C42.9923 27.1021 42.7141 27.1659 42.4407 27.2461C42.1657 27.3263 41.8956 27.4212 41.6321 27.5293C41.3686 27.6389 41.1099 27.7634 40.8595 27.9008C40.609 28.04 40.3668 28.1906 40.1343 28.3559C39.9003 28.5196 39.676 28.698 39.4616 28.8863C39.2471 29.0761 39.0442 29.2775 38.8527 29.4886C38.6595 29.7014 38.4794 29.924 38.3125 30.1548C38.1455 30.3873 37.99 30.6279 37.8492 30.8767C37.7085 31.1255 37.5808 31.3825 37.4679 31.6444C37.3565 31.9079 37.2583 32.1764 37.1749 32.4514C37.0914 32.7247 37.0243 33.0014 36.9702 33.2829C36.9179 33.5645 36.8819 33.8493 36.8606 34.1341C36.8393 34.4189 36.8327 34.7054 36.8442 34.9918C36.854 35.2783 36.8802 35.5631 36.9211 35.8463C36.9637 36.1295 37.021 36.4094 37.093 36.686C37.165 36.9626 37.2534 37.2344 37.3549 37.5028C37.458 37.7696 37.5759 38.0299 37.7068 38.2852C37.8378 38.539 37.9835 38.7845 38.1423 39.0235C38.4958 39.5587 38.9083 40.0416 39.383 40.4738C39.8561 40.9043 40.3766 41.2726 40.9413 41.5737C41.506 41.8766 42.1002 42.1041 42.7223 42.2596C43.3443 42.4135 43.9745 42.4888 44.6161 42.4855ZM40.7089 28.8584C40.9004 28.7308 41.0985 28.6129 41.3014 28.5049C41.5044 28.3952 41.7123 28.2986 41.9251 28.2102C42.1379 28.1218 42.354 28.0449 42.5749 27.9778C42.7943 27.9123 43.0169 27.8567 43.2428 27.8125C43.4687 27.7666 43.6962 27.7339 43.9254 27.711C44.1545 27.6897 44.3837 27.6782 44.6145 27.6782C44.8437 27.6782 45.0728 27.6913 45.302 27.7142C45.5311 27.7372 45.7587 27.7699 45.9846 27.8157C46.2105 27.8616 46.4331 27.9172 46.6524 27.9843C46.8734 28.0514 47.0895 28.13 47.3006 28.2184C47.5134 28.3068 47.7213 28.405 47.9243 28.5147C48.1272 28.6227 48.3237 28.7422 48.5152 28.8699C48.7051 28.9976 48.89 29.1351 49.0685 29.2824C49.2452 29.4281 49.4155 29.5836 49.5775 29.7456C49.7396 29.9093 49.8951 30.0795 50.0408 30.258C50.1864 30.4364 50.3223 30.6214 50.45 30.8129C50.5777 31.006 50.6955 31.2024 50.8036 31.4071C50.9116 31.61 51.0098 31.8179 51.0966 32.0307C51.1849 32.2435 51.2619 32.4612 51.329 32.6806C51.3945 32.9015 51.4501 33.1258 51.4943 33.3517C51.5401 33.5776 51.5729 33.8051 51.5958 34.0343C51.6171 34.2634 51.6285 34.4926 51.6285 34.7234C51.6269 34.9542 51.6154 35.1833 51.5925 35.4125C51.5696 35.6417 51.5369 35.8692 51.491 36.0951C51.4452 36.321 51.3896 36.5452 51.3224 36.7646C51.2553 36.9856 51.1768 37.2016 51.09 37.4144C51.0016 37.6272 50.9018 37.8351 50.7937 38.0381C50.6841 38.241 50.5662 38.4391 50.4385 38.6306C50.3108 38.8221 50.1734 39.0055 50.026 39.1839C49.8803 39.3623 49.7265 39.5326 49.5628 39.6946C49.4007 39.8567 49.2305 40.0122 49.0521 40.1578C48.8737 40.3035 48.6887 40.441 48.4972 40.5687C48.3057 40.6964 48.1092 40.8142 47.9063 40.9223C47.7033 41.0303 47.4954 41.1285 47.2826 41.2169C47.0698 41.3037 46.8521 41.3806 46.6328 41.4477C46.4118 41.5148 46.1892 41.5705 45.9633 41.6147C45.7374 41.6589 45.5099 41.6932 45.2823 41.7145C45.0532 41.7374 44.8224 41.7489 44.5932 41.7473C44.3624 41.7473 44.1332 41.7358 43.9041 41.7129C43.6749 41.69 43.449 41.6556 43.2231 41.6098C42.9972 41.5656 42.7746 41.5083 42.5537 41.4412C42.3343 41.374 42.1182 41.2971 41.9054 41.2087C41.6927 41.1203 41.4864 41.0205 41.2834 40.9124C41.0805 40.8028 40.884 40.6849 40.6925 40.5556C40.501 40.4279 40.316 40.2904 40.1393 40.1447C39.9608 39.9974 39.7922 39.8436 39.6285 39.6799C39.4665 39.5162 39.3126 39.3459 39.1669 39.1675C39.0213 38.9891 38.8838 38.8041 38.7577 38.6126C38.6284 38.4211 38.5089 38.2247 38.3992 38.0217C38.2896 37.8187 38.1897 37.6108 38.1013 37.3964C38.0129 37.1836 37.9344 36.9676 37.8656 36.7466C37.7985 36.5256 37.7429 36.303 37.697 36.0755C37.6512 35.8496 37.6168 35.622 37.5939 35.3929C37.571 35.1621 37.5612 34.9329 37.5595 34.7021C37.5595 34.4713 37.571 34.2405 37.5939 34.0113C37.6168 33.7805 37.6512 33.553 37.697 33.3271C37.7412 33.0996 37.7985 32.877 37.8656 32.656C37.9327 32.435 38.0113 32.219 38.0997 32.0062C38.1881 31.7917 38.2879 31.5838 38.3976 31.3809C38.5073 31.1779 38.6268 30.9815 38.7544 30.79C38.8838 30.5984 39.0229 30.4135 39.1702 30.2367C39.3175 30.0583 39.473 29.8897 39.6367 29.726C39.8004 29.5639 39.9723 29.4117 40.1523 29.266C40.3308 29.1203 40.5174 28.9845 40.7089 28.8584Z" fill="#898989"/>
<path d="M41.9071 39.337C41.8187 39.4156 41.7647 39.5138 41.745 39.6317C41.7254 39.7495 41.745 39.8592 41.804 39.9623C41.8629 40.0671 41.9464 40.1391 42.0577 40.1833C42.1674 40.2275 42.2803 40.2308 42.3932 40.1964C43.8844 40.0802 46.2366 39.2716 48.1927 37.746C48.2304 37.7853 48.2746 37.8164 48.3253 37.836C48.3761 37.8573 48.4284 37.8655 48.4841 37.8622C48.5381 37.8589 48.5905 37.8442 48.638 37.818C48.6871 37.7918 48.728 37.7558 48.7591 37.7116L48.7689 37.6985C49.2354 37.07 49.7085 36.245 49.5808 35.6115L50.2961 35.1041C50.3796 35.0451 50.4287 34.9666 50.4467 34.8651C50.4631 34.7636 50.4434 34.6719 50.3845 34.5884C50.3256 34.505 50.2454 34.4542 50.1455 34.4378C50.044 34.4198 49.9524 34.4411 49.8689 34.5001L49.1519 35.0075C48.71 34.7489 47.9652 34.775 46.857 35.0844C46.7081 35.1253 46.6197 35.2219 46.5935 35.3741C46.5657 35.5264 46.6131 35.6475 46.7375 35.7392C45.5393 36.9537 43.9385 38.147 41.9693 39.2896C41.9464 39.3027 41.9267 39.319 41.9071 39.337ZM48.0749 35.5869C48.6871 35.5215 48.8164 35.6721 48.8327 35.6966C48.9064 35.8014 48.8606 36.0731 48.6772 36.4496C48.6249 36.4087 48.5659 36.3841 48.5005 36.3743L47.9963 36.3006L48.0945 35.7981C48.1092 35.7261 48.1027 35.6557 48.0749 35.5869ZM47.245 36.2826L47.1942 36.5396C47.1844 36.5887 47.1844 36.6395 47.1942 36.6886C47.2057 36.7377 47.2253 36.7835 47.2548 36.8244C47.2843 36.867 47.3203 36.9014 47.3628 36.9276C47.407 36.9537 47.4529 36.9701 47.5036 36.9783L47.8981 37.0356C46.5689 38.1077 45.0761 38.8542 43.4228 39.2765C44.9632 38.3025 46.2252 37.3139 47.245 36.2826Z" fill="#898989"/>
<path d="M39.9609 31.7821C39.9658 31.7837 39.9691 31.7853 39.974 31.787C40.7744 32.0472 41.3637 32.4777 41.7762 33.1047C41.8204 33.1718 41.8744 33.2307 41.9382 33.2798C41.8989 34.7448 41.6403 35.8448 41.1673 36.547C41.1083 36.6321 41.0887 36.7254 41.1083 36.8269C41.1263 36.9284 41.1787 37.0086 41.2638 37.0659C41.3506 37.1232 41.4439 37.1428 41.5454 37.1216C41.6469 37.1019 41.7254 37.0479 41.7811 36.9612C42.3344 36.1394 42.6274 34.9592 42.6765 33.3616C42.7026 33.3502 42.7272 33.3371 42.7518 33.3224C43.0759 33.1194 43.4262 32.9819 43.801 32.9066C44.1758 32.8329 44.5523 32.828 44.9288 32.8919C44.937 32.8935 44.9452 32.8935 44.9517 32.8951C45.0008 32.8984 45.0499 32.8968 45.0974 32.8902C45.1449 32.882 45.1907 32.8689 45.2365 32.8493C45.2807 32.8297 45.3233 32.8051 45.3609 32.7756C45.4002 32.7462 45.4346 32.7134 45.4657 32.6758C45.4952 32.6365 45.5214 32.5956 45.541 32.5514C45.5606 32.5072 45.5754 32.4614 45.5852 32.4139C45.5934 32.3664 45.5967 32.3173 45.595 32.2698C45.5918 32.2207 45.5819 32.1733 45.5688 32.1258L45.5459 32.057L45.6081 32.0161C45.7162 31.9425 45.7915 31.8443 45.8356 31.7198C45.8782 31.5971 45.8798 31.4727 45.8406 31.3466C45.8013 31.2222 45.7292 31.1208 45.6229 31.0455C45.5165 30.9685 45.3986 30.9309 45.2676 30.9325L45.194 30.9341L45.1825 30.8981C45.1531 30.8065 45.1056 30.7263 45.0368 30.6575C44.9697 30.5888 44.8895 30.5413 44.7979 30.5118C44.7078 30.4824 44.6145 30.4742 44.5196 30.4905C44.4247 30.5069 44.3395 30.5429 44.2626 30.6019L43.6635 31.0504L44.1447 30.281C44.1955 30.1992 44.225 30.1108 44.2331 30.0142C44.2397 29.9176 44.225 29.826 44.1889 29.7376C44.1513 29.6492 44.0956 29.5739 44.022 29.5117C43.9483 29.4495 43.8648 29.4086 43.7715 29.3873L43.7339 29.3791L43.729 29.3054C43.7192 29.1745 43.6717 29.0599 43.5866 28.9601C43.5014 28.8618 43.3951 28.798 43.2674 28.7685C43.1397 28.7407 43.0169 28.7522 42.8974 28.8062C42.7779 28.8602 42.6863 28.9437 42.6224 29.0583L42.5848 29.1238L42.5144 29.1074C42.4669 29.0976 42.4195 29.0927 42.3704 29.0943C42.3229 29.0943 42.2738 29.1025 42.228 29.1156C42.1805 29.1287 42.1363 29.1467 42.0937 29.1712C42.0512 29.1941 42.0135 29.2236 41.9775 29.258C41.9431 29.2907 41.912 29.3284 41.8858 29.3693C41.8597 29.4102 41.84 29.4544 41.8236 29.5002C41.8089 29.5461 41.7991 29.5935 41.7958 29.6426C41.7925 29.6918 41.7942 29.7392 41.8024 29.7867L41.9759 30.7901L41.5552 29.9978C41.511 29.9127 41.4488 29.844 41.3702 29.7883C41.29 29.7343 41.2033 29.6999 41.1083 29.6885C41.0134 29.6754 40.9201 29.6868 40.8301 29.7196C40.74 29.7523 40.6631 29.8047 40.5976 29.8751L40.5714 29.9029L40.5043 29.8702C40.3865 29.8129 40.2637 29.7965 40.136 29.8211C40.0067 29.8456 39.8987 29.9062 39.8103 30.0028C39.7219 30.0993 39.6711 30.2123 39.658 30.3432C39.6449 30.4725 39.6711 30.5937 39.7383 30.7066L39.7759 30.7721L39.7284 30.8245C39.6941 30.8605 39.6662 30.8998 39.6433 30.9423C39.6204 30.9849 39.6024 31.0307 39.5909 31.0766C39.5778 31.124 39.5713 31.1715 39.5713 31.2206C39.5713 31.2697 39.5762 31.3172 39.5877 31.3646C39.5991 31.4121 39.6171 31.4579 39.64 31.5005C39.6613 31.5431 39.6891 31.584 39.7219 31.62C39.7546 31.656 39.7906 31.6887 39.8299 31.7149C39.8708 31.7428 39.9134 31.764 39.9592 31.7821H39.9609ZM42.6945 29.9062C42.8271 29.9356 42.9416 29.9029 43.0382 29.8047C43.0824 29.934 43.1724 30.0126 43.305 30.042L43.4065 30.065L42.7747 31.0782C42.773 31.0553 42.7698 31.0324 42.7665 31.0094L42.5701 29.8784L42.6945 29.9062ZM40.5076 31.07C40.6009 30.9685 40.6287 30.8523 40.5927 30.7214C40.7269 30.7459 40.8399 30.7083 40.9315 30.6068L41.0019 30.5298L41.4897 31.4481C41.547 31.5562 41.6289 31.6429 41.732 31.7084C41.8367 31.7739 41.9497 31.8082 42.0724 31.8115C42.1952 31.8148 42.3114 31.787 42.4195 31.728C42.5275 31.6691 42.6126 31.5873 42.6765 31.4825C42.6863 31.6004 42.7256 31.7068 42.7943 31.8017C42.8614 31.8983 42.9498 31.9687 43.0562 32.0178C43.1643 32.0652 43.2756 32.0832 43.3918 32.0701C43.5096 32.057 43.6144 32.0145 43.7077 31.9441L44.5392 31.3188L44.5703 31.4187C44.6113 31.548 44.698 31.6298 44.829 31.6642C44.7406 31.769 44.7177 31.8852 44.7586 32.0161L44.793 32.1291C43.927 32.0407 43.1233 32.224 42.3835 32.6807C41.8973 31.9588 41.2442 31.4514 40.4257 31.1584L40.5076 31.07Z" fill="#898989"/>
<path d="M48.1863 31.8617C48.2501 31.9583 48.3319 32.0352 48.4318 32.0925C48.5316 32.1498 48.6397 32.1842 48.7543 32.1907C48.8688 32.1989 48.9802 32.1809 49.0865 32.1367C49.1929 32.0925 49.2846 32.027 49.3615 31.9403C49.4368 31.8535 49.4909 31.7553 49.5203 31.6424C49.5514 31.531 49.5547 31.4197 49.5318 31.3052C49.5105 31.1922 49.463 31.0891 49.3943 30.9974C49.3239 30.9058 49.2371 30.8354 49.134 30.783C49.0293 30.7322 48.9212 30.7061 48.805 30.7061C48.6904 30.7061 48.5808 30.7322 48.476 30.783C48.3729 30.8337 48.2861 30.9041 48.2157 30.9958C48.1453 31.0874 48.0995 31.1906 48.0766 31.3035C48.0357 31.5049 48.0733 31.6915 48.1863 31.8617Z" fill="#898989"/>
<path d="M44.7667 36.4157C44.8158 36.4255 44.8649 36.4304 44.9157 36.4304C45.027 36.4304 45.1317 36.4059 45.2316 36.3584C45.3331 36.3109 45.4182 36.2438 45.4886 36.1587C45.559 36.072 45.6081 35.9754 45.6343 35.8673C45.6605 35.7593 45.6637 35.6513 45.6425 35.5416C45.6195 35.4319 45.577 35.3337 45.5099 35.2437C45.4444 35.1553 45.3626 35.0833 45.2643 35.0309C45.1661 34.9785 45.0614 34.9507 44.9501 34.9441C44.8404 34.9392 44.7323 34.9572 44.6309 34.9998C44.5277 35.0424 44.4393 35.1046 44.3641 35.188C44.2904 35.2699 44.2364 35.3648 44.2036 35.4712C44.1709 35.5776 44.1627 35.6857 44.1791 35.7953C44.1955 35.905 44.2347 36.0065 44.2953 36.0998C44.4099 36.27 44.567 36.3764 44.7667 36.4157Z" fill="#898989"/>
<path d="M39.6744 35.0354C39.7235 35.0452 39.7726 35.0501 39.8233 35.0501C39.8855 35.0501 39.9477 35.0419 40.0099 35.0256C40.0705 35.0092 40.1294 34.9863 40.1851 34.9552C40.2391 34.9241 40.2898 34.8881 40.3357 34.8439C40.3815 34.7997 40.4208 34.7506 40.4551 34.6982C40.4879 34.6442 40.5141 34.5869 40.5337 34.5263C40.5517 34.4658 40.5632 34.4036 40.5665 34.3397C40.5697 34.2775 40.5648 34.2137 40.5517 34.1531C40.5386 34.0909 40.519 34.0304 40.4912 33.9747C40.4633 33.9174 40.429 33.865 40.3864 33.8159C40.3455 33.7685 40.2996 33.7259 40.2473 33.6899C40.1949 33.6539 40.1392 33.626 40.0803 33.6031C40.0214 33.5818 39.9592 33.5671 39.897 33.5606C39.8331 33.554 39.7709 33.5557 39.7087 33.5655C39.6465 33.5753 39.586 33.5933 39.527 33.6179C39.4697 33.6441 39.4157 33.6752 39.365 33.7144C39.3159 33.7537 39.2717 33.7979 39.2324 33.8487C39.1931 33.8978 39.162 33.9518 39.1375 34.0107C39.1129 34.0696 39.0949 34.1302 39.0851 34.1924C39.0769 34.2546 39.0753 34.3168 39.0818 34.3806C39.0883 34.4445 39.1031 34.5051 39.1244 34.564C39.1473 34.6229 39.1751 34.6786 39.2127 34.7309C39.2488 34.7833 39.2913 34.8292 39.3388 34.8701C39.3863 34.9126 39.4386 34.947 39.4959 34.9748C39.5532 35.0027 39.6121 35.0223 39.6744 35.0354Z" fill="#898989"/>
<path d="M30.7011 52.8149C30.7502 52.8149 30.7993 52.8166 30.8484 52.8166C31.0056 52.8166 31.1643 52.81 31.3215 52.8002C31.4786 52.7904 31.6358 52.774 31.7929 52.7544C31.95 52.7331 32.1055 52.7069 32.261 52.6774C32.4149 52.6463 32.5688 52.6103 32.721 52.5694C32.8749 52.5285 33.0255 52.4827 33.1744 52.4319C33.325 52.3812 33.4723 52.3255 33.618 52.265C33.7637 52.2044 33.9077 52.1405 34.0502 52.0702C34.1926 51.9998 34.3317 51.9261 34.4676 51.8475C34.6051 51.769 34.7393 51.6855 34.8702 51.5971C35.0028 51.5103 35.1305 51.4187 35.2565 51.3221C35.3809 51.2255 35.5037 51.1257 35.6232 51.0209C35.7427 50.9178 35.8573 50.8098 35.9686 50.6985C36.0815 50.5871 36.1896 50.4709 36.2943 50.3531C36.3991 50.2336 36.4989 50.1124 36.5955 49.9864C36.6921 49.862 36.7838 49.7343 36.8721 49.6017C36.9605 49.4708 37.044 49.3366 37.1242 49.2007C37.2028 49.0632 37.2781 48.9241 37.3485 48.7833C37.4189 48.6409 37.4843 48.4968 37.5449 48.3512C37.6071 48.2055 37.6628 48.0582 37.7135 47.9076C37.7659 47.7586 37.8117 47.608 37.8526 47.4541C37.8952 47.3019 37.9312 47.1481 37.9623 46.9925C37.9934 46.8387 38.0212 46.6832 38.0425 46.526C38.0638 46.3689 38.0785 46.2118 38.09 46.0546C38.1014 45.8958 38.108 45.7387 38.108 45.5799C38.1096 45.4211 38.1047 45.264 38.0949 45.1052C38.0851 44.9481 38.0703 44.7909 38.0507 44.6338C38.0311 44.4767 38.0065 44.3212 37.977 44.1656C37.9459 44.0101 37.9116 43.8563 37.8723 43.7024C37.8314 43.5502 37.7872 43.3979 37.7364 43.2474C37.6873 43.0984 37.6317 42.9494 37.5727 42.8038C37.5138 42.6564 37.4483 42.5124 37.3796 42.37C37.3108 42.2276 37.2372 42.0868 37.1586 41.9493C37.0817 41.8118 36.9982 41.6776 36.9114 41.545C36.8247 41.414 36.7346 41.2847 36.6381 41.1587C36.5431 41.0327 36.4433 40.9082 36.3402 40.7888C36.237 40.6693 36.1306 40.553 36.0193 40.4401C35.908 40.3288 35.7951 40.2191 35.6756 40.1144C35.5577 40.008 35.4366 39.9081 35.3122 39.8099C35.1878 39.7133 35.0601 39.62 34.9292 39.5316C34.7999 39.4416 34.6656 39.3581 34.5298 39.2779C34.3939 39.1977 34.2548 39.1208 34.114 39.0504C33.9732 38.9784 33.8292 38.9129 33.6835 38.8507C33.5394 38.7885 33.3921 38.7312 33.2415 38.6788C33.0926 38.6281 32.942 38.5806 32.7898 38.538C32.6375 38.4955 32.4853 38.4578 32.3298 38.4251C32.1759 38.394 32.0204 38.3662 31.8633 38.3449C31.7078 38.322 31.5506 38.3056 31.3935 38.2925C31.2347 38.281 31.0776 38.2745 30.9188 38.2729C30.7617 38.2712 30.6045 38.2745 30.4457 38.2843C30.2886 38.2925 30.1315 38.3056 29.9743 38.3252C29.8172 38.3449 29.6617 38.3678 29.5062 38.3973C29.3507 38.4267 29.1968 38.4611 29.0446 38.5004C28.8907 38.5397 28.7385 38.5839 28.5895 38.633C28.4389 38.6821 28.29 38.7361 28.1443 38.795C27.997 38.854 27.8529 38.9178 27.7105 38.9865C27.5681 39.0537 27.4273 39.1273 27.2898 39.2043C27.1523 39.2828 27.0181 39.3647 26.8855 39.4498C26.7529 39.5365 26.6236 39.6266 26.4959 39.7215C26.3699 39.8164 26.2471 39.9163 26.1276 40.0178C26.0065 40.1209 25.8903 40.2273 25.7773 40.3386C25.6644 40.4483 25.5547 40.5629 25.4483 40.6807C25.3436 40.7986 25.2421 40.9181 25.1439 41.0425C25.0457 41.1669 24.9524 41.2946 24.8623 41.4255C24.7739 41.5548 24.6888 41.689 24.607 41.8249C24.5268 41.9608 24.4498 42.0983 24.3794 42.239C24.3074 42.3798 24.2403 42.5239 24.1781 42.6695C24.1143 42.8136 24.057 42.9609 24.0046 43.1099C23.9522 43.2588 23.9031 43.4094 23.8606 43.5616C23.818 43.7139 23.7787 43.8677 23.746 44.0232C23.7132 44.1771 23.6854 44.3326 23.6625 44.4898C23.6396 44.6453 23.6216 44.8024 23.6085 44.9612C23.597 45.1183 23.5888 45.2771 23.5872 45.4342C23.5839 45.593 23.5872 45.7502 23.5954 45.9089C23.6019 46.0661 23.615 46.2248 23.6347 46.382C23.6527 46.5391 23.6756 46.6946 23.7034 46.8501C23.7329 47.0056 23.7656 47.1611 23.8033 47.3134C23.8425 47.4672 23.8851 47.6195 23.9342 47.7701C23.9833 47.9207 24.0357 48.0696 24.0946 48.2169C24.1519 48.3643 24.2141 48.5083 24.2829 48.6523C24.35 48.7948 24.422 48.9355 24.4989 49.0747C24.5759 49.2122 24.6561 49.348 24.7412 49.4806C24.828 49.6132 24.9163 49.7442 25.0113 49.8718C25.1046 49.9979 25.2028 50.1223 25.3043 50.2434C25.4074 50.3629 25.5138 50.4807 25.6235 50.5953C25.7331 50.7083 25.8461 50.8179 25.9623 50.9243C26.0802 51.0307 26.1997 51.1339 26.3241 51.2321C26.4468 51.3303 26.5729 51.4252 26.7038 51.5153C26.8331 51.6053 26.9657 51.692 27.0999 51.7739C27.2358 51.8557 27.3733 51.9327 27.5141 52.0047C27.6548 52.0767 27.7973 52.1455 27.9413 52.2093C28.087 52.2715 28.2327 52.3304 28.3816 52.3844C28.5306 52.4385 28.6812 52.4859 28.8318 52.5301C28.984 52.5743 29.1379 52.6136 29.2917 52.648C29.4456 52.6807 29.6011 52.7102 29.7566 52.7331C29.9138 52.7577 30.0709 52.7757 30.228 52.7888C30.3852 52.8035 30.5423 52.8117 30.7011 52.8149ZM26.329 40.8477C26.9346 40.2617 27.627 39.8115 28.4078 39.4956C29.1886 39.1813 29.9989 39.0242 30.8402 39.0258C30.8844 39.0258 30.9286 39.0275 30.9728 39.0275C31.2216 39.0324 31.4704 39.052 31.716 39.0848C31.9631 39.1191 32.207 39.1666 32.4493 39.2272C32.6899 39.2894 32.9273 39.3647 33.1597 39.4531C33.3921 39.5414 33.6197 39.6429 33.8406 39.7575C34.0616 39.8721 34.276 39.9998 34.4823 40.1389C34.6885 40.278 34.8866 40.4286 35.0765 40.5907C35.2647 40.7527 35.4448 40.9246 35.615 41.1079C35.7836 41.2896 35.9424 41.4812 36.0897 41.6825C36.2387 41.8838 36.3729 42.0917 36.4973 42.3078C36.6217 42.5239 36.733 42.7465 36.8312 42.9756C36.9294 43.2048 37.0129 43.4389 37.0849 43.6779C37.157 43.9168 37.2143 44.1591 37.2585 44.4046C37.301 44.6502 37.3305 44.8973 37.3468 45.1461C37.3616 45.3949 37.3632 45.6438 37.3501 45.8926C37.337 46.143 37.3092 46.3902 37.2683 46.6357C37.2274 46.8812 37.1717 47.1251 37.1029 47.3641C37.0342 47.6031 36.9507 47.8388 36.8541 48.068C36.7592 48.2988 36.6495 48.5214 36.5284 48.7391C36.4056 48.9568 36.273 49.168 36.1274 49.3693C35.9817 49.5723 35.8245 49.7654 35.6559 49.9488C35.489 50.1337 35.3106 50.3072 35.1223 50.4709C34.9357 50.6346 34.7393 50.7868 34.533 50.9276C34.3284 51.07 34.1156 51.1993 33.8963 51.3156C33.6753 51.4318 33.4494 51.5365 33.217 51.6266C32.9862 51.7182 32.7488 51.7952 32.5082 51.859C32.2676 51.9228 32.0237 51.9719 31.7782 52.008C31.531 52.044 31.2838 52.0653 31.035 52.0718C30.7862 52.08 30.5374 52.0734 30.2902 52.0522C30.0414 52.0309 29.7959 51.9949 29.552 51.9458C29.3065 51.8967 29.0675 51.8328 28.8301 51.7559C28.5928 51.6789 28.362 51.5889 28.1345 51.4842C27.9086 51.381 27.6892 51.2648 27.4748 51.1355C27.262 51.0062 27.0574 50.8654 26.861 50.7132C26.6629 50.561 26.4763 50.3973 26.2979 50.2238C26.1195 50.0502 25.9509 49.8653 25.7937 49.6721C25.6366 49.479 25.4909 49.2776 25.3567 49.0681C25.2224 48.857 25.0997 48.6409 24.9916 48.4166C24.882 48.1924 24.7854 47.9632 24.7019 47.7275C24.6201 47.4934 24.5497 47.2544 24.494 47.0106C24.4384 46.7683 24.3975 46.5228 24.3696 46.274C24.3418 46.0268 24.3287 45.778 24.3287 45.5292C24.3303 45.2787 24.3451 45.0299 24.3745 44.7828C24.404 44.5356 24.4466 44.2901 24.5038 44.0478C24.5611 43.8055 24.6332 43.5665 24.7183 43.3325C24.8018 43.0968 24.9 42.8692 25.0113 42.645C25.121 42.4224 25.2454 42.2063 25.3812 41.9968C25.5171 41.7873 25.6628 41.5876 25.8215 41.3944C25.9803 41.2029 26.1506 41.0196 26.329 40.8477Z" fill="#898989"/>
<path d="M30.845 51.4074C31.0676 51.4074 31.2902 51.3943 31.5112 51.3681C31.7322 51.3436 31.9515 51.3043 32.1676 51.2552C32.3853 51.2045 32.5981 51.1406 32.8076 51.0653C33.0171 50.9917 33.2217 50.9049 33.4214 50.8051C33.6211 50.7068 33.8159 50.5972 34.0025 50.4777C34.1891 50.3566 34.3692 50.2256 34.5427 50.0848C34.7146 49.9441 34.8783 49.7935 35.0338 49.6331C35.1893 49.4726 35.335 49.304 35.4708 49.1289C35.6067 48.9521 35.7311 48.7671 35.8473 48.5773C35.9619 48.3857 36.065 48.1893 36.1583 47.9863C36.2516 47.7834 36.3318 47.5755 36.4006 47.3643C36.4693 47.1515 36.5266 46.9371 36.5708 46.7178C36.615 46.5001 36.6461 46.2791 36.6658 46.0565C36.6854 45.8355 36.6919 45.6129 36.6854 45.3902C36.6788 45.166 36.6608 44.945 36.6297 44.724C36.597 44.5031 36.5544 44.2854 36.4972 44.0693C36.4415 43.8532 36.3728 43.6421 36.2925 43.4342C36.2123 43.2263 36.119 43.0233 36.0159 42.8253C35.9128 42.6288 35.7982 42.4373 35.6722 42.254C35.5478 42.069 35.4119 41.8922 35.2662 41.7236C35.1205 41.555 34.965 41.3946 34.8013 41.244C34.6377 41.0934 34.4658 40.9527 34.2857 40.8201C34.1073 40.6891 33.9191 40.568 33.7259 40.4583C33.5328 40.3486 33.3331 40.2488 33.1284 40.162C32.9238 40.0753 32.7143 40 32.4999 39.9361C32.2871 39.8739 32.071 39.8216 31.8517 39.7839C31.6323 39.7446 31.4114 39.7184 31.1887 39.7053C30.9661 39.6923 30.7451 39.6923 30.5225 39.7037C30.2999 39.7168 30.0789 39.7414 29.8596 39.779C29.6402 39.8167 29.4225 39.8658 29.2097 39.928C28.9953 39.9902 28.7858 40.0638 28.5812 40.1506C28.3749 40.2373 28.1752 40.3339 27.9804 40.4436C27.7873 40.5516 27.599 40.6727 27.419 40.8021C27.2389 40.933 27.0654 41.0738 26.9017 41.2244C26.7364 41.3733 26.5809 41.5337 26.4352 41.7007C26.2879 41.8693 26.152 42.0445 26.026 42.2278C25.9 42.4128 25.7837 42.6026 25.679 42.7991C25.5742 42.9955 25.4809 43.1985 25.3991 43.4063C25.3172 43.6126 25.2485 43.8238 25.1912 44.0398C25.1339 44.2559 25.0881 44.4736 25.0553 44.6946C25.0226 44.9139 25.003 45.1365 24.9964 45.3591C24.9882 45.5818 24.9948 45.8044 25.0128 46.027C25.0308 46.2496 25.0602 46.469 25.1044 46.6883C25.147 46.9076 25.2027 47.1221 25.2714 47.3349C25.3385 47.5477 25.4187 47.7555 25.5104 47.9585C25.6021 48.1615 25.7035 48.3596 25.8181 48.5511C25.9327 48.7426 26.0571 48.9259 26.1913 49.1043C26.3272 49.2811 26.4712 49.4497 26.6267 49.6118C27.1767 50.1863 27.8184 50.6299 28.5517 50.9426C29.285 51.2536 30.0495 51.4091 30.845 51.4074ZM27.3028 41.8611C27.545 41.6287 27.8069 41.4224 28.0901 41.2407C28.3717 41.0591 28.6696 40.9085 28.9822 40.7857C29.2949 40.6629 29.6157 40.5729 29.9463 40.514C30.277 40.4534 30.6093 40.4272 30.9448 40.4354C31.2804 40.4419 31.6127 40.4812 31.9401 40.5533C32.2674 40.6253 32.585 40.7284 32.8927 40.8626C33.2005 40.9969 33.4918 41.1605 33.7668 41.3537C34.0418 41.5452 34.2955 41.7629 34.528 42.0052C34.7604 42.2474 34.9683 42.5093 35.1484 42.7925C35.3301 43.0757 35.4806 43.3736 35.6034 43.6863C35.7262 44.0005 35.8162 44.3214 35.8751 44.652C35.9341 44.9827 35.9603 45.3166 35.9537 45.6521C35.9472 45.9893 35.9079 46.3216 35.8359 46.649C35.7638 46.978 35.6607 47.2956 35.5265 47.6033C35.3906 47.9111 35.2286 48.2024 35.0371 48.479C34.8439 48.754 34.6278 49.0078 34.3856 49.2418C34.1433 49.4743 33.8814 49.6805 33.5982 49.8622C33.3167 50.0439 33.0188 50.1945 32.7061 50.3173C32.3935 50.44 32.0727 50.5301 31.742 50.5906C31.4114 50.6496 31.0791 50.6757 30.7435 50.6692C30.4079 50.661 30.0757 50.6217 29.7483 50.5497C29.4209 50.4777 29.1033 50.3746 28.7956 50.2403C28.4879 50.1061 28.1965 49.9424 27.9215 49.7493C27.6465 49.5578 27.3928 49.34 27.1587 49.0978C26.9263 48.8555 26.7184 48.5936 26.5367 48.3105C26.355 48.0289 26.2028 47.731 26.0784 47.4167C25.9556 47.1041 25.8656 46.7816 25.805 46.4509C25.7461 46.1203 25.7199 45.7864 25.7265 45.4492C25.733 45.1136 25.7723 44.7813 25.8459 44.4523C25.918 44.1233 26.0211 43.8057 26.157 43.498C26.2912 43.1903 26.4565 42.8989 26.648 42.6223C26.8412 42.3473 27.0589 42.0936 27.3028 41.8611Z" fill="#898989"/>
<path d="M27.9444 44.2196H27.9592C28.1081 44.2196 28.244 44.1787 28.3684 44.0968C28.4928 44.015 28.5828 43.9053 28.6417 43.7678C28.699 43.632 28.7154 43.4896 28.6892 43.3439C28.6614 43.1965 28.5976 43.0705 28.4944 42.9625C28.4519 42.9183 28.4044 42.8806 28.3537 42.8479C28.3013 42.8152 28.2473 42.789 28.1883 42.771C28.131 42.7513 28.0705 42.7399 28.0099 42.7366C27.9493 42.7317 27.8888 42.7349 27.8282 42.7464C27.7693 42.7562 27.7104 42.7742 27.6547 42.7988C27.5991 42.825 27.5483 42.8561 27.4992 42.8937C27.4517 42.9314 27.4092 42.9739 27.3715 43.023C27.3339 43.0721 27.3044 43.1229 27.2799 43.1802C27.2553 43.2358 27.2373 43.2931 27.2275 43.3537C27.2177 43.4143 27.2144 43.4748 27.2193 43.5354C27.2242 43.5959 27.2357 43.6565 27.2553 43.7138C27.275 43.7711 27.3011 43.8267 27.3339 43.8775C27.3666 43.9299 27.4059 43.9757 27.4501 44.0183C27.4943 44.0592 27.5434 44.0952 27.5958 44.1263C27.6498 44.1558 27.7055 44.1787 27.7644 44.195C27.8233 44.2098 27.8839 44.2196 27.9444 44.2196Z" fill="#898989"/>
<path d="M28.5141 46.3907C28.4453 46.3203 28.3667 46.2647 28.2767 46.2254C28.1867 46.1861 28.0917 46.1648 27.9935 46.1632C27.8953 46.1616 27.8004 46.1779 27.7087 46.2139C27.617 46.25 27.5368 46.3023 27.4648 46.3711C27.3944 46.4382 27.3388 46.5184 27.2995 46.6084C27.2602 46.6985 27.2406 46.7934 27.2373 46.8916C27.2356 46.9898 27.2537 47.0848 27.2897 47.1764C27.324 47.2681 27.3764 47.3499 27.4452 47.4203C27.5123 47.4907 27.5925 47.5464 27.6825 47.5856C27.7725 47.6249 27.8658 47.6462 27.9641 47.6479C28.0623 47.6511 28.1572 47.6331 28.2489 47.5971C28.3405 47.5611 28.4224 47.5104 28.4928 47.4416C28.5648 47.3729 28.6188 47.2943 28.6581 47.2043C28.6974 47.1126 28.7187 47.0193 28.7203 46.9211C28.7219 46.8212 28.7056 46.7263 28.6696 46.6346C28.6335 46.543 28.5828 46.4611 28.5141 46.3907Z" fill="#898989"/>
<path d="M33.3445 46.2218C33.2758 46.1514 33.1972 46.0957 33.1072 46.0565C33.0155 46.0172 32.9222 45.9959 32.824 45.9943C32.7258 45.9926 32.6308 46.009 32.5392 46.045C32.4475 46.081 32.3657 46.1334 32.2953 46.2021C32.2249 46.2692 32.1692 46.3495 32.1299 46.4395C32.0907 46.5295 32.0694 46.6245 32.0677 46.7227C32.0661 46.8209 32.0825 46.9158 32.1185 47.0075C32.1545 47.0991 32.2069 47.181 32.274 47.2514C32.3427 47.3218 32.4213 47.3774 32.5113 47.4167C32.6014 47.4576 32.6963 47.4773 32.7945 47.4789C32.8927 47.4822 32.9877 47.4642 33.0793 47.4282C33.171 47.3938 33.2528 47.3414 33.3232 47.2727C33.3953 47.2055 33.4509 47.1253 33.4902 47.0353C33.5295 46.9453 33.5508 46.8503 33.5524 46.7521C33.5557 46.6523 33.5377 46.5573 33.5016 46.4657C33.4656 46.374 33.4133 46.2922 33.3445 46.2218Z" fill="#898989"/>
<path d="M30.0446 43.6963C30.4309 43.6652 30.665 43.9353 31.0153 44.3806C31.3655 44.8258 31.7993 45.3758 32.5457 45.3758C32.9255 45.3758 33.3838 45.235 33.9535 44.8667C34.1613 45.055 34.3218 45.2776 34.4347 45.5329C34.474 45.6279 34.5395 45.695 34.6344 45.7343C34.7293 45.7735 34.8243 45.7735 34.9176 45.7343C35.0125 45.695 35.0796 45.6279 35.1189 45.5329C35.1582 45.438 35.1566 45.343 35.1173 45.2497C34.9356 44.834 34.6688 44.4837 34.3169 44.1972C34.1237 43.3297 33.7112 42.7437 33.0876 42.4572C32.2642 42.0775 31.1069 42.2722 29.8302 43.0039C29.7549 43.0481 29.7008 43.1087 29.6697 43.1905C29.637 43.2707 29.6337 43.3526 29.6599 43.4361C29.6861 43.5179 29.7352 43.585 29.8056 43.6325C29.8776 43.6816 29.9578 43.7029 30.0429 43.6947L30.0446 43.6963ZM32.7782 43.1316C33.153 43.3035 33.4182 43.6751 33.5655 44.2365C32.4312 44.9846 32.094 44.5541 31.5947 43.9206C31.4179 43.6783 31.215 43.459 30.9842 43.2658C31.7093 42.981 32.3395 42.9286 32.7782 43.1316Z" fill="#898989"/>
<path d="M0.0928378 31.6688C0.143581 32.6035 0.240157 33.5316 0.379293 34.4564C0.516791 35.3813 0.698485 36.2979 0.922738 37.2064C1.14699 38.1149 1.4138 39.0102 1.72154 39.8925C2.02927 40.7748 2.37793 41.6423 2.76751 42.4919C3.15709 43.3431 3.58431 44.173 4.05082 44.9832C4.51734 45.7935 5.01986 46.5808 5.56003 47.3436C6.1002 48.1064 6.67475 48.843 7.28367 49.5518C7.89095 50.2622 8.53261 50.9415 9.20374 51.5897C9.8765 52.2395 10.5771 52.8566 11.3071 53.4394C12.0372 54.0237 12.7918 54.5721 13.5726 55.0844C14.3534 55.5984 15.1571 56.0731 15.9821 56.5118C16.8071 56.9488 17.6517 57.3466 18.5143 57.7067C19.377 58.0652 20.2543 58.3828 21.1464 58.6594C22.0385 58.936 22.9421 59.1701 23.8555 59.3616C24.7689 59.5531 25.6904 59.7021 26.6185 59.8085C27.5467 59.9132 28.478 59.9754 29.4111 59.9951C29.614 59.9984 29.817 60 30.02 60C30.6011 60 31.1805 59.9836 31.7616 59.9493C32.3411 59.9149 32.9189 59.8625 33.4967 59.7954C34.0729 59.7266 34.6475 59.6432 35.2204 59.5417C35.7916 59.4402 36.3613 59.3223 36.926 59.1865C37.4907 59.0522 38.0522 58.9016 38.6087 58.7347C39.1653 58.5677 39.7169 58.3844 40.262 58.1847C40.8087 57.985 41.3472 57.7706 41.8809 57.5398C42.4145 57.309 42.9399 57.0618 43.4588 56.7999C43.9777 56.5396 44.4901 56.263 44.9926 55.9716C45.4951 55.6803 45.9894 55.3742 46.474 55.055C46.9601 54.7341 47.4348 54.4002 47.9013 54.0532C48.3662 53.7045 48.8212 53.3444 49.2665 52.9696C49.7117 52.5964 50.1455 52.2084 50.5678 51.809C50.9901 51.4096 51.401 50.9988 51.7987 50.5748C52.1965 50.1509 52.5828 49.7171 52.956 49.2702C53.3292 48.825 53.6893 48.3683 54.0364 47.9018C54.3834 47.4353 54.7157 46.9589 55.0349 46.4728C55.3541 45.985 55.6585 45.4907 55.9482 44.9865C56.238 44.4823 56.5146 43.97 56.7749 43.4511C57.0351 42.9306 57.2807 42.4035 57.5098 41.8682C57.739 41.3346 57.9534 40.7944 58.1531 40.2477C58.3512 39.701 58.5329 39.1477 58.6998 38.5912C58.8652 38.033 59.0158 37.4716 59.15 36.9052C59.2842 36.3388 59.4004 35.7692 59.5019 35.1963C59.6018 34.6234 59.6853 34.0472 59.7524 33.4694C59.8195 32.8916 59.8702 32.3121 59.9046 31.731C59.9373 31.1515 59.9537 30.5688 59.9537 29.9877C59.9537 29.4066 59.9373 28.8239 59.903 28.2444C59.8686 27.6633 59.8178 27.0839 59.7507 26.5061C59.682 25.9282 59.5985 25.3521 59.497 24.7792C59.3955 24.2062 59.2777 23.6366 59.1434 23.0719C59.0092 22.5055 58.8586 21.9441 58.6933 21.3859C58.5263 20.8294 58.343 20.2761 58.1433 19.7294C57.9452 19.1826 57.7308 18.6425 57.5 18.1089C57.2692 17.5752 57.0237 17.0482 56.7634 16.5276C56.5032 16.0071 56.2265 15.4964 55.9368 14.9922C55.6454 14.4881 55.341 13.9937 55.0218 13.5076C54.7026 13.0214 54.3687 12.5451 54.0216 12.0786C53.6746 11.6121 53.3145 11.1554 52.9413 10.7101C52.5664 10.2649 52.1801 9.83113 51.7824 9.40718C51.383 8.98486 50.9721 8.57236 50.5498 8.1746C50.1275 7.7752 49.6937 7.3889 49.2485 7.01405C48.8032 6.64084 48.3482 6.27909 47.8817 5.93207C47.4152 5.58505 46.9388 5.25113 46.4543 4.93193C45.9682 4.61274 45.4738 4.30664 44.9713 4.01691C44.4671 3.72555 43.9564 3.44892 43.4375 3.18865C42.9186 2.92675 42.3916 2.68122 41.8579 2.45205C41.3243 2.22125 40.7858 2.00682 40.2391 1.80712C39.6923 1.60906 39.1424 1.42573 38.5858 1.25876C38.0293 1.0918 37.4678 0.941208 36.9031 0.806984C36.3367 0.67276 35.7687 0.556541 35.1958 0.455054C34.6245 0.353567 34.05 0.270086 33.4722 0.201337C32.896 0.134224 32.3165 0.0834815 31.7371 0.0507434C31.156 0.0163689 30.5765 0 29.9954 0C29.4143 0 28.8333 0.0163689 28.2538 0.0507434C27.6743 0.0834815 27.0949 0.134224 26.5187 0.202974C25.9409 0.270086 25.3663 0.353567 24.7951 0.455054C24.2222 0.556541 23.6542 0.674397 23.0878 0.808621C22.5231 0.942846 21.9616 1.09344 21.4051 1.25876C20.8485 1.42573 20.2969 1.60906 19.7518 1.80876C19.2051 2.00682 18.6666 2.22125 18.1329 2.45205C17.5993 2.68285 17.0722 2.92839 16.5533 3.19029C16.0345 3.45055 15.5237 3.72719 15.0196 4.01691C14.5171 4.30828 14.0227 4.61438 13.5366 4.93357L10.8995 4.51453C10.726 4.48834 10.5525 4.47033 10.379 4.46378C10.2055 4.4556 10.0304 4.45887 9.85685 4.47033C9.68334 4.48343 9.50983 4.50634 9.3396 4.53908C9.16773 4.57182 8.99913 4.61438 8.83216 4.66676C8.6652 4.71914 8.50315 4.7797 8.34437 4.85173C8.18396 4.92211 8.03009 5.00232 7.8795 5.09071C7.7289 5.18074 7.58486 5.27732 7.44572 5.38208C7.30659 5.48847 7.174 5.60142 7.0496 5.72255C6.92356 5.84368 6.80406 5.97135 6.69276 6.10558C6.58145 6.2398 6.47832 6.38058 6.38338 6.52626C6.28845 6.67358 6.20169 6.82417 6.12476 6.98131C6.04782 7.13682 5.97907 7.29723 5.92015 7.46256C5.86122 7.62625 5.81047 7.79321 5.77119 7.96344C5.7319 8.13368 5.7008 8.30555 5.68116 8.47906C5.66152 8.65257 5.65006 8.82608 5.65006 9.00123C5.65006 9.17637 5.65988 9.34988 5.68116 9.52339L5.97416 12.0818C4.93474 13.4797 4.023 14.9578 3.24057 16.5162C2.45977 18.0745 1.81648 19.6884 1.31559 21.3581C0.814704 23.0277 0.461137 24.7284 0.254889 26.4602C0.0502789 28.1921 -0.0037385 29.9272 0.0928378 31.6688ZM7.5603 6.25781C7.9106 5.91734 8.31327 5.65544 8.76505 5.47374C9.21847 5.29041 9.68825 5.19874 10.1777 5.19874C10.3807 5.19874 10.582 5.21511 10.7833 5.24621L16.3995 6.13668C14.1422 6.8831 11.844 7.6999 10.0615 9.41536C8.71103 10.715 7.85331 12.6204 7.0987 14.2998C7.06433 14.3735 7.03159 14.4471 6.99885 14.5192L6.41449 9.43828C6.3441 8.84736 6.40957 8.27281 6.61255 7.713C6.81389 7.15318 7.1298 6.66703 7.5603 6.25781ZM35.9913 10.422C39.1391 13.7024 40.7547 18.0565 40.5533 22.6954L35.0174 28.0251C35.9766 26.0281 36.4431 23.9214 36.4169 21.7051C36.3613 18.4886 35.1778 15.5848 32.9926 13.3095C30.5389 10.7511 26.9901 9.26149 23.2564 9.22221C19.539 9.18456 15.9362 10.5759 13.3696 13.046C10.7997 15.5193 9.25448 19.0828 9.12844 22.8198C9.0024 26.583 10.3365 30.2054 12.7869 32.759C14.9721 35.0342 17.8219 36.3339 21.0302 36.5189C21.2823 36.532 21.536 36.5402 21.7897 36.5402C23.7344 36.532 25.6004 36.1424 27.3879 35.3698L21.8536 40.6962C17.2163 40.7142 12.9375 38.9235 9.78974 35.6432C9.64079 35.4909 9.50492 35.3403 9.37561 35.1947L8.56044 28.1069C8.54898 28.0055 8.50315 27.922 8.42294 27.8581C8.34274 27.7959 8.25271 27.7697 8.15122 27.7812C8.04973 27.7927 7.96789 27.8385 7.90405 27.9187C7.84021 27.9989 7.81402 28.0889 7.82548 28.1904L9.57695 43.4184C9.62278 43.839 9.72754 44.245 9.88795 44.6378C10.0484 45.0291 10.2612 45.3908 10.5231 45.7231C10.7866 46.0554 11.0894 46.3451 11.4348 46.5923C11.7786 46.8378 12.1501 47.0326 12.5479 47.175C13.0488 47.3551 13.5644 47.4451 14.0947 47.4467C14.6808 47.4451 15.2438 47.3354 15.7856 47.1161C16.3275 46.8951 16.8087 46.5825 17.2294 46.1749L46.9094 17.6063C47.2138 17.3133 47.4725 16.9827 47.6852 16.6177C47.898 16.2526 48.0568 15.8647 48.1616 15.4555C48.2663 15.0462 48.3122 14.6288 48.3007 14.2065C48.2893 13.7842 48.2205 13.3701 48.0945 12.9674C47.9684 12.5631 47.7884 12.185 47.5559 11.8314C47.3251 11.4795 47.0485 11.1636 46.7293 10.8869C46.4085 10.6119 46.0582 10.3844 45.6752 10.206C45.2921 10.0276 44.8911 9.90642 44.4737 9.83931L18.7582 5.76183C21.117 4.68967 23.5805 3.97763 26.1471 3.62897C28.7138 3.28032 31.2771 3.30814 33.8356 3.71245C35.0354 3.90397 36.214 4.17897 37.3762 4.53581C38.5367 4.89265 39.6678 5.32642 40.7678 5.8404C41.8678 6.35438 42.9285 6.94203 43.9482 7.60169C44.9664 8.26299 45.9354 8.99141 46.8537 9.78693C47.772 10.5825 48.6314 11.4385 49.4302 12.3536C50.2306 13.2686 50.9639 14.2343 51.6285 15.2509C52.2947 16.2674 52.8873 17.3248 53.4062 18.4248C53.9267 19.5231 54.367 20.6542 54.7304 21.8148C55.0922 22.9753 55.3737 24.1539 55.5734 25.3537C55.7715 26.5535 55.8877 27.7616 55.9188 28.9761C55.9515 30.1923 55.8991 31.4036 55.7633 32.6116C55.6258 33.8213 55.4081 35.0146 55.1069 36.1915C54.8041 37.3701 54.4227 38.5208 53.9627 39.6453C53.5011 40.7715 52.9642 41.8584 52.3536 42.9093C51.7415 43.9585 51.0605 44.9619 50.3092 45.9179C49.5578 46.8738 48.746 47.7725 47.8702 48.6155C46.9896 49.4617 46.0549 50.2442 45.0662 50.9595C44.0776 51.6764 43.0447 52.3197 41.966 52.8926C40.8873 53.4639 39.7742 53.9583 38.6267 54.374C37.4793 54.7914 36.3089 55.1254 35.1156 55.3791C33.9207 55.6312 32.7159 55.7998 31.4981 55.8849C30.2803 55.9684 29.0641 55.9684 27.8462 55.8832C26.6284 55.7965 25.4236 55.6279 24.2303 55.3742C23.0354 55.1204 21.865 54.7832 20.7192 54.3658C19.5718 53.9484 18.4587 53.4541 17.3816 52.8812C16.3029 52.3083 15.27 51.6633 14.2814 50.9464C13.2943 50.2294 12.3596 49.447 11.4806 48.5991C10.6016 47.7528 9.78483 46.8476 9.03186 45.8868C8.2789 44.9243 7.59632 43.916 6.98412 42.8585C6.37029 41.8011 5.83339 40.7077 5.37343 39.575C4.91346 38.4439 4.53371 37.285 4.23579 36.0998C3.93624 34.9147 3.72017 33.7149 3.58922 32.5003C3.45009 31.1876 3.40753 29.8731 3.46482 28.5538C3.52211 27.2345 3.67598 25.9282 3.92806 24.6318C4.18014 23.3371 4.52716 22.0668 4.96912 20.8228C5.41108 19.5804 5.94306 18.3757 6.56344 17.2118L7.20183 22.7576C7.21329 22.8591 7.25912 22.9426 7.33933 23.0064C7.41953 23.0702 7.50956 23.0948 7.61105 23.0833C7.71253 23.0719 7.79438 23.0261 7.85822 22.9458C7.92206 22.8656 7.94825 22.7756 7.93679 22.6741L7.1609 15.9285C7.36552 15.5062 7.56358 15.0675 7.7731 14.6043C8.53753 12.9068 9.3265 11.1505 10.5738 9.95062C12.3367 8.25317 14.7135 7.47074 17.0117 6.71614C17.3407 6.60647 17.6681 6.49843 17.9905 6.38876L34.4379 8.99795C34.9847 9.43991 35.5036 9.91461 35.9913 10.422ZM35.8178 9.2173L44.3575 10.5726C44.7078 10.6283 45.0417 10.7298 45.3625 10.8787C45.6833 11.0277 45.978 11.2176 46.2448 11.4484C46.5132 11.6808 46.744 11.9443 46.9372 12.239C47.132 12.5353 47.2809 12.8528 47.3873 13.19C47.4937 13.5272 47.551 13.8726 47.5608 14.2262C47.5707 14.5814 47.5314 14.9284 47.443 15.2721C47.3562 15.6142 47.2236 15.94 47.0452 16.2444C46.8668 16.5505 46.6507 16.8255 46.3954 17.0711L41.3112 21.967C41.3227 17.4083 39.64 13.1556 36.5233 9.9097C36.2958 9.67235 36.0601 9.44155 35.8195 9.2173H35.8178ZM33.027 29.9403L29.3816 33.4497C26.887 35.1144 23.939 35.9427 21.0711 35.7774C18.0527 35.6055 15.3732 34.3828 13.3205 32.245C11.0076 29.8339 9.74882 26.4079 9.86831 22.8427C9.9878 19.2972 11.4512 15.9203 13.8836 13.5796C16.3111 11.2421 19.7224 9.92279 23.2482 9.96208C26.7855 9.99973 30.1428 11.4058 32.4606 13.8219C34.5132 15.9596 35.6263 18.6916 35.6787 21.7182C35.7278 24.5926 34.7866 27.5111 33.027 29.9403ZM21.099 41.423L16.7154 45.6396C16.4617 45.8851 16.1769 46.0914 15.8642 46.2584C15.5516 46.4237 15.2226 46.5448 14.8772 46.6185C14.5302 46.6921 14.1815 46.7167 13.8279 46.6938C13.4744 46.6692 13.1323 46.5972 12.7983 46.4777C12.466 46.3582 12.155 46.1945 11.8686 45.9866C11.5805 45.7804 11.3268 45.5381 11.1074 45.2599C10.8881 44.9832 10.7097 44.6804 10.5738 44.353C10.4396 44.0256 10.3512 43.6852 10.3103 43.3332L9.51638 36.4223C12.6035 39.5046 16.6745 41.2577 21.099 41.423ZM6.1002 13.1704L6.4194 15.9596C5.69262 17.2053 5.06733 18.5017 4.54516 19.8472C4.02136 21.1927 3.60887 22.571 3.30604 23.9836C3.00322 25.3946 2.81498 26.822 2.73804 28.2641C2.66275 29.7062 2.70039 31.145 2.85426 32.5805C2.94102 33.3892 3.06542 34.1912 3.2242 34.9884C3.38461 35.7856 3.58104 36.5729 3.81184 37.3521C4.04264 38.1312 4.30782 38.8989 4.60737 39.6552C4.90855 40.4098 5.24248 41.1496 5.60914 41.8748C5.9758 42.5999 6.37356 43.3071 6.80406 43.9962C7.23456 44.6853 7.69617 45.3548 8.18723 46.0014C8.67666 46.6496 9.19555 47.2732 9.74391 47.874C10.2906 48.4747 10.8635 49.0492 11.4626 49.5992C12.0601 50.1476 12.6838 50.6681 13.3287 51.1608C13.9736 51.6535 14.6415 52.1168 15.329 52.5489C16.0164 52.981 16.7203 53.3821 17.4438 53.7504C18.1673 54.1187 18.9072 54.4542 19.6602 54.7554C20.4148 55.0582 21.1792 55.3251 21.9583 55.5575C22.7359 55.7916 23.5216 55.988 24.3171 56.15C25.1126 56.3121 25.9147 56.4365 26.7217 56.5265C27.5287 56.6149 28.3373 56.6689 29.1492 56.6853C29.3325 56.6886 29.5158 56.6902 29.6975 56.6902C30.3556 56.6902 31.0103 56.6657 31.6667 56.6166C32.3215 56.5691 32.9729 56.4971 33.6228 56.4005C34.2726 56.3039 34.9192 56.1844 35.5592 56.042C36.2009 55.898 36.836 55.731 37.4645 55.5411C38.0947 55.3529 38.7151 55.1401 39.329 54.9044C39.9428 54.6687 40.5468 54.4117 41.141 54.1334C41.7352 53.8535 42.3195 53.5523 42.8925 53.2315C43.4654 52.909 44.0252 52.5669 44.5735 52.2035C45.1219 51.8401 45.6555 51.4571 46.1744 51.0561C46.6949 50.6534 47.1991 50.2327 47.6885 49.794C48.178 49.3553 48.651 48.8986 49.1077 48.4256C49.5628 47.9525 50.0014 47.4631 50.4221 46.9573C50.8412 46.4515 51.2422 45.931 51.6252 45.3957C52.0083 44.8621 52.37 44.3137 52.7121 43.7523C53.0542 43.1908 53.3767 42.6179 53.6762 42.0319C53.9774 41.4476 54.2557 40.8517 54.5143 40.2477C54.7713 39.6421 55.0054 39.0282 55.2182 38.4046C55.431 37.7826 55.6209 37.154 55.7862 36.5173C55.9532 35.8805 56.0956 35.2388 56.2167 34.5923C56.3362 33.9457 56.4311 33.2959 56.5048 32.6411C56.5768 31.988 56.6243 31.3316 56.6488 30.6752C56.6734 30.0172 56.675 29.3592 56.6505 28.7028C56.6276 28.0447 56.5801 27.39 56.5097 26.7352C56.4377 26.0821 56.3427 25.4306 56.2249 24.7841C56.1054 24.1375 55.963 23.4942 55.7977 22.8591C55.6323 22.2223 55.4441 21.5921 55.2329 20.9685C55.0218 20.3465 54.7877 19.7326 54.5307 19.127C54.2753 18.5213 53.9971 17.9255 53.6975 17.3395C53.398 16.7535 53.0771 16.1806 52.735 15.6192C52.3946 15.0561 52.0328 14.5077 51.6514 13.9724C51.27 13.4372 50.869 12.915 50.4499 12.4092C50.0309 11.9034 49.5939 11.4124 49.1372 10.9393C48.1321 9.88351 47.0469 8.91775 45.8814 8.04038C44.7176 7.16301 43.4899 6.38549 42.1984 5.70945C40.9086 5.03178 39.5712 4.46542 38.188 4.00709C36.8032 3.54877 35.3923 3.20666 33.9534 2.98077C32.5555 2.75979 31.1478 2.64848 29.7335 2.64684C28.3176 2.64521 26.9099 2.75488 25.512 2.97258C24.1141 3.19192 22.7408 3.51766 21.3936 3.95144C20.0465 4.38521 18.7402 4.92047 17.4766 5.55886L14.6382 5.10872C15.1456 4.79443 15.6629 4.49488 16.1883 4.21334C16.7138 3.93016 17.2474 3.66335 17.7892 3.41454C18.331 3.1641 18.881 2.93166 19.4375 2.71559C19.9941 2.49952 20.5555 2.29982 21.1235 2.11813C21.6932 1.93643 22.2661 1.77275 22.8439 1.62543C23.4234 1.47974 24.0061 1.35043 24.5921 1.24076C25.1781 1.12945 25.7674 1.03615 26.3599 0.962488C26.9508 0.887191 27.545 0.831537 28.1409 0.793889C28.7367 0.754604 29.3325 0.734961 29.9283 0.733324C30.5258 0.731687 31.1216 0.748056 31.7174 0.784068C32.3133 0.818443 32.9075 0.870822 33.5 0.942845C34.0909 1.01487 34.6818 1.10326 35.2678 1.21129C35.8555 1.31933 36.4382 1.44373 37.0177 1.58778C37.5971 1.73182 38.1717 1.89224 38.7413 2.07066C39.3093 2.24908 39.874 2.44551 40.4306 2.6583C40.9888 2.87109 41.5387 3.1019 42.0822 3.34743C42.6256 3.5946 43.1609 3.85814 43.688 4.13804C44.2151 4.41795 44.7339 4.71423 45.243 5.02524C45.7521 5.33624 46.2513 5.66362 46.7408 6.00573C47.2302 6.34784 47.7082 6.70468 48.1747 7.07625C48.6428 7.44782 49.0979 7.83249 49.5415 8.23189C49.9851 8.63129 50.4172 9.04379 50.8346 9.47101C51.2537 9.8966 51.6596 10.3353 52.0508 10.7854C52.442 11.2356 52.8202 11.6988 53.1835 12.1719C53.5469 12.6466 53.8956 13.1311 54.2295 13.6254C54.5634 14.1214 54.881 14.6256 55.1838 15.1412C55.4866 15.6568 55.7747 16.179 56.0448 16.7126C56.3165 17.2446 56.5703 17.7847 56.8076 18.3331C57.0466 18.8815 57.2676 19.4347 57.4706 19.9978C57.6752 20.5593 57.8618 21.1256 58.0304 21.6985C58.199 22.2714 58.3512 22.8493 58.4854 23.432C58.6196 24.0147 58.7342 24.6007 58.8324 25.19C58.9306 25.7793 59.0109 26.3702 59.0731 26.9644C59.1353 27.5602 59.1778 28.1544 59.204 28.7519C59.2286 29.3493 59.2367 29.9468 59.2253 30.5443C59.2138 31.1417 59.1844 31.7376 59.1369 32.3334C59.0894 32.9292 59.024 33.5234 58.9388 34.1143C58.8554 34.7052 58.7539 35.2945 58.6327 35.8789C58.5132 36.4649 58.3757 37.046 58.2202 37.6238C58.0647 38.2 57.8912 38.7712 57.7014 39.3376C57.5115 39.904 57.3036 40.4638 57.0793 41.017C56.8534 41.5703 56.6128 42.117 56.3542 42.6556C56.0972 43.1941 55.8222 43.7245 55.5308 44.2466C55.2411 44.7688 54.935 45.2811 54.6125 45.7853C54.2917 46.2878 53.9545 46.7805 53.6026 47.2634C53.2507 47.7446 52.884 48.2161 52.5026 48.676C52.1212 49.136 51.7267 49.5845 51.3191 50.0199C50.9099 50.4553 50.4892 50.8793 50.0555 51.2885C49.6217 51.6994 49.1748 52.0955 48.7165 52.4769C48.2582 52.8599 47.7884 53.2282 47.3071 53.5818C46.8275 53.9353 46.3365 54.2742 45.8339 54.5983C45.333 54.9224 44.8207 55.2301 44.3018 55.5215C43.7813 55.8145 43.2509 56.0895 42.714 56.3497C42.1771 56.61 41.6321 56.8523 41.0804 57.0798C40.5272 57.3057 39.969 57.5152 39.4043 57.7067C38.8395 57.8999 38.2683 58.0734 37.6937 58.2305C37.1175 58.3877 36.5381 58.5284 35.9537 58.6496C35.3693 58.7707 34.7817 58.8738 34.1908 58.9606C33.6015 59.0457 33.0089 59.1128 32.4131 59.1619C31.8189 59.211 31.2231 59.2421 30.6273 59.2552C30.0298 59.2683 29.434 59.2618 28.8382 59.2372C28.2407 59.2143 27.6465 59.1717 27.0523 59.1112C26.4598 59.0506 25.8689 58.972 25.2796 58.8755C24.6903 58.7789 24.1043 58.6643 23.5232 58.5317C22.9421 58.3991 22.3643 58.2485 21.7914 58.0816C21.2185 57.913 20.6521 57.728 20.0907 57.525C19.5292 57.3221 18.9743 57.1027 18.4276 56.8654C17.8792 56.628 17.3391 56.3743 16.8071 56.1059C16.2751 55.8358 15.7513 55.5493 15.2357 55.2465C14.7217 54.9453 14.2159 54.6277 13.7215 54.2938C13.2256 53.9615 12.741 53.6129 12.2663 53.2511C11.7917 52.8877 11.33 52.5113 10.8783 52.12C10.4281 51.7288 9.98944 51.3245 9.56221 50.9055C9.13662 50.4881 8.72249 50.0576 8.32309 49.614C7.92369 49.1704 7.53739 48.7153 7.16582 48.2472C6.79261 47.7807 6.43576 47.3027 6.09202 46.8133C5.74991 46.3255 5.42253 45.8262 5.10989 45.3171C4.79724 44.8081 4.50097 44.2892 4.22106 43.7621C3.93952 43.235 3.67598 42.6998 3.42717 42.1563C3.18 41.6112 2.9492 41.0612 2.73477 40.5031C2.52034 39.9465 2.32227 39.3818 2.14385 38.8122C1.9638 38.2425 1.80175 37.668 1.65606 37.0885C1.51202 36.5091 1.38598 35.9247 1.27631 35.3371C1.16827 34.7494 1.07661 34.1601 1.00458 33.566C0.930923 32.9734 0.876905 32.3792 0.840894 31.7817C0.803246 31.1859 0.78524 30.5885 0.78524 29.991C0.786877 29.3935 0.804882 28.7961 0.840894 28.2002C0.878542 27.6044 0.93256 27.0086 1.00622 26.416C1.07824 25.8235 1.16991 25.2326 1.27958 24.6449C1.38761 24.0573 1.51529 23.4746 1.65934 22.8951C1.80502 22.3156 1.96707 21.7395 2.14713 21.1698C2.32719 20.6002 2.52361 20.0371 2.73804 19.4789C2.95247 18.9224 3.18491 18.3708 3.43208 17.8273C3.68089 17.2839 3.94443 16.7486 4.22597 16.2215C4.50751 15.6944 4.80379 15.1772 5.11644 14.6681C5.42908 14.159 5.75646 13.6598 6.1002 13.1704Z" fill="#898989"/>
</svg>
