<svg width="1024" height="768" viewBox="0 0 1024 768" fill="none" xmlns="http://www.w3.org/2000/svg">
<mask id="mask0_758_150" style="mask-type:luminance" maskUnits="userSpaceOnUse" x="307" y="241" width="411" height="287">
<path d="M307.198 241.151H717.198V527.151H307.198V241.151Z" fill="white"/>
</mask>
<g mask="url(#mask0_758_150)">
<path fill-rule="evenodd" clip-rule="evenodd" d="M307.864 365.609L307.526 364.63C307.307 363.927 307.286 363.177 307.5 362.484C307.406 361.276 307.359 360.062 307.359 358.849C307.359 345.203 313.437 332.161 324.635 320.365C340.458 303.656 366.724 289.375 399.729 279.391C410.781 262.125 430.119 250.667 452.093 250.667C465.547 250.667 477.974 254.948 488.151 262.214C499.52 249.302 516.187 241.156 534.729 241.156C556.974 241.156 576.505 252.891 587.479 270.5C632.526 278.667 669.651 293.984 692.307 313.24C708.255 326.812 717.125 342.406 717.125 358.849C717.125 360.516 717.026 362.177 716.854 363.828C716.833 363.875 716.833 363.917 716.833 363.964C716.104 370.323 714.067 376.526 710.823 382.51L704.109 402.958C679.828 477.062 610.672 527.167 532.692 527.167H486.531C411.531 527.167 345.015 478.969 321.656 407.682L312.979 381.229C310.385 376.161 308.64 370.943 307.864 365.609ZM394.906 288.542C366.578 297.911 343.922 310.573 329.89 325.365C320.125 335.656 314.625 346.943 314.625 358.849C314.625 360.255 314.698 361.656 314.843 363.052C314.843 363.078 314.869 363.109 314.869 363.135C314.895 363.411 314.916 363.682 314.963 363.953L319.692 378.401C324.562 387.635 332.63 396.266 343.343 404.078C347.677 398.823 353.156 393.812 359.625 389.125C354.463 380.078 351.531 369.609 351.531 358.464C351.531 332.099 368.01 309.542 391.198 300.542C392.047 296.375 393.286 292.359 394.906 288.542ZM483.645 267.943C474.729 261.641 463.849 257.938 452.093 257.938C432.25 257.938 414.849 268.505 405.229 284.318C405.208 284.349 405.182 284.385 405.156 284.417C402.614 288.62 400.625 293.193 399.271 298.036C403.875 296.943 408.698 296.365 413.614 296.365C432.25 296.365 448.968 304.578 460.333 317.568C469.859 328.432 475.651 342.641 475.724 358.188C477.807 358.302 479.843 358.51 481.875 358.807C485.994 356.13 489.755 352.911 493.026 349.245C480.494 337.885 472.646 321.479 472.646 303.26C472.646 301.083 472.739 298.943 472.958 296.823C474.052 286.172 477.854 276.312 483.645 267.943ZM582.052 275.594C572.552 259.349 554.89 248.427 534.729 248.427C517.208 248.427 501.625 256.656 491.567 269.448C485.364 277.365 481.27 287.026 480.203 297.573C480.01 299.443 479.916 301.339 479.916 303.26C479.916 320.526 487.911 335.938 500.39 345.99C509.791 353.557 521.739 358.089 534.729 358.089C537.854 358.089 540.906 357.833 543.864 357.333C544.323 356.906 544.807 356.495 545.27 356.083C544.567 352.297 544.177 348.385 544.177 344.391C544.177 331.214 548.297 318.99 555.302 308.932C562.859 298.078 573.812 289.75 586.609 285.474C585.422 282.031 583.896 278.745 582.099 275.651C582.078 275.63 582.078 275.615 582.052 275.594ZM709.661 362.729C709.781 361.443 709.854 360.146 709.854 358.849C709.854 344.333 701.687 330.76 687.583 318.781C675.588 308.568 659.328 299.557 639.922 292.203C657.026 303.271 668.369 322.516 668.369 344.391C668.369 358.865 663.401 372.188 655.088 382.75C665.942 389.172 674.739 396.349 681.088 404.057C691.364 396.589 699.213 388.37 704.135 379.594L709.661 362.729ZM607.958 282.307C602.698 281.005 597.297 279.802 591.771 278.714C592.448 280.302 593.078 281.922 593.635 283.578C597.708 282.734 601.948 282.286 606.26 282.286C606.843 282.286 607.401 282.292 607.958 282.307ZM326.526 399.208L328.562 405.422C350.953 473.719 414.682 519.896 486.531 519.896H532.692C607.547 519.896 673.89 471.807 697.203 400.693L697.567 399.62C683.948 412.943 663.739 424.63 638.755 433.661C613.166 442.906 582.562 449.427 549.099 452.214C542.677 452.75 536.156 453.151 529.541 453.406C529.515 453.406 529.468 453.406 529.442 453.406C523.776 453.625 518.031 453.734 512.239 453.734C474.968 453.734 440.026 449.167 409.979 441.203C409.958 441.198 409.932 441.193 409.885 441.182C373.484 431.521 344.26 416.771 326.526 399.208ZM346.323 406.182C361.854 416.823 382.38 425.844 406.323 432.661C405.984 429.948 405.812 427.177 405.812 424.37C405.812 422.938 405.859 421.51 405.958 420.094C387.349 417.797 371.281 407.255 361.515 392.24C355.505 396.62 350.395 401.286 346.323 406.182ZM395.588 306.672C374.187 314.141 358.802 334.521 358.802 358.464C358.802 386.417 379.76 409.516 406.807 412.875C410.244 393.276 422.291 376.62 438.911 366.99C443.713 364.203 448.896 362.005 454.375 360.49C458.88 359.24 463.604 358.453 468.453 358.188C468.38 344.474 463.265 331.948 454.88 322.359C444.828 310.885 430.067 303.635 413.614 303.635C407.312 303.635 401.255 304.703 395.609 306.672C395.609 306.672 395.609 306.672 395.588 306.672ZM482.047 366.198C478.802 365.646 475.479 365.359 472.088 365.359C472.062 365.359 472.036 365.359 472.015 365.359C466.562 365.37 461.302 366.115 456.312 367.5C451.442 368.844 446.838 370.802 442.573 373.276C426.896 382.359 415.771 398.453 413.515 417.25C413.515 417.25 413.515 417.25 413.515 417.255C413.229 419.589 413.083 421.964 413.083 424.37C413.083 427.906 413.396 431.375 413.979 434.74C442.984 442.208 476.52 446.464 512.239 446.464C517.161 446.464 522.052 446.38 526.901 446.224C528.838 441.38 530.145 436.219 530.755 430.844C530.974 428.719 531.093 426.557 531.093 424.37C531.093 416.229 529.442 408.469 526.442 401.406C525.859 399.99 525.203 398.594 524.5 397.234C516.119 381.125 500.536 369.344 482.047 366.198ZM498.672 353.818C496.416 356.38 493.942 358.76 491.302 360.922C505.453 365.208 517.619 374.115 526.026 385.891C528.234 378.349 531.817 371.396 536.494 365.339C535.916 365.354 535.307 365.359 534.729 365.359C521.281 365.359 508.849 361.083 498.672 353.818ZM592.083 291.411C579.437 294.802 568.557 302.615 561.26 313.094C555.083 321.969 551.448 332.76 551.448 344.391C551.448 346.677 551.593 348.932 551.859 351.151C556.781 347.953 562.182 345.427 567.927 343.714C569.963 343.104 572.047 342.599 574.177 342.198C577.911 341.5 581.739 341.135 585.661 341.135C613.067 341.135 636.359 358.927 644.593 383.583C654.776 373.63 661.099 359.74 661.099 344.391C661.099 314.125 636.526 289.557 606.26 289.557C601.364 289.557 596.614 290.203 592.109 291.411C592.083 291.411 592.083 291.411 592.083 291.411ZM644.281 423.776C657.198 418.594 668.588 412.677 678.135 406.156C671.932 398.698 663.302 391.781 652.739 385.578C650.849 387.698 648.812 389.693 646.682 391.542C647.385 395.328 647.771 399.234 647.771 403.234C647.771 410.432 646.536 417.344 644.281 423.776ZM549.994 444.844C581.593 442.099 610.552 435.964 634.953 427.302C638.515 420.036 640.5 411.865 640.5 403.234C640.5 399.031 640.015 394.938 639.119 391.005C639.119 390.969 639.119 390.938 639.093 390.906C633.5 366.568 611.687 348.406 585.661 348.406C582.198 348.406 578.807 348.724 575.51 349.344C573.646 349.698 571.802 350.141 570.01 350.677C563.224 352.703 556.994 356 551.593 360.297C551.567 360.318 551.547 360.344 551.52 360.365C550.307 361.318 549.172 362.318 548.057 363.365V363.37C539.354 371.573 533.343 382.578 531.479 394.938C532.062 396.13 532.619 397.339 533.151 398.568C536.494 406.5 538.364 415.219 538.364 424.37C538.364 426.427 538.265 428.458 538.093 430.458C541.224 435.911 545.244 440.776 549.994 444.844ZM534.776 445.891C536.619 445.797 538.458 445.693 540.276 445.578C538.869 444.073 537.536 442.5 536.276 440.865C535.843 442.568 535.359 444.245 534.776 445.891ZM634.807 400.469C634.76 399.469 635.51 398.609 636.526 398.557C637.521 398.505 638.369 399.271 638.442 400.276C638.661 404.781 638.125 409.109 637.786 413.578C637.713 414.583 636.843 415.328 635.849 415.255C634.854 415.177 634.104 414.302 634.177 413.302C634.489 408.984 635.026 404.818 634.807 400.469ZM539.427 428.703C538.849 427.88 539.041 426.745 539.864 426.177C540.687 425.604 541.828 425.807 542.411 426.63C545.974 431.75 550.453 436.656 555.666 440.141C556.51 440.698 556.729 441.828 556.172 442.661C555.614 443.495 554.5 443.719 553.651 443.167C548.057 439.432 543.234 434.193 539.427 428.703ZM612.901 362.698C612.099 362.094 611.932 360.953 612.536 360.151C613.14 359.349 614.281 359.193 615.083 359.792C625.38 367.536 632.963 377.583 636.916 389.333C637.255 390.281 636.744 391.318 635.776 391.635C634.828 391.958 633.786 391.443 633.474 390.495C629.765 379.432 622.567 369.99 612.901 362.698ZM427.911 394.984C427.38 395.844 426.265 396.115 425.416 395.594C424.541 395.078 424.276 393.958 424.786 393.099C429.073 386.047 435.692 379.807 442.864 375.771C443.734 375.281 444.849 375.589 445.333 376.464C445.817 377.339 445.531 378.448 444.63 378.938C438.015 382.677 431.864 388.448 427.911 394.984ZM510.932 388.693C510.229 387.974 510.255 386.823 510.979 386.125C511.682 385.427 512.843 385.448 513.547 386.167C525.01 398.052 528.812 417.776 527.385 433.724C527.286 434.724 526.39 435.458 525.395 435.37C524.406 435.276 523.677 434.396 523.75 433.396C525.109 418.422 521.713 399.854 510.932 388.693ZM613.484 295.698C612.536 295.422 611.953 294.417 612.244 293.453C612.51 292.49 613.531 291.927 614.474 292.198C628.265 296.12 637.083 302.339 646.729 312.557C647.432 313.286 647.385 314.443 646.656 315.13C645.927 315.818 644.765 315.786 644.088 315.052C634.927 305.349 626.593 299.417 613.484 295.698ZM648.932 323.115C648.5 322.214 648.838 321.125 649.734 320.677C650.63 320.224 651.744 320.589 652.182 321.484C654.338 325.771 655.26 330.182 656.276 334.818C656.494 335.797 655.864 336.766 654.896 336.979C653.901 337.193 652.932 336.573 652.713 335.589C651.771 331.26 650.942 327.125 648.932 323.115ZM367.817 380.5C367.38 379.594 367.765 378.505 368.666 378.073C369.562 377.641 370.651 378.026 371.088 378.932C373.317 383.625 375.5 387.818 379.401 391.375C380.151 392.047 380.198 393.198 379.52 393.943C378.864 394.682 377.703 394.74 376.953 394.062C372.687 390.177 370.265 385.63 367.817 380.5ZM364.906 339.885C365.198 338.917 366.192 338.37 367.161 338.651C368.13 338.932 368.666 339.943 368.395 340.906C365.635 350.344 364.859 361.505 367.911 370.979C368.229 371.932 367.692 372.958 366.75 373.266C365.807 373.578 364.765 373.052 364.474 372.099C361.177 361.953 361.953 349.99 364.906 339.885ZM492.807 273.568C493.338 272.724 494.453 272.469 495.302 273C496.151 273.536 496.416 274.656 495.885 275.51C487.427 288.943 487.401 302.87 491.135 317.99C491.375 318.964 490.77 319.948 489.802 320.188C488.833 320.432 487.838 319.833 487.593 318.859C483.619 302.734 483.791 287.901 492.807 273.568ZM492.078 330.88C491.52 330.042 491.765 328.917 492.588 328.359C493.437 327.802 494.552 328.031 495.109 328.87C497.312 332.188 499.422 335.365 502.088 338.344C502.739 339.094 502.692 340.245 501.942 340.911C501.192 341.578 500.026 341.516 499.375 340.766C496.588 337.651 494.38 334.344 492.078 330.88ZM462.781 260.385C463.776 260.5 464.505 261.401 464.38 262.396C464.26 263.396 463.364 264.109 462.369 263.995C449.672 262.516 437.604 265.583 427.307 273.182C426.484 273.776 425.343 273.604 424.76 272.797C424.156 271.99 424.328 270.849 425.151 270.255C436.198 262.099 449.161 258.797 462.781 260.385ZM417.661 276.516C418.364 275.818 419.526 275.833 420.229 276.557C420.932 277.276 420.911 278.427 420.182 279.125C418.557 280.708 416.838 282.302 415.552 284.203C414.974 285.031 413.859 285.25 413.031 284.688C412.187 284.13 411.968 282.995 412.526 282.167C413.953 280.062 415.843 278.271 417.661 276.516Z" fill="#002C1F"/>
</g>
</svg>
