<svg width="74" height="60" viewBox="0 0 74 60" fill="none" xmlns="http://www.w3.org/2000/svg">
<mask id="mask0_127_1371" style="mask-type:luminance" maskUnits="userSpaceOnUse" x="0" y="0" width="74" height="60">
<path d="M0.0579834 0H73.9421V60H0.0579834V0Z" fill="white"/>
</mask>
<g mask="url(#mask0_127_1371)">
<path d="M12.0768 14.8136C12.6628 14.0985 13.3888 13.5835 14.2568 13.2669C17.3648 11.9913 20.6002 11.3089 23.9593 11.2216C24.8691 11.1906 25.7808 11.2216 26.6833 11.1543C28.2064 11.0942 29.7058 11.2598 31.1798 11.6456C33.7109 12.1933 39.9961 13.5544 40.5911 13.6381C49.2327 14.8646 53.9056 11.7766 55.8345 12.186C56.1384 12.2442 56.4368 12.2242 56.7297 12.126C57.0245 12.0259 57.2738 11.8603 57.4795 11.6292C58.1254 11.0669 58.6477 10.4045 59.0444 9.64575C59.8032 8.06627 60.8204 6.63055 61.4573 4.97829C62.0923 3.51346 62.9949 2.23605 64.1649 1.14606C64.6945 0.622 65.3259 0.289 66.0592 0.148885C66.2412 0.096115 66.4213 0.103394 66.5978 0.172541C66.7743 0.241689 66.9126 0.356328 67.0109 0.518279C69.2636 4.23769 63.6372 8.18455 65.0384 9.48562C65.3968 9.81498 65.8299 9.60026 66.2393 9.48562C69.0198 8.73955 68.9106 8.6977 71.5801 8.58488C72.0932 8.57396 72.5281 8.75229 72.8866 9.11986C72.9758 9.20357 73.0595 9.29091 73.1359 9.38553C73.2141 9.47834 73.2851 9.5766 73.3524 9.6785C73.418 9.7804 73.478 9.88594 73.5308 9.99512C73.5854 10.1043 73.6309 10.2153 73.6709 10.3299C73.7127 10.4446 73.7455 10.561 73.771 10.6793C73.7983 10.7976 73.8165 10.9177 73.8292 11.0396C73.8401 11.1597 73.8456 11.2816 73.8438 11.4017C73.8401 11.5236 73.831 11.6456 73.8146 11.7657C73.7964 11.8858 73.7728 12.004 73.7419 12.1223C73.7109 12.2388 73.6727 12.3534 73.629 12.4681C73.5835 12.5809 73.5326 12.6901 73.4744 12.7974C73.4161 12.903 73.3524 13.0067 73.2833 13.1068C73.2123 13.205 73.1359 13.2996 73.0558 13.3906C72.974 13.4798 72.8866 13.5653 72.7956 13.6454C72.7046 13.7254 72.6082 13.8001 72.5081 13.8674C72.408 13.9365 72.3043 13.9984 72.1951 14.0548C71.531 14.3733 70.8322 14.557 70.0989 14.608C69.3637 14.6589 68.645 14.5734 67.9444 14.3496C63.8064 13.2378 62.085 11.8912 59.4156 13.5071L58.1236 14.2695C56.9863 17.7997 55.5433 21.2534 54.4934 24.8546C52.7774 30.7521 50.3409 36.3385 47.1874 41.6119C45.9464 43.6809 44.6562 45.7607 42.8038 47.3693C41.7757 48.9706 40.1216 49.9897 38.9789 51.4836C38.7241 51.7475 38.4439 51.9804 38.1345 52.1787C37.5195 52.6682 36.9008 53.1523 36.2803 53.6326C33.4489 55.8435 30.0497 57.8434 23.3606 59.6212C21.6283 60.0361 19.8887 60.0816 18.1382 59.7595C16.3167 59.4665 14.6298 58.8223 13.0758 57.827C9.74767 55.7507 7.05638 55.1357 5.74621 49.9041C4.63257 45.4532 5.32405 42.378 3.42067 38.7896C1.18248 34.5443 -0.109487 31.833 0.476447 27.2547C0.898611 24.0448 3.53895 19.6448 7.22561 17.5686C8.22642 17.0081 9.18721 16.3803 10.1789 15.7817C10.2426 15.849 10.3008 15.9163 10.3591 15.9891C10.3591 16.1056 10.3591 16.2239 10.33 16.3458C10.9086 16.7679 12.3935 15.8545 17.0791 17.383C17.3666 17.4758 17.6614 17.5468 17.9489 17.6359C21.7029 18.7732 24.3633 21.2316 27.333 23.6408C31.7457 27.2711 39.7176 33.1886 40.915 38.7095C41.8139 42.842 41.1297 45.5551 40.8131 48.2246L40.7166 48.2919C42.913 46.3103 44.76 44.0448 46.2557 41.4936C49.3528 36.2784 51.7912 30.7703 53.569 24.971C56.2766 16.0473 56.142 17.9216 56.9426 15.4232C57.0154 15.1885 57.0264 14.9501 56.9754 14.7081C56.9245 14.4679 56.8189 14.255 56.657 14.0675C55.5506 12.61 54.548 13.0231 53.4416 13.3852C51.1142 14.0675 48.7432 14.5206 46.3267 14.7426C44.8036 14.9264 40.2872 14.4297 39.9997 14.3678C28.5176 11.924 28.6104 11.6165 24.305 11.9749C17.252 12.5645 17.6323 12.7574 12.0514 14.7881L12.0768 14.8136ZM40.4091 40.4491C40.2945 38.8478 39.8032 37.3721 38.937 36.0182C38.009 34.5188 36.9135 33.1541 35.6507 31.9203C33.9293 30.3117 32.277 28.6104 30.37 27.2074C27.1892 24.8964 21.8503 19.8505 19.1117 18.9752C17.4249 18.4348 15.7708 17.8798 14.0512 17.4885C12.3298 17.0955 9.68034 17.3029 8.98887 17.5813C7.55861 18.1291 6.29393 18.937 5.19303 20.0015C2.0723 23.1568 0.603824 26.9181 1.23161 31.3744C1.63376 34.1112 1.95402 34.0985 4.33597 38.8697C6.37036 42.9312 5.20941 44.5561 6.63603 50.1753C7.18375 52.3443 8.25008 54.2131 10.2918 55.3632C11.924 56.2875 13.5599 57.2028 15.203 58.109C17.0154 59.108 19.0407 59.108 21.0278 59.2918C21.2098 59.2973 21.3881 59.27 21.5628 59.2118C24.3342 58.4966 30.6229 57.5286 37.5905 51.4964C38.1909 50.9777 38.6677 50.3627 39.0207 49.653C40.531 46.6833 40.6712 43.7609 40.4091 40.4491ZM66.4468 1.14243C66.1884 1.0387 65.9245 1.01869 65.6534 1.07874C65.3823 1.13879 65.1512 1.2698 64.9619 1.47179C64.114 2.17418 63.4261 3.00759 62.8948 3.97201C60.1525 9.27089 59.3901 11.4945 57.1082 12.9102C57.1082 13.3306 57.3321 13.4616 57.5886 13.3597C58.3238 13.0849 59.0407 12.7665 59.7395 12.408C60.249 12.1241 60.7931 11.9494 61.3717 11.8839C61.9522 11.8184 62.5218 11.8694 63.0804 12.0332C64.5944 12.4335 66.1265 12.8211 67.5986 13.3561C68.6431 13.7218 69.7131 13.8164 70.8085 13.6417C71.2052 13.5926 71.5746 13.4616 71.9167 13.2505C72.257 13.0376 72.5372 12.7647 72.7574 12.4298C73.5326 11.2671 72.7137 9.48198 71.3308 9.44376C68.4703 9.33822 66.536 10.4591 65.4896 10.5392C65.3605 10.5538 65.2331 10.5519 65.1057 10.5337C64.9765 10.5155 64.8528 10.481 64.7345 10.4318C64.6144 10.3827 64.5034 10.319 64.4015 10.2408C64.2978 10.1625 64.2068 10.0734 64.1267 9.97147C64.0466 9.87139 63.9811 9.76039 63.9302 9.64211C63.8774 9.52383 63.841 9.40191 63.821 9.27453C63.801 9.14716 63.7974 9.01978 63.8101 8.89058C63.821 8.76321 63.8501 8.63765 63.8938 8.51755C64.1012 7.88613 65.8226 5.09293 66.1338 4.58706C66.8144 3.49162 67.0964 2.3889 66.4468 1.14243Z" fill="#898989"/>
</g>
<path d="M10.1572 15.798C10.3956 15.5087 10.6813 15.2794 11.0143 15.1083C11.3491 14.9355 11.7021 14.839 12.077 14.8136L12.0515 14.7881C11.6803 15.4741 10.947 15.6306 10.3392 16.0054C10.2791 15.9345 10.2209 15.8672 10.1572 15.798Z" fill="#898989"/>
<path d="M7.57692 44.8763C8.80702 40.2434 8.89618 40.3144 9.04904 39.2917C9.94613 33.2395 5.67355 31.862 5.85551 26.8834C5.8446 26.2465 6.05932 25.697 6.49604 25.233C7.60604 24.1212 8.67236 22.9511 10.1536 22.2851C11.0307 21.9012 11.8622 21.661 12.5028 22.3597C13.2798 23.2022 14.0932 24.0447 14.5481 25.1183C16.5224 29.8313 21.3609 30.8685 22.6929 33.1376C23.2079 33.9983 23.9267 34.6261 24.8492 35.021C28.2484 36.504 29.695 39.4464 30.5212 42.771C30.6049 43.0876 30.654 43.4097 30.6685 43.7372C30.6849 44.0629 30.6685 44.3886 30.6158 44.7125C30.5648 45.0364 30.4829 45.3513 30.3665 45.657C30.25 45.9627 30.1045 46.2538 29.9298 46.5304C29.7533 46.807 29.5513 47.0636 29.322 47.2983C29.0945 47.533 28.8434 47.7423 28.5723 47.9261C28.3012 48.1099 28.0136 48.2645 27.7098 48.3883C27.4077 48.5138 27.0947 48.6066 26.7726 48.6667C24.882 49.087 23.0441 49.7021 21.0898 49.8295C20.5457 49.8986 20.0198 50.0387 19.514 50.2498C18.1929 50.7211 16.8008 50.8649 15.4379 51.1214C13.136 51.5436 10.3392 49.3745 8.74515 47.6986C8.35574 47.3329 8.05913 46.9053 7.85533 46.4121C7.65153 45.9208 7.55873 45.4077 7.57692 44.8763ZM14.7464 50.4063C15.8018 50.1989 16.9901 49.9841 18.171 49.733C19.1755 49.5128 20.1545 49.1125 21.1662 49.0124C23.0478 48.8268 24.8329 48.2372 26.6507 47.8333C29.0035 47.311 29.9607 45.2421 29.7041 43.3514C29.5749 42.2305 29.2729 41.1587 28.7961 40.1361C28.3175 39.1134 27.6897 38.1927 26.9109 37.3756C25.1913 35.5942 23.2115 35.656 21.9814 33.4961C20.8623 31.529 15.8437 30.2443 13.9458 25.6297C13.4963 24.6925 12.9104 23.85 12.1898 23.1021C12.0351 22.9056 11.8368 22.7746 11.5966 22.7073C11.3546 22.6399 11.118 22.6509 10.8833 22.74C10.583 22.7928 10.3028 22.8947 10.0389 23.0475C8.121 24.5124 6.28132 25.6624 6.72896 28.0043C6.9273 29.0361 7.23118 30.2625 8.54135 32.5098C12.5319 39.3718 6.75807 44.1357 9.16549 46.9689C10.3992 48.4374 11.9168 49.5056 13.7183 50.1697C14.0495 50.2716 14.3861 50.3517 14.73 50.4063H14.7464Z" fill="#898989"/>
<path d="M16.6115 47.2349C15.7216 47.2021 14.8991 46.9547 14.1385 46.4943C12.5445 45.6045 12.6045 44.1433 12.9412 42.3327C13.5362 39.1446 14.2059 38.0455 13.4689 36.3132C13.1814 35.649 12.9412 34.9667 12.6919 34.2879C12.3516 33.3526 12.0768 32.7685 12.2715 31.8459C12.6209 30.0808 14.1221 29.5204 15.556 30.3502C16.2057 30.7923 16.7989 31.3 17.3357 31.8714C17.5067 32.0461 17.6487 32.2426 17.7579 32.461C20.7876 37.607 25.8645 39.0264 26.021 42.6984C26.101 44.5854 24.6508 43.3008 20.2089 46.4088C19.2645 47.0748 18.0526 47.1767 16.6115 47.2349ZM20.2635 45.5044C21.4991 44.4981 22.8784 43.7684 24.4051 43.3135C25.1093 43.1206 25.2749 42.5893 24.9874 41.865C23.8483 38.9918 19.7413 37.0593 17.6832 33.6474C16.4168 31.5002 14.0767 29.8952 13.2451 31.3655C12.9812 31.8023 12.9121 32.2681 13.034 32.763C13.1523 33.2307 13.2869 33.6984 13.4561 34.1533C15.0338 38.5259 15.0174 36.719 13.7546 42.9186C13.4762 44.2743 13.5908 45.3697 14.9064 46.0048C15.5779 46.3287 18.897 46.5689 20.2635 45.5044Z" fill="#898989"/>
</svg>
