<svg width="1024" height="768" viewBox="0 0 1024 768" fill="none" xmlns="http://www.w3.org/2000/svg">
<mask id="mask0_758_80" style="mask-type:luminance" maskUnits="userSpaceOnUse" x="358" y="230" width="308" height="308">
<path d="M358.667 230.667H665.333V537.401H358.667V230.667Z" fill="white"/>
</mask>
<g mask="url(#mask0_758_80)">
<path d="M643.641 461.834C657.271 438.651 664.547 412.172 664.547 384.568C664.547 343.761 648.667 305.396 619.823 276.537C590.984 247.683 552.641 231.792 511.854 231.792C484.26 231.792 457.797 239.073 434.625 252.709L417.667 235.74C412.417 230.485 403.87 230.485 398.62 235.74L363.099 271.276C357.849 276.532 357.849 285.078 363.099 290.334L380.062 307.302C366.432 330.485 359.156 356.964 359.156 384.568C359.156 425.375 375.036 463.74 403.88 492.594C432.719 521.448 471.062 537.339 511.854 537.339C539.443 537.339 565.906 530.063 589.078 516.427L606.036 533.396C608.661 536.021 612.115 537.334 615.562 537.334C619.01 537.334 622.458 536.021 625.083 533.396L660.604 497.854C665.854 492.604 665.854 484.058 660.604 478.802L643.641 461.834ZM366.526 286.901C363.167 283.542 363.167 278.068 366.526 274.709L402.047 239.167C405.406 235.808 410.875 235.808 414.24 239.167L430.365 255.302C420.885 261.308 412.005 268.407 403.88 276.537C395.75 284.667 388.656 293.552 382.651 303.037L366.526 286.901ZM511.854 532.49C430.328 532.49 364 466.131 364 384.568C364 303 430.328 236.641 511.854 236.641C593.375 236.641 659.703 303 659.703 384.568C659.703 466.131 593.375 532.49 511.854 532.49ZM657.177 494.427L621.656 529.964C618.297 533.328 612.828 533.328 609.469 529.964L593.344 513.834C602.818 507.823 611.698 500.724 619.828 492.594C627.953 484.464 635.047 475.578 641.052 466.099L657.177 482.229C660.536 485.594 660.536 491.063 657.177 494.427Z" fill="#002C1F"/>
</g>
<path d="M511.854 255.906C440.943 255.906 383.255 313.625 383.255 384.568C383.255 455.51 440.943 513.229 511.854 513.229C582.761 513.229 640.448 455.51 640.448 384.568C640.448 313.625 582.761 255.906 511.854 255.906ZM511.854 508.38C443.615 508.38 388.104 452.839 388.104 384.568C388.104 316.297 443.615 260.755 511.854 260.755C580.089 260.755 635.599 316.297 635.599 384.568C635.599 452.839 580.089 508.38 511.854 508.38Z" fill="#002C1F"/>
<path d="M483.729 430.167C482.656 429.365 481.141 429.584 480.339 430.656C479.537 431.729 479.755 433.245 480.828 434.052C492.193 442.563 497.615 457.271 497.667 457.417C498.026 458.401 498.953 459.021 499.948 459.021C500.219 459.021 500.5 458.974 500.771 458.875C502.031 458.422 502.683 457.031 502.229 455.771C501.99 455.115 496.287 439.568 483.729 430.167Z" fill="#002C1F"/>
<path d="M501.193 430.338C500.042 429.651 498.552 430.026 497.864 431.177C497.182 432.328 497.557 433.817 498.703 434.505C508.302 440.234 512.125 449.573 512.156 449.661C512.536 450.614 513.448 451.198 514.411 451.198C514.708 451.198 515.01 451.14 515.302 451.026C516.547 450.531 517.161 449.125 516.667 447.88C516.489 447.437 512.25 436.942 501.193 430.338Z" fill="#002C1F"/>
<path d="M576.86 360.041C576.219 360.317 561.089 367.031 552.537 380.182C551.802 381.307 552.12 382.807 553.245 383.536C553.651 383.802 554.11 383.932 554.563 383.932C555.354 383.932 556.136 383.541 556.599 382.828C564.344 370.921 578.656 364.546 578.797 364.484C580.026 363.947 580.589 362.52 580.052 361.291C579.516 360.067 578.089 359.505 576.86 360.041Z" fill="#002C1F"/>
<path d="M553.719 366.271C554.604 366.271 555.453 365.787 555.88 364.948C560.969 354.995 570.031 350.568 570.12 350.526C571.328 349.954 571.844 348.506 571.271 347.297C570.703 346.084 569.255 345.568 568.047 346.141C567.615 346.344 557.427 351.266 551.563 362.74C550.953 363.933 551.427 365.391 552.62 366C552.974 366.183 553.349 366.271 553.719 366.271Z" fill="#002C1F"/>
<path d="M459.49 377.546C459.698 378.718 460.719 379.541 461.87 379.541C462.011 379.541 462.162 379.526 462.307 379.5C463.62 379.26 464.495 378 464.255 376.682C464.136 376 461.12 359.885 450.958 349.234C450.037 348.265 448.505 348.234 447.531 349.156C446.563 350.078 446.531 351.614 447.453 352.583C456.589 362.166 459.458 377.395 459.49 377.546Z" fill="#002C1F"/>
<path d="M451.464 328.859C460.927 335.698 463.313 346.229 463.334 346.328C463.573 347.468 464.584 348.25 465.703 348.25C465.87 348.25 466.037 348.234 466.209 348.198C467.516 347.922 468.354 346.63 468.073 345.323C467.969 344.817 465.328 332.896 454.297 324.927C453.214 324.146 451.698 324.39 450.917 325.474C450.13 326.562 450.375 328.078 451.464 328.859Z" fill="#002C1F"/>
<path d="M601.406 374.458C601.005 359.198 597.307 345.906 590.635 334.614C590.901 315.068 591.151 296.604 558.526 293.193C547.943 292.088 542.995 288.349 537.755 284.396C533.776 281.396 529.667 278.292 523.135 276.167C514.359 273.307 508.542 276.12 502.911 278.838C498.286 281.073 493.917 283.182 487.609 282.328C471.974 280.208 460.932 280.292 451.151 299.609C440.401 303.51 431.239 312.484 427.109 324.682C426.531 326.375 426.015 328.068 425.547 329.75C421.693 336.401 417.344 341.276 413.5 345.583C406.479 353.448 400.417 360.234 400.417 373.594C400.417 385.739 403.937 391.531 407.338 397.135C409.677 400.989 412.099 404.974 413.536 411.365C414.87 417.312 414.812 423.401 414.76 429.286C414.667 439.182 414.583 448.526 421.182 455.448C426.12 460.63 431.958 462.724 438.135 464.937C443.338 466.802 448.719 468.734 454.312 472.703C460.651 484.25 473.568 492.187 488.453 492.187C498.609 492.187 508.151 490.51 516.417 487.583C520.219 488.349 524.406 488.729 528.792 488.729C547.359 488.729 569.37 481.958 579.724 468.979C587.463 459.281 589.068 452.474 590.479 446.469C591.667 441.437 592.687 437.088 597.094 431.406C613.359 410.406 614.802 391.255 601.406 374.458ZM596.489 372.193C597.698 390.609 584.922 406.495 568.015 407.604C555.75 408.406 544.333 401.266 538.677 389.573C543.755 388.969 546.432 386.713 547.745 385.052C550.265 381.859 550.604 377.437 548.656 373.229C546.864 369.359 542.828 365.208 536.406 363.344C542.104 358.578 544.12 353.021 543.958 348.87C543.838 345.911 542.64 343.323 540.63 341.521C545.781 329.792 553.651 322.786 562.422 322.208C570.364 321.693 578.276 326.479 584.724 335.698C591.396 345.25 595.573 358.208 596.489 372.193ZM493.359 353.953C492.37 345.141 494.25 338.109 498.39 335.146C500.328 333.755 502.552 333.531 504.646 334.516C508.745 336.448 511.521 342.302 512.078 350.182C512.14 351.088 512.708 351.885 513.547 352.245C514.385 352.599 515.354 352.453 516.052 351.87C527.984 341.87 534.375 343.521 536.052 344.26C537.937 345.099 539.026 346.802 539.114 349.062C539.255 352.672 536.635 358.401 528.792 362.641C527.828 363.161 527.333 364.26 527.583 365.328C527.833 366.396 528.765 367.161 529.859 367.198C537.854 367.479 542.542 371.552 544.26 375.266C545.443 377.823 545.328 380.292 543.943 382.047C541.797 384.766 536.844 385.573 530.359 384.26C517.713 381.703 508.078 385.797 503.281 388.614C501.838 383.422 497.156 374.687 482.031 369.755C476.547 367.969 472.911 364.5 472.307 360.479C471.948 358.052 472.807 355.911 474.667 354.604C475.969 353.693 477.614 353.239 479.531 353.239C482.443 353.239 485.974 354.292 489.802 356.354C490.594 356.781 491.557 356.734 492.307 356.229C493.052 355.724 493.458 354.849 493.359 353.953ZM554.297 310.026C555.323 309.01 556.693 308.729 558.062 309.255C560.015 310.005 562.172 312.516 562.984 317.328C559.562 317.292 556.312 318.255 553.161 319.818C551.87 314.802 552.802 311.516 554.297 310.026ZM486.958 287.135C494.713 288.187 500.187 285.542 505.021 283.203C510.219 280.693 514.708 278.526 521.64 280.781C527.396 282.656 531.01 285.38 534.833 288.271C540.375 292.448 546.099 296.771 558.026 298.016C583.588 300.687 585.838 312.505 585.838 329.198C580.5 322.88 574.359 318.953 567.937 317.734C567.125 311.203 564.167 306.406 559.802 304.729C556.661 303.521 553.245 304.234 550.88 306.588C547.51 309.937 546.812 315.792 548.885 322.479C543.906 326.229 539.604 331.927 536.333 339.255C530.958 337.823 523.917 340.016 516.375 345.469C515.015 337.917 511.604 332.432 506.708 330.13C503.844 328.781 500.765 328.719 497.953 329.88C497.187 323.406 494.864 317.396 491.344 312.349C496.734 306.245 499.828 307.588 503.672 309.255C506.307 310.406 509.297 311.703 512.765 310.292C514.448 309.604 516.047 308.786 517.594 308C523.505 304.979 526.755 303.588 530.318 307.552C531.219 308.552 532.75 308.63 533.745 307.734C534.739 306.838 534.818 305.307 533.922 304.307C527.703 297.391 520.875 300.875 515.39 303.677C513.932 304.422 512.427 305.193 510.937 305.797C509.432 306.411 508 305.849 505.599 304.807C501.406 302.984 495.771 300.542 488.276 308.531C484.422 304.349 479.614 301.114 474.13 299.255C468.667 297.401 463.036 297.031 457.614 297.922C465.484 284.979 473.818 285.354 486.958 287.135ZM431.698 326.239C437.776 308.307 456.114 298.26 472.573 303.844C484.568 307.917 492.823 319.641 493.354 333.213C489.953 337.026 488.146 343.068 488.265 350.286C481.765 347.693 475.932 347.786 471.875 350.635C468.51 353.005 466.875 356.953 467.51 361.198C468.234 365.995 471.609 370.161 476.786 372.818C466.469 384.896 454.26 390.292 444.411 386.953C436.677 384.328 431.042 376.677 428.552 365.411C425.974 353.75 427.088 339.838 431.698 326.239ZM430.557 397.229C429.26 397.635 426.338 395.25 424.927 390.719C423.515 386.193 424.557 382.568 425.864 382.161C427.724 381.578 429.599 384.094 431.5 388.672H431.495C432.906 393.198 431.87 396.823 430.557 397.229ZM488.448 487.333C470 487.333 454.989 473.547 454.989 456.594C454.989 439.641 470 425.849 488.448 425.849C502.453 425.849 515.656 429.177 525.614 435.213C535.229 441.042 540.526 448.635 540.526 456.594C540.526 464.552 535.229 472.141 525.614 477.974C515.656 484.01 502.453 487.333 488.448 487.333ZM593.265 428.432C588.213 434.953 586.963 440.245 585.76 445.359C584.401 451.135 582.995 457.104 575.937 465.953C565.76 478.703 543.031 484.849 525.109 483.797C537.489 477.266 545.375 467.495 545.375 456.594C545.375 436.969 519.838 421 488.448 421C467.328 421 450.14 436.969 450.14 456.594C450.14 459.552 450.542 462.422 451.276 465.172C447.229 463.047 443.338 461.651 439.771 460.37C433.901 458.271 428.833 456.453 424.687 452.104C419.448 446.604 419.521 438.599 419.604 429.333C419.661 423.172 419.719 416.797 418.26 410.302C416.656 403.135 413.906 398.609 411.479 394.614C408.146 389.125 405.265 384.38 405.265 373.594C405.265 362.088 410.234 356.521 417.109 348.812C419.01 346.687 421.031 344.422 423.068 341.875C421.26 355.552 422.984 368.187 427.693 377.448C426.604 377.187 425.5 377.198 424.422 377.531C419.911 378.937 418.14 385.229 420.302 392.161C422.177 398.193 426.229 402.13 430.219 402.13C430.818 402.13 431.411 402.042 432 401.859C436.318 400.516 438.114 394.698 436.375 388.125C438.344 389.594 440.505 390.75 442.854 391.547C444.344 392.052 445.87 392.396 447.432 392.588C444.401 401.562 451.969 411.437 452.338 411.911C452.812 412.526 453.526 412.844 454.245 412.844C454.765 412.844 455.292 412.677 455.734 412.333C456.786 411.51 456.979 409.99 456.161 408.932C456.083 408.833 448.88 399.385 452.703 392.656C462.406 391.776 472.745 385.458 481.515 374.713C498.911 380.802 499.073 392.187 499.073 392.713C499.057 393.656 499.594 394.526 500.448 394.932C500.781 395.094 501.14 395.177 501.495 395.177C502.057 395.177 502.609 394.979 503.057 394.609C503.161 394.521 513.755 385.849 529.396 389.016C530.823 389.302 532.146 389.495 533.375 389.609C538.015 400.771 547.125 408.713 557.802 411.458C559.213 424.469 548.01 429.667 547.521 429.891C546.297 430.427 545.745 431.859 546.281 433.083C546.682 433.995 547.568 434.531 548.5 434.531C548.828 434.531 549.156 434.469 549.474 434.328C549.625 434.26 563.604 427.906 562.745 412.338C566.667 412.76 570.187 412.625 573.193 411.755C578.948 426.411 574.38 430.62 569.547 435.052C568.588 435.927 567.599 436.838 566.693 437.818C563.635 441.135 563.734 444.323 563.818 446.885C563.906 449.719 563.958 451.432 559.786 453.776C558.614 454.427 558.203 455.906 558.859 457.073C559.302 457.87 560.125 458.312 560.974 458.312C561.375 458.312 561.781 458.213 562.156 458.005C568.89 454.224 568.765 450.068 568.661 446.734C568.594 444.547 568.542 442.963 570.26 441.104C571.026 440.276 571.896 439.474 572.823 438.625C578.073 433.807 584.552 427.849 577.854 410.38C589.588 405.958 598.338 395.099 600.745 381.937C609.193 395.786 606.724 411.062 593.265 428.432Z" fill="#002C1F"/>
<path d="M479.849 393.224C477.104 394.808 474.854 396.943 473.516 399.235C471.943 401.912 471.745 404.662 472.964 406.776C474.172 408.875 476.625 410.073 479.693 410.073C479.719 410.073 479.74 410.073 479.766 410.073C482.422 410.052 485.396 409.172 488.135 407.589C494.422 403.959 497.385 398.131 495.021 394.037C492.661 389.943 486.135 389.594 479.849 393.224ZM485.714 403.386C483.714 404.542 481.536 405.209 479.734 405.219C478.474 405.245 477.474 404.896 477.161 404.349C476.849 403.808 477.052 402.787 477.698 401.688C478.604 400.131 480.276 398.579 482.271 397.422C486.38 395.052 490.141 395.271 490.823 396.459C491.505 397.646 489.818 401.016 485.714 403.386Z" fill="#002C1F"/>
<path d="M521.505 394.167C517.125 394.167 513.818 399.417 513.818 406.37C513.818 413.328 517.125 418.573 521.505 418.573C525.886 418.573 529.193 413.328 529.193 406.37C529.193 399.417 525.886 394.167 521.505 394.167ZM521.505 413.724C520.531 413.724 518.667 410.86 518.667 406.37C518.667 401.886 520.531 399.021 521.505 399.021C522.479 399.021 524.344 401.886 524.344 406.37C524.344 410.86 522.479 413.724 521.505 413.724Z" fill="#002C1F"/>
<path d="M437.417 427.089C434.422 423.266 432.448 420.74 436.287 414.167C436.964 413.01 436.573 411.526 435.417 410.849C434.261 410.172 432.776 410.563 432.099 411.719C426.599 421.13 430.479 426.094 433.599 430.078C435.667 432.729 437.458 435.016 436.953 438.661C436.771 439.984 437.698 441.214 439.021 441.396C440.422 441.427 441.375 440.802 441.755 439.323C442.542 433.646 439.698 430.01 437.417 427.089Z" fill="#002C1F"/>
<path d="M520.906 322.213C520.854 323.552 521.901 324.677 523.239 324.724C527.531 324.875 531.479 326.156 534.979 328.536C535.396 328.818 535.87 328.953 536.338 328.953C537.114 328.953 537.875 328.583 538.344 327.891C539.099 326.781 538.807 325.276 537.703 324.521C533.437 321.625 528.63 320.062 523.411 319.875C522.088 319.838 520.953 320.875 520.906 322.213Z" fill="#002C1F"/>
</svg>
