<svg width="1024" height="768" viewBox="0 0 1024 768" fill="none" xmlns="http://www.w3.org/2000/svg">
<path d="M422.458 301.719C423.26 301.719 424.057 301.385 424.625 300.729C427.39 297.552 430.541 294.786 433.994 292.516C446.828 284.078 461.052 284.292 468.385 285.172C469.958 285.359 471.39 284.234 471.578 282.661C471.765 281.083 470.64 279.656 469.067 279.469C460.958 278.495 445.203 278.276 430.843 287.714C426.953 290.276 423.401 293.385 420.291 296.958C419.25 298.156 419.38 299.969 420.573 301.01C421.119 301.484 421.791 301.719 422.458 301.719Z" fill="#002C1F"/>
<path d="M493.88 273.813C494.458 273.813 495.041 273.641 495.546 273.276C506.494 265.438 518.614 260.662 531.562 259.083C551.125 256.698 567.338 262.479 577.5 267.745C578.906 268.474 580.64 267.922 581.369 266.516C582.099 265.104 581.552 263.37 580.14 262.641C569.265 257.005 551.885 250.818 530.869 253.38C516.953 255.078 503.942 260.198 492.203 268.604C490.916 269.531 490.614 271.323 491.541 272.615C492.099 273.396 492.984 273.813 493.88 273.813Z" fill="#002C1F"/>
<path d="M619.209 275.005C627.427 273.713 635.229 275.62 640.61 280.229C643.604 282.786 645.865 286.224 647.334 290.437C647.745 291.625 648.86 292.364 650.047 292.364C650.36 292.364 650.677 292.312 650.99 292.208C652.49 291.682 653.276 290.047 652.756 288.547C650.974 283.432 648.063 279.047 644.344 275.864C637.688 270.161 628.203 267.776 618.323 269.328C616.755 269.573 615.683 271.042 615.927 272.609C616.172 274.177 617.641 275.255 619.209 275.005Z" fill="#002C1F"/>
<mask id="mask0_758_119" style="mask-type:luminance" maskUnits="userSpaceOnUse" x="332" y="232" width="364" height="306">
<path d="M332 232H695.323V537.401H332V232Z" fill="white"/>
</mask>
<g mask="url(#mask0_758_119)">
<path d="M678.302 299.828C675.943 295.047 674.052 290.136 672.672 285.235C670.756 278.417 666.558 268.646 657.422 260.823C646.297 251.292 630.907 247.24 615.198 249.703C606.709 251.031 597.985 249.604 590.641 245.677C577.016 238.401 555.162 230.406 528.433 233.662C511.375 235.74 494.797 242.25 480.495 252.49C472.443 258.255 462.74 261.38 452.438 261.531C443.73 261.656 435.344 263.495 427.521 267.005C418.672 270.969 411.006 276.839 404.745 284.448C398.828 291.636 391.094 296.787 382.391 299.344C359.969 305.927 342.141 323.417 335.86 344.979C328.448 370.427 337.339 398.214 358.506 415.781C366.459 422.38 372.797 430.604 376.828 439.568C403.573 498.995 463.219 537.396 528.771 537.401C528.776 537.401 528.776 537.401 528.782 537.401C573.381 537.401 615.344 519.927 646.938 488.198C673.521 461.5 689.865 427.552 694.047 391.042C694.047 391.042 694.047 391.037 694.047 391.031C694.782 384.625 695.151 378.141 695.125 371.599C695.021 346.427 689.36 322.281 678.302 299.828ZM404.297 437.745C403.73 438.495 402.87 438.886 402 438.886C401.401 438.886 400.792 438.698 400.276 438.308C393.792 433.417 386.75 429.255 379.334 425.938C377.886 425.292 377.24 423.589 377.886 422.146C378.532 420.693 380.23 420.047 381.677 420.693C389.49 424.188 396.907 428.568 403.735 433.719C405 434.677 405.25 436.479 404.297 437.745ZM474.703 485.891C474.235 486.979 473.172 487.63 472.063 487.63C471.683 487.63 471.297 487.552 470.927 487.396C452.938 479.646 435.86 468.995 420.167 455.745C418.953 454.719 418.802 452.906 419.823 451.693C420.849 450.479 422.662 450.328 423.87 451.354C439.136 464.24 455.73 474.594 473.198 482.115C474.657 482.745 475.328 484.433 474.703 485.891ZM648.417 473.433C617.422 492.558 581.813 502.662 545.438 502.662C544.146 502.662 542.865 502.651 541.568 502.625C529.12 502.38 516.75 500.927 504.808 498.313C503.261 497.969 502.282 496.438 502.62 494.891C502.959 493.339 504.49 492.36 506.037 492.698C517.615 495.235 529.605 496.646 541.683 496.88C542.943 496.906 544.183 496.917 545.438 496.917C580.745 496.917 615.313 487.104 645.401 468.542C646.75 467.709 648.521 468.13 649.349 469.479C650.188 470.834 649.766 472.604 648.417 473.433ZM542.183 472.052C490.474 471.037 453.313 445.62 431.24 424.479C428.188 421.552 425.011 418.781 421.73 416.167C422.136 415.047 422.594 413.948 423.105 412.88C424.948 409.058 427.459 405.615 430.568 402.651C431.714 401.558 431.756 399.74 430.662 398.589C429.568 397.443 427.75 397.401 426.605 398.495C422.995 401.933 420.078 405.933 417.933 410.386C417.594 411.094 417.276 411.818 416.974 412.547C412.198 409.063 407.203 405.906 402.047 403.073C406.62 393.886 415.167 385.037 426.922 377.365C428.25 376.5 428.625 374.719 427.761 373.391C426.896 372.063 425.115 371.688 423.787 372.552C411.198 380.771 401.98 390.37 396.953 400.417C393.693 398.797 390.37 397.302 386.99 395.948C395.151 379.422 412.334 364.479 435.75 353.63C461.49 341.714 492.506 335.412 525.443 335.412C563.74 335.412 599.813 344.068 627.016 359.781C653.276 374.953 668.24 394.964 669.292 416.224C637.485 452.177 591.183 473 542.183 472.052ZM688.407 389.761C684.224 396.953 679.547 403.75 674.433 410.125C671.12 389.068 655.552 369.636 629.886 354.808C601.823 338.594 564.73 329.667 525.443 329.667C458.412 329.667 399.881 355.959 381.594 393.912C377.469 392.453 373.276 391.193 369.021 390.125C359.974 379.224 356.823 365.078 360.599 352.104C364.464 338.849 375.605 328.042 389.688 323.906C391.209 323.459 392.078 321.865 391.631 320.344C391.188 318.823 389.589 317.948 388.068 318.396C372.131 323.078 359.49 335.375 355.089 350.5C351.391 363.203 353.48 376.854 360.625 388.292C355.032 387.255 349.36 386.563 343.631 386.219C338.506 373.714 337.526 359.802 341.37 346.589C347.11 326.886 363.448 310.896 384.006 304.86C393.823 301.974 402.526 296.183 409.177 288.099C414.87 281.183 421.834 275.849 429.865 272.25C436.974 269.063 444.599 267.386 452.521 267.271C464 267.11 474.828 263.615 483.834 257.162C497.552 247.344 512.792 241.354 529.125 239.365C533.11 238.88 536.974 238.662 540.719 238.662C560.693 238.662 577.073 244.943 587.933 250.745C596.375 255.255 606.375 256.901 616.089 255.38C630.136 253.177 643.839 256.755 653.688 265.188C661.73 272.073 665.443 280.735 667.146 286.792C668.62 292.031 670.641 297.276 673.151 302.37C683.823 324.037 689.282 347.334 689.381 371.625C689.407 377.724 689.068 383.776 688.407 389.761Z" fill="#002C1F"/>
</g>
<path d="M445.375 367.219C445.75 367.219 446.136 367.146 446.505 366.984C453.625 363.927 461.349 361.276 469.469 359.104C471 358.693 471.912 357.114 471.5 355.583C471.089 354.052 469.516 353.14 467.985 353.552C459.599 355.797 451.61 358.542 444.24 361.708C442.781 362.333 442.11 364.021 442.735 365.479C443.203 366.568 444.261 367.219 445.375 367.219Z" fill="#002C1F"/>
<path d="M623.677 370.407C622.958 369.974 622.234 369.542 621.494 369.12C613.921 364.74 605.494 360.901 596.458 357.698C594.968 357.167 593.323 357.953 592.796 359.448C592.265 360.943 593.046 362.584 594.541 363.115C603.25 366.198 611.349 369.891 618.625 374.094C619.328 374.5 620.02 374.912 620.708 375.323C621.171 375.604 621.682 375.74 622.187 375.74C623.161 375.74 624.109 375.245 624.651 374.354C625.468 372.995 625.036 371.229 623.677 370.407Z" fill="#002C1F"/>
<path d="M550.797 449.203C547.119 451.13 537.364 455.297 526.187 452.281C519.265 450.416 513.182 446.25 508.583 440.234C501.64 431.145 490.645 425.093 478.416 423.63C464.244 421.932 452.588 414.494 447.994 404.218C443.817 394.869 446.255 384.948 448.078 379.869C448.609 378.375 447.833 376.729 446.343 376.192C444.849 375.656 443.203 376.432 442.672 377.927C440.557 383.823 437.755 395.38 442.75 406.562C448.244 418.854 461.323 427.369 477.734 429.338C488.432 430.614 498.015 435.859 504.02 443.724C509.39 450.755 516.541 455.63 524.692 457.828C528.026 458.729 531.234 459.088 534.25 459.088C543.135 459.088 550.276 455.963 553.468 454.286C554.869 453.552 555.411 451.812 554.672 450.411C553.937 449.005 552.203 448.463 550.797 449.203Z" fill="#002C1F"/>
<path d="M642.401 392.589C640.817 392.49 639.448 393.682 639.343 395.261C639.057 399.526 638.021 403.641 636.26 407.505C634.14 412.162 630.937 416.396 627 419.761C625.791 420.792 625.651 422.604 626.682 423.813C627.25 424.474 628.057 424.818 628.864 424.818C629.526 424.818 630.187 424.594 630.729 424.13C635.302 420.224 639.02 415.302 641.484 409.891C643.536 405.396 644.744 400.599 645.078 395.646C645.182 394.063 643.984 392.693 642.401 392.589Z" fill="#002C1F"/>
<path d="M599.844 303.359C587.75 298.843 575.063 296.552 562.141 296.552C549.219 296.552 536.531 298.843 524.438 303.359C522.953 303.911 522.198 305.567 522.75 307.052C523.307 308.541 524.958 309.297 526.448 308.739C537.896 304.468 549.906 302.297 562.141 302.297C574.375 302.297 586.385 304.468 597.833 308.739C598.167 308.864 598.505 308.922 598.839 308.922C600.005 308.922 601.099 308.208 601.531 307.052C602.083 305.567 601.328 303.911 599.844 303.359Z" fill="#002C1F"/>
<path d="M516.531 293.464C510.87 291.12 504.885 289.933 498.755 289.933C492.62 289.933 486.635 291.12 480.974 293.464C479.51 294.068 478.813 295.745 479.417 297.214C480.026 298.677 481.703 299.375 483.167 298.771C488.13 296.719 493.375 295.677 498.755 295.677C504.13 295.677 509.375 296.719 514.339 298.771C514.698 298.917 515.068 298.99 515.432 298.99C516.563 298.99 517.63 298.318 518.089 297.214C518.693 295.745 517.995 294.068 516.531 293.464Z" fill="#002C1F"/>
<path d="M506.041 306.558C496.885 304.547 487.229 304.547 478.114 306.558C465.177 309.412 455.786 315.667 450.187 320.417C448.979 321.443 448.828 323.256 449.854 324.464C450.422 325.136 451.234 325.479 452.047 325.479C452.703 325.479 453.364 325.256 453.901 324.797C459.005 320.474 467.562 314.771 479.354 312.167C487.656 310.334 496.458 310.334 504.807 312.167C506.359 312.506 507.89 311.526 508.229 309.979C508.567 308.427 507.588 306.896 506.041 306.558Z" fill="#002C1F"/>
<path d="M545.458 276.688C539.01 276.688 533.911 278.667 530.771 280.333C529.37 281.073 528.833 282.813 529.578 284.214C530.318 285.615 532.057 286.151 533.458 285.411C536.026 284.052 540.187 282.432 545.458 282.432C548.37 282.432 552.812 282.948 557.458 285.411C557.89 285.635 558.349 285.745 558.802 285.745C559.833 285.745 560.828 285.188 561.344 284.214C562.083 282.813 561.547 281.073 560.146 280.333C554.458 277.318 549.021 276.688 545.458 276.688Z" fill="#002C1F"/>
<path d="M603.515 280.333C597.828 277.318 592.39 276.688 588.828 276.688C582.38 276.688 577.286 278.667 574.14 280.333C572.739 281.073 572.208 282.813 572.948 284.214C573.687 285.615 575.427 286.151 576.828 285.411C579.396 284.052 583.562 282.432 588.828 282.432C591.739 282.432 596.182 282.948 600.833 285.411C601.26 285.635 601.719 285.745 602.172 285.745C603.203 285.745 604.198 285.188 604.713 284.214C605.453 282.813 604.922 281.073 603.515 280.333Z" fill="#002C1F"/>
<path d="M656.683 334.375C657.25 335.062 658.068 335.411 658.891 335.411C659.537 335.411 660.188 335.192 660.724 334.75C661.948 333.734 662.115 331.922 661.099 330.703C656.511 325.187 648.526 317.682 636.526 313.286C629.802 310.823 622.714 309.646 615.459 309.802C613.875 309.833 612.615 311.146 612.646 312.734C612.683 314.317 613.969 315.583 615.578 315.547C622.115 315.411 628.495 316.463 634.547 318.682C645.349 322.64 652.547 329.401 656.683 334.375Z" fill="#002C1F"/>
<path d="M425.214 326.359C420.136 326.609 415.282 327.818 410.782 329.943C400.454 334.833 395.058 343.234 392.766 347.807C392.052 349.224 392.625 350.953 394.042 351.662C394.454 351.87 394.896 351.969 395.329 351.969C396.381 351.969 397.391 351.391 397.896 350.386C399.86 346.474 404.464 339.292 413.24 335.136C417.052 333.333 421.177 332.313 425.5 332.099C427.084 332.021 428.302 330.672 428.224 329.089C428.146 327.5 426.776 326.276 425.214 326.359Z" fill="#002C1F"/>
<path d="M458.245 305.859C458.141 304.281 456.781 303.078 455.193 303.182C450.208 303.51 445.385 304.708 440.859 306.739C435.411 309.187 430.453 312.88 426.521 317.411C425.484 318.609 425.615 320.427 426.812 321.463C427.354 321.937 428.026 322.166 428.693 322.166C429.495 322.166 430.297 321.833 430.865 321.177C434.25 317.271 438.521 314.088 443.214 311.979C447.115 310.229 451.271 309.198 455.573 308.916C457.151 308.812 458.349 307.442 458.245 305.859Z" fill="#002C1F"/>
<path d="M660.068 306.739C655.541 304.708 650.719 303.51 645.734 303.182C644.146 303.088 642.786 304.281 642.682 305.859C642.578 307.442 643.776 308.812 645.359 308.916C649.656 309.198 653.812 310.229 657.713 311.979C662.406 314.088 666.677 317.27 670.068 321.177C670.635 321.833 671.432 322.166 672.234 322.166C672.901 322.166 673.573 321.937 674.114 321.463C675.312 320.427 675.443 318.609 674.401 317.411C670.474 312.88 665.515 309.187 660.068 306.739Z" fill="#002C1F"/>
<path d="M621.573 295.609C627.182 296.849 631.25 299.562 633.682 301.62C634.219 302.078 634.88 302.302 635.536 302.302C636.349 302.302 637.156 301.953 637.729 301.286C638.75 300.073 638.604 298.26 637.39 297.234C634.469 294.755 629.568 291.49 622.807 290C618.052 288.948 613.01 288.948 608.229 290C606.682 290.339 605.703 291.87 606.042 293.422C606.38 294.969 607.911 295.948 609.463 295.609C613.437 294.74 617.625 294.74 621.573 295.609Z" fill="#002C1F"/>
<path d="M664.183 353.619C659.98 349.692 655.318 346.224 650.334 343.307C648.964 342.505 647.203 342.963 646.407 344.333C645.605 345.703 646.063 347.463 647.433 348.265C652.052 350.968 656.37 354.187 660.271 357.823C665.276 362.489 669.594 367.843 673.105 373.744C673.641 374.646 674.594 375.146 675.573 375.146C676.073 375.146 676.578 375.015 677.042 374.744C678.401 373.932 678.849 372.172 678.037 370.807C674.25 364.437 669.589 358.656 664.183 353.619Z" fill="#002C1F"/>
</svg>
