<svg width="1024" height="768" viewBox="0 0 1024 768" fill="none" xmlns="http://www.w3.org/2000/svg">
<mask id="mask0_758_98" style="mask-type:luminance" maskUnits="userSpaceOnUse" x="307" y="257" width="369" height="219">
<path d="M307.198 257.792H676V476H307.198V257.792Z" fill="white"/>
</mask>
<g mask="url(#mask0_758_98)">
<path d="M491.771 257.792C383.49 257.792 307.896 302.485 307.896 366.469C307.896 430.459 383.49 475.151 491.771 475.151C600.053 475.151 675.646 430.459 675.646 366.469C675.646 302.485 600.053 257.792 491.771 257.792ZM491.771 461.568C393.12 461.568 321.516 421.573 321.516 366.469C321.532 364.073 321.688 361.688 321.98 359.308C322.85 361.995 323.954 364.589 325.282 367.084C327.574 371.396 329.558 375.849 331.235 380.438C334.271 388.37 338.256 395.797 343.188 402.714C343.443 403.078 343.74 403.417 344.063 403.719C344.386 404.026 344.74 404.297 345.12 404.537C345.495 404.771 345.896 404.969 346.313 405.131C346.73 405.287 347.162 405.401 347.605 405.479C348.042 405.552 348.485 405.584 348.933 405.568C349.381 405.558 349.824 405.5 350.261 405.401C350.693 405.302 351.115 405.162 351.527 404.979C351.933 404.797 352.318 404.573 352.683 404.318C353.048 404.058 353.381 403.766 353.688 403.443C353.995 403.115 354.271 402.766 354.506 402.386C354.745 402.011 354.943 401.615 355.1 401.198C355.261 400.782 355.376 400.349 355.454 399.912C355.527 399.469 355.558 399.026 355.542 398.584C355.532 398.136 355.475 397.698 355.376 397.261C355.277 396.828 355.131 396.407 354.949 396C354.766 395.594 354.548 395.209 354.287 394.844C350.037 388.881 346.605 382.485 343.99 375.646C342.1 370.479 339.855 365.469 337.261 360.615C335.995 358.032 334.995 355.349 334.261 352.563C333.527 349.782 333.074 346.953 332.896 344.084C332.719 341.209 332.829 338.349 333.219 335.5C333.61 332.646 334.277 329.865 335.219 327.141C360.459 293.349 418.673 271.375 491.771 271.375C590.423 271.375 662.021 311.37 662.021 366.469C662.021 421.573 590.423 461.568 491.771 461.568Z" fill="#002C1F"/>
</g>
<path d="M444.099 434.396C413.625 434.396 388.77 426.786 370.229 411.781C369.88 411.505 369.51 411.26 369.114 411.052C368.718 410.844 368.307 410.677 367.88 410.552C367.448 410.422 367.01 410.339 366.567 410.302C366.119 410.26 365.677 410.26 365.234 410.307C364.786 410.354 364.354 410.443 363.927 410.578C363.5 410.708 363.088 410.88 362.698 411.094C362.302 411.307 361.932 411.557 361.588 411.839C361.244 412.125 360.932 412.443 360.651 412.786C360.369 413.135 360.125 413.505 359.916 413.901C359.708 414.292 359.541 414.703 359.416 415.13C359.286 415.557 359.203 415.995 359.161 416.438C359.119 416.885 359.125 417.328 359.171 417.771C359.218 418.214 359.307 418.651 359.437 419.073C359.573 419.5 359.744 419.911 359.958 420.302C360.171 420.693 360.421 421.063 360.703 421.401C360.989 421.745 361.307 422.057 361.656 422.339C382.682 439.354 410.421 447.979 444.099 447.979C444.546 447.979 444.989 447.938 445.427 447.849C445.864 447.766 446.291 447.635 446.703 447.464C447.119 447.292 447.51 447.083 447.88 446.839C448.255 446.589 448.599 446.307 448.911 445.99C449.229 445.677 449.51 445.333 449.76 444.964C450.01 444.589 450.218 444.198 450.39 443.786C450.562 443.375 450.692 442.953 450.776 442.516C450.864 442.078 450.906 441.635 450.906 441.188C450.906 440.745 450.864 440.302 450.776 439.865C450.692 439.427 450.562 439 450.39 438.589C450.218 438.177 450.01 437.786 449.76 437.417C449.51 437.042 449.229 436.703 448.911 436.385C448.599 436.068 448.255 435.786 447.88 435.542C447.51 435.292 447.119 435.083 446.703 434.911C446.291 434.745 445.864 434.615 445.427 434.526C444.989 434.438 444.546 434.396 444.099 434.396Z" fill="#002C1F"/>
<path d="M450.479 389.151C450.109 388.906 449.713 388.698 449.302 388.526C448.885 388.359 448.458 388.229 448.021 388.146C447.583 388.057 447.14 388.016 446.693 388.021C446.245 388.021 445.802 388.063 445.364 388.151C444.927 388.24 444.5 388.37 444.088 388.542C443.677 388.714 443.286 388.927 442.911 389.172C442.541 389.422 442.198 389.703 441.885 390.021C441.568 390.339 441.286 390.682 441.041 391.052C440.687 391.766 440.271 392.432 439.781 393.052C439.291 393.677 438.739 394.245 438.135 394.755C437.526 395.266 436.87 395.708 436.172 396.083C435.474 396.458 434.739 396.755 433.979 396.979C433.219 397.203 432.443 397.344 431.651 397.406C430.859 397.469 430.068 397.453 429.281 397.349C428.489 397.25 427.724 397.068 426.974 396.813C426.224 396.552 425.505 396.214 424.828 395.807C424.443 395.578 424.036 395.391 423.614 395.245C423.193 395.094 422.76 394.99 422.318 394.927C421.875 394.865 421.432 394.844 420.984 394.865C420.541 394.891 420.099 394.958 419.666 395.068C419.234 395.177 418.812 395.328 418.411 395.521C418.005 395.714 417.625 395.943 417.271 396.208C416.911 396.479 416.583 396.776 416.281 397.109C415.984 397.443 415.719 397.797 415.495 398.182C415.265 398.568 415.078 398.969 414.927 399.391C414.776 399.807 414.672 400.24 414.609 400.682C414.541 401.125 414.526 401.568 414.547 402.011C414.573 402.458 414.64 402.896 414.75 403.328C414.859 403.761 415.01 404.177 415.203 404.578C415.396 404.984 415.63 405.365 415.896 405.719C416.161 406.078 416.463 406.406 416.797 406.703C417.13 407 417.489 407.266 417.875 407.49C418.583 407.906 419.318 408.287 420.068 408.63C420.818 408.974 421.578 409.281 422.359 409.552C423.14 409.823 423.932 410.052 424.734 410.245C425.536 410.438 426.349 410.589 427.161 410.703C427.979 410.818 428.802 410.891 429.625 410.922C430.453 410.953 431.276 410.948 432.099 410.901C432.927 410.854 433.745 410.766 434.557 410.636C435.375 410.505 436.182 410.339 436.979 410.136C437.781 409.927 438.568 409.682 439.344 409.396C440.114 409.115 440.875 408.792 441.62 408.432C442.359 408.078 443.083 407.682 443.791 407.255C444.495 406.823 445.177 406.365 445.833 405.87C446.495 405.37 447.13 404.844 447.734 404.287C448.344 403.729 448.922 403.146 449.474 402.531C450.021 401.917 450.541 401.276 451.026 400.615C451.515 399.948 451.969 399.261 452.385 398.552C452.63 398.182 452.838 397.792 453.01 397.375C453.177 396.964 453.307 396.542 453.39 396.104C453.474 395.667 453.515 395.224 453.515 394.781C453.515 394.333 453.469 393.896 453.38 393.458C453.291 393.021 453.161 392.599 452.989 392.188C452.818 391.776 452.609 391.386 452.359 391.016C452.109 390.646 451.828 390.307 451.51 389.995C451.193 389.677 450.849 389.396 450.479 389.151Z" fill="#002C1F"/>
<path d="M377.177 375.463C384.104 377.625 391.203 378.656 398.464 378.557C417.172 378.557 437.74 372.521 446.818 360.573C453.625 351.583 451.229 345.203 449.172 342.234C441.505 331.041 416.271 333.76 410.177 335.505C405.458 336.864 403.62 336.135 396.557 332.953C394.662 332.093 392.537 331.13 390.063 330.104C387.99 329.146 385.839 328.442 383.599 328.005C381.359 327.562 379.099 327.396 376.818 327.5C374.542 327.604 372.307 327.979 370.115 328.625C367.927 329.265 365.849 330.161 363.875 331.307C362.469 332.255 361.208 333.37 360.089 334.64C358.969 335.911 358.021 337.302 357.255 338.812C356.49 340.323 355.927 341.901 355.563 343.557C355.198 345.208 355.047 346.88 355.109 348.573C355.125 361.13 362.953 370.687 377.177 375.463ZM371.448 342.583C373.276 341.489 375.255 340.984 377.385 341.067C379.984 341.093 382.484 341.614 384.875 342.625C387.198 343.583 389.193 344.489 390.974 345.291C392.672 346.343 394.458 347.208 396.339 347.885C398.214 348.567 400.146 349.047 402.125 349.323C404.099 349.604 406.089 349.677 408.078 349.547C410.073 349.411 412.031 349.078 413.958 348.541C417.875 347.588 421.849 347.208 425.88 347.39C429.906 347.567 433.833 348.307 437.651 349.604C437.24 350.604 436.693 351.526 436.01 352.364C427.776 363.192 399.287 368.541 381.526 362.588C373.047 359.739 368.75 355.021 368.75 348.547C368.641 347.385 368.823 346.271 369.302 345.208C369.787 344.14 370.5 343.265 371.448 342.583Z" fill="#002C1F"/>
<path d="M512.198 397.386C494.38 397.386 480.942 405.839 480.942 417.084C480.942 417.526 480.984 417.969 481.073 418.407C481.161 418.844 481.286 419.271 481.458 419.683C481.63 420.094 481.838 420.485 482.088 420.854C482.338 421.224 482.619 421.568 482.937 421.886C483.25 422.198 483.593 422.485 483.968 422.729C484.338 422.979 484.734 423.188 485.146 423.36C485.557 423.526 485.984 423.657 486.422 423.745C486.859 423.834 487.302 423.875 487.75 423.875C488.198 423.875 488.64 423.834 489.078 423.745C489.521 423.657 489.942 423.526 490.359 423.36C490.771 423.188 491.161 422.979 491.536 422.729C491.906 422.485 492.25 422.198 492.567 421.886C492.885 421.568 493.166 421.224 493.411 420.854C493.661 420.485 493.869 420.094 494.041 419.683C494.213 419.271 494.343 418.844 494.432 418.407C494.515 417.969 494.562 417.526 494.562 417.084C494.562 415.568 500.817 410.969 512.198 410.969C523.578 410.969 529.843 415.542 529.843 417.084C529.843 417.526 529.89 417.969 529.974 418.407C530.062 418.844 530.192 419.271 530.364 419.683C530.536 420.094 530.744 420.485 530.994 420.854C531.239 421.224 531.526 421.568 531.838 421.886C532.156 422.198 532.5 422.485 532.869 422.729C533.244 422.979 533.635 423.188 534.047 423.36C534.463 423.526 534.89 423.657 535.328 423.745C535.765 423.834 536.208 423.875 536.656 423.875C537.104 423.875 537.547 423.834 537.984 423.745C538.422 423.657 538.849 423.526 539.26 423.36C539.672 423.188 540.067 422.979 540.437 422.729C540.812 422.485 541.156 422.198 541.468 421.886C541.786 421.568 542.067 421.224 542.317 420.854C542.567 420.485 542.776 420.094 542.948 419.683C543.119 419.271 543.244 418.844 543.333 418.407C543.422 417.969 543.463 417.526 543.463 417.084C543.463 405.87 530.031 397.386 512.198 397.386Z" fill="#002C1F"/>
<path d="M551.313 300.312C550.573 298.437 549.651 296.656 548.547 294.968C547.443 293.281 546.178 291.723 544.75 290.296C543.323 288.869 541.771 287.598 540.084 286.489C538.396 285.38 536.615 284.458 534.735 283.713C532.026 282.619 529.209 282.01 526.287 281.88C523.365 281.75 520.506 282.104 517.709 282.953C516.792 283.234 515.907 283.598 515.053 284.031C511.818 285.854 508.99 288.166 506.553 290.968C506.151 291.38 505.75 291.796 505.287 292.255C503.094 291.76 500.875 291.489 498.631 291.453C496.381 291.416 494.157 291.609 491.948 292.036C489.74 292.463 487.599 293.109 485.532 293.984C483.459 294.854 481.5 295.927 479.657 297.208C478.381 298.135 477.235 299.203 476.219 300.401C475.198 301.598 474.334 302.901 473.625 304.307C472.912 305.708 472.375 307.177 472.016 308.708C471.651 310.239 471.474 311.786 471.485 313.359C471.485 325.036 480.105 332.942 495.157 335.098C498.881 335.562 502.62 335.838 506.37 335.911L510.948 336.104C513.537 336.229 516.339 336.364 519.23 336.364C521.974 336.651 524.714 336.593 527.448 336.197C530.178 335.802 532.818 335.072 535.37 334.015C537.917 332.958 540.297 331.609 542.511 329.958C544.719 328.307 546.693 326.411 548.433 324.27C549.62 322.536 550.589 320.687 551.334 318.723C552.079 316.755 552.573 314.729 552.823 312.645C553.073 310.557 553.073 308.473 552.818 306.385C552.563 304.302 552.058 302.276 551.313 300.312ZM537.287 316.369C532.521 323.02 523.667 323.109 511.579 322.515L506.813 322.312C503.526 322.255 500.256 322.026 496.995 321.635C485.042 319.958 485.042 315.01 485.042 313.39C485.021 312.322 485.256 311.317 485.75 310.369C486.24 309.421 486.933 308.651 487.818 308.057C490.938 305.989 494.365 304.994 498.11 305.083C499.688 305.072 501.24 305.27 502.761 305.677C504.563 306.281 506.401 306.411 508.271 306.072C510.417 305.562 512.261 304.515 513.792 302.932C514.631 302.145 515.464 301.286 516.308 300.406C517.813 298.718 519.521 297.265 521.433 296.052C524.209 295.218 526.954 295.312 529.662 296.338C531.678 297.125 533.459 298.276 534.995 299.796C536.532 301.317 537.709 303.078 538.516 305.083C538.87 306.005 539.11 306.953 539.235 307.932C539.365 308.911 539.375 309.89 539.266 310.875C539.162 311.854 538.943 312.812 538.605 313.739C538.271 314.666 537.834 315.546 537.287 316.369Z" fill="#002C1F"/>
<path d="M536.453 363.755L533.323 364.958C532.896 365.109 532.489 365.302 532.099 365.536C531.708 365.771 531.349 366.036 531.01 366.344C530.677 366.651 530.375 366.984 530.109 367.354C529.838 367.719 529.609 368.109 529.422 368.521C529.234 368.932 529.083 369.359 528.979 369.797C528.875 370.24 528.818 370.688 528.802 371.141C528.792 371.594 528.818 372.042 528.896 372.49C528.974 372.938 529.094 373.37 529.255 373.797C529.417 374.219 529.62 374.62 529.864 375C530.109 375.385 530.391 375.74 530.703 376.068C531.021 376.391 531.364 376.682 531.734 376.943C532.109 377.198 532.505 377.417 532.922 377.599C533.344 377.776 533.771 377.911 534.219 378.005C534.661 378.099 535.109 378.146 535.568 378.146C536.021 378.151 536.469 378.109 536.917 378.021C537.364 377.932 537.797 377.802 538.213 377.63L541.338 376.427C543.031 375.781 544.781 375.385 546.588 375.255C548.396 375.12 550.182 375.25 551.953 375.641C553.724 376.036 555.396 376.677 556.974 377.563C558.557 378.448 559.974 379.547 561.224 380.849C561.531 381.193 561.864 381.5 562.234 381.771C562.599 382.042 562.989 382.276 563.401 382.474C563.818 382.667 564.245 382.818 564.687 382.927C565.135 383.036 565.583 383.099 566.042 383.115C566.5 383.135 566.953 383.104 567.406 383.031C567.854 382.958 568.297 382.839 568.724 382.677C569.151 382.516 569.557 382.313 569.943 382.073C570.333 381.828 570.687 381.547 571.021 381.234C571.349 380.917 571.646 380.573 571.906 380.198C572.167 379.823 572.385 379.422 572.568 379.005C572.745 378.583 572.885 378.151 572.974 377.708C573.068 377.26 573.114 376.807 573.12 376.354C573.12 375.896 573.073 375.443 572.984 374.995C572.896 374.547 572.76 374.115 572.583 373.693C572.406 373.276 572.187 372.875 571.932 372.5C571.672 372.12 571.38 371.776 571.052 371.458C569.969 370.323 568.807 369.276 567.573 368.318C566.333 367.354 565.031 366.49 563.661 365.724C562.297 364.953 560.88 364.286 559.417 363.724C557.953 363.161 556.453 362.714 554.922 362.37C553.391 362.031 551.844 361.802 550.281 361.693C548.713 361.578 547.151 361.578 545.583 361.698C544.021 361.813 542.474 362.047 540.943 362.391C539.411 362.734 537.917 363.188 536.453 363.755Z" fill="#002C1F"/>
<path d="M625.834 387.067C625.162 387.854 624.417 388.573 623.61 389.224C622.803 389.875 621.943 390.442 621.027 390.937C620.11 391.427 619.162 391.828 618.172 392.146C617.183 392.458 616.172 392.682 615.141 392.807C614.11 392.937 613.079 392.968 612.042 392.906C611.006 392.843 609.98 392.682 608.974 392.432C607.969 392.182 606.99 391.838 606.047 391.406C605.105 390.974 604.209 390.458 603.36 389.859L602.474 389.244C602.11 388.979 601.719 388.755 601.313 388.567C600.902 388.375 600.474 388.229 600.032 388.125C599.594 388.026 599.146 387.963 598.693 387.948C598.24 387.932 597.792 387.963 597.349 388.036C596.902 388.114 596.464 388.229 596.042 388.39C595.62 388.552 595.219 388.75 594.834 388.994C594.454 389.234 594.099 389.51 593.771 389.823C593.443 390.13 593.152 390.474 592.891 390.843C592.631 391.213 592.412 391.604 592.23 392.015C592.047 392.432 591.907 392.859 591.813 393.297C591.714 393.739 591.667 394.187 591.657 394.635C591.652 395.088 591.688 395.536 591.771 395.979C591.855 396.422 591.98 396.854 592.152 397.271C592.318 397.692 592.527 398.088 592.777 398.463C593.021 398.843 593.308 399.192 593.625 399.515C593.943 399.833 594.287 400.119 594.667 400.375L595.542 400.989C596.308 401.526 597.094 402.031 597.907 402.494C598.719 402.958 599.547 403.385 600.402 403.776C601.25 404.161 602.115 404.51 603 404.817C603.881 405.13 604.777 405.396 605.683 405.619C606.594 405.849 607.511 406.031 608.433 406.172C609.36 406.317 610.287 406.416 611.219 406.468C612.157 406.526 613.089 406.541 614.027 406.51C614.959 406.479 615.891 406.406 616.818 406.291C617.745 406.177 618.667 406.015 619.584 405.817C620.495 405.614 621.396 405.375 622.287 405.088C623.178 404.807 624.058 404.484 624.917 404.119C625.777 403.755 626.62 403.349 627.443 402.911C628.271 402.468 629.068 401.989 629.849 401.474C630.631 400.958 631.386 400.406 632.11 399.823C632.839 399.234 633.542 398.619 634.214 397.968C634.881 397.317 635.521 396.64 636.131 395.932C636.422 395.593 636.678 395.229 636.902 394.838C637.12 394.453 637.297 394.047 637.438 393.625C637.579 393.198 637.678 392.765 637.73 392.323C637.787 391.88 637.797 391.437 637.761 390.989C637.73 390.547 637.652 390.109 637.532 389.677C637.412 389.25 637.25 388.833 637.053 388.437C636.849 388.041 636.61 387.666 636.334 387.312C636.058 386.963 635.75 386.64 635.412 386.349C635.073 386.057 634.709 385.802 634.318 385.583C633.933 385.364 633.527 385.182 633.099 385.047C632.672 384.906 632.24 384.807 631.797 384.755C631.355 384.703 630.907 384.692 630.464 384.724C630.016 384.755 629.579 384.833 629.146 384.953C628.714 385.073 628.303 385.234 627.902 385.432C627.5 385.635 627.125 385.869 626.771 386.146C626.422 386.422 626.099 386.729 625.808 387.067H625.834Z" fill="#002C1F"/>
<path d="M597.073 326.02C598.729 325.281 600.453 324.791 602.25 324.557C604.047 324.322 605.838 324.354 607.63 324.645C609.416 324.942 611.125 325.489 612.75 326.286C614.38 327.088 615.854 328.104 617.177 329.338C617.505 329.64 617.859 329.911 618.239 330.145C618.619 330.38 619.021 330.572 619.437 330.729C619.859 330.885 620.286 331 620.729 331.072C621.172 331.145 621.614 331.171 622.062 331.156C622.51 331.14 622.948 331.083 623.385 330.979C623.817 330.88 624.239 330.734 624.646 330.552C625.057 330.364 625.437 330.14 625.802 329.88C626.166 329.619 626.5 329.328 626.802 329C627.109 328.677 627.38 328.322 627.614 327.942C627.849 327.562 628.047 327.166 628.203 326.744C628.359 326.328 628.474 325.901 628.547 325.458C628.619 325.02 628.646 324.578 628.63 324.13C628.614 323.682 628.557 323.244 628.453 322.812C628.349 322.375 628.208 321.958 628.021 321.552C627.833 321.145 627.609 320.76 627.349 320.401C627.088 320.036 626.797 319.703 626.468 319.401C625.323 318.328 624.104 317.349 622.812 316.463C621.521 315.572 620.172 314.781 618.765 314.088C617.359 313.395 615.906 312.812 614.411 312.333C612.922 311.854 611.401 311.489 609.849 311.234C608.302 310.979 606.744 310.838 605.177 310.812C603.604 310.786 602.041 310.875 600.489 311.078C598.932 311.281 597.401 311.599 595.89 312.026C594.38 312.458 592.911 312.994 591.484 313.64L588.427 315C588.021 315.182 587.635 315.401 587.271 315.661C586.906 315.921 586.573 316.213 586.265 316.541C585.958 316.864 585.687 317.218 585.453 317.593C585.213 317.974 585.021 318.369 584.859 318.786C584.703 319.203 584.588 319.635 584.515 320.072C584.442 320.515 584.411 320.958 584.427 321.401C584.437 321.849 584.494 322.286 584.599 322.724C584.698 323.156 584.838 323.578 585.026 323.984C585.208 324.39 585.432 324.776 585.692 325.135C585.948 325.5 586.244 325.833 586.567 326.14C586.896 326.442 587.244 326.713 587.625 326.953C588.005 327.187 588.406 327.385 588.823 327.541C589.239 327.697 589.672 327.812 590.109 327.89C590.552 327.963 590.994 327.989 591.442 327.979C591.89 327.963 592.328 327.906 592.765 327.807C593.203 327.708 593.625 327.562 594.031 327.38L597.073 326.02Z" fill="#002C1F"/>
<path d="M416.714 309.651C417.349 309.177 418.026 308.77 418.75 308.437C419.469 308.099 420.214 307.843 420.99 307.661C421.76 307.484 422.547 307.385 423.339 307.364C424.135 307.349 424.922 307.411 425.703 307.557C426.484 307.703 427.24 307.927 427.974 308.229C428.708 308.531 429.406 308.906 430.063 309.354C430.719 309.802 431.318 310.312 431.87 310.885C432.422 311.453 432.906 312.078 433.323 312.75C433.563 313.125 433.839 313.474 434.146 313.796C434.453 314.119 434.792 314.411 435.156 314.666C435.521 314.927 435.906 315.145 436.318 315.322C436.724 315.505 437.146 315.645 437.583 315.744C438.021 315.843 438.458 315.895 438.906 315.906C439.354 315.916 439.797 315.885 440.24 315.812C440.677 315.734 441.104 315.619 441.526 315.458C441.943 315.296 442.339 315.099 442.714 314.859C443.094 314.619 443.443 314.349 443.771 314.041C444.094 313.734 444.385 313.401 444.641 313.036C444.901 312.671 445.12 312.286 445.302 311.88C445.484 311.474 445.625 311.052 445.724 310.614C445.823 310.182 445.875 309.739 445.885 309.296C445.901 308.849 445.87 308.406 445.792 307.968C445.714 307.531 445.599 307.099 445.438 306.687C445.276 306.27 445.078 305.875 444.839 305.494C444.396 304.802 443.922 304.13 443.412 303.484C442.901 302.838 442.359 302.213 441.792 301.619C441.219 301.026 440.62 300.463 439.995 299.927C439.365 299.39 438.714 298.885 438.037 298.416C437.365 297.942 436.667 297.505 435.948 297.104C435.224 296.697 434.49 296.333 433.734 296C432.979 295.671 432.208 295.375 431.422 295.119C430.641 294.864 429.844 294.651 429.037 294.468C428.234 294.291 427.422 294.156 426.599 294.057C425.781 293.958 424.958 293.901 424.135 293.885C423.307 293.864 422.484 293.89 421.662 293.953C420.839 294.015 420.021 294.119 419.208 294.26C418.396 294.406 417.594 294.588 416.797 294.807C416.005 295.031 415.224 295.291 414.453 295.588C413.682 295.89 412.932 296.224 412.193 296.599C411.458 296.968 410.745 297.375 410.047 297.817C409.646 298.031 409.266 298.281 408.917 298.567C408.563 298.854 408.245 299.177 407.953 299.526C407.667 299.875 407.417 300.255 407.203 300.656C406.99 301.057 406.818 301.474 406.693 301.911C406.563 302.343 406.479 302.791 406.438 303.239C406.401 303.692 406.406 304.145 406.458 304.593C406.51 305.046 406.604 305.489 406.745 305.921C406.885 306.354 407.068 306.765 407.292 307.161C407.516 307.557 407.776 307.927 408.073 308.27C408.37 308.614 408.698 308.921 409.057 309.203C409.417 309.479 409.802 309.718 410.208 309.921C410.62 310.119 411.042 310.281 411.479 310.395C411.922 310.51 412.37 310.583 412.823 310.609C413.276 310.635 413.729 310.619 414.182 310.552C414.63 310.489 415.073 310.38 415.5 310.229C415.927 310.078 416.339 309.885 416.729 309.651H416.714Z" fill="#002C1F"/>
<mask id="mask1_758_98" style="mask-type:luminance" maskUnits="userSpaceOnUse" x="413" y="342" width="305" height="168">
<path d="M413.333 342.667H717.198V509.334H413.333V342.667Z" fill="white"/>
</mask>
<g mask="url(#mask1_758_98)">
<path d="M700.536 353.568C698.531 350.787 696.385 348.125 694.099 345.573C693.796 345.24 693.468 344.943 693.109 344.672C692.75 344.407 692.369 344.178 691.968 343.985C691.562 343.797 691.14 343.646 690.708 343.537C690.276 343.428 689.833 343.36 689.385 343.339C688.937 343.313 688.494 343.334 688.052 343.401C687.609 343.464 687.177 343.573 686.755 343.724C686.333 343.875 685.932 344.063 685.546 344.292C685.161 344.521 684.802 344.787 684.474 345.084C684.14 345.386 683.843 345.714 683.573 346.073C683.307 346.433 683.078 346.813 682.885 347.214C682.698 347.62 682.546 348.037 682.437 348.469C682.328 348.901 682.26 349.344 682.239 349.787C682.218 350.235 682.239 350.678 682.307 351.12C682.369 351.563 682.479 351.99 682.63 352.412C682.781 352.834 682.974 353.235 683.203 353.615C683.432 354 683.698 354.355 684 354.688C685.89 356.776 687.593 358.917 689.208 361.079C690.151 363.797 690.817 366.584 691.213 369.438C691.604 372.287 691.713 375.151 691.536 378.021C691.359 380.896 690.906 383.724 690.171 386.506C689.432 389.287 688.432 391.974 687.166 394.558C684.573 399.417 682.333 404.428 680.437 409.599C677.823 416.433 674.39 422.834 670.135 428.792C669.875 429.157 669.656 429.542 669.468 429.948C669.286 430.355 669.145 430.776 669.046 431.209C668.948 431.646 668.89 432.084 668.875 432.532C668.864 432.98 668.895 433.422 668.968 433.86C669.041 434.297 669.161 434.73 669.317 435.146C669.479 435.563 669.677 435.959 669.916 436.339C670.151 436.714 670.421 437.068 670.729 437.391C671.036 437.714 671.375 438.006 671.739 438.266C672.104 438.521 672.489 438.745 672.895 438.928C673.302 439.11 673.724 439.25 674.161 439.349C674.599 439.448 675.041 439.506 675.484 439.516C675.932 439.532 676.375 439.5 676.817 439.428C677.26 439.355 677.687 439.235 678.109 439.079C678.526 438.917 678.921 438.719 679.302 438.485C679.682 438.245 680.031 437.974 680.359 437.667C680.682 437.365 680.974 437.026 681.234 436.667C686.166 429.745 690.151 422.318 693.182 414.386C694.859 409.797 696.849 405.344 699.145 401.032C700.474 398.526 701.578 395.928 702.453 393.235C702.734 395.625 702.88 398.026 702.885 400.433C702.885 455.537 631.281 495.526 532.63 495.526C514.057 495.954 495.635 494.49 477.359 491.141C459.088 487.792 441.349 482.631 424.135 475.646C423.729 475.474 423.307 475.339 422.875 475.245C422.442 475.157 422.005 475.105 421.562 475.099C421.114 475.094 420.677 475.131 420.239 475.209C419.807 475.287 419.38 475.407 418.968 475.568C418.557 475.73 418.161 475.933 417.786 476.172C417.416 476.407 417.067 476.683 416.75 476.985C416.427 477.292 416.14 477.625 415.885 477.99C415.63 478.349 415.411 478.735 415.234 479.136C415.052 479.542 414.916 479.959 414.817 480.391C414.718 480.823 414.661 481.256 414.651 481.698C414.64 482.141 414.666 482.584 414.744 483.016C414.817 483.454 414.932 483.881 415.088 484.292C415.244 484.704 415.437 485.099 415.671 485.474C415.906 485.849 416.177 486.204 416.479 486.526C416.781 486.849 417.109 487.141 417.474 487.396C417.833 487.657 418.213 487.881 418.614 488.063C436.692 495.433 455.333 500.886 474.536 504.433C493.739 507.98 513.104 509.537 532.63 509.115C640.911 509.115 716.505 464.417 716.505 400.433C716.463 396.276 716.099 392.151 715.401 388.058C714.708 383.959 713.698 379.943 712.364 376.006C711.036 372.068 709.406 368.256 707.474 364.573C705.541 360.896 703.328 357.386 700.843 354.058C700.755 353.901 700.666 353.73 700.536 353.568Z" fill="#002C1F"/>
</g>
<path d="M654.172 445.745C635.625 460.75 610.776 468.36 580.302 468.36C579.854 468.36 579.411 468.401 578.974 468.49C578.536 468.578 578.109 468.703 577.698 468.875C577.281 469.047 576.89 469.256 576.515 469.506C576.146 469.75 575.802 470.032 575.484 470.349C575.172 470.662 574.885 471.006 574.64 471.375C574.39 471.75 574.182 472.141 574.01 472.552C573.838 472.964 573.708 473.386 573.619 473.823C573.536 474.261 573.489 474.703 573.489 475.151C573.489 475.599 573.536 476.037 573.619 476.474C573.708 476.912 573.838 477.339 574.01 477.75C574.182 478.162 574.39 478.552 574.64 478.922C574.885 479.297 575.172 479.641 575.484 479.953C575.802 480.271 576.146 480.552 576.515 480.797C576.89 481.047 577.281 481.256 577.698 481.427C578.109 481.599 578.536 481.724 578.974 481.813C579.411 481.901 579.854 481.943 580.302 481.943C613.979 481.943 641.713 473.318 662.744 456.302C663.093 456.021 663.406 455.709 663.692 455.365C663.979 455.021 664.229 454.657 664.442 454.266C664.656 453.87 664.828 453.464 664.958 453.037C665.088 452.61 665.182 452.177 665.229 451.735C665.271 451.292 665.276 450.844 665.234 450.401C665.192 449.959 665.109 449.521 664.984 449.094C664.854 448.667 664.687 448.256 664.479 447.865C664.271 447.469 664.026 447.099 663.744 446.75C663.463 446.407 663.151 446.089 662.807 445.808C662.463 445.521 662.093 445.271 661.703 445.058C661.312 444.844 660.901 444.672 660.474 444.542C660.047 444.407 659.609 444.318 659.166 444.271C658.724 444.224 658.276 444.224 657.833 444.266C657.385 444.302 656.953 444.386 656.521 444.516C656.093 444.641 655.682 444.808 655.286 445.016C654.89 445.224 654.521 445.464 654.172 445.745Z" fill="#002C1F"/>
</svg>
