<svg width="71" height="60" viewBox="0 0 71 60" fill="none" xmlns="http://www.w3.org/2000/svg">
<mask id="mask0_171_78" style="mask-type:luminance" maskUnits="userSpaceOnUse" x="0" y="0" width="71" height="60">
<path d="M0.837891 0H70.6951V60H0.837891V0Z" fill="white"/>
</mask>
<g mask="url(#mask0_171_78)">
<path d="M69.4482 15.7809C69.2348 15.9556 68.9425 16.006 68.6938 15.9237C65.9637 14.9475 63.635 13.3766 61.7785 11.2546C61.3282 10.7355 60.9099 10.1878 60.5319 9.62662C58.378 6.4781 57.6404 3.19853 57.422 1.93509C57.3716 1.64443 57.4791 1.35209 57.7043 1.17064L57.7547 1.13032C57.8975 1.01607 58.0739 0.955587 58.2553 0.955587C58.341 0.955587 58.4284 0.967347 58.5141 0.99759C58.7745 1.08496 58.9593 1.28825 59.0215 1.55202C59.4415 3.25901 60.295 5.82286 62.0087 8.34134C62.4119 8.92938 62.8588 9.50229 63.3377 10.0433C64.9606 11.92 66.9566 13.3968 69.2701 14.4368C69.4062 14.4989 69.5036 14.5947 69.5574 14.6636C69.801 14.9643 69.8279 15.4768 69.4482 15.7809ZM61.1334 16.4798C61.2526 16.6293 61.3081 16.8175 61.2862 17.0107C61.2644 17.2039 61.1686 17.3786 61.0174 17.4996V17.5013L57.3582 20.4482C57.0473 20.6969 56.5903 20.6498 56.34 20.339L50.4512 13.0255C50.1975 12.7113 50.2446 12.2526 50.5554 12.0023L54.2147 9.05539C54.3491 8.94786 54.5104 8.89409 54.6733 8.89409C54.885 8.89409 55.0967 8.98818 55.2412 9.16627L61.1334 16.4798ZM55.4714 25.5524C55.6075 25.6128 55.7032 25.7086 55.7604 25.7792C56.004 26.0782 56.0275 26.5923 55.6495 26.8964C55.4328 27.0695 55.1404 27.1233 54.8951 27.0393C52.1633 26.0631 49.8363 24.4905 47.9798 22.3686C47.5295 21.8494 47.1129 21.3034 46.7332 20.7405C44.5809 17.5954 43.8417 14.3141 43.6233 13.049C43.5729 12.76 43.6821 12.466 43.9038 12.2879L43.9576 12.2459C44.1004 12.13 44.2752 12.0695 44.4549 12.0695C44.5423 12.0695 44.6297 12.0846 44.7153 12.1132C44.9741 12.2022 45.1606 12.4022 45.2244 12.6676C45.6394 14.3746 46.4963 16.9368 48.21 19.4569C48.6115 20.0433 49.0601 20.6179 49.5373 21.1589C51.1619 23.0339 53.1562 24.5107 55.4714 25.5524ZM44.9674 29.2889C43.9979 31.2143 41.918 32.2946 39.7893 31.9737C39.2718 31.9099 38.7627 31.7503 38.2721 31.5033C37.7815 31.258 37.3498 30.9405 36.9852 30.5624C35.4714 29.0419 35.1018 26.7318 36.0662 24.8148C36.9213 23.1162 38.635 22.0779 40.4899 22.0779C40.7352 22.0779 40.9821 22.0964 41.2308 22.1333C41.7449 22.1972 42.254 22.3568 42.7463 22.6038C43.2368 22.8491 43.667 23.1666 44.0366 23.5463C45.5571 25.0601 45.9317 27.3686 44.9674 29.2889ZM32.842 40.7926C32.8387 40.8279 32.8202 40.8497 32.8051 40.8615C32.7899 40.8749 32.7631 40.8884 32.7295 40.8833L24.5541 40.0046C24.4969 39.9979 24.4549 39.9458 24.4616 39.8887L25.342 31.7133C25.3487 31.6579 25.3958 31.6125 25.4563 31.6209L33.6334 32.503C33.667 32.5063 33.6905 32.5248 33.7006 32.5399C33.714 32.5551 33.7274 32.5819 33.7241 32.6155L32.842 40.7926ZM22.8874 44.3662C23.089 44.6182 23.0672 44.9778 22.8336 45.2029L21.1938 46.7772L17.128 41.7284L19.0164 40.4633C19.1239 40.3928 19.2449 40.3575 19.3625 40.3575C19.544 40.3575 19.7221 40.4364 19.8447 40.591L21.3366 42.4425L21.3383 42.4475L21.3417 42.4492L22.8874 44.3662ZM9.65318 57.8793C8.69719 58.7815 7.44887 59.2335 6.13839 59.136C4.82791 59.047 3.65015 58.4354 2.8269 57.4106C2.00197 56.3874 1.6525 55.1071 1.84403 53.8084C2.03557 52.508 2.73785 51.384 3.81816 50.6431L16.3299 42.2627L20.5033 47.4442L9.65318 57.8793ZM70.3051 14.0638C70.1286 13.8437 69.9035 13.6706 69.6582 13.5648C67.4758 12.5819 65.5924 11.1858 64.0567 9.41325C63.9358 9.27548 63.8215 9.13099 63.7056 8.98986L68.2973 5.29699C68.504 5.13065 68.5359 4.82992 68.3713 4.62326C68.2066 4.41661 67.9059 4.38469 67.6992 4.55102L63.1176 8.23549C63.0117 8.091 62.8991 7.94987 62.7983 7.8037C61.167 5.40283 60.3504 2.95659 59.9522 1.32689C59.8128 0.745573 59.3894 0.285224 58.8232 0.0920116C58.2486 -0.102881 57.6253 0.00800587 57.1549 0.38603L57.1045 0.426353C56.6105 0.824538 56.3702 1.46466 56.4795 2.09806C56.7063 3.42366 57.4825 6.86452 59.7405 10.1626C59.8531 10.3306 59.9791 10.4952 60.0984 10.6632L58.6283 11.846L55.9855 8.56479C55.4025 7.84235 54.3373 7.72474 53.6132 8.30942L49.9539 11.258C49.2348 11.8376 49.1223 12.9012 49.7036 13.6253L52.3447 16.8998L49.3088 19.3393C49.2063 19.1982 49.0987 19.0587 48.9996 18.9176C47.3682 16.5184 46.5517 14.0705 46.1535 12.4425C46.0124 11.8628 45.5924 11.3991 45.0245 11.2059C44.4499 11.011 43.8266 11.1219 43.3578 11.4983L43.3057 11.5419C42.8101 11.9401 42.5715 12.5803 42.6791 13.212C42.9092 14.5376 43.6838 17.9801 45.9401 21.2782C46.0527 21.4428 46.1737 21.6024 46.2913 21.7654L44.7994 22.965C44.7741 22.9364 44.7473 22.9045 44.7187 22.876C44.2802 22.4223 43.761 22.0443 43.1764 21.7486C42.5866 21.4529 41.9734 21.263 41.3602 21.1858C38.835 20.8061 36.3635 22.093 35.211 24.3847C34.2315 26.3319 34.4096 28.6186 35.594 30.3692L34.0248 31.6293C33.9324 31.5907 33.8383 31.5621 33.7358 31.5503L25.5588 30.67C24.969 30.6011 24.4532 31.0295 24.3911 31.6125L23.5107 39.7862C23.5006 39.8854 23.5073 39.9811 23.5225 40.0752L21.7852 41.4731L20.5907 39.9895C20.0749 39.3494 19.1693 39.21 18.4838 39.6686L3.28053 49.8518C1.99356 50.7338 1.12495 52.1249 0.896454 53.669C0.67132 55.2147 1.10143 56.7956 2.08093 58.0104C3.06043 59.2268 4.51541 59.9862 6.07287 60.0937C6.19887 60.1004 6.32824 60.1055 6.45593 60.1055C7.88066 60.1055 9.26675 59.5594 10.3135 58.5732L23.4973 45.8917C24.0903 45.3205 24.1491 44.4065 23.6317 43.7664L22.385 42.2174L24.092 40.8464C24.2012 40.9018 24.3205 40.9421 24.4516 40.9556L32.627 41.836C32.6639 41.8393 32.7043 41.8427 32.7429 41.8427C32.9832 41.8427 33.2167 41.762 33.4049 41.6075C33.6266 41.4294 33.7661 41.1757 33.7946 40.8951L34.675 32.7197C34.6885 32.5954 34.6767 32.4744 34.6481 32.3568L36.1938 31.1152C36.2291 31.1538 36.2627 31.1925 36.2997 31.2311C36.7348 31.6831 37.254 32.0628 37.8437 32.3585C38.4317 32.6542 39.045 32.844 39.6599 32.923C39.9522 32.9667 40.2463 32.9868 40.5386 32.9868C42.7496 32.9868 44.8027 31.7469 45.8209 29.719C46.8071 27.755 46.6172 25.4566 45.4059 23.7059L46.8726 22.5248C47.002 22.6827 47.1246 22.844 47.2573 22.9969C49.2248 25.2449 51.6844 26.9082 54.5776 27.9432C54.759 28.0036 54.9472 28.0339 55.1354 28.0339C55.5336 28.0339 55.9317 27.8978 56.2493 27.6424C56.9986 27.0393 57.1145 25.9337 56.5047 25.1777C56.3299 24.9593 56.1048 24.7862 55.8612 24.6787C53.6787 23.6958 51.792 22.3014 50.258 20.5288C50.132 20.3877 50.0178 20.2399 49.8985 20.0937L52.9428 17.6441L55.5974 20.9388C55.878 21.2882 56.2778 21.5083 56.7247 21.5554C56.7852 21.5621 56.8474 21.5671 56.9079 21.5671C57.2893 21.5671 57.6572 21.4378 57.9596 21.1925L61.6189 18.2473C61.9667 17.9633 62.1868 17.5651 62.2372 17.1165C62.2876 16.6696 62.1599 16.2294 61.8776 15.88L59.2281 12.5903L60.6814 11.4227C60.8074 11.5755 60.9267 11.7318 61.0577 11.883C63.0235 14.131 65.4865 15.7926 68.3797 16.8276C68.5594 16.8897 68.7476 16.9183 68.9341 16.9183C69.3323 16.9183 69.7305 16.7839 70.0497 16.5285C70.7973 15.9237 70.9133 14.8182 70.3051 14.0638Z" fill="#898989"/>
</g>
</svg>
