<svg width="70" height="60" viewBox="0 0 70 60" fill="none" xmlns="http://www.w3.org/2000/svg">
<mask id="mask0_127_1358" style="mask-type:luminance" maskUnits="userSpaceOnUse" x="0" y="0" width="70" height="60">
<path d="M0.0714111 0H69.9286V60H0.0714111V0Z" fill="white"/>
</mask>
<g mask="url(#mask0_127_1358)">
<path d="M68.6819 15.7813C68.4685 15.9561 68.1761 16.0065 67.9275 15.9242C65.1973 14.948 62.8687 13.3771 61.0122 11.2551C60.5619 10.736 60.1435 10.1883 59.7655 9.62711C57.6116 6.47859 56.8741 3.19902 56.6556 1.93558C56.6052 1.64492 56.7128 1.35258 56.9379 1.17113L56.9883 1.13081C57.1311 1.01656 57.3075 0.956075 57.489 0.956075C57.5747 0.956075 57.662 0.967836 57.7477 0.998078C58.0081 1.08544 58.1929 1.28874 58.2551 1.55251C58.6751 3.2595 59.5286 5.82335 61.2423 8.34183C61.6456 8.92987 62.0925 9.50278 62.5713 10.0438C64.1943 11.9205 66.1902 13.3973 68.5038 14.4373C68.6398 14.4994 68.7373 14.5952 68.7911 14.6641C69.0347 14.9648 69.0616 15.4772 68.6819 15.7813ZM60.367 16.4803C60.4863 16.6298 60.5417 16.818 60.5199 17.0112C60.498 17.2044 60.4023 17.3791 60.2511 17.5001V17.5018L56.5918 20.4487C56.281 20.6973 55.824 20.6503 55.5737 20.3395L49.6849 13.026C49.4312 12.7118 49.4782 12.2531 49.789 12.0028L53.4483 9.05587C53.5827 8.94835 53.744 8.89458 53.907 8.89458C54.1187 8.89458 54.3304 8.98867 54.4749 9.16676L60.367 16.4803ZM54.705 25.5529C54.8411 25.6133 54.9369 25.7091 54.994 25.7797C55.2376 26.0787 55.2612 26.5928 54.8831 26.8969C54.6664 27.07 54.3741 27.1238 54.1288 27.0397C51.3969 26.0636 49.07 24.491 47.2134 22.369C46.7632 21.8499 46.3465 21.3039 45.9668 20.741C43.8146 17.5959 43.0753 14.3146 42.8569 13.0495C42.8065 12.7605 42.9157 12.4665 43.1375 12.2884L43.1913 12.2464C43.3341 12.1305 43.5088 12.07 43.6886 12.07C43.7759 12.07 43.8633 12.0851 43.949 12.1137C44.2077 12.2027 44.3942 12.4026 44.4581 12.6681C44.873 14.3751 45.7299 16.9373 47.4436 19.4574C47.8452 20.0438 48.2937 20.6184 48.7709 21.1594C50.3956 23.0344 52.3898 24.5112 54.705 25.5529ZM44.201 29.2894C43.2316 31.2148 41.1516 32.2951 39.0229 31.9742C38.5054 31.9104 37.9964 31.7508 37.5058 31.5038C37.0152 31.2585 36.5834 30.941 36.2188 30.5629C34.705 29.0424 34.3354 26.7323 35.2998 24.8153C36.155 23.1167 37.8687 22.0784 39.7235 22.0784C39.9688 22.0784 40.2158 22.0969 40.4644 22.1338C40.9786 22.1977 41.4876 22.3573 41.9799 22.6043C42.4705 22.8496 42.9006 23.1671 43.2702 23.5468C44.7907 25.0606 45.1654 27.369 44.201 29.2894ZM32.0757 40.7931C32.0723 40.8284 32.0538 40.8502 32.0387 40.862C32.0236 40.8754 31.9967 40.8889 31.9631 40.8838L23.7877 40.0051C23.7306 39.9984 23.6886 39.9463 23.6953 39.8892L24.5757 31.7138C24.5824 31.6584 24.6294 31.613 24.6899 31.6214L32.867 32.5035C32.9006 32.5068 32.9241 32.5253 32.9342 32.5404C32.9476 32.5555 32.9611 32.5824 32.9577 32.616L32.0757 40.7931ZM22.121 44.3667C22.3226 44.6187 22.3008 44.9783 22.0673 45.2034L20.4275 46.7776L16.3616 41.7289L18.2501 40.4638C18.3576 40.3932 18.4786 40.358 18.5962 40.358C18.7776 40.358 18.9557 40.4369 19.0784 40.5915L20.5703 42.443L20.572 42.448L20.5753 42.4497L22.121 44.3667ZM8.88682 57.8798C7.93084 58.782 6.68252 59.234 5.37203 59.1365C4.06155 59.0475 2.88379 58.4359 2.06054 57.4111C1.23561 56.3879 0.886145 55.1076 1.07768 53.8089C1.26921 52.5085 1.97149 51.3845 3.0518 50.6436L15.5636 42.2632L19.737 47.4447L8.88682 57.8798ZM69.5387 14.0643C69.3623 13.8442 69.1372 13.6711 68.8919 13.5653C66.7094 12.5824 64.826 11.1862 63.2904 9.41374C63.1694 9.27597 63.0552 9.13148 62.9392 8.99035L67.531 5.29747C67.7376 5.13114 67.7696 4.8304 67.6049 4.62375C67.4403 4.4171 67.1395 4.38518 66.9329 4.55151L62.3512 8.23598C62.2454 8.09149 62.1328 7.95036 62.032 7.80419C60.4006 5.40332 59.5841 2.95708 59.1859 1.32738C59.0464 0.746061 58.623 0.285712 58.0569 0.0924999C57.4823 -0.102393 56.8589 0.00849415 56.3885 0.386519L56.3381 0.426841C55.8441 0.825027 55.6039 1.46515 55.7131 2.09855C55.9399 3.42415 56.7161 6.86501 58.9742 10.1631C59.0868 10.3311 59.2128 10.4957 59.3321 10.6637L57.862 11.8465L55.2191 8.56528C54.6361 7.84284 53.571 7.72523 52.8468 8.30991L49.1876 11.2585C48.4685 11.8381 48.3559 12.9016 48.9372 13.6258L51.5784 16.9003L48.5424 19.3398C48.4399 19.1987 48.3324 19.0592 48.2333 18.9181C46.6019 16.5189 45.7853 14.071 45.3872 12.443C45.246 11.8633 44.826 11.3996 44.2581 11.2064C43.6835 11.0115 43.0602 11.1224 42.5915 11.4987L42.5394 11.5424C42.0437 11.9406 41.8052 12.5807 41.9127 13.2125C42.1429 14.5381 42.9174 17.9806 45.1738 21.2787C45.2864 21.4433 45.4073 21.6029 45.5249 21.7659L44.033 22.9655C44.0078 22.9369 43.9809 22.905 43.9523 22.8764C43.5138 22.4228 42.9947 22.0448 42.41 21.7491C41.8203 21.4534 41.2071 21.2635 40.5938 21.1863C38.0686 20.8065 35.5972 22.0935 34.4446 24.3852C33.4651 26.3324 33.6432 28.619 34.8277 30.3697L33.2585 31.6298C33.1661 31.5912 33.072 31.5626 32.9695 31.5508L24.7924 30.6705C24.2027 30.6016 23.6869 31.03 23.6247 31.613L22.7443 39.7867C22.7343 39.8858 22.741 39.9816 22.7561 40.0757L21.0189 41.4736L19.8243 39.99C19.3085 39.3499 18.4029 39.2104 17.7175 39.6691L2.51417 49.8522C1.22721 50.7343 0.358591 52.1254 0.130097 53.6695C-0.0950378 55.2152 0.33507 56.7961 1.31457 58.0108C2.29408 59.2272 3.74905 59.9867 5.30651 60.0942C5.43252 60.1009 5.56189 60.1059 5.68957 60.1059C7.11431 60.1059 8.50039 59.5599 9.5471 58.5737L22.7309 45.8922C23.324 45.321 23.3828 44.407 22.8653 43.7669L21.6187 42.2178L23.3257 40.8469C23.4349 40.9023 23.5542 40.9426 23.6852 40.9561L31.8606 41.8365C31.8976 41.8398 31.9379 41.8432 31.9765 41.8432C32.2168 41.8432 32.4503 41.7625 32.6385 41.608C32.8603 41.4299 32.9997 41.1762 33.0283 40.8956L33.9087 32.7202C33.9221 32.5959 33.9103 32.4749 33.8818 32.3573L35.4275 31.1157C35.4628 31.1543 35.4964 31.193 35.5333 31.2316C35.9685 31.6836 36.4876 32.0633 37.0773 32.359C37.6654 32.6547 38.2786 32.8445 38.8935 32.9235C39.1859 32.9672 39.4799 32.9873 39.7722 32.9873C41.9833 32.9873 44.0364 31.7474 45.0545 29.7195C46.0407 27.7555 45.8509 25.4571 44.6395 23.7064L46.1062 22.5253C46.2356 22.6832 46.3583 22.8445 46.491 22.9974C48.4584 25.2454 50.9181 26.9087 53.8112 27.9436C53.9927 28.0041 54.1808 28.0344 54.369 28.0344C54.7672 28.0344 55.1654 27.8983 55.4829 27.6429C56.2323 27.0397 56.3482 25.9342 55.7383 25.1782C55.5636 24.9598 55.3384 24.7867 55.0948 24.6792C52.9124 23.6963 51.0256 22.3018 49.4917 20.5293C49.3657 20.3882 49.2514 20.2404 49.1321 20.0942L52.1765 17.6446L54.831 20.9393C55.1116 21.2887 55.5115 21.5088 55.9584 21.5559C56.0189 21.5626 56.081 21.5676 56.1415 21.5676C56.5229 21.5676 56.8909 21.4383 57.1933 21.193L60.8526 18.2477C61.2003 17.9638 61.4204 17.5656 61.4708 17.117C61.5212 16.6701 61.3935 16.2299 61.1113 15.8805L58.4618 12.5908L59.9151 11.4231C60.0411 11.576 60.1603 11.7323 60.2914 11.8835C62.2571 14.1315 64.7202 15.7931 67.6133 16.8281C67.7931 16.8902 67.9812 16.9188 68.1677 16.9188C68.5659 16.9188 68.9641 16.7844 69.2833 16.529C70.031 15.9242 70.1469 14.8186 69.5387 14.0643Z" fill="#002C1F"/>
</g>
</svg>
