<svg width="61" height="60" viewBox="0 0 61 60" fill="none" xmlns="http://www.w3.org/2000/svg">
<mask id="mask0_127_1363" style="mask-type:luminance" maskUnits="userSpaceOnUse" x="0" y="0" width="61" height="60">
<path d="M0.5 0H60.5V60H0.5V0Z" fill="white"/>
</mask>
<g mask="url(#mask0_127_1363)">
<path d="M30.5 0C13.9577 0 0.5 13.4577 0.5 30C0.5 46.5409 13.9577 60 30.5 60C47.0409 60 60.5 46.5409 60.5 30C60.5 13.4577 47.0409 0 30.5 0ZM30.5 59.1791C14.4113 59.1791 1.32085 46.0916 1.32085 30C1.32085 13.907 14.4113 0.820853 30.5 0.820853C46.5873 0.820853 59.6791 13.9113 59.6791 30C59.6791 46.0873 46.5873 59.1791 30.5 59.1791ZM47.6904 32.104C47.6457 31.9081 47.5781 31.7324 47.5075 31.5999C47.2872 31.1334 46.9329 30.7791 46.5196 30.553C46.8666 30.2247 47.1158 29.7869 47.2209 29.2828C47.3001 28.9199 47.2958 28.5369 47.208 28.174C47.0539 27.5331 46.6535 26.983 46.112 26.6662C45.9032 26.5452 45.6786 26.4703 45.4496 26.4199C45.5864 26.1737 45.6872 25.9073 45.7333 25.6207C45.945 24.316 45.1155 23.0703 43.8914 22.8456C43.7287 22.8154 43.566 22.8039 43.4075 22.8125C43.445 22.6987 43.4738 22.5821 43.4954 22.4626C43.7042 21.1578 42.8834 19.9122 41.6622 19.6832C41.3367 19.6198 41.0084 19.6371 40.6959 19.7249C40.7376 19.2785 40.6613 18.8249 40.4698 18.4159C40.1904 17.824 39.708 17.3906 39.1118 17.1947C38.5458 17.0118 37.941 17.0665 37.4124 17.3574C37.362 17.3834 37.3203 17.4165 37.2742 17.4496C37.1705 16.9499 36.9199 16.5078 36.5743 16.1737C36.7414 15.5746 36.6823 14.9323 36.4001 14.3664C36.0703 13.7039 35.4698 13.2157 34.7612 13.0285C34.7584 13.0285 34.754 13.0242 34.7454 13.0242C34.97 11.9571 34.466 10.854 33.4954 10.4205C32.5205 9.98704 31.3741 10.3499 30.7203 11.2284C30.6915 11.1823 30.6656 11.1334 30.6325 11.0916C30.2739 10.6077 29.7497 10.3039 29.1578 10.2333C28.5328 10.157 27.9165 10.3499 27.4168 10.7704C27.0697 11.0613 26.8119 11.4459 26.6622 11.8664C26.4116 11.6575 26.125 11.5035 25.8039 11.4243C24.5956 11.1204 23.324 11.9081 22.9698 13.1826C22.9366 13.2993 22.9208 13.4159 22.9035 13.5325C22.7624 13.462 22.6126 13.4029 22.4499 13.3612C21.2416 13.053 19.97 13.8407 19.6158 15.1166C19.5409 15.3946 19.5207 15.6826 19.5366 15.962C19.3119 15.9073 19.0743 15.8828 18.8367 15.9073C18.2117 15.9706 17.6155 16.299 17.208 16.8203C16.979 17.1112 16.8119 17.4582 16.7327 17.8154C16.6161 18.3165 16.6578 18.8206 16.8364 19.2656C16.3698 19.2958 15.9075 19.4657 15.5158 19.7912C15.3834 19.8949 15.2494 20.0245 15.1241 20.1829C14.4113 21.0916 14.4084 22.3531 15.0536 23.1912C14.983 23.2157 14.9081 23.2416 14.8404 23.2748C13.6912 23.8321 13.1123 25.2578 13.5458 26.4531C13.6999 26.8707 13.9706 27.2163 14.3076 27.4626C14.0196 27.6699 13.7704 27.9363 13.5832 28.2618C12.9251 29.424 13.2707 30.8914 14.358 31.5366C14.4329 31.5783 14.5078 31.6158 14.5827 31.6489C14.4703 31.7742 14.371 31.9124 14.2831 32.0622C13.6279 33.2114 13.9865 34.6659 15.0824 35.3039C15.2494 35.4032 15.428 35.4824 15.6282 35.5372C15.7117 35.5573 15.7995 35.5746 15.8874 35.5876C15.5706 36.1823 15.4914 36.8995 15.7247 37.5576C15.9335 38.1495 16.354 38.6118 16.9113 38.858C17.1907 38.9833 17.4916 39.0452 17.7912 39.0452C17.9165 39.0452 18.0418 39.0279 18.1699 39.0078C18.1541 39.0827 18.1325 39.1532 18.1238 39.2281C18.0374 39.879 18.2117 40.5285 18.6034 41.0167C18.9749 41.479 19.4991 41.7584 20.0867 41.8116C20.1501 41.816 20.2077 41.8203 20.2696 41.8203C20.6613 41.8203 21.0616 41.7166 21.4073 41.5164C21.7414 41.3292 22.0251 41.057 22.2411 40.7373C22.4542 40.8785 22.6573 41.0124 22.8574 41.129C23.1455 41.299 23.4709 41.3868 23.7993 41.3868C23.9821 41.3868 24.1708 41.358 24.3494 41.3033C24.862 41.1449 25.2869 40.7748 25.5072 40.2866L29.8577 30.8497V46.0196C29.8577 46.5582 30.0867 47.0709 30.487 47.428C30.8283 47.7362 31.2705 47.9032 31.7198 47.9032C31.7874 47.9032 31.8494 47.8989 31.9156 47.8917C32.1575 47.8658 32.3995 47.8283 32.6414 47.7909C32.699 48.1696 32.8488 48.5369 33.0706 48.8494C33.3413 49.2238 33.72 49.5205 34.1449 49.6702C34.3825 49.7537 34.6244 49.7955 34.8664 49.7955C35.1904 49.7955 35.5202 49.7206 35.824 49.5665C36.3828 49.2872 36.8162 48.7658 37.0078 48.1408C37.0279 48.0703 37.0409 47.9997 37.0582 47.9248C37.4124 48.1696 37.8286 48.3079 38.2621 48.3122C38.2751 48.3122 38.2866 48.3122 38.2995 48.3122C38.8957 48.3122 39.4574 48.0703 39.8865 47.6282C40.379 47.1241 40.595 46.4372 40.5576 45.7661C40.6455 45.7906 40.7333 45.8165 40.824 45.8324C40.945 45.854 41.066 45.8612 41.1826 45.8612C41.2575 45.8612 41.3324 45.8583 41.4073 45.8497C42.6745 45.7287 43.612 44.5579 43.4997 43.2373C43.4824 43.066 43.445 42.8989 43.3989 42.7405C43.4162 42.7405 43.4291 42.7448 43.445 42.7448C43.5156 42.7448 43.5876 42.7405 43.6538 42.7362C44.9081 42.608 45.837 41.4199 45.7247 40.0864C45.6915 39.7163 45.5792 39.3707 45.4035 39.0625C45.8125 38.979 46.1999 38.7745 46.5167 38.4577C47.4124 37.5576 47.483 36.0196 46.6708 35.0331C46.6204 34.9741 46.5657 34.9237 46.5124 34.8704C47.4326 34.375 47.9582 33.2287 47.6904 32.104ZM46.4029 28.3612C46.462 28.6074 46.4663 28.8623 46.4116 29.1115C46.2993 29.6616 45.9363 30.0907 45.4453 30.2664C45.3834 29.8445 45.3041 29.4153 45.199 28.9862C45.0665 28.4159 44.8865 27.837 44.6619 27.2321C44.6662 27.2321 44.6705 27.2321 44.6748 27.2278C45.0205 27.1328 45.3834 27.1789 45.6959 27.3618C46.0415 27.5792 46.3036 27.9407 46.4029 28.3612ZM43.7373 23.6449C44.5279 23.7903 45.0579 24.6155 44.9168 25.4824C44.8491 25.8828 44.6446 26.2327 44.3494 26.4747C43.9375 25.5328 43.4335 24.6328 42.8488 23.7946C43.121 23.6449 43.4291 23.5873 43.7373 23.6449ZM41.5037 20.4824C42.2915 20.6279 42.82 21.4574 42.6832 22.32C42.6328 22.6166 42.5118 22.8787 42.3332 23.0948C41.7082 22.2998 41.0084 21.5625 40.2494 20.9116C40.2624 20.8957 40.2739 20.8828 40.2782 20.8785C40.6166 20.5415 41.0616 20.3946 41.5037 20.4824ZM37.8041 18.0746C38.1325 17.8946 38.5084 17.8571 38.8583 17.9738C39.237 18.0991 39.5452 18.3785 39.7281 18.7615C39.9657 19.2656 39.9369 19.8704 39.6575 20.3499C39.6446 20.3658 39.6287 20.3831 39.6115 20.4032C39.0412 20 37.9496 19.2584 37.1446 18.8206C37.1575 18.7903 37.1705 18.7615 37.1791 18.7457C37.1791 18.7414 37.1835 18.737 37.1835 18.7327C37.3203 18.4404 37.5363 18.2157 37.8041 18.0746ZM36.5037 17.9695C36.4994 18.1077 36.4821 18.2287 36.4577 18.341C36.449 18.354 36.4404 18.3655 36.4375 18.3785C36.4245 18.4001 36.4202 18.4073 36.4159 18.4289C36.4116 18.4404 36.4029 18.462 36.3957 18.4821C35.7621 18.2373 34.5697 17.7909 33.674 17.5576C33.8367 16.8779 34.4041 16.3695 35.0665 16.3695C35.0709 16.3695 35.0781 16.3695 35.0824 16.3695C35.8701 16.3782 36.5124 17.0997 36.5037 17.9695ZM31.1869 12.0291C31.5455 11.2327 32.4283 10.8453 33.1541 11.1665C33.7661 11.4372 34.0743 12.1414 33.9375 12.8327C33.0245 12.6699 31.7529 12.5749 31.0789 12.5331C31.0789 12.5115 31.0789 12.4914 31.0789 12.4784C31.0789 12.4626 31.0832 12.441 31.0832 12.4237C31.0832 12.4078 31.0789 12.3949 31.0789 12.379C31.1034 12.2667 31.1365 12.1457 31.1869 12.0291ZM27.9366 11.3911C28.2621 11.1161 28.6624 10.9908 29.0585 11.0412C29.4243 11.0829 29.7497 11.2745 29.9744 11.574C30.1529 11.8116 30.2537 12.1083 30.2667 12.428C30.2667 12.4323 30.2667 12.4323 30.2667 12.4366C30.2667 12.4539 30.2624 12.487 30.2624 12.5245C29.3292 12.5821 28.0245 12.8082 27.362 12.9291C27.3534 12.8989 27.3491 12.8787 27.3404 12.8571C27.2828 12.307 27.5118 11.7497 27.9366 11.3911ZM23.7575 13.3914C23.9951 12.5446 24.8203 12.0161 25.5994 12.212C26.0156 12.3113 26.3583 12.6195 26.5412 13.0746C26.5455 13.0832 26.5498 13.1034 26.5541 13.125C25.5792 13.4029 24.6417 13.7788 23.7488 14.2368C23.6783 13.966 23.6783 13.678 23.7575 13.3914ZM20.4035 15.324C20.6411 14.4787 21.4663 13.9531 22.2454 14.1489C22.5493 14.2238 22.8085 14.4081 22.9914 14.6529C22.1043 15.1743 21.2705 15.7791 20.5072 16.4574C20.3373 16.1161 20.2955 15.7114 20.4035 15.324ZM17.5291 17.9868C17.5824 17.7448 17.6947 17.5115 17.8488 17.3157C18.121 16.9744 18.5084 16.754 18.9159 16.7123C19.2788 16.6791 19.6244 16.7828 19.8995 17.0161C19.9038 17.0205 19.9081 17.0205 19.9081 17.0248C19.466 17.4654 19.0498 17.9205 18.6826 18.3871C18.4075 18.7327 18.1584 19.0913 17.9251 19.4456C17.5493 19.0913 17.3952 18.5455 17.5291 17.9868ZM15.7621 20.6826C15.8456 20.5789 15.9248 20.4954 16.0199 20.4248C16.4533 20.0662 17.0078 19.9827 17.47 20.1743C17.2324 20.5746 17.0121 20.9951 16.799 21.4574C16.5873 21.9153 16.3324 22.608 16.174 23.0616C16.0746 23.0156 15.9781 22.958 15.8874 22.8787C15.2739 22.3618 15.2163 21.3738 15.7621 20.6826ZM14.3076 26.1622C14.0124 25.3528 14.4084 24.3865 15.1904 24.0078C15.4323 23.8911 15.6872 23.845 15.9335 23.8695C15.7779 24.5032 15.6541 25.2823 15.5706 25.8785C15.5 26.3998 15.4453 26.7612 15.4208 27.0248C15.4078 27.0248 15.3906 27.0291 15.379 27.032C14.8865 26.97 14.4876 26.6489 14.3076 26.1622ZM14.2918 28.6622C14.5409 28.2244 14.9542 27.932 15.4208 27.8528C15.4323 28.0876 15.4539 28.3957 15.4827 28.8162C15.5446 29.7163 15.6238 30.4248 15.7117 30.9289C15.6368 30.949 15.5662 30.9749 15.4957 31.0037C15.2408 31.0167 14.9873 30.949 14.7699 30.8237C14.0657 30.4032 13.8497 29.4326 14.2918 28.6622ZM15.4957 34.5867C14.7828 34.1748 14.5582 33.22 14.9873 32.4626C15.1947 32.104 15.5202 31.8448 15.8917 31.7281C16.004 32.1702 16.1322 32.6123 16.2863 33.053C16.4749 33.57 16.6866 34.0697 16.9113 34.5449C16.8076 34.5997 16.7126 34.6616 16.6161 34.7278C16.3583 34.8041 16.0876 34.807 15.837 34.7408C15.716 34.699 15.6037 34.6501 15.4957 34.5867ZM17.2368 38.0948C16.8868 37.9407 16.6247 37.6498 16.4908 37.2739C16.2244 36.5164 16.5786 35.6538 17.2872 35.2779C17.7537 36.1406 18.2995 36.9542 18.9073 37.6987C18.854 37.7491 18.7993 37.7995 18.7488 37.8571C18.6322 37.958 18.4997 38.0372 18.3571 38.0948C17.987 38.2488 17.591 38.2488 17.2368 38.0948ZM20.9911 40.7863C20.7333 40.9332 20.4366 41.0037 20.1501 40.9778C19.7915 40.9447 19.466 40.7748 19.237 40.4868C18.9821 40.1699 18.8741 39.7537 18.9332 39.3203C18.9793 38.9833 19.1204 38.6737 19.3407 38.4245C19.345 38.4202 19.3494 38.4159 19.3537 38.4116C19.3825 38.3828 19.4156 38.3497 19.4459 38.3209C20.0953 39.0323 20.8039 39.6745 21.5613 40.2405C21.4159 40.4666 21.22 40.6581 20.9911 40.7863ZM24.7497 39.9323C24.6244 40.2074 24.3825 40.4162 24.0959 40.5084C23.8122 40.5948 23.5199 40.5616 23.2707 40.4119C22.987 40.2405 22.6875 40.049 22.362 39.82C22.3534 39.8113 22.3448 39.807 22.3376 39.7998C22.3332 39.7955 22.3289 39.7869 22.3246 39.7825C21.4073 39.1331 20.5576 38.3612 19.816 37.5029L19.7454 37.4208C19.0081 36.5582 18.3701 35.6034 17.8373 34.5665C17.82 34.532 17.7998 34.4988 17.7739 34.4369C17.5118 33.9041 17.2699 33.3453 17.0654 32.7707C16.871 32.2206 16.7126 31.6619 16.5873 31.1118C16.5873 31.1074 16.5743 31.0412 16.57 31.0369C16.3165 29.8992 16.233 27.4539 16.2287 27.3445C16.2287 27.3416 16.2287 27.3373 16.2287 27.333C16.2488 27.0449 16.4951 24.82 16.8292 23.7039C16.8738 23.5369 17.2612 22.4208 17.5493 21.7987C17.7696 21.3206 18 20.8871 18.2491 20.4695C18.2866 20.3989 18.3327 20.3327 18.3744 20.2664C18.3787 20.2578 18.3874 20.2405 18.3946 20.2247C18.6696 19.7782 18.9865 19.3289 19.3292 18.8911C19.7324 18.3741 20.199 17.8615 20.7074 17.379C20.7247 17.3618 20.7405 17.3488 20.7491 17.3373C21.6362 16.5035 22.6328 15.7791 23.7287 15.1656C23.7373 15.1613 23.746 15.157 23.7532 15.1541C24.8001 14.5781 25.9248 14.1287 27.1201 13.8076C27.1417 13.8033 29.4574 13.341 30.608 13.3237C30.6282 13.3237 32.8949 13.4289 34.0585 13.6866C34.0873 13.6996 34.1161 13.6996 34.1406 13.7039H34.1449C34.2745 13.737 34.4041 13.7658 34.5366 13.8033C35.0248 13.9329 35.4323 14.2656 35.6541 14.7163C35.8039 15.0202 35.8543 15.3528 35.8154 15.6826C35.5864 15.5948 35.3416 15.5458 35.0824 15.5415C35.0737 15.5415 35.0622 15.5415 35.0536 15.5415C34.0037 15.5415 33.0994 16.3292 32.8574 17.379C32.8531 17.379 32.8488 17.379 32.8459 17.379C32.0956 17.2494 31.3281 17.4539 30.7491 17.9407C30.1702 18.4289 29.8404 19.1417 29.8404 19.8949V28.8738L24.7497 39.9323ZM31.8119 47.0665C31.5196 47.0997 31.2416 47.0032 31.0199 46.8073C30.7952 46.6028 30.6656 46.3162 30.6656 46.0124V19.8992C30.6656 19.3865 30.8917 18.9041 31.2834 18.5743C31.678 18.2416 32.1993 18.1034 32.7077 18.1912C32.8373 18.2114 32.9698 18.2373 33.0994 18.2661C33.108 18.2661 33.1166 18.2705 33.1282 18.2705C33.1498 18.2748 33.1699 18.2863 33.1959 18.2863H33.1987C34.3537 18.5412 36.462 19.3952 36.4663 19.3952C37.5118 19.8949 39.4286 21.2874 39.4329 21.2874C40.3834 22.0665 41.2287 22.958 41.966 23.9574C42.699 24.9582 43.3039 26.0369 43.7575 27.1659C43.7618 27.1745 43.7748 27.212 43.7791 27.2206C44.0412 27.8787 44.25 28.5369 44.4041 29.182C44.5323 29.7278 44.6331 30.2751 44.695 30.7748C44.695 30.7906 44.6993 30.8367 44.7036 30.854C44.7123 30.9245 44.7209 30.9951 44.7281 31.0786C44.7828 31.5539 44.8073 32.0406 44.8073 32.5662C44.8073 33.2532 44.6907 34.424 44.6619 34.604C44.4991 35.7488 43.7906 37.8787 43.6912 38.1408C43.6912 38.1452 43.6869 38.1452 43.6869 38.1495C43.5703 38.3828 42.5248 40.4536 41.8119 41.3868L41.7831 41.4243C41.4404 41.8707 41.0573 42.307 40.6541 42.7247C40.2249 43.1624 39.7742 43.57 39.2918 43.9574C39.2615 43.9833 39.237 44.0035 39.1823 44.0452C38.2823 44.7537 37.303 45.3528 36.2373 45.841L36.1912 45.8612C35.1414 46.3364 34.0498 46.682 32.941 46.8908C32.9323 46.8908 32.928 46.8995 32.9208 46.8995C32.9122 46.9038 32.9035 46.8995 32.8949 46.9038C32.5334 46.9744 32.1748 47.0291 31.8119 47.0665ZM36.2071 47.8946C36.0789 48.3122 35.8082 48.6449 35.4453 48.8249C35.1198 48.9862 34.754 49.0121 34.4113 48.8868C34.1406 48.7903 33.9001 48.6031 33.7244 48.3612C33.5703 48.1452 33.4738 47.8917 33.4363 47.6238C34.3623 47.428 35.2739 47.1414 36.1624 46.7656C36.1783 46.8073 36.1956 46.8491 36.2071 46.8908C36.2071 46.8952 36.2114 46.9038 36.2114 46.9081C36.3079 47.2278 36.3079 47.5706 36.2071 47.8946ZM39.2788 47.0579C38.9994 47.3416 38.625 47.4784 38.2578 47.4914C37.8747 47.4827 37.5118 47.3157 37.2411 47.0161C37.1374 46.9038 37.0539 46.7742 36.9876 46.6374C36.966 46.5654 36.9372 46.4991 36.9084 46.4286C37.7739 46.0081 38.6034 45.4997 39.3911 44.9078C39.8779 45.5458 39.8404 46.479 39.2788 47.0579ZM41.3036 45.0331C41.1869 45.0446 41.0616 45.0403 40.9407 45.0245C40.6786 44.9784 40.4323 44.8618 40.2293 44.6875C40.1745 44.5867 40.104 44.4945 40.0334 44.4081C40.4453 44.0654 40.8499 43.6996 41.233 43.3079C41.5585 42.9738 41.858 42.6238 42.1446 42.2739C42.4326 42.5374 42.6198 42.9032 42.6616 43.3165C42.7365 44.182 42.1331 44.9539 41.3036 45.0331ZM43.553 41.9153C43.2995 41.9412 43.0446 41.8908 42.8157 41.7742C42.7624 41.7195 42.7077 41.6662 42.6501 41.6158C43.1915 40.8324 43.8497 39.6083 44.191 38.9487C44.5783 39.2123 44.8404 39.6501 44.8865 40.1541C44.9614 41.0412 44.3623 41.8332 43.553 41.9153ZM45.9162 37.8787C45.549 38.2445 45.0493 38.3698 44.5783 38.2157C44.5654 38.2071 44.5539 38.1999 44.5452 38.1912C44.6331 37.945 44.7368 37.5907 44.8865 37.091C45.0622 36.5121 45.2739 35.7488 45.3992 35.1166C45.6368 35.1987 45.8456 35.3456 46.0156 35.553C46.57 36.2241 46.5239 37.2667 45.9162 37.8787ZM45.8571 34.2411C45.7448 34.2742 45.6325 34.2828 45.5202 34.2872C45.5662 33.8076 45.6238 33.0746 45.6238 32.5662C45.6238 32.0536 45.5994 31.5783 45.549 31.1204C46.053 31.1362 46.5239 31.4487 46.7702 31.97C46.8162 32.0579 46.858 32.1702 46.8868 32.2955C47.0956 33.1495 46.6334 34.0251 45.8571 34.2411ZM30.5 3.62039C15.9536 3.62039 4.11607 15.4536 4.11607 30C4.11607 44.5449 15.9493 56.3825 30.5 56.3825C45.0449 56.3825 56.8782 44.5493 56.8782 30C56.8782 15.4536 45.0449 3.62039 30.5 3.62039ZM30.5 55.5573C16.4029 55.5573 4.94124 44.0913 4.94124 30C4.94124 15.9073 16.4073 4.44124 30.5 4.44124C44.5913 4.44124 56.0573 15.9073 56.0573 30C56.0573 44.0956 44.5913 55.5573 30.5 55.5573Z" fill="#898989"/>
</g>
</svg>
