<svg width="1024" height="768" viewBox="0 0 1024 768" fill="none" xmlns="http://www.w3.org/2000/svg">
<mask id="mask0_758_8" style="mask-type:luminance" maskUnits="userSpaceOnUse" x="396" y="279" width="316" height="259">
<path d="M396.271 279.354H711.521V537.099H396.271V279.354Z" fill="white"/>
</mask>
<g mask="url(#mask0_758_8)">
<path fill-rule="evenodd" clip-rule="evenodd" d="M556.828 285.61C556.818 285.61 556.812 285.61 556.812 285.61C556.818 285.61 556.828 285.61 556.828 285.61ZM556.818 285.62C556.818 285.62 556.812 285.62 556.807 285.62C556.818 285.62 556.812 285.62 556.818 285.62ZM551.917 285.626C551.917 285.626 551.911 285.626 551.911 285.636C551.917 285.626 551.911 285.626 551.917 285.626ZM556.802 285.626L556.797 285.636C556.802 285.636 556.797 285.626 556.802 285.626ZM554.359 530.063C554.375 530.063 554.391 530.063 554.411 530.063C643.359 531.449 688.974 503.204 701.792 493.657C657.677 468.469 639.812 433.516 639.047 431.99C638.974 431.844 638.911 431.693 638.854 431.537C626.677 395.016 592.802 354.74 592.453 354.339C592.255 354.094 592.083 353.824 591.943 353.537C565.948 296.844 556.604 287.969 554.594 286.61C554.432 286.631 554.271 286.631 554.12 286.61C552.109 287.969 542.766 296.844 516.766 353.537C516.63 353.824 516.458 354.094 516.255 354.339C515.917 354.74 482.036 395.016 469.859 431.537C469.802 431.693 469.74 431.85 469.661 431.99C468.911 433.516 451.036 468.469 406.917 493.667C412.026 497.475 422.328 504.261 438.391 510.912C460.656 520.11 498.818 530.907 554.302 530.063C554.318 530.063 554.339 530.063 554.359 530.063ZM560.5 537.1C558.479 537.1 556.432 537.084 554.354 537.058C497.448 537.891 458.187 526.719 435.276 517.188C410.182 506.745 398.745 496.1 398.271 495.652C397.453 494.876 397.057 493.766 397.203 492.647C397.359 491.537 398.031 490.553 399.026 490.022C442.703 466.751 461.75 432.022 463.302 429.058C475.49 392.803 506.891 354.62 510.599 350.188C542.12 281.537 550.328 280.063 553.031 279.579C553.484 279.495 553.927 279.485 554.354 279.527C554.792 279.485 555.229 279.495 555.677 279.579C558.385 280.063 566.594 281.537 598.115 350.188C601.823 354.62 633.224 392.813 645.406 429.058C646.953 432.001 666 466.74 709.687 490.022C710.677 490.553 711.354 491.537 711.505 492.647C711.656 493.766 711.26 494.876 710.443 495.652C709.969 496.094 698.531 506.745 673.443 517.188C651.359 526.37 614.094 537.1 560.5 537.1Z" fill="#002C1F"/>
</g>
<path fill-rule="evenodd" clip-rule="evenodd" d="M479.594 511.406C477.687 511.406 476.114 509.875 476.088 507.964C475.536 470.193 499.89 409.729 500.932 407.182C501.021 406.964 501.13 406.755 501.26 406.552C544.208 342.182 554.646 285.109 554.745 284.536C555.088 282.641 556.896 281.375 558.802 281.703C560.708 282.036 561.974 283.849 561.635 285.745C561.536 286.328 550.927 344.589 507.281 410.13C505.349 414.995 482.568 472.875 483.088 507.865C483.12 509.792 481.573 511.375 479.64 511.406C479.63 511.406 479.609 511.406 479.594 511.406Z" fill="#002C1F"/>
<mask id="mask1_758_8" style="mask-type:luminance" maskUnits="userSpaceOnUse" x="396" y="489" width="316" height="28">
<path d="M396.271 489.333H711.521V516.375H396.271V489.333Z" fill="white"/>
</mask>
<g mask="url(#mask1_758_8)">
<path fill-rule="evenodd" clip-rule="evenodd" d="M557.5 516.057C512.797 516.057 458.521 511.432 399.812 496.494C397.948 496.026 396.802 494.119 397.286 492.244C397.76 490.38 399.656 489.249 401.531 489.723C490.062 512.239 568.359 511.057 618.469 506.104C672.812 500.739 706.625 489.895 706.958 489.786C708.792 489.187 710.771 490.197 711.365 492.026C711.969 493.864 710.964 495.838 709.12 496.432C708.786 496.541 674.411 507.588 619.391 513.041C601.906 514.781 581.026 516.057 557.5 516.057Z" fill="#002C1F"/>
</g>
<mask id="mask2_758_8" style="mask-type:luminance" maskUnits="userSpaceOnUse" x="312" y="230" width="219" height="257">
<path d="M312.521 230.667H530.667V486.667H312.521V230.667Z" fill="white"/>
</mask>
<g mask="url(#mask2_758_8)">
<path fill-rule="evenodd" clip-rule="evenodd" d="M472.255 236.776C472.255 236.776 472.25 236.776 472.25 236.787C472.255 236.776 472.25 236.776 472.255 236.776ZM467.349 236.792H467.359C467.365 236.792 467.349 236.792 467.349 236.792ZM418.682 485.563C420.422 485.563 421.927 484.266 422.146 482.5C422.391 480.589 421.036 478.844 419.109 478.599C363.167 471.573 332.526 452.354 322.365 444.823C366.49 419.625 384.344 384.677 385.109 383.156C385.182 383.016 385.25 382.854 385.297 382.693C397.474 346.182 431.359 305.906 431.693 305.495C431.906 305.26 432.078 304.99 432.203 304.698C458.203 248.01 467.542 239.13 469.568 237.776C469.719 237.787 469.88 237.787 470.031 237.776C472.057 239.13 481.391 248.01 507.391 304.698C507.516 304.99 507.693 305.26 507.901 305.495C507.964 305.589 515.094 314.021 523.875 326.51C524.995 328.099 527.172 328.469 528.76 327.359C530.333 326.255 530.719 324.073 529.609 322.484C521.573 311.068 515.047 303.146 513.552 301.354C482.031 232.703 473.823 231.229 471.12 230.745C470.677 230.667 470.234 230.646 469.792 230.693C469.365 230.646 468.922 230.667 468.469 230.745C465.766 231.229 457.568 232.703 426.042 301.354C422.333 305.787 390.937 343.969 378.74 380.224C377.187 383.177 358.146 417.911 314.463 441.188C313.469 441.719 312.797 442.693 312.641 443.813C312.495 444.922 312.901 446.042 313.708 446.818C314.995 448.021 345.838 476.448 418.234 485.536C418.391 485.552 418.536 485.563 418.682 485.563Z" fill="#002C1F"/>
</g>
<path fill-rule="evenodd" clip-rule="evenodd" d="M395.036 462.573C393.125 462.573 391.562 461.042 391.536 459.13C390.974 421.354 415.339 360.896 416.365 358.333C416.458 358.115 416.568 357.906 416.703 357.719C459.708 293.26 470.094 236.271 470.182 235.703C470.526 233.797 472.333 232.531 474.24 232.859C476.146 233.198 477.422 235.01 477.083 236.911C476.984 237.495 466.365 295.745 422.729 361.297C420.792 366.156 398.016 424.042 398.536 459.026C398.562 460.958 397.01 462.542 395.078 462.573C395.073 462.573 395.052 462.573 395.036 462.573Z" fill="#002C1F"/>
<mask id="mask3_758_8" style="mask-type:luminance" maskUnits="userSpaceOnUse" x="312" y="440" width="134" height="27">
<path d="M312.521 440H445.333V466.667H312.521V440Z" fill="white"/>
</mask>
<g mask="url(#mask3_758_8)">
<path fill-rule="evenodd" clip-rule="evenodd" d="M441.438 466.51C441.38 466.51 441.318 466.515 441.266 466.505C398.672 464.437 356.281 458.099 315.245 447.661C313.662 447.26 312.615 445.833 312.615 444.276C312.615 443.995 312.651 443.703 312.724 443.411C313.198 441.547 315.099 440.417 316.979 440.885C357.552 451.203 399.479 457.479 441.599 459.521C443.479 459.609 444.927 461.156 444.927 463.01C444.927 463.068 444.927 463.125 444.927 463.187C444.833 465.052 443.287 466.515 441.438 466.51Z" fill="#002C1F"/>
</g>
</svg>
