<svg width="1024" height="768" viewBox="0 0 1024 768" fill="none" xmlns="http://www.w3.org/2000/svg">
<mask id="mask0_758_143" style="mask-type:luminance" maskUnits="userSpaceOnUse" x="396" y="230" width="231" height="308">
<path d="M396.802 230.401H626.667V537.401H396.802V230.401Z" fill="white"/>
</mask>
<g mask="url(#mask0_758_143)">
<path d="M426.432 370.032C426.271 368.959 426.073 367.62 425.844 365.953C425.542 363.683 425.01 360.854 424.651 357.479C424.292 354.078 423.906 350.141 423.448 345.636C423.214 343.407 422.974 341.037 422.719 338.511C422.448 335.99 422.37 333.323 422.146 330.547C421.849 324.969 421.318 318.865 421.057 312.198C420.958 308.209 420.839 304.672 419.083 301.235C418.792 300.657 418.297 299.865 417.604 298.854C416.24 296.907 414.01 294.058 410.458 292.042C410.01 291.818 409.552 291.568 409.078 291.37C408.583 291.209 408.094 290.99 407.573 290.828C407.042 290.74 406.516 290.542 405.958 290.479C405.526 290.443 405.089 290.381 404.641 290.323C404.458 290.323 404.24 290.282 404.021 290.302C403.828 290.339 403.49 290.261 403.568 290.563L403.531 291.209L403.51 291.37V291.922C403.51 292.302 403.49 292.688 403.531 293.068C403.729 299.297 404.807 306.151 406.516 313.245C408.193 320.344 410.24 327.078 412.057 333.282C413.87 339.469 415.422 345.188 416.536 350.042C417.078 352.5 417.568 354.709 417.865 356.709C418.036 357.698 418.214 358.625 418.354 359.474C418.474 360.323 418.573 361.115 418.656 361.823C418.792 362.896 418.911 363.782 418.984 364.474C419.104 364.552 419.224 364.631 419.344 364.714C421.479 366.214 423.844 368.011 426.432 370.032ZM447.812 384.349C447.833 384.37 447.854 384.37 447.875 384.401C447.792 384.063 447.714 383.62 447.594 383.052C447.333 381.74 446.844 379.756 446.177 377.183C445.495 374.537 444.547 371.328 443.802 367.302C443.641 366.292 443.411 365.282 443.292 364.172C443.193 363.052 443.073 361.907 442.974 360.735C442.812 358.448 442.792 356.229 442.703 353.802C442.38 344.136 441.901 332.636 441.885 319.834C441.901 313.407 442.021 306.693 442.464 299.703C442.771 296.229 442.87 292.688 443.411 289.094C443.552 287.912 443.698 286.703 443.839 285.485C444.057 285.026 443.531 285.084 443.229 284.985L442.724 284.886C442.542 284.844 442.443 284.823 441.922 284.787C440.208 284.693 438.51 284.375 436.792 284.474L434.245 284.495C433.38 284.495 432.63 284.693 431.823 284.745C430.281 284.865 428.547 285.302 427.281 285.792C426.411 286.172 426.172 286.464 426.151 287.532C426.13 288.912 426.25 290.792 426.271 292.5C426.328 300.485 426.792 308.469 427.5 316.433C427.75 319.412 428.005 322.318 428.266 325.131C428.797 330.735 429.115 335.99 429.865 340.74C431.234 350.224 432.089 357.948 433.297 363.193C434.349 368.448 434.917 371.37 434.917 371.37C435.297 373.604 435.276 375.328 434.995 376.646C435.604 377.104 436.281 377.573 437.031 378.073C438.349 378.964 439.818 380.104 441.635 381.073C443.453 382.084 445.375 383.401 447.812 384.349ZM459.245 282.797C459.385 280.047 459.505 276.688 459.344 272.87C459.245 270.974 459.104 268.953 458.766 266.927C458.583 265.938 458.417 264.849 458.094 263.938L457.875 263.229L457.604 262.62C457.469 262.162 457.188 261.901 457.125 261.75C457.208 261.782 457.089 261.589 456.797 261.433C456.719 261.391 456.62 261.328 456.5 261.292C456.297 261.229 456.078 261.172 455.849 261.11C455.411 260.969 454.802 260.901 454.24 260.802C449.672 260.24 444.688 260.563 440.995 261.552C439.917 261.86 439.859 261.959 439.62 262.198C439.5 262.297 439.479 262.469 439.458 262.62C439.438 262.787 439.438 262.828 439.458 263.167C439.458 264.547 439.839 266.266 440.208 267.776C441.016 270.813 441.922 273.443 442.484 275.339C443.052 277.24 443.312 278.438 443.312 278.438C443.349 278.719 443.349 278.979 443.333 279.209C443.88 279.308 444.547 279.469 445.13 279.589C446.057 279.787 446.984 279.99 447.911 280.167L449.292 280.459L449.979 280.599C450.161 280.599 450.141 280.719 450.12 280.839L450.078 281.188C449.958 282.115 449.859 283.047 449.771 283.953C449.448 286.526 449.151 289.063 448.87 291.532C448.5 295.537 448.26 299.438 448.083 303.214C447.833 310.776 447.833 317.875 448.042 324.427C448.443 337.578 449.271 348.662 449.859 357.599C449.958 359.927 450.297 361.667 450.5 363.464C450.927 365.282 451.188 366.922 451.698 368.5C452.036 369.771 452.385 370.938 452.724 372.058C452.745 371.808 452.745 371.568 452.745 371.308C452.802 368.131 452.844 364.433 452.922 360.245C453.005 351.823 453.125 341.37 453.245 328.938C453.266 325.818 453.281 322.589 453.292 319.235C453.312 317.552 453.312 315.854 453.312 314.115C453.312 312.516 453.224 310.797 453.104 309.021C452.984 307.198 452.823 305.36 452.823 303.344C452.844 301.334 452.823 299.214 453.635 296.667C454.094 295.417 454.781 293.959 456.141 292.87C456.479 292.589 456.828 292.339 457.188 292.099C457.547 291.922 457.938 291.761 458.312 291.61C458.375 291.578 458.432 291.568 458.495 291.552C458.495 291.511 458.474 291.469 458.474 291.412C458.474 291.412 458.922 288.302 459.245 282.797ZM474.698 310.537C474.719 307.568 474.245 304.729 472.781 302.532C471.365 300.302 468.854 298.745 465.891 297.735C464.453 297.177 462.948 296.828 461.729 296.745C460.479 296.766 459.911 296.985 459.505 297.615C459.026 298.287 458.703 299.625 458.625 301.073C458.552 302.532 458.562 304.052 458.682 305.641C458.885 308.761 459.224 312.078 459.224 315.323C459.266 318.443 459.281 321.511 459.323 324.49C459.51 336.433 459.714 347.224 459.87 356.287C459.974 360.813 460.073 364.933 460.151 368.542C460.214 370.339 460.25 372.016 460.292 373.568C460.312 374.339 460.323 375.084 460.344 375.776C460.359 376.485 460.422 377.006 460.464 377.573C460.703 379.854 461.042 381.74 461.26 383.11C461.448 384.49 461.568 385.209 461.568 385.209C461.729 386.589 461.688 387.917 461.547 388.959C461.469 389.318 461.391 389.589 461.292 389.907C462.875 390.485 464.495 391.073 466.193 391.667C467.531 392.146 468.938 392.594 470.354 393.052C470.172 392.297 470.062 391.485 470.047 390.537C470.047 390.537 469.943 387.479 470.094 382.443C470.172 377.313 470.292 369.948 470.453 360.834C470.531 356.287 471.005 351.292 471.281 345.933C471.641 340.578 471.833 334.922 472.37 328.834C473.042 322.688 474.599 316.542 474.698 310.537ZM485.339 390.344C485.557 386.688 485.698 381.193 485.599 373.839C485.536 366.511 485.057 357.339 484.979 346.297C484.948 341.729 484.891 336.823 484.849 331.662C484.328 331.506 483.802 331.386 483.203 331.354C481.625 331.313 480.146 331.766 479 332.183C478.708 332.302 478.432 332.412 478.193 332.516C478.172 332.933 478.151 333.365 478.13 333.782C477.932 339.969 477.74 345.636 477.562 350.823C477.464 353.412 477.38 355.881 477.323 358.209C477.281 360.537 477.38 362.776 477.422 364.875C477.641 373.229 477.802 379.573 477.911 383.818C477.979 385.938 478.01 387.558 478.109 388.526C478.193 389.537 478.229 390.026 478.229 390.026C478.25 392.313 478.208 393.943 477.76 395.162C480.026 395.745 482.411 396.271 484.927 396.714C484.927 396.433 484.927 396.151 484.948 395.834C484.948 395.834 485.01 395.381 485.057 394.474C485.12 393.542 485.219 392.183 485.339 390.344ZM492.995 270.006C492.995 270.006 493.036 268.735 493.036 266.349C493.036 263.959 492.807 260.24 492.917 255.672C492.932 253.506 493.094 250.938 492.766 249.099C492.583 248.131 492.385 247.599 491.917 247.141C491.438 246.672 490.427 246.229 489.292 245.849C485.948 244.979 480.427 243.662 477.12 245.578C476.255 246.089 475.547 246.797 475.057 247.808C472.922 252.256 474.328 260.021 474.438 264.766C474.599 270.573 475.036 275.823 475.135 280.297C475.318 284.787 475.547 288.422 475.406 290.99C475.385 293.558 475.365 294.99 475.365 294.99C475.333 295.578 475.198 296.058 475.016 296.469C476.495 297.797 477.703 299.495 478.63 301.235C480.635 305.641 480.604 310.026 480.365 313.797C480.089 317.615 479.479 321.089 479.021 324.37C478.979 324.688 478.938 324.99 478.88 325.297C479.927 325.479 481.375 325.62 483.401 325.677C483.88 325.677 484.328 325.719 484.786 325.74C484.729 320.224 484.667 314.417 484.609 308.292C484.51 302.672 484.427 297.318 484.349 292.552C484.328 291.349 484.307 290.203 484.292 289.084C484.271 287.891 484.25 287.104 484.172 286.094C484.021 284.115 483.802 282.136 483.823 280.256C483.859 278.349 484 276.552 484.849 274.75C485.755 272.854 487.094 271.823 488.005 271.375C488.953 270.912 489.443 270.792 489.312 270.792C489.229 270.834 488.75 270.912 487.984 271.256L488.182 271.136L489.333 270.714C490.078 270.474 490.609 270.422 491.156 270.344C491.818 270.266 492.427 270.224 492.995 270.203C492.995 270.125 492.995 270.063 492.995 270.006ZM507.188 314.318C507.469 314.073 507.75 313.875 508.036 313.709C507.667 312.735 507.427 311.469 507.411 309.87C507.411 309.87 507.411 309.448 507.411 308.417C507.427 307.381 507.427 305.683 507.307 303.115C507.292 301.823 507.208 300.302 507.089 298.547C506.99 296.787 506.839 294.766 506.583 292.479C506.38 290.183 505.974 287.651 505.552 284.802C505.271 283.407 505.005 281.927 504.703 280.36C504.646 279.969 504.505 279.589 504.427 279.198L504.276 278.599L504.214 278.328C504.177 278.188 504.177 278.068 504.135 277.948C504.214 278.068 504.276 278.131 504.297 278.032C504.297 277.99 504.297 277.912 504.276 277.792C504.214 277.75 504.073 277.74 503.896 277.688L503.734 277.667C503.516 277.641 503.286 277.61 503.047 277.589C502.557 277.542 502 277.479 501.432 277.422C500.323 277.297 499.083 277.162 497.755 277.021C496.469 276.922 495.073 276.802 493.734 276.802C493.052 276.802 492.385 276.839 491.797 276.901C491.146 277 491.109 276.979 490.891 277.12C490.99 277 490.708 276.959 490.411 277.36C490.281 277.542 489.979 278.229 489.88 279.24C489.76 280.229 489.76 281.547 489.859 283.104C489.938 284.646 490.141 286.542 490.099 288.584C490.12 290.5 490.12 292.542 490.141 294.667C490.177 298.917 490.24 303.542 490.297 308.25C490.411 319.594 490.729 330.933 491.01 342.297C491.255 352.771 491.938 362.146 492.427 370.151C492.932 378.125 493.115 384.709 493.193 389.256C493.172 391.547 493.172 393.323 493.156 394.532C493.156 395.745 493.135 396.391 493.135 396.391C493.094 396.901 493.016 397.381 492.932 397.834C494.224 397.953 495.521 398.131 496.87 398.172C498.427 398.229 502.786 399.219 504.177 398.089C505.911 396.641 504.703 392.224 504.703 390.245C504.766 383.818 504.823 377.396 504.885 370.979C504.906 363.282 505.234 353.719 505.271 342.36C505.271 336.662 505.573 330.526 505.573 323.938C505.573 323.11 505.573 322.282 505.573 321.453C505.573 320.584 505.234 319.771 505.474 318.214C505.651 316.724 506.094 315.308 507.188 314.318ZM524.651 276.568C524.76 272.532 524.49 268.485 523.99 264.469C523.75 262.417 523.521 260.141 523.24 257.735C523.104 256.506 522.943 255.245 522.792 253.953C522.615 252.558 522.531 251.136 522.453 249.75C522.312 246.979 522.255 244.162 521.682 241.625C521.406 240.386 520.974 239.256 520.396 238.547C520.125 238.167 519.807 237.943 519.448 237.745C519.12 237.594 518.781 237.474 518.172 237.453C516.844 237.375 515.146 237.714 513.667 238.084C512.13 238.464 510.703 238.896 509.505 239.276C508.656 239.552 508.557 239.615 508.318 239.714C508.141 239.792 508.12 239.823 508.24 239.844C508.219 240.042 508.276 240.282 508.276 240.464L508.318 240.735L508.339 240.933L508.38 241.433C508.479 242.75 508.578 244.021 508.677 245.24C508.865 247.677 508.865 249.907 508.984 251.985C509.188 256.136 509.224 259.511 509.344 262.198C509.526 267.594 509.714 270.146 509.714 270.146C509.698 270.464 509.677 270.735 509.625 271.016C509.646 271.016 509.677 271.016 509.698 271.016L509.755 271.256C509.953 271.901 510.115 272.474 510.255 272.974C510.526 273.943 510.703 274.573 510.766 274.813C510.922 275.261 510.625 274.073 509.797 270.875C510.276 272.651 510.745 274.391 511.203 276.068C511.344 276.589 511.474 277.12 511.63 277.61C511.75 278.068 511.87 278.511 511.953 278.959C512.333 280.698 512.661 282.354 513 283.927C513.51 287.021 513.99 289.792 514.24 292.219C514.854 297.078 515.104 300.657 515.266 303.245C515.464 305.834 515.526 307.459 515.547 308.417C515.583 309.401 515.604 309.729 515.604 309.729C515.625 310.719 515.526 311.547 515.385 312.297C515.813 312.256 516.276 312.235 516.745 312.198C518.578 312.058 520.438 311.927 522.333 311.787C522.594 311.766 522.844 311.766 523.104 311.745C522.964 311.349 522.844 310.917 522.792 310.396C522.792 310.396 522.693 309.198 522.531 306.818C522.396 304.412 522.094 300.813 522.115 295.959C522.135 293.5 522.193 290.761 522.672 287.594C523.224 283.797 524.552 280.479 524.651 276.568ZM531.276 330.995C531.297 328.188 531.198 325.339 531.156 322.459C531.021 321.11 530.891 319.75 530.75 318.381L530.667 317.516L530.609 317.084C530.49 317.063 530.328 317.084 530.188 317.084C529.224 317.125 528.255 317.162 527.286 317.203C525.729 317.266 524.172 317.334 522.651 317.474C519.547 317.714 516.516 317.933 513.49 318.162C511.75 318.365 511.573 318.323 511.062 318.745C510.885 318.964 510.844 319.25 510.823 319.532C510.802 319.75 510.781 320.479 510.781 321.193C510.885 327.099 510.964 332.834 511.062 338.271C511.281 349.172 511.474 358.974 511.771 367.282C512.37 383.86 512.88 394.172 512.88 394.172C512.922 397.729 512.818 397.969 515.932 398.563C519.24 399.183 523.302 398.563 526.656 398.511C526.448 397.563 526.328 396.433 526.365 395.042C526.365 395.042 527.036 384.729 528.125 368.11C528.812 359.766 530.151 349.985 530.901 339.24C531.057 336.552 531.141 333.802 531.276 330.995ZM548.26 350.141C549.047 340.641 549.594 331.094 549.297 321.532C549.146 316.542 548.807 310.578 548.479 303.922C548.359 300.573 548.141 297.078 548.141 293.427C548.141 291.578 548.057 289.771 548.141 287.813C548.177 285.933 548.396 283.834 548.276 282.537C548.177 281.688 547.818 281.386 546.203 280.657C545.844 280.516 545.411 280.339 545.073 280.24C544.766 280.188 544.526 280.11 544.167 280.047C543.375 279.969 542.589 279.87 541.74 279.849C540.062 279.766 538.385 279.828 536.771 279.969C535.193 280.089 533.542 280.339 532.536 280.719C531.036 281.157 529.922 283.703 529.479 286.193C529.01 288.74 528.974 291.349 529.042 293.719C529.203 298.506 529.823 302.453 530.229 305.203C530.688 307.948 530.938 309.49 530.938 309.49C531.021 310.177 530.979 310.797 530.849 311.349C531.177 311.328 531.516 311.308 531.828 311.287L534.203 311.188L535.359 311.125L535.661 311.11C535.76 311.125 535.698 311.287 535.74 311.37L535.802 311.948C536.089 314.594 536.391 317.203 536.667 319.75C536.75 320.62 536.891 321.511 536.948 322.36C536.969 323.229 536.99 324.078 537.016 324.907C537.057 326.61 537.12 328.266 537.156 329.907C537.177 331.526 537.099 333.115 537.078 334.672C537.036 336.229 537 337.75 536.969 339.261C536.87 340.761 536.786 342.219 536.688 343.646C535.979 355.089 535.094 364.552 534.812 372.12C534.651 387.438 534.573 395.302 534.573 395.302C534.531 396.453 534.401 397.443 534.182 398.271C537.078 398.131 540.062 397.933 543.089 397.651C542.885 396.86 542.828 395.912 542.969 394.771C542.969 394.771 543.698 390.677 544.703 381.094C545.292 376.297 545.823 370.068 547.073 362.453C547.208 361.506 547.37 360.537 547.51 359.537C547.661 358.547 547.698 357.698 547.797 356.729C547.938 354.61 548.099 352.443 548.26 350.141ZM562.333 260.323C562.354 260.261 562.354 260.183 562.375 260.12C562.333 259.12 562.255 258.131 562.156 257.104C561.995 254.573 562.115 252.256 562.016 250.125C561.917 248.026 561.604 246.089 560.807 244.959C560.417 244.412 560 243.964 559.349 243.683C558.719 243.344 557.99 243.131 557.203 243.032C555.464 242.834 553.448 242.912 551.573 243.094C549.677 243.261 547.818 243.563 546.083 243.979C544.385 244.391 542.708 244.933 541.578 245.578C540.792 246.052 540.849 246.188 540.932 246.881C541.073 248.131 541.458 249.646 541.859 251.068C542.057 251.828 542.271 252.558 542.469 253.266C542.568 253.646 542.667 254.037 542.766 254.495C542.828 254.766 542.927 255.183 542.906 255.422L542.927 256.016C542.99 257.474 543.068 258.844 543.109 260.12C543.167 262.599 543.208 264.729 543.24 266.469C543.318 268.125 543.359 269.433 543.396 270.302C543.578 274.433 544.266 273.662 547.469 275.011C548.568 275.443 549.698 275.87 551.151 276.938C552.703 278.032 553.75 279.969 553.917 281.875C554.078 283.526 553.958 284.646 553.917 285.756C553.88 286.844 553.818 287.875 553.818 288.881C553.88 290.959 553.917 292.969 553.958 294.927C554.156 298.854 554.396 302.516 554.729 305.933C555.365 312.818 555.917 318.604 556.344 323.271C556.432 324.162 556.505 324.99 556.562 325.797C556.604 325.198 556.646 324.427 556.682 323.511C556.844 320.933 556.901 317.104 557.292 312.058C557.672 307.021 557.932 300.735 558.698 293.308C559.068 289.594 559.271 285.563 559.849 281.256C560.359 276.959 560.885 272.375 561.464 267.516C561.755 265.167 561.932 262.808 562.333 260.323ZM574.943 348.823C575.479 344.646 575.948 340.047 575.26 336.073C575.161 335.599 575.042 335.141 574.901 334.771C574.792 334.412 574.51 334.021 574.594 334.063C574.594 334 574.495 333.943 574.453 333.901L574.115 333.604L573.745 333.386C573.484 333.141 573.016 333.094 572.656 332.912C570.901 332.433 568.635 332.516 566.417 332.896C555.917 334.75 555.167 339.448 554.516 349.115C554.38 351.151 554.318 353.188 554.24 355.188C554.177 356.188 554.156 357.136 554.078 358.209C554.021 359.256 553.958 360.266 553.818 361.157C553.427 364.792 552.969 368.172 552.719 371.287C552.5 374.417 552.302 377.266 552.12 379.813C551.812 384.969 551.573 388.938 551.411 391.625C551.214 394.354 551.094 395.782 551.094 395.782C551.052 396.131 550.984 396.474 550.922 396.802C551.214 396.761 551.531 396.729 551.854 396.683C556.214 396.073 560.656 395.224 565.151 394.042C565.151 393.464 565.198 392.854 565.328 392.167C565.328 392.167 565.885 390.125 566.906 386.49C567.146 385.599 567.427 384.631 567.745 383.563C567.974 382.521 568.255 381.391 568.531 380.183C568.823 379.052 569.083 377.516 569.401 376.016C569.729 374.537 570.089 372.99 570.438 371.349C571.927 364.891 573.766 357.256 574.943 348.823ZM585.516 261.11C585.562 259.834 585.625 258.5 585.495 257.391C585.375 256.256 585.052 255.485 584.812 255.266C584.568 254.985 583.458 254.636 581.958 254.615C580.495 254.573 578.797 254.667 577.036 254.787C573.526 254.985 570.411 255.506 569.161 257.594C568.682 258.381 568.333 259.49 568.073 260.761C568.073 260.802 568.094 260.849 568.094 260.901C568.214 262.339 568.156 263.719 568.156 265.089C568.172 267.808 567.917 270.422 567.745 272.933C567.286 277.927 566.656 282.438 566.24 286.604C566.047 288.683 565.807 290.683 565.75 292.552C565.688 293.479 565.63 294.417 565.589 295.297C565.589 296.209 565.568 297.078 565.568 297.938C565.568 301.354 565.766 304.511 565.948 307.36C566.318 313.047 566.557 317.495 566.578 320.521C566.656 322.021 566.536 323.209 566.557 323.979C566.536 324.75 566.516 325.146 566.516 325.146C566.458 325.938 566.276 326.61 566.078 327.198C568.214 326.886 570.432 326.709 572.755 327.115C572.818 326.927 572.896 326.688 572.995 326.407C573.188 325.86 573.443 325.177 573.703 324.339C573.922 323.438 574.151 322.422 574.432 321.25C574.88 318.844 575.344 315.797 575.682 311.969C575.87 310.068 576.109 307.948 576.37 305.74C576.531 304.532 576.641 303.662 576.641 302.552C576.641 301.386 576.641 300.183 576.641 298.938C576.641 296.386 576.568 293.938 576.797 291.511C576.88 290.302 577.078 289.063 577.339 287.854C577.417 287.271 577.708 286.563 577.927 285.953C578.167 285.302 578.396 284.693 578.818 284.115C580.172 281.907 582.391 280.438 584.365 279.766C584.286 279.308 584.266 278.818 584.344 278.271C584.344 278.271 584.448 277.891 584.547 277.141C584.615 276.391 584.734 275.261 584.875 273.823C585.193 270.933 585.333 266.589 585.516 261.11ZM596.974 287.834C596.896 287.813 596.823 287.834 596.745 287.813C596.745 287.813 595.974 287.495 594.589 287.021C593.229 286.584 591.193 285.953 588.938 285.792C587.839 285.714 586.672 285.792 585.745 286.157C584.833 286.506 584.026 287.104 583.516 288.245C583.396 288.563 583.219 288.802 583.12 289.172C583.016 289.552 582.917 289.943 582.828 290.339C582.589 291.11 582.547 292.078 582.411 292.948C582.25 294.828 582.172 296.828 582.188 298.917C582.188 300.995 582.271 303.125 582.172 305.344C582 307.318 581.891 309.24 581.839 311.058C581.698 314.724 581.698 318.094 581.458 321.032C581.281 323.938 580.99 326.386 580.63 328.104C580.354 329.823 580.042 330.813 580.042 330.813C579.943 331.052 579.823 331.276 579.682 331.443C579.885 331.844 580.125 332.266 580.234 332.615C580.932 334.37 581.161 335.933 581.302 337.401C581.781 343.245 581.099 348.183 580.552 352.813C579.312 361.985 577.729 369.511 576.708 375.506C576.448 377.006 576.229 378.386 576.068 379.631C575.849 381.011 575.641 382.323 575.422 383.521C575.021 386 574.552 387.797 574.234 389.375C574.094 390.104 573.984 390.714 573.865 391.276C574.375 391.094 574.88 390.917 575.38 390.714C579.115 389.256 582.828 387.459 586.411 385.297C586.042 384.042 585.844 382.401 585.885 380.282C585.885 380.282 585.922 379.693 585.984 378.526C586.062 377.334 586.042 375.573 586.26 373.245C586.672 368.599 587.073 361.646 588.151 352.552C589.099 343.427 590.682 332.162 592.573 318.823C593.542 312.157 594.568 304.974 595.698 297.235C596.125 294.198 596.562 291.032 596.974 287.834ZM617.906 362.292C617.906 362.183 617.906 362.084 617.906 361.985C617.87 361.604 617.729 361.334 617.568 361.193C617.24 360.974 617.151 361.037 617.349 361.214C617.141 361.016 616.781 361.037 616.557 361.193C616.302 361.375 616.151 361.584 615.99 361.823C614.823 363.542 613.755 365.683 612.734 367.792C611.646 369.969 610.76 372.099 609.104 374.537C608.865 374.865 608.661 375.167 608.323 375.516L607.734 376.157L606.516 377.474C605.859 378.193 605.229 378.886 604.578 379.573C602.344 387.776 601.328 395.724 600.469 403.006C599.589 410.933 598.932 418.167 598.12 424.714C597.375 431.308 596.167 437.068 595.234 442.12C594.297 447.177 593.438 451.568 592.792 455.386C592.104 459.183 591.641 462.401 591.214 465.089C590.854 467.776 590.562 469.933 590.344 471.615C589.964 474.99 589.557 476.469 589.135 476.469C588.75 476.469 588.349 474.99 588.042 471.552C587.88 469.813 587.922 467.573 587.901 464.787C588.042 462.021 588.188 458.703 588.63 454.792C589.026 450.896 589.635 446.412 590.385 441.313C591.115 436.198 592.12 430.5 592.693 424.094C593.292 417.599 593.958 410.381 594.688 402.381C595.219 397.401 595.833 392.084 596.911 386.469C592 390.266 586.75 393.323 581.458 395.703C565.349 402.839 549.474 404.604 535.521 405.448C528.51 405.875 521.906 405.875 515.667 405.917C509.365 405.875 503.698 405.896 497.917 405.698C486.526 405.308 476.594 403.068 468.339 400.521C462.719 398.782 458.016 395.745 452.583 393.766C445.599 391.193 438.87 389.438 432.63 385.089C430.974 383.901 429.177 382.813 427.021 381.594C427.021 381.594 426.448 381.271 425.344 380.662C425.042 380.485 424.693 380.302 424.312 380.084C425.083 386.891 425.844 393.266 426.51 399.24C427.38 407.677 428.146 415.302 428.839 422.188C429.562 429.042 430.224 435.146 430.792 440.563C431.359 445.959 431.719 450.698 432.312 454.756C434.385 470.995 434.646 477.318 433.849 477.459C433.036 477.62 431.302 471.594 428.146 455.344C427.281 451.318 426.708 446.589 425.901 441.172C425.141 435.776 424.255 429.651 423.406 422.797C421.891 410.006 420.052 394.532 417.885 376.073C416.01 374.657 413.99 372.797 412.135 370.537C410.958 369.141 409.708 367.651 408.323 366.193C407.875 365.683 408.052 365.87 407.953 365.761C407.911 365.724 407.854 365.662 407.771 365.641C407.672 365.62 407.651 365.724 407.635 365.771L407.615 365.891C407.615 365.912 407.594 366.011 407.615 366.229C407.651 367.479 407.755 368.782 407.875 370.151C407.995 371.511 408.13 372.797 408.354 374.297C409.161 380.125 410.047 386.448 410.969 393.245C412.073 399.99 413.042 407.146 414.453 414.828C415.849 422.537 417.307 430.662 418.854 439.193C421.599 456.313 424.375 475.073 427.297 495.11C428.698 505.162 430.531 515.443 432.229 526.099C432.448 527.417 432.672 528.745 432.891 530.063L432.99 530.724L433.021 531.016C433.099 531.073 433.219 531.073 433.318 531.094L433.948 531.136L435.724 531.193C437.094 531.214 438.448 531.235 439.818 531.256C445.318 531.292 450.927 531.256 456.62 531.172C467.969 531.037 479.62 530.797 491.495 530.506C503.365 530.245 515.547 530.167 527.906 529.985C534.083 529.907 540.323 529.834 546.62 529.735C549.755 529.693 552.922 529.657 556.073 529.615C559.349 529.558 562.562 529.834 565.729 529.985C572.047 530.323 578.375 530.604 584.406 529.714C587.38 529.256 590.307 528.448 592.474 526.985C593.557 526.24 594.391 525.386 594.99 524.297C595.594 523.151 596.104 521.813 596.443 520.36C597.651 515.287 597.672 509.62 597.714 504.063C597.792 498.506 597.552 492.792 598.521 487.063C600.339 476.219 602.094 465.636 603.792 455.506C604.62 450.427 605.448 445.459 606.255 440.641C607.068 435.818 607.833 431.12 608.422 426.615C609.891 417.641 610.422 409.084 611.208 401.308C611.568 397.401 611.927 393.683 612.24 390.209C612.656 386.709 613.167 383.448 613.562 380.401C613.776 378.901 613.974 377.433 614.172 376.037C614.234 375.677 614.276 375.328 614.333 374.985C614.411 374.578 614.474 374.099 614.583 373.745C614.781 372.948 615 372.297 615.203 371.646C616.052 369.162 616.818 367.099 617.286 365.323C617.526 364.433 617.708 363.625 617.828 362.912C617.87 362.735 617.87 362.537 617.885 362.433L617.906 362.292ZM619.802 281.766C620.016 280.167 620.193 278.537 620.193 277.021C620.193 275.521 620.031 273.964 619.604 273.703C619.026 272.933 618.115 272.495 616.661 272.271C615.24 272.084 613.484 272.141 611.667 272.162C609.792 272.172 608.036 272.125 606.495 272.323L605.938 272.391L605.63 272.474C605.427 272.532 605.292 272.573 605.13 272.693C604.828 272.891 604.682 273.193 604.578 273.604C602.703 288.214 600.906 302.162 599.271 314.886C598.422 321.313 597.734 327.396 597.052 333.115C596.464 338.818 595.896 344.136 595.474 349.006C595.125 353.86 594.766 358.266 594.526 362.125C594.391 365.99 594.276 369.328 594.156 372.037C594.021 374.766 594.057 376.886 594.078 378.323C594.078 379.032 594.099 379.594 594.099 379.953C595.354 378.922 596.625 377.854 597.833 376.703C599.531 375.104 601.089 373.266 602.766 371.526L603.333 370.901C603.432 370.776 603.552 370.641 603.672 370.438C603.932 370.068 604.203 369.589 604.479 369.099C605.031 368.089 605.589 366.964 606.156 365.813C606.828 364.474 607.495 363.094 608.255 361.667C608.214 361.313 608.193 360.917 608.193 360.474C608.135 359.495 608.193 358.349 608.396 357.016C608.396 357.016 608.422 356.87 608.484 356.526C608.562 356.188 608.625 355.677 608.724 354.969C608.885 353.542 609.182 351.552 609.453 348.761C609.729 346.073 610.203 342.516 610.802 338.641C611.391 334.792 612.057 330.386 612.786 325.537C613.167 323.11 613.547 320.563 613.932 317.912C614.396 315.266 614.844 312.516 615.323 309.667C616.318 303.943 617.151 297.948 618.068 291.578L618.234 290.401L618.339 289.672L618.474 288.985C618.635 288.162 618.797 287.375 618.953 286.563C619.266 284.964 619.562 283.365 619.802 281.766ZM625.901 274.693C626.151 277.099 625.995 279.141 625.802 281.157C625.583 283.125 625.286 285.026 624.974 286.865C624.797 287.771 624.635 288.662 624.474 289.552L624.276 290.584L624.125 291.901C623.906 293.657 623.688 295.381 623.469 297.078C622.677 303.881 621.771 309.969 620.984 315.526C620.193 321.089 619.682 326.188 619.125 330.714C618.615 335.224 618.099 339.261 617.786 342.578C617.427 345.854 617.25 348.724 617.12 351.011C617.057 351.86 617 352.62 616.938 353.313C617.099 353.292 617.24 353.271 617.391 353.25C617.51 353.25 617.63 353.271 617.75 353.271C617.49 353.271 617.219 353.292 616.938 353.328C616.938 353.349 616.938 353.391 616.938 353.433C617.469 353.37 618.068 353.37 618.734 353.479C619.865 353.719 621.021 354.308 622.01 355.36C623.099 356.308 623.766 357.818 624.146 359.578C624.188 360.495 624.339 361.443 624.219 362.516C624.188 362.953 624.125 363.386 624.068 363.844C624.005 364.172 623.927 364.511 623.865 364.875C623.568 366.25 623.156 367.62 622.698 369C622.229 370.318 621.729 371.729 621.224 373.209C620.964 373.896 620.734 374.604 620.573 375.203C620.453 375.558 620.453 375.756 620.375 376.073C620.312 376.464 620.255 376.886 620.193 377.297C619.703 380.62 619.188 384.219 618.615 388.068C617.646 395.834 616.917 404.688 615.891 414.568C615.51 419.495 614.583 424.651 613.854 430.011C613.104 435.386 612.078 440.771 611.151 446.427C609.26 457.714 607.224 469.693 605.13 482.198C604.859 483.766 604.599 485.323 604.323 486.901L603.943 489.261C603.87 490.011 603.75 490.698 603.714 491.469C603.453 494.5 603.432 497.735 603.411 500.995C603.391 504.302 603.411 507.641 603.255 511.078C603.104 514.537 602.844 518.052 601.953 521.729C601.396 523.86 600.766 525.938 599.328 528.104C597.844 530.245 595.797 531.802 593.76 532.813C589.635 534.834 585.516 535.422 581.562 535.782C573.646 536.412 566.026 535.641 558.901 535.36C557.182 535.282 555.365 535.36 553.547 535.381C551.734 535.401 549.917 535.443 548.12 535.464C544.526 535.521 540.953 535.584 537.417 535.62C530.328 535.74 523.359 535.839 516.531 535.964C509.677 536.063 502.948 536.172 496.339 536.271C489.682 536.453 483.172 536.631 476.771 536.813C463.953 537.099 451.656 537.401 439.74 537.401C438.24 537.381 436.734 537.36 435.255 537.36L434.125 537.318L432.37 537.24C431.094 537.141 429.667 537.099 428.875 536.37L428.625 536.063L428.484 535.901C428.484 535.802 428.068 536.131 428.208 535.901L427.828 535.141C427.62 534.61 427.26 534.24 427.177 533.563L426.63 530.386C426.391 528.964 426.151 527.537 425.922 526.136C424.974 520.5 424.026 514.985 423.115 509.62C421.281 498.823 419.813 488.5 418.255 478.667C415.141 459.021 412.453 441.271 409.25 425.641C408.5 421.703 407.771 417.907 407.083 414.219C406.375 410.542 405.818 406.865 405.208 403.37C404.62 399.87 404.057 396.474 403.51 393.214C403.01 389.964 402.562 386.849 402.115 383.839C401.651 380.834 401.234 377.974 400.823 375.203C400.604 373.875 400.427 372.375 400.297 371.037C400.156 369.672 400.036 368.328 399.958 366.964L399.938 366.412L399.917 365.563C399.896 365 399.875 364.453 399.917 363.844C399.938 363.245 399.937 362.657 400.036 362.125C400.094 361.547 400.156 360.995 400.318 360.516C400.807 358.469 401.693 357.136 403.208 356.266C404.87 355.417 406.396 355.5 407.974 356.099C408.839 356.427 409.729 356.979 410.578 357.615C410.438 356.308 410.276 354.927 410.057 353.349C409.49 349.006 408.37 343.589 406.786 337.141C405.208 330.693 403.052 323.229 400.984 314.558C399.974 310.209 399.089 306.052 398.5 302.104C398.219 300.125 397.901 298.224 397.76 296.349C397.693 295.417 397.589 294.511 397.51 293.599C397.453 293.167 397.453 292.709 397.432 292.261C397.411 291.651 397.391 291.052 397.37 290.443C397.349 289.672 397.333 288.912 397.312 288.162C397.312 287.453 397.333 286.745 397.349 286.032L397.37 285.006C397.531 284.787 398 284.823 398.318 284.724C398.99 284.604 399.656 284.495 400.333 284.354C401.672 284.115 403.031 284.058 404.339 283.896C405.068 283.823 405.448 283.927 405.875 283.927C406.318 283.953 406.745 283.974 407.161 284.016C410.557 284.433 413.422 285.657 415.688 287.006C417.604 288.193 419.125 289.391 420.411 290.563C420.391 289.651 420.349 288.74 420.37 287.631C420.391 286.542 420.609 284.417 421.63 283.068C422.578 281.625 424.432 280.677 425.604 280.276C426.802 279.849 427.849 279.61 428.958 279.36C430.995 279.099 433.099 278.776 435.115 278.797C435.073 278.459 435.036 278.068 434.953 277.511C434.745 276.032 434.286 273.782 433.719 270.594C433.438 268.974 433.078 267.177 432.99 264.886C432.99 264.276 432.948 263.698 433.01 263.011C433.036 262.641 433.078 262.261 433.12 261.86C433.177 261.412 433.38 260.969 433.5 260.5L433.719 259.834C433.818 259.61 433.938 259.391 434.047 259.193C434.266 258.761 434.484 258.323 434.875 258.032C435.214 257.672 435.573 257.313 436.026 257.104C436.464 256.844 436.854 256.506 437.349 256.334C437.76 256.193 438.198 256.032 438.63 255.896C438.99 255.792 439.318 255.714 439.677 255.636C439.979 255.563 440.245 255.506 440.547 255.464C440.547 255.433 440.547 255.433 440.547 255.422C440.547 255.422 440.703 252.735 440.807 247.448C440.766 246.151 440.667 244.693 440.568 243.073C440.505 242.261 440.448 241.412 440.385 240.516C440.266 238.875 440.125 237.177 439.979 235.396C439.938 234.969 439.917 234.506 439.875 234.078L439.839 233.719C439.896 233.657 440.047 233.677 440.146 233.636L440.844 233.526C441.755 233.349 442.682 233.167 443.62 233.011C445.109 232.729 446.625 232.459 448.203 232.162C450.536 231.709 453.042 231.532 455.688 231.151C458.354 230.86 460.88 230.761 463.224 230.563C464.417 230.459 465.562 230.5 466.661 230.459C468.479 230.459 470.214 230.438 471.87 230.422C472.328 230.401 472.781 230.401 473.219 230.401H473.557C473.609 230.459 473.589 230.599 473.63 230.698L473.729 231.328C473.87 232.177 473.99 233.011 474.125 233.818C474.349 235.188 474.557 236.485 474.776 237.714C474.917 238.443 475.036 239.115 475.156 239.766C475.547 239.646 475.943 239.552 476.292 239.474C478.651 238.974 480.615 238.995 482.495 239.037C484.411 239.094 486.146 239.256 487.943 239.495C489.698 239.724 491.495 240.063 493.375 240.854C494.281 241.235 495.271 241.823 496.141 242.552C497.026 243.344 497.719 244.313 498.203 245.282C499.172 247.282 499.276 248.896 499.474 250.349C499.734 253.167 499.771 255.407 499.911 257.391C500.031 259.334 500.26 261.089 500.422 262.599C500.62 264.157 500.76 265.459 500.891 266.506C501.089 268.724 501.193 269.823 501.193 269.823C501.193 270.084 501.151 270.323 501.13 270.537C501.271 270.552 501.411 270.573 501.552 270.573C501.531 270.422 501.51 270.287 501.51 270.104C501.51 270.104 501.609 268.084 501.839 263.011C501.938 260.5 502.141 257.183 502.177 253.047C502.198 250.969 502.26 248.657 502.219 246.131C502.078 242.891 501.938 239.354 501.792 235.495C501.859 236.328 501.88 236.344 501.859 235.698C501.859 235.599 501.859 235.495 501.859 235.375C501.88 235.256 501.792 235.068 501.938 235.047C502.26 234.99 502.62 234.907 503.005 234.828C503.833 234.667 504.865 234.459 506.01 234.198C507.469 233.797 509.328 233.287 511.432 232.729C513.411 232.282 515.568 231.688 518.479 231.782C519.099 231.782 519.807 231.901 520.495 232.078C521.266 232.297 521.964 232.589 522.573 232.969C523.224 233.308 523.729 233.818 524.271 234.276C524.719 234.787 525.156 235.297 525.49 235.839C526.818 237.974 527.266 239.985 527.646 241.802C528.292 245.422 528.354 248.558 528.693 251.209C528.75 251.886 528.87 252.495 528.974 253.125C529.094 253.797 529.203 254.453 529.302 255.104C529.542 256.386 529.76 257.631 529.969 258.802C530.391 261.172 530.781 263.328 531.141 265.219C531.807 269.073 532.266 272.104 532.557 274.094C532.578 274.25 532.578 274.349 532.604 274.49C533.094 274.391 533.562 274.313 534.021 274.271C534.594 274.193 535.151 274.172 535.719 274.131C535.521 273.5 535.339 272.792 535.281 271.901C535.281 271.901 535.281 271.506 535.302 270.756C535.339 270.006 535.38 268.854 535.422 267.354C535.458 265.818 535.578 264.078 535.682 261.901C535.76 260.818 535.76 259.709 535.781 258.5C535.74 257.391 535.922 255.735 535.719 255.266C535.458 253.995 535.094 252.453 534.75 250.756C534.594 249.886 534.432 249 534.333 247.948C534.245 247.12 534.161 245.078 534.771 243.683C535.073 242.933 535.599 242.292 536.141 241.662C536.75 241.172 537.359 240.485 538.068 240.162C538.667 239.802 539.193 239.552 539.724 239.354C540.281 239.094 540.812 238.933 541.349 238.766C543.495 238.084 545.651 237.677 547.901 237.354C550.156 237.078 552.464 236.896 554.984 236.948C557.333 237.026 560.755 237.177 563.651 239.552C565.078 240.693 566.177 242.365 566.734 243.964C567.307 245.563 567.526 247.12 567.646 248.599C567.703 249.427 567.745 250.266 567.745 251.068C568.333 250.735 568.943 250.396 569.542 250.188C570.797 249.667 571.99 249.396 573.125 249.177C573.703 249.099 574.255 249.016 574.812 248.938C575.323 248.896 575.812 248.839 576.292 248.776C577.26 248.677 578.224 248.578 579.214 248.5C581.161 248.391 583.12 248.209 585.542 248.719C586.729 248.959 588.167 249.589 589.255 250.615C590.427 251.646 591.036 252.886 591.453 253.953C592.792 258.203 592.24 261.131 592.464 263.521C592.542 266.037 592.573 268.245 592.63 270.146C592.714 272.063 592.672 273.724 592.63 275.073C592.609 276.391 592.594 277.401 592.594 278.068C592.562 278.532 592.542 278.797 592.521 278.959C594.349 279.099 595.734 279.36 596.745 279.49C597.292 279.589 597.693 279.667 598.021 279.729C598.042 279.49 598.083 279.261 598.104 279.021C598.443 276.86 598.464 274.969 599.109 272.084C599.568 270.266 600.708 268.485 602.422 267.636C603.292 267.198 604.203 266.927 605.01 266.787C605.677 266.667 606.359 266.589 606.948 266.568C608.156 266.469 609.26 266.469 610.359 266.448C611.406 266.448 612.438 266.427 613.484 266.407C615.63 266.427 618.099 266.328 620.865 267.537C621.542 267.776 622.188 268.308 622.818 268.756C623.49 269.193 623.865 269.802 624.417 270.474L624.818 270.974L625.062 271.584C625.245 271.985 625.443 272.391 625.505 272.735C625.724 273.443 625.823 274.073 625.901 274.693ZM461.427 257.87C461.786 258.302 462.099 258.703 462.359 259.099C462.62 259.511 462.776 259.901 462.995 260.302C463.427 261.131 463.604 261.839 463.875 262.599C464.312 264.037 464.635 265.375 464.865 266.667C465.344 269.214 465.594 271.521 465.792 273.62C466.172 277.808 466.312 281.209 466.432 283.875C466.599 289.214 466.682 291.683 466.682 291.683C466.661 291.782 466.641 291.881 466.62 291.979C466.901 292.058 467.177 292.162 467.448 292.261C467.469 291.938 467.51 291.631 467.568 291.25C467.667 290.24 467.807 289 467.99 287.495C468.047 285.974 468.109 284.214 468.188 282.198C468.375 278.188 468.375 273.073 468.375 267.006C468.396 263.938 468.438 260.62 468.479 257.063C468.495 255.282 468.578 253.506 468.656 251.568C468.656 251.349 468.677 251.115 468.698 250.896C468.698 250.578 468.698 249.787 468.719 248.599C468.656 247 468.797 244.729 468.536 241.865C468.438 240.563 468.318 239.094 468.208 237.558C468.208 237.297 468.208 237.026 468.219 236.745C468.266 236.526 468.089 236.589 467.969 236.547L467.531 236.485L467.318 236.464C467.219 236.448 467.219 236.448 466.922 236.448C466.443 236.427 465.974 236.407 465.484 236.386C464.516 236.328 463.526 236.328 462.516 236.407C460.5 236.526 458.417 236.547 456.297 236.808C454.161 237.078 452.094 237.354 450.12 237.693C449.193 237.896 448.302 238.084 447.432 238.287C447.115 238.386 446.823 238.485 446.526 238.563C446.328 238.563 446.464 238.797 446.464 238.933L446.583 239.375L446.688 239.724C446.745 240.162 446.807 240.584 446.865 240.995C447.135 242.714 447.396 244.313 447.615 245.782C448.161 250.396 448.542 253.604 448.682 254.787C450.698 254.787 452.766 254.865 455.042 255.162C456.776 255.485 458.562 255.693 460.271 256.881C460.599 257.141 460.859 257.381 461.12 257.532C461.26 257.651 461.349 257.792 461.427 257.87Z" fill="#002C1F"/>
</g>
<path d="M571.666 516.115C584.427 519.161 591.724 522.818 591.453 523.588C591.135 524.536 583.416 522.542 570.797 520.74C564.479 519.911 556.963 519.042 548.547 518.62C546.479 518.542 544.343 518.474 542.161 518.38C539.984 518.312 537.656 518.354 535.338 518.312C530.729 518.292 525.927 518.25 521.015 518.234C516.052 518.151 511.495 518.234 506.942 518.323C504.625 518.474 502.338 518.62 500.12 518.76C498.015 518.865 495.859 519.271 493.812 519.49C491.734 519.75 489.698 520.01 487.745 520.24C485.776 520.521 483.859 520.922 482.005 521.229C478.271 521.87 474.797 522.458 471.62 523.01C468.396 523.547 465.484 524.021 462.927 524.38C460.38 524.656 458.177 524.807 456.359 524.927C452.745 525.13 450.698 525.026 450.63 524.568C450.557 524.12 452.453 523.349 455.948 522.359C457.677 521.87 459.833 521.312 462.317 520.703C464.791 519.99 467.567 519.224 470.672 518.38C473.708 517.552 477.203 516.703 480.916 515.812C482.771 515.385 484.666 514.854 486.703 514.474C488.734 514.135 490.828 513.786 492.953 513.406C495.13 513.083 497.265 512.594 499.635 512.396C501.838 512.208 504.114 512.005 506.422 511.807C511.14 511.609 516.172 511.469 521.078 511.568C526.005 511.625 530.797 511.708 535.458 511.766C537.797 511.849 540.041 511.865 542.307 512.026C544.583 512.187 546.812 512.344 548.989 512.474C557.614 513.266 565.286 514.656 571.666 516.115Z" fill="#002C1F"/>
</svg>
