<svg width="1024" height="768" viewBox="0 0 1024 768" fill="none" xmlns="http://www.w3.org/2000/svg">
<mask id="mask0_758_156" style="mask-type:luminance" maskUnits="userSpaceOnUse" x="429" y="230" width="167" height="308">
<path d="M429.058 230.401H595.058V537.401H429.058V230.401Z" fill="white"/>
</mask>
<g mask="url(#mask0_758_156)">
<path d="M592.573 301.354H521.396V267.662C521.396 263.683 519.422 259.964 516.131 257.714L476.625 230.823C476.068 230.443 475.386 230.313 474.724 230.459C474.068 230.599 473.506 231.006 473.157 231.578L466.261 243.026C465.584 244.141 465.912 245.594 467.006 246.313L501.792 269.25C503.808 270.584 505.016 272.818 505.016 275.229V280.849C505.016 280.849 505.016 280.849 505.016 280.854V301.354H431.542C430.193 301.354 429.104 302.443 429.104 303.792V322.099C429.104 323.448 430.193 324.537 431.542 324.537H433.703V331.256C433.703 332.604 434.792 333.693 436.141 333.693H438.438L449.813 535.104C449.881 536.391 450.948 537.401 452.245 537.401H571.87C573.162 537.401 574.235 536.391 574.302 535.104L585.677 333.693H587.974C589.323 333.693 590.412 332.604 590.412 331.256V324.537H592.573C593.922 324.537 595.011 323.448 595.011 322.099V303.792C595.011 302.443 593.922 301.354 592.573 301.354ZM509.683 273.089L516.516 267.651C516.516 267.657 516.521 267.657 516.521 267.662V274.672L509.896 277.308V275.229C509.896 274.5 509.808 273.792 509.683 273.089ZM514.677 262.881L507.756 268.391C507.006 267.313 506.063 266.36 504.974 265.558L509.933 259.396L513.381 261.74C513.86 262.073 514.297 262.459 514.677 262.881ZM476.006 236.302L505.891 256.646L500.912 262.834L471.646 243.537L476.006 236.302ZM509.896 282.552L516.516 279.922V301.354H509.896V282.552ZM433.979 306.229H590.131V319.662H433.979V306.229ZM516.75 333.693C519.693 339.547 521.745 345.766 522.776 352.24L522.813 352.485C524.203 361.349 523.177 370.495 519.849 378.938C517.526 384.834 515.438 390.891 513.641 396.943L513.542 397.297C507.516 417.724 505.558 439.084 507.703 460.787C508.052 464.276 508.474 467.787 508.964 471.219C511.396 488.188 515.662 504.943 521.651 521.078H513.75C507.547 504.756 503.136 487.761 500.667 470.532C500.183 467.167 499.771 463.724 499.427 460.302C497.344 439.24 499.245 418.506 505.084 398.672L502.745 397.985L505.193 398.328C506.948 392.396 508.99 386.474 511.256 380.724C511.714 379.568 512.125 378.396 512.506 377.224C515.141 368.974 515.834 360.24 514.506 351.735L514.5 351.729L514.459 351.474C513.485 345.313 511.625 339.36 509.021 333.693H516.75ZM503.62 333.693C506.573 339.552 508.62 345.776 509.646 352.24L509.688 352.485C511.073 361.349 510.047 370.495 506.719 378.938C504.401 384.818 502.313 390.875 500.516 396.943L502.854 397.631L500.412 397.297C494.391 417.735 492.427 439.094 494.573 460.787C494.922 464.276 495.344 467.787 495.839 471.219C498.271 488.193 502.537 504.953 508.521 521.078H453.907L443.323 333.693H503.62ZM512.058 532.526H454.552L454.183 525.953H569.933L569.563 532.526H512.058ZM570.209 521.084H526.881C520.672 504.745 516.261 487.75 513.797 470.532C513.313 467.167 512.896 463.729 512.558 460.308C510.474 439.235 512.381 418.5 518.219 398.677L515.875 397.99L518.318 398.328C520.073 392.412 522.115 386.495 524.386 380.724C528.032 371.479 529.151 361.453 527.631 351.735L527.589 351.479C526.615 345.313 524.756 339.36 522.151 333.698H580.782L570.209 521.084ZM585.532 328.823H438.584V324.537H585.532V328.823Z" fill="#002C1F"/>
</g>
</svg>
