<svg width="1024" height="768" viewBox="0 0 1024 768" fill="none" xmlns="http://www.w3.org/2000/svg">
<path d="M459.516 373.281C459.917 372.901 460.234 372.453 460.458 371.948C460.682 371.437 460.802 370.906 460.818 370.349C460.828 369.791 460.734 369.255 460.536 368.739C460.333 368.218 460.042 367.76 459.661 367.354C459.276 366.953 458.828 366.64 458.323 366.416C457.812 366.192 457.281 366.073 456.724 366.062C456.172 366.047 455.635 366.14 455.115 366.343C454.599 366.547 454.141 366.838 453.74 367.224C441.823 378.609 434.74 392.531 435.474 408.588C435.5 409.146 435.63 409.672 435.87 410.177C436.104 410.677 436.427 411.114 436.839 411.489C437.245 411.864 437.714 412.146 438.234 412.333C438.755 412.521 439.292 412.604 439.849 412.578C440.401 412.552 440.932 412.422 441.432 412.187C441.932 411.953 442.375 411.63 442.745 411.218C443.12 410.807 443.401 410.343 443.589 409.823C443.781 409.297 443.859 408.76 443.839 408.203C443.208 394.484 449.583 382.765 459.516 373.281Z" fill="#002C1F"/>
<mask id="mask0_758_45" style="mask-type:luminance" maskUnits="userSpaceOnUse" x="410" y="236" width="253" height="252">
<path d="M410.667 236H662.281V488H410.667V236Z" fill="white"/>
</mask>
<g mask="url(#mask0_758_45)">
<path d="M645.807 252.667C641.073 236.198 620.135 230.458 607.734 242.87C606.87 243.724 606.083 244.646 605.37 245.625C604.651 246.609 604.021 247.641 603.474 248.724C602.922 249.807 602.464 250.927 602.094 252.083C601.724 253.24 601.448 254.417 601.266 255.62C601.083 256.823 601 258.031 601.01 259.245C601.026 260.458 601.135 261.662 601.339 262.859C601.547 264.057 601.844 265.229 602.24 266.38C602.63 267.531 603.115 268.641 603.682 269.714C596 279.708 587.781 289.25 579.042 298.339C570.594 293.276 559.516 294.313 552.359 302.214C536.437 319.787 483.01 305.969 436.172 352.844C361.292 427.792 470.953 537.297 545.714 462.474C592.427 415.724 578.786 362.083 596.302 346.193C607.286 336.224 604.646 319.099 592.802 312.167C592.323 311.886 591.812 311.708 591.26 311.63C590.708 311.552 590.167 311.583 589.63 311.724C589.094 311.865 588.604 312.104 588.161 312.443C587.719 312.776 587.354 313.182 587.073 313.662C586.792 314.146 586.615 314.656 586.542 315.208C586.464 315.761 586.5 316.302 586.641 316.844C586.781 317.38 587.016 317.87 587.354 318.313C587.687 318.755 588.099 319.115 588.578 319.396C595.505 323.453 597.516 333.781 590.677 339.984C569.234 359.448 585.479 410.828 539.792 456.552C472.781 523.625 375.052 425.865 442.094 358.771C487.891 312.932 539.078 329.344 558.562 307.839C563.932 301.912 572.01 302.745 576.714 306.974C577.115 307.339 577.568 307.609 578.073 307.797C578.578 307.979 579.099 308.063 579.641 308.047C580.177 308.031 580.693 307.917 581.187 307.698C581.682 307.484 582.115 307.182 582.495 306.797C593.104 296 602.974 284.563 612.099 272.479C612.37 272.125 612.578 271.734 612.719 271.307C612.865 270.886 612.943 270.448 612.943 270C612.948 269.552 612.885 269.115 612.75 268.688C612.615 268.255 612.411 267.865 612.151 267.5C611.646 266.807 611.208 266.078 610.839 265.313C610.464 264.542 610.161 263.75 609.932 262.927C609.698 262.104 609.542 261.271 609.458 260.422C609.375 259.568 609.37 258.719 609.437 257.87C609.505 257.016 609.651 256.177 609.865 255.354C610.083 254.526 610.37 253.729 610.734 252.953C611.094 252.177 611.516 251.443 612.005 250.745C612.5 250.047 613.047 249.396 613.651 248.797C622.042 240.396 636.38 245.208 638.161 256.813C638.229 257.255 638.365 257.672 638.568 258.068C638.766 258.469 639.026 258.823 639.339 259.141C639.656 259.453 640.01 259.714 640.406 259.912C640.807 260.115 641.224 260.25 641.661 260.318C653.25 262.099 658.068 276.448 649.677 284.849C649.073 285.453 648.427 286.005 647.729 286.495C647.031 286.984 646.292 287.412 645.521 287.771C644.745 288.13 643.948 288.417 643.12 288.636C642.297 288.854 641.458 288.995 640.609 289.068C639.76 289.136 638.906 289.125 638.057 289.042C637.208 288.964 636.375 288.802 635.552 288.573C634.734 288.339 633.937 288.037 633.172 287.667C632.406 287.292 631.677 286.854 630.984 286.349C630.625 286.089 630.229 285.891 629.802 285.755C629.375 285.615 628.937 285.552 628.49 285.557C628.042 285.563 627.604 285.636 627.182 285.781C626.755 285.922 626.365 286.13 626.01 286.401C618.953 291.74 612.01 297.422 605.38 303.287C604.964 303.651 604.63 304.083 604.385 304.583C604.141 305.083 604 305.609 603.969 306.167C603.932 306.719 604.005 307.261 604.187 307.787C604.365 308.313 604.641 308.787 605.01 309.203C605.375 309.62 605.807 309.948 606.307 310.193C606.807 310.438 607.333 310.573 607.891 310.609C608.443 310.641 608.984 310.568 609.51 310.386C610.031 310.208 610.505 309.932 610.922 309.563C616.677 304.469 622.672 299.521 628.776 294.823C644 302.948 662.281 291.729 662.281 274.615C662.281 273.386 662.182 272.162 661.984 270.948C661.792 269.734 661.495 268.547 661.109 267.38C660.719 266.214 660.24 265.083 659.667 263.995C659.099 262.906 658.443 261.87 657.708 260.886C656.969 259.906 656.156 258.984 655.271 258.136C654.385 257.281 653.437 256.505 652.422 255.807C651.411 255.109 650.354 254.495 649.24 253.969C648.13 253.443 646.984 253.011 645.807 252.667Z" fill="#002C1F"/>
</g>
<path d="M500.198 458.151C500.198 458.703 500.094 459.24 499.88 459.75C499.667 460.266 499.365 460.719 498.974 461.11C498.578 461.506 498.13 461.808 497.615 462.021C497.104 462.229 496.568 462.339 496.016 462.339C495.458 462.339 494.927 462.229 494.411 462.021C493.901 461.808 493.448 461.506 493.052 461.11C492.661 460.719 492.359 460.266 492.146 459.75C491.938 459.24 491.828 458.703 491.828 458.151C491.828 457.594 491.938 457.058 492.146 456.547C492.359 456.032 492.661 455.578 493.052 455.188C493.448 454.797 493.901 454.495 494.411 454.282C494.927 454.068 495.458 453.964 496.016 453.964C496.568 453.964 497.104 454.068 497.615 454.282C498.13 454.495 498.578 454.797 498.974 455.188C499.365 455.578 499.667 456.032 499.88 456.547C500.094 457.058 500.198 457.594 500.198 458.151Z" fill="#002C1F"/>
<path d="M524.703 442.948C524.703 443.506 524.594 444.042 524.38 444.552C524.172 445.068 523.87 445.521 523.474 445.912C523.083 446.302 522.63 446.604 522.12 446.818C521.604 447.032 521.073 447.141 520.516 447.141C519.964 447.141 519.427 447.032 518.917 446.818C518.401 446.604 517.948 446.302 517.557 445.912C517.167 445.521 516.86 445.068 516.651 444.552C516.438 444.042 516.333 443.506 516.333 442.948C516.333 442.396 516.438 441.86 516.651 441.349C516.86 440.834 517.167 440.381 517.557 439.99C517.948 439.594 518.401 439.292 518.917 439.078C519.427 438.87 519.964 438.761 520.516 438.761C521.073 438.761 521.604 438.87 522.12 439.078C522.63 439.292 523.083 439.594 523.474 439.99C523.87 440.381 524.172 440.834 524.38 441.349C524.594 441.86 524.703 442.396 524.703 442.948Z" fill="#002C1F"/>
<path d="M505.87 437.276C505.87 437.828 505.76 438.365 505.552 438.881C505.339 439.391 505.036 439.844 504.641 440.235C504.25 440.631 503.797 440.933 503.286 441.146C502.771 441.36 502.24 441.464 501.682 441.464C501.13 441.464 500.594 441.36 500.083 441.146C499.568 440.933 499.115 440.631 498.724 440.235C498.333 439.844 498.031 439.391 497.818 438.881C497.604 438.365 497.5 437.828 497.5 437.276C497.5 436.719 497.604 436.188 497.818 435.672C498.031 435.157 498.333 434.709 498.724 434.313C499.115 433.922 499.568 433.62 500.083 433.407C500.594 433.193 501.13 433.089 501.682 433.089C502.24 433.089 502.771 433.193 503.286 433.407C503.797 433.62 504.25 433.922 504.641 434.313C505.036 434.709 505.339 435.157 505.552 435.672C505.76 436.188 505.87 436.719 505.87 437.276Z" fill="#002C1F"/>
</svg>
