<svg width="1024" height="768" viewBox="0 0 1024 768" fill="none" xmlns="http://www.w3.org/2000/svg">
<mask id="mask0_758_2" style="mask-type:luminance" maskUnits="userSpaceOnUse" x="332" y="230" width="359" height="308">
<path d="M332.932 230.401H690.932V537.401H332.932V230.401Z" fill="white"/>
</mask>
<g mask="url(#mask0_758_2)">
<path fill-rule="evenodd" clip-rule="evenodd" d="M512.068 415.11C448.594 415.11 385.354 406.521 348 380.521C347.974 379.896 347.245 380.058 347.411 381.115C355.177 424.829 372.594 458.073 400.505 482.516C426.875 505.599 464.573 525.454 511.474 525.454C557.531 525.454 595.729 505.896 622.437 482.516C650.344 458.073 667.39 425.297 675.526 381.719C638.495 405.829 575.401 415.11 512.068 415.11ZM658.229 346.527C666.911 349.178 671.76 355.662 675.526 363.23C682.802 345.834 665.922 334.943 654.656 332.214C656.844 335.985 658.219 340.573 658.229 346.527ZM345.625 355.469C346.036 363.037 352.182 367.042 357.552 370.98C357.312 356.823 364.963 350.553 374.854 346.527C374.208 337.922 379.521 332.11 379.63 326.251C368.781 332.62 344.745 339.417 345.625 355.469ZM560.39 257.063C555.896 256.49 551.068 259.282 546.073 258.256C542.588 257.537 540.677 253.266 537.719 251.094C524.37 241.318 508.312 241.615 495.359 251.094C491.864 253.657 489.906 257.683 486.417 258.256C480.37 259.245 478.005 256.162 472.099 257.063C463.437 258.386 454.776 267.23 451.818 272.573C449.463 276.797 450.312 281.204 446.443 283.902C441.583 287.287 434.932 286.209 430.932 288.672C425.39 292.084 419.193 301.251 417.208 306.568C415.765 310.448 417.078 314.933 414.229 317.896C410.963 321.292 402.932 320.235 398.719 322.672C392.203 326.433 389.26 334.245 387.38 342.349C386.578 345.808 387.552 351.329 384.995 354.876C381.797 359.329 372.672 358.542 370.078 364.422C368.052 369.021 370.062 373.698 370.078 378.136C434.515 408.99 559.922 410.62 633.771 386.485C642.375 383.678 661.359 377.87 663.599 372.172C668.208 360.407 651.687 359.876 648.088 354.287C645.792 350.704 646.687 345.834 645.698 341.756C644.015 334.745 640.656 327.214 636.161 323.86C632.625 321.23 621.708 321.735 618.26 317.303C616.021 314.417 617.156 310.016 615.87 306.568C611.411 294.579 600.849 285.454 586.042 283.902C581.344 271.855 573.146 258.688 560.39 257.063ZM628.401 307.162C641.729 311.61 653.281 314.657 664.797 321.474C674.297 327.099 688.14 336.115 690.448 347.719C691.745 354.219 690.13 361.079 689.255 368.599C686.75 389.98 683.948 409.209 677.328 425.855C668.39 448.292 655.443 466.448 640.932 481.912C611.307 513.495 567.958 537.376 511.474 537.391C454.333 537.391 411.448 513.303 382.005 481.912C356.667 454.902 336.62 420.516 333.687 367.995C333.265 360.386 332.224 351.922 333.687 346.527C335.432 340.115 342.833 332.167 348.005 328.037C362.25 316.657 384.25 310.709 404.088 305.376C412.474 292.084 418.713 276.657 437.495 273.761C444.401 263.287 450.875 249.402 467.328 245.73C471.823 244.724 477.198 246.308 482.239 245.136C487.646 243.876 495.38 235.688 501.333 233.204C519.474 225.631 538.333 234.787 550.25 245.136C576.13 243.318 586.568 256.938 594.396 273.162C613.182 277.042 622.255 290.652 628.401 307.162Z" fill="#002C1F"/>
</g>
</svg>
