<svg width="1024" height="768" viewBox="0 0 1024 768" fill="none" xmlns="http://www.w3.org/2000/svg">
<path fill-rule="evenodd" clip-rule="evenodd" d="M585.145 336.608C584.958 336.608 584.77 336.608 584.593 336.608C581.994 336.327 580.145 334.01 580.416 331.416C583.286 305.353 575.036 280.39 559.26 267.676C546.728 257.562 529.754 255.619 510.364 262.108C500.437 265.452 491.161 274.541 481.411 284.098C466.296 299.041 450.614 314.442 429.181 311.192C426.583 310.812 424.827 308.411 425.286 305.905C425.661 303.301 428.067 301.546 430.572 302.01C447.364 304.515 460.723 291.437 474.827 277.52C484.942 267.593 495.327 257.291 507.395 253.301C535.874 243.739 554.525 251.911 565.098 260.447C583.275 275.103 592.932 303.395 589.682 332.536C589.504 334.853 587.468 336.608 585.145 336.608ZM462.124 352.103C461.103 352.103 460.088 351.728 459.254 351.077C448.775 342.733 439.958 339.671 430.676 341.062C428.077 341.437 425.76 339.671 425.39 337.161C425.015 334.562 426.78 332.244 429.291 331.874C444.879 329.556 457.124 337.541 465.01 343.848C467.046 345.426 467.426 348.395 465.754 350.431C464.822 351.457 463.421 352.103 462.124 352.103Z" fill="#002C1F"/>
<path fill-rule="evenodd" clip-rule="evenodd" d="M351.266 290.506C342.365 290.506 334.573 300.902 334.573 307.199C334.573 313.699 335.599 314.808 338.563 318.058L338.943 318.516C340.615 320.282 340.615 323.058 338.943 324.824L338.563 325.287C335.599 328.532 334.573 329.548 334.573 336.141C334.573 342.449 342.365 352.834 351.266 352.834C360.448 352.834 367.693 345.688 367.964 336.506C368.057 333.995 370.094 331.959 372.599 331.959H425.297V311.548H372.599C370.094 311.548 367.964 309.506 367.964 307.001C367.776 297.652 360.448 290.506 351.266 290.506ZM351.266 362.032C337.255 362.032 325.203 347.735 325.203 335.964C325.203 328.548 326.682 324.824 329.286 321.495C326.682 318.152 325.203 314.537 325.203 307.021C325.203 295.334 337.255 280.959 351.266 280.959C363.984 280.959 374.464 289.86 376.781 301.834H429.938C432.542 301.834 434.672 303.964 434.672 306.563V336.339C434.672 338.943 432.542 341.074 429.938 341.074H376.781C374.464 353.131 363.969 362.032 351.266 362.032Z" fill="#002C1F"/>
<mask id="mask0_209_20" style="mask-type:luminance" maskUnits="userSpaceOnUse" x="307" y="460" width="410" height="59">
<path d="M307 460.135H717V518.739H307V460.135Z" fill="white"/>
</mask>
<g mask="url(#mask0_209_20)">
<path fill-rule="evenodd" clip-rule="evenodd" d="M316.474 470.676V490.255C316.474 501.015 325.297 509.833 336.057 509.833H687.484C698.245 509.833 707.063 501.015 707.063 490.255V470.676H316.474ZM687.391 519.192H336.042C320.089 519.192 307.094 506.208 307.094 490.244V465.932C307.094 463.327 309.224 461.197 311.828 461.197H711.771C714.375 461.197 716.505 463.327 716.505 465.932V490.244C716.328 506.208 703.344 519.192 687.391 519.192Z" fill="#002C1F"/>
</g>
<path fill-rule="evenodd" clip-rule="evenodd" d="M338.093 461.301H685.26C686.281 458.609 686.833 455.734 686.833 452.765C686.833 443.676 681.547 435.234 673.297 431.244C671.073 430.124 670.047 427.536 670.979 425.218C672.177 422.343 672.744 419.286 672.744 416.13C672.744 403.791 663.182 393.395 650.843 392.38C649.453 392.286 648.244 391.546 647.406 390.437C646.573 389.317 646.286 387.932 646.666 386.541C647.125 384.682 647.312 382.739 647.312 380.88C647.312 367.702 636.646 357.036 623.468 357.036C617.713 357.036 612.25 359.072 607.88 362.874C606.494 364.077 604.536 364.359 602.864 363.619C601.192 362.874 600.172 361.202 600.172 359.354V359.166C600.172 345.994 589.505 335.327 576.328 335.327C568.442 335.327 561.026 339.223 556.573 345.807C555.646 347.192 554.161 347.937 552.489 347.843C550.817 347.749 549.333 346.817 548.593 345.426C544.411 337.822 536.442 333.182 527.718 333.182C518.625 333.182 510.187 338.468 506.286 346.64C505.64 347.937 504.427 348.864 503.041 349.15C501.651 349.432 500.166 349.057 499.047 348.124C494.692 344.416 489.218 342.286 483.458 342.286C471.307 342.286 461.104 351.374 459.807 363.442C459.619 365.208 458.416 366.692 456.744 367.338C455.073 367.984 453.224 367.619 451.916 366.312C447.468 362.135 441.713 359.817 435.588 359.817C432.812 359.817 430.114 360.275 427.51 361.202C425.932 361.76 424.166 361.489 422.875 360.369C419.26 357.307 414.713 355.541 409.979 355.541C400.244 355.541 391.802 362.781 390.401 372.426C390.213 374.005 389.109 375.39 387.625 376.041C386.14 376.687 384.468 376.499 383.078 375.577C380.666 373.906 377.885 373.072 374.922 373.072C366.937 373.072 360.448 379.572 360.448 387.541C360.448 392.275 362.771 396.723 366.76 399.515C368.526 400.718 369.271 403.036 368.432 405.083C367.312 407.864 366.76 410.843 366.76 413.807C366.76 416.869 367.312 419.744 368.432 422.531C369.078 424.109 368.807 425.874 367.786 427.171C366.76 428.468 365.088 429.114 363.521 428.937C362.5 428.843 361.39 428.749 360.369 428.749C347.192 428.749 336.526 439.416 336.526 452.593C336.515 455.734 337.067 458.609 338.093 461.301ZM688.307 470.676H335.114C333.349 470.676 331.771 469.744 330.932 468.166C328.427 463.432 327.13 458.145 327.13 452.765C327.13 435.333 340.672 420.942 357.838 419.65C357.552 417.786 357.375 415.942 357.375 414.077C357.375 411.02 357.755 408.145 358.578 405.26C353.843 400.812 351.067 394.499 351.067 387.906C351.067 374.734 361.734 364.067 374.906 364.067C377.604 364.067 380.192 364.525 382.609 365.359C386.786 354.223 397.64 346.426 409.885 346.426C416.01 346.426 421.859 348.291 426.771 351.807C429.646 351.067 432.526 350.609 435.588 350.609C441.427 350.609 447.187 352.187 452.203 355.057C456.838 342.072 469.177 333.067 483.474 333.067C489.593 333.067 495.526 334.739 500.734 337.895C506.854 329.265 517.062 323.885 527.823 323.885C537.651 323.885 546.838 328.239 553.052 335.572C559.177 329.546 567.521 326.015 576.343 326.015C591.927 326.015 605.104 336.869 608.625 351.338C613.166 349.02 618.276 347.817 623.562 347.817C641.838 347.817 656.776 362.76 656.776 381.031C656.776 381.963 656.776 382.973 656.682 383.906C671.343 387.426 682.198 400.786 682.198 416.187C682.198 419.156 681.817 422.025 681.078 424.911C690.448 430.937 696.291 441.525 696.291 452.838C696.291 458.218 694.994 463.505 692.489 468.239C691.651 469.65 690.073 470.676 688.307 470.676Z" fill="#002C1F"/>
<path fill-rule="evenodd" clip-rule="evenodd" d="M568.265 380.772C566.499 380.772 564.828 379.844 564.005 378.079C561.494 372.886 558.161 369.542 553.984 368.339C546.932 366.115 539.421 370.376 539.322 370.469C537.098 371.766 534.229 371.027 532.921 368.798C531.624 366.574 532.369 363.704 534.593 362.397C535.052 362.11 545.635 355.99 556.666 359.428C563.343 361.464 568.723 366.386 572.442 374.084C573.562 376.407 572.63 379.183 570.218 380.303C569.656 380.584 569.005 380.772 568.265 380.772Z" fill="#002C1F"/>
<path fill-rule="evenodd" clip-rule="evenodd" d="M502.677 403.318C500.906 403.318 499.234 402.391 498.412 400.626C495.906 395.433 492.573 392.089 488.391 390.886C481.339 388.662 473.734 392.923 473.734 393.016C471.51 394.313 468.635 393.574 467.328 391.344C466.037 389.12 466.776 386.245 469 384.943C469.464 384.657 480.047 378.537 491.078 381.975C497.849 384.011 503.135 388.933 506.854 396.631C507.974 398.954 507.042 401.73 504.63 402.85C504.063 403.225 503.417 403.318 502.677 403.318Z" fill="#002C1F"/>
<path fill-rule="evenodd" clip-rule="evenodd" d="M414.807 418.531C413.323 418.531 411.937 417.88 411.005 416.588L401.542 403.13C400.057 400.999 400.515 398.114 402.656 396.63C404.792 395.145 407.672 395.609 409.156 397.749L418.625 411.114C420.109 413.244 419.646 416.13 417.505 417.614C416.765 418.26 415.739 418.531 414.807 418.531Z" fill="#002C1F"/>
<path fill-rule="evenodd" clip-rule="evenodd" d="M447.375 424.474C445.891 424.474 444.5 423.828 443.573 422.531L434.104 409.172C432.62 407.042 433.083 404.156 435.224 402.672C437.354 401.188 440.24 401.646 441.724 403.792L451.188 417.151C452.672 419.287 452.214 422.167 450.073 423.651C449.328 424.193 448.302 424.474 447.375 424.474Z" fill="#002C1F"/>
<path fill-rule="evenodd" clip-rule="evenodd" d="M555.089 420.672C553.323 420.672 551.651 419.745 550.912 417.979C548.401 412.787 545.073 409.443 540.891 408.24C533.839 406.016 526.235 410.276 526.235 410.37C524.011 411.667 521.136 410.927 519.828 408.698C518.521 406.474 519.276 403.599 521.5 402.297C521.959 402.01 532.542 395.891 543.578 399.328C550.25 401.365 555.63 406.287 559.354 413.984C560.469 416.307 559.542 419.083 557.125 420.203C556.479 420.578 555.74 420.672 555.089 420.672Z" fill="#002C1F"/>
<path fill-rule="evenodd" clip-rule="evenodd" d="M509.162 445.807C507.396 445.807 505.724 444.88 504.901 443.114C502.391 437.828 498.964 434.578 494.88 433.281C487.828 431.15 480.318 435.317 480.224 435.411C477.995 436.708 475.125 435.968 473.818 433.739C472.521 431.515 473.266 428.645 475.49 427.338C475.948 427.051 486.531 420.932 497.563 424.369C504.24 426.406 509.62 431.328 513.344 439.025C514.458 441.348 513.531 444.124 511.115 445.244C510.552 445.713 509.807 445.807 509.162 445.807Z" fill="#002C1F"/>
<path fill-rule="evenodd" clip-rule="evenodd" d="M621.703 413.244C619.938 413.244 618.266 412.312 617.526 410.546C615.016 405.354 611.688 402.01 607.505 400.812C600.453 398.588 592.849 402.849 592.849 402.942C590.625 404.239 587.75 403.494 586.443 401.27C585.146 399.046 585.891 396.171 588.115 394.864C588.573 394.583 599.156 388.458 610.193 391.901C616.865 393.937 622.245 398.859 625.969 406.557C627.083 408.875 626.156 411.656 623.74 412.77C623 413.057 622.354 413.244 621.703 413.244Z" fill="#002C1F"/>
<path fill-rule="evenodd" clip-rule="evenodd" d="M614.276 450.167C612.51 450.167 610.838 449.234 610.015 447.469C607.505 442.182 604.078 438.932 599.995 437.641C592.942 435.505 585.432 439.677 585.338 439.771C583.109 441.063 580.239 440.323 578.932 438.099C577.635 435.875 578.38 433 580.604 431.693C581.062 431.412 591.646 425.287 602.677 428.724C609.448 430.766 614.734 435.682 618.453 443.386C619.573 445.703 618.646 448.484 616.229 449.599C615.666 450.073 614.922 450.167 614.276 450.167Z" fill="#002C1F"/>
</svg>
