<svg width="1024" height="768" viewBox="0 0 1024 768" fill="none" xmlns="http://www.w3.org/2000/svg">
<path d="M437.625 364.094H447.531V373.995H437.625V364.094Z" fill="#002C1F"/>
<path d="M477.24 339.333H487.141V349.239H477.24V339.333Z" fill="#002C1F"/>
<path d="M521.802 354.192H531.708V364.093H521.802V354.192Z" fill="#002C1F"/>
<path d="M501.995 383.901H511.901V393.802H501.995V383.901Z" fill="#002C1F"/>
<path d="M442.578 329.433H452.479V339.334H442.578V329.433Z" fill="#002C1F"/>
<path d="M472.287 364.094H482.193V373.995H472.287V364.094Z" fill="#002C1F"/>
<path d="M482.193 418.562H492.094V428.464H482.193V418.562Z" fill="#002C1F"/>
<path d="M582.625 403.657C583.651 403.584 584.667 403.428 585.672 403.198C586.677 402.964 587.662 402.657 588.615 402.271C589.573 401.886 590.495 401.428 591.38 400.896C592.266 400.37 593.104 399.777 593.896 399.115C594.688 398.454 595.427 397.735 596.104 396.964C596.787 396.188 597.401 395.365 597.953 394.495C598.505 393.62 598.99 392.714 599.401 391.766C599.813 390.823 600.146 389.849 600.406 388.855C601.209 388.886 602.011 388.849 602.813 388.75C603.61 388.652 604.396 388.49 605.167 388.266C605.943 388.042 606.693 387.756 607.417 387.407C608.146 387.063 608.839 386.657 609.5 386.198C610.162 385.74 610.781 385.23 611.36 384.672C611.938 384.11 612.469 383.506 612.948 382.86C613.432 382.214 613.854 381.537 614.229 380.823C614.599 380.105 614.912 379.365 615.162 378.605C616.573 378.36 617.959 378 619.307 377.516C620.656 377.037 621.959 376.443 623.203 375.735C624.453 375.027 625.63 374.214 626.735 373.303C627.844 372.391 628.865 371.391 629.797 370.303C630.729 369.214 631.563 368.053 632.292 366.818C633.021 365.584 633.641 364.297 634.151 362.954C634.656 361.615 635.042 360.24 635.313 358.829C635.584 357.422 635.724 356 635.745 354.563C635.766 353.131 635.667 351.709 635.438 350.292C635.214 348.875 634.865 347.49 634.401 346.131C633.933 344.777 633.349 343.469 632.656 342.214C631.964 340.959 631.167 339.777 630.266 338.657C629.365 337.542 628.375 336.511 627.297 335.568C626.219 334.62 625.068 333.777 623.839 333.032C622.615 332.292 621.334 331.657 619.995 331.136C618.662 330.615 617.292 330.209 615.886 329.928C615.886 329.756 615.886 329.589 615.886 329.433C615.886 328.506 615.797 327.589 615.625 326.683C615.453 325.771 615.203 324.891 614.865 324.027C614.531 323.167 614.115 322.344 613.625 321.558C613.136 320.776 612.578 320.042 611.948 319.365C611.323 318.683 610.641 318.068 609.896 317.516C609.156 316.964 608.37 316.485 607.537 316.079C606.709 315.678 605.844 315.349 604.953 315.105C604.063 314.86 603.156 314.704 602.235 314.625C601.198 313.506 600.021 312.563 598.703 311.792C597.391 311.021 595.99 310.464 594.505 310.11C593.021 309.761 591.516 309.636 589.995 309.735C588.469 309.834 586.995 310.157 585.568 310.698C584.214 309.334 582.693 308.188 581.005 307.261C579.323 306.334 577.542 305.662 575.667 305.24C573.787 304.818 571.891 304.667 569.969 304.787C568.052 304.907 566.188 305.292 564.375 305.943C563.813 304.782 563.146 303.688 562.365 302.657C561.589 301.625 560.719 300.683 559.761 299.823C558.797 298.964 557.761 298.204 556.651 297.547C555.542 296.891 554.375 296.344 553.162 295.917C551.943 295.485 550.698 295.178 549.422 294.99C548.146 294.803 546.86 294.74 545.573 294.808C544.287 294.87 543.016 295.058 541.761 295.37C540.511 295.683 539.302 296.115 538.136 296.662C535.646 295.813 533.094 295.256 530.479 294.985C527.86 294.709 525.25 294.73 522.641 295.047C520.026 295.365 517.485 295.969 515.011 296.86C512.537 297.75 510.193 298.901 507.979 300.323C505.896 299.901 503.792 299.709 501.672 299.735C499.547 299.766 497.453 300.016 495.38 300.49C493.313 300.964 491.313 301.651 489.391 302.547C487.469 303.448 485.662 304.542 483.969 305.823C480.901 304.73 477.755 304.401 474.531 304.834C472.464 305.125 470.495 305.73 468.625 306.646C466.75 307.563 465.068 308.745 463.573 310.198C461.432 309.818 459.276 309.641 457.104 309.662C454.932 309.683 452.776 309.901 450.646 310.329C448.516 310.75 446.443 311.37 444.427 312.178C442.412 312.99 440.485 313.98 438.656 315.151C436.573 314.735 434.474 314.537 432.349 314.563C430.224 314.594 428.13 314.844 426.057 315.318C423.99 315.792 421.99 316.48 420.068 317.381C418.146 318.277 416.339 319.37 414.646 320.652C411.578 319.558 408.432 319.23 405.209 319.662C404.037 319.823 402.891 320.084 401.766 320.448C400.641 320.813 399.563 321.277 398.521 321.834C397.479 322.396 396.495 323.042 395.573 323.777C394.646 324.511 393.792 325.323 393.011 326.209C392.235 327.094 391.537 328.047 390.927 329.058C390.318 330.068 389.802 331.125 389.38 332.23C388.959 333.334 388.641 334.464 388.422 335.625C388.203 336.787 388.089 337.959 388.078 339.141C388.073 340.323 388.167 341.495 388.37 342.657C388.568 343.823 388.875 344.959 389.276 346.068C389.682 347.178 390.182 348.245 390.776 349.266C391.37 350.287 392.052 351.245 392.818 352.146C393.589 353.042 394.427 353.865 395.339 354.615C396.255 355.365 397.229 356.021 398.261 356.599C399.292 357.172 400.37 357.652 401.485 358.032C402.604 358.412 403.75 358.693 404.917 358.87L403.063 368.058C402.906 368.865 402.943 369.662 403.182 370.454C403.422 371.24 403.834 371.928 404.417 372.511L414.073 382.167L423.839 395.188C424.828 396.506 425.953 397.693 427.219 398.75C428.479 399.808 429.849 400.704 431.318 401.443C432.792 402.183 434.328 402.74 435.927 403.125C437.531 403.506 439.151 403.704 440.802 403.709C443.615 403.714 446.318 403.178 448.917 402.105C451.516 401.027 453.807 399.49 455.787 397.495C458.349 394.922 461.292 392.891 464.61 391.407C467.927 389.922 471.401 389.089 475.031 388.896L463.432 419.813C463.057 420.813 462.781 421.839 462.61 422.896C462.432 423.948 462.36 425.006 462.391 426.073C462.422 427.141 462.552 428.198 462.792 429.24C463.026 430.282 463.36 431.292 463.792 432.266C464.219 433.245 464.745 434.167 465.354 435.047C465.964 435.922 466.656 436.73 467.422 437.469C468.193 438.214 469.026 438.875 469.922 439.454C470.818 440.032 471.761 440.521 472.75 440.917L485.443 445.99C485.959 446.193 486.37 446.527 486.677 446.985C486.99 447.443 487.141 447.948 487.141 448.5C487.141 449.667 487.297 450.818 487.615 451.943C487.932 453.068 488.396 454.131 489.011 455.125C489.63 456.12 490.37 457.016 491.235 457.803C492.099 458.589 493.057 459.245 494.104 459.766L508.521 466.974C509 467.214 509.495 467.422 510 467.599C510.5 467.776 511.016 467.917 511.542 468.032C512.063 468.141 512.589 468.219 513.125 468.261C513.656 468.308 514.193 468.318 514.724 468.292C515.261 468.266 515.792 468.209 516.318 468.12C516.844 468.026 517.365 467.901 517.875 467.745C518.386 467.584 518.886 467.396 519.37 467.178C519.86 466.954 520.328 466.704 520.781 466.422C521.24 466.141 521.672 465.829 522.089 465.495C522.505 465.157 522.896 464.797 523.266 464.407C523.636 464.021 523.979 463.615 524.297 463.183C524.615 462.75 524.901 462.303 525.162 461.834C525.422 461.37 525.651 460.886 525.854 460.391C526.052 459.896 526.219 459.386 526.349 458.87C526.485 458.349 526.589 457.829 526.656 457.297C526.724 456.766 526.755 456.235 526.755 455.698V452.99C526.761 451.818 526.604 450.672 526.281 449.547C525.964 448.417 525.5 447.36 524.886 446.365C524.271 445.365 523.526 444.474 522.662 443.688C521.797 442.902 520.844 442.245 519.792 441.724L517.255 440.459C516.516 440.089 516.047 439.506 515.849 438.698L512.219 424.167C512.104 423.73 512.104 423.287 512.219 422.849L513.302 418.506C514.328 418.433 515.344 418.282 516.349 418.047C517.354 417.813 518.339 417.506 519.292 417.12C520.25 416.735 521.172 416.277 522.057 415.75C522.943 415.219 523.781 414.625 524.573 413.964C525.365 413.308 526.099 412.589 526.781 411.813C527.464 411.042 528.078 410.219 528.63 409.349C529.182 408.474 529.667 407.568 530.078 406.62C530.49 405.678 530.823 404.704 531.084 403.709C531.813 403.735 532.537 403.709 533.261 403.625L532.766 404.974C532.391 405.974 532.115 407 531.943 408.053C531.766 409.11 531.693 410.167 531.724 411.235C531.755 412.303 531.886 413.36 532.12 414.402C532.36 415.443 532.693 416.448 533.12 417.428C533.552 418.402 534.073 419.329 534.688 420.204C535.297 421.079 535.99 421.891 536.755 422.631C537.526 423.37 538.354 424.032 539.255 424.615C540.151 425.193 541.094 425.683 542.084 426.079L554.776 431.146C555.292 431.355 555.703 431.683 556.011 432.141C556.323 432.599 556.474 433.105 556.474 433.657C556.469 434.829 556.625 435.98 556.948 437.105C557.266 438.23 557.729 439.292 558.344 440.287C558.959 441.282 559.703 442.172 560.568 442.964C561.432 443.75 562.386 444.407 563.438 444.922L577.854 452.136C578.813 452.62 579.818 452.974 580.87 453.198C581.922 453.422 582.985 453.511 584.057 453.464C585.13 453.412 586.182 453.23 587.209 452.912C588.235 452.594 589.203 452.146 590.115 451.579C590.88 451.084 591.589 450.511 592.235 449.865C590.547 451.922 588.787 453.912 586.948 455.834C585.11 457.756 583.198 459.605 581.219 461.381C579.235 463.152 577.188 464.849 575.078 466.469C572.969 468.084 570.797 469.62 568.568 471.073C566.339 472.521 564.057 473.886 561.724 475.162C559.391 476.438 557.011 477.625 554.584 478.719C552.162 479.813 549.698 480.813 547.198 481.714C544.693 482.62 542.162 483.428 539.599 484.136C537.037 484.844 534.448 485.459 531.839 485.969C529.229 486.48 526.604 486.891 523.959 487.198C521.318 487.511 518.667 487.719 516.011 487.823C513.354 487.933 510.693 487.933 508.037 487.839C505.38 487.74 502.729 487.542 500.084 487.24C497.443 486.938 494.818 486.537 492.203 486.032C489.594 485.532 487.005 484.928 484.438 484.224C481.87 483.526 479.339 482.724 476.834 481.829C474.328 480.933 471.86 479.943 469.432 478.855C467.005 477.771 464.62 476.594 462.287 475.323C459.948 474.058 457.662 472.698 455.427 471.256C453.193 469.813 451.016 468.282 448.901 466.672C446.787 465.063 444.735 463.37 442.745 461.605C440.761 459.834 438.844 457.995 437 456.079C435.151 454.162 433.386 452.178 431.693 450.125C429.995 448.073 428.386 445.964 426.854 443.787C425.323 441.61 423.88 439.381 422.521 437.094C421.162 434.808 419.891 432.474 418.709 430.089C417.531 427.704 416.443 425.282 415.448 422.813C414.453 420.344 413.557 417.844 412.755 415.308C411.953 412.771 411.25 410.209 410.641 407.62C410.037 405.027 409.531 402.417 409.125 399.792C408.724 397.162 408.417 394.521 408.219 391.87C408.016 389.214 407.917 386.563 407.917 383.902H398.011C398.011 385.766 398.057 387.625 398.151 389.49C398.24 391.349 398.38 393.209 398.563 395.063C398.745 396.917 398.974 398.766 399.245 400.61C399.521 402.454 399.839 404.292 400.203 406.12C400.563 407.948 400.974 409.766 401.427 411.573C401.88 413.381 402.375 415.178 402.917 416.959C403.459 418.745 404.042 420.511 404.672 422.266C405.297 424.021 405.969 425.761 406.682 427.485C407.396 429.204 408.151 430.907 408.948 432.594C409.745 434.277 410.584 435.943 411.459 437.589C412.339 439.23 413.255 440.849 414.214 442.448C415.172 444.047 416.172 445.625 417.209 447.172C418.24 448.724 419.313 450.245 420.427 451.745C421.537 453.24 422.682 454.709 423.865 456.152C425.047 457.589 426.266 459 427.516 460.381C428.766 461.761 430.052 463.115 431.37 464.433C432.688 465.75 434.037 467.032 435.417 468.287C436.797 469.537 438.209 470.756 439.651 471.938C441.094 473.12 442.563 474.266 444.057 475.375C445.552 476.485 447.078 477.558 448.63 478.594C450.177 479.631 451.75 480.625 453.349 481.584C454.948 482.542 456.568 483.459 458.214 484.339C459.86 485.219 461.521 486.058 463.209 486.855C464.891 487.651 466.594 488.407 468.318 489.12C470.042 489.834 471.776 490.5 473.531 491.131C475.287 491.756 477.057 492.344 478.839 492.886C480.625 493.422 482.422 493.922 484.229 494.375C486.037 494.829 487.854 495.235 489.682 495.599C491.511 495.964 493.344 496.282 495.188 496.553C497.031 496.829 498.88 497.058 500.74 497.24C502.594 497.422 504.448 497.558 506.313 497.651C508.172 497.74 510.037 497.787 511.901 497.787C513.766 497.787 515.625 497.74 517.49 497.651C519.349 497.558 521.209 497.422 523.063 497.24C524.917 497.058 526.766 496.829 528.61 496.553C530.453 496.282 532.292 495.964 534.12 495.599C535.948 495.235 537.766 494.829 539.573 494.375C541.38 493.922 543.177 493.422 544.959 492.886C546.745 492.344 548.511 491.756 550.266 491.131C552.021 490.5 553.761 489.834 555.485 489.12C557.203 488.407 558.906 487.651 560.594 486.855C562.276 486.058 563.943 485.219 565.589 484.339C567.229 483.459 568.849 482.542 570.448 481.584C572.047 480.625 573.625 479.631 575.172 478.594C576.724 477.558 578.245 476.485 579.745 475.375C581.24 474.266 582.709 473.12 584.151 471.938C585.589 470.756 587 469.537 588.38 468.287C589.761 467.032 591.115 465.75 592.432 464.433C593.75 463.115 595.031 461.761 596.287 460.381C597.537 459 598.755 457.589 599.938 456.152C601.12 454.709 602.266 453.24 603.375 451.745C604.485 450.245 605.557 448.724 606.594 447.172C607.63 445.625 608.625 444.047 609.584 442.448C610.542 440.849 611.459 439.23 612.339 437.589C613.219 435.943 614.057 434.277 614.854 432.594C615.651 430.907 616.406 429.204 617.12 427.485C617.834 425.761 618.5 424.021 619.13 422.266C619.755 420.511 620.344 418.745 620.886 416.959C621.422 415.178 621.922 413.381 622.375 411.573C622.828 409.766 623.235 407.948 623.599 406.12C623.964 404.292 624.281 402.454 624.552 400.61C624.828 398.766 625.057 396.917 625.24 395.063C625.422 393.209 625.558 391.349 625.651 389.49C625.74 387.625 625.787 385.766 625.787 383.902H615.886C615.88 389.532 615.422 395.125 614.505 400.678C613.589 406.235 612.229 411.678 610.422 417.011C608.615 422.344 606.391 427.49 603.745 432.459C601.094 437.428 598.063 442.152 594.641 446.62C595.589 444.813 596.068 442.886 596.078 440.844V438.136C596.084 436.964 595.922 435.818 595.604 434.693C595.287 433.563 594.823 432.506 594.209 431.506C593.594 430.511 592.849 429.62 591.985 428.834C591.12 428.042 590.162 427.391 589.115 426.87L586.578 425.605C585.839 425.235 585.37 424.646 585.172 423.844L581.542 409.313C581.427 408.875 581.427 408.433 581.542 407.995L582.625 403.657ZM529.229 393.125C528.365 392.641 527.438 392.433 526.453 392.5C525.464 392.573 524.573 392.902 523.787 393.5C522.969 394.11 522.38 394.886 522.026 395.839C521.667 396.787 521.594 397.761 521.802 398.756C521.802 399.407 521.74 400.047 521.615 400.688C521.485 401.323 521.297 401.943 521.047 402.547C520.802 403.146 520.495 403.714 520.136 404.256C519.771 404.797 519.365 405.297 518.901 405.756C518.443 406.219 517.943 406.631 517.401 406.99C516.86 407.349 516.292 407.657 515.688 407.907C515.089 408.152 514.469 408.339 513.834 408.469C513.193 408.594 512.552 408.657 511.901 408.657C511.401 408.667 510.906 408.631 510.417 408.547C509.792 408.433 509.172 408.433 508.552 408.553C507.933 408.678 507.36 408.907 506.828 409.245C506.297 409.589 505.844 410.016 505.479 410.527C505.11 411.037 504.849 411.599 504.698 412.214L502.636 420.459C502.125 422.495 502.125 424.532 502.636 426.568L506.266 441.105C506.709 442.891 507.511 444.5 508.662 445.938C509.813 447.37 511.209 448.5 512.854 449.323L515.386 450.589C515.844 450.813 516.203 451.146 516.474 451.579C516.74 452.016 516.875 452.485 516.87 452.995V455.698C516.875 456.167 516.766 456.605 516.537 457.016C516.307 457.422 515.995 457.75 515.594 457.99C515.198 458.235 514.766 458.37 514.297 458.391C513.828 458.412 513.386 458.318 512.969 458.11L498.531 450.907C498.073 450.678 497.714 450.349 497.443 449.917C497.177 449.48 497.042 449.011 497.047 448.5C497.047 447.24 496.87 446.006 496.5 444.803C496.13 443.594 495.594 442.469 494.891 441.428C494.182 440.386 493.339 439.469 492.354 438.678C491.37 437.891 490.292 437.261 489.125 436.797L476.427 431.719C475.813 431.474 475.25 431.152 474.74 430.735C474.224 430.323 473.781 429.849 473.412 429.303C473.047 428.756 472.766 428.167 472.573 427.542C472.38 426.912 472.287 426.266 472.287 425.61C472.287 424.813 472.427 424.042 472.709 423.297L486.828 385.662C486.974 385.287 487.068 384.902 487.12 384.5C487.167 384.105 487.167 383.704 487.12 383.308C487.073 382.907 486.974 382.521 486.834 382.146C486.693 381.771 486.505 381.417 486.276 381.084C486.047 380.756 485.781 380.459 485.485 380.193C485.182 379.922 484.854 379.698 484.495 379.511C484.141 379.329 483.771 379.188 483.38 379.089C482.99 378.995 482.594 378.948 482.193 378.948H476.662C474.068 378.943 471.505 379.188 468.964 379.693C466.427 380.193 463.959 380.938 461.568 381.933C459.172 382.922 456.901 384.136 454.75 385.579C452.599 387.021 450.615 388.662 448.787 390.495C448.203 391.042 447.568 391.521 446.88 391.938C446.198 392.355 445.474 392.693 444.719 392.959C443.964 393.23 443.193 393.417 442.396 393.521C441.604 393.631 440.807 393.657 440.011 393.599C439.209 393.542 438.427 393.407 437.656 393.188C436.886 392.969 436.146 392.672 435.438 392.303C434.724 391.933 434.063 391.49 433.443 390.985C432.823 390.474 432.261 389.912 431.761 389.287L421.781 375.98C421.641 375.792 421.485 375.615 421.318 375.448L413.292 367.422L415.807 354.787C415.88 354.402 415.906 354.011 415.88 353.62C415.86 353.23 415.792 352.844 415.682 352.469C415.568 352.094 415.412 351.735 415.214 351.396C415.016 351.058 414.781 350.75 414.511 350.464C414.24 350.183 413.938 349.938 413.61 349.724C413.276 349.511 412.927 349.344 412.557 349.214C412.188 349.089 411.807 349.006 411.417 348.964C411.026 348.928 410.636 348.938 410.25 348.99L409.125 349.152C408.302 349.261 407.479 349.271 406.651 349.172C405.828 349.073 405.031 348.87 404.255 348.568C403.485 348.266 402.761 347.87 402.089 347.381C401.417 346.891 400.818 346.329 400.292 345.683C399.917 345.24 399.584 344.766 399.292 344.266C399.005 343.761 398.761 343.24 398.557 342.693C398.36 342.146 398.214 341.589 398.11 341.016C398.011 340.443 397.959 339.87 397.964 339.287C397.964 338.709 398.016 338.131 398.115 337.558C398.219 336.99 398.37 336.428 398.573 335.886C398.771 335.339 399.016 334.818 399.313 334.313C399.604 333.813 399.938 333.339 400.313 332.896C400.688 332.454 401.099 332.047 401.547 331.678C401.995 331.308 402.469 330.98 402.974 330.693C403.479 330.407 404.005 330.167 404.552 329.969C405.099 329.777 405.656 329.631 406.229 329.537C406.802 329.443 407.38 329.396 407.964 329.402C408.542 329.407 409.115 329.464 409.688 329.568C410.261 329.678 410.818 329.834 411.36 330.037C411.901 330.24 412.422 330.495 412.922 330.787C413.386 331.063 413.886 331.256 414.412 331.365C414.943 331.474 415.474 331.5 416.011 331.438C416.547 331.375 417.063 331.224 417.547 330.995C418.037 330.766 418.474 330.459 418.865 330.084C420.13 328.875 421.531 327.844 423.068 327C424.604 326.152 426.224 325.521 427.922 325.099C429.625 324.678 431.354 324.485 433.11 324.516C434.86 324.553 436.578 324.808 438.266 325.292C439.021 325.516 439.781 325.553 440.557 325.407C441.328 325.266 442.026 324.959 442.651 324.48C444.396 323.188 446.276 322.146 448.292 321.344C450.307 320.542 452.396 320.011 454.547 319.75C456.703 319.49 458.854 319.506 461.005 319.808C463.156 320.105 465.229 320.672 467.229 321.511C467.985 321.834 468.766 321.959 469.584 321.891C470.396 321.823 471.151 321.568 471.839 321.125C473.479 320.063 475.281 319.532 477.24 319.532C477.86 319.521 478.474 319.573 479.084 319.688C479.698 319.797 480.292 319.964 480.87 320.188C481.448 320.412 482 320.688 482.526 321.016C483.052 321.349 483.542 321.724 484 322.146C484.453 322.568 484.865 323.032 485.229 323.532C485.599 324.032 485.912 324.563 486.177 325.12C486.443 325.683 486.656 326.266 486.813 326.865C486.964 327.464 487.063 328.073 487.104 328.693C487.172 329.641 487.485 330.495 488.042 331.261C488.599 332.027 489.318 332.584 490.198 332.938C491.078 333.292 491.985 333.386 492.917 333.219C493.849 333.053 494.667 332.646 495.365 332.011C496.271 331.183 497.292 330.542 498.438 330.099C499.584 329.652 500.771 329.433 501.995 329.433C502.88 329.433 503.75 329.547 504.604 329.777C505.464 330.011 506.271 330.349 507.031 330.797C507.797 331.245 508.49 331.787 509.104 332.422C509.724 333.053 510.25 333.761 510.677 334.532C511.047 335.209 511.552 335.771 512.182 336.214C512.818 336.657 513.516 336.938 514.281 337.053C515.047 337.162 515.797 337.099 516.531 336.86C517.266 336.625 517.912 336.24 518.469 335.709C518.75 335.464 519.047 335.261 519.37 335.084C519.693 334.912 520.031 334.771 520.386 334.672C520.74 334.568 521.099 334.506 521.464 334.485C521.828 334.464 522.193 334.48 522.557 334.537C522.917 334.594 523.271 334.688 523.615 334.818C523.953 334.954 524.276 335.12 524.584 335.323C524.891 335.532 525.167 335.766 525.422 336.027C525.677 336.292 525.901 336.584 526.094 336.896C526.328 337.323 526.625 337.709 526.979 338.053C527.334 338.391 527.735 338.672 528.172 338.896C528.61 339.115 529.073 339.266 529.557 339.349C530.047 339.428 530.531 339.438 531.016 339.37C531.245 339.344 531.474 339.334 531.709 339.334C532.365 339.334 532.995 339.464 533.599 339.714C534.209 339.964 534.745 340.323 535.209 340.787C535.672 341.25 536.031 341.787 536.281 342.391C536.531 343 536.656 343.631 536.656 344.287C536.667 345.178 536.443 346 535.979 346.761C535.511 347.568 535.281 348.438 535.302 349.37C535.323 350.297 535.584 351.157 536.089 351.943C536.594 352.724 537.266 353.318 538.104 353.724C538.943 354.131 539.828 354.287 540.755 354.193C541.037 354.172 541.323 354.172 541.61 354.193C542.584 354.193 543.552 354.287 544.505 354.474C545.464 354.667 546.391 354.948 547.297 355.323C548.198 355.693 549.052 356.152 549.865 356.693C550.672 357.235 551.422 357.849 552.115 358.542C552.802 359.23 553.417 359.98 553.964 360.792C554.505 361.605 554.959 362.459 555.334 363.36C555.709 364.261 555.99 365.193 556.177 366.146C556.37 367.105 556.464 368.068 556.464 369.047C556.464 370.021 556.37 370.985 556.177 371.943C555.99 372.902 555.709 373.829 555.334 374.73C554.959 375.631 554.505 376.49 553.964 377.297C553.417 378.11 552.802 378.86 552.115 379.547C551.422 380.24 550.672 380.855 549.865 381.396C549.052 381.938 548.198 382.396 547.297 382.771C546.391 383.141 545.464 383.422 544.505 383.615C543.552 383.808 542.584 383.902 541.61 383.902C540.953 383.902 540.323 384.027 539.714 384.277C539.11 384.527 538.573 384.886 538.11 385.349C537.646 385.813 537.287 386.349 537.037 386.959C536.781 387.563 536.656 388.193 536.656 388.855C536.656 389.511 536.531 390.141 536.281 390.745C536.031 391.355 535.672 391.891 535.209 392.355C534.745 392.818 534.209 393.178 533.599 393.428C532.995 393.678 532.365 393.803 531.709 393.803C530.818 393.808 529.995 393.579 529.229 393.125ZM571.953 411.714L575.584 426.25C576.026 428.037 576.828 429.646 577.979 431.079C579.13 432.516 580.526 433.646 582.172 434.464L584.703 435.735C585.162 435.959 585.521 436.292 585.792 436.724C586.057 437.157 586.193 437.631 586.188 438.141V440.844C586.193 441.313 586.084 441.75 585.854 442.157C585.625 442.568 585.313 442.896 584.912 443.136C584.516 443.381 584.084 443.516 583.615 443.537C583.146 443.558 582.703 443.464 582.287 443.256L567.854 436.053C567.396 435.823 567.037 435.495 566.766 435.058C566.5 434.625 566.365 434.157 566.37 433.646C566.37 432.386 566.188 431.152 565.823 429.943C565.453 428.74 564.917 427.615 564.214 426.573C563.505 425.527 562.662 424.61 561.677 423.823C560.693 423.037 559.615 422.407 558.443 421.943L545.75 416.865C545.354 416.704 544.979 416.511 544.62 416.277C544.261 416.047 543.932 415.782 543.625 415.49C543.318 415.193 543.042 414.87 542.797 414.521C542.552 414.172 542.344 413.803 542.172 413.412C542 413.021 541.87 412.62 541.776 412.204C541.682 411.787 541.63 411.37 541.615 410.943C541.604 410.516 541.63 410.094 541.703 409.672C541.771 409.256 541.88 408.844 542.031 408.443L547.854 392.912C549.198 392.568 550.505 392.11 551.771 391.547C553.042 390.98 554.25 390.313 555.406 389.542C556.563 388.771 557.646 387.912 558.656 386.959C559.667 386.006 560.589 384.974 561.422 383.865C562.261 382.756 563 381.589 563.636 380.355C564.276 379.12 564.807 377.844 565.229 376.521C565.651 375.198 565.964 373.849 566.156 372.474C566.354 371.099 566.432 369.719 566.396 368.334C566.36 366.943 566.203 365.568 565.938 364.209C565.667 362.844 565.287 361.516 564.792 360.219C564.297 358.922 563.698 357.672 562.995 356.474C562.292 355.282 561.49 354.152 560.599 353.089C559.703 352.027 558.724 351.047 557.667 350.152C556.61 349.25 555.479 348.448 554.287 347.745C553.089 347.037 551.844 346.433 550.547 345.938C549.25 345.438 547.922 345.058 546.563 344.782C546.563 344.61 546.563 344.448 546.563 344.287C546.563 343.365 546.474 342.448 546.302 341.537C546.136 340.631 545.88 339.745 545.542 338.881C545.209 338.021 544.792 337.198 544.302 336.412C543.813 335.631 543.255 334.896 542.625 334.219C542 333.537 541.318 332.922 540.573 332.37C539.834 331.818 539.047 331.339 538.214 330.933C537.386 330.532 536.521 330.204 535.63 329.959C534.74 329.719 533.834 329.558 532.912 329.485C531.875 328.36 530.698 327.417 529.38 326.646C528.068 325.875 526.667 325.318 525.182 324.969C523.698 324.615 522.193 324.49 520.672 324.589C519.146 324.688 517.672 325.011 516.25 325.553C514.891 324.188 513.37 323.047 511.682 322.12C510 321.188 508.219 320.516 506.344 320.094C504.464 319.672 502.568 319.521 500.646 319.641C498.729 319.761 496.865 320.146 495.052 320.797C493.745 318.136 491.927 315.881 489.61 314.032C490.854 313.037 492.203 312.204 493.651 311.526C495.094 310.855 496.604 310.36 498.167 310.047C499.735 309.73 501.313 309.605 502.906 309.672C504.5 309.735 506.068 309.985 507.604 310.422C508.354 310.641 509.115 310.683 509.88 310.542C510.651 310.401 511.349 310.099 511.974 309.625C513.719 308.334 515.599 307.287 517.615 306.485C519.63 305.683 521.719 305.151 523.87 304.891C526.026 304.631 528.177 304.646 530.328 304.948C532.479 305.245 534.552 305.818 536.552 306.657C537.307 306.98 538.089 307.105 538.906 307.037C539.719 306.969 540.474 306.714 541.162 306.271C542.802 305.209 544.604 304.678 546.563 304.672C547.182 304.667 547.797 304.719 548.406 304.834C549.021 304.943 549.615 305.11 550.193 305.334C550.771 305.558 551.323 305.834 551.849 306.162C552.375 306.495 552.865 306.87 553.323 307.292C553.776 307.714 554.188 308.172 554.552 308.678C554.917 309.178 555.235 309.709 555.5 310.266C555.766 310.829 555.979 311.407 556.136 312.011C556.287 312.61 556.386 313.219 556.427 313.839C556.49 314.787 556.807 315.641 557.365 316.407C557.922 317.172 558.641 317.73 559.521 318.084C560.401 318.438 561.302 318.532 562.24 318.365C563.172 318.193 563.99 317.792 564.688 317.157C565.594 316.323 566.615 315.688 567.761 315.24C568.906 314.797 570.094 314.573 571.318 314.579C572.203 314.579 573.073 314.693 573.927 314.922C574.781 315.157 575.594 315.495 576.354 315.943C577.12 316.391 577.813 316.933 578.427 317.568C579.047 318.198 579.568 318.902 580 319.678C580.37 320.355 580.875 320.917 581.505 321.36C582.141 321.803 582.839 322.084 583.604 322.198C584.37 322.308 585.12 322.24 585.854 322.006C586.589 321.771 587.235 321.386 587.792 320.849C588.073 320.61 588.37 320.407 588.693 320.23C589.016 320.058 589.354 319.917 589.709 319.818C590.063 319.719 590.422 319.657 590.787 319.631C591.151 319.61 591.516 319.625 591.88 319.683C592.24 319.74 592.594 319.834 592.932 319.969C593.276 320.099 593.599 320.271 593.906 320.474C594.209 320.678 594.49 320.912 594.745 321.172C595 321.438 595.224 321.73 595.412 322.042C595.651 322.469 595.948 322.855 596.307 323.193C596.662 323.532 597.057 323.813 597.495 324.037C597.938 324.256 598.396 324.407 598.88 324.49C599.37 324.573 599.854 324.579 600.339 324.516C600.568 324.49 600.797 324.48 601.031 324.48C601.688 324.48 602.318 324.605 602.922 324.86C603.531 325.11 604.068 325.469 604.531 325.933C604.995 326.396 605.354 326.933 605.604 327.537C605.854 328.146 605.979 328.777 605.979 329.433C605.99 330.323 605.766 331.146 605.302 331.907C604.834 332.714 604.604 333.579 604.625 334.511C604.646 335.443 604.906 336.303 605.412 337.089C605.917 337.87 606.584 338.464 607.427 338.87C608.266 339.277 609.146 339.428 610.078 339.334C610.36 339.318 610.646 339.318 610.932 339.334C611.906 339.334 612.875 339.433 613.828 339.62C614.787 339.813 615.714 340.094 616.615 340.469C617.516 340.839 618.375 341.297 619.188 341.839C619.995 342.381 620.745 342.995 621.438 343.688C622.125 344.375 622.74 345.125 623.281 345.938C623.823 346.75 624.281 347.605 624.656 348.506C625.031 349.407 625.313 350.334 625.5 351.292C625.693 352.25 625.787 353.214 625.787 354.193C625.787 355.167 625.693 356.131 625.5 357.089C625.313 358.047 625.031 358.974 624.656 359.875C624.281 360.777 623.823 361.631 623.281 362.443C622.74 363.256 622.125 364.006 621.438 364.693C620.745 365.386 619.995 366 619.188 366.542C618.375 367.084 617.516 367.542 616.615 367.917C615.714 368.287 614.787 368.568 613.828 368.761C612.875 368.948 611.906 369.047 610.932 369.047C610.276 369.047 609.646 369.172 609.037 369.422C608.432 369.672 607.896 370.032 607.432 370.495C606.969 370.959 606.61 371.495 606.36 372.105C606.104 372.709 605.979 373.339 605.979 373.995C605.979 374.652 605.854 375.287 605.604 375.891C605.354 376.5 604.995 377.032 604.531 377.5C604.068 377.964 603.531 378.318 602.922 378.573C602.318 378.823 601.688 378.948 601.031 378.948C600.141 378.954 599.318 378.724 598.552 378.271C597.688 377.787 596.761 377.584 595.776 377.652C594.787 377.719 593.896 378.053 593.104 378.646C592.292 379.256 591.703 380.032 591.349 380.985C590.99 381.933 590.917 382.907 591.125 383.902C591.125 384.553 591.063 385.193 590.938 385.834C590.807 386.469 590.62 387.089 590.37 387.688C590.125 388.292 589.818 388.86 589.459 389.402C589.094 389.943 588.688 390.443 588.224 390.902C587.766 391.365 587.266 391.771 586.724 392.136C586.182 392.495 585.615 392.803 585.011 393.047C584.412 393.297 583.792 393.485 583.156 393.615C582.516 393.74 581.875 393.803 581.224 393.803C580.724 393.813 580.229 393.777 579.74 393.693C579.115 393.579 578.495 393.579 577.875 393.698C577.255 393.818 576.682 394.053 576.151 394.391C575.62 394.73 575.167 395.157 574.802 395.672C574.432 396.183 574.172 396.745 574.016 397.36L571.959 405.605C571.438 407.636 571.427 409.672 571.932 411.714H571.953Z" fill="#002C1F"/>
<path d="M556.463 334.386H566.37V344.287H556.463V334.386Z" fill="#002C1F"/>
<path d="M586.172 349.239H596.078V359.14H586.172V349.239Z" fill="#002C1F"/>
<path d="M571.318 369.047H581.224V378.948H571.318V369.047Z" fill="#002C1F"/>
<path d="M521.802 309.625H531.708V319.531H521.802V309.625Z" fill="#002C1F"/>
<mask id="mask0_758_55" style="mask-type:luminance" maskUnits="userSpaceOnUse" x="358" y="230" width="308" height="308">
<path d="M358.401 230.401H665.401V537.401H358.401V230.401Z" fill="white"/>
</mask>
<g mask="url(#mask0_758_55)">
<path d="M511.901 230.401C509.385 230.401 506.875 230.464 504.37 230.584C501.859 230.709 499.354 230.891 496.854 231.141C494.354 231.386 491.859 231.693 489.375 232.063C486.89 232.433 484.417 232.86 481.953 233.349C479.489 233.839 477.042 234.391 474.604 235C472.167 235.61 469.745 236.282 467.344 237.011C464.937 237.74 462.552 238.526 460.187 239.375C457.823 240.219 455.479 241.125 453.156 242.084C450.838 243.047 448.542 244.063 446.271 245.136C444 246.214 441.755 247.339 439.542 248.526C437.323 249.709 435.14 250.948 432.984 252.24C430.828 253.532 428.708 254.875 426.62 256.271C424.531 257.667 422.479 259.11 420.458 260.61C418.443 262.104 416.463 263.651 414.521 265.245C412.578 266.839 410.677 268.479 408.818 270.162C406.953 271.849 405.135 273.584 403.359 275.36C401.583 277.136 399.849 278.953 398.161 280.818C396.479 282.677 394.838 284.578 393.245 286.521C391.651 288.464 390.104 290.443 388.609 292.459C387.109 294.479 385.667 296.532 384.271 298.62C382.875 300.709 381.531 302.828 380.239 304.985C378.948 307.141 377.708 309.323 376.526 311.542C375.338 313.756 374.213 316 373.135 318.271C372.062 320.542 371.047 322.839 370.083 325.157C369.125 327.479 368.219 329.823 367.375 332.188C366.526 334.552 365.739 336.938 365.01 339.344C364.281 341.745 363.609 344.167 363 346.604C362.39 349.042 361.838 351.49 361.349 353.953C360.859 356.417 360.432 358.891 360.062 361.375C359.693 363.86 359.385 366.354 359.14 368.854C358.89 371.354 358.708 373.86 358.583 376.37C358.463 378.875 358.401 381.386 358.401 383.901C358.401 386.412 358.463 388.922 358.583 391.433C358.708 393.943 358.89 396.448 359.14 398.948C359.385 401.448 359.693 403.938 360.062 406.422C360.432 408.907 360.859 411.381 361.349 413.844C361.838 416.313 362.39 418.761 363 421.198C363.609 423.636 364.281 426.058 365.01 428.459C365.739 430.865 366.526 433.245 367.375 435.615C368.219 437.979 369.125 440.323 370.083 442.641C371.047 444.964 372.062 447.261 373.135 449.532C374.213 451.802 375.338 454.042 376.526 456.261C377.708 458.474 378.948 460.662 380.239 462.813C381.531 464.969 382.875 467.094 384.271 469.183C385.667 471.271 387.109 473.323 388.609 475.339C390.104 477.36 391.651 479.339 393.245 481.282C394.838 483.219 396.479 485.125 398.161 486.985C399.849 488.844 401.583 490.667 403.359 492.443C405.135 494.219 406.953 495.948 408.818 497.636C410.677 499.323 412.578 500.964 414.521 502.558C416.463 504.151 418.443 505.698 420.458 507.193C422.479 508.688 424.531 510.136 426.62 511.532C428.708 512.927 430.828 514.271 432.984 515.563C435.14 516.854 437.323 518.089 439.542 519.276C441.755 520.459 444 521.589 446.271 522.662C448.542 523.735 450.838 524.756 453.156 525.714C455.479 526.677 457.823 527.578 460.187 528.427C462.552 529.271 464.937 530.063 467.344 530.792C469.745 531.521 472.167 532.188 474.604 532.802C477.042 533.412 479.489 533.959 481.953 534.448C484.417 534.943 486.89 535.37 489.375 535.74C491.859 536.11 494.354 536.417 496.854 536.662C499.354 536.907 501.859 537.094 504.37 537.214C506.875 537.339 509.385 537.401 511.901 537.401C514.411 537.401 516.922 537.339 519.432 537.214C521.943 537.094 524.448 536.907 526.948 536.662C529.448 536.417 531.937 536.11 534.422 535.74C536.906 535.37 539.38 534.943 541.844 534.448C544.312 533.959 546.76 533.412 549.198 532.802C551.635 532.188 554.057 531.521 556.458 530.792C558.864 530.063 561.245 529.271 563.614 528.427C565.979 527.578 568.323 526.677 570.64 525.714C572.963 524.756 575.26 523.735 577.531 522.662C579.802 521.589 582.042 520.459 584.26 519.276C586.474 518.089 588.661 516.854 590.812 515.563C592.969 514.271 595.094 512.927 597.182 511.532C599.271 510.136 601.323 508.688 603.338 507.193C605.359 505.698 607.338 504.151 609.281 502.558C611.219 500.964 613.125 499.323 614.984 497.636C616.844 495.948 618.667 494.219 620.443 492.443C622.219 490.667 623.948 488.844 625.635 486.985C627.323 485.125 628.963 483.219 630.557 481.282C632.151 479.339 633.698 477.36 635.193 475.339C636.687 473.323 638.135 471.271 639.531 469.183C640.927 467.094 642.271 464.969 643.562 462.813C644.854 460.662 646.088 458.474 647.276 456.261C648.458 454.042 649.588 451.802 650.661 449.532C651.734 447.261 652.755 444.964 653.713 442.641C654.677 440.323 655.578 437.979 656.427 435.615C657.271 433.245 658.062 430.865 658.792 428.459C659.521 426.058 660.187 423.636 660.802 421.198C661.411 418.761 661.958 416.313 662.448 413.844C662.943 411.381 663.37 408.907 663.739 406.422C664.109 403.938 664.417 401.448 664.661 398.948C664.906 396.448 665.094 393.943 665.213 391.433C665.338 388.922 665.401 386.412 665.401 383.901C665.396 381.391 665.333 378.881 665.208 376.37C665.083 373.865 664.896 371.36 664.646 368.86C664.396 366.36 664.088 363.87 663.713 361.386C663.344 358.901 662.911 356.427 662.422 353.964C661.932 351.506 661.38 349.052 660.765 346.62C660.151 344.183 659.484 341.766 658.75 339.36C658.021 336.959 657.229 334.573 656.385 332.209C655.536 329.849 654.63 327.506 653.667 325.188C652.708 322.865 651.687 320.573 650.614 318.302C649.536 316.032 648.406 313.792 647.224 311.573C646.042 309.36 644.802 307.177 643.51 305.021C642.219 302.87 640.875 300.75 639.479 298.662C638.083 296.573 636.635 294.521 635.14 292.506C633.64 290.49 632.099 288.511 630.505 286.568C628.911 284.625 627.271 282.724 625.583 280.865C623.896 279.006 622.167 277.188 620.39 275.412C618.614 273.636 616.797 271.901 614.937 270.214C613.073 268.532 611.172 266.891 609.234 265.297C607.292 263.703 605.312 262.157 603.297 260.662C601.281 259.167 599.229 257.719 597.14 256.323C595.052 254.927 592.932 253.584 590.776 252.292C588.625 251 586.437 249.761 584.224 248.578C582.01 247.391 579.771 246.261 577.5 245.188C575.229 244.11 572.932 243.094 570.614 242.131C568.297 241.167 565.953 240.266 563.588 239.417C561.224 238.568 558.844 237.782 556.437 237.047C554.036 236.318 551.62 235.646 549.182 235.037C546.745 234.422 544.297 233.87 541.833 233.381C539.37 232.886 536.896 232.453 534.417 232.084C531.932 231.714 529.437 231.401 526.943 231.157C524.443 230.907 521.937 230.719 519.427 230.594C516.922 230.469 514.411 230.401 511.901 230.401ZM511.901 527.495C509.552 527.495 507.203 527.438 504.854 527.323C502.505 527.209 500.161 527.037 497.823 526.808C495.484 526.573 493.156 526.287 490.828 525.943C488.505 525.599 486.193 525.198 483.885 524.74C481.583 524.282 479.286 523.766 477.01 523.193C474.729 522.62 472.463 521.995 470.213 521.313C467.969 520.631 465.734 519.896 463.526 519.104C461.312 518.313 459.12 517.464 456.948 516.568C454.776 515.667 452.63 514.714 450.505 513.709C448.38 512.703 446.281 511.651 444.208 510.542C442.135 509.433 440.094 508.276 438.078 507.068C436.062 505.86 434.078 504.604 432.12 503.297C430.167 501.99 428.245 500.636 426.359 499.24C424.474 497.839 422.62 496.391 420.802 494.901C418.984 493.412 417.208 491.875 415.469 490.297C413.724 488.719 412.026 487.099 410.359 485.438C408.698 483.776 407.078 482.073 405.5 480.334C403.922 478.594 402.39 476.813 400.896 474.995C399.406 473.183 397.963 471.328 396.562 469.443C395.161 467.552 393.807 465.631 392.505 463.677C391.198 461.724 389.943 459.74 388.734 457.724C387.526 455.709 386.364 453.662 385.26 451.589C384.151 449.521 383.094 447.422 382.088 445.297C381.083 443.172 380.135 441.021 379.234 438.854C378.333 436.683 377.489 434.49 376.698 432.276C375.906 430.063 375.167 427.834 374.484 425.584C373.802 423.334 373.177 421.073 372.604 418.792C372.036 416.511 371.521 414.219 371.062 411.917C370.604 409.61 370.203 407.297 369.859 404.969C369.51 402.646 369.224 400.313 368.995 397.974C368.765 395.636 368.594 393.292 368.474 390.948C368.359 388.599 368.302 386.25 368.302 383.901C368.302 381.552 368.359 379.203 368.474 376.854C368.594 374.506 368.765 372.162 368.995 369.823C369.224 367.485 369.51 365.157 369.859 362.828C370.203 360.506 370.604 358.193 371.062 355.886C371.521 353.584 372.036 351.287 372.604 349.011C373.177 346.729 373.802 344.464 374.484 342.214C375.167 339.969 375.906 337.735 376.698 335.526C377.489 333.313 378.333 331.12 379.234 328.948C380.135 326.776 381.083 324.631 382.088 322.506C383.094 320.381 384.151 318.282 385.26 316.209C386.364 314.136 387.526 312.094 388.734 310.078C389.943 308.063 391.198 306.078 392.505 304.12C393.807 302.167 395.161 300.245 396.562 298.36C397.963 296.474 399.406 294.62 400.896 292.802C402.39 290.985 403.922 289.209 405.5 287.469C407.078 285.724 408.698 284.026 410.359 282.36C412.026 280.698 413.724 279.078 415.469 277.5C417.208 275.922 418.984 274.391 420.802 272.896C422.62 271.407 424.474 269.964 426.359 268.563C428.245 267.162 430.167 265.808 432.12 264.506C434.078 263.198 436.062 261.943 438.078 260.735C440.094 259.526 442.135 258.365 444.208 257.261C446.281 256.151 448.38 255.094 450.505 254.089C452.63 253.084 454.776 252.136 456.948 251.235C459.12 250.334 461.312 249.49 463.526 248.698C465.734 247.907 467.969 247.167 470.213 246.485C472.463 245.802 474.729 245.177 477.01 244.604C479.286 244.037 481.583 243.521 483.885 243.063C486.193 242.604 488.505 242.203 490.828 241.86C493.156 241.511 495.484 241.224 497.823 240.995C500.161 240.766 502.505 240.594 504.854 240.474C507.203 240.36 509.552 240.302 511.901 240.302C514.25 240.302 516.599 240.36 518.948 240.474C521.292 240.594 523.635 240.766 525.974 240.995C528.312 241.224 530.646 241.511 532.969 241.86C535.297 242.203 537.609 242.604 539.917 243.063C542.219 243.521 544.51 244.037 546.792 244.604C549.073 245.177 551.333 245.802 553.583 246.485C555.833 247.167 558.062 247.907 560.276 248.698C562.489 249.49 564.682 250.334 566.854 251.235C569.021 252.136 571.172 253.084 573.297 254.089C575.422 255.094 577.521 256.151 579.588 257.261C581.661 258.365 583.708 259.526 585.724 260.735C587.739 261.943 589.724 263.198 591.677 264.506C593.63 265.808 595.552 267.162 597.443 268.563C599.328 269.964 601.182 271.407 602.995 272.896C604.812 274.391 606.594 275.922 608.333 277.5C610.073 279.078 611.776 280.698 613.437 282.36C615.099 284.026 616.719 285.724 618.297 287.469C619.875 289.209 621.411 290.985 622.901 292.802C624.39 294.62 625.838 296.474 627.239 298.36C628.635 300.245 629.989 302.167 631.297 304.12C632.604 306.078 633.859 308.063 635.068 310.078C636.276 312.094 637.432 314.136 638.542 316.209C639.651 318.282 640.703 320.381 641.708 322.506C642.713 324.631 643.667 326.776 644.568 328.948C645.463 331.12 646.312 333.313 647.104 335.526C647.896 337.735 648.63 339.969 649.312 342.214C649.995 344.464 650.62 346.729 651.193 349.011C651.765 351.287 652.281 353.584 652.739 355.886C653.198 358.193 653.599 360.506 653.943 362.828C654.286 365.157 654.573 367.485 654.807 369.823C655.036 372.162 655.208 374.506 655.323 376.854C655.437 379.203 655.495 381.552 655.495 383.901C655.495 386.25 655.432 388.599 655.318 390.943C655.198 393.292 655.021 395.631 654.792 397.969C654.557 400.308 654.265 402.641 653.922 404.964C653.573 407.287 653.172 409.599 652.708 411.901C652.25 414.209 651.734 416.5 651.161 418.776C650.588 421.058 649.958 423.318 649.276 425.568C648.594 427.813 647.854 430.042 647.062 432.256C646.271 434.464 645.422 436.657 644.521 438.828C643.62 440.995 642.672 443.146 641.661 445.266C640.656 447.391 639.599 449.49 638.495 451.558C637.385 453.631 636.224 455.672 635.015 457.688C633.807 459.703 632.552 461.688 631.245 463.641C629.943 465.594 628.588 467.511 627.187 469.401C625.786 471.287 624.344 473.136 622.854 474.953C621.359 476.771 619.828 478.547 618.25 480.287C616.672 482.026 615.052 483.729 613.39 485.391C611.729 487.052 610.026 488.672 608.286 490.25C606.547 491.828 604.771 493.36 602.953 494.854C601.135 496.344 599.286 497.787 597.401 499.188C595.51 500.589 593.594 501.943 591.64 503.245C589.687 504.552 587.703 505.808 585.687 507.016C583.672 508.224 581.63 509.386 579.557 510.495C577.489 511.599 575.39 512.657 573.265 513.662C571.146 514.672 568.995 515.62 566.828 516.521C564.656 517.422 562.463 518.271 560.255 519.063C558.042 519.854 555.812 520.594 553.568 521.276C551.318 521.959 549.057 522.589 546.776 523.162C544.5 523.735 542.208 524.25 539.901 524.709C537.599 525.172 535.286 525.573 532.963 525.922C530.64 526.266 528.307 526.558 525.969 526.792C523.63 527.021 521.292 527.198 518.943 527.318C516.599 527.433 514.25 527.495 511.901 527.495Z" fill="#002C1F"/>
</g>
<path d="M511.901 279.916C517.974 279.916 524 280.447 529.985 281.505C535.964 282.562 541.807 284.13 547.516 286.208C553.224 288.291 558.703 290.849 563.964 293.89C569.224 296.932 574.177 300.406 578.828 304.312L585.182 296.75C582.552 294.536 579.823 292.442 577 290.479C574.172 288.51 571.266 286.671 568.276 284.968C565.287 283.265 562.224 281.697 559.094 280.27C555.964 278.843 552.771 277.562 549.526 276.427C546.276 275.286 542.985 274.296 539.646 273.458C536.307 272.619 532.938 271.932 529.537 271.401C526.136 270.864 522.719 270.489 519.287 270.265C515.854 270.041 512.417 269.974 508.974 270.062C505.531 270.145 502.104 270.39 498.688 270.791C495.266 271.187 491.875 271.739 488.505 272.447C485.136 273.156 481.807 274.01 478.516 275.02C475.224 276.026 471.985 277.182 468.802 278.484C465.615 279.786 462.495 281.229 459.438 282.812C456.386 284.401 453.406 286.119 450.505 287.974C447.61 289.828 444.797 291.812 442.078 293.921C439.36 296.031 436.74 298.255 434.224 300.604L440.985 307.849C445.75 303.39 450.886 299.421 456.401 295.937C461.917 292.453 467.708 289.515 473.781 287.125C479.849 284.734 486.089 282.932 492.5 281.718C498.912 280.51 505.375 279.906 511.901 279.916Z" fill="#002C1F"/>
</svg>
