<svg width="20" height="20" viewBox="0 0 20 20" fill="none" xmlns="http://www.w3.org/2000/svg">
<g clip-path="url(#clip0_622_67)">
<path fill-rule="evenodd" clip-rule="evenodd" d="M19.6402 17.328C19.0228 19.204 16.6042 20.14 14.8762 19.984C12.5162 19.7706 9.94815 18.5186 7.99882 17.14C5.13348 15.1133 2.44948 11.9786 0.885485 8.65197C-0.219849 6.30131 -0.467849 3.41064 1.17615 1.26797C1.78415 0.475974 2.44282 0.0533076 3.42948 0.00397424C4.80015 -0.0626924 4.99215 0.721308 5.46282 1.94264C5.81349 2.85597 6.28149 3.78797 6.54282 4.73464C7.03215 6.50131 5.32148 6.57464 5.10548 8.01864C4.97215 8.92931 6.07482 10.1506 6.57348 10.8C7.53466 12.0646 8.7119 13.1493 10.0508 14.004C10.8108 14.4826 12.0348 15.3453 12.9042 14.8693C14.2428 14.136 14.1175 11.8786 15.9882 12.6426C16.9575 13.0373 17.8962 13.6066 18.8215 14.1053C20.2522 14.8746 20.1855 15.672 19.6402 17.328C20.0482 16.0906 19.2322 18.5653 19.6402 17.328Z" fill="black"/>
</g>
<defs>
<clipPath id="clip0_622_67">
<rect width="20" height="20" fill="white"/>
</clipPath>
</defs>
</svg>
