<svg width="40" height="40" viewBox="0 0 40 40" fill="none" xmlns="http://www.w3.org/2000/svg">
<path d="M30.7143 2.85718C32.4852 2.85718 33.9993 3.4859 35.2567 4.74334C36.5142 6.00078 37.1429 7.51491 37.1429 9.28575V30.7143C37.1429 32.4851 36.5142 33.9993 35.2567 35.2567C33.9993 36.5141 32.4852 37.1429 30.7143 37.1429H26.5179V23.8616H30.9599L31.6295 18.683H26.5179V15.3795C26.5179 14.5461 26.6927 13.9211 27.0424 13.5045C27.3921 13.0878 28.073 12.8795 29.0849 12.8795L31.8081 12.8571V8.23664C30.8706 8.10271 29.5462 8.03575 27.8349 8.03575C25.811 8.03575 24.1927 8.63099 22.9799 9.82146C21.7671 11.0119 21.1607 12.6935 21.1607 14.8661V18.683H16.6965V23.8616H21.1607V37.1429H9.28575C7.51492 37.1429 6.00078 36.5141 4.74334 35.2567C3.4859 33.9993 2.85718 32.4851 2.85718 30.7143V9.28575C2.85718 7.51491 3.4859 6.00078 4.74334 4.74334C6.00078 3.4859 7.51492 2.85718 9.28575 2.85718H30.7143Z" fill="white"/>
</svg>
