<svg width="40" height="40" viewBox="0 0 40 40" fill="none" xmlns="http://www.w3.org/2000/svg">
<path d="M28.8999 9.09999C28.5044 9.09999 28.1177 9.21729 27.7888 9.43706C27.4599 9.65682 27.2035 9.96918 27.0522 10.3346C26.9008 10.7001 26.8612 11.1022 26.9383 11.4902C27.0155 11.8781 27.206 12.2345 27.4857 12.5142C27.7654 12.7939 28.1218 12.9844 28.5097 13.0616C28.8977 13.1387 29.2998 13.0991 29.6653 12.9478C30.0307 12.7964 30.3431 12.54 30.5629 12.2111C30.7826 11.8822 30.8999 11.4956 30.8999 11.1C30.8999 10.5696 30.6892 10.0609 30.3141 9.68578C29.9391 9.31071 29.4304 9.09999 28.8999 9.09999ZM36.5666 13.1333C36.5342 11.7505 36.2752 10.3823 35.7999 9.08333C35.3761 7.97188 34.7166 6.96546 33.8666 6.13333C33.0413 5.27904 32.0325 4.62362 30.9166 4.21666C29.621 3.72693 28.2513 3.46201 26.8666 3.43333C25.0999 3.33333 24.5333 3.33333 19.9999 3.33333C15.4666 3.33333 14.8999 3.33333 13.1333 3.43333C11.7485 3.46201 10.3788 3.72693 9.08325 4.21666C7.96938 4.62774 6.96148 5.2826 6.13325 6.13333C5.27896 6.95862 4.62355 7.96739 4.21659 9.08333C3.72685 10.3789 3.46194 11.7486 3.43325 13.1333C3.33325 14.9 3.33325 15.4667 3.33325 20C3.33325 24.5333 3.33325 25.1 3.43325 26.8667C3.46194 28.2514 3.72685 29.6211 4.21659 30.9167C4.62355 32.0326 5.27896 33.0414 6.13325 33.8667C6.96148 34.7174 7.96938 35.3722 9.08325 35.7833C10.3788 36.2731 11.7485 36.538 13.1333 36.5667C14.8999 36.6667 15.4666 36.6667 19.9999 36.6667C24.5333 36.6667 25.0999 36.6667 26.8666 36.5667C28.2513 36.538 29.621 36.2731 30.9166 35.7833C32.0325 35.3764 33.0413 34.721 33.8666 33.8667C34.7203 33.0376 35.3805 32.0303 35.7999 30.9167C36.2752 29.6177 36.5342 28.2495 36.5666 26.8667C36.5666 25.1 36.6666 24.5333 36.6666 20C36.6666 15.4667 36.6666 14.9 36.5666 13.1333ZM33.5666 26.6667C33.5544 27.7246 33.3628 28.7728 32.9999 29.7667C32.7338 30.492 32.3064 31.1474 31.7499 31.6833C31.2093 32.2342 30.5553 32.6607 29.8333 32.9333C28.8394 33.2962 27.7912 33.4879 26.7333 33.5C25.0666 33.5833 24.4499 33.6 20.0666 33.6C15.6833 33.6 15.0666 33.6 13.3999 33.5C12.3014 33.5206 11.2076 33.3514 10.1666 33C9.47622 32.7135 8.85218 32.288 8.33325 31.75C7.78007 31.2146 7.35799 30.5586 7.09992 29.8333C6.69301 28.8252 6.46732 27.7532 6.43325 26.6667C6.43325 25 6.33325 24.3833 6.33325 20C6.33325 15.6167 6.33325 15 6.43325 13.3333C6.44072 12.2518 6.63817 11.1799 7.01659 10.1667C7.31 9.46318 7.76036 8.83609 8.33325 8.33333C8.83961 7.76028 9.4654 7.30515 10.1666 6.99999C11.1825 6.6334 12.2532 6.44179 13.3333 6.43333C14.9999 6.43333 15.6166 6.33333 19.9999 6.33333C24.3833 6.33333 24.9999 6.33333 26.6666 6.43333C27.7245 6.44546 28.7728 6.63707 29.7666 6.99999C30.524 7.28108 31.2037 7.73807 31.7499 8.33333C32.2961 8.84529 32.7229 9.47122 32.9999 10.1667C33.3703 11.1816 33.5621 12.253 33.5666 13.3333C33.6499 15 33.6666 15.6167 33.6666 20C33.6666 24.3833 33.6499 25 33.5666 26.6667ZM19.9999 11.45C18.3096 11.4533 16.6582 11.9575 15.2543 12.899C13.8505 13.8405 12.7572 15.177 12.1126 16.7396C11.4681 18.3022 11.3011 20.0208 11.6329 21.6782C11.9647 23.3356 12.7803 24.8576 13.9767 26.0516C15.1731 27.2457 16.6966 28.0584 18.3547 28.3869C20.0128 28.7155 21.731 28.5452 23.2924 27.8976C24.8537 27.2499 26.188 26.1541 27.1268 24.7484C28.0655 23.3427 28.5666 21.6903 28.5666 20C28.5688 18.8752 28.3486 17.761 27.9187 16.7216C27.4887 15.6822 26.8575 14.738 26.0614 13.9434C25.2652 13.1488 24.3198 12.5195 23.2796 12.0915C22.2393 11.6636 21.1247 11.4456 19.9999 11.45ZM19.9999 25.55C18.9022 25.55 17.8292 25.2245 16.9165 24.6147C16.0038 24.0048 15.2925 23.138 14.8724 22.1239C14.4523 21.1098 14.3424 19.9938 14.5566 18.9172C14.7707 17.8406 15.2993 16.8517 16.0755 16.0756C16.8517 15.2994 17.8406 14.7708 18.9172 14.5566C19.9938 14.3425 21.1097 14.4524 22.1238 14.8725C23.1379 15.2925 24.0047 16.0039 24.6146 16.9166C25.2244 17.8293 25.5499 18.9023 25.5499 20C25.5499 20.7288 25.4064 21.4505 25.1274 22.1239C24.8485 22.7972 24.4397 23.4091 23.9244 23.9244C23.409 24.4398 22.7972 24.8486 22.1238 25.1275C21.4505 25.4064 20.7288 25.55 19.9999 25.55Z" fill="#46AF4E"/>
</svg>
