<svg width="40" height="40" viewBox="0 0 40 40" fill="none" xmlns="http://www.w3.org/2000/svg">
<path d="M28.8999 9.09991C28.5044 9.09991 28.1177 9.21721 27.7888 9.43698C27.4599 9.65674 27.2035 9.9691 27.0522 10.3345C26.9008 10.7 26.8612 11.1021 26.9383 11.4901C27.0155 11.878 27.206 12.2344 27.4857 12.5141C27.7654 12.7938 28.1218 12.9843 28.5097 13.0615C28.8977 13.1386 29.2998 13.099 29.6653 12.9477C30.0307 12.7963 30.3431 12.5399 30.5629 12.211C30.7826 11.8821 30.8999 11.4955 30.8999 11.0999C30.8999 10.5695 30.6892 10.0608 30.3141 9.6857C29.9391 9.31063 29.4304 9.09991 28.8999 9.09991ZM36.5666 13.1332C36.5342 11.7504 36.2752 10.3822 35.7999 9.08325C35.3761 7.9718 34.7166 6.96538 33.8666 6.13325C33.0413 5.27896 32.0325 4.62354 30.9166 4.21658C29.621 3.72685 28.2513 3.46193 26.8666 3.43325C25.0999 3.33325 24.5333 3.33325 19.9999 3.33325C15.4666 3.33325 14.8999 3.33325 13.1333 3.43325C11.7485 3.46193 10.3788 3.72685 9.08325 4.21658C7.96938 4.62766 6.96148 5.28252 6.13325 6.13325C5.27896 6.95854 4.62355 7.96731 4.21659 9.08325C3.72685 10.3788 3.46194 11.7485 3.43325 13.1332C3.33325 14.8999 3.33325 15.4666 3.33325 19.9999C3.33325 24.5332 3.33325 25.0999 3.43325 26.8666C3.46194 28.2513 3.72685 29.621 4.21659 30.9166C4.62355 32.0325 5.27896 33.0413 6.13325 33.8666C6.96148 34.7173 7.96938 35.3721 9.08325 35.7832C10.3788 36.273 11.7485 36.5379 13.1333 36.5666C14.8999 36.6666 15.4666 36.6666 19.9999 36.6666C24.5333 36.6666 25.0999 36.6666 26.8666 36.5666C28.2513 36.5379 29.621 36.273 30.9166 35.7832C32.0325 35.3763 33.0413 34.7209 33.8666 33.8666C34.7203 33.0375 35.3805 32.0302 35.7999 30.9166C36.2752 29.6176 36.5342 28.2494 36.5666 26.8666C36.5666 25.0999 36.6666 24.5332 36.6666 19.9999C36.6666 15.4666 36.6666 14.8999 36.5666 13.1332ZM33.5666 26.6666C33.5544 27.7245 33.3628 28.7727 32.9999 29.7666C32.7338 30.4919 32.3064 31.1473 31.7499 31.6832C31.2093 32.2341 30.5553 32.6606 29.8333 32.9332C28.8394 33.2961 27.7912 33.4878 26.7333 33.4999C25.0666 33.5832 24.4499 33.5999 20.0666 33.5999C15.6833 33.5999 15.0666 33.5999 13.3999 33.4999C12.3014 33.5205 11.2076 33.3513 10.1666 32.9999C9.47622 32.7134 8.85218 32.2879 8.33325 31.7499C7.78007 31.2145 7.35799 30.5585 7.09992 29.8332C6.69301 28.8251 6.46732 27.7531 6.43325 26.6666C6.43325 24.9999 6.33325 24.3832 6.33325 19.9999C6.33325 15.6166 6.33325 14.9999 6.43325 13.3332C6.44072 12.2517 6.63817 11.1798 7.01659 10.1666C7.31 9.4631 7.76036 8.83601 8.33325 8.33325C8.83961 7.7602 9.4654 7.30507 10.1666 6.99991C11.1825 6.63332 12.2532 6.44171 13.3333 6.43325C14.9999 6.43325 15.6166 6.33325 19.9999 6.33325C24.3833 6.33325 24.9999 6.33325 26.6666 6.43325C27.7245 6.44538 28.7728 6.63699 29.7666 6.99991C30.524 7.281 31.2037 7.73799 31.7499 8.33325C32.2961 8.84521 32.7229 9.47114 32.9999 10.1666C33.3703 11.1815 33.5621 12.2529 33.5666 13.3332C33.6499 14.9999 33.6666 15.6166 33.6666 19.9999C33.6666 24.3832 33.6499 24.9999 33.5666 26.6666ZM19.9999 11.4499C18.3096 11.4532 16.6582 11.9574 15.2543 12.8989C13.8505 13.8404 12.7572 15.1769 12.1126 16.7395C11.4681 18.3021 11.3011 20.0207 11.6329 21.6781C11.9647 23.3355 12.7803 24.8575 13.9767 26.0515C15.1731 27.2456 16.6966 28.0583 18.3547 28.3868C20.0128 28.7154 21.731 28.5451 23.2924 27.8975C24.8537 27.2498 26.188 26.154 27.1268 24.7483C28.0655 23.3426 28.5666 21.6902 28.5666 19.9999C28.5688 18.8751 28.3486 17.7609 27.9187 16.7215C27.4887 15.6821 26.8575 14.7379 26.0614 13.9433C25.2652 13.1487 24.3198 12.5194 23.2796 12.0914C22.2393 11.6635 21.1247 11.4455 19.9999 11.4499ZM19.9999 25.5499C18.9022 25.5499 17.8292 25.2244 16.9165 24.6146C16.0038 24.0047 15.2925 23.1379 14.8724 22.1238C14.4523 21.1097 14.3424 19.9937 14.5566 18.9171C14.7707 17.8405 15.2993 16.8516 16.0755 16.0755C16.8517 15.2993 17.8406 14.7707 18.9172 14.5565C19.9938 14.3424 21.1097 14.4523 22.1238 14.8724C23.1379 15.2924 24.0047 16.0038 24.6146 16.9165C25.2244 17.8292 25.5499 18.9022 25.5499 19.9999C25.5499 20.7287 25.4064 21.4504 25.1274 22.1238C24.8485 22.7971 24.4397 23.409 23.9244 23.9243C23.409 24.4397 22.7972 24.8485 22.1238 25.1274C21.4505 25.4063 20.7288 25.5499 19.9999 25.5499Z" fill="white"/>
</svg>
