<svg width="40" height="40" viewBox="0 0 40 40" fill="none" xmlns="http://www.w3.org/2000/svg">
<path d="M27.6666 23.3334C27.3333 23.1668 25.1666 22.1668 24.8333 22.0001C24.4999 21.8334 24.1666 21.8334 23.8333 22.1668C23.4999 22.5001 22.8333 23.5001 22.4999 23.8334C22.3333 24.1668 21.9999 24.1668 21.6666 24.0001C20.4999 23.5001 19.3333 22.8334 18.3333 22.0001C17.4999 21.1668 16.6666 20.1668 15.9999 19.1668C15.8333 18.8334 15.9999 18.5001 16.1666 18.3334C16.3333 18.1668 16.4999 17.8334 16.8333 17.6668C16.9999 17.5001 17.1666 17.1668 17.1666 17.0001C17.3333 16.8334 17.3333 16.5001 17.1666 16.3334C16.9999 16.1668 16.1666 14.1668 15.8333 13.3334C15.6666 12.1668 15.3333 12.1668 14.9999 12.1668H14.1666C13.8333 12.1668 13.3333 12.5001 13.1666 12.6668C12.1666 13.6668 11.6666 14.8334 11.6666 16.1668C11.8333 17.6668 12.3333 19.1668 13.3333 20.5001C15.1666 23.1668 17.4999 25.3334 20.3333 26.6668C21.1666 27.0001 21.8333 27.3334 22.6666 27.5001C23.4999 27.8334 24.3333 27.8334 25.3333 27.6668C26.4999 27.5001 27.4999 26.6668 28.1666 25.6668C28.4999 25.0001 28.4999 24.3334 28.3333 23.6668L27.6666 23.3334ZM31.8333 8.16675C25.3333 1.66675 14.8333 1.66675 8.33325 8.16675C2.99992 13.5001 1.99992 21.6668 5.66659 28.1668L3.33325 36.6668L12.1666 34.3334C14.6666 35.6668 17.3333 36.3334 19.9999 36.3334C29.1666 36.3334 36.4999 29.0001 36.4999 19.8334C36.6666 15.5001 34.8333 11.3334 31.8333 8.16675ZM27.3333 31.5001C25.1666 32.8334 22.6666 33.6668 19.9999 33.6668C17.4999 33.6668 15.1666 33.0001 12.9999 31.8334L12.4999 31.5001L7.33325 32.8334L8.66658 27.8334L8.33325 27.3334C4.33325 20.6668 6.33325 12.3334 12.8333 8.16675C19.3333 4.00009 27.6666 6.16675 31.6666 12.5001C35.6666 19.0001 33.8333 27.5001 27.3333 31.5001Z" fill="white"/>
</svg>
