<svg width="40" height="40" viewBox="0 0 40 40" fill="none" xmlns="http://www.w3.org/2000/svg">
<path d="M27.6666 23.3333C27.3333 23.1667 25.1666 22.1667 24.8333 22C24.4999 21.8333 24.1666 21.8333 23.8333 22.1667C23.4999 22.5 22.8333 23.5 22.4999 23.8333C22.3333 24.1667 21.9999 24.1667 21.6666 24C20.4999 23.5 19.3333 22.8333 18.3333 22C17.4999 21.1667 16.6666 20.1667 15.9999 19.1667C15.8333 18.8333 15.9999 18.5 16.1666 18.3333C16.3333 18.1667 16.4999 17.8333 16.8333 17.6667C16.9999 17.5 17.1666 17.1667 17.1666 17C17.3333 16.8333 17.3333 16.5 17.1666 16.3333C16.9999 16.1667 16.1666 14.1667 15.8333 13.3333C15.6666 12.1667 15.3333 12.1667 14.9999 12.1667H14.1666C13.8333 12.1667 13.3333 12.5 13.1666 12.6667C12.1666 13.6667 11.6666 14.8333 11.6666 16.1667C11.8333 17.6667 12.3333 19.1667 13.3333 20.5C15.1666 23.1667 17.4999 25.3333 20.3333 26.6667C21.1666 27 21.8333 27.3333 22.6666 27.5C23.4999 27.8333 24.3333 27.8333 25.3333 27.6667C26.4999 27.5 27.4999 26.6667 28.1666 25.6667C28.4999 25 28.4999 24.3333 28.3333 23.6667L27.6666 23.3333ZM31.8333 8.16667C25.3333 1.66667 14.8333 1.66667 8.33325 8.16667C2.99992 13.5 1.99992 21.6667 5.66659 28.1667L3.33325 36.6667L12.1666 34.3333C14.6666 35.6667 17.3333 36.3333 19.9999 36.3333C29.1666 36.3333 36.4999 29 36.4999 19.8333C36.6666 15.5 34.8333 11.3333 31.8333 8.16667ZM27.3333 31.5C25.1666 32.8333 22.6666 33.6667 19.9999 33.6667C17.4999 33.6667 15.1666 33 12.9999 31.8333L12.4999 31.5L7.33325 32.8333L8.66658 27.8333L8.33325 27.3333C4.33325 20.6667 6.33325 12.3333 12.8333 8.16667C19.3333 4.00001 27.6666 6.16667 31.6666 12.5C35.6666 19 33.8333 27.5 27.3333 31.5Z" fill="#46AF4E"/>
</svg>
