<svg width="14" height="33" viewBox="0 0 14 33" fill="none" xmlns="http://www.w3.org/2000/svg">
<path d="M13.6507 31.7338C13.7057 31.5169 13.7034 31.2894 13.644 31.0737C13.5845 30.8579 13.4699 30.6614 13.3114 30.5034C13.153 30.3453 12.9562 30.2312 12.7403 30.1723C12.5244 30.1134 12.2969 30.1116 12.0802 30.1673C11.64 30.2749 11.1792 30.2645 10.7444 30.137C10.3095 30.0095 9.91603 29.7695 9.60368 29.4412C9.29133 29.1129 9.07117 28.708 8.96547 28.2673C8.85976 27.8267 8.87225 27.3659 9.00168 26.9317C9.12962 26.4969 9.36985 26.1036 9.69818 25.7912C10.0265 25.4788 10.4313 25.2585 10.8719 25.1523C11.0622 25.1093 11.2403 25.0238 11.3927 24.902C11.5451 24.7802 11.6679 24.6255 11.7519 24.4494C11.788 24.3739 11.8167 24.295 11.8376 24.2139L11.8391 24.2089L11.842 24.199C11.8704 24.076 11.8806 23.9494 11.8722 23.8234C11.8695 23.7385 11.8584 23.6542 11.8391 23.5715C11.8277 23.5311 11.8143 23.4912 11.799 23.4521C11.7853 23.4108 11.7694 23.3702 11.7516 23.3305C11.7325 23.2938 11.7116 23.258 11.6891 23.2233L11.6856 23.2169C11.5408 22.9831 11.325 22.8018 11.0698 22.6993C10.8146 22.5968 10.5334 22.5786 10.2671 22.6473C9.82669 22.7551 9.36567 22.7445 8.93065 22.6169C8.49563 22.4892 8.10204 22.2489 7.7897 21.9203C7.47736 21.5917 7.25735 21.1865 7.15193 20.7455C7.0465 20.3046 7.0594 19.8436 7.18932 19.4093C7.31727 18.9745 7.5575 18.5812 7.88583 18.2688C8.21416 17.9564 8.61899 17.7361 9.05957 17.6299C9.22752 17.5911 9.38598 17.519 9.5256 17.4179C9.56134 17.394 9.59586 17.3683 9.62903 17.3409L9.63049 17.336C9.79118 17.1934 9.91371 17.013 9.98697 16.8111C10.0602 16.6091 10.0819 16.3921 10.05 16.1797L10.0465 16.1733C10.0416 16.1324 10.0348 16.0918 10.026 16.0516C10.0149 16.0103 10.0018 15.9697 9.98667 15.9297C9.97291 15.8884 9.95707 15.8478 9.93921 15.8081C9.91981 15.7722 9.89872 15.7373 9.87601 15.7034L9.87252 15.697C9.73664 15.4759 9.5372 15.3009 9.30028 15.1949C9.06335 15.0889 8.79997 15.0569 8.54456 15.1031C8.51491 15.1077 8.48544 15.1133 8.45619 15.12C8.01602 15.2276 7.55523 15.2172 7.12038 15.0897C6.68554 14.9622 6.29206 14.7222 5.97971 14.3939C5.66736 14.0656 5.4472 13.6607 5.3415 13.22C5.23579 12.7794 5.24828 12.3187 5.3777 11.8844C5.50556 11.4504 5.74567 11.0578 6.07379 10.7462C6.40191 10.4347 6.80643 10.2152 7.24649 10.11C7.4152 10.0722 7.57459 10.001 7.71521 9.90038C7.85582 9.7998 7.97477 9.67197 8.06499 9.5245C8.15522 9.37703 8.21487 9.21293 8.2404 9.04194C8.26593 8.87095 8.25683 8.69658 8.21362 8.52918C8.20223 8.48875 8.18887 8.4489 8.17359 8.40978C8.15983 8.36847 8.14399 8.32789 8.12613 8.28819C8.10704 8.25147 8.08618 8.2157 8.06365 8.18098L8.06017 8.17458C7.91653 7.93989 7.70159 7.75729 7.44676 7.65347C7.19193 7.54966 6.91059 7.53007 6.64383 7.59758C6.20366 7.70524 5.74287 7.6948 5.30803 7.56731C4.87319 7.43982 4.47971 7.1998 4.16736 6.8715C3.85501 6.54321 3.63485 6.13828 3.52915 5.69764C3.42344 5.25699 3.43593 4.79626 3.56535 4.36199C3.69329 3.92724 3.93352 3.53387 4.26185 3.2215C4.59018 2.90913 4.99502 2.68879 5.4356 2.58264C5.60298 2.54447 5.76106 2.47326 5.90056 2.3732C6.04006 2.27313 6.15818 2.14622 6.24798 1.9999C6.33779 1.85358 6.39748 1.69081 6.42355 1.52112C6.44962 1.35143 6.44155 1.17825 6.39981 1.01172C6.3583 0.847257 6.28476 0.692592 6.18339 0.556592C6.08202 0.420591 5.95482 0.305927 5.80907 0.21916C5.66332 0.132393 5.50188 0.0752365 5.33401 0.0509528C5.16613 0.0266697 4.99511 0.0357375 4.83075 0.0776459C3.95138 0.291491 3.14362 0.732579 2.48832 1.35676C1.83302 1.98094 1.35317 2.76631 1.09682 3.63424C0.840474 4.50217 0.816619 5.42221 1.02764 6.30226C1.23866 7.18231 1.67715 7.99149 2.29922 8.64879C2.69975 9.0683 3.1742 9.38324 3.67608 9.64174C3.34922 10.1019 3.06845 10.5972 2.90407 11.1538C2.38315 12.9175 2.84442 14.8341 4.1123 16.1687C4.5121 16.5907 4.98728 16.9032 5.48843 17.1642C5.16157 17.6243 4.88153 18.1172 4.71715 18.6737C4.1955 20.4399 4.65677 22.3565 5.92466 23.6911C6.32693 24.1138 6.80211 24.4263 7.30573 24.688C6.97639 25.1475 6.69316 25.642 6.52804 26.2011C6.27257 27.0693 6.25002 27.9895 6.46267 28.8693C6.67533 29.749 7.1157 30.5573 7.73956 31.213C8.36342 31.8687 9.14881 32.3487 10.0169 32.6048C10.8849 32.861 11.8051 32.8842 12.685 32.6723C12.9168 32.62 13.1296 32.5047 13.3001 32.3391C13.4705 32.1735 13.5918 31.964 13.6507 31.7338Z" fill="#FD961E"/>
</svg>
