<svg width="33" height="17" viewBox="0 0 33 17" fill="none" xmlns="http://www.w3.org/2000/svg">
<path d="M31.0152 0.732789C30.7933 0.703557 30.5677 0.732557 30.3604 0.816943C30.1532 0.901329 29.9714 1.0382 29.8331 1.21409C29.6948 1.38998 29.6046 1.59884 29.5714 1.82014C29.5382 2.04145 29.5632 2.26758 29.6438 2.47631C29.8024 2.9008 29.8461 3.35964 29.7706 3.80644C29.695 4.25323 29.5028 4.67217 29.2134 5.02089C28.9241 5.36962 28.5478 5.63578 28.1226 5.79247C27.6974 5.94916 27.2384 5.99083 26.7919 5.91327C26.3452 5.83724 25.9263 5.64483 25.5776 5.35544C25.2288 5.06604 24.9625 4.68986 24.8054 4.26479C24.7404 4.08086 24.6345 3.91408 24.4957 3.777C24.3569 3.63992 24.1888 3.53612 24.004 3.47341C23.9248 3.44637 23.8431 3.42712 23.7601 3.41594L23.755 3.41506L23.7448 3.41332C23.6193 3.39953 23.4924 3.40426 23.3682 3.42735C23.2843 3.44004 23.2018 3.46098 23.122 3.48987C23.0832 3.50593 23.0452 3.52388 23.0081 3.54365C22.9687 3.56216 22.9303 3.58265 22.8929 3.60505C22.8587 3.62832 22.8256 3.65322 22.7938 3.67967L22.7878 3.68388C22.5727 3.85514 22.4179 4.0907 22.3461 4.35616C22.2743 4.62162 22.2892 4.90309 22.3887 5.15946C22.5473 5.58416 22.591 6.04323 22.5153 6.49022C22.4396 6.93722 22.2471 7.35629 21.9575 7.70504C21.6678 8.05379 21.2911 8.31984 20.8656 8.47629C20.4401 8.63274 19.9808 8.67403 19.5342 8.59598C19.0875 8.51995 18.6686 8.32755 18.3199 8.03815C17.9711 7.74875 17.7048 7.37257 17.5477 6.9475C17.4894 6.78527 17.3992 6.63636 17.2825 6.50958C17.2545 6.47689 17.2249 6.44563 17.1938 6.4159L17.1887 6.41503C17.0283 6.27218 16.8348 6.17167 16.6256 6.12262C16.4165 6.07357 16.1984 6.07752 15.9912 6.13414L15.9853 6.13835C15.9453 6.14801 15.9057 6.15958 15.8668 6.17302C15.8271 6.18886 15.7883 6.20666 15.7504 6.22636C15.711 6.24487 15.6726 6.26536 15.6352 6.28776C15.6019 6.31124 15.5696 6.33629 15.5386 6.36282L15.5327 6.36703C15.329 6.52793 15.1786 6.74653 15.1012 6.99425C15.0238 7.24197 15.0229 7.5073 15.0987 7.75553C15.1068 7.78443 15.1158 7.81303 15.1259 7.8413C15.2845 8.26579 15.3282 8.72462 15.2526 9.17142C15.177 9.61822 14.9849 10.0372 14.6955 10.3859C14.4061 10.7346 14.0298 11.0008 13.6046 11.1575C13.1795 11.3141 12.7204 11.3558 12.274 11.2783C11.8279 11.2022 11.4099 11.0099 11.062 10.7206C10.7141 10.4313 10.4486 10.0553 10.2925 9.63065C10.2352 9.46753 10.1457 9.31761 10.0293 9.18977C9.91295 9.06194 9.77204 8.95881 9.615 8.88652C9.45796 8.81423 9.28799 8.77425 9.11519 8.76896C8.94239 8.76367 8.77028 8.79318 8.60912 8.85573C8.5703 8.87179 8.5323 8.88974 8.49524 8.90951C8.45583 8.92802 8.41739 8.94851 8.38006 8.97091C8.34584 8.99418 8.31275 9.01908 8.28093 9.04553L8.27498 9.04974C8.05876 9.21994 7.90265 9.45483 7.82947 9.72007C7.75628 9.98532 7.76985 10.267 7.86819 10.524C8.02677 10.9485 8.07049 11.4073 7.99491 11.8541C7.91934 12.3009 7.72716 12.7199 7.43779 13.0686C7.14843 13.4173 6.77214 13.6835 6.34695 13.8402C5.92175 13.9969 5.46274 14.0385 5.01628 13.961C4.56952 13.8849 4.15068 13.6925 3.80193 13.4031C3.45319 13.1137 3.18685 12.7376 3.02973 12.3125C2.97218 12.1507 2.8829 12.0021 2.76716 11.8753C2.65141 11.7485 2.51151 11.6461 2.35566 11.5741C2.19982 11.5021 2.03117 11.4619 1.85959 11.456C1.68801 11.45 1.51697 11.4783 1.3565 11.5393C1.19804 11.5998 1.05308 11.691 0.929913 11.8077C0.80675 11.9243 0.707807 12.0641 0.638746 12.219C0.569685 12.3739 0.531871 12.541 0.527458 12.7105C0.523046 12.8801 0.552123 13.0489 0.613033 13.2072C0.928609 14.0554 1.46145 14.8058 2.15823 15.3833C2.855 15.9608 3.69127 16.3451 4.58329 16.4979C5.47531 16.6506 6.39179 16.5663 7.24099 16.2534C8.09019 15.9406 8.84231 15.4101 9.42206 14.7152C9.79166 14.2682 10.0487 13.7601 10.2465 13.2313C10.7419 13.5019 11.2667 13.7226 11.8388 13.8205C13.6514 14.1309 15.5007 13.4478 16.6772 12.0321C17.0494 11.5855 17.3039 11.0769 17.5043 10.5486C17.9996 10.8192 18.5219 11.0395 19.0939 11.1374C20.9091 11.4482 22.7584 10.7651 23.9349 9.34936C24.3075 8.90025 24.562 8.39169 24.7628 7.86083C25.2577 8.13397 25.7821 8.3572 26.3567 8.45556C27.2489 8.60736 28.1654 8.52175 29.0141 8.20732C29.8628 7.89288 30.6138 7.36069 31.1918 6.66418C31.7697 5.96768 32.1542 5.13137 32.3067 4.23924C32.4592 3.34712 32.3743 2.43057 32.0605 1.58164C31.9814 1.35758 31.8419 1.15974 31.6575 1.00995C31.473 0.860158 31.2507 0.764243 31.0152 0.732789Z" fill="#46AF4E"/>
</svg>
