<svg width="24" height="30" viewBox="0 0 24 30" fill="none" xmlns="http://www.w3.org/2000/svg">
<path d="M0.500719 3.16195C0.53528 3.38305 0.626777 3.59135 0.766217 3.76638C0.905657 3.9414 1.08824 4.07712 1.29602 4.16022C1.5038 4.24331 1.72963 4.2709 1.95131 4.24029C2.17298 4.20968 2.38288 4.12191 2.56036 3.98561C2.92285 3.71369 3.3507 3.54228 3.80067 3.48871C4.25064 3.43513 4.70678 3.50129 5.12298 3.68049C5.53919 3.8597 5.90071 4.14559 6.17101 4.50929C6.44132 4.87299 6.61082 5.3016 6.6624 5.7518C6.71552 6.20186 6.64912 6.65798 6.46989 7.07421C6.29066 7.49045 6.00493 7.85211 5.64146 8.12279C5.48335 8.23706 5.35323 8.38572 5.26089 8.55756C5.16855 8.7294 5.11639 8.91995 5.10835 9.11486C5.10479 9.19854 5.10938 9.28237 5.12207 9.36516L5.12267 9.37029L5.12387 9.38053C5.14607 9.50486 5.18641 9.62526 5.2436 9.73787C5.27945 9.81481 5.32281 9.88802 5.37305 9.95644C5.39941 9.98914 5.42736 10.0205 5.45678 10.0505C5.48566 10.0831 5.51616 10.1142 5.54819 10.1437C5.58017 10.17 5.61339 10.1947 5.64774 10.2177L5.65347 10.2223C5.87848 10.3804 6.14814 10.4624 6.42308 10.4564C6.69801 10.4503 6.96383 10.3566 7.18171 10.1888C7.54438 9.91676 7.97247 9.74533 8.42267 9.69183C8.87286 9.63835 9.3292 9.7047 9.74552 9.8842C10.1618 10.0637 10.5234 10.35 10.7935 10.714C11.0637 11.0781 11.2329 11.5071 11.284 11.9576C11.3372 12.4076 11.2708 12.8637 11.0915 13.28C10.9123 13.6962 10.6266 14.0579 10.2631 14.3286C10.1239 14.4302 10.0065 14.5588 9.91782 14.7066C9.89436 14.7426 9.87271 14.7798 9.85296 14.818L9.85356 14.8232C9.76179 15.0174 9.71998 15.2314 9.73193 15.4459C9.74388 15.6604 9.80921 15.8684 9.92199 16.0513L9.92771 16.0558C9.94827 16.0915 9.97053 16.1261 9.9944 16.1596C10.0208 16.1932 10.0488 16.2255 10.0784 16.2563C10.1073 16.2889 10.1378 16.32 10.1698 16.3495C10.2018 16.3748 10.2349 16.3987 10.2691 16.4209L10.2748 16.4255C10.4866 16.5754 10.7388 16.658 10.9983 16.6624C11.2578 16.6668 11.5126 16.5927 11.7293 16.45C11.7548 16.4341 11.7797 16.4173 11.804 16.3997C12.1665 16.1278 12.5943 15.9564 13.0443 15.9028C13.4942 15.8492 13.9504 15.9154 14.3666 16.0946C14.7828 16.2738 15.1443 16.5597 15.4146 16.9234C15.6849 17.2871 15.8544 17.7157 15.906 18.1659C15.9589 18.6153 15.8923 19.0706 15.713 19.486C15.5336 19.9014 15.2478 20.2621 14.8845 20.5318C14.7441 20.6327 14.6256 20.7609 14.5358 20.9086C14.446 21.0564 14.3868 21.2207 14.3617 21.3917C14.3367 21.5628 14.3463 21.7371 14.39 21.9044C14.4337 22.0717 14.5106 22.2284 14.6161 22.3654C14.6424 22.3981 14.6704 22.4295 14.6998 22.4595C14.7287 22.4921 14.7592 22.5232 14.7912 22.5527C14.8232 22.5789 14.8564 22.6036 14.8907 22.6267L14.8965 22.6312C15.1208 22.7906 15.3901 22.8741 15.6653 22.8695C15.9404 22.8648 16.2068 22.7723 16.4256 22.6055C16.7881 22.3336 17.216 22.1621 17.6659 22.1086C18.1159 22.055 18.572 22.1212 18.9882 22.3004C19.4044 22.4796 19.766 22.7655 20.0363 23.1292C20.3066 23.4929 20.4761 23.9215 20.5276 24.3717C20.5808 24.8217 20.5144 25.2778 20.3351 25.6941C20.1559 26.1103 19.8702 26.472 19.5067 26.7426C19.3678 26.8435 19.2504 26.9711 19.1614 27.1179C19.0724 27.2647 19.0137 27.4278 18.9885 27.5977C18.9634 27.7675 18.9725 27.9406 19.0152 28.1069C19.0579 28.2732 19.1333 28.4293 19.2371 28.5661C19.3399 28.701 19.4683 28.8143 19.6149 28.8996C19.7616 28.9848 19.9236 29.0403 20.0917 29.0628C20.2598 29.0854 20.4307 29.0745 20.5946 29.0309C20.7586 28.9873 20.9123 28.9118 21.047 28.8087C21.7716 28.2666 22.3412 27.5436 22.6986 26.7122C23.0561 25.8808 23.1888 24.9701 23.0836 24.0712C22.9784 23.1723 22.6389 22.3169 22.0992 21.5905C21.5594 20.8641 20.8383 20.2922 20.008 19.9321C19.4749 19.7036 18.9149 19.6004 18.3518 19.5598C18.4716 19.0082 18.5352 18.4425 18.4678 17.8661C18.254 16.0395 17.0769 14.4581 15.3867 13.7289C14.8533 13.4979 14.2935 13.3972 13.7301 13.354C13.85 12.8025 13.9139 12.2393 13.8464 11.6629C13.6323 9.83374 12.4553 8.25238 10.765 7.52312C10.229 7.29241 9.66932 7.19171 9.10338 7.14888C9.22576 6.597 9.29194 6.03093 9.22418 5.45197C9.11805 4.55315 8.7773 3.69806 8.23617 2.97259C7.69503 2.24712 6.97254 1.67678 6.14125 1.31886C5.30997 0.960941 4.39914 0.828028 3.50024 0.933469C2.60134 1.03891 1.746 1.37901 1.02011 1.91959C0.827484 2.05872 0.677041 2.24836 0.585388 2.4676C0.493735 2.68683 0.464435 2.92712 0.500719 3.16195Z" fill="#46AF4E"/>
</svg>
