<svg width="31" height="21" viewBox="0 0 31 21" fill="none" xmlns="http://www.w3.org/2000/svg">
<path d="M0.684295 4.82373C0.805545 5.01182 0.973652 5.16512 1.17209 5.26857C1.37053 5.37201 1.59246 5.42203 1.81609 5.41372C2.03971 5.40542 2.25733 5.33907 2.44754 5.22119C2.63776 5.10331 2.79403 4.93797 2.90099 4.74141C3.12207 4.34585 3.44366 4.01567 3.83324 3.78423C4.22283 3.55278 4.6666 3.42829 5.11972 3.42331C5.57284 3.41834 6.01924 3.53307 6.41381 3.75591C6.80838 3.97875 7.13713 4.3018 7.36684 4.69241C7.5979 5.08226 7.72217 5.52611 7.72713 5.97927C7.73209 6.43243 7.61757 6.87889 7.39509 7.27371C7.29691 7.44228 7.23825 7.63093 7.22352 7.82546C7.2088 8.01998 7.2384 8.2153 7.31009 8.39673C7.34076 8.47467 7.37895 8.54943 7.42412 8.61996L7.42675 8.6244L7.432 8.63328C7.50271 8.73793 7.58841 8.83163 7.68636 8.91137C7.75033 8.96716 7.81965 9.0165 7.89332 9.05866C7.93068 9.07787 7.96895 9.09524 8.008 9.11071C8.04761 9.12878 8.08811 9.14483 8.12934 9.15881C8.16922 9.16985 8.20961 9.17896 8.25037 9.18612L8.25744 9.18793C8.52723 9.2412 8.80699 9.20682 9.05586 9.08983C9.30474 8.97284 9.5097 8.77936 9.64082 8.53763C9.86201 8.14188 10.1838 7.81158 10.5736 7.58012C10.9635 7.34866 11.4075 7.22426 11.8608 7.21952C12.3142 7.21477 12.7607 7.32984 13.1553 7.55308C13.5499 7.77632 13.8785 8.09982 14.108 8.49085C14.339 8.8807 14.4633 9.32456 14.4683 9.77771C14.4732 10.2309 14.3587 10.6773 14.1362 11.0721C14.0502 11.2215 13.995 11.3866 13.9739 11.5577C13.9671 11.6002 13.9624 11.643 13.9598 11.6859L13.9624 11.6903C13.9573 11.9051 14.0059 12.1177 14.1038 12.3089C14.2017 12.5001 14.3458 12.6638 14.523 12.7852L14.5301 12.787C14.5633 12.8113 14.5977 12.8339 14.6332 12.8549C14.6709 12.8749 14.7096 12.893 14.7491 12.9092C14.7888 12.9272 14.8292 12.9433 14.8705 12.9572C14.91 12.9675 14.9499 12.9759 14.9902 12.9823L14.9973 12.9842C15.2517 13.0353 15.5157 13.0086 15.7547 12.9073C15.9937 12.8061 16.1965 12.6351 16.3368 12.4167C16.3536 12.3919 16.3695 12.3665 16.3846 12.3405C16.6057 11.945 16.9273 11.6148 17.3168 11.3833C17.7064 11.1519 18.1502 11.0274 18.6033 11.0224C19.0564 11.0174 19.5028 11.1322 19.8974 11.355C20.292 11.5779 20.6207 11.9009 20.8504 12.2915C21.081 12.6808 21.2048 13.1241 21.2093 13.5765C21.2138 14.0289 21.0989 14.4746 20.8761 14.8684C20.7887 15.0176 20.7323 15.1828 20.7102 15.3543C20.688 15.5257 20.7005 15.6999 20.747 15.8664C20.7935 16.0329 20.8729 16.1884 20.9807 16.3236C21.0885 16.4588 21.2223 16.5709 21.3743 16.6533C21.4116 16.6725 21.4499 16.6899 21.489 16.7054C21.5286 16.7234 21.5691 16.7395 21.6103 16.7535C21.6502 16.7645 21.6906 16.7736 21.7313 16.7808L21.7384 16.7826C22.0081 16.8373 22.2882 16.8044 22.5378 16.6886C22.7874 16.5728 22.9934 16.3802 23.1257 16.139C23.3468 15.7434 23.6684 15.4132 24.058 15.1818C24.4476 14.9503 24.8913 14.8258 25.3445 14.8209C25.7976 14.8159 26.244 14.9306 26.6385 15.1535C27.0331 15.3763 27.3619 15.6993 27.5916 16.09C27.8226 16.4798 27.9469 16.9237 27.9519 17.3768C27.9568 17.83 27.8423 18.2764 27.6198 18.6713C27.5337 18.8198 27.4782 18.984 27.4564 19.1543C27.4346 19.3246 27.447 19.4975 27.4929 19.6629C27.5388 19.8284 27.6173 19.983 27.7238 20.1177C27.8302 20.2523 27.9625 20.3644 28.1128 20.4473C28.2615 20.529 28.4248 20.5805 28.5934 20.599C28.762 20.6175 28.9326 20.6025 29.0954 20.5549C29.2583 20.5073 29.4101 20.4281 29.5422 20.3218C29.6744 20.2154 29.7843 20.084 29.8656 19.9352C30.3082 19.1458 30.5356 18.254 30.5252 17.3491C30.5147 16.4441 30.2668 15.5578 29.8061 14.7788C29.3454 13.9998 28.6882 13.3556 27.9003 12.9104C27.1123 12.4653 26.2212 12.235 25.3163 12.2425C24.7363 12.2499 24.1825 12.3826 23.6514 12.5739C23.5372 12.0211 23.3659 11.4781 23.0705 10.9786C22.1344 9.39565 20.4172 8.42748 18.5764 8.44629C17.9952 8.45144 17.4427 8.58638 16.9102 8.77542C16.7961 8.22264 16.6261 7.68189 16.3307 7.18236C15.3933 5.59721 13.676 4.62904 11.8353 4.64785C11.2518 4.65431 10.6993 4.78925 10.1646 4.9796C10.0527 4.42551 9.88366 3.88123 9.58694 3.37948C9.12544 2.60092 8.46722 1.95748 7.67838 1.51378C6.88953 1.07007 5.99784 0.841719 5.09283 0.85165C4.18782 0.86158 3.30134 1.10944 2.52243 1.57035C1.74351 2.03125 1.09957 2.68898 0.655262 3.47748C0.535605 3.68278 0.474993 3.91713 0.480116 4.1547C0.48524 4.39226 0.555899 4.62379 0.684295 4.82373Z" fill="#46AF4E"/>
</svg>
