<svg width="23" height="30" viewBox="0 0 23 30" fill="none" xmlns="http://www.w3.org/2000/svg">
<path d="M0.217515 3.17709C0.252077 3.39818 0.343573 3.60649 0.483014 3.78151C0.622454 3.95654 0.805038 4.09226 1.01282 4.17535C1.2206 4.25845 1.44643 4.28604 1.6681 4.25543C1.88978 4.22481 2.09967 4.13704 2.27716 4.00075C2.63965 3.72883 3.0675 3.55742 3.51747 3.50384C3.96743 3.45027 4.42357 3.51643 4.83978 3.69563C5.25598 3.87483 5.61751 4.16073 5.88781 4.52443C6.15812 4.88813 6.32762 5.31674 6.37919 5.76694C6.43231 6.217 6.36592 6.67311 6.18669 7.08935C6.00746 7.50558 5.72172 7.86725 5.35826 8.13793C5.20015 8.2522 5.07003 8.40086 4.97768 8.5727C4.88534 8.74454 4.83319 8.93508 4.82515 9.13C4.82158 9.21368 4.82618 9.29751 4.83887 9.38029L4.83947 9.38542L4.84067 9.39566C4.86286 9.52 4.9032 9.6404 4.9604 9.75301C4.99625 9.82995 5.03961 9.90316 5.08985 9.97158C5.11621 10.0043 5.14415 10.0357 5.17357 10.0657C5.20245 10.0982 5.23296 10.1293 5.26498 10.1588C5.29696 10.1851 5.33019 10.2098 5.36454 10.2329L5.37026 10.2374C5.59528 10.3955 5.86494 10.4775 6.13987 10.4715C6.41481 10.4655 6.68062 10.3717 6.89851 10.2039C7.26117 9.9319 7.68926 9.76046 8.13946 9.70697C8.58966 9.65348 9.046 9.71984 9.46232 9.89934C9.87864 10.0788 10.2402 10.3651 10.5103 10.7292C10.7805 11.0933 10.9497 11.5222 11.0008 11.9727C11.054 12.4228 10.9876 12.8789 10.8083 13.2951C10.6291 13.7113 10.3434 14.073 9.97991 14.3437C9.84071 14.4454 9.7233 14.5739 9.63462 14.7217C9.61115 14.7578 9.5895 14.7949 9.56976 14.8332L9.57036 14.8383C9.47859 15.0325 9.43678 15.2466 9.44873 15.461C9.46068 15.6755 9.52601 15.8836 9.63879 16.0664L9.64451 16.0709C9.66507 16.1066 9.68732 16.1412 9.7112 16.1748C9.73759 16.2084 9.76563 16.2406 9.79522 16.2714C9.8241 16.304 9.85461 16.3351 9.88663 16.3646C9.91857 16.39 9.9517 16.4138 9.98589 16.4361L9.99161 16.4406C10.2034 16.5906 10.4556 16.6732 10.7151 16.6775C10.9746 16.6819 11.2294 16.6079 11.4461 16.4651C11.4716 16.4492 11.4965 16.4325 11.5208 16.4148C11.8833 16.1429 12.3111 15.9715 12.7611 15.9179C13.211 15.8644 13.6672 15.9305 14.0834 16.1097C14.4996 16.2889 14.8611 16.5748 15.1314 16.9385C15.4017 17.3022 15.5712 17.7308 15.6228 18.181C15.6757 18.6304 15.6091 19.0858 15.4298 19.5012C15.2504 19.9166 14.9646 20.2773 14.6013 20.5469C14.4609 20.6479 14.3424 20.776 14.2526 20.9238C14.1628 21.0715 14.1036 21.2358 14.0785 21.4068C14.0535 21.5779 14.0631 21.7523 14.1068 21.9195C14.1505 22.0868 14.2274 22.2436 14.3329 22.3805C14.3592 22.4132 14.3872 22.4446 14.4166 22.4746C14.4455 22.5072 14.476 22.5383 14.508 22.5678C14.54 22.5941 14.5732 22.6188 14.6075 22.6418L14.6133 22.6464C14.8376 22.8058 15.1069 22.8892 15.3821 22.8846C15.6572 22.88 15.9236 22.7875 16.1424 22.6206C16.5049 22.3487 16.9328 22.1773 17.3827 22.1237C17.8327 22.0701 18.2888 22.1363 18.705 22.3155C19.1212 22.4947 19.4828 22.7806 19.7531 23.1443C20.0234 23.508 20.1929 23.9366 20.2444 24.3868C20.2976 24.8369 20.2312 25.293 20.0519 25.7092C19.8727 26.1254 19.587 26.4871 19.2235 26.7578C19.0846 26.8586 18.9672 26.9862 18.8782 27.133C18.7892 27.2799 18.7305 27.443 18.7053 27.6128C18.6802 27.7826 18.6893 27.9558 18.732 28.1221C18.7746 28.2883 18.8501 28.4444 18.9539 28.5812C19.0567 28.7161 19.1851 28.8295 19.3317 28.9147C19.4784 29 19.6404 29.0554 19.8085 29.078C19.9766 29.1005 20.1475 29.0897 20.3114 29.046C20.4754 29.0024 20.6291 28.9269 20.7638 28.8238C21.4884 28.2817 22.058 27.5588 22.4154 26.7274C22.7729 25.8959 22.9056 24.9852 22.8004 24.0863C22.6952 23.1875 22.3557 22.332 21.816 21.6056C21.2762 20.8792 20.5551 20.3073 19.7248 19.9472C19.1917 19.7188 18.6317 19.6155 18.0686 19.575C18.1884 19.0234 18.252 18.4576 18.1846 17.8812C17.9708 16.0546 16.7937 14.4733 15.1035 13.744C14.57 13.513 14.0103 13.4123 13.4469 13.3692C13.5668 12.8176 13.6307 12.2544 13.5632 11.678C13.3491 9.84887 12.1721 8.26752 10.4818 7.53826C9.94584 7.30754 9.38611 7.20685 8.82017 7.16402C8.94256 6.61214 9.00874 6.04607 8.94098 5.4671C8.83484 4.56828 8.4941 3.7132 7.95296 2.98773C7.41182 2.26225 6.68934 1.69192 5.85805 1.334C5.02677 0.976078 4.11594 0.843164 3.21704 0.948606C2.31814 1.05405 1.4628 1.39414 0.736907 1.93472C0.54428 2.07386 0.393838 2.2635 0.302185 2.48273C0.210532 2.70197 0.181231 2.94226 0.217515 3.17709Z" fill="#46AF4E"/>
</svg>
