<svg width="34" height="13" viewBox="0 0 34 13" fill="none" xmlns="http://www.w3.org/2000/svg">
<path d="M32.0418 0.0970794C31.8248 0.042518 31.5973 0.0453643 31.3817 0.105346C31.1661 0.165327 30.9699 0.280378 30.8122 0.439184C30.6545 0.597992 30.5409 0.79509 30.4825 1.01111C30.4241 1.22713 30.4229 1.45463 30.479 1.67126C30.5877 2.11118 30.5783 2.57199 30.4519 3.00713C30.3254 3.44227 30.0863 3.83631 29.7587 4.14943C29.4312 4.46255 29.0267 4.68365 28.5863 4.79038C28.1459 4.89712 27.6852 4.8857 27.2506 4.7573C26.8156 4.63037 26.4216 4.39106 26.1085 4.06346C25.7954 3.73586 25.5741 3.33154 25.4669 2.89122C25.4235 2.70103 25.3375 2.52317 25.2154 2.37103C25.0932 2.2189 24.9382 2.09645 24.7619 2.0129C24.6863 1.97692 24.6073 1.94841 24.5262 1.92774L24.5212 1.92629L24.5113 1.92339C24.3882 1.89525 24.2616 1.88535 24.1356 1.894C24.0508 1.89695 23.9664 1.90826 23.8838 1.92778C23.8434 1.93927 23.8036 1.95272 23.7645 1.9681C23.7232 1.98195 23.6827 1.99789 23.643 2.01584C23.6064 2.03502 23.5706 2.05595 23.536 2.07856L23.5296 2.08206C23.2961 2.22743 23.1153 2.44361 23.0134 2.69905C22.9115 2.95449 22.894 3.2358 22.9633 3.50192C23.0721 3.94205 23.0626 4.40309 22.936 4.83841C22.8094 5.27373 22.57 5.66788 22.2421 5.98099C21.9142 6.29409 21.5095 6.51505 21.0688 6.62151C20.6281 6.72796 20.1671 6.71614 19.7325 6.58724C19.2974 6.46031 18.9035 6.221 18.5904 5.8934C18.2772 5.5658 18.0559 5.16148 17.9487 4.72115C17.9095 4.5533 17.8371 4.395 17.7357 4.25563C17.7117 4.21994 17.6859 4.18548 17.6584 4.15237L17.6535 4.15092C17.5105 3.99057 17.3298 3.86846 17.1277 3.79568C16.9256 3.72289 16.7086 3.70173 16.4962 3.73413L16.4898 3.73763C16.449 3.74262 16.4084 3.74957 16.3682 3.75844C16.3269 3.76961 16.2863 3.78283 16.2464 3.79803C16.2051 3.81189 16.1646 3.82782 16.1249 3.84578C16.0891 3.86526 16.0541 3.88644 16.0203 3.90922L16.0139 3.91272C15.7931 4.04912 15.6186 4.24897 15.5132 4.48614C15.4078 4.72331 15.3764 4.98677 15.4231 5.24208C15.4278 5.27171 15.4335 5.30117 15.4402 5.33041C15.5489 5.77032 15.5396 6.23114 15.4131 6.66628C15.2866 7.10141 15.0475 7.49546 14.72 7.80858C14.3924 8.1217 13.988 8.34279 13.5476 8.44953C13.1072 8.55627 12.6464 8.54486 12.2118 8.41645C11.7775 8.28961 11.3843 8.05041 11.072 7.72302C10.7597 7.39563 10.5393 6.99163 10.4331 6.55182C10.3949 6.38319 10.3233 6.22397 10.2224 6.08359C10.1215 5.94322 9.99336 5.82456 9.84568 5.73468C9.69799 5.6448 9.53375 5.58554 9.36271 5.56041C9.19166 5.53527 9.01731 5.54479 8.85001 5.58838C8.80961 5.59987 8.76979 5.61332 8.7307 5.6287C8.68943 5.64255 8.64889 5.65849 8.60923 5.67644C8.57256 5.69562 8.53683 5.71655 8.50217 5.73916L8.49577 5.74266C8.26142 5.88685 8.07932 6.10222 7.9761 6.35729C7.87288 6.61236 7.85396 6.89375 7.92208 7.16035C8.03077 7.60026 8.02141 8.06108 7.89494 8.49621C7.76846 8.93135 7.52936 9.32539 7.2018 9.63851C6.87424 9.95163 6.46982 10.1727 6.02943 10.2795C5.58903 10.3862 5.12827 10.3748 4.6937 10.2464C4.25865 10.1195 3.86473 9.88015 3.55159 9.55255C3.23845 9.22496 3.01716 8.82063 2.90999 8.38031C2.87143 8.21301 2.79985 8.0551 2.69945 7.91584C2.59906 7.77657 2.47187 7.65875 2.32535 7.56928C2.17882 7.47982 2.01591 7.42051 1.84616 7.39484C1.67641 7.36916 1.50325 7.37764 1.33682 7.41977C1.17245 7.46166 1.01796 7.53557 0.882193 7.63725C0.74643 7.73894 0.632064 7.86641 0.545637 8.01236C0.459212 8.15831 0.402433 8.31988 0.378542 8.48782C0.354651 8.65575 0.364119 8.82674 0.406411 8.99101C0.622312 9.86987 1.06529 10.6766 1.691 11.3304C2.31671 11.9843 3.1032 12.4623 3.97173 12.7166C4.84025 12.9709 5.76035 12.9926 6.6399 12.7796C7.51946 12.5665 8.32761 12.1261 8.98345 11.5025C9.40203 11.101 9.71586 10.6258 9.97318 10.1233C10.4341 10.4491 10.9301 10.7287 11.487 10.8918C13.2519 11.4086 15.1675 10.9428 16.4991 9.67183C16.9202 9.27104 17.2315 8.79513 17.4913 8.29338C17.9523 8.61916 18.4457 8.89804 19.0027 9.06112C20.7701 9.57864 22.6856 9.11289 24.0173 7.84189C24.439 7.43863 24.7504 6.96272 25.0109 6.45849C25.4711 6.78675 25.9664 7.06883 26.5258 7.23263C27.3946 7.48608 28.3149 7.50647 29.1941 7.29176C30.0733 7.07705 30.8806 6.6348 31.5349 6.0094C32.1891 5.38401 32.6673 4.5975 32.9214 3.72884C33.1755 2.86018 33.1966 1.93995 32.9826 1.06055C32.9297 0.828879 32.8139 0.616304 32.6479 0.446287C32.4819 0.276269 32.2722 0.155421 32.0418 0.0970794Z" fill="#FD961E"/>
</svg>
