<svg width="25" height="27" viewBox="0 0 25 27" fill="none" xmlns="http://www.w3.org/2000/svg">
<path d="M21.4869 0.222146C21.2771 0.299958 21.0911 0.431029 20.9473 0.602472C20.8035 0.773916 20.7068 0.979831 20.6666 1.19998C20.6265 1.42013 20.6443 1.64694 20.7184 1.85811C20.7924 2.06928 20.9202 2.25754 21.089 2.4044C21.4276 2.70562 21.6806 3.09087 21.8225 3.52121C21.9644 3.95155 21.9903 4.41174 21.8973 4.85526C21.8044 5.29878 21.5961 5.70991 21.2934 6.0471C20.9906 6.3843 20.6043 6.6356 20.1733 6.77562C19.7428 6.91713 19.2826 6.9427 18.839 6.84977C18.3955 6.75684 17.9842 6.54868 17.6467 6.24626C17.5033 6.11402 17.3317 6.01604 17.145 5.95969C16.9582 5.90334 16.7611 5.8901 16.5685 5.92096C16.4858 5.93409 16.4045 5.95525 16.3259 5.98414L16.321 5.98575L16.3112 5.98896C16.1937 6.03542 16.0838 6.09889 15.9848 6.17732C15.9165 6.22775 15.8534 6.2848 15.7963 6.34763C15.7695 6.37997 15.7443 6.41359 15.7207 6.44838C15.6945 6.48316 15.6701 6.51924 15.6476 6.55649C15.6282 6.59305 15.6106 6.63052 15.5948 6.66877L15.5915 6.67528C15.4813 6.92723 15.4545 7.20781 15.515 7.47606C15.5756 7.74432 15.7203 7.9862 15.928 8.16639C16.2667 8.46776 16.5198 8.85324 16.6617 9.28382C16.8036 9.71441 16.8293 10.1748 16.7361 10.6185C16.6429 11.0622 16.4342 11.4734 16.1311 11.8105C15.8279 12.1477 15.4412 12.3988 15.0098 12.5384C14.5793 12.6799 14.1191 12.7055 13.6756 12.6126C13.232 12.5196 12.8208 12.3115 12.4832 12.0091C12.3559 11.8928 12.2066 11.8033 12.0442 11.7458C12.0042 11.73 11.9634 11.7161 11.922 11.7044L11.9171 11.706C11.7085 11.6546 11.4905 11.6562 11.2826 11.7105C11.0748 11.7649 10.8839 11.8703 10.7271 12.0171L10.7238 12.0236C10.6929 12.0509 10.6634 12.0796 10.6353 12.1096C10.6076 12.1422 10.5816 12.1761 10.5573 12.2112C10.5311 12.246 10.5067 12.282 10.4841 12.3193C10.4656 12.3556 10.4488 12.3928 10.4338 12.4308L10.4305 12.4373C10.3256 12.6747 10.2948 12.9382 10.3421 13.1934C10.3894 13.4486 10.5126 13.6836 10.6955 13.8677C10.7162 13.8894 10.7375 13.9105 10.7596 13.9308C11.0982 14.232 11.3512 14.6173 11.4931 15.0476C11.6351 15.478 11.6609 15.9381 11.568 16.3817C11.4751 16.8252 11.2667 17.2363 10.964 17.5735C10.6613 17.9107 10.2749 18.162 9.84393 18.302C9.41405 18.4432 8.95453 18.4684 8.51177 18.3752C8.06902 18.282 7.65869 18.0736 7.32224 17.7711C7.19538 17.6536 7.0462 17.5629 6.88357 17.5042C6.72094 17.4456 6.54818 17.4202 6.37555 17.4297C6.20293 17.4391 6.03398 17.4832 5.87872 17.5593C5.72347 17.6353 5.58509 17.7418 5.47182 17.8724C5.44501 17.9048 5.41979 17.9384 5.39626 17.9732C5.37007 18.008 5.34566 18.044 5.32312 18.0813C5.30373 18.1178 5.28612 18.1553 5.27033 18.1936L5.26704 18.2001C5.1554 18.4516 5.12711 18.7322 5.18633 19.0009C5.24555 19.2696 5.38917 19.5123 5.59618 19.6936C5.93472 19.9948 6.18774 20.3801 6.32967 20.8104C6.47161 21.2408 6.49742 21.7009 6.40451 22.1445C6.3116 22.588 6.10325 22.9991 5.80053 23.3363C5.49781 23.6735 5.11144 23.9248 4.68047 24.0648C4.24995 24.2063 3.78974 24.2319 3.34619 24.139C2.90263 24.046 2.49139 23.8379 2.15388 23.5355C2.02743 23.4193 1.87906 23.3296 1.71748 23.2716C1.5559 23.2136 1.38437 23.1884 1.21293 23.1976C1.0415 23.2067 0.873612 23.25 0.719123 23.3249C0.564634 23.3997 0.426649 23.5047 0.313263 23.6336C0.201441 23.7612 0.115879 23.9095 0.0614759 24.0702C0.00707298 24.2308 -0.0151007 24.4007 -0.00377621 24.5699C0.00754768 24.7391 0.0521525 24.9045 0.127475 25.0565C0.202796 25.2085 0.307356 25.3441 0.435173 25.4556C1.11048 26.0581 1.93219 26.4726 2.81806 26.6577C3.70393 26.8427 4.62289 26.7918 5.48291 26.5101C6.34293 26.2283 7.11385 25.7256 7.7185 25.0523C8.32315 24.3789 8.7403 23.5585 8.92821 22.6732C9.04615 22.1053 9.03604 21.536 8.96389 20.9761C9.52828 20.9839 10.0954 20.9338 10.6469 20.7531C12.3945 20.1806 13.7104 18.7127 14.0892 16.9112C14.2096 16.3425 14.1971 15.774 14.1274 15.2133C14.6917 15.2211 15.2564 15.1718 15.8079 14.9911C17.558 14.4178 18.8739 12.9499 19.2527 11.1484C19.3723 10.5773 19.3597 10.0087 19.2892 9.44556C19.8544 9.45583 20.4223 9.40819 20.9763 9.22671C21.8361 8.94406 22.6064 8.44018 23.2098 7.76565C23.8133 7.09113 24.2287 6.2697 24.4142 5.38387C24.5998 4.49803 24.5491 3.57896 24.2671 2.71894C23.9851 1.85893 23.4818 1.08824 22.8077 0.484267C22.6331 0.323135 22.4173 0.213384 22.1842 0.167129C21.9512 0.120875 21.7098 0.139915 21.4869 0.222146Z" fill="#FD961E"/>
</svg>
