<svg width="30" height="20" viewBox="0 0 30 20" fill="none" xmlns="http://www.w3.org/2000/svg">
<path d="M28.0427 0.000872729C27.8191 0.00949767 27.6016 0.0761591 27.4115 0.194308C27.2215 0.312456 27.0655 0.478025 26.9588 0.674738C26.8521 0.871452 26.7984 1.09254 26.8031 1.31627C26.8077 1.54 26.8705 1.75868 26.9852 1.9508C27.2132 2.34245 27.3337 2.78732 27.3346 3.24047C27.3355 3.69361 27.2167 4.13897 26.9904 4.53152C26.764 4.92407 26.438 5.24991 26.0454 5.4761C25.6527 5.70229 25.2073 5.82082 24.7541 5.81971C24.301 5.82015 23.8557 5.70118 23.4631 5.47478C23.0705 5.24838 22.7445 4.92254 22.5179 4.53007C22.4228 4.35975 22.2903 4.21323 22.1303 4.10154C21.9704 3.98985 21.7872 3.9159 21.5945 3.88526C21.5118 3.87198 21.428 3.8668 21.3443 3.86978H21.3392H21.3289C21.2028 3.87737 21.0785 3.90344 20.96 3.94716C20.8794 3.97383 20.8017 4.00838 20.7279 4.05033C20.6924 4.07271 20.6579 4.09681 20.6247 4.12255C20.589 4.14744 20.5546 4.17413 20.5216 4.20251C20.4918 4.23121 20.4633 4.26134 20.4364 4.29278L20.4313 4.29794C20.2481 4.50305 20.1353 4.76135 20.1093 5.03512C20.0833 5.30889 20.1455 5.5838 20.2868 5.81971C20.5149 6.21154 20.6354 6.65666 20.6362 7.11002C20.637 7.56339 20.518 8.00892 20.2914 8.40155C20.0647 8.79418 19.7383 9.11997 19.3453 9.34598C18.9523 9.57199 18.5066 9.69018 18.0532 9.68862C17.6 9.68906 17.1547 9.57009 16.7621 9.34369C16.3696 9.11729 16.0436 8.79145 15.817 8.39898C15.7322 8.24891 15.6182 8.11735 15.4817 8.01209C15.4486 7.98459 15.4142 7.95877 15.3785 7.93471H15.3733C15.1911 7.82098 14.9834 7.75458 14.769 7.74152C14.5546 7.72845 14.3403 7.76915 14.1456 7.85991L14.1404 7.86507C14.1026 7.88134 14.0656 7.89942 14.0295 7.91923C13.9931 7.94154 13.9578 7.96564 13.9238 7.99145C13.8881 8.01635 13.8536 8.04303 13.8206 8.07141C13.7917 8.10018 13.7641 8.13031 13.7381 8.16169L13.7329 8.16685C13.5593 8.3598 13.448 8.60064 13.4135 8.85787C13.379 9.11511 13.4229 9.37678 13.5395 9.60866C13.5523 9.63578 13.5661 9.66245 13.5807 9.68862C13.8087 10.0803 13.9292 10.5251 13.9301 10.9783C13.931 11.4314 13.8123 11.8768 13.5859 12.2693C13.3595 12.6619 13.0335 12.9877 12.6409 13.2139C12.2482 13.4401 11.8028 13.5586 11.3497 13.5575C10.8972 13.5578 10.4527 13.4388 10.0609 13.2123C9.6692 12.9859 9.34415 12.6601 9.11859 12.2679C9.0346 12.1168 8.92109 11.9841 8.7848 11.8777C8.64851 11.7714 8.49222 11.6935 8.32523 11.6488C8.15825 11.604 7.98397 11.5933 7.81275 11.6172C7.64154 11.6412 7.47688 11.6993 7.32858 11.7881C7.29303 11.8105 7.2586 11.8346 7.2254 11.8604C7.18969 11.8853 7.15526 11.9119 7.12224 11.9403C7.09244 11.969 7.06403 11.9992 7.03712 12.0306L7.03197 12.0358C6.84758 12.24 6.73334 12.4979 6.70596 12.7716C6.67858 13.0454 6.73949 13.3208 6.87979 13.5575C7.10772 13.9492 7.22823 14.394 7.22913 14.8472C7.23004 15.3003 7.1113 15.7457 6.88493 16.1382C6.65856 16.5308 6.33258 16.8566 5.93992 17.0828C5.54727 17.309 5.10186 17.4275 4.64872 17.4264C4.19554 17.4269 3.75024 17.3079 3.35766 17.0815C2.96508 16.8551 2.63908 16.5293 2.41249 16.1368C2.32847 15.9871 2.2154 15.8557 2.07992 15.7502C1.94443 15.6448 1.78926 15.5674 1.6235 15.5228C1.45774 15.4781 1.28472 15.4669 1.1146 15.49C0.944475 15.5131 0.780669 15.5698 0.632785 15.6571C0.486813 15.7434 0.359316 15.8578 0.257599 15.9935C0.155882 16.1293 0.0819444 16.2837 0.0400162 16.4481C-0.00191207 16.6125 -0.0109997 16.7835 0.0132635 16.9514C0.0375267 17.1192 0.094665 17.2807 0.181414 17.4264C0.63559 18.2092 1.28742 18.859 2.07165 19.3106C2.85589 19.7623 3.74501 20 4.65001 20C5.555 20 6.44412 19.7623 7.22836 19.3106C8.01259 18.859 8.66442 18.2092 9.11859 17.4264C9.40747 16.9235 9.57512 16.3792 9.68087 15.8247C10.2148 16.0078 10.7693 16.1368 11.3497 16.1368C13.1887 16.1368 14.8962 15.1515 15.817 13.5575C16.1084 13.0546 16.2735 12.5103 16.3818 11.9558C16.9157 12.1389 17.4677 12.2679 18.048 12.2679C19.8896 12.2679 21.5971 11.2826 22.5179 9.68862C22.8094 9.18308 22.9744 8.63886 23.0828 8.08173C23.6167 8.26744 24.1712 8.39898 24.7541 8.39898C25.6592 8.39805 26.5481 8.15902 27.3316 7.70589C28.115 7.25275 28.7655 6.60146 29.2176 5.81742C29.6697 5.03338 29.9076 4.14418 29.9074 3.23912C29.9072 2.33405 29.6688 1.44497 29.2163 0.661165C29.1005 0.453671 28.9296 0.282203 28.7225 0.165686C28.5154 0.0491685 28.2802 -0.00786655 28.0427 0.000872729Z" fill="#46AF4E"/>
</svg>
