<svg width="23" height="29" viewBox="0 0 23 29" fill="none" xmlns="http://www.w3.org/2000/svg">
<path d="M3.63364 28.7243C3.83303 28.6227 4.00257 28.471 4.12556 28.284C4.24856 28.0971 4.32078 27.8814 4.33515 27.658C4.34952 27.4347 4.30554 27.2115 4.20752 27.0103C4.1095 26.8092 3.96081 26.637 3.77609 26.5107C3.40494 26.2507 3.109 25.8973 2.91818 25.4863C2.72735 25.0753 2.64841 24.6212 2.68932 24.1699C2.73024 23.7186 2.88956 23.2861 3.15119 22.9161C3.41282 22.5462 3.76748 22.2518 4.17933 22.0628C4.59057 21.8724 5.04472 21.7937 5.49605 21.8346C5.94738 21.8755 6.37996 22.0346 6.75023 22.2959C6.908 22.4107 7.08975 22.4881 7.28179 22.5225C7.47382 22.5568 7.67114 22.5471 7.85889 22.4942C7.93953 22.4715 8.01777 22.4411 8.09251 22.4033L8.0972 22.4011L8.10656 22.3968C8.21783 22.3371 8.31972 22.2613 8.40897 22.1719C8.47095 22.1139 8.52705 22.0499 8.57645 21.9809C8.59934 21.9457 8.62049 21.9094 8.63984 21.8721C8.66183 21.8345 8.68189 21.7959 8.69997 21.7562C8.71499 21.7177 8.72814 21.6784 8.73939 21.6386L8.74191 21.6318C8.8222 21.3687 8.81632 21.0869 8.72512 20.8275C8.63392 20.5681 8.46217 20.3446 8.23496 20.1897C7.86363 19.9296 7.56759 19.576 7.37677 19.1647C7.18596 18.7535 7.10714 18.2991 7.1483 17.8476C7.18946 17.3961 7.34913 16.9635 7.61116 16.5936C7.8732 16.2236 8.2283 15.9294 8.64054 15.7407C9.05178 15.5503 9.50593 15.4716 9.95726 15.5125C10.4086 15.5534 10.8412 15.7126 11.2114 15.9739C11.3513 16.0745 11.51 16.1462 11.6781 16.1845C11.7196 16.1956 11.7617 16.2046 11.8042 16.2115L11.8089 16.2093C12.022 16.2362 12.2384 16.2093 12.4385 16.1313C12.6387 16.0533 12.8161 15.9265 12.9548 15.7624L12.9573 15.7556C12.9849 15.725 13.0109 15.693 13.0353 15.6599C13.059 15.6244 13.081 15.5877 13.101 15.55C13.123 15.5124 13.1431 15.4738 13.1612 15.4342C13.1754 15.3959 13.1877 15.357 13.1983 15.3176L13.2008 15.3108C13.2775 15.0628 13.2775 14.7975 13.201 14.5495C13.1245 14.3015 12.9749 14.0823 12.7718 13.9207C12.7488 13.9014 12.7252 13.883 12.7009 13.8654C12.3297 13.6054 12.0338 13.2521 11.8429 12.8411C11.6521 12.4301 11.5732 11.976 11.6141 11.5247C11.655 11.0734 11.8143 10.6409 12.076 10.2709C12.3376 9.9009 12.6922 9.60654 13.1041 9.41754C13.5147 9.22753 13.9682 9.14923 14.4188 9.19055C14.8694 9.23186 15.3011 9.39133 15.6703 9.65285C15.8099 9.75481 15.9686 9.82767 16.1369 9.86708C16.3053 9.90649 16.4798 9.91166 16.6502 9.88227C16.8205 9.85289 16.9832 9.78954 17.1286 9.69601C17.274 9.60248 17.3991 9.48068 17.4965 9.33783C17.5194 9.30261 17.5406 9.26629 17.5599 9.22901C17.5819 9.19143 17.602 9.15277 17.62 9.11316C17.6351 9.0746 17.6482 9.03533 17.6595 8.99551L17.662 8.98867C17.7437 8.72593 17.7393 8.44394 17.6494 8.18389C17.5594 7.92385 17.3887 7.69939 17.1621 7.54332C16.7909 7.28334 16.495 6.92999 16.3041 6.51898C16.1133 6.10798 16.0344 5.65388 16.0753 5.20258C16.1162 4.75129 16.2755 4.31879 16.5372 3.9488C16.7988 3.57882 17.1534 3.28445 17.5653 3.09546C17.9765 2.90503 18.4307 2.82632 18.882 2.86725C19.3333 2.90818 19.7659 3.06731 20.1362 3.3286C20.2752 3.42929 20.433 3.5012 20.6002 3.54011C20.7674 3.57903 20.9407 3.58417 21.11 3.55523C21.2792 3.5263 21.4409 3.46386 21.5857 3.37159C21.7305 3.27932 21.8554 3.15908 21.9531 3.0179C22.0494 2.87827 22.1172 2.721 22.1526 2.55512C22.188 2.38924 22.1904 2.218 22.1595 2.05121C22.1287 1.88441 22.0652 1.72535 21.9728 1.58311C21.8804 1.44088 21.7608 1.31827 21.6209 1.22232C20.8804 0.702106 20.0162 0.385554 19.1148 0.304346C18.2135 0.223139 17.3066 0.380125 16.485 0.75959C15.6634 1.13905 14.9559 1.72769 14.4333 2.46655C13.9108 3.20542 13.5914 4.06859 13.5073 4.96967C13.456 5.54741 13.532 6.11178 13.6685 6.65956C13.107 6.71718 12.5495 6.83262 12.0226 7.07596C10.353 7.84706 9.21605 9.45749 9.04846 11.2907C8.99476 11.8695 9.07308 12.4328 9.20726 12.9817C8.64576 13.0393 8.09059 13.1536 7.56373 13.397C5.89184 14.1691 4.75484 15.7796 4.58726 17.6128C4.53463 18.1939 4.61296 18.7572 4.74821 19.3084C4.18564 19.3637 3.62704 19.4768 3.09784 19.7212C2.27657 20.1015 1.56981 20.6913 1.04855 21.4311C0.527287 22.171 0.209859 23.035 0.128143 23.9364C0.0464256 24.8378 0.203295 25.7448 0.582998 26.5663C0.962703 27.3879 1.55188 28.0951 2.29137 28.6169C2.4835 28.7568 2.71052 28.8408 2.94738 28.8597C3.18424 28.8787 3.42173 28.8318 3.63364 28.7243Z" fill="#FD961E"/>
</svg>
