<svg width="50" height="50" viewBox="0 0 50 50" fill="none" xmlns="http://www.w3.org/2000/svg">
<path d="M24.9998 27.9167L31.0415 33.9584C31.4235 34.3404 31.9096 34.5313 32.4998 34.5313C33.0901 34.5313 33.5762 34.3404 33.9582 33.9584C34.3401 33.5765 34.5311 33.0904 34.5311 32.5001C34.5311 31.9098 34.3401 31.4237 33.9582 31.0417L27.9165 25.0001L33.9582 18.9584C34.3401 18.5765 34.5311 18.0904 34.5311 17.5001C34.5311 16.9098 34.3401 16.4237 33.9582 16.0417C33.5762 15.6598 33.0901 15.4688 32.4998 15.4688C31.9096 15.4688 31.4235 15.6598 31.0415 16.0417L24.9998 22.0834L18.9582 16.0417C18.5762 15.6598 18.0901 15.4688 17.4998 15.4688C16.9096 15.4688 16.4234 15.6598 16.0415 16.0417C15.6596 16.4237 15.4686 16.9098 15.4686 17.5001C15.4686 18.0904 15.6596 18.5765 16.0415 18.9584L22.0832 25.0001L16.0415 31.0417C15.6596 31.4237 15.4686 31.9098 15.4686 32.5001C15.4686 33.0904 15.6596 33.5765 16.0415 33.9584C16.4234 34.3404 16.9096 34.5313 17.4998 34.5313C18.0901 34.5313 18.5762 34.3404 18.9582 33.9584L24.9998 27.9167ZM24.9998 45.8334C22.1179 45.8334 19.4096 45.2865 16.8748 44.1928C14.3401 43.099 12.1353 41.6147 10.2603 39.7397C8.38525 37.8647 6.90088 35.6598 5.80713 33.1251C4.71338 30.5904 4.1665 27.882 4.1665 25.0001C4.1665 22.1181 4.71338 19.4098 5.80713 16.8751C6.90088 14.3404 8.38525 12.1355 10.2603 10.2605C12.1353 8.3855 14.3401 6.90112 16.8748 5.80737C19.4096 4.71362 22.1179 4.16675 24.9998 4.16675C27.8818 4.16675 30.5901 4.71362 33.1248 5.80737C35.6596 6.90112 37.8644 8.3855 39.7394 10.2605C41.6144 12.1355 43.0988 14.3404 44.1925 16.8751C45.2863 19.4098 45.8332 22.1181 45.8332 25.0001C45.8332 27.882 45.2863 30.5904 44.1925 33.1251C43.0988 35.6598 41.6144 37.8647 39.7394 39.7397C37.8644 41.6147 35.6596 43.099 33.1248 44.1928C30.5901 45.2865 27.8818 45.8334 24.9998 45.8334ZM24.9998 41.6667C29.6526 41.6667 33.5936 40.0522 36.8228 36.823C40.0519 33.5938 41.6665 29.6529 41.6665 25.0001C41.6665 20.3473 40.0519 16.4063 36.8228 13.1772C33.5936 9.948 29.6526 8.33342 24.9998 8.33342C20.3471 8.33342 16.4061 9.948 13.1769 13.1772C9.94775 16.4063 8.33317 20.3473 8.33317 25.0001C8.33317 29.6529 9.94775 33.5938 13.1769 36.823C16.4061 40.0522 20.3471 41.6667 24.9998 41.6667Z" fill="white"/>
</svg>
