<svg width="235" height="412" viewBox="0 0 235 412" fill="none" xmlns="http://www.w3.org/2000/svg">
<path d="M17.2228 18H24.9928L30.0328 56.01H30.1728L35.2128 18H42.2828L34.8628 67H24.6428L17.2228 18ZM56.9489 18H67.3789L75.3589 67H67.6589L66.2589 57.27V57.41H57.5089L56.1089 67H48.9689L56.9489 18ZM65.3489 50.76L61.9189 26.54H61.7789L58.4189 50.76H65.3489ZM89.9517 46.14L80.6417 18H88.8317L94.0817 35.99H94.2217L99.4717 18H106.962L97.6517 46.14V67H89.9517V46.14ZM120.168 18H130.598L138.578 67H130.878L129.478 57.27V57.41H120.728L119.328 67H112.188L120.168 18ZM128.568 50.76L125.138 26.54H124.998L121.638 50.76H128.568ZM149.313 18H157.013V60H169.683V67H149.313V18ZM177.769 25.42H175.249V18H182.669V24.65L178.399 33.82H174.829L177.769 25.42ZM205.452 67.7C201.719 67.7 198.896 66.65 196.982 64.55C195.069 62.4033 194.112 59.3467 194.112 55.38V52.58H201.392V55.94C201.392 59.1133 202.722 60.7 205.382 60.7C206.689 60.7 207.669 60.3267 208.322 59.58C209.022 58.7867 209.372 57.5267 209.372 55.8C209.372 53.7467 208.906 51.95 207.972 50.41C207.039 48.8233 205.312 46.9333 202.792 44.74C199.619 41.94 197.402 39.42 196.142 37.18C194.882 34.8933 194.252 32.3267 194.252 29.48C194.252 25.6067 195.232 22.62 197.192 20.52C199.152 18.3733 201.999 17.3 205.732 17.3C209.419 17.3 212.196 18.3733 214.062 20.52C215.976 22.62 216.932 25.6533 216.932 29.62V31.65H209.652V29.13C209.652 27.45 209.326 26.2367 208.672 25.49C208.019 24.6967 207.062 24.3 205.802 24.3C203.236 24.3 201.952 25.8633 201.952 28.99C201.952 30.7633 202.419 32.42 203.352 33.96C204.332 35.5 206.082 37.3667 208.602 39.56C211.822 42.36 214.039 44.9033 215.252 47.19C216.466 49.4767 217.072 52.16 217.072 55.24C217.072 59.2533 216.069 62.3333 214.062 64.48C212.102 66.6267 209.232 67.7 205.452 67.7ZM9.78504 109H17.485V129.65L27.285 109H34.985L25.815 126.99L35.125 158H27.075L20.565 136.16L17.485 142.39V158H9.78504V109ZM45.7694 109H53.4694V158H45.7694V109ZM72.2562 116H64.2062V109H88.0062V116H79.9562V158H72.2562V116ZM109.311 158.7C105.624 158.7 102.801 157.65 100.841 155.55C98.9275 153.45 97.9708 150.487 97.9708 146.66V120.34C97.9708 116.513 98.9275 113.55 100.841 111.45C102.801 109.35 105.624 108.3 109.311 108.3C112.997 108.3 115.797 109.35 117.711 111.45C119.671 113.55 120.651 116.513 120.651 120.34V125.52H113.371V119.85C113.371 116.817 112.087 115.3 109.521 115.3C106.954 115.3 105.671 116.817 105.671 119.85V147.22C105.671 150.207 106.954 151.7 109.521 151.7C112.087 151.7 113.371 150.207 113.371 147.22V139.73H120.651V146.66C120.651 150.487 119.671 153.45 117.711 155.55C115.797 157.65 112.997 158.7 109.311 158.7ZM132.258 109H139.958V128.95H148.218V109H155.918V158H148.218V135.95H139.958V158H132.258V109ZM168.652 109H189.652V116H176.352V128.95H186.922V135.95H176.352V151H189.652V158H168.652V109ZM201.082 109H210.742L218.232 138.33H218.372V109H225.232V158H217.322L208.082 122.23H207.942V158H201.082V109Z" fill="white"/>
<g clip-path="url(#clip0_48_9015)">
<path d="M104.007 229.669C100.635 229.828 97.3345 228.657 94.8165 226.408C92.5031 224.235 91.3464 220.818 91.3464 216.155C91.3464 210.597 93.0287 206.358 96.3934 203.438C99.758 200.518 104.328 199.059 110.102 199.059C113.44 198.98 116.755 199.62 119.824 200.934C122.415 202.05 124.611 203.918 126.128 206.296C127.64 208.82 128.4 211.724 128.319 214.665C128.342 216.989 127.933 219.297 127.111 221.471C126.407 223.407 125.264 225.153 123.773 226.574H136.914L136.974 203.653C137.034 202.502 136.908 201.348 136.6 200.236C137.167 200.074 137.748 199.965 138.335 199.912C138.929 199.846 139.525 199.81 140.122 199.804C142.472 199.804 143.647 200.838 143.648 202.906L143.588 228.92H115.498V227.152C117.413 225.933 118.918 224.168 119.818 222.084C120.934 219.602 121.484 216.902 121.428 214.18C121.428 210.365 120.456 207.318 118.511 205.037C116.567 202.757 113.444 201.62 109.143 201.626C105.319 201.497 101.575 202.739 98.5867 205.127C95.7589 207.46 94.345 211.26 94.345 216.528C94.345 219.803 94.9209 222.34 96.0729 224.139C96.5422 224.955 97.1768 225.664 97.9361 226.22C98.6954 226.776 99.5626 227.168 100.482 227.369C98.8442 225.766 98.026 223.327 98.0274 220.053C98.0274 217.095 98.7116 214.815 100.08 213.215C100.83 212.393 101.755 211.751 102.787 211.335C103.818 210.919 104.93 210.74 106.04 210.812C107.241 210.734 108.443 210.929 109.557 211.383C110.671 211.837 111.667 212.539 112.47 213.434C114.003 215.333 114.791 217.724 114.689 220.161C114.689 223.547 113.684 226.006 111.674 227.537C109.448 229.124 106.734 229.879 104.007 229.669ZM104.332 227.371C104.875 227.405 105.416 227.267 105.876 226.976C106.336 226.685 106.692 226.256 106.895 225.751C107.603 224.07 107.916 222.249 107.808 220.428C107.872 218.738 107.598 217.052 107.003 215.469C106.83 214.923 106.489 214.447 106.027 214.11C105.565 213.772 105.008 213.591 104.436 213.593C103.844 213.603 103.269 213.792 102.787 214.136C102.305 214.479 101.938 214.961 101.735 215.517C101.043 217.152 100.725 218.92 100.802 220.693C100.714 222.416 101.023 224.136 101.706 225.721C101.913 226.238 102.279 226.677 102.751 226.973C103.224 227.27 103.778 227.409 104.334 227.37L104.332 227.371Z" fill="#46AF4E"/>
<mask id="mask0_48_9015" style="mask-type:luminance" maskUnits="userSpaceOnUse" x="0" y="177" width="235" height="235">
<path d="M235 177H0V412H235V177Z" fill="white"/>
</mask>
<g mask="url(#mask0_48_9015)">
<path d="M172.315 391.399C167.383 393.888 156.631 398.736 156.631 398.736C156.276 398.867 155.926 399.003 155.571 399.135C146.152 402.556 136.314 404.685 126.323 405.463C126.323 374.465 110.639 374.465 110.639 405.599C100.441 404.989 90.3767 402.972 80.7318 399.603C80.3851 399.498 80.0444 399.375 79.7112 399.233C66.3409 392.867 71.4441 396.95 64.0261 392.152C42.4021 380.311 25.3208 361.625 15.4623 339.027C5.60375 316.43 3.52572 291.199 9.55422 267.293C15.5827 243.386 29.3766 222.158 48.7719 206.938C68.1671 191.717 92.0662 183.366 116.72 183.195C141.373 183.023 165.386 191.041 184.991 205.99C204.596 220.939 218.684 241.974 225.045 265.794C231.405 289.614 229.678 314.871 220.135 337.604C210.592 360.336 193.772 379.258 172.315 391.399ZM225.763 248.764C217.622 229.443 204.463 212.65 187.649 200.125C170.835 187.601 150.978 179.8 130.135 177.531C109.292 175.262 88.2218 178.608 69.107 187.222C49.9923 195.836 33.5284 209.405 21.4213 226.522C9.31419 243.639 2.00425 263.682 0.248852 284.575C-1.50654 305.468 2.35647 326.45 11.4376 345.347C20.5188 364.245 34.4878 380.37 51.8973 392.053C69.3067 403.736 89.5234 410.551 110.453 411.792C112.769 411.932 115.141 411.996 117.495 411.996C120.501 411.996 123.551 411.881 126.557 411.653C145.125 410.208 163.085 404.372 178.955 394.626C194.826 384.88 208.155 371.502 217.842 355.595C227.53 339.689 233.3 321.708 234.677 303.134C236.055 284.56 232.999 265.925 225.763 248.764Z" fill="#FD961E"/>
<path d="M173.013 391.399V379.833C173.013 374.726 172.864 369.623 172.567 364.524C171.806 354.07 171.424 343.601 171.423 333.115C171.423 323.057 171.775 313.006 172.479 302.962C173.822 283.853 175.25 261.379 175.067 254.247C175.039 253.055 173.95 251.611 171.494 251.611C170.29 251.587 169.1 251.88 168.043 252.459C166.987 253.038 166.101 253.884 165.473 254.912C162.227 260.015 151.116 279.244 151.116 324.934C151.116 328.694 155.678 329.491 157.372 330.811C158.062 331.518 158.601 332.359 158.956 333.281C159.31 334.204 159.473 335.189 159.434 336.177L157.772 364.528C157.473 369.623 157.325 374.726 157.326 379.837V398.74C156.973 398.867 171.321 392.377 173.013 391.399Z" fill="#FD961E"/>
<path d="M79.3938 399.23V379.646C79.3938 374.539 79.2451 369.439 78.9477 364.345L76.4196 326.709C76.2566 323.894 76.8894 321.091 78.2456 318.619L83.165 311.576C83.165 311.576 94.5103 298.221 94.5103 285.743C94.5103 266.997 84.2326 251.802 71.5461 251.802C58.8597 251.802 48.582 266.997 48.582 285.743C48.582 298.222 59.9242 311.582 59.9242 311.582L64.8396 318.624C66.1975 321.095 66.8304 323.899 66.6655 326.714L64.1466 364.345C63.8513 369.436 63.7026 374.536 63.7006 379.646V392.152C65.6449 394.561 79.7326 399.353 79.3938 399.23Z" fill="#FD961E"/>
<path d="M126.362 405.465V379.57C126.362 374.467 126.213 369.366 125.916 364.268L123.394 321.062C123.23 318.248 123.863 315.444 125.22 312.973C125.22 312.973 131.548 305.9 131.934 300.745C132.716 285.141 129.688 252.313 128.157 251.874H126.803C124.966 252.189 128.394 291.607 125.304 291.607H124.347C121.772 291.607 124.212 251.7 122.147 251.874H120.679C119.671 251.874 121.118 291.607 119.236 291.607H117.807C115.32 291.607 117.372 251.874 116.36 251.874H114.896C112.835 251.698 115.275 291.607 112.7 291.607H111.744C108.65 291.607 112.078 252.189 110.24 251.874H108.877C107.354 252.313 104.328 285.141 105.11 300.745C105.344 303.337 107.019 306.395 108.638 308.803C109.614 310.256 110.677 311.648 111.819 312.974C113.178 315.444 113.813 318.248 113.649 321.063L111.121 364.269C110.826 369.364 110.678 374.465 110.678 379.571V405.597C100.452 404.983 136.382 404.68 126.362 405.465Z" fill="#46AF4E"/>
</g>
</g>
<defs>
<clipPath id="clip0_48_9015">
<rect width="235" height="235" fill="white" transform="translate(0 177)"/>
</clipPath>
</defs>
</svg>
