<svg width="287" height="300" viewBox="0 0 287 300" fill="none" xmlns="http://www.w3.org/2000/svg">
<path d="M122.66 171.674C119.662 162.943 114.169 155.277 106.864 149.616L88.8989 135.703C70.4553 121.413 59.2558 99.7472 58.2834 76.4674C58.2834 34.235 92.5948 0 134.924 0C177.253 0 211.564 34.235 211.564 76.4674C210.592 99.7472 199.393 121.413 180.949 135.703L162.984 149.616C155.679 155.277 150.186 162.943 147.187 171.674L145.075 177.823C143.588 182.15 139.511 185.052 134.924 185.052C130.337 185.052 126.26 182.15 124.773 177.823L122.66 171.674ZM134.924 136.115C168.787 136.115 196.236 108.727 196.236 74.9402C196.236 41.1532 168.787 13.7653 134.924 13.7653C101.061 13.7653 73.6115 41.1532 73.6115 74.9402C73.6115 108.727 101.061 136.115 134.924 136.115ZM123.755 69.6662L126.534 117.554C126.697 120.405 123.612 122.854 120.135 123.007C116.653 123.154 113.314 120.986 113.156 118.135C113.146 117.941 113.146 117.743 113.156 117.554L115.936 69.6662C111.023 68.5768 108.865 64.2039 108.865 58.9757V34.1026C108.865 33.0081 109.756 32.1172 110.86 32.1172C111.96 32.1172 112.851 33.0081 112.851 34.1026V54.3687C112.851 54.9236 113.299 55.3715 113.854 55.3715C114.408 55.3715 114.856 54.9236 114.856 54.3687V34.1026C114.856 33.003 115.747 32.1172 116.847 32.1172C117.946 32.1172 118.842 33.003 118.842 34.1026V54.3687C118.842 54.9236 119.29 55.3715 119.845 55.3715C120.4 55.3715 120.848 54.9236 120.848 54.3687V34.1026C120.848 33.0081 121.739 32.1172 122.839 32.1172C123.938 32.1172 124.829 33.003 124.829 34.1026V54.3687C124.829 54.9236 125.282 55.3715 125.832 55.3715C126.392 55.3715 126.84 54.9236 126.84 54.3687V34.1026C126.84 33.003 127.731 32.1172 128.83 32.1172C129.93 32.1172 130.821 33.003 130.821 34.1026V58.9757C130.821 64.2039 128.667 68.5768 123.755 69.6662ZM162.516 82.4286V116.699C162.516 120.186 159.359 123.012 155.465 123.012C151.565 123.012 148.409 120.186 148.409 116.699V85.2387L143.787 83.7216V50.235C143.787 40.2267 151.336 32.1172 162.516 32.1172V82.4286ZM157.786 222.285C157.847 222.311 157.903 222.341 157.959 222.372L214.558 252.178C217.067 253.502 219.256 255.181 221.104 257.121L278.405 242.037C281.999 241.09 285.685 243.234 286.632 246.817C287.579 250.401 285.436 254.077 281.841 255.019L227.514 269.323C228.689 274.888 227.997 280.879 225.126 286.306C220.6 294.858 211.58 300.081 201.892 299.756C191.624 299.409 183.581 290.827 183.927 280.584C184.207 272.393 189.832 265.358 197.774 263.266L203.776 261.687L151.677 234.243C146.185 240.424 137.871 245.677 131.238 247.265C118.028 250.406 107.76 249.383 85.6663 242.068C72.5272 237.705 59.9277 230.522 47.9697 221.242C40.5016 215.443 33.7106 209.162 27.5662 202.681C23.9212 198.838 17.2626 191.105 19.0596 193.09C15.7863 189.349 13.5922 186.605 10.6243 182.043C4.94311 173.318 1.18617 164.312 0.392023 155.277C-0.498848 145.08 1.56288 136.553 5.75253 129.176C6.6994 127.507 7.71245 125.974 8.84767 124.432C9.49928 123.546 11.3523 121.164 11.1385 121.444C14.5645 117.045 19.248 114.688 23.7634 114.291C28.6658 113.864 53.4422 141.084 56.8021 146.546C58.8791 149.916 59.5612 153.367 58.0645 157.277C57.7947 157.954 57.5198 158.611 57.2348 159.252C55.0356 164.226 50.4285 170.584 48.9573 172.386C61.9691 190.743 72.3643 197.753 97.7313 207.762C99.1923 208.352 98.673 208.464 99.0039 208.006C102.817 202.757 107.068 196.593 108.518 193.915C111.695 188.071 115.961 187.19 122.151 188.895C125.15 189.664 140.692 195.534 147.63 198.329C148.262 198.573 150.094 199.255 150.232 199.311C151.285 199.708 152.034 200.014 152.736 200.355C154.64 201.266 156.061 202.33 156.9 203.664C159.176 206.749 159.415 214.436 157.786 222.285ZM213.229 280.039C214.456 277.713 214.833 275.168 214.466 272.76L201.205 276.247C199.011 276.827 197.453 278.772 197.377 281.037C197.28 283.868 199.505 286.24 202.345 286.337C206.881 286.489 211.106 284.041 213.229 280.039Z" fill="white"/>
</svg>
