<svg width="564" height="564" viewBox="0 0 564 564" fill="none" xmlns="http://www.w3.org/2000/svg">
<mask id="mask0_476_91" style="mask-type:luminance" maskUnits="userSpaceOnUse" x="0" y="0" width="564" height="564">
<path d="M0.588623 0.588867H563.401V563.401H0.588623V0.588867Z" fill="white"/>
</mask>
<g mask="url(#mask0_476_91)">
<mask id="mask1_476_91" style="mask-type:luminance" maskUnits="userSpaceOnUse" x="0" y="0" width="564" height="564">
<path d="M281.995 0.588867C126.583 0.588867 0.588623 126.584 0.588623 281.995C0.588623 437.412 126.583 563.401 281.995 563.401C437.412 563.401 563.401 437.412 563.401 281.995C563.401 126.584 437.412 0.588867 281.995 0.588867Z" fill="white"/>
</mask>
<g mask="url(#mask1_476_91)">
<path d="M281.995 0.588867C126.583 0.588867 0.588623 126.584 0.588623 281.995C0.588623 437.412 126.583 563.401 281.995 563.401C437.412 563.401 563.401 437.412 563.401 281.995C563.401 126.584 437.412 0.588867 281.995 0.588867Z" stroke="#46AF4E" stroke-width="14"/>
</g>
</g>
<mask id="mask2_476_91" style="mask-type:luminance" maskUnits="userSpaceOnUse" x="70" y="70" width="423" height="423">
<path d="M70.9688 70.9688H492.969V492.969H70.9688V70.9688Z" fill="white"/>
</mask>
<g mask="url(#mask2_476_91)">
<path d="M380.484 456C371.625 460.469 352.339 469.167 352.339 469.167C351.703 469.402 351.073 469.646 350.438 469.881C333.458 476.053 315.964 479.834 297.953 481.24C297.953 425.615 269.807 425.615 269.807 481.48C251.417 480.381 233.526 476.797 216.135 470.724C215.516 470.537 214.906 470.313 214.313 470.058C190.318 458.636 199.474 465.964 186.161 457.355C182.958 455.599 179.802 453.756 176.698 451.829C173.594 449.901 170.547 447.886 167.552 445.792C164.557 443.698 161.625 441.521 158.75 439.261C155.875 437.006 153.063 434.672 150.318 432.261C147.573 429.849 144.896 427.365 142.286 424.808C139.677 422.25 137.135 419.625 134.672 416.928C132.203 414.23 129.818 411.464 127.5 408.636C125.188 405.808 122.953 402.917 120.797 399.969C118.641 397.016 116.568 394.011 114.578 390.943C112.589 387.881 110.682 384.761 108.865 381.594C107.047 378.422 105.313 375.209 103.672 371.943C102.026 368.678 100.474 365.37 99.0156 362.021C97.5521 358.672 96.1875 355.287 94.9115 351.86C93.6354 348.438 92.4531 344.98 91.3698 341.49C90.2813 338 89.2917 334.485 88.4011 330.943C87.5052 327.396 86.7136 323.834 86.0156 320.245C85.3177 316.657 84.7188 313.053 84.224 309.433C83.724 305.813 83.3229 302.183 83.0208 298.542C82.724 294.896 82.5208 291.25 82.4219 287.599C82.3229 283.943 82.3229 280.292 82.4219 276.641C82.5261 272.985 82.724 269.339 83.0261 265.698C83.3281 262.053 83.7292 258.422 84.2292 254.803C84.7292 251.183 85.3281 247.579 86.0261 243.995C86.724 240.407 87.5208 236.839 88.4115 233.297C89.3073 229.756 90.2969 226.24 91.3802 222.75C92.4688 219.261 93.6511 215.803 94.9271 212.381C96.2031 208.954 97.5729 205.568 99.0365 202.219C100.495 198.87 102.047 195.563 103.693 192.297C105.339 189.037 107.068 185.818 108.891 182.652C110.708 179.48 112.615 176.365 114.604 173.297C116.599 170.235 118.672 167.23 120.828 164.277C122.984 161.329 125.219 158.438 127.531 155.61C129.849 152.782 132.24 150.021 134.703 147.323C137.172 144.625 139.708 142 142.318 139.443C144.932 136.886 147.609 134.401 150.354 131.99C153.104 129.584 155.911 127.25 158.786 124.99C161.661 122.735 164.599 120.563 167.594 118.464C170.583 116.37 173.635 114.36 176.74 112.433C179.844 110.506 183 108.662 186.203 106.907C189.411 105.157 192.661 103.49 195.958 101.912C199.255 100.339 202.594 98.8546 205.974 97.4588C209.349 96.0682 212.766 94.7661 216.214 93.563C219.667 92.3546 223.146 91.2452 226.656 90.2348C230.167 89.2192 233.703 88.3025 237.266 87.4796C240.823 86.6619 244.406 85.938 248.005 85.313C251.609 84.688 255.224 84.1671 258.854 83.74C262.479 83.313 266.12 82.99 269.766 82.7609C273.417 82.5369 277.068 82.4119 280.719 82.3859C284.375 82.3598 288.026 82.438 291.677 82.6098C295.328 82.7869 298.969 83.063 302.604 83.438C306.24 83.813 309.859 84.2869 313.469 84.8598C317.078 85.4327 320.672 86.1046 324.245 86.8755C327.813 87.6463 331.365 88.5161 334.885 89.4796C338.411 90.4432 341.906 91.5057 345.375 92.6619C348.839 93.8234 352.271 95.0734 355.672 96.4171C359.068 97.7661 362.427 99.2036 365.745 100.73C369.063 102.261 372.339 103.881 375.568 105.589C378.797 107.303 381.979 109.099 385.109 110.98C388.24 112.865 391.318 114.834 394.339 116.886C397.365 118.943 400.328 121.073 403.234 123.292C406.141 125.506 408.984 127.803 411.76 130.172C414.542 132.542 417.255 134.99 419.901 137.511C422.547 140.032 425.12 142.625 427.625 145.287C430.13 147.948 432.557 150.678 434.911 153.469C437.266 156.266 439.542 159.125 441.74 162.042C443.938 164.964 446.052 167.943 448.083 170.98C450.12 174.016 452.068 177.105 453.932 180.25C455.797 183.391 457.573 186.584 459.26 189.823C460.948 193.063 462.547 196.349 464.057 199.678C465.563 203.006 466.979 206.375 468.302 209.782C469.63 213.188 470.859 216.625 471.995 220.099C473.125 223.573 474.167 227.073 475.109 230.605C476.052 234.136 476.896 237.693 477.646 241.266C478.391 244.844 479.042 248.438 479.594 252.053C480.141 255.667 480.594 259.292 480.943 262.928C481.297 266.563 481.547 270.209 481.698 273.86C481.849 277.511 481.901 281.162 481.854 284.818C481.807 288.474 481.656 292.12 481.406 295.766C481.156 299.412 480.807 303.053 480.359 306.678C479.911 310.303 479.365 313.917 478.714 317.511C478.068 321.11 477.323 324.683 476.479 328.24C475.635 331.797 474.698 335.329 473.661 338.829C472.625 342.334 471.49 345.808 470.26 349.25C469.036 352.693 467.714 356.099 466.297 359.469C464.885 362.834 463.38 366.162 461.781 369.454C460.182 372.74 458.5 375.98 456.724 379.172C454.948 382.365 453.089 385.511 451.141 388.605C449.193 391.693 447.161 394.73 445.047 397.714C442.932 400.693 440.74 403.615 438.464 406.474C436.188 409.334 433.839 412.131 431.411 414.86C428.984 417.594 426.479 420.256 423.906 422.849C421.333 425.443 418.693 427.964 415.979 430.412C413.266 432.86 410.49 435.235 407.646 437.532C404.802 439.829 401.901 442.042 398.938 444.183C395.969 446.318 392.948 448.375 389.875 450.344C386.797 452.318 383.667 454.204 380.484 456ZM476.396 200.042C475.188 197.167 473.911 194.323 472.573 191.506C471.24 188.693 469.839 185.907 468.38 183.152C466.922 180.396 465.401 177.678 463.818 174.99C462.24 172.303 460.599 169.652 458.901 167.037C457.203 164.422 455.448 161.849 453.635 159.313C451.823 156.777 449.958 154.282 448.031 151.829C446.109 149.375 444.135 146.964 442.104 144.599C440.073 142.23 437.995 139.912 435.859 137.636C433.729 135.365 431.547 133.141 429.318 130.964C427.083 128.782 424.807 126.657 422.479 124.584C420.156 122.506 417.786 120.48 415.37 118.511C412.953 116.542 410.5 114.625 408 112.761C405.5 110.896 402.958 109.094 400.38 107.344C397.797 105.594 395.182 103.901 392.526 102.266C389.87 100.636 387.182 99.063 384.453 97.5473C381.729 96.0317 378.974 94.5786 376.182 93.188C373.396 91.7921 370.578 90.464 367.729 89.1984C364.88 87.9327 362.005 86.7296 359.104 85.589C356.203 84.4484 353.276 83.3702 350.328 82.3598C347.38 81.3546 344.406 80.4067 341.417 79.5317C338.427 78.6515 335.417 77.839 332.391 77.0942C329.365 76.3494 326.323 75.6723 323.266 75.063C320.208 74.4484 317.141 73.9067 314.057 73.4327C310.979 72.9588 307.885 72.5525 304.786 72.2192C301.688 71.8807 298.583 71.6098 295.474 71.4119C292.359 71.214 289.25 71.0786 286.13 71.0213C283.016 70.9588 279.896 70.964 276.781 71.0421C273.667 71.1202 270.552 71.2661 267.443 71.4796C264.333 71.6932 261.229 71.9744 258.13 72.3286C255.031 72.6775 251.948 73.0994 248.865 73.589C245.786 74.0786 242.724 74.6359 239.667 75.2609C236.615 75.8859 233.573 76.5786 230.552 77.3338C227.526 78.0942 224.521 78.9223 221.536 79.813C218.547 80.7088 215.583 81.6671 212.641 82.688C209.693 83.714 206.776 84.8025 203.88 85.9588C200.984 87.1098 198.115 88.3286 195.271 89.6098C192.432 90.8911 189.62 92.2296 186.833 93.6359C184.052 95.0421 181.302 96.5109 178.583 98.0369C175.865 99.563 173.182 101.151 170.536 102.797C167.891 104.443 165.281 106.146 162.708 107.907C160.135 109.672 157.604 111.49 155.115 113.36C152.625 115.235 150.177 117.167 147.771 119.146C145.365 121.131 143.005 123.167 140.688 125.25C138.375 127.339 136.104 129.474 133.885 131.662C131.661 133.855 129.49 136.089 127.37 138.37C125.25 140.657 123.177 142.985 121.161 145.36C119.141 147.735 117.177 150.157 115.266 152.62C113.354 155.084 111.5 157.584 109.698 160.131C107.901 162.678 106.156 165.261 104.469 167.881C102.786 170.506 101.156 173.162 99.5886 175.855C98.0208 178.553 96.5156 181.277 95.0677 184.042C93.6198 186.803 92.2344 189.594 90.9115 192.417C89.5886 195.24 88.3281 198.089 87.1354 200.969C85.9375 203.844 84.8021 206.75 83.7344 209.678C82.6667 212.605 81.6667 215.558 80.7292 218.532C79.7917 221.506 78.9219 224.495 78.1146 227.506C77.3125 230.521 76.5729 233.547 75.9011 236.594C75.2292 239.636 74.6302 242.693 74.0938 245.766C73.5573 248.834 73.0938 251.917 72.6927 255.011C72.2969 258.099 71.9636 261.198 71.7031 264.308C71.4427 267.412 71.25 270.521 71.1302 273.641C71.0052 276.756 70.9531 279.87 70.9688 282.985C70.9792 286.105 71.0677 289.219 71.2188 292.334C71.3698 295.448 71.5938 298.558 71.8854 301.657C72.1771 304.761 72.5365 307.86 72.9636 310.948C73.3906 314.032 73.8854 317.11 74.4531 320.178C75.0156 323.245 75.6458 326.292 76.349 329.334C77.0469 332.37 77.8125 335.391 78.6458 338.396C79.4792 341.396 80.3802 344.381 81.349 347.344C82.3125 350.308 83.3438 353.25 84.4375 356.167C85.5365 359.089 86.6979 361.98 87.9219 364.849C89.1458 367.714 90.4323 370.553 91.7813 373.36C93.1354 376.172 94.5469 378.948 96.0208 381.698C97.4896 384.443 99.0261 387.157 100.62 389.839C102.214 392.516 103.865 395.157 105.578 397.766C107.286 400.37 109.052 402.938 110.88 405.464C112.703 407.99 114.583 410.48 116.516 412.922C118.453 415.365 120.438 417.766 122.479 420.125C124.521 422.48 126.615 424.787 128.76 427.053C130.901 429.318 133.094 431.532 135.333 433.698C137.578 435.865 139.865 437.98 142.203 440.042C144.536 442.11 146.917 444.12 149.344 446.079C151.766 448.042 154.234 449.943 156.74 451.792C159.25 453.646 161.802 455.438 164.391 457.178C166.979 458.912 169.604 460.589 172.266 462.214C174.927 463.834 177.625 465.391 180.359 466.896C183.089 468.396 185.854 469.834 188.651 471.214C191.448 472.594 194.271 473.907 197.125 475.162C199.979 476.417 202.859 477.605 205.766 478.73C208.672 479.855 211.604 480.917 214.557 481.912C217.51 482.907 220.49 483.839 223.484 484.704C226.479 485.568 229.49 486.365 232.521 487.094C235.552 487.823 238.599 488.485 241.656 489.084C244.719 489.678 247.786 490.204 250.87 490.662C253.953 491.125 257.047 491.516 260.146 491.839C263.25 492.157 266.354 492.412 269.469 492.599C273.625 492.849 277.88 492.964 282.104 492.964C287.5 492.964 292.974 492.756 298.365 492.349C302.516 492.027 306.646 491.579 310.766 491.011C314.891 490.448 318.99 489.756 323.068 488.948C327.146 488.136 331.203 487.209 335.224 486.157C339.25 485.11 343.24 483.943 347.198 482.657C351.151 481.37 355.068 479.969 358.943 478.454C362.813 476.938 366.635 475.308 370.417 473.563C374.193 471.818 377.911 469.964 381.578 468C385.245 466.037 388.854 463.969 392.396 461.792C395.943 459.615 399.417 457.339 402.828 454.954C406.24 452.573 409.573 450.089 412.839 447.511C416.099 444.933 419.286 442.256 422.391 439.49C425.495 436.724 428.516 433.865 431.448 430.917C434.385 427.969 437.234 424.943 439.99 421.829C442.745 418.709 445.406 415.516 447.974 412.245C450.542 408.974 453.01 405.625 455.38 402.209C457.75 398.792 460.016 395.308 462.182 391.75C464.344 388.198 466.401 384.589 468.349 380.912C470.302 377.24 472.141 373.511 473.87 369.73C475.599 365.943 477.214 362.115 478.719 358.235C480.224 354.355 481.609 350.438 482.88 346.474C484.151 342.516 485.302 338.521 486.339 334.495C487.375 330.464 488.286 326.407 489.083 322.323C489.875 318.24 490.552 314.141 491.104 310.016C491.656 305.896 492.083 301.761 492.391 297.61C492.698 293.464 492.885 289.308 492.948 285.151C493.01 280.99 492.948 276.834 492.766 272.678C492.578 268.521 492.271 264.375 491.844 260.24C491.417 256.105 490.865 251.98 490.193 247.875C489.516 243.771 488.724 239.693 487.807 235.631C486.896 231.573 485.859 227.547 484.708 223.553C483.557 219.553 482.286 215.594 480.901 211.672C479.516 207.75 478.01 203.875 476.396 200.042Z" fill="#FD961E"/>
</g>
<path d="M381.734 456V435.245C381.734 426.083 381.469 416.922 380.938 407.776C379.568 389.016 378.885 370.224 378.885 351.406C378.885 333.354 379.516 315.323 380.776 297.297C383.188 263 385.75 222.677 385.417 209.875C385.37 207.74 383.411 205.146 379.005 205.146C377.927 205.125 376.859 205.245 375.813 205.5C374.76 205.76 373.76 206.146 372.813 206.667C371.865 207.188 371 207.818 370.219 208.568C369.438 209.313 368.766 210.146 368.203 211.068C362.375 220.229 342.438 254.734 342.438 336.724C342.438 343.469 350.625 344.901 353.661 347.266C354.917 348.547 355.865 350.026 356.505 351.698C357.151 353.375 357.432 355.104 357.365 356.896L354.385 407.787C353.849 416.927 353.583 426.083 353.589 435.26V469.177C352.953 469.406 378.698 457.755 381.734 456Z" fill="#FD961E"/>
<path d="M213.734 470.057V434.917C213.734 425.75 213.469 416.599 212.937 407.458L208.401 339.917C208.255 337.391 208.458 334.896 209.016 332.427C209.573 329.958 210.458 327.62 211.677 325.401L220.505 312.766C220.505 312.766 240.865 288.797 240.865 266.406C240.865 232.766 222.422 205.5 199.651 205.5C176.885 205.5 158.443 232.771 158.443 266.406C158.443 288.797 178.797 312.771 178.797 312.771L187.62 325.411C188.838 327.625 189.724 329.969 190.281 332.438C190.838 334.906 191.042 337.401 190.896 339.927L186.375 407.458C185.844 416.594 185.578 425.745 185.573 434.917V457.359C189.062 461.677 214.344 470.276 213.734 470.057Z" fill="#FD961E"/>
<path d="M298.021 481.245V434.776C298.021 425.615 297.755 416.464 297.219 407.318L292.693 329.781C292.547 327.255 292.75 324.761 293.307 322.292C293.865 319.823 294.755 317.484 295.969 315.266C295.969 315.266 307.328 302.573 308.021 293.323C309.427 265.323 303.99 206.412 301.245 205.625H298.813C295.516 206.188 301.667 276.927 296.12 276.927H294.406C289.786 276.927 294.161 205.313 290.458 205.625H287.823C286.01 205.625 288.609 276.927 285.234 276.927H282.667C278.208 276.927 281.891 205.625 280.073 205.625H277.443C273.745 205.307 278.125 276.927 273.51 276.927H271.797C266.24 276.927 272.396 206.188 269.094 205.625H266.651C263.917 206.412 258.484 265.323 259.891 293.323C260.313 297.974 263.318 303.464 266.214 307.787C267.969 310.391 269.87 312.886 271.922 315.266C273.141 317.484 274.031 319.828 274.589 322.292C275.146 324.761 275.354 327.261 275.208 329.787L270.672 407.318C270.141 416.464 269.875 425.615 269.875 434.776V481.479C251.526 480.38 315.995 479.833 298.021 481.245Z" fill="#46AF4E"/>
<path d="M106.149 461.406L129.191 444.531L132.712 448.115L104.274 468.594L98.5867 462.823L119.524 434.719L123.378 438.635L106.149 461.406Z" fill="#002C1F"/>
<path d="M132.491 492.737L128.178 489.341L131.303 483.841L126.074 479.716L121.47 484.049L117.532 480.945L143.324 457.195L149.574 462.112L132.491 492.737ZM129.532 476.424L133.657 479.674L142.449 464.32L129.532 476.424Z" fill="#002C1F"/>
<path d="M154.527 493.539L160.61 470.185L165.485 473.122L160.881 488.789L172.59 477.414L177.048 480.101L159.215 496.372L153.277 506.205L148.59 503.372L154.527 493.539Z" fill="#002C1F"/>
<path d="M187.577 523.232L182.577 521.003L184.244 514.878L178.14 512.17L174.744 517.524L170.181 515.503L189.306 486.107L196.577 489.337L187.577 523.232ZM180.681 508.149L185.494 510.274L190.202 493.232L180.681 508.149Z" fill="#002C1F"/>
<path d="M211.106 494.934L216.293 496.538L207.543 524.913L216.106 527.559L214.647 532.267L200.897 528.017L211.106 494.934Z" fill="#002C1F"/>
<path d="M233.925 506.644L234.967 501.498L240.113 502.561L239.175 507.165L235.738 512.061L233.55 511.602L235.967 507.061L233.925 506.644Z" fill="#002C1F"/>
<path d="M250.293 512.793C250.585 510.001 251.465 507.933 252.939 506.585C254.424 505.225 256.491 504.683 259.148 504.96C261.814 505.225 263.731 506.178 264.898 507.814C266.075 509.439 266.523 511.647 266.231 514.439L266.127 515.501L261.002 514.98L261.148 513.564C261.273 512.314 261.116 511.418 260.689 510.876C260.273 510.324 259.637 509.996 258.793 509.897C257.945 509.814 257.252 510.001 256.71 510.46C256.179 510.907 255.856 511.751 255.731 513.001C255.606 514.183 255.757 515.251 256.189 516.21C256.632 517.168 257.2 518.095 257.898 518.98C258.606 519.871 259.366 520.762 260.189 521.647C261.007 522.538 261.757 523.501 262.439 524.543C263.132 525.585 263.679 526.741 264.085 528.001C264.486 529.251 264.606 530.699 264.439 532.335C264.148 535.126 263.241 537.204 261.731 538.564C260.215 539.907 258.132 540.449 255.481 540.189C252.825 539.907 250.898 538.96 249.689 537.335C248.481 535.699 248.023 533.48 248.314 530.689L248.523 528.585L253.606 529.105L253.356 531.564C253.231 532.814 253.398 533.71 253.856 534.251C254.325 534.782 254.991 535.095 255.856 535.189C256.7 535.272 257.403 535.1 257.96 534.668C258.512 534.241 258.856 533.397 258.981 532.147C259.106 530.954 258.945 529.887 258.502 528.939C258.07 527.98 257.502 527.058 256.793 526.168C256.096 525.282 255.34 524.392 254.523 523.501C253.715 522.6 252.965 521.637 252.273 520.605C251.575 519.564 251.028 518.413 250.627 517.147C250.236 515.887 250.127 514.433 250.293 512.793Z" fill="#002C1F"/>
<path d="M302.905 526.361L301.53 529.652L302.53 540.236L297.134 540.757L293.842 506.298L299.238 505.777L300.676 520.777L306.342 505.111L311.759 504.59L305.696 520.652L315.051 539.048L309.488 539.569L302.905 526.361Z" fill="#002C1F"/>
<path d="M321.909 502.7L327.243 501.616L334.097 535.554L328.763 536.637L321.909 502.7Z" fill="#002C1F"/>
<path d="M337.328 499.335L353.411 494.397L354.869 499.147L349.432 500.835L358.14 529.189L352.932 530.772L344.223 502.418L338.786 504.085L337.328 499.335Z" fill="#002C1F"/>
<path d="M385.855 504.367L387.709 508.575C388.844 511.148 389.094 513.398 388.459 515.325C387.818 517.242 386.276 518.742 383.834 519.825C381.401 520.898 379.256 521.028 377.396 520.221C375.532 519.403 374.037 517.71 372.896 515.137L365.625 498.679C364.49 496.111 364.24 493.867 364.875 491.95C365.516 490.023 367.053 488.523 369.48 487.45C371.928 486.367 374.079 486.236 375.938 487.054C377.797 487.861 379.297 489.549 380.438 492.117L381.792 495.179L377.084 497.262L375.584 493.887C375.068 492.736 374.48 492.033 373.813 491.783C373.146 491.533 372.428 491.585 371.646 491.929C370.855 492.278 370.329 492.783 370.063 493.45C369.803 494.106 369.928 495.007 370.438 496.158L378 513.262C378.511 514.403 379.105 515.096 379.771 515.346C380.438 515.596 381.167 515.549 381.959 515.2C382.735 514.856 383.256 514.356 383.521 513.7C383.782 513.033 383.657 512.132 383.146 510.992L381.146 506.45L385.855 504.367Z" fill="#002C1F"/>
<path d="M409.085 506.452L404.418 509.265L386.543 479.619L391.21 476.807L398.855 489.515L404.147 486.327L396.501 473.619L401.251 470.744L419.126 500.39L414.376 503.265L406.71 490.557L401.418 493.744L409.085 506.452Z" fill="#002C1F"/>
<path d="M423.837 472.342L429.712 467.717L432.754 471.592L426.879 476.217L433.15 484.197L440.525 478.384L443.587 482.259L431.941 491.426L410.525 464.217L422.17 455.051L425.233 458.947L417.858 464.759L423.837 472.342Z" fill="#002C1F"/>
<path d="M440.439 451.179L458.272 468.825L454.814 472.304L430.189 447.95L434.98 443.095L453.668 453.72L438.918 439.137L442.335 435.679L466.96 460.033L463.022 464.012L440.439 451.179Z" fill="#002C1F"/>
<mask id="mask3_476_91" style="mask-type:luminance" maskUnits="userSpaceOnUse" x="251" y="99" width="62" height="77">
<path d="M251.333 99.4111H312.667V175.333H251.333V99.4111Z" fill="white"/>
</mask>
<g mask="url(#mask3_476_91)">
<path fill-rule="evenodd" clip-rule="evenodd" d="M282.161 99.5469C282.745 100.297 283.026 100.573 283.937 101.922C285.51 104.266 286.953 106.349 287.323 108.911C287.453 109.823 287.161 110.51 286.859 111.641C283.922 111.214 280.979 111.182 278.031 111.542C277.844 111.573 277.656 111.609 277.469 111.635C277.161 110.5 276.875 109.823 277.005 108.911C277.375 106.349 278.812 104.266 280.391 101.922C281.302 100.578 281.573 100.297 282.161 99.5469ZM304.719 105.583C304.854 106.526 304.958 106.911 305.068 108.531C305.26 111.354 305.469 113.87 304.505 116.266C304.167 117.125 303.573 117.568 302.745 118.396C300.255 116.448 297.547 114.88 294.615 113.703C294.917 112.573 295.005 111.839 295.578 111.115C297.172 109.078 299.463 107.995 302 106.755C303.458 106.042 303.838 105.943 304.719 105.583ZM259.609 105.589C260.49 105.948 260.87 106.052 262.328 106.766C264.865 108.005 267.156 109.083 268.755 111.12C269.323 111.849 269.417 112.594 269.724 113.729C268.281 114.307 266.859 114.964 265.479 115.76C264.12 116.557 262.828 117.443 261.599 118.422C260.766 117.589 260.167 117.135 259.823 116.276C258.859 113.875 259.068 111.359 259.26 108.536C259.37 106.917 259.474 106.531 259.609 105.589ZM282.807 114.708C280.073 114.646 277.375 114.958 274.724 115.641C272.073 116.323 269.562 117.349 267.187 118.719C266.338 119.214 265.516 119.74 264.719 120.313C263.922 120.885 263.151 121.49 262.417 122.141C261.677 122.786 260.974 123.464 260.302 124.182C259.63 124.896 258.995 125.646 258.396 126.422C257.802 127.198 257.24 128.005 256.724 128.839C256.203 129.672 255.729 130.526 255.297 131.406C254.859 132.286 254.469 133.188 254.125 134.104C253.781 135.021 253.479 135.958 253.224 136.901C252.974 137.849 252.766 138.807 252.604 139.776C252.448 140.745 252.333 141.719 252.271 142.698C252.208 143.677 252.193 144.656 252.224 145.635C252.255 146.615 252.338 147.594 252.463 148.568C252.594 149.536 252.771 150.505 252.995 151.458C253.213 152.411 253.484 153.354 253.802 154.286C254.12 155.214 254.479 156.125 254.885 157.016C255.292 157.911 255.74 158.781 256.229 159.63C256.719 160.479 257.25 161.307 257.818 162.104C258.391 162.901 259 163.667 259.646 164.406C260.292 165.146 260.974 165.849 261.687 166.521C262.401 167.193 263.151 167.828 263.927 168.422C264.708 169.021 265.51 169.578 266.344 170.099C267.177 170.615 268.031 171.094 268.911 171.526C269.792 171.958 270.693 172.349 271.609 172.698C272.526 173.042 273.458 173.344 274.406 173.599C275.354 173.849 276.312 174.057 277.281 174.219C278.25 174.375 279.224 174.49 280.203 174.552C281.182 174.62 282.161 174.635 283.141 174.599C284.12 174.568 285.099 174.49 286.068 174.359C287.042 174.234 288.005 174.057 288.963 173.833C289.917 173.609 290.859 173.339 291.786 173.026C292.719 172.708 293.63 172.349 294.521 171.943C295.417 171.536 296.286 171.089 297.135 170.599C297.984 170.109 298.807 169.578 299.609 169.005C300.406 168.438 301.172 167.828 301.911 167.182C302.651 166.536 303.354 165.854 304.026 165.141C304.698 164.422 305.333 163.677 305.927 162.901C306.526 162.12 307.083 161.318 307.604 160.484C308.12 159.651 308.599 158.792 309.031 157.911C309.469 157.036 309.859 156.135 310.203 155.219C310.547 154.297 310.849 153.365 311.104 152.417C311.359 151.469 311.562 150.51 311.724 149.547C311.885 148.578 311.995 147.604 312.057 146.625C312.125 145.646 312.141 144.667 312.109 143.682C312.073 142.703 311.995 141.729 311.865 140.755C311.74 139.781 311.562 138.818 311.338 137.865C311.115 136.906 310.844 135.964 310.531 135.036C310.213 134.109 309.854 133.198 309.448 132.302C309.042 131.411 308.594 130.536 308.104 129.688C306.818 127.458 305.271 125.427 303.458 123.594C301.651 121.76 299.641 120.188 297.422 118.875C295.208 117.563 292.859 116.557 290.385 115.849C287.906 115.141 285.385 114.76 282.807 114.708ZM282.729 118.109C285.01 118.156 287.25 118.495 289.448 119.12C291.641 119.745 293.724 120.635 295.687 121.797C297.656 122.964 299.437 124.354 301.047 125.974C302.651 127.599 304.026 129.396 305.167 131.375C312.495 144.063 308.135 160.349 295.448 167.672C282.76 175 266.49 170.63 259.161 157.943C251.833 145.255 256.193 128.984 268.88 121.656C273.167 119.177 277.781 117.995 282.729 118.109Z" fill="#FD961E"/>
</g>
<mask id="mask4_476_91" style="mask-type:luminance" maskUnits="userSpaceOnUse" x="236" y="120" width="91" height="70">
<path d="M236.922 120.667H326.922V189.412H236.922V120.667Z" fill="white"/>
</mask>
<g mask="url(#mask4_476_91)">
<path fill-rule="evenodd" clip-rule="evenodd" d="M282.667 121.516C285.656 121.599 288.526 122.24 291.266 123.432C290.536 123.797 290.385 123.828 289.37 124.401C287.177 125.646 284.672 127.177 283.188 129.198C282.74 129.813 282.417 130.49 282.161 131.182C281.911 130.474 281.573 129.818 281.141 129.203C279.656 127.177 277.161 125.646 274.964 124.406C273.927 123.813 273.766 123.771 273.021 123.412C276.099 122.078 279.313 121.448 282.667 121.516ZM250.391 121.724C251.781 121.807 252.734 121.839 253.776 122.318C254.62 122.708 255.089 123.255 255.922 124.083C253.974 126.573 252.411 129.287 251.234 132.219C250.099 131.912 249.354 131.823 248.625 131.25C246.589 129.651 245.505 127.365 244.266 124.823C243.552 123.365 243.443 122.99 243.089 122.104C244.026 121.969 244.417 121.87 246.042 121.76C247.49 121.656 248.943 121.641 250.391 121.724ZM313.943 121.729C315.396 121.646 316.844 121.656 318.297 121.766C319.917 121.88 320.302 121.979 321.245 122.109C320.885 122.995 320.776 123.37 320.063 124.828C318.818 127.37 317.74 129.662 315.703 131.255C314.974 131.828 314.229 131.922 313.094 132.224C312.516 130.76 311.844 129.349 311.068 127.979C310.276 126.62 309.396 125.323 308.422 124.083C309.25 123.26 309.714 122.714 310.552 122.328C311.594 121.849 312.557 121.823 313.943 121.74V121.729ZM268.302 126.135C268.271 126.818 268.224 127.453 268.219 128.292C268.193 130.813 268.276 133.75 269.286 136.052C269.594 136.734 270.016 137.344 270.49 137.917C269.75 137.781 269.016 137.745 268.271 137.813C265.776 138.089 263.188 139.49 261.016 140.771C259.995 141.37 259.88 141.49 259.198 141.948C259.38 140.391 259.714 138.87 260.208 137.38C260.698 135.891 261.339 134.464 262.12 133.104C262.901 131.745 263.818 130.479 264.859 129.307C265.896 128.135 267.047 127.078 268.302 126.141V126.135ZM295.995 126.162C298.542 128.047 300.609 130.354 302.203 133.089C303.833 135.912 304.797 138.927 305.156 141.964C304.469 141.505 304.354 141.38 303.313 140.766C301.141 139.49 298.563 138.089 296.068 137.818C295.318 137.74 294.578 137.776 293.844 137.917C294.313 137.344 294.734 136.734 295.042 136.047C296.052 133.75 296.135 130.813 296.109 128.292C296.099 127.12 296.052 126.969 295.995 126.162ZM292.589 126.604C292.63 127.313 292.667 127.38 292.677 128.323C292.698 130.662 292.432 133.464 291.901 134.667C291.667 135.203 290.552 136.495 289.51 137.432C289.135 137.776 289.109 137.771 288.802 138.026C287.625 136.828 286.224 136.01 284.604 135.568C284.672 135.177 284.651 135.162 284.75 134.682C285.042 133.313 285.604 131.703 285.953 131.234C286.729 130.172 289.021 128.537 291.057 127.385C291.88 126.917 291.958 126.917 292.589 126.604ZM271.745 126.609C272.38 126.927 272.453 126.922 273.271 127.385C275.307 128.537 277.599 130.167 278.375 131.234C278.724 131.703 279.286 133.313 279.578 134.682C279.677 135.177 279.667 135.198 279.729 135.594C278.953 135.802 278.188 136.073 277.453 136.495C276.745 136.917 276.099 137.427 275.526 138.026C275.219 137.771 275.193 137.776 274.818 137.432C273.776 136.495 272.661 135.203 272.427 134.667C271.896 133.464 271.63 130.656 271.651 128.323C271.661 127.38 271.703 127.318 271.745 126.609ZM282.589 138.667C281.365 138.583 280.229 138.854 279.167 139.469C278.828 139.667 278.505 139.896 278.208 140.151C277.911 140.412 277.646 140.698 277.406 141.01C277.161 141.323 276.958 141.656 276.781 142.01C276.604 142.365 276.469 142.729 276.365 143.109C276.266 143.49 276.203 143.88 276.177 144.271C276.151 144.667 276.161 145.057 276.214 145.448C276.266 145.839 276.359 146.219 276.484 146.594C276.615 146.964 276.776 147.323 276.974 147.662C277.172 148.005 277.396 148.323 277.656 148.62C277.917 148.917 278.203 149.188 278.516 149.427C278.828 149.667 279.161 149.875 279.51 150.052C279.865 150.224 280.234 150.365 280.615 150.469C280.995 150.568 281.38 150.63 281.776 150.656C282.167 150.682 282.563 150.667 282.953 150.615C283.344 150.563 283.724 150.474 284.099 150.344C284.469 150.219 284.828 150.052 285.167 149.854C285.51 149.662 285.828 149.432 286.125 149.172C286.422 148.917 286.693 148.63 286.932 148.318C287.172 148.005 287.38 147.672 287.552 147.318C287.729 146.964 287.865 146.599 287.969 146.219C288.073 145.833 288.135 145.448 288.161 145.057C288.188 144.662 288.172 144.271 288.12 143.88C288.068 143.49 287.979 143.109 287.849 142.734C287.724 142.359 287.557 142.005 287.359 141.667C286.865 140.797 286.193 140.099 285.349 139.568C284.505 139.037 283.583 138.734 282.589 138.667ZM282.167 142.943C282.396 142.943 282.615 142.984 282.823 143.073C283.031 143.162 283.219 143.281 283.38 143.443C283.542 143.604 283.661 143.792 283.75 144C283.839 144.208 283.88 144.427 283.88 144.656C283.88 144.885 283.839 145.104 283.75 145.313C283.661 145.521 283.542 145.708 283.38 145.87C283.219 146.026 283.031 146.151 282.823 146.24C282.615 146.328 282.396 146.37 282.167 146.37C281.943 146.37 281.724 146.328 281.51 146.24C281.302 146.151 281.115 146.026 280.958 145.87C280.797 145.708 280.672 145.521 280.583 145.313C280.5 145.104 280.453 144.885 280.453 144.656C280.453 144.427 280.5 144.208 280.583 144C280.672 143.792 280.797 143.604 280.958 143.443C281.115 143.287 281.302 143.162 281.51 143.073C281.724 142.984 281.943 142.943 282.167 142.943ZM246.417 139.505C247.333 139.37 248.021 139.662 249.156 139.969C248.708 143.099 248.703 146.229 249.146 149.354C248.016 149.656 247.328 149.948 246.411 149.818C243.854 149.453 241.771 148.01 239.427 146.432C238.078 145.521 237.797 145.245 237.047 144.656C237.797 144.073 238.078 143.797 239.427 142.891C241.708 141.281 243.854 139.87 246.417 139.5V139.505ZM317.922 139.505C320.484 139.87 322.557 141.313 324.906 142.891C326.25 143.797 326.531 144.073 327.281 144.656C326.531 145.245 326.25 145.526 324.906 146.432C322.557 148.01 320.484 149.453 317.922 149.818C316.995 149.948 316.302 149.656 315.161 149.349C315.609 146.255 315.625 143.104 315.182 139.964C316.063 139.656 317.005 139.37 317.922 139.5V139.505ZM268.646 141.229C269.224 141.162 270.901 141.479 272.234 141.917C272.703 142.063 272.703 142.089 273.073 142.224C272.651 143.802 272.672 145.474 273.094 147.089C272.724 147.229 272.714 147.25 272.234 147.406C270.896 147.844 269.224 148.162 268.646 148.099C267.333 147.958 264.771 146.781 262.75 145.599C261.943 145.12 261.906 145.057 261.318 144.667C261.906 144.276 261.943 144.208 262.755 143.729C264.771 142.542 267.333 141.375 268.646 141.234V141.229ZM295.688 141.229C297 141.375 299.563 142.542 301.573 143.729C302.385 144.208 302.422 144.276 303.016 144.662C302.422 145.052 302.385 145.115 301.573 145.594C299.557 146.781 297 147.953 295.688 148.099C295.109 148.156 293.432 147.839 292.099 147.406C291.63 147.255 291.625 147.229 291.255 147.094C291.682 145.474 291.672 143.854 291.234 142.24C291.604 142.099 291.615 142.068 292.099 141.912C293.438 141.479 295.109 141.162 295.688 141.224V141.229ZM259.182 147.359C259.865 147.818 259.979 147.943 261.016 148.552C263.188 149.833 265.776 151.234 268.271 151.51C269.026 151.594 269.766 151.51 270.495 151.396C270.005 151.969 269.604 152.594 269.286 153.271C268.276 155.568 268.193 158.51 268.219 161.031C268.224 161.875 268.266 162.516 268.302 163.193C265.766 161.297 263.708 158.979 262.125 156.234C260.531 153.479 259.547 150.526 259.177 147.365L259.182 147.359ZM305.13 147.375C304.948 148.932 304.609 150.458 304.115 151.953C303.62 153.443 302.979 154.865 302.198 156.224C301.411 157.589 300.495 158.854 299.453 160.026C298.406 161.198 297.255 162.255 295.995 163.193C296.052 162.375 296.099 162.219 296.109 161.031C296.135 158.505 296.052 155.573 295.042 153.271C294.724 152.594 294.323 151.969 293.833 151.396C294.563 151.521 295.318 151.594 296.063 151.51C298.563 151.234 301.141 149.833 303.313 148.552C304.339 147.948 304.448 147.828 305.13 147.375ZM275.531 151.307C276.714 152.479 278.156 153.333 279.724 153.755C279.656 154.141 279.677 154.156 279.578 154.635C279.286 156.01 278.724 157.62 278.375 158.094C277.599 159.156 275.307 160.781 273.271 161.932C272.453 162.396 272.38 162.396 271.745 162.714C271.703 162.005 271.661 161.943 271.651 161.005C271.63 158.667 271.896 155.865 272.427 154.656C272.661 154.125 273.776 152.833 274.818 151.896C275.193 151.552 275.229 151.557 275.536 151.307H275.531ZM288.797 151.307C289.104 151.557 289.13 151.552 289.51 151.896C290.552 152.828 291.667 154.125 291.901 154.656C292.432 155.87 292.698 158.667 292.677 161.005C292.667 161.948 292.63 162.01 292.589 162.719C291.958 162.401 291.88 162.401 291.057 161.932C289.021 160.781 286.729 159.156 285.953 158.094C285.604 157.625 285.042 156.01 284.75 154.635C284.646 154.141 284.661 154.115 284.599 153.724C285.38 153.51 286.151 153.245 286.88 152.823C287.609 152.406 288.229 151.87 288.797 151.307ZM251.245 157.094C251.823 158.537 252.464 159.964 253.266 161.344C254.057 162.729 254.969 164 255.927 165.219C255.094 166.052 254.641 166.651 253.776 167.005C251.38 167.964 248.859 167.755 246.042 167.563C244.417 167.453 244.026 167.354 243.089 167.214C243.443 166.333 243.552 165.948 244.266 164.49C245.51 161.948 246.589 159.662 248.625 158.063C249.359 157.49 250.099 157.401 251.245 157.094ZM313.094 157.099C314.229 157.412 314.974 157.5 315.703 158.073C317.74 159.667 318.823 161.958 320.063 164.5C320.776 165.964 320.885 166.344 321.24 167.224C320.302 167.359 319.917 167.453 318.297 167.568C315.474 167.76 312.948 167.969 310.552 167.005C309.693 166.662 309.25 166.063 308.417 165.229C310.359 162.745 311.917 160.037 313.094 157.104V157.099ZM282.161 158.135C282.417 158.823 282.734 159.51 283.188 160.12C284.672 162.141 287.177 163.688 289.37 164.927C290.401 165.51 290.563 165.542 291.297 165.901C289.859 166.526 288.375 166.995 286.839 167.313C285.302 167.625 283.75 167.787 282.182 167.787C280.62 167.787 279.068 167.625 277.531 167.313C275.995 166.995 274.51 166.526 273.073 165.901C273.677 165.599 274.24 165.323 274.964 164.912C277.161 163.672 279.656 162.135 281.141 160.109C281.589 159.5 281.901 158.813 282.161 158.12V158.135ZM302.724 170.901C303.563 171.734 304.156 172.188 304.505 173.047C305.469 175.448 305.26 177.969 305.068 180.792C304.958 182.412 304.854 182.797 304.719 183.74C303.839 183.38 303.464 183.271 302 182.563C299.464 181.318 297.172 180.24 295.578 178.198C295.005 177.469 294.911 176.724 294.604 175.583C296.047 175.005 297.469 174.359 298.849 173.563C300.203 172.766 301.495 171.88 302.724 170.901ZM261.589 170.912C264.083 172.854 266.797 174.412 269.729 175.583C269.427 176.724 269.328 177.469 268.755 178.198C267.151 180.234 264.865 181.318 262.328 182.557C260.865 183.271 260.49 183.38 259.609 183.74C259.474 182.797 259.37 182.412 259.26 180.792C259.068 177.969 258.859 175.448 259.823 173.047C260.161 172.188 260.76 171.745 261.589 170.912ZM277.474 177.667C280.604 178.12 283.729 178.12 286.859 177.667C287.161 178.802 287.453 179.49 287.323 180.406C286.953 182.964 285.516 185.037 283.938 187.385C283.026 188.734 282.745 189.016 282.161 189.76C281.573 189.016 281.302 188.734 280.391 187.385C278.818 185.037 277.375 182.964 277.005 180.406C276.875 179.484 277.167 178.792 277.474 177.651V177.667Z" fill="#FD961E"/>
</g>
</svg>
