<svg width="563" height="450" viewBox="0 0 563 450" fill="none" xmlns="http://www.w3.org/2000/svg">
<path d="M37.3082 15H80.9582V30H53.8082V59.25H75.1082V74.25H53.8082V120H37.3082V15ZM88.8707 15H105.371V105H132.521V120H88.8707V15ZM153.769 15H176.119L193.219 120H176.719L173.719 99.15V99.45H154.969L151.969 120H136.669L153.769 15ZM171.769 85.2L164.419 33.3H164.119L156.919 85.2H171.769ZM192.626 15H209.276L220.076 96.45H220.376L231.176 15H246.326L230.426 120H208.526L192.626 15ZM277.809 121.5C269.709 121.5 263.509 119.2 259.209 114.6C254.909 110 252.759 103.5 252.759 95.1V39.9C252.759 31.5 254.909 25 259.209 20.4C263.509 15.8 269.709 13.5 277.809 13.5C285.909 13.5 292.109 15.8 296.409 20.4C300.709 25 302.859 31.5 302.859 39.9V95.1C302.859 103.5 300.709 110 296.409 114.6C292.109 119.2 285.909 121.5 277.809 121.5ZM277.809 106.5C283.509 106.5 286.359 103.05 286.359 96.15V38.85C286.359 31.95 283.509 28.5 277.809 28.5C272.109 28.5 269.259 31.95 269.259 38.85V96.15C269.259 103.05 272.109 106.5 277.809 106.5ZM314.017 15H338.467C346.967 15 353.167 17 357.067 21C360.967 24.9 362.917 30.95 362.917 39.15V45.6C362.917 56.5 359.317 63.4 352.117 66.3V66.6C356.117 67.8 358.917 70.25 360.517 73.95C362.217 77.65 363.067 82.6 363.067 88.8V107.25C363.067 110.25 363.167 112.7 363.367 114.6C363.567 116.4 364.067 118.2 364.867 120H348.067C347.467 118.3 347.067 116.7 346.867 115.2C346.667 113.7 346.567 111 346.567 107.1V87.9C346.567 83.1 345.767 79.75 344.167 77.85C342.667 75.95 340.017 75 336.217 75H330.517V120H314.017V15ZM336.517 60C339.817 60 342.267 59.15 343.867 57.45C345.567 55.75 346.417 52.9 346.417 48.9V40.8C346.417 37 345.717 34.25 344.317 32.55C343.017 30.85 340.917 30 338.017 30H330.517V60H336.517ZM374.515 15H418.165V30H391.015V59.25H412.315V74.25H391.015V120H374.515V15ZM450.078 121.5C442.078 121.5 435.978 119.25 431.778 114.75C427.578 110.15 425.478 103.6 425.478 95.1V15H441.978V96.3C441.978 99.9 442.678 102.5 444.078 104.1C445.578 105.7 447.678 106.5 450.378 106.5C453.078 106.5 455.128 105.7 456.528 104.1C458.028 102.5 458.778 99.9 458.778 96.3V15H474.678V95.1C474.678 103.6 472.578 110.15 468.378 114.75C464.178 119.25 458.078 121.5 450.078 121.5ZM486.429 15H502.929V105H530.079V120H486.429V15Z" fill="white"/>
<mask id="path-2-outside-1_285_2415" maskUnits="userSpaceOnUse" x="117.5" y="163" width="333" height="261" fill="black">
<rect fill="white" x="117.5" y="163" width="333" height="261"/>
<path d="M184.686 165H228.336V180H201.186V209.25H222.486V224.25H201.186V270H184.686V165ZM275.249 271.5C267.249 271.5 261.149 269.25 256.949 264.75C252.749 260.15 250.649 253.6 250.649 245.1V165H267.149V246.3C267.149 249.9 267.849 252.5 269.249 254.1C270.749 255.7 272.849 256.5 275.549 256.5C278.249 256.5 280.299 255.7 281.699 254.1C283.199 252.5 283.949 249.9 283.949 246.3V165H299.849V245.1C299.849 253.6 297.749 260.15 293.549 264.75C289.349 269.25 283.249 271.5 275.249 271.5ZM326.6 165H347.3L363.35 227.85H363.65V165H378.35V270H361.4L341.6 193.35H341.3V270H326.6V165ZM119.515 315H163.165V330H136.015V359.25H157.315V374.25H136.015V420H119.515V315ZM186.078 315H231.078V330H202.578V357.75H225.228V372.75H202.578V405H231.078V420H186.078V315ZM268.32 315H290.67L307.77 420H291.27L288.27 399.15V399.45H269.52L266.52 420H251.22L268.32 315ZM286.32 385.2L278.97 333.3H278.67L271.47 385.2H286.32ZM351.786 421.5C343.786 421.5 337.736 419.25 333.636 414.75C329.536 410.15 327.486 403.6 327.486 395.1V389.1H343.086V396.3C343.086 403.1 345.936 406.5 351.636 406.5C354.436 406.5 356.536 405.7 357.936 404.1C359.436 402.4 360.186 399.7 360.186 396C360.186 391.6 359.186 387.75 357.186 384.45C355.186 381.05 351.486 377 346.086 372.3C339.286 366.3 334.536 360.9 331.836 356.1C329.136 351.2 327.786 345.7 327.786 339.6C327.786 331.3 329.886 324.9 334.086 320.4C338.286 315.8 344.386 313.5 352.386 313.5C360.286 313.5 366.236 315.8 370.236 320.4C374.336 324.9 376.386 331.4 376.386 339.9V344.25H360.786V338.85C360.786 335.25 360.086 332.65 358.686 331.05C357.286 329.35 355.236 328.5 352.536 328.5C347.036 328.5 344.286 331.85 344.286 338.55C344.286 342.35 345.286 345.9 347.286 349.2C349.386 352.5 353.136 356.5 358.536 361.2C365.436 367.2 370.186 372.65 372.786 377.55C375.386 382.45 376.686 388.2 376.686 394.8C376.686 403.4 374.536 410 370.236 414.6C366.036 419.2 359.886 421.5 351.786 421.5ZM414.046 330H396.796V315H447.796V330H430.546V420H414.046V330Z"/>
</mask>
<path d="M184.686 165V163H182.686V165H184.686ZM228.336 165H230.336V163H228.336V165ZM228.336 180V182H230.336V180H228.336ZM201.186 180V178H199.186V180H201.186ZM201.186 209.25H199.186V211.25H201.186V209.25ZM222.486 209.25H224.486V207.25H222.486V209.25ZM222.486 224.25V226.25H224.486V224.25H222.486ZM201.186 224.25V222.25H199.186V224.25H201.186ZM201.186 270V272H203.186V270H201.186ZM184.686 270H182.686V272H184.686V270ZM184.686 167H228.336V163H184.686V167ZM226.336 165V180H230.336V165H226.336ZM228.336 178H201.186V182H228.336V178ZM199.186 180V209.25H203.186V180H199.186ZM201.186 211.25H222.486V207.25H201.186V211.25ZM220.486 209.25V224.25H224.486V209.25H220.486ZM222.486 222.25H201.186V226.25H222.486V222.25ZM199.186 224.25V270H203.186V224.25H199.186ZM201.186 268H184.686V272H201.186V268ZM186.686 270V165H182.686V270H186.686ZM256.949 264.75L255.472 266.099L255.479 266.107L255.487 266.115L256.949 264.75ZM250.649 165V163H248.649V165H250.649ZM267.149 165H269.149V163H267.149V165ZM269.249 254.1L267.743 255.417L267.766 255.443L267.79 255.468L269.249 254.1ZM281.699 254.1L280.24 252.732L280.216 252.757L280.193 252.783L281.699 254.1ZM283.949 165V163H281.949V165H283.949ZM299.849 165H301.849V163H299.849V165ZM293.549 264.75L295.011 266.115L295.018 266.107L295.026 266.099L293.549 264.75ZM275.249 269.5C267.628 269.5 262.128 267.368 258.411 263.385L255.487 266.115C260.17 271.132 266.869 273.5 275.249 273.5V269.5ZM258.426 263.401C254.668 259.286 252.649 253.285 252.649 245.1H248.649C248.649 253.915 250.829 261.014 255.472 266.099L258.426 263.401ZM252.649 245.1V165H248.649V245.1H252.649ZM250.649 167H267.149V163H250.649V167ZM265.149 165V246.3H269.149V165H265.149ZM265.149 246.3C265.149 250.075 265.867 253.273 267.743 255.417L270.754 252.783C269.83 251.727 269.149 249.725 269.149 246.3H265.149ZM267.79 255.468C269.752 257.561 272.433 258.5 275.549 258.5V254.5C273.264 254.5 271.745 253.839 270.708 252.732L267.79 255.468ZM275.549 258.5C278.658 258.5 281.326 257.563 283.204 255.417L280.193 252.783C279.271 253.837 277.839 254.5 275.549 254.5V258.5ZM283.158 255.468C285.17 253.321 285.949 250.101 285.949 246.3H281.949C281.949 249.699 281.227 251.679 280.24 252.732L283.158 255.468ZM285.949 246.3V165H281.949V246.3H285.949ZM283.949 167H299.849V163H283.949V167ZM297.849 165V245.1H301.849V165H297.849ZM297.849 245.1C297.849 253.285 295.829 259.286 292.072 263.401L295.026 266.099C299.668 261.014 301.849 253.915 301.849 245.1H297.849ZM292.087 263.385C288.37 267.368 282.869 269.5 275.249 269.5V273.5C283.628 273.5 290.328 271.132 295.011 266.115L292.087 263.385ZM326.6 165V163H324.6V165H326.6ZM347.3 165L349.238 164.505L348.854 163H347.3V165ZM363.35 227.85L361.412 228.345L361.797 229.85H363.35V227.85ZM363.65 227.85V229.85H365.65V227.85H363.65ZM363.65 165V163H361.65V165H363.65ZM378.35 165H380.35V163H378.35V165ZM378.35 270V272H380.35V270H378.35ZM361.4 270L359.464 270.5L359.851 272H361.4V270ZM341.6 193.35L343.537 192.85L343.149 191.35H341.6V193.35ZM341.3 193.35V191.35H339.3V193.35H341.3ZM341.3 270V272H343.3V270H341.3ZM326.6 270H324.6V272H326.6V270ZM326.6 167H347.3V163H326.6V167ZM345.362 165.495L361.412 228.345L365.288 227.355L349.238 164.505L345.362 165.495ZM363.35 229.85H363.65V225.85H363.35V229.85ZM365.65 227.85V165H361.65V227.85H365.65ZM363.65 167H378.35V163H363.65V167ZM376.35 165V270H380.35V165H376.35ZM378.35 268H361.4V272H378.35V268ZM363.337 269.5L343.537 192.85L339.664 193.85L359.464 270.5L363.337 269.5ZM341.6 191.35H341.3V195.35H341.6V191.35ZM339.3 193.35V270H343.3V193.35H339.3ZM341.3 268H326.6V272H341.3V268ZM328.6 270V165H324.6V270H328.6ZM119.515 315V313H117.515V315H119.515ZM163.165 315H165.165V313H163.165V315ZM163.165 330V332H165.165V330H163.165ZM136.015 330V328H134.015V330H136.015ZM136.015 359.25H134.015V361.25H136.015V359.25ZM157.315 359.25H159.315V357.25H157.315V359.25ZM157.315 374.25V376.25H159.315V374.25H157.315ZM136.015 374.25V372.25H134.015V374.25H136.015ZM136.015 420V422H138.015V420H136.015ZM119.515 420H117.515V422H119.515V420ZM119.515 317H163.165V313H119.515V317ZM161.165 315V330H165.165V315H161.165ZM163.165 328H136.015V332H163.165V328ZM134.015 330V359.25H138.015V330H134.015ZM136.015 361.25H157.315V357.25H136.015V361.25ZM155.315 359.25V374.25H159.315V359.25H155.315ZM157.315 372.25H136.015V376.25H157.315V372.25ZM134.015 374.25V420H138.015V374.25H134.015ZM136.015 418H119.515V422H136.015V418ZM121.515 420V315H117.515V420H121.515ZM186.078 315V313H184.078V315H186.078ZM231.078 315H233.078V313H231.078V315ZM231.078 330V332H233.078V330H231.078ZM202.578 330V328H200.578V330H202.578ZM202.578 357.75H200.578V359.75H202.578V357.75ZM225.228 357.75H227.228V355.75H225.228V357.75ZM225.228 372.75V374.75H227.228V372.75H225.228ZM202.578 372.75V370.75H200.578V372.75H202.578ZM202.578 405H200.578V407H202.578V405ZM231.078 405H233.078V403H231.078V405ZM231.078 420V422H233.078V420H231.078ZM186.078 420H184.078V422H186.078V420ZM186.078 317H231.078V313H186.078V317ZM229.078 315V330H233.078V315H229.078ZM231.078 328H202.578V332H231.078V328ZM200.578 330V357.75H204.578V330H200.578ZM202.578 359.75H225.228V355.75H202.578V359.75ZM223.228 357.75V372.75H227.228V357.75H223.228ZM225.228 370.75H202.578V374.75H225.228V370.75ZM200.578 372.75V405H204.578V372.75H200.578ZM202.578 407H231.078V403H202.578V407ZM229.078 405V420H233.078V405H229.078ZM231.078 418H186.078V422H231.078V418ZM188.078 420V315H184.078V420H188.078ZM268.32 315V313H266.619L266.346 314.679L268.32 315ZM290.67 315L292.644 314.679L292.371 313H290.67V315ZM307.77 420V422H310.122L309.744 419.679L307.77 420ZM291.27 420L289.29 420.285L289.537 422H291.27V420ZM288.27 399.15L290.25 398.865L286.27 399.15H288.27ZM288.27 399.45V401.45H290.27V399.45H288.27ZM269.52 399.45V397.45H267.791L267.541 399.161L269.52 399.45ZM266.52 420V422H268.249L268.499 420.289L266.52 420ZM251.22 420L249.246 419.679L248.868 422H251.22V420ZM286.32 385.2V387.2H288.623L288.3 384.92L286.32 385.2ZM278.97 333.3L280.95 333.02L280.707 331.3H278.97V333.3ZM278.67 333.3V331.3H276.928L276.689 333.025L278.67 333.3ZM271.47 385.2L269.489 384.925L269.173 387.2H271.47V385.2ZM268.32 317H290.67V313H268.32V317ZM288.696 315.321L305.796 420.321L309.744 419.679L292.644 314.679L288.696 315.321ZM307.77 418H291.27V422H307.77V418ZM293.25 419.715L290.25 398.865L286.29 399.435L289.29 420.285L293.25 419.715ZM286.27 399.15V399.45H290.27V399.15H286.27ZM288.27 397.45H269.52V401.45H288.27V397.45ZM267.541 399.161L264.541 419.711L268.499 420.289L271.499 399.739L267.541 399.161ZM266.52 418H251.22V422H266.52V418ZM253.194 420.321L270.294 315.321L266.346 314.679L249.246 419.679L253.194 420.321ZM288.3 384.92L280.95 333.02L276.99 333.58L284.34 385.48L288.3 384.92ZM278.97 331.3H278.67V335.3H278.97V331.3ZM276.689 333.025L269.489 384.925L273.451 385.475L280.651 333.575L276.689 333.025ZM271.47 387.2H286.32V383.2H271.47V387.2ZM333.636 414.75L332.143 416.081L332.15 416.089L332.157 416.097L333.636 414.75ZM327.486 389.1V387.1H325.486V389.1H327.486ZM343.086 389.1H345.086V387.1H343.086V389.1ZM357.936 404.1L356.436 402.777L356.43 402.783L357.936 404.1ZM357.186 384.45L355.462 385.464L355.468 385.475L355.475 385.487L357.186 384.45ZM346.086 372.3L344.762 373.8L344.772 373.809L346.086 372.3ZM331.836 356.1L330.084 357.065L330.088 357.073L330.092 357.081L331.836 356.1ZM334.086 320.4L335.548 321.765L335.555 321.757L335.563 321.749L334.086 320.4ZM370.236 320.4L368.726 321.712L368.742 321.73L368.757 321.747L370.236 320.4ZM376.386 344.25V346.25H378.386V344.25H376.386ZM360.786 344.25H358.786V346.25H360.786V344.25ZM358.686 331.05L357.142 332.321L357.161 332.344L357.18 332.367L358.686 331.05ZM347.286 349.2L345.575 350.237L345.586 350.255L345.598 350.274L347.286 349.2ZM358.536 361.2L357.223 362.709L357.223 362.709L358.536 361.2ZM372.786 377.55L371.019 378.487L372.786 377.55ZM370.236 414.6L368.775 413.234L368.766 413.243L368.759 413.251L370.236 414.6ZM351.786 419.5C344.162 419.5 338.725 417.367 335.114 413.403L332.157 416.097C336.746 421.133 343.409 423.5 351.786 423.5V419.5ZM335.129 413.419C331.461 409.305 329.486 403.296 329.486 395.1H325.486C325.486 403.904 327.61 410.995 332.143 416.081L335.129 413.419ZM329.486 395.1V389.1H325.486V395.1H329.486ZM327.486 391.1H343.086V387.1H327.486V391.1ZM341.086 389.1V396.3H345.086V389.1H341.086ZM341.086 396.3C341.086 399.931 341.839 403.026 343.69 405.235C345.598 407.511 348.376 408.5 351.636 408.5V404.5C349.196 404.5 347.698 403.789 346.756 402.665C345.757 401.474 345.086 399.469 345.086 396.3H341.086ZM351.636 408.5C354.818 408.5 357.55 407.578 359.441 405.417L356.43 402.783C355.521 403.822 354.053 404.5 351.636 404.5V408.5ZM359.435 405.423C361.408 403.188 362.186 399.899 362.186 396H358.186C358.186 399.501 357.463 401.612 356.436 402.777L359.435 405.423ZM362.186 396C362.186 391.287 361.111 387.068 358.896 383.413L355.475 385.487C357.26 388.432 358.186 391.913 358.186 396H362.186ZM358.909 383.436C356.745 379.756 352.851 375.537 347.399 370.791L344.772 373.809C350.12 378.463 353.626 382.344 355.462 385.464L358.909 383.436ZM347.409 370.8C340.683 364.866 336.121 359.639 333.579 355.119L330.092 357.081C332.95 362.161 337.888 367.734 344.762 373.8L347.409 370.8ZM333.587 355.135C331.065 350.557 329.786 345.394 329.786 339.6H325.786C325.786 346.006 327.207 351.843 330.084 357.065L333.587 355.135ZM329.786 339.6C329.786 331.627 331.799 325.781 335.548 321.765L332.623 319.035C327.972 324.019 325.786 330.973 325.786 339.6H329.786ZM335.563 321.749C339.283 317.674 344.778 315.5 352.386 315.5V311.5C343.993 311.5 337.289 313.926 332.609 319.051L335.563 321.749ZM352.386 315.5C359.89 315.5 365.212 317.67 368.726 321.712L371.745 319.088C367.259 313.93 360.682 311.5 352.386 311.5V315.5ZM368.757 321.747C372.409 325.755 374.386 331.7 374.386 339.9H378.386C378.386 331.1 376.262 324.045 371.714 319.053L368.757 321.747ZM374.386 339.9V344.25H378.386V339.9H374.386ZM376.386 342.25H360.786V346.25H376.386V342.25ZM362.786 344.25V338.85H358.786V344.25H362.786ZM362.786 338.85C362.786 335.075 362.067 331.877 360.191 329.733L357.18 332.367C358.104 333.423 358.786 335.425 358.786 338.85H362.786ZM360.229 329.779C358.364 327.514 355.685 326.5 352.536 326.5V330.5C354.786 330.5 356.207 331.186 357.142 332.321L360.229 329.779ZM352.536 326.5C349.362 326.5 346.656 327.486 344.802 329.744C343.011 331.926 342.286 334.977 342.286 338.55H346.286C346.286 335.423 346.935 333.449 347.894 332.281C348.79 331.189 350.209 330.5 352.536 330.5V326.5ZM342.286 338.55C342.286 342.721 343.389 346.629 345.575 350.237L348.996 348.163C347.182 345.171 346.286 341.979 346.286 338.55H342.286ZM345.598 350.274C347.854 353.818 351.776 357.969 357.223 362.709L359.849 359.691C354.495 355.031 350.917 351.182 348.973 348.126L345.598 350.274ZM357.223 362.709C364.042 368.639 368.585 373.9 371.019 378.487L374.552 376.613C371.786 371.4 366.829 365.761 359.848 359.691L357.223 362.709ZM371.019 378.487C373.439 383.049 374.686 388.465 374.686 394.8H378.686C378.686 387.935 377.332 381.851 374.552 376.613L371.019 378.487ZM374.686 394.8C374.686 403.081 372.618 409.122 368.775 413.234L371.697 415.966C376.453 410.878 378.686 403.719 378.686 394.8H374.686ZM368.759 413.251C365.043 417.321 359.502 419.5 351.786 419.5V423.5C360.269 423.5 367.028 421.079 371.713 415.949L368.759 413.251ZM414.046 330H416.046V328H414.046V330ZM396.796 330H394.796V332H396.796V330ZM396.796 315V313H394.796V315H396.796ZM447.796 315H449.796V313H447.796V315ZM447.796 330V332H449.796V330H447.796ZM430.546 330V328H428.546V330H430.546ZM430.546 420V422H432.546V420H430.546ZM414.046 420H412.046V422H414.046V420ZM414.046 328H396.796V332H414.046V328ZM398.796 330V315H394.796V330H398.796ZM396.796 317H447.796V313H396.796V317ZM445.796 315V330H449.796V315H445.796ZM447.796 328H430.546V332H447.796V328ZM428.546 330V420H432.546V330H428.546ZM430.546 418H414.046V422H430.546V418ZM416.046 420V330H412.046V420H416.046Z" fill="white" mask="url(#path-2-outside-1_285_2415)"/>
</svg>
