<svg width="64" height="64" viewBox="0 0 64 64" fill="none" xmlns="http://www.w3.org/2000/svg">
<path d="M44.975 23.436C45.3598 23.801 45.5838 24.3038 45.5979 24.834C45.6119 25.3641 45.4149 25.8781 45.05 26.263L31.95 40.08C31.4823 40.5723 30.9195 40.9644 30.2957 41.2326C29.6719 41.5008 29 41.6394 28.321 41.64H28.201C27.5019 41.6221 26.8142 41.4581 26.1823 41.1584C25.5504 40.8587 24.9883 40.43 24.532 39.9L18.886 33.343C18.5398 32.9411 18.3674 32.418 18.4068 31.889C18.4461 31.36 18.6941 30.8682 19.096 30.522C19.4979 30.1758 20.021 30.0034 20.55 30.0428C21.079 30.0821 21.5708 30.3301 21.917 30.732L27.563 37.291C27.654 37.3973 27.7664 37.4831 27.8929 37.5429C28.0194 37.6027 28.1571 37.6351 28.297 37.638C28.4374 37.6458 28.5777 37.6219 28.7075 37.5681C28.8373 37.5142 28.9534 37.4318 29.047 37.327L42.147 23.51C42.3278 23.3194 42.5444 23.1663 42.7844 23.0594C43.0244 22.9526 43.2831 22.894 43.5457 22.8871C43.8083 22.8803 44.0697 22.9252 44.3149 23.0194C44.5602 23.1136 44.7845 23.2551 44.975 23.436ZM58 32C58 37.1423 56.4751 42.1691 53.6182 46.4448C50.7613 50.7205 46.7007 54.053 41.9498 56.0209C37.1989 57.9887 31.9712 58.5036 26.9277 57.5004C21.8842 56.4972 17.2514 54.0209 13.6152 50.3848C9.97907 46.7486 7.50281 42.1159 6.49959 37.0723C5.49638 32.0288 6.01127 26.8011 7.97914 22.0502C9.94702 17.2994 13.2795 13.2387 17.5552 10.3818C21.8309 7.52487 26.8577 6 32 6C38.8932 6.00794 45.5018 8.74977 50.376 13.624C55.2502 18.4982 57.9921 25.1068 58 32ZM54 32C53.9952 27.6566 52.7068 23.4115 50.2966 19.7981C47.8865 16.1847 44.4622 13.3642 40.454 11.691C38.6725 11.2314 36.8399 10.9993 35 11C29.911 11.0044 24.981 12.773 21.0496 16.0044C17.1182 19.2358 14.4287 23.7303 13.4391 28.7221C12.4496 33.714 13.2212 38.8945 15.6226 43.3813C18.024 47.8681 21.9066 51.3836 26.609 53.329C29.855 54.1494 33.2454 54.2182 36.522 53.53C39.7986 52.8418 42.8749 51.4149 45.5165 49.3578C48.1582 47.3008 50.2955 44.668 51.7656 41.66C53.2358 38.652 54 35.3481 54 32Z" fill="#FD961E"/>
</svg>
