<svg width="21" height="21" viewBox="0 0 21 21" fill="none" xmlns="http://www.w3.org/2000/svg">
<path d="M18.25 11.542C18.0209 11.542 17.7813 11.4691 17.5521 11.417C17.088 11.3147 16.632 11.179 16.1875 11.0107C15.7043 10.8349 15.1731 10.8441 14.6962 11.0364C14.2193 11.2287 13.8303 11.5906 13.6042 12.0524L13.375 12.5212C12.3605 11.9568 11.4282 11.2558 10.6042 10.4378C9.78626 9.61389 9.08528 8.68158 8.52088 7.667L8.95838 7.37533C9.42022 7.1492 9.78211 6.76026 9.97441 6.28334C10.1667 5.80643 10.1758 5.27524 10 4.792C9.83465 4.3466 9.69894 3.89075 9.59379 3.42741C9.54171 3.19825 9.50004 2.95866 9.46879 2.71908C9.3423 1.98535 8.95799 1.3209 8.38507 0.845372C7.81215 0.369848 7.08827 0.114506 6.34379 0.125331H3.21879C2.76987 0.121115 2.3253 0.213678 1.91537 0.396716C1.50543 0.579755 1.13974 0.848972 0.843201 1.18604C0.546659 1.52311 0.326226 1.92012 0.196906 2.35003C0.0675872 2.77995 0.0324183 3.23268 0.093794 3.67741C0.64873 8.04135 2.64174 12.096 5.75801 15.201C8.87429 18.306 12.9362 20.2842 17.3021 20.8232H17.698C18.4661 20.8244 19.2077 20.5425 19.7813 20.0316C20.1108 19.7368 20.3741 19.3755 20.5537 18.9715C20.7332 18.5675 20.825 18.13 20.823 17.6878V14.5628C20.8102 13.8393 20.5467 13.1426 20.0775 12.5917C19.6082 12.0407 18.9624 11.6697 18.25 11.542ZM18.7709 17.792C18.7707 17.9399 18.739 18.0861 18.6779 18.2208C18.6169 18.3555 18.5278 18.4756 18.4167 18.5732C18.3003 18.6737 18.1642 18.7488 18.0171 18.7937C17.87 18.8385 17.7152 18.8521 17.5625 18.8337C13.6614 18.3335 10.0378 16.5488 7.26329 13.7611C4.48879 10.9733 2.7213 7.34131 2.23963 3.43783C2.22305 3.28525 2.23758 3.13088 2.28234 2.98407C2.3271 2.83726 2.40116 2.70105 2.50004 2.58366C2.59766 2.47255 2.71782 2.3835 2.85252 2.32243C2.98723 2.26137 3.13339 2.22968 3.28129 2.2295H6.40629C6.64853 2.22411 6.88507 2.30333 7.07519 2.45353C7.26532 2.60373 7.39714 2.81551 7.44796 3.05241C7.48963 3.33714 7.54171 3.61839 7.60421 3.89616C7.72454 4.44527 7.88469 4.98489 8.08338 5.51075L6.62504 6.18783C6.50035 6.24504 6.38819 6.32632 6.295 6.42699C6.20181 6.52767 6.12942 6.64576 6.08199 6.77449C6.03457 6.90322 6.01303 7.04005 6.01864 7.17712C6.02424 7.3142 6.05686 7.44882 6.11463 7.57325C7.61379 10.7845 10.1951 13.3657 13.4063 14.8649C13.6599 14.9691 13.9444 14.9691 14.198 14.8649C14.3279 14.8184 14.4473 14.7466 14.5492 14.6537C14.6511 14.5607 14.7335 14.4484 14.7917 14.3232L15.4375 12.8649C15.976 13.0575 16.5257 13.2175 17.0834 13.3441C17.3612 13.4066 17.6424 13.4587 17.9271 13.5003C18.164 13.5512 18.3758 13.683 18.526 13.8731C18.6762 14.0632 18.7554 14.2998 18.75 14.542L18.7709 17.792Z" fill="black"/>
</svg>
