<svg width="25" height="25" viewBox="0 0 25 25" fill="none" xmlns="http://www.w3.org/2000/svg">
<path d="M18.0625 5.68717C17.8153 5.68717 17.5736 5.76049 17.3681 5.89784C17.1625 6.03519 17.0023 6.23041 16.9077 6.45882C16.8131 6.68723 16.7883 6.93856 16.8366 7.18104C16.8848 7.42351 17.0038 7.64624 17.1787 7.82106C17.3535 7.99587 17.5762 8.11492 17.8187 8.16316C18.0612 8.21139 18.3125 8.18663 18.5409 8.09202C18.7693 7.99741 18.9645 7.8372 19.1019 7.63164C19.2392 7.42608 19.3125 7.1844 19.3125 6.93717C19.3125 6.60565 19.1808 6.28771 18.9464 6.05329C18.712 5.81887 18.3941 5.68717 18.0625 5.68717ZM22.8542 8.20801C22.834 7.34374 22.6721 6.48864 22.375 5.67676C22.1102 4.9821 21.6979 4.35309 21.1667 3.83301C20.6509 3.29908 20.0204 2.88944 19.323 2.63509C18.5132 2.32901 17.6572 2.16343 16.7917 2.14551C15.6875 2.08301 15.3334 2.08301 12.5 2.08301C9.66671 2.08301 9.31254 2.08301 8.20837 2.14551C7.34291 2.16343 6.48686 2.32901 5.67712 2.63509C4.98095 2.89202 4.35101 3.3013 3.83337 3.83301C3.29944 4.34882 2.88981 4.9793 2.63546 5.67676C2.32937 6.48649 2.1638 7.34254 2.14587 8.20801C2.08337 9.31218 2.08337 9.66634 2.08337 12.4997C2.08337 15.333 2.08337 15.6872 2.14587 16.7913C2.1638 17.6568 2.32937 18.5129 2.63546 19.3226C2.88981 20.0201 3.29944 20.6505 3.83337 21.1663C4.35101 21.698 4.98095 22.1073 5.67712 22.3643C6.48686 22.6703 7.34291 22.8359 8.20837 22.8538C9.31254 22.9163 9.66671 22.9163 12.5 22.9163C15.3334 22.9163 15.6875 22.9163 16.7917 22.8538C17.6572 22.8359 18.5132 22.6703 19.323 22.3643C20.0204 22.1099 20.6509 21.7003 21.1667 21.1663C21.7003 20.6482 22.1129 20.0186 22.375 19.3226C22.6721 18.5107 22.834 17.6556 22.8542 16.7913C22.8542 15.6872 22.9167 15.333 22.9167 12.4997C22.9167 9.66634 22.9167 9.31218 22.8542 8.20801ZM20.9792 16.6663C20.9716 17.3276 20.8519 17.9827 20.625 18.6038C20.4587 19.0572 20.1916 19.4668 19.8438 19.8018C19.5059 20.146 19.0972 20.4126 18.6459 20.583C18.0247 20.8098 17.3696 20.9296 16.7084 20.9372C15.6667 20.9893 15.2813 20.9997 12.5417 20.9997C9.80212 20.9997 9.41671 20.9997 8.37504 20.9372C7.68847 20.95 7.00483 20.8443 6.35421 20.6247C5.92273 20.4456 5.5327 20.1797 5.20837 19.8434C4.86263 19.5088 4.59884 19.0988 4.43754 18.6455C4.18322 18.0155 4.04217 17.3454 4.02087 16.6663C4.02087 15.6247 3.95837 15.2393 3.95837 12.4997C3.95837 9.76009 3.95837 9.37467 4.02087 8.33301C4.02554 7.65702 4.14895 6.98712 4.38546 6.35384C4.56884 5.91417 4.85032 5.52224 5.20837 5.20801C5.52485 4.84985 5.91597 4.5654 6.35421 4.37467C6.98916 4.14555 7.65837 4.0258 8.33337 4.02051C9.37504 4.02051 9.76046 3.95801 12.5 3.95801C15.2396 3.95801 15.625 3.95801 16.6667 4.02051C17.3279 4.02809 17.9831 4.14785 18.6042 4.37467C19.0776 4.55035 19.5024 4.83597 19.8438 5.20801C20.1851 5.52799 20.4519 5.91919 20.625 6.35384C20.8566 6.98815 20.9764 7.65778 20.9792 8.33301C21.0313 9.37467 21.0417 9.76009 21.0417 12.4997C21.0417 15.2393 21.0313 15.6247 20.9792 16.6663ZM12.5 7.15592C11.4436 7.15798 10.4115 7.47314 9.53406 8.06157C8.65665 8.65 7.97335 9.4853 7.57049 10.4619C7.16763 11.4385 7.0633 12.5127 7.27066 13.5486C7.47802 14.5845 7.98779 15.5356 8.73554 16.2819C9.48329 17.0282 10.4355 17.5361 11.4718 17.7415C12.5081 17.9468 13.582 17.8404 14.5578 17.4357C15.5337 17.0309 16.3676 16.346 16.9543 15.4674C17.5411 14.5889 17.8542 13.5561 17.8542 12.4997C17.8556 11.7967 17.718 11.1003 17.4493 10.4507C17.1805 9.80104 16.786 9.21094 16.2884 8.71431C15.7909 8.21769 15.2 7.82434 14.5498 7.55689C13.8997 7.28945 13.2031 7.15318 12.5 7.15592ZM12.5 15.9684C11.814 15.9684 11.1433 15.765 10.5729 15.3838C10.0025 15.0027 9.55788 14.4609 9.29533 13.8271C9.03279 13.1933 8.9641 12.4958 9.09794 11.823C9.23178 11.1501 9.56215 10.532 10.0473 10.0469C10.5324 9.56178 11.1505 9.23142 11.8233 9.09758C12.4962 8.96373 13.1936 9.03243 13.8275 9.29497C14.4613 9.55751 15.0031 10.0021 15.3842 10.5725C15.7654 11.143 15.9688 11.8136 15.9688 12.4997C15.9688 12.9552 15.8791 13.4063 15.7047 13.8271C15.5304 14.248 15.2749 14.6303 14.9528 14.9525C14.6307 15.2746 14.2483 15.5301 13.8275 15.7044C13.4066 15.8787 12.9556 15.9684 12.5 15.9684Z" fill="black"/>
</svg>
