<svg width="47" height="80" viewBox="0 0 47 80" fill="none" xmlns="http://www.w3.org/2000/svg">
<path fill-rule="evenodd" clip-rule="evenodd" d="M18.928 44.3161C17.4904 43.9632 16.17 43.4543 14.9263 42.8259L15.6248 29.4925C13.1778 28.6701 11.3525 25.4535 11.3525 21.6492C11.3525 17.2178 13.7996 13.6104 16.8686 13.6104C19.8985 13.6104 22.386 17.2178 22.386 21.6492C22.386 25.4535 20.5594 28.6701 18.1123 29.4925L18.928 44.3161Z" fill="#FD961E"/>
<path fill-rule="evenodd" clip-rule="evenodd" d="M32.1755 42.2773C30.9708 42.9831 29.6504 43.5707 28.2909 44.0023L29.0676 29.3756C27.241 28.8653 25.9205 27.1796 25.9205 25.179V14.9442C25.9205 14.4733 26.3095 14.0811 26.8143 14.0811C27.3191 14.0811 27.7081 14.4733 27.7081 14.9442V23.1391C27.7081 23.6495 28.0957 24.0417 28.5628 24.0417C29.0676 24.0417 29.4566 23.6495 29.4566 23.1391V14.9442C29.4566 14.4733 29.8442 14.0811 30.349 14.0811C30.816 14.0811 31.2427 14.4733 31.2427 14.9442V23.1391C31.2427 23.6495 31.6317 24.0417 32.0975 24.0417C32.6036 24.0417 32.9912 23.6495 32.9912 23.1391V14.9442C32.9912 14.4733 33.3802 14.0811 33.885 14.0811C34.3507 14.0811 34.7788 14.4733 34.7788 14.9442V25.179C34.7788 27.2176 33.3802 28.944 31.5146 29.4136L32.1755 42.2773Z" fill="#46AF4E"/>
<mask id="mask0_139_2033" style="mask-type:luminance" maskUnits="userSpaceOnUse" x="0" y="0" width="47" height="80">
<path d="M0 0H46.5581V80H0V0Z" fill="white"/>
</mask>
<g mask="url(#mask0_139_2033)">
<path fill-rule="evenodd" clip-rule="evenodd" d="M0.124878 23.1365C0.124878 10.3529 10.4669 0 23.237 0C36.0084 0 46.3491 10.3529 46.3491 23.1365C46.3491 42.4308 27.8203 69.6865 23.237 80.0787C18.6537 69.6865 0.124878 42.4308 0.124878 23.1365ZM23.237 5.56868C33.2655 5.56868 41.3749 13.6862 41.3749 23.6862C41.3749 33.7256 33.2655 41.8431 23.237 41.8431C13.2478 41.8431 5.13981 33.7256 5.13981 23.6862C5.13981 13.6862 13.2478 5.56868 23.237 5.56868Z" fill="#002C1F"/>
</g>
</svg>
