<svg width="263" height="263" viewBox="0 0 263 263" fill="none" xmlns="http://www.w3.org/2000/svg">
<g clip-path="url(#clip0_135_1901)">
<path d="M116.4 58.9443C112.625 59.1225 108.932 57.812 106.114 55.2948C103.525 52.8633 102.23 49.0387 102.23 43.8209C102.23 37.6001 104.113 32.856 107.879 29.5883C111.644 26.3207 116.758 24.6869 123.221 24.6869C126.956 24.5989 130.667 25.3149 134.101 26.7864C137.001 28.0348 139.459 30.1251 141.157 32.7867C142.848 35.612 143.698 38.8614 143.608 42.1532C143.634 44.7539 143.176 47.3369 142.256 49.7697C141.468 51.9362 140.19 53.8909 138.52 55.481H153.228L153.294 29.8294C153.361 28.5404 153.22 27.249 152.876 26.0051C153.51 25.8235 154.16 25.7019 154.818 25.6418C155.482 25.5681 156.149 25.5277 156.818 25.5208C159.447 25.5208 160.762 26.6783 160.763 28.9932L160.697 58.1059H129.259V56.1275C131.402 54.7638 133.087 52.7881 134.094 50.4562C135.343 47.6778 135.959 44.6563 135.897 41.6106C135.897 37.3408 134.808 33.9301 132.632 31.3783C130.456 28.8265 126.961 27.554 122.147 27.5608C117.868 27.4161 113.678 28.8056 110.333 31.4788C107.168 34.0892 105.586 38.3422 105.586 44.2378C105.586 47.9029 106.231 50.7422 107.52 52.7556C108.045 53.6688 108.755 54.4621 109.605 55.0846C110.455 55.7072 111.425 56.1453 112.454 56.3708C110.621 54.5767 109.706 51.8475 109.707 48.1831C109.707 44.8721 110.473 42.3211 112.004 40.53C112.844 39.6105 113.879 38.8915 115.034 38.426C116.188 37.9606 117.433 37.7607 118.675 37.8411C120.018 37.7532 121.364 37.9717 122.611 38.48C123.857 38.9884 124.972 39.7733 125.871 40.7756C127.586 42.9001 128.469 45.5763 128.354 48.3042C128.354 52.0935 127.23 54.8448 124.98 56.5582C122.488 58.3349 119.451 59.1794 116.4 58.9443ZM116.763 56.3731C117.371 56.4112 117.976 56.2563 118.491 55.9306C119.006 55.6049 119.405 55.125 119.631 54.5592C120.424 52.6782 120.774 50.6401 120.653 48.6023C120.724 46.7108 120.418 44.824 119.752 43.0521C119.559 42.4419 119.177 41.9092 118.66 41.5315C118.143 41.1539 117.519 40.9511 116.879 40.9527C116.217 40.9641 115.573 41.1761 115.034 41.5607C114.494 41.9453 114.084 42.4844 113.857 43.107C113.083 44.9361 112.726 46.9149 112.813 48.8993C112.714 50.8276 113.06 52.7528 113.824 54.5261C114.056 55.1052 114.466 55.5959 114.994 55.9276C115.523 56.2592 116.143 56.4148 116.765 56.372L116.763 56.3731Z" fill="#46AF4E"/>
<mask id="mask0_135_1901" style="mask-type:luminance" maskUnits="userSpaceOnUse" x="0" y="0" width="263" height="263">
<path d="M263 0H0V263H263V0Z" fill="white"/>
</mask>
<g mask="url(#mask0_135_1901)">
<path d="M192.846 239.944C187.327 242.729 175.293 248.155 175.293 248.155C174.896 248.302 174.504 248.454 174.107 248.601C163.566 252.43 152.555 254.813 141.375 255.683C141.375 220.992 123.822 220.992 123.822 255.835C112.409 255.153 101.145 252.895 90.3509 249.126C89.9629 249.008 89.5816 248.87 89.2086 248.711C74.2453 241.587 79.9565 246.156 71.6548 240.787C47.4542 227.534 28.3378 206.623 17.3046 181.332C6.27141 156.042 3.94578 127.805 10.6926 101.05C17.4393 74.2959 32.8768 50.538 54.5829 33.5042C76.2891 16.4703 103.036 7.12433 130.627 6.93241C158.218 6.74049 185.092 15.7135 207.033 32.4438C228.974 49.174 244.74 72.7148 251.859 99.3729C258.977 126.031 257.044 154.298 246.364 179.739C235.684 205.18 216.86 226.356 192.846 239.944ZM252.663 80.3139C243.552 58.6906 228.825 39.8969 210.007 25.88C191.19 11.8631 168.967 3.13295 145.64 0.59396C122.314 -1.94503 98.7333 1.79956 77.341 11.4398C55.9488 21.08 37.5233 36.2651 23.9736 55.4218C10.4239 74.5785 2.24303 97.0099 0.278476 120.392C-1.68607 143.774 2.63721 167.256 12.8004 188.405C22.9636 209.554 38.5969 227.601 58.0807 240.676C77.5645 253.751 100.19 261.378 123.613 262.767C126.206 262.923 128.86 262.995 131.494 262.995C134.858 262.995 138.272 262.866 141.636 262.611C162.417 260.994 182.516 254.462 200.278 243.555C218.04 232.648 232.956 217.676 243.798 199.874C254.64 182.072 261.098 161.949 262.639 141.162C264.18 120.376 260.761 99.5202 252.663 80.3139Z" fill="#FD961E"/>
<path d="M193.627 239.944V227C193.627 221.284 193.461 215.573 193.128 209.866C192.276 198.167 191.849 186.45 191.848 174.715C191.848 163.459 192.242 152.21 193.03 140.97C194.533 119.583 196.131 94.4319 195.926 86.4498C195.895 85.1157 194.676 83.5005 191.928 83.5005C190.58 83.4738 189.248 83.8008 188.066 84.449C186.883 85.0971 185.891 86.0437 185.189 87.1946C181.556 92.9059 169.122 114.426 169.122 165.559C169.122 169.767 174.226 170.659 176.123 172.136C176.895 172.928 177.499 173.869 177.895 174.901C178.292 175.934 178.474 177.037 178.43 178.142L176.57 209.871C176.236 215.573 176.07 221.284 176.071 227.005V248.159C175.676 248.302 191.734 241.038 193.627 239.944Z" fill="#FD961E"/>
<path d="M88.8535 248.708V226.792C88.8535 221.076 88.6871 215.368 88.3543 209.667L85.525 167.546C85.3425 164.396 86.0507 161.259 87.5685 158.493L93.074 150.611C93.074 150.611 105.771 135.665 105.771 121.699C105.771 100.72 94.2688 83.7148 80.0708 83.7148C65.8728 83.7148 54.3705 100.72 54.3705 121.699C54.3705 135.666 67.0642 150.617 67.0642 150.617L72.5652 158.498C74.0849 161.264 74.7932 164.402 74.6086 167.552L71.7896 209.667C71.4591 215.364 71.2927 221.073 71.2904 226.792V240.788C73.4664 243.483 89.2327 248.846 88.8535 248.708Z" fill="#FD961E"/>
<path d="M141.418 255.686V226.706C141.418 220.994 141.252 215.286 140.919 209.581L138.096 161.227C137.912 158.077 138.621 154.939 140.14 152.174C140.14 152.174 147.222 144.258 147.653 138.489C148.528 121.025 145.141 84.2858 143.427 83.7946H141.911C139.855 84.1475 143.692 128.263 140.233 128.263H139.163C136.281 128.263 139.011 83.6004 136.701 83.7946H135.058C133.929 83.7946 135.549 128.263 133.443 128.263H131.844C129.06 128.263 131.357 83.7946 130.224 83.7946H128.586C126.279 83.5981 129.01 128.263 126.128 128.263H125.058C121.596 128.263 125.432 84.1475 123.375 83.7946H121.849C120.145 84.2858 116.758 121.025 117.633 138.489C117.896 141.389 119.77 144.812 121.582 147.507C122.675 149.133 123.864 150.691 125.142 152.175C126.663 154.94 127.373 158.078 127.19 161.228L124.361 209.582C124.03 215.284 123.865 220.993 123.865 226.707V255.834C112.421 255.147 152.631 254.808 141.418 255.686Z" fill="#46AF4E"/>
</g>
</g>
<defs>
<clipPath id="clip0_135_1901">
<rect width="263" height="263" fill="white"/>
</clipPath>
</defs>
</svg>
