<svg width="26" height="20" viewBox="0 0 26 20" fill="none" xmlns="http://www.w3.org/2000/svg">
<path fill-rule="evenodd" clip-rule="evenodd" d="M21.6577 2.16577H4.33155C3.13543 2.16577 2.16577 3.13543 2.16577 4.33154V15.6684C2.16577 16.8646 3.13543 17.8342 4.33155 17.8342H21.6577C22.8539 17.8342 23.8235 16.8646 23.8235 15.6684V4.33154C23.8235 3.13543 22.8539 2.16577 21.6577 2.16577ZM4.33155 0C1.9393 0 0 1.9393 0 4.33154V15.6684C0 18.0608 1.9393 20 4.33155 20H21.6577C24.05 20 25.9893 18.0608 25.9893 15.6684V4.33154C25.9893 1.9393 24.05 0 21.6577 0H4.33155Z" fill="#002C1F"/>
<path fill-rule="evenodd" clip-rule="evenodd" d="M25.2766 6.68576L13.5128 10.9635C13.1781 11.0852 12.8113 11.0852 12.4766 10.9635L0.712891 6.68576L1.45304 4.65039L12.9947 8.84735L24.5363 4.65039L25.2766 6.68576Z" fill="#002C1F"/>
</svg>
