<svg width="25" height="25" viewBox="0 0 25 25" fill="none" xmlns="http://www.w3.org/2000/svg">
<path d="M12.4908 1.04247C10.9979 0.988148 9.50935 1.23695 8.11519 1.77385C6.72104 2.31076 5.45015 3.12463 4.37926 4.16633C3.30837 5.20803 2.4597 6.45595 1.88448 7.83474C1.30927 9.21353 1.01944 10.6946 1.0325 12.1885C1.01292 13.7279 1.31973 15.2539 1.93272 16.6661C2.5457 18.0782 3.45094 19.3445 4.58881 20.3815L4.64269 22.1423C4.65797 22.6291 4.86208 23.0908 5.21182 23.4297C5.56156 23.7687 6.02946 23.9582 6.51648 23.9581C6.77698 23.9578 7.03461 23.9038 7.27331 23.7994L9.27425 22.9175C10.3235 23.1968 11.405 23.3371 12.4908 23.3345C13.9838 23.3889 15.4724 23.1401 16.8666 22.6032C18.2608 22.0663 19.5318 21.2525 20.6028 20.2108C21.6738 19.1691 22.5225 17.9212 23.0979 16.5424C23.6732 15.1636 23.9631 13.6825 23.9502 12.1885C23.9631 10.6945 23.6732 9.21345 23.0979 7.83464C22.5225 6.45584 21.6738 5.20792 20.6028 4.16623C19.5318 3.12454 18.2609 2.31068 16.8666 1.7738C15.4724 1.23691 13.9839 0.988131 12.4908 1.04247ZM12.4908 21.2512C11.5637 21.2539 10.6405 21.131 9.74629 20.886C9.33221 20.7743 8.89234 20.8081 8.50015 20.9816L6.71487 21.769L6.66808 20.2136C6.65773 19.9617 6.59693 19.7144 6.4893 19.4864C6.38166 19.2583 6.22937 19.0542 6.04145 18.8861C5.10452 18.0428 4.35876 17.0089 3.85417 15.8538C3.34958 14.6986 3.09784 13.4489 3.11583 12.1885C3.10916 10.9699 3.34947 9.76264 3.82225 8.6395C4.29503 7.51636 4.99047 6.50066 5.86662 5.6537C6.74276 4.80675 7.78143 4.1461 8.91994 3.71162C10.0584 3.27715 11.2732 3.07787 12.4908 3.12581C13.7069 3.08447 14.9188 3.28829 16.0544 3.72512C17.1901 4.16196 18.2262 4.82287 19.101 5.6685C19.9759 6.51413 20.6716 7.52719 21.1468 8.64732C21.622 9.76746 21.8668 10.9718 21.8668 12.1885C21.8668 13.4053 21.622 14.6096 21.1468 15.7297C20.6716 16.8498 19.9759 17.8629 19.101 18.7085C18.2262 19.5541 17.1901 20.2151 16.0544 20.6519C14.9188 21.0887 13.7069 21.2925 12.4908 21.2512ZM16.3808 8.94347L13.972 11.8131L10.4858 9.67081C10.2731 9.53985 10.0203 9.48989 9.77369 9.53006C9.52711 9.57023 9.30324 9.69785 9.14305 9.88956L5.96414 13.6778C5.87574 13.7824 5.80887 13.9035 5.76736 14.0341C5.72584 14.1646 5.71051 14.3021 5.72222 14.4386C5.73393 14.5751 5.77247 14.708 5.83563 14.8295C5.89878 14.9511 5.98531 15.059 6.09025 15.1471C6.19519 15.2352 6.31648 15.3017 6.44717 15.3428C6.57785 15.3839 6.71537 15.3988 6.85184 15.3867C6.9883 15.3745 7.12103 15.3356 7.24241 15.2721C7.36379 15.2085 7.47144 15.1217 7.5592 15.0165L10.1613 11.9169L13.6474 14.0582C13.8601 14.1893 14.1128 14.2394 14.3593 14.1994C14.6059 14.1594 14.8298 14.032 14.9902 13.8405L17.9758 10.2822C18.0647 10.1776 18.1321 10.0564 18.174 9.92571C18.2159 9.79498 18.2316 9.65725 18.2201 9.52044C18.2086 9.38364 18.1701 9.25046 18.1069 9.12858C18.0437 9.0067 17.9571 8.89851 17.8519 8.81025C17.7468 8.72199 17.6252 8.6554 17.4942 8.61431C17.3632 8.57322 17.2254 8.55844 17.0887 8.57082C16.9519 8.5832 16.819 8.6225 16.6975 8.68646C16.576 8.75041 16.4684 8.83776 16.3808 8.94347Z" fill="black"/>
</svg>
