<svg width="25" height="25" viewBox="0 0 25 25" fill="none" xmlns="http://www.w3.org/2000/svg">
<path d="M17.2917 14.5837C17.0834 14.4795 15.7292 13.8545 15.5209 13.7503C15.3125 13.6462 15.1042 13.6462 14.8959 13.8545C14.6875 14.0628 14.2709 14.6878 14.0625 14.8962C13.9584 15.1045 13.75 15.1045 13.5417 15.0003C12.8125 14.6878 12.0834 14.2712 11.4584 13.7503C10.9375 13.2295 10.4167 12.6045 10 11.9795C9.89587 11.7712 10 11.5628 10.1042 11.4587C10.2084 11.3545 10.3125 11.1462 10.5209 11.042C10.625 10.9378 10.7292 10.7295 10.7292 10.6253C10.8334 10.5212 10.8334 10.3128 10.7292 10.2087C10.625 10.1045 10.1042 8.85449 9.89587 8.33366C9.79171 7.60449 9.58337 7.60449 9.37504 7.60449H8.85421C8.64587 7.60449 8.33337 7.81283 8.22921 7.91699C7.60421 8.54199 7.29171 9.27116 7.29171 10.1045C7.39587 11.042 7.70837 11.9795 8.33337 12.8128C9.47921 14.4795 10.9375 15.8337 12.7084 16.667C13.2292 16.8753 13.6459 17.0837 14.1667 17.1878C14.6875 17.3962 15.2084 17.3962 15.8334 17.292C16.5625 17.1878 17.1875 16.667 17.6042 16.042C17.8125 15.6253 17.8125 15.2087 17.7084 14.792L17.2917 14.5837ZM19.8959 5.10449C15.8334 1.04199 9.27087 1.04199 5.20837 5.10449C1.87504 8.43783 1.25004 13.542 3.54171 17.6045L2.08337 22.917L7.60421 21.4587C9.16671 22.292 10.8334 22.7087 12.5 22.7087C18.2292 22.7087 22.8125 18.1253 22.8125 12.3962C22.9167 9.68782 21.7709 7.08366 19.8959 5.10449ZM17.0834 19.6878C15.7292 20.5212 14.1667 21.042 12.5 21.042C10.9375 21.042 9.47921 20.6253 8.12504 19.8962L7.81254 19.6878L4.58337 20.5212L5.41671 17.3962L5.20837 17.0837C2.70837 12.917 3.95837 7.70866 8.02087 5.10449C12.0834 2.50033 17.2917 3.85449 19.7917 7.81283C22.2917 11.8753 21.1459 17.1878 17.0834 19.6878Z" fill="black"/>
</svg>
