<svg width="35" height="35" viewBox="0 0 35 35" fill="none" xmlns="http://www.w3.org/2000/svg">
<path fill-rule="evenodd" clip-rule="evenodd" d="M21.6514 12.9367C24.5211 13.4799 26.386 12.0993 26.7391 7.87158C25.0462 7.87158 20.8049 8.55508 21.6514 12.9367ZM16.1925 19.4638C18.003 21.5596 19.3067 22.0485 22.783 19.4638C20.5197 18.1557 18.5734 16.3723 16.1925 19.4638ZM19.4968 16.155C21.167 18.1059 22.4028 18.5631 25.6346 16.155C23.5389 14.9374 21.7193 13.2762 19.4968 16.155ZM11.3899 22.1254C9.03159 20.1066 8.47937 18.6129 11.3899 14.702C12.8655 17.2414 14.8753 19.4412 11.3899 22.1254ZM15.1287 18.4001C13.033 16.6122 12.5441 15.2859 15.1287 11.8096C16.4369 14.0728 18.2203 16.0192 15.1287 18.4001ZM18.4376 15.0958C16.4912 13.4255 16.034 12.1944 18.4376 8.95793C19.6597 11.0582 21.3209 12.8778 18.4376 15.0958ZM12.4672 23.2027C14.486 25.561 15.9797 26.1132 19.8906 23.2027C17.3512 21.7271 15.1514 19.7173 12.4672 23.2027ZM10.1723 23.3702C10.3145 23.2309 10.5063 23.1539 10.7053 23.156C10.9044 23.1581 11.0945 23.2392 11.2337 23.3815C11.373 23.5238 11.45 23.7155 11.4479 23.9146C11.4458 24.1136 11.3647 24.3037 11.2224 24.4429L9.54308 26.1268C9.47383 26.1957 9.39168 26.2504 9.30131 26.2876C9.21095 26.3248 9.11414 26.3438 9.01642 26.3436C8.91869 26.3434 8.82196 26.324 8.73176 26.2864C8.64155 26.2488 8.55964 26.1938 8.49068 26.1245C8.42173 26.0553 8.36709 25.9731 8.32989 25.8828C8.29268 25.7924 8.27364 25.6956 8.27386 25.5979C8.27407 25.5001 8.29352 25.4034 8.33111 25.3132C8.36871 25.223 8.4237 25.1411 8.49295 25.0721L10.1723 23.3928V23.3702Z" fill="#1378FF"/>
<path d="M17.4915 2.08064e-05C16.3441 -0.00175738 15.1993 0.110446 14.0741 0.334979C12.9526 0.554588 11.8562 0.886699 10.8014 1.32627C9.74249 1.76343 8.72962 2.30473 7.77775 2.94222C6.82457 3.57956 5.93616 4.30879 5.12524 5.11945C3.49807 6.74483 2.20753 8.67525 1.32754 10.8002C0.229485 13.4562 -0.19749 16.3418 0.0843459 19.202C0.366181 22.0621 1.34815 24.8089 2.94349 27.1995C3.58211 28.16 4.31282 29.0559 5.12524 29.8746L5.1524 29.9018C5.95639 30.7025 6.83555 31.4241 7.77775 32.0564C8.73168 32.6904 9.7442 33.2316 10.8014 33.6723C15.0843 35.4425 19.8943 35.4425 24.1771 33.6723C26.302 32.7924 28.2324 31.5018 29.8578 29.8746C31.4847 28.2413 32.7737 26.3032 33.651 24.1713C34.0906 23.1181 34.4227 22.0232 34.6423 20.9032C35.0889 18.6483 35.0889 16.3277 34.6423 14.0728C34.4233 12.9512 34.0912 11.8547 33.651 10.8002C33.2138 9.74122 32.6725 8.72835 32.035 7.77648C31.3968 6.82254 30.6677 5.9327 29.8578 5.11945C29.0457 4.30825 28.1558 3.57899 27.2008 2.94222C26.2489 2.30473 25.236 1.76343 24.1771 1.32627C23.1225 0.886058 22.0261 0.553927 20.9045 0.334979C19.7807 0.110685 18.6375 -0.00151737 17.4915 2.08064e-05ZM6.06222 8.74967L26.2276 28.915C26.2771 28.9643 26.3165 29.0228 26.3433 29.0873C26.3701 29.1518 26.3839 29.2209 26.3839 29.2907C26.3839 29.3606 26.3701 29.4297 26.3433 29.4942C26.3165 29.5587 26.2771 29.6172 26.2276 29.6664C26.2003 29.6971 26.1682 29.7231 26.1325 29.7434C25.5696 30.1413 24.9797 30.4997 24.3672 30.8162C23.7472 31.1391 23.1042 31.416 22.4435 31.6445C21.6587 31.9228 20.8516 32.1333 20.0309 32.2737C19.1991 32.4117 18.3573 32.4813 17.5142 32.4819C16.5294 32.4837 15.5469 32.3882 14.581 32.1967C12.6466 31.8159 10.8067 31.056 9.16737 29.9607C8.35426 29.4122 7.5963 28.7861 6.90414 28.0912C5.51232 26.6944 4.40543 25.0402 3.64509 23.2208C2.90232 21.4203 2.51793 19.4922 2.51348 17.5446V17.4857C2.51327 16.6438 2.58444 15.8034 2.72622 14.9735C2.86587 14.1438 3.07637 13.3276 3.3554 12.5338C3.58391 11.8731 3.86078 11.2301 4.18374 10.61C4.50439 9.98164 4.86892 9.37661 5.27462 8.79946C5.3581 8.69155 5.48001 8.62002 5.61493 8.59978C5.74985 8.57954 5.88738 8.61216 5.99885 8.69082L6.06675 8.74967H6.06222ZM28.1061 27.2674L7.70985 6.87119C7.66031 6.82196 7.62099 6.76343 7.59416 6.69895C7.56733 6.63447 7.55352 6.56533 7.55352 6.49549C7.55352 6.42565 7.56733 6.3565 7.59416 6.29203C7.62099 6.22755 7.66031 6.16901 7.70985 6.11979L7.76869 6.06548C8.38568 5.5408 9.04418 5.06699 9.7377 4.64869C10.4375 4.22262 11.1718 3.85619 11.933 3.55329C12.8108 3.20173 13.7203 2.93496 14.6489 2.75663C15.5847 2.58044 16.5348 2.49104 17.487 2.48957C18.4701 2.48986 19.4509 2.58537 20.4156 2.77474C21.378 2.96445 22.3195 3.24795 23.2266 3.62119C24.1334 3.99593 25.0007 4.45991 25.8157 5.00628C27.4562 6.0999 28.8647 7.50645 29.9607 9.14535C31.0567 10.7843 31.8185 12.6233 32.2025 14.5571C32.3919 15.5218 32.4874 16.5026 32.4877 17.4857C32.4862 18.438 32.3968 19.388 32.2206 20.3238C32.0423 21.2525 31.7755 22.1619 31.424 23.0397C30.812 24.5661 29.9542 25.982 28.8846 27.2312C28.8395 27.2841 28.7843 27.3276 28.7223 27.3592C28.6603 27.3908 28.5927 27.4099 28.5234 27.4154C28.454 27.4208 28.3843 27.4126 28.3181 27.3911C28.2519 27.3696 28.1907 27.3352 28.1378 27.29L28.1061 27.2629V27.2674Z" fill="#1378FF"/>
</svg>
