<svg width="214" height="26" viewBox="0 0 214 26" fill="none" xmlns="http://www.w3.org/2000/svg">
<g clip-path="url(#clip0_253_2400)">
<path d="M62.0472 7.54729V18.4709H64.7708C65.4659 18.4606 66.1518 18.311 66.7881 18.0309C67.4243 17.7508 67.9979 17.346 68.475 16.8403C69.4541 15.8037 69.9898 14.4258 69.968 13.0001C69.9888 12.2919 69.8694 11.5866 69.6168 10.9247C69.3641 10.2628 68.9832 9.65734 68.4958 9.14312C68.0168 8.63677 67.4392 8.23385 66.7985 7.95916C66.1579 7.68447 65.4678 7.54383 64.7708 7.5459H62.0486L62.0472 7.54729ZM64.7708 4.12229C69.8472 4.12229 73.6875 8.05562 73.6875 13.0001C73.6875 17.9445 69.8472 21.9001 64.7708 21.9001H58.7639C58.7066 21.8993 58.65 21.8873 58.5974 21.8647C58.5448 21.8422 58.4971 21.8094 58.4571 21.7684C58.4171 21.7274 58.3856 21.6789 58.3644 21.6257C58.3431 21.5725 58.3326 21.5157 58.3333 21.4584V4.58201C58.3333 4.33756 58.5264 4.13895 58.7639 4.13895L64.7708 4.12229ZM86.7722 18.8515C89.0778 18.8584 91.1597 17.4403 92.0472 15.2584C92.482 14.1923 92.5981 13.023 92.3817 11.8922C92.1653 10.7615 91.6255 9.71773 90.8278 8.88756C90.044 8.07103 89.031 7.51147 87.9225 7.28284C86.814 7.0542 85.6623 7.16723 84.6194 7.60701C82.4889 8.50701 81.0972 10.6362 81.093 13.0001C81.093 16.2223 83.6305 18.8362 86.7722 18.8515ZM86.7736 3.71951C92.1166 3.71951 96.2014 7.93062 96.2014 13.0001C96.2014 18.0695 92.1166 22.2806 86.7722 22.2806C81.4291 22.2806 77.3791 18.0903 77.3791 13.0001C77.3791 7.90979 81.4653 3.71951 86.7736 3.71951ZM109.181 18.8515C112.324 18.8431 114.867 16.2265 114.864 13.0042C114.86 9.77923 112.311 7.16812 109.169 7.16673C106.025 7.16673 103.475 9.77645 103.471 13.0001C103.471 14.5528 104.072 16.0417 105.143 17.139C105.667 17.6797 106.294 18.1098 106.988 18.404C107.681 18.6981 108.427 18.8503 109.181 18.8515ZM109.179 3.71951C114.506 3.71951 118.59 7.90979 118.59 13.0001C118.59 18.0903 114.489 22.2806 109.179 22.2806C103.871 22.2806 99.7514 18.0903 99.7514 13.0001C99.7514 7.90979 103.836 3.71951 109.179 3.71951ZM131.049 7.54729H127.208V12.2487H131.049C131.352 12.2621 131.655 12.2132 131.939 12.105C132.223 11.9968 132.481 11.8316 132.699 11.6195C133.143 11.189 133.396 10.5917 133.401 9.96395C133.413 9.64546 133.359 9.328 133.245 9.03061C133.13 8.73323 132.957 8.46206 132.735 8.2334C132.517 8.00836 132.254 7.83143 131.964 7.71398C131.673 7.59653 131.362 7.54117 131.049 7.55145V7.54729ZM123.493 4.58201C123.493 4.33756 123.687 4.13895 123.925 4.13895H131.156C134.603 4.13895 137.097 6.72923 137.097 9.98201C137.124 12.182 135.922 14.2028 134.004 15.1876L137.339 21.2334C137.385 21.3029 137.411 21.3838 137.414 21.4672C137.417 21.5505 137.397 21.6331 137.356 21.7056C137.315 21.7771 137.256 21.8354 137.183 21.8739C137.111 21.9123 137.029 21.9291 136.947 21.9223H134.021C133.94 21.9234 133.86 21.9016 133.791 21.8594C133.721 21.8171 133.665 21.7561 133.629 21.6834L130.415 15.7001H127.194V21.4445C127.195 21.5019 127.185 21.5589 127.164 21.6123C127.143 21.6656 127.111 21.7143 127.071 21.7554C127.031 21.7966 126.983 21.8294 126.931 21.8521C126.878 21.8748 126.821 21.8868 126.764 21.8876H123.944C123.887 21.8868 123.83 21.8748 123.778 21.8521C123.725 21.8294 123.677 21.7966 123.637 21.7554C123.597 21.7143 123.566 21.6656 123.545 21.6123C123.523 21.5589 123.513 21.5019 123.514 21.4445L123.494 4.5834L123.493 4.58201ZM146.781 7.63062V18.5556H149.503C150.198 18.5462 150.884 18.3975 151.52 18.1184C152.157 17.8393 152.731 17.4354 153.208 16.9306C154.188 15.8952 154.725 14.5183 154.704 13.0931C154.726 12.3841 154.608 11.6776 154.356 11.0145C154.104 10.3514 153.724 9.74462 153.236 9.22923C152.756 8.72203 152.178 8.31861 151.536 8.04389C150.894 7.76917 150.202 7.62899 149.504 7.63201L146.781 7.63062ZM149.503 4.20145C154.579 4.20145 158.419 8.13895 158.419 13.0931C158.419 18.0473 154.579 21.9848 149.503 21.9848H143.514C143.456 21.9841 143.4 21.972 143.347 21.9493C143.294 21.9267 143.247 21.8938 143.207 21.8526C143.167 21.8115 143.135 21.7628 143.114 21.7095C143.093 21.6561 143.082 21.5991 143.083 21.5417V4.66673C143.083 4.4209 143.276 4.22229 143.514 4.22229L149.503 4.20145ZM169.747 8.5459L167.64 14.3876H171.85L169.747 8.5459ZM166.404 17.689L165.025 21.5778C164.997 21.6693 164.94 21.749 164.862 21.8044C164.784 21.8597 164.69 21.8875 164.594 21.8834H161.603C161.527 21.8905 161.45 21.877 161.381 21.8442C161.312 21.8115 161.252 21.7607 161.21 21.6973C161.166 21.6331 161.14 21.5587 161.133 21.4814C161.126 21.404 161.14 21.3262 161.172 21.2556L167.636 4.3959C167.666 4.30699 167.725 4.23037 167.802 4.17772C167.88 4.12506 167.973 4.09926 168.067 4.10423H171.414C171.508 4.09895 171.601 4.1246 171.679 4.17728C171.757 4.22996 171.816 4.30675 171.846 4.3959L178.31 21.2556C178.342 21.3264 178.355 21.4042 178.348 21.4816C178.341 21.5589 178.315 21.6332 178.271 21.6973C178.228 21.7605 178.169 21.8109 178.1 21.8434C178.03 21.8759 177.954 21.8893 177.878 21.882H174.887C174.792 21.8861 174.698 21.8583 174.62 21.803C174.542 21.7476 174.485 21.668 174.457 21.5765L173.078 17.6876H166.404V17.689ZM181.778 8.92506C181.778 6.1334 184.131 3.71951 187.846 3.71951C189.847 3.67483 191.784 4.42324 193.235 5.80145C193.279 5.84325 193.314 5.89363 193.338 5.94952C193.362 6.0054 193.375 6.06561 193.375 6.12645C193.375 6.1873 193.362 6.24751 193.338 6.30339C193.314 6.35927 193.279 6.40965 193.235 6.45145L191.578 8.13895C191.538 8.17995 191.491 8.21255 191.438 8.23481C191.386 8.25708 191.329 8.26855 191.272 8.26855C191.215 8.26855 191.159 8.25708 191.106 8.23481C191.054 8.21255 191.006 8.17995 190.967 8.13895C190.186 7.40745 189.161 6.993 188.092 6.97645C186.606 6.97645 185.507 7.86117 185.507 8.88201C185.507 12.182 194.289 10.2778 194.289 16.6278C194.285 19.8459 191.914 22.2806 187.722 22.2806C186.558 22.2925 185.404 22.0702 184.327 21.6269C183.251 21.1836 182.275 20.5283 181.457 19.7001C181.413 19.6583 181.377 19.6079 181.353 19.552C181.329 19.4961 181.317 19.4359 181.317 19.3751C181.317 19.3142 181.329 19.254 181.353 19.1981C181.377 19.1422 181.413 19.0919 181.457 19.0501L183.06 17.4056C183.1 17.3626 183.148 17.3283 183.202 17.3049C183.256 17.2814 183.314 17.2693 183.372 17.2693C183.431 17.2693 183.489 17.2814 183.543 17.3049C183.596 17.3283 183.645 17.3626 183.685 17.4056C184.694 18.4055 186.052 18.9734 187.472 18.989C189.329 18.989 190.553 17.9723 190.553 16.6987C190.553 13.3973 181.775 15.3028 181.775 8.95145M210.214 4.55979V11.232H202.781V4.55979C202.781 4.50251 202.771 4.44566 202.749 4.39247C202.728 4.33927 202.697 4.29078 202.657 4.24977C202.617 4.20876 202.569 4.17602 202.516 4.15343C202.464 4.13084 202.407 4.11884 202.35 4.11812H199.531C199.473 4.11884 199.417 4.13084 199.364 4.15343C199.311 4.17602 199.264 4.20876 199.224 4.24977C199.184 4.29078 199.152 4.33927 199.131 4.39247C199.11 4.44566 199.099 4.50251 199.1 4.55979V21.4167C199.1 21.6612 199.294 21.8598 199.531 21.8598H202.35C202.586 21.8598 202.781 21.6612 202.781 21.4167V14.639H210.208V21.4167C210.208 21.6612 210.403 21.8598 210.639 21.8598H213.458C213.696 21.8598 213.889 21.6612 213.889 21.4167V4.55979C213.89 4.50251 213.879 4.44566 213.858 4.39247C213.837 4.33927 213.805 4.29078 213.765 4.24977C213.725 4.20876 213.677 4.17602 213.625 4.15343C213.572 4.13084 213.516 4.11884 213.458 4.11812H210.639C210.524 4.12103 210.415 4.16903 210.336 4.2517C210.256 4.33437 210.212 4.44506 210.214 4.55979ZM42.5069 6.36812C40.5514 2.74312 36.725 0.486175 32.5639 0.500064H1.08053C0.867912 0.500927 0.660251 0.564335 0.483418 0.682388C0.306586 0.80044 0.168402 0.967918 0.0860826 1.16395C0.00496657 1.35873 -0.0161596 1.57329 0.0254099 1.78015C0.0669794 1.987 0.169352 2.17674 0.319416 2.32506L7.17775 9.13062C7.78331 9.7334 8.6083 10.0709 9.46664 10.0709H31.6611C33.243 10.0542 34.5361 11.307 34.5527 12.8667C34.5694 14.4265 33.3014 15.7042 31.7194 15.7195H16.418C16.2053 15.7196 15.9972 15.7823 15.8199 15.8999C15.6425 16.0175 15.5037 16.1847 15.4208 16.3806C15.3389 16.5756 15.3172 16.7907 15.3586 16.9981C15.3999 17.2055 15.5024 17.3958 15.6528 17.5445L22.5153 24.3556C23.1246 24.9581 23.9472 25.2955 24.8041 25.2945H31.725C40.7291 25.2945 47.5375 15.7945 42.5069 6.36395" fill="#FF3008"/>
</g>
<defs>
<clipPath id="clip0_253_2400">
<rect width="213.889" height="25" fill="white" transform="translate(0 0.5)"/>
</clipPath>
</defs>
</svg>
