<svg width="178" height="50" viewBox="0 0 178 50" fill="none" xmlns="http://www.w3.org/2000/svg">
<path d="M176.643 19.775C176.732 19.775 176.821 19.7158 176.821 19.5974C176.821 19.479 176.761 19.4198 176.643 19.4198H176.465V19.775H176.643ZM176.288 19.3014H176.673C176.88 19.3014 176.998 19.4198 176.998 19.627C176.998 19.775 176.88 19.8638 176.821 19.8934C176.821 19.8934 176.821 19.8934 176.85 19.9526L177.057 20.3375H176.85L176.673 19.9526H176.495V20.3375H176.288V19.3014ZM176.613 20.6335C177.057 20.6335 177.383 20.2783 177.383 19.8342C177.383 19.3902 177.057 19.0349 176.613 19.0349C176.169 19.0349 175.844 19.3902 175.844 19.8342C175.844 20.2783 176.199 20.6335 176.613 20.6335ZM176.613 18.8277C177.146 18.8277 177.59 19.2718 177.59 19.8342C177.59 20.3967 177.146 20.8407 176.613 20.8407C176.081 20.8407 175.636 20.3967 175.636 19.8342C175.666 19.2718 176.081 18.8277 176.613 18.8277ZM171.758 36.1457C171.788 36.8561 171.551 37.5666 171.137 38.1291L171.166 38.1587L171.196 38.1291C170.811 38.6027 170.219 38.8396 169.627 38.7803H167.2V33.5998H169.627C170.219 33.5406 170.811 33.807 171.196 34.251L171.166 34.2214C171.581 34.7839 171.788 35.4648 171.758 36.1457ZM167.17 24.0379H169.301C169.834 24.0083 170.367 24.2155 170.722 24.6004L170.752 24.63C171.137 25.1332 171.314 25.7549 171.255 26.3766C171.314 27.0278 171.107 27.7087 170.722 28.2416V28.212C170.367 28.6264 169.864 28.8336 169.301 28.804H167.14V24.0379H167.17ZM176.732 36.116V36.1457C176.732 34.1326 175.814 32.238 174.245 30.9651L174.275 30.9947L174.304 30.9651C175.607 29.7217 176.317 28.0047 176.317 26.2285V26.3173C176.377 24.4523 175.725 22.6169 174.512 21.196L174.541 21.2552C173.209 19.775 171.314 18.9461 169.301 18.9757H162.493C162.256 18.9757 162.078 19.1533 162.078 19.3902V43.3393C162.078 43.5761 162.256 43.7537 162.493 43.7537H169.568C171.729 43.7833 173.771 42.8656 175.133 41.2078L175.104 41.2374C176.288 39.7573 176.85 37.9515 176.732 36.116ZM158.319 36.4417V19.3902C158.289 19.1829 158.141 19.0053 157.934 19.0053H153.552C153.345 18.9757 153.138 19.1533 153.138 19.3606V36.4121C153.168 37.093 152.99 37.7738 152.575 38.3363C151.865 39.106 150.651 39.1948 149.852 38.4843C149.793 38.4547 149.763 38.3955 149.704 38.3363C149.29 37.7738 149.112 37.1226 149.142 36.4417V19.3902C149.112 19.1829 148.934 19.0053 148.727 19.0053H144.375C144.168 19.0053 143.961 19.1533 143.961 19.3902V36.5009C143.813 38.5139 144.464 40.5269 145.796 42.0959L145.856 42.1551C148.905 44.9082 153.552 44.8786 156.572 42.0663L156.513 42.1255C157.815 40.4973 158.467 38.4843 158.319 36.4417ZM139.816 19.0053H135.554C135.317 19.0053 135.139 19.183 135.139 19.4198V28.6856H130.817V19.4198C130.817 19.183 130.639 19.0053 130.403 19.0053H126.169C125.933 19.0053 125.755 19.183 125.755 19.4198V43.3097C125.755 43.5465 125.933 43.7241 126.169 43.7241H130.403C130.639 43.7241 130.817 43.5465 130.817 43.3097V33.6886H135.139V43.3097C135.139 43.5465 135.317 43.7241 135.554 43.7241H139.816C140.053 43.7241 140.231 43.5465 140.231 43.3097V19.4198C140.231 19.2126 140.053 19.0053 139.816 19.0053ZM117.555 36.1457C117.584 36.8561 117.348 37.5666 116.933 38.1291L116.963 38.1587L116.992 38.1291C116.607 38.6027 116.015 38.8396 115.423 38.7803H112.996V33.5998H115.423C116.015 33.5406 116.607 33.807 116.992 34.251L116.963 34.2214C117.377 34.7839 117.584 35.4648 117.555 36.1457ZM112.966 24.0379H115.098C115.631 24.0083 116.163 24.2155 116.519 24.6004L116.548 24.63C116.933 25.1332 117.111 25.7549 117.052 26.3766C117.111 27.0278 116.903 27.7087 116.519 28.2416V28.212C116.163 28.6264 115.66 28.8336 115.098 28.804H112.937V24.0379H112.966ZM122.558 36.116V36.1753C122.558 34.1622 121.64 32.2676 120.071 30.9947L120.101 30.9651C121.403 29.7217 122.114 28.0047 122.114 26.2285C122.143 24.4227 121.492 22.6761 120.308 21.2848V21.3144C118.976 19.8342 117.081 19.0053 115.068 19.0349H108.289C108.052 19.0349 107.874 19.2126 107.874 19.4494V43.3393C107.874 43.5761 108.052 43.7537 108.289 43.7537H115.394C117.555 43.7833 119.597 42.8656 120.959 41.2078L120.93 41.2374C122.114 39.7573 122.676 37.9515 122.558 36.116ZM104.144 36.4417V19.3902C104.115 19.1829 103.937 19.0053 103.73 19.0053H99.3783C99.1711 19.0053 98.9639 19.1533 98.9639 19.3902V36.4417C98.9935 37.1522 98.7863 37.833 98.3718 38.3955C97.6613 39.1652 96.4476 39.2244 95.6779 38.5139C95.6187 38.4843 95.5891 38.4251 95.5299 38.3659C95.1155 37.8034 94.9378 37.1522 94.9674 36.4713V19.3902C94.9674 19.1829 94.7898 19.0053 94.5826 19.0053H94.553H90.2013C89.9941 18.9757 89.7869 19.1533 89.7869 19.3606V36.4121C89.6388 38.4547 90.2901 40.4973 91.6223 42.0367C93.0136 43.4281 94.9378 44.1978 96.9509 44.1385H97.0101C98.9935 44.1978 100.918 43.4577 102.339 42.0367C103.612 40.4973 104.292 38.4843 104.144 36.4417ZM81.0243 28.6856C80.6098 29.1593 79.9882 29.3961 79.3369 29.3665H77.2647V24.0083H79.3369C79.9882 23.9787 80.5802 24.2451 81.0243 24.6892V24.7188C81.4683 25.2516 81.7052 25.9325 81.6756 26.6134V26.643C81.7348 27.3831 81.4979 28.1231 81.0243 28.6856ZM83.659 33.0965C84.103 32.7709 84.5175 32.4156 84.8727 32.0308L84.8431 32.0604C86.1456 30.5506 86.8265 28.6264 86.7673 26.643V26.5838C86.7969 24.63 86.0864 22.7353 84.7839 21.2848L84.8727 21.3736C83.5702 19.8934 81.7052 19.0349 79.7513 18.9757H72.6169C72.3801 18.9757 72.2025 19.1533 72.2025 19.3902V43.3097C72.2025 43.5465 72.3801 43.7241 72.6169 43.7241H76.8502C77.087 43.7241 77.2647 43.5465 77.2647 43.3097V34.4879H78.8336L81.5275 43.5169C81.5867 43.6945 81.7348 43.8129 81.942 43.8129H86.4417C86.5897 43.8129 86.7081 43.7537 86.7969 43.6353C86.8561 43.5169 86.8561 43.3689 86.7969 43.2505L83.659 33.0965ZM67.0811 20.6927C65.6602 19.2718 63.7359 18.5317 61.7525 18.5909H61.7229C59.7395 18.5317 57.7857 19.2718 56.3943 20.6927L56.4535 20.6335C55.0918 22.2025 54.4109 24.2155 54.5293 26.2581V36.4417C54.3813 38.4843 55.0326 40.5269 56.3647 42.0663C57.7561 43.4577 59.6803 44.2274 61.6933 44.1682H61.7821C63.7655 44.2274 65.7194 43.4873 67.1107 42.0663C68.4429 40.4973 69.0941 38.4843 68.9461 36.4121V30.8467C68.9461 30.6098 68.7389 30.4322 68.5021 30.4322H62.2262C61.9893 30.4322 61.7821 30.6098 61.7821 30.8467V35.0207C61.8117 35.2575 61.9893 35.4648 62.2262 35.4648H63.9432V36.4121C63.9728 37.1226 63.7655 37.833 63.3511 38.4251L63.3807 38.3955C62.9959 38.8692 62.4334 39.1356 61.8413 39.0764H61.8117C61.2197 39.1356 60.6276 38.8988 60.2724 38.4251C59.8283 37.8626 59.6211 37.1522 59.6507 36.4417V26.3173C59.6211 25.5773 59.8579 24.8668 60.302 24.2747C60.6868 23.8011 61.2493 23.5346 61.8413 23.5938H61.8709C62.463 23.5346 63.0551 23.7715 63.4103 24.2451L63.4399 24.2747C63.8248 24.8668 64.032 25.5773 63.9432 26.2877V27.2351C63.9728 27.4423 64.1504 27.6199 64.3576 27.6199H68.5909C68.7981 27.6199 69.0053 27.4719 69.0053 27.2351V26.2877C69.1237 24.2747 68.4133 22.2617 67.0811 20.6927ZM42.1847 15.0089C42.0959 14.8905 42.0071 14.7424 42.0071 14.5944C41.5631 9.50266 40.823 6.09829 40.823 6.09829C40.7046 5.50622 40.2013 5.09177 39.6388 5.00296L35.5536 4.49971C35.524 4.49971 35.4944 4.49971 35.4352 4.49971C34.9615 4.49971 34.5767 4.88455 34.5767 5.3582V6.77916C34.5767 6.80876 34.5471 6.83837 34.5175 6.83837H34.4879C32.0604 4.64772 29.3073 2.51628 26.2581 0.621671C25.6661 0.236828 24.9852 0 24.2451 0C23.505 0 22.7946 0.236828 22.2321 0.621671C8.17052 9.29544 0.414446 23.4458 0.118413 24.2155C0.0296032 24.3931 0 24.6004 0 24.8076C0 25.4588 0.444049 26.0213 1.06572 26.1693L5.12137 26.939C5.65423 27.087 6.06868 27.5607 6.12789 28.1232C6.15749 28.8336 6.92718 44.8194 7.90409 48.9639C8.0521 49.556 8.61456 50 9.26584 50H9.29544C11.6637 49.9408 13.8247 49.9112 16.1634 49.8816H16.193C16.2522 49.8816 16.3114 49.8816 16.3706 49.8816C16.6075 49.8816 16.8147 49.6744 16.8147 49.4375C16.7259 48.0462 16.5187 44.849 16.341 41.5039C16.341 41.415 16.341 41.3262 16.3114 41.2374C16.2818 40.9414 16.1338 40.7046 15.897 40.5565C14.6832 39.8165 13.8544 38.5139 13.7655 37.0338C13.5583 31.4387 13.4399 24.9556 13.7655 19.8934C13.7951 19.479 14.1504 19.1237 14.5648 19.1237C15.0089 19.1237 15.3937 19.479 15.3937 19.923C15.3937 19.9526 15.3937 19.9526 15.3937 19.9822C15.1865 23.357 15.1865 27.3535 15.2457 31.2907C15.2457 31.8236 15.6898 32.238 16.2226 32.238C16.7555 32.238 17.1699 31.794 17.1699 31.2611C17.1107 27.2943 17.1107 23.2682 17.3179 19.8934C17.3475 19.479 17.7028 19.1237 18.1172 19.1237C18.5613 19.1237 18.9461 19.479 18.9461 19.923C18.9461 19.9526 18.9461 19.9526 18.9461 19.9822C18.7389 23.357 18.7389 27.3239 18.7981 31.2315C18.7981 31.7644 19.2422 32.1788 19.775 32.1788C20.3079 32.1788 20.7223 31.7348 20.7223 31.2019C20.6631 27.2647 20.6631 23.2386 20.8703 19.8638C20.8999 19.4494 21.2552 19.0941 21.6696 19.0941C22.1137 19.0941 22.4985 19.4494 22.4985 19.8934C22.4985 19.923 22.4985 19.923 22.4985 19.9526C22.2025 24.8668 22.2913 31.1131 22.4985 36.5897V36.6489C22.4985 36.6785 22.4985 36.7081 22.4985 36.7377C22.4985 36.7673 22.4985 36.7673 22.4985 36.7969C22.4985 38.3067 21.7584 39.6092 20.6039 40.4085C20.3967 40.5565 20.2487 40.7638 20.2487 41.0302C20.2487 41.0302 20.1599 41.8591 20.5151 45.9444C20.6927 47.7206 20.8111 48.9639 20.8703 49.4967C20.8999 49.704 21.0776 49.8816 21.2848 49.8816C21.4032 49.8816 21.5512 49.8816 21.6696 49.8816C22.4393 49.8816 23.2682 49.8816 24.0971 49.8816H24.2451H24.3931C25.4589 49.8816 26.4654 49.8816 27.4423 49.8816L29.7513 49.9112C29.9586 49.9112 30.1362 49.7336 30.1954 49.5263C30.7282 44.6418 30.8467 41.9183 30.8467 41.9183C30.8467 41.6815 30.669 41.4742 30.4026 41.4446L27.6199 41.0006C27.1758 40.9118 26.9094 40.6454 26.8206 40.3197C26.7614 40.1125 26.791 39.8757 26.791 39.8757C27.9159 23.6235 33.2741 18.1172 33.2741 18.1172C33.4221 17.9692 33.5406 17.8804 33.5406 17.8804C33.6886 17.7916 33.8662 17.7028 34.0438 17.7028C34.3991 17.7028 34.7247 17.9396 34.8431 18.2356C34.8431 18.2356 34.8727 18.3541 34.9023 18.6205C35.376 23.7419 35.1391 32.4452 34.8431 39.2244C34.6063 44.997 34.3102 49.4967 34.3102 49.4967C34.3102 49.6744 34.4583 49.8224 34.6359 49.8224C36.1456 49.852 37.6554 49.8816 39.254 49.9112H39.2836C39.9349 49.9112 40.4677 49.4671 40.6454 48.8751C41.6223 44.7306 42.3623 28.7448 42.4216 28.0343C42.4808 27.4719 42.8952 26.9982 43.4281 26.8502L47.4837 26.0805C48.0758 25.9325 48.5494 25.37 48.5494 24.7188C48.5494 24.5115 48.4902 24.3043 48.431 24.1267C48.2238 23.8011 46.122 19.8934 42.1847 15.0089Z" fill="#FF8000"/>
</svg>
