<svg width="345" height="669" viewBox="0 0 345 669" fill="none" xmlns="http://www.w3.org/2000/svg">
<path d="M12 54.6C8.76 54.6 6.28 53.68 4.56 51.84C2.84 50 1.98 47.4 1.98 44.04V21.96C1.98 18.6 2.84 16 4.56 14.16C6.28 12.32 8.76 11.4 12 11.4C15.24 11.4 17.72 12.32 19.44 14.16C21.16 16 22.02 18.6 22.02 21.96V44.04C22.02 47.4 21.16 50 19.44 51.84C17.72 53.68 15.24 54.6 12 54.6ZM12 48.6C14.28 48.6 15.42 47.22 15.42 44.46V21.54C15.42 18.78 14.28 17.4 12 17.4C9.72 17.4 8.58 18.78 8.58 21.54V44.46C8.58 47.22 9.72 48.6 12 48.6Z" fill="white"/>
<path d="M33.1348 12.6971L42.8706 13.6267C46.2552 13.9499 48.6479 14.982 50.0487 16.7231C51.4534 18.4243 51.9998 20.9075 51.688 24.1726L51.4428 26.741C51.0283 31.0812 49.3325 33.6918 46.3553 34.5728L46.3439 34.6923C47.891 35.3222 48.9128 36.4042 49.4092 37.9384C49.9454 39.4763 50.0957 41.4796 49.86 43.9484L49.1584 51.295C49.0444 52.4896 48.991 53.4689 48.9984 54.2331C49.0096 54.9574 49.1403 55.6932 49.3904 56.4403L42.7008 55.8016C42.5265 55.1018 42.4281 54.4495 42.4055 53.8446C42.3829 53.2397 42.4457 52.1608 42.594 50.6079L43.3241 42.9627C43.5066 41.0514 43.3154 39.687 42.7505 38.8696C42.2255 38.056 41.2064 37.577 39.6933 37.4325L37.4236 37.2158L35.7126 55.1343L29.1425 54.5069L33.1348 12.6971ZM40.3831 31.4711C41.6971 31.5966 42.705 31.3512 43.4067 30.7352C44.1483 30.1229 44.5951 29.0204 44.7472 27.4276L45.0552 24.2023C45.1997 22.6892 45.0255 21.5675 44.5327 20.8374C44.0797 20.111 43.2758 19.6927 42.121 19.5824L39.1346 19.2973L37.994 31.2429L40.3831 31.4711Z" fill="white"/>
<path d="M63.6042 16.3083L73.5021 18.2159C76.7228 18.8367 78.9718 20.1663 80.2491 22.2049C81.5264 24.2435 81.8433 26.932 81.1998 30.2706L77.1801 51.1267C76.5367 54.4653 75.2432 56.8435 73.2998 58.2613C71.3564 59.6791 68.7743 60.0777 65.5535 59.4569L55.6557 57.5493L63.6042 16.3083ZM66.5712 53.5426C67.6317 53.747 68.4974 53.588 69.1684 53.0656C69.8787 52.5507 70.3701 51.5862 70.6426 50.1723L74.7759 28.7269C75.0484 27.313 74.9507 26.235 74.4826 25.493C74.0539 24.7586 73.3092 24.2892 72.2488 24.0848L68.9495 23.4489L63.2719 52.9068L66.5712 53.5426Z" fill="white"/>
<path d="M94.7988 23.1533L112.07 28.2245L110.379 33.9814L99.441 30.7697L96.3138 41.42L105.007 43.9725L103.316 49.7295L94.6234 47.177L90.9891 59.5544L101.927 62.7662L100.237 68.5232L82.966 63.452L94.7988 23.1533Z" fill="white"/>
<path d="M122.828 32.1104L131.908 35.7452C135.064 37.0089 137.069 38.6733 137.923 40.7385C138.791 42.7665 138.616 45.3031 137.397 48.3481L136.438 50.7433C134.818 54.791 132.455 56.8181 129.35 56.8246L129.306 56.936C130.613 57.9763 131.288 59.3024 131.332 60.9142C131.413 62.5409 130.993 64.5055 130.071 66.8078L127.329 73.6592C126.883 74.7732 126.556 75.6979 126.347 76.4332C126.154 77.1313 126.072 77.8741 126.102 78.6614L119.863 76.1639C119.893 75.4434 119.982 74.7898 120.131 74.203C120.28 73.6162 120.644 72.5987 121.224 71.1505L124.078 64.0206C124.792 62.2382 124.993 60.8752 124.681 59.9318C124.406 59.0032 123.563 58.2565 122.152 57.6916L120.036 56.8442L113.346 73.5548L107.219 71.1018L122.828 32.1104ZM124.494 52.166C125.719 52.6565 126.755 52.7051 127.602 52.3117C128.486 51.9331 129.226 51.0012 129.82 49.5158L131.024 46.5079C131.589 45.0968 131.738 43.9715 131.471 43.1321C131.241 42.3075 130.588 41.6797 129.511 41.2485L126.726 40.1335L122.266 51.274L124.494 52.166Z" fill="white"/>
<path d="M177.639 58.6076L184.605 63.0841L176.414 87.7042L176.515 87.769L190.107 66.6199L195.053 69.7989L172.346 105.132L166.643 101.466L176.556 71.3913L176.455 71.3264L159.879 97.1193L154.932 93.9403L177.639 58.6076Z" fill="white"/>
<path d="M184.585 115.389C182.038 113.386 180.658 111.13 180.443 108.621C180.228 106.111 181.16 103.536 183.237 100.894L196.886 83.5384C198.963 80.8973 201.246 79.3852 203.735 79.0021C206.225 78.6189 208.743 79.4288 211.29 81.4316C213.836 83.4345 215.217 85.6907 215.432 88.2003C215.646 90.7098 214.715 93.2852 212.638 95.9263L198.989 113.282C196.912 115.924 194.629 117.436 192.139 117.819C189.65 118.202 187.132 117.392 184.585 115.389ZM188.294 110.673C190.086 112.082 191.835 111.702 193.542 109.533L207.71 91.5163C209.416 89.3468 209.373 87.5574 207.581 86.148C205.788 84.7386 204.039 85.1186 202.333 87.2881L188.165 105.304C186.459 107.474 186.502 109.263 188.294 110.673Z" fill="white"/>
<path d="M223.242 91.8381L227.845 96.227L207.697 121.618L207.784 121.701L232.318 100.492L237.529 105.46L217.511 130.975L217.598 131.058L242.002 109.725L246.127 113.658L214.06 141.115L208.111 135.443L225.483 112.877L225.396 112.794L203.682 131.22L197.342 125.175L223.242 91.8381Z" fill="white"/>
<path d="M271.338 144.982L276.524 152.264L246.279 182.199L242.451 176.822L248.548 171.007L248.45 171.077L244.1 164.967L236.708 168.758L233.158 163.773L271.338 144.982ZM252.641 167.135L267.846 152.698L267.777 152.601L249.196 162.297L252.641 167.135Z" fill="white"/>
<path d="M285.395 165.857L289.535 173.028L270.973 191.158L271.033 191.261L292.805 178.691L295.745 183.784L259.372 204.784L255.982 198.912L278.574 176.723L278.514 176.619L251.962 191.949L249.022 186.857L285.395 165.857Z" fill="white"/>
<path d="M300.338 193.135L304.525 202.304C305.887 205.287 306.109 207.891 305.189 210.114C304.27 212.337 302.263 214.154 299.171 215.567L279.85 224.39C276.757 225.802 274.07 226.128 271.788 225.368C269.505 224.607 267.683 222.735 266.32 219.751L262.133 210.582L300.338 193.135ZM271.728 217.15C272.177 218.132 272.809 218.745 273.623 218.989C274.455 219.268 275.526 219.109 276.835 218.511L296.702 209.438C298.012 208.84 298.833 208.135 299.166 207.324C299.515 206.548 299.466 205.67 299.017 204.687L297.621 201.631L270.333 214.093L271.728 217.15Z" fill="white"/>
<path d="M282.725 270.089C281.971 266.979 282.27 264.396 283.623 262.339C285.015 260.272 287.364 258.838 290.668 258.037L312.125 252.831C315.429 252.029 318.154 252.233 320.3 253.441C322.484 254.64 323.953 256.794 324.708 259.904C325.462 263.014 325.143 265.602 323.751 267.668C322.398 269.725 320.069 271.155 316.765 271.956L313.267 272.805L311.795 266.741L315.702 265.793C318.384 265.142 319.457 263.709 318.919 261.493C318.382 259.278 316.772 258.495 314.09 259.146L291.757 264.564C289.114 265.205 288.061 266.633 288.599 268.849C289.136 271.065 290.727 271.852 293.37 271.211L301.358 269.273L300.58 266.066L306.411 264.651L308.66 273.922L295.307 277.162C292.003 277.963 289.259 277.765 287.075 276.566C284.93 275.358 283.48 273.199 282.725 270.089Z" fill="white"/>
<path d="M328.552 281.761L331.113 299.578L325.174 300.432L323.552 289.148L312.565 290.727L313.854 299.695L307.915 300.549L306.626 291.581L293.857 293.417L295.48 304.701L289.541 305.555L286.979 287.738L328.552 281.761Z" fill="white"/>
<path d="M326.36 317.674L326.031 310.782L332.025 310.496L332.995 330.873L327.002 331.159L326.674 324.266L290.715 325.979L290.401 319.387L326.36 317.674Z" fill="white"/>
<path d="M330.654 372.259L329.219 382.237C328.753 385.483 327.531 387.793 325.556 389.166C323.58 390.539 320.91 390.983 317.545 390.499L296.521 387.477C293.155 386.993 290.718 385.814 289.21 383.94C287.701 382.066 287.18 379.506 287.647 376.26L289.081 366.282L330.654 372.259ZM293.603 376.995C293.449 378.064 293.649 378.921 294.203 379.566C294.751 380.251 295.738 380.696 297.163 380.901L318.781 384.009C320.206 384.214 321.278 384.065 321.997 383.562C322.71 383.099 323.144 382.333 323.298 381.264L323.776 377.938L294.081 373.669L293.603 376.995Z" fill="white"/>
<path d="M325.301 403.743L321.058 421.236L315.227 419.821L317.914 408.743L307.127 406.126L304.991 414.93L299.16 413.516L301.296 404.711L288.76 401.67L286.072 412.748L280.242 411.334L284.485 393.841L325.301 403.743Z" fill="white"/>
<path d="M317.14 433.751L314.981 439.988L280.961 428.214L277.409 438.477L271.739 436.514L277.45 420.015L317.14 433.751Z" fill="white"/>
<path d="M304.733 465.882L301.991 471.885L263.787 454.438L266.528 448.434L304.733 465.882Z" fill="white"/>
<path d="M294.069 487.759L290.739 493.527L260.364 480.978L260.304 481.082L286.359 501.113L283.329 506.362L250.136 479.854L254.516 472.267L294.069 487.759Z" fill="white"/>
<path d="M276.947 515.78L266.506 530.443L261.619 526.963L268.232 517.676L259.19 511.238L253.935 518.618L249.047 515.137L254.302 507.757L243.794 500.275L237.182 509.561L232.294 506.08L242.735 491.418L276.947 515.78Z" fill="white"/>
<path d="M259.315 539.34L252.91 546.731C250.684 549.3 248.455 550.651 246.224 550.782C244.024 550.939 241.684 549.944 239.205 547.796L237.255 546.107C233.96 543.251 232.818 540.356 233.827 537.42L233.736 537.341C232.326 538.236 230.852 538.441 229.314 537.955C227.75 537.5 226.031 536.46 224.157 534.836L218.579 530.003C217.672 529.217 216.906 528.606 216.279 528.169C215.682 527.757 215.007 527.437 214.254 527.207L218.654 522.129C219.325 522.393 219.914 522.691 220.42 523.023C220.925 523.356 221.768 524.033 222.947 525.054L228.751 530.084C230.202 531.341 231.424 531.977 232.418 531.991C233.385 532.035 234.366 531.483 235.362 530.334L236.855 528.611L223.251 516.823L227.573 511.836L259.315 539.34ZM239.818 534.354C238.953 535.352 238.568 536.315 238.663 537.244C238.732 538.203 239.371 539.207 240.58 540.254L243.029 542.376C244.177 543.371 245.192 543.88 246.073 543.902C246.927 543.955 247.734 543.542 248.494 542.666L250.458 540.398L241.389 532.54L239.818 534.354Z" fill="white"/>
<path d="M237.79 562.931L224.763 575.352L220.623 571.01L228.873 563.143L221.213 555.109L214.656 561.362L210.516 557.019L217.073 550.767L208.171 541.431L199.92 549.298L195.78 544.955L208.807 532.534L237.79 562.931Z" fill="white"/>
<path d="M216.018 582.728L208.095 588.959C205.516 590.986 203.039 591.815 200.662 591.446C198.285 591.076 196.045 589.555 193.943 586.882L180.814 570.186C178.712 567.514 177.762 564.979 177.963 562.582C178.164 560.184 179.554 557.972 182.132 555.944L190.055 549.713L216.018 582.728ZM185.935 560.587C185.086 561.254 184.64 562.013 184.595 562.862C184.519 563.736 184.926 564.739 185.816 565.871L199.317 583.038C200.207 584.17 201.086 584.802 201.953 584.934C202.789 585.091 203.631 584.836 204.48 584.168L207.121 582.091L188.576 558.51L185.935 560.587Z" fill="white"/>
<path d="M156.839 614.745L162.972 611.583L165.722 616.916L147.59 626.264L144.84 620.931L150.973 617.769L134.477 585.771L140.343 582.747L156.839 614.745Z" fill="white"/>
<path d="M113.018 594.572C116.026 593.368 118.67 593.3 120.951 594.369C123.232 595.438 124.996 597.532 126.245 600.651L134.452 621.15C135.7 624.269 135.868 627.002 134.955 629.35C134.042 631.697 132.082 633.473 129.074 634.677C126.066 635.882 123.422 635.949 121.141 634.88C118.861 633.811 117.096 631.717 115.847 628.598L107.641 608.099C106.392 604.98 106.224 602.247 107.137 599.899C108.05 597.552 110.01 595.776 113.018 594.572ZM115.248 600.142C113.132 600.989 112.586 602.694 113.612 605.257L122.13 626.535C123.156 629.097 124.727 629.955 126.844 629.107C128.961 628.26 129.506 626.555 128.48 623.993L119.962 602.714C118.936 600.152 117.365 599.295 115.248 600.142Z" fill="white"/>
<path d="M108.971 641.327L99.2992 644.166C96.1521 645.091 93.5438 644.939 91.4744 643.713C89.405 642.486 87.8913 640.241 86.9334 636.979L80.9494 616.6C79.9915 613.337 80.0514 610.631 81.1292 608.48C82.2069 606.329 84.3193 604.792 87.4664 603.868L97.1381 601.028L108.971 641.327ZM89.272 609.591C88.2357 609.895 87.5391 610.433 87.1821 611.205C86.7867 611.988 86.7918 613.071 87.1975 614.452L93.3506 635.408C93.7563 636.789 94.3371 637.703 95.0931 638.148C95.8108 638.604 96.6877 638.68 97.7239 638.376L100.948 637.429L92.4959 608.644L89.272 609.591Z" fill="white"/>
<path d="M74.3343 650.264L65.5558 651.956L50.8909 612.009L57.3716 610.76L60.1283 618.722L60.1056 618.604L67.4701 617.185L67.0927 608.887L73.1021 607.728L74.3343 650.264ZM61.9502 624.054L68.766 643.882L68.8838 643.86L67.7829 622.93L61.9502 624.054Z" fill="white"/>
<path d="M40.3472 631.025L50.5839 654.278L43.5956 654.945L37.6503 640.022L37.5308 640.034L34.5169 655.812L28.126 656.422L33.7771 631.653L32.0775 613.854L38.6476 613.226L40.3472 631.025Z" fill="white"/>
<path d="M12.92 639.121L12.92 656.641H6.32004L6.32004 639.121L7.16004 625.741H12.08L12.92 639.121ZM12.8 621.001H6.44004L6.44004 614.641H12.8L12.8 621.001Z" fill="white"/>
</svg>
