<svg width="100" height="81" viewBox="0 0 100 81" fill="none" xmlns="http://www.w3.org/2000/svg">
<path d="M19.2838 36.7722C22.1975 26.5276 36.7057 21.0354 51.5396 19.5035C66.3494 18.0132 81.5506 20.4655 84.7098 27.8924C87.893 35.2776 79.1417 47.6438 68.6066 56.6503C58.1372 65.6392 45.9914 71.2749 35.5123 66.6116C25.075 61.9725 16.3941 46.9753 19.2838 36.7722Z" fill="#FD961E"/>
<mask id="mask0_307_7" style="mask-type:luminance" maskUnits="userSpaceOnUse" x="0" y="8" width="100" height="71">
<path d="M0 8H100V78.646H0V8Z" fill="white"/>
</mask>
<g mask="url(#mask0_307_7)">
<path d="M99.8433 34.6363C99.4545 28.4195 94.7062 22.8254 88.7124 21.2353C84.8632 20.2071 80.4742 20.642 76.9586 22.5583C76.8075 22.0092 76.6269 21.4638 76.4224 20.9331C73.9921 14.5099 67.6444 10.1817 61.0369 8.86612C59.7361 8.5971 58.4205 8.42759 57.1012 8.34099C53.3 7.89877 49.8581 9.28807 46.6907 11.1306C38.4433 15.9103 31.6572 24.0526 21.7368 25.0678C21.5636 25.0807 21.418 25.2097 21.3996 25.3885C21.3793 25.5819 21.5212 25.757 21.7165 25.7754C23.3914 25.9891 25.0921 25.9302 26.7596 25.6519C31.7345 24.8025 36.2802 22.1547 40.437 19.542C45.2811 16.662 51.0299 11.7811 56.6332 12.3578C63.5779 12.6913 70.6902 15.7629 74.3035 21.9484C74.6388 22.5085 74.9428 23.0908 75.2137 23.6933C74.2924 24.399 73.4669 25.2318 72.7723 26.1881C71.9358 27.3913 71.3996 28.8543 71.4327 30.2952C71.4383 30.4482 71.5414 30.59 71.6999 30.6306C71.8915 30.6822 72.0905 30.5661 72.1403 30.3726C72.4738 29.1362 73.1666 28.0878 74.0473 27.2384C74.6462 26.6893 75.2984 26.2047 75.9968 25.7883C76.4556 25.5119 76.9346 25.2668 77.4266 25.0494C81.718 23.1516 87.102 23.4464 90.9456 25.9725C93.6173 27.7488 95.5723 30.6195 96.0845 33.7814C96.3019 35.2775 96.1987 36.7958 96.0458 38.2864C95.5612 42.7528 93.3225 47.0055 89.2928 49.0876C86.868 50.37 84.1686 51.1476 81.4268 51.3669C76.2603 51.8994 72.2066 49.9444 67.825 48.1903C71.114 46.9226 74.3071 44.3467 74.3901 40.6449C74.3956 40.2562 73.8391 40.1474 73.6936 40.5086C72.7465 42.7086 70.9795 44.12 68.8992 45.1611C67.4804 45.8852 65.9603 46.344 64.4918 46.9668C63.9206 46.7825 63.3402 46.613 62.745 46.4601C61.3189 46.1008 59.8835 45.8539 58.4444 45.7009H58.4426C61.4663 43.5212 63.7916 40.1014 64.5047 36.7C64.9063 34.933 64.9985 32.9743 64.2356 31.2865C64.0661 30.9069 63.482 31.0967 63.5576 31.4966C63.8026 33.1051 63.4249 34.7211 62.839 36.2136C61.3207 40.3096 57.9856 43.4991 54.0702 45.3177C53.9541 45.3785 53.8325 45.4338 53.7146 45.4927C52.0857 45.5204 50.4551 45.6383 48.8281 45.8189C48.9331 45.7046 49.0344 45.5904 49.1358 45.4725C50.9323 43.3867 52.1097 40.5989 51.9715 37.8553C51.9641 37.7005 51.8554 37.5623 51.697 37.5236C51.5016 37.4776 51.3045 37.6029 51.264 37.8C51.0779 38.5849 50.8162 39.3349 50.4919 40.0443C49.5061 42.13 47.8902 43.886 45.9573 45.1205C41.034 48.3027 33.6287 47.6762 28.6611 44.9289C25.9765 43.3351 23.9202 40.7481 21.6723 38.4836C21.394 38.2072 20.9445 38.5112 21.079 38.8705C21.6925 40.4478 22.4369 41.9679 23.3785 43.4309C25.3077 46.5117 27.9333 48.4151 31.132 49.4561C29.9933 49.8265 28.8767 50.2576 27.7988 50.7717C24.9373 52.0984 22.1311 54.0294 18.995 54.1197C12.102 55.087 5.44106 45.2311 4.00754 39.3183C2.72327 34.2862 4.9712 28.5982 9.46523 25.8878C15.1477 22.4016 22.2858 22.5251 28.4971 19.9787C31.3734 18.8915 33.8314 16.9311 36.3686 15.2912C36.7334 15.0553 36.4349 14.4933 36.0277 14.6721C33.3173 15.9471 30.8133 17.5888 27.937 18.3996C23.6862 19.671 19.0706 19.9031 14.6668 20.8778C11.5621 21.5393 8.37628 22.6891 5.86117 24.7307C1.53481 28.1468 -0.578619 34.0043 0.453221 39.4233C1.44821 44.8939 5.43737 51.1826 9.74346 54.7037C12.3562 56.8632 15.8553 58.387 19.382 57.9356C20.3217 57.9098 21.2319 57.7606 22.0979 57.5395C22.6967 61.8105 23.2016 66.1037 23.5277 70.3969C23.7359 72.9673 23.806 76.0481 23.7617 78.6314L26.931 77.1555C30.0007 75.7496 33.4924 74.8688 36.855 74.1723C46.0919 72.3814 59.7803 71.1026 68.6394 74.4635C68.8071 74.5353 69.0061 74.4653 69.0908 74.2995C69.1811 74.1263 69.1129 73.9125 68.9379 73.8223C60.1212 69.5401 45.9887 69.6065 36.2949 70.6033C33.5071 70.9294 30.7801 71.3329 28.0697 72.0405C27.4874 66.7431 26.5311 61.5176 25.4956 56.2939C25.4956 56.2939 25.4956 56.2939 25.4974 56.2939C27.4358 55.4095 29.1936 54.3924 31.202 53.6443C33.6084 52.7506 36.1549 52.22 38.7068 51.6801C42.567 50.8694 46.5064 50.0992 50.3979 49.7693C54.8588 49.3916 59.2976 49.5851 63.5373 50.967C66.0137 51.7833 68.3575 52.9017 70.8284 53.8027C70.4101 57.9817 70.423 62.2712 70.3069 66.4704C66.2864 65.1272 62.0909 64.3975 57.8769 64.0456C52.7067 63.6734 47.3559 63.9774 42.4859 65.8384C42.3201 65.9029 42.2243 66.0816 42.2704 66.2585C42.3201 66.4483 42.5136 66.5607 42.7034 66.5109C45.1337 65.8826 47.6433 65.667 50.1345 65.7039C56.3292 65.8366 62.4815 67.3512 68.1511 69.7778C69.2659 70.2643 70.3475 70.806 71.348 71.3901L74.2961 72.7867C74.3293 71.9299 74.4803 69.3098 74.4896 68.488C74.5633 64.1156 74.3919 59.3876 74.6683 54.9396C80.22 56.1244 86.2028 55.2676 91.1777 52.5221C97.7041 48.9844 100.241 41.7007 99.8433 34.6363Z" fill="#002C1F"/>
</g>
</svg>
