<svg width="125" height="110" viewBox="0 0 125 110" fill="none" xmlns="http://www.w3.org/2000/svg">
<path d="M12.3664 48.9829C16.2476 35.3365 35.5734 28.0206 55.333 25.98C75.0605 23.9948 95.3093 27.2615 99.5175 37.1545C103.758 46.992 92.1005 63.4645 78.0671 75.4616C64.1213 87.4354 47.9424 94.9424 33.9837 88.7307C20.0806 82.5511 8.5172 62.574 12.3664 48.9829Z" fill="#FD961E"/>
<mask id="mask0_307_2" style="mask-type:luminance" maskUnits="userSpaceOnUse" x="33" y="35" width="92" height="75">
<path d="M33 35.7786H124.333V110H33V35.7786Z" fill="white"/>
</mask>
<g mask="url(#mask0_307_2)">
<path d="M118.594 70.6744C115.021 79.8645 106.745 87.9686 98.5859 94.19C99.2942 93.0754 99.9218 91.9244 100.388 90.7239C102.919 84.2056 101.378 79.815 99.6405 77.2812C97.1353 73.6275 93.026 71.9921 90.0624 71.9921C84.2343 71.9921 80.578 75.0233 78.6484 77.8619C76.7187 75.0233 73.0624 71.9921 67.2343 71.9921C64.2708 71.9921 60.1614 73.6275 57.6562 77.2812C55.9192 79.815 54.3775 84.2056 56.9114 90.7239C57.3775 91.927 58.0051 93.0806 58.7161 94.1978C50.5598 87.9791 42.2786 79.8723 38.7057 70.6744C34.2812 59.2916 36.8176 51.8515 39.7239 47.6119C43.8385 41.6093 50.7161 38.8749 55.3671 38.8749C72.3827 38.8749 76.9817 53.0051 77.1692 53.6067C77.5702 54.901 79.7265 54.901 80.1301 53.6067C80.3176 53.0051 84.914 38.8749 101.93 38.8749C106.581 38.8749 113.461 41.6093 117.575 47.6119C120.482 51.8515 123.018 59.2916 118.594 70.6744ZM78.6484 106.643C75.6327 105.104 63.1926 98.3254 59.802 89.6041C58.1848 85.4426 58.3254 81.7838 60.2161 79.0285C62.0702 76.3202 65.1562 75.0884 67.2343 75.0884C74.9661 75.0884 77.0833 81.4843 77.1666 81.7525C77.5676 83.052 79.7317 83.052 80.1301 81.7525C80.1536 81.6848 82.2629 75.0884 90.0624 75.0884C92.1431 75.0884 95.2265 76.3202 97.0832 79.0285C98.9713 81.7838 99.1145 85.4426 97.4947 89.6041C94.1067 98.3254 81.664 105.104 78.6484 106.643ZM120.133 45.8645C115.359 38.8984 107.549 35.7786 101.93 35.7786C87.9947 35.7786 81.3176 44.4635 78.6484 49.3879C75.9817 44.4635 69.302 35.7786 55.3671 35.7786C49.7473 35.7786 41.94 38.8984 37.164 45.8645C33.8385 50.7161 30.9036 59.1562 35.8124 71.7942C44.3489 93.7551 76.6197 109.127 77.9895 109.771C78.1978 109.87 78.4244 109.919 78.6484 109.919C78.8749 109.919 79.0989 109.87 79.3098 109.771C80.6796 109.127 112.95 93.7551 121.484 71.7942C126.396 59.1562 123.461 50.7161 120.133 45.8645Z" fill="#002C1F"/>
</g>
<mask id="mask1_307_2" style="mask-type:luminance" maskUnits="userSpaceOnUse" x="64" y="9" width="29" height="29">
<path d="M64.3334 9.99976H93V37.7784H64.3334V9.99976Z" fill="white"/>
</mask>
<g mask="url(#mask1_307_2)">
<path d="M78.6486 13.1794C84.5704 13.1794 89.3855 17.9893 89.3855 23.9033C89.3855 29.8148 84.5704 34.6247 78.6486 34.6247C72.7293 34.6247 67.9116 29.8148 67.9116 23.9033C67.9116 17.9893 72.7293 13.1794 78.6486 13.1794ZM78.6486 37.721C86.2788 37.721 92.4871 31.5205 92.4871 23.9033C92.4871 16.2809 86.2788 10.083 78.6486 10.083C71.021 10.083 64.8126 16.2809 64.8126 23.9033C64.8126 31.5205 71.021 37.721 78.6486 37.721Z" fill="#002C1F"/>
</g>
<path d="M78.6485 70.2055C76.1823 70.2055 74.1745 68.2003 74.1745 65.7367C74.1745 63.2732 76.1823 61.268 78.6485 61.268C81.1172 61.268 83.125 63.2732 83.125 65.7367C83.125 68.2003 81.1172 70.2055 78.6485 70.2055ZM78.6485 58.1716C74.4714 58.1716 71.0756 61.5649 71.0756 65.7367C71.0756 69.906 74.4714 73.3018 78.6485 73.3018C82.8256 73.3018 86.224 69.906 86.224 65.7367C86.224 61.5649 82.8256 58.1716 78.6485 58.1716Z" fill="#002C1F"/>
</svg>
