<svg width="100" height="100" viewBox="0 0 100 100" fill="none" xmlns="http://www.w3.org/2000/svg">
<path d="M73.2968 42.8543C76.1757 53.6723 69.8503 65.6787 60.9705 71.5794C52.0501 77.5212 40.6563 77.3163 33.4389 71.9073C26.2215 66.4573 23.221 55.7622 26.0594 45.067C28.8571 34.331 37.5342 23.5949 47.9143 23.0212C58.2944 22.4885 70.418 32.0772 73.2968 42.8543Z" fill="#FD961E"/>
<mask id="mask0_307_8" style="mask-type:luminance" maskUnits="userSpaceOnUse" x="0" y="0" width="100" height="100">
<path d="M0 0H100V100H0V0Z" fill="white"/>
</mask>
<g mask="url(#mask0_307_8)">
<path d="M0.958333 63.4375L13.6771 76.1719C21.5573 90.3906 36.6172 100 53.9401 100C79.2995 100 99.9766 79.2969 99.9766 53.9062C99.9766 33.4375 86.5547 16.0938 68.1406 10.0781L59.0104 0.9375C58.6979 0.625 58.2318 0.390625 57.763 0.234375C57.5286 -3.3776e-07 57.138 0 56.8255 0C56.7474 0 56.7474 0 56.6693 0C55.7344 0 54.7969 0.46875 54.1745 1.17188L53.9401 1.48438C53.862 1.5625 53.862 1.5625 53.7839 1.64062L47.6198 8.28125C26.0833 11.25 9.22917 29.2188 7.98177 51.25L1.50521 58.2812L0.958333 58.9062C0.411459 59.4531 0.179688 60.1562 0.0234375 60.8594C0.0234375 60.9375 0.0234375 61.0938 0.0234375 61.1719C0.0234375 61.9531 0.333333 62.8125 0.958333 63.4375ZM80.625 55.4688C75.474 55.4688 71.2604 51.25 71.2604 46.0938C71.2604 40.9375 75.474 36.7188 80.625 36.7188C85.7734 36.7188 89.987 40.9375 89.987 46.0938C89.987 51.25 85.8516 55.4688 80.625 55.4688ZM68.1406 46.0938C68.1406 52.9688 73.7578 58.5938 80.625 58.5938C81.7943 58.5938 82.9661 58.4375 84.0573 58.125C83.4349 62.6562 81.7943 66.7969 79.4557 70.4688C78.0495 60.625 69.6224 53.125 59.401 53.125C48.2422 53.125 39.1146 62.2656 39.1146 73.4375C39.1146 76.25 39.6615 78.9062 40.6745 81.3281C35.526 78.8281 31.1563 74.9219 28.112 70L72.0417 29.4531C73.8359 30.7812 75.5521 32.3438 77.0365 34.0625C71.8854 35.7031 68.1406 40.4688 68.1406 46.0938ZM42.2344 73.4375C42.2344 63.9844 49.9609 56.25 59.401 56.25C68.8438 56.25 76.5677 63.9844 76.5677 73.4375C76.5677 82.8906 68.8438 90.625 59.401 90.625C49.9609 90.625 42.2344 82.8906 42.2344 73.4375ZM19.138 74.0625C20.1536 69.8438 23.2734 61.0156 30.2188 51.6406C30.375 51.4844 30.4531 51.3281 30.6094 51.1719C38.5677 46.0938 44.263 40.2344 48.3984 34.5312C54.9531 30.2344 63.0677 26.6406 72.8229 24.5312L19.138 74.0625ZM16.5651 71.7188C16.3307 72.6562 16.0964 73.3594 16.0182 74.0625L4.08073 62.1094C11.8828 60.2344 18.6719 57.6562 24.4453 54.6875C19.2161 63.0469 17.0312 70 16.5651 71.7188ZM52.224 28.5938C55.0313 23.6719 56.6693 19.2969 57.5286 16.0938C58.5443 12.5781 59.2448 8.75 59.3229 5.625L74.6172 20.9375C66.0339 22.5781 58.6224 25.3125 52.224 28.5938ZM52.3802 21.3281C47.8542 32.0312 35.7578 50.5469 5.5625 58.5156L56.125 3.67188C56.4375 6.32812 55.9688 13.0469 52.3802 21.3281ZM96.8542 53.9062C96.8542 77.5781 77.5807 96.875 53.9401 96.875C39.349 96.875 26.474 89.5312 18.75 78.4375C19.138 78.2812 19.5286 78.0469 19.8411 77.7344L25.849 72.1875C29.9063 78.5156 36.0703 83.2812 43.3281 85.7031C46.9948 90.625 52.8464 93.75 59.401 93.75C69.8568 93.75 78.5182 85.7812 79.6094 75.5469C83.9792 70.3125 86.7891 63.8281 87.4141 56.6406C90.8464 54.375 93.1875 50.5469 93.1875 46.1719C93.1875 39.2969 87.5703 33.6719 80.7031 33.6719C78.9089 31.3281 76.8021 29.2188 74.4609 27.4219L77.5807 24.6094C78.1276 24.0625 78.5182 23.4375 78.6745 22.6562C78.6745 22.5 78.7526 22.4219 78.7526 22.2656C78.7526 22.1875 78.7526 22.1094 78.7526 22.1094C78.7526 21.25 78.4401 20.3906 77.8151 19.8438L74.0703 16.0938C87.6484 23.2031 96.8542 37.5 96.8542 53.9062ZM44.1068 12.1094L11.5703 47.4219C14.224 30.0781 27.2552 16.0938 44.1068 12.1094Z" fill="#002C1F"/>
</g>
<path d="M59.401 88.2812C67.5937 88.2812 74.2265 81.6406 74.2265 73.4375C74.2265 65.2344 67.5937 58.5938 59.401 58.5938C51.2083 58.5938 44.5754 65.2344 44.5754 73.4375C44.5754 81.6406 51.2864 88.2812 59.401 88.2812ZM59.401 61.7188C65.8775 61.7188 71.1067 66.9531 71.1067 73.4375C71.1067 79.9219 65.8775 85.1562 59.401 85.1562C52.9244 85.1562 47.6978 79.9219 47.6978 73.4375C47.6978 66.9531 53.0025 61.7188 59.401 61.7188Z" fill="#002C1F"/>
<path d="M77.1145 44.5312C77.1145 44.6354 77.0937 44.7344 77.0546 44.8307C77.0155 44.9271 76.9583 45.0104 76.8853 45.0859C76.8124 45.1589 76.7265 45.2135 76.6327 45.2552C76.5364 45.2943 76.4374 45.3125 76.3333 45.3125C76.2291 45.3125 76.1301 45.2943 76.0338 45.2552C75.94 45.2135 75.8541 45.1589 75.7812 45.0859C75.7083 45.0104 75.651 44.9271 75.6119 44.8307C75.5728 44.7344 75.552 44.6354 75.552 44.5312C75.552 44.4297 75.5728 44.3281 75.6119 44.2344C75.651 44.138 75.7083 44.0521 75.7812 43.9792C75.8541 43.9062 75.94 43.849 76.0338 43.8099C76.1301 43.7708 76.2291 43.75 76.3333 43.75C76.4374 43.75 76.5364 43.7708 76.6327 43.8099C76.7265 43.849 76.8124 43.9062 76.8853 43.9792C76.9583 44.0521 77.0155 44.138 77.0546 44.2344C77.0937 44.3281 77.1145 44.4297 77.1145 44.5312Z" fill="#002C1F"/>
<path d="M83.0443 44.5312C83.0443 44.6354 83.0234 44.7344 82.9844 44.8307C82.9453 44.9271 82.888 45.0104 82.8151 45.0859C82.7422 45.1589 82.6589 45.2135 82.5625 45.2552C82.4661 45.2943 82.3672 45.3125 82.263 45.3125C82.1589 45.3125 82.0599 45.2943 81.9635 45.2552C81.8698 45.2135 81.7839 45.1589 81.7109 45.0859C81.638 45.0104 81.5833 44.9271 81.5417 44.8307C81.5026 44.7344 81.4844 44.6354 81.4844 44.5312C81.4844 44.4297 81.5026 44.3281 81.5417 44.2344C81.5833 44.138 81.638 44.0521 81.7109 43.9792C81.7839 43.9062 81.8698 43.849 81.9635 43.8099C82.0599 43.7708 82.1589 43.75 82.263 43.75C82.3672 43.75 82.4661 43.7708 82.5625 43.8099C82.6589 43.849 82.7422 43.9062 82.8151 43.9792C82.888 44.0521 82.9453 44.138 82.9844 44.2344C83.0234 44.3281 83.0443 44.4297 83.0443 44.5312Z" fill="#002C1F"/>
<path d="M86.5548 41.7969C86.5548 41.901 86.5339 42 86.4949 42.0964C86.4558 42.1927 86.3985 42.276 86.3256 42.3516C86.2527 42.4245 86.1694 42.4792 86.073 42.5208C85.9766 42.5599 85.8777 42.5781 85.7735 42.5781C85.672 42.5781 85.573 42.5599 85.4766 42.5208C85.3803 42.4792 85.297 42.4245 85.224 42.3516C85.1511 42.276 85.0938 42.1927 85.0548 42.0964C85.0131 42 84.9949 41.901 84.9949 41.7969C84.9949 41.6953 85.0131 41.5938 85.0548 41.5C85.0938 41.4036 85.1511 41.3177 85.224 41.2448C85.297 41.1719 85.3803 41.1146 85.4766 41.0755C85.573 41.0365 85.672 41.0156 85.7735 41.0156C85.8777 41.0156 85.9766 41.0365 86.073 41.0755C86.1694 41.1146 86.2527 41.1719 86.3256 41.2448C86.3985 41.3177 86.4558 41.4036 86.4949 41.5C86.5339 41.5938 86.5548 41.6953 86.5548 41.7969Z" fill="#002C1F"/>
<path d="M79.6876 50.2344C79.6876 50.3385 79.6694 50.4375 79.6303 50.5339C79.5886 50.6302 79.5339 50.7135 79.461 50.7891C79.3881 50.862 79.3022 50.9167 79.2058 50.9583C79.1121 50.9974 79.0131 51.0156 78.9089 51.0156C78.8048 51.0156 78.7058 50.9974 78.6095 50.9583C78.5131 50.9167 78.4298 50.862 78.3569 50.7891C78.2839 50.7135 78.2266 50.6302 78.1876 50.5339C78.1485 50.4375 78.1277 50.3385 78.1277 50.2344C78.1277 50.1328 78.1485 50.0312 78.1876 49.9375C78.2266 49.8411 78.2839 49.7552 78.3569 49.6823C78.4298 49.6094 78.5131 49.5521 78.6095 49.513C78.7058 49.474 78.8048 49.4531 78.9089 49.4531C79.0131 49.4531 79.1121 49.474 79.2058 49.513C79.3022 49.5521 79.3881 49.6094 79.461 49.6823C79.5339 49.7552 79.5886 49.8411 79.6303 49.9375C79.6694 50.0312 79.6876 50.1328 79.6876 50.2344Z" fill="#002C1F"/>
<path d="M86.4766 47.9688C86.4766 48.0729 86.4584 48.1719 86.4167 48.2682C86.3777 48.3646 86.3204 48.4479 86.2475 48.5234C86.1746 48.5964 86.0912 48.651 85.9949 48.6927C85.8985 48.7318 85.7996 48.75 85.698 48.75C85.5938 48.75 85.4949 48.7318 85.3985 48.6927C85.3022 48.651 85.2188 48.5964 85.1459 48.5234C85.073 48.4479 85.0157 48.3646 84.9766 48.2682C84.935 48.1719 84.9167 48.0729 84.9167 47.9688C84.9167 47.8672 84.935 47.7656 84.9766 47.6719C85.0157 47.5755 85.073 47.4896 85.1459 47.4167C85.2188 47.3438 85.3022 47.2865 85.3985 47.2474C85.4949 47.2083 85.5938 47.1875 85.698 47.1875C85.7996 47.1875 85.8985 47.2083 85.9949 47.2474C86.0912 47.2865 86.1746 47.3438 86.2475 47.4167C86.3204 47.4896 86.3777 47.5755 86.4167 47.6719C86.4584 47.7656 86.4766 47.8672 86.4766 47.9688Z" fill="#002C1F"/>
<path d="M81.4844 40.0781C81.4844 40.1823 81.4635 40.2812 81.4245 40.3776C81.3854 40.474 81.3281 40.5573 81.2552 40.6328C81.1823 40.7057 81.0964 40.7604 81.0026 40.8021C80.9063 40.8411 80.8073 40.8594 80.7031 40.8594C80.599 40.8594 80.5 40.8411 80.4036 40.8021C80.3099 40.7604 80.224 40.7057 80.151 40.6328C80.0781 40.5573 80.0208 40.474 79.9818 40.3776C79.9427 40.2812 79.9219 40.1823 79.9219 40.0781C79.9219 39.9766 79.9427 39.875 79.9818 39.7812C80.0208 39.6849 80.0781 39.599 80.151 39.526C80.224 39.4531 80.3099 39.3958 80.4036 39.3568C80.5 39.3177 80.599 39.2969 80.7031 39.2969C80.8073 39.2969 80.9063 39.3177 81.0026 39.3568C81.0964 39.3958 81.1823 39.4531 81.2552 39.526C81.3281 39.599 81.3854 39.6849 81.4245 39.7812C81.4635 39.875 81.4844 39.9766 81.4844 40.0781Z" fill="#002C1F"/>
<path d="M61.1171 77.7344C61.4296 77.7344 61.664 77.6563 61.8984 77.5001C61.9765 77.4219 62.7577 76.9532 63.5364 76.1719C65.0963 74.6094 65.4869 72.2657 64.6301 70.1563C64.0833 68.8282 63.927 67.5001 63.927 67.5001C63.8489 66.9532 63.5364 66.4844 63.0676 66.2501C62.6015 66.0157 62.0546 66.0157 61.5859 66.3282C61.2734 66.5626 58.3098 68.3594 57.9192 71.3282C57.4504 74.2969 59.7135 76.9532 59.9478 77.1876C60.2603 77.5782 60.7265 77.7344 61.1171 77.7344ZM61.039 71.7969C61.1171 71.4063 61.2734 70.9376 61.5859 70.6251C61.664 70.8594 61.7421 71.0938 61.8984 71.4063C62.289 72.3438 62.1327 73.2813 61.5859 73.9844C61.1171 73.2813 60.8827 72.5001 61.039 71.7969Z" fill="#002C1F"/>
<path d="M52.2241 74.6091C53.0809 74.4529 53.6277 73.5935 53.4715 72.7341C53.4715 72.5779 53.3934 72.3435 53.4715 72.1091C53.5496 71.2498 52.9246 70.4685 52.0678 70.3904C51.2085 70.3123 50.4272 70.9373 50.3491 71.7966C50.2736 72.2654 50.3491 72.8123 50.4272 73.281C50.5835 74.0623 51.2085 74.531 51.9897 74.531C52.0678 74.6873 52.146 74.6873 52.2241 74.6091Z" fill="#002C1F"/>
<path d="M55.3438 68.2033C55.5001 68.2815 55.6563 68.2815 55.8126 68.2815C56.4376 68.2815 56.9818 67.969 57.2162 67.4221C57.7631 66.8752 57.8412 66.094 57.4506 65.3908C56.9818 64.6877 56.0469 64.4533 55.2657 64.9221C54.7969 65.2346 54.4089 65.7033 54.2527 66.2502C54.0183 67.1096 54.5626 67.969 55.3438 68.2033Z" fill="#002C1F"/>
<path d="M65.7995 77.9687C66.112 78.4375 66.5808 78.6718 67.1251 78.6718C67.3594 78.6718 67.5938 78.5937 67.7501 78.5156C68.5313 78.125 68.8438 77.1875 68.5313 76.4062C68.2188 75.7812 67.7501 75.3125 67.0469 75.0781C66.2683 74.7656 65.3308 75.1562 65.0183 76.0156C64.7865 76.7187 65.0964 77.5781 65.7995 77.9687Z" fill="#002C1F"/>
<path d="M54.4087 80.0002C54.0962 80.7815 54.5624 81.719 55.3436 82.0315C55.4218 82.1096 55.578 82.1096 55.6561 82.1877C55.9686 82.4221 56.2811 82.5784 56.6692 82.5784C57.1379 82.5784 57.5285 82.4221 57.841 82.0315C58.3879 81.4065 58.3098 80.3909 57.6848 79.844C57.2942 79.5315 56.9035 79.2971 56.3593 79.0627C55.578 78.7502 54.7186 79.219 54.4087 80.0002Z" fill="#002C1F"/>
</svg>
