<svg width="99" height="96" viewBox="0 0 99 96" fill="none" xmlns="http://www.w3.org/2000/svg">
<path d="M73.0909 89.5114C67.3526 94.4433 54.6491 88.9514 43.3807 80.8635C32.1367 72.7217 22.3277 61.9839 24.6162 54.0618C26.8752 46.0615 41.2612 40.9552 51.6567 34.6264C62.0278 28.3515 68.4622 20.8785 72.223 22.3216C76.0082 23.7108 77.1737 34.0405 77.4088 40.8332C77.6684 47.572 76.9978 50.7737 77.2758 60.0525C77.5782 69.2774 78.8293 84.5794 73.0909 89.5114Z" fill="#FD961E"/>
<path d="M2 28.8631C2.16526 28.7561 4.71214 28.8291 5.19576 28.71C7.7451 28.0927 9.22028 26.0488 10.3212 23.8154" stroke="#002C1F" stroke-width="3" stroke-miterlimit="1.5" stroke-linecap="round" stroke-linejoin="round"/>
<path d="M82.6167 22.8167C82.6313 22.7997 82.8208 23.1837 82.8281 23.1958C82.9763 23.4559 83.127 23.7159 83.2947 23.9638C83.8075 24.722 84.3956 25.4244 85.0567 26.0611C87.0106 27.9421 89.261 28.9774 91.9999 28.6177" stroke="#002C1F" stroke-width="3" stroke-miterlimit="1.5" stroke-linecap="round" stroke-linejoin="round"/>
<path d="M8.22156 27.2422C8.64199 27.6942 8.91657 28.659 9.27139 29.1937C10.2532 30.664 11.3687 32.0565 12.5596 33.3592C17.5975 38.871 24.5189 44.1544 31.3673 47.1606C38.0384 50.0891 45.6524 50.1036 52.6831 48.5993C65.3229 45.8969 76.976 38.6595 85.4115 28.9531" stroke="#002C1F" stroke-width="3" stroke-miterlimit="1.5" stroke-linecap="round" stroke-linejoin="round"/>
<path d="M18.4287 8.59242C18.4822 8.56083 18.543 8.02617 18.56 7.96541C18.7106 7.4745 18.9075 7.0006 19.1627 6.55586C19.7848 5.47683 20.7788 4.55333 21.7727 3.82182C25.1289 1.35996 29.9287 1.34781 33.1707 4.06242C34.5389 5.20464 35.3846 6.77215 36.0019 8.41501" stroke="#002C1F" stroke-width="3" stroke-miterlimit="1.5" stroke-linecap="round" stroke-linejoin="round"/>
<path d="M59.6168 8.12575C59.6241 6.07218 62.2415 4.20817 63.8333 3.43778C68.689 1.08285 74.247 2.55073 76.7162 7.38938" stroke="#002C1F" stroke-width="3" stroke-miterlimit="1.5" stroke-linecap="round" stroke-linejoin="round"/>
<path d="M52.7028 47.4863C53.1038 47.6832 53.7064 46.9492 53.913 46.7111C55.0139 45.4449 55.7333 43.7948 56.3773 42.2686C58.0396 38.317 59.0336 34.1102 60.866 30.2266C61.8041 28.2338 63.0095 26.083 64.803 24.7245C65.5127 24.1874 66.3122 23.7791 67.1774 23.5531C72.5191 22.1606 75.6833 28.1852 75.8996 32.6277C75.9555 33.7238 75.851 34.8052 75.7051 35.8891" stroke="#002C1F" stroke-width="3" stroke-miterlimit="1.5" stroke-linecap="round" stroke-linejoin="round"/>
<mask id="path-8-inside-1_307_4" fill="white">
<path fill-rule="evenodd" clip-rule="evenodd" d="M73.6035 20.4253C73.6108 20.4229 73.7834 19.9174 73.7979 19.8882C74.0823 19.2977 74.4104 18.7314 74.7749 18.187C75.7081 16.7921 77.0958 15.3096 78.78 14.877C79.2369 14.7579 79.7715 14.7434 80.2163 14.9111C81.4922 15.3898 81.7814 16.916 81.0255 17.9586C80.5516 18.6099 79.8055 18.9356 79.0667 19.1932C78.1481 19.5115 77.2027 19.7619 76.2598 19.9952"/>
</mask>
<path d="M73.7979 19.8882L76.4812 21.2299L76.4912 21.2099L76.5009 21.1897L73.7979 19.8882ZM74.7749 18.187L77.2676 19.8563L77.2684 19.8552L74.7749 18.187ZM78.78 14.877L79.5263 17.7827L79.5366 17.78L78.78 14.877ZM80.2163 14.9111L79.1578 17.7181L79.1623 17.7198L80.2163 14.9111ZM81.0255 17.9586L83.4514 19.7237L83.4544 19.7194L81.0255 17.9586ZM79.0667 19.1932L80.0491 22.0278L80.0545 22.0259L79.0667 19.1932ZM74.5522 23.2714C74.944 23.1408 75.226 22.9568 75.3879 22.837C75.5586 22.7107 75.6845 22.5894 75.7646 22.5062C75.9203 22.3446 76.0238 22.2001 76.0721 22.1302C76.1729 21.9843 76.238 21.8616 76.2601 21.8196C76.3131 21.7188 76.3488 21.6364 76.3587 21.6136C76.3857 21.5515 76.4057 21.4995 76.4123 21.4826C76.4296 21.4376 76.4459 21.393 76.456 21.3649C76.4786 21.3026 76.5055 21.2263 76.5278 21.1628C76.5524 21.0929 76.5727 21.0351 76.5887 20.9901C76.5924 20.9797 76.5954 20.9715 76.5976 20.9653C76.6 20.9587 76.6008 20.9565 76.6004 20.9575C76.6002 20.9582 76.5992 20.9609 76.5976 20.9651C76.5961 20.969 76.593 20.9771 76.5888 20.988C76.5852 20.9973 76.577 21.0183 76.5657 21.0454C76.5604 21.0581 76.5288 21.1347 76.4812 21.2299L71.1147 18.5466C71.0662 18.6436 71.0333 18.723 71.0266 18.7392C71.0138 18.77 71.0037 18.7955 70.998 18.8101C70.9864 18.8399 70.9767 18.8662 70.971 18.8816C70.9588 18.9146 70.9463 18.9496 70.9361 18.9781C70.9155 19.0362 70.8894 19.1104 70.8682 19.1708C70.8446 19.2377 70.8261 19.29 70.8138 19.3241C70.8065 19.3441 70.808 19.3397 70.8144 19.3229C70.8155 19.3201 70.8311 19.2792 70.8547 19.2249C70.863 19.2059 70.8973 19.1265 70.9492 19.0277C70.9708 18.9867 71.0354 18.8648 71.1358 18.7195C71.184 18.6498 71.2873 18.5056 71.4429 18.3441C71.5229 18.2611 71.6487 18.1398 71.8193 18.0136C71.9811 17.8938 72.2631 17.7099 72.6548 17.5793L74.5522 23.2714ZM76.5009 21.1897C76.7191 20.7367 76.9752 20.2929 77.2676 19.8563L72.2822 16.5178C71.8455 17.1699 71.4455 17.8587 71.0949 18.5868L76.5009 21.1897ZM77.2684 19.8552C78.091 18.6255 78.9472 17.9314 79.5263 17.7827L78.0336 11.9713C75.2444 12.6878 73.3253 14.9586 72.2814 16.5189L77.2684 19.8552ZM79.5366 17.78C79.5261 17.7828 79.5096 17.7867 79.4731 17.7864C79.4399 17.786 79.3258 17.7815 79.1578 17.7181L81.2747 12.104C80.0922 11.6581 78.8945 11.747 78.0233 11.974L79.5366 17.78ZM79.1623 17.7198C78.8088 17.5872 78.5459 17.2578 78.4657 16.924C78.3973 16.6392 78.4625 16.3828 78.5966 16.1978L83.4544 19.7194C85.1491 17.3818 84.7423 13.4051 81.2702 12.1023L79.1623 17.7198ZM78.5997 16.1935C78.6709 16.0957 78.7227 16.0809 78.6465 16.1249C78.5539 16.1783 78.3927 16.2511 78.079 16.3604L80.0545 22.0259C80.8301 21.7555 82.3864 21.1872 83.4514 19.7237L78.5997 16.1935ZM78.0844 16.3586C77.2983 16.631 76.46 16.8552 75.5393 17.083L76.9803 22.9073C77.9455 22.6685 78.9979 22.3921 80.0491 22.0278L78.0844 16.3586Z" fill="#002C1F" mask="url(#path-8-inside-1_307_4)"/>
<mask id="path-10-inside-2_307_4" fill="white">
<path fill-rule="evenodd" clip-rule="evenodd" d="M74.2693 21.6429C74.3228 21.6867 74.3616 21.5336 74.4175 21.4898C74.5172 21.4145 74.6192 21.3464 74.7262 21.2833C75.047 21.0961 75.3921 20.9503 75.742 20.8215C77.103 20.3184 79.21 19.949 80.0387 21.502C80.1408 21.694 80.221 21.9078 80.2502 22.1241C80.3449 22.914 79.5964 23.2761 78.9111 23.2542C77.6765 23.2177 76.6194 22.321 75.4577 21.9905"/>
</mask>
<path d="M74.4175 21.4898L72.6082 19.0968L72.5883 19.1119L72.5686 19.1273L74.4175 21.4898ZM74.7262 21.2833L73.2146 18.6919L73.2073 18.6962L73.2 18.7005L74.7262 21.2833ZM75.742 20.8215L76.7782 23.6369L76.7822 23.6354L75.742 20.8215ZM80.0387 21.502L82.6877 20.0937L82.6854 20.0896L80.0387 21.502ZM80.2502 22.1241L83.2288 21.7667L83.2262 21.745L83.2233 21.7233L80.2502 22.1241ZM78.9111 23.2542L79.0068 20.2557L78.9996 20.2555L78.9111 23.2542ZM72.3696 23.9648C72.7906 24.3093 73.4626 24.6622 74.3295 24.6504C75.1563 24.6392 75.7597 24.3002 76.0888 24.0573C76.4077 23.8219 76.6085 23.5765 76.6995 23.4588C76.8008 23.3275 76.8712 23.2145 76.9023 23.1635C76.9205 23.1339 76.9351 23.109 76.9439 23.0939C76.9519 23.0802 76.9601 23.0658 76.9605 23.065C76.968 23.0521 76.95 23.0839 76.925 23.124C76.9184 23.1347 76.6992 23.5137 76.2665 23.8523L72.5686 19.1273C72.1079 19.4878 71.8629 19.9024 71.8316 19.9528C71.7943 20.0127 71.7642 20.0653 71.7598 20.073C71.7461 20.0969 71.763 20.067 71.7827 20.0348C71.8021 20.003 71.8608 19.9078 71.9504 19.7917C72.0296 19.6892 72.2186 19.4565 72.5255 19.23C72.8425 18.9959 73.4337 18.662 74.248 18.651C75.1023 18.6394 75.7614 18.9876 76.169 19.3211L72.3696 23.9648ZM76.2268 23.8828C76.2321 23.8789 76.2392 23.8738 76.2524 23.866L73.2 18.7005C72.9993 18.8191 72.8023 18.9501 72.6082 19.0968L76.2268 23.8828ZM76.2378 23.8746C76.3442 23.8125 76.5068 23.7368 76.7782 23.6369L74.7058 18.0061C74.2774 18.1638 73.7498 18.3797 73.2146 18.6919L76.2378 23.8746ZM76.7822 23.6354C77.0043 23.5533 77.2406 23.4831 77.4645 23.4379C77.6946 23.3915 77.8553 23.3829 77.9444 23.3872C78.0352 23.3916 77.9648 23.4047 77.8156 23.3265C77.7369 23.2852 77.6492 23.2248 77.5664 23.1432C77.4831 23.0611 77.4265 22.979 77.392 22.9144L82.6854 20.0896C81.6105 18.0753 79.6895 17.4649 78.2355 17.3943C76.864 17.3277 75.5635 17.6891 74.7019 18.0076L76.7822 23.6354ZM77.3898 22.9103C77.3781 22.8882 77.3592 22.8493 77.3392 22.7921C77.3194 22.7354 77.2933 22.6455 77.2771 22.525L83.2233 21.7233C83.1343 21.0634 82.9071 20.5065 82.6876 20.0937L77.3898 22.9103ZM77.2715 22.4816C77.234 22.1684 77.2711 21.7702 77.459 21.3677C77.6413 20.9774 77.904 20.7135 78.1287 20.5529C78.5274 20.2679 78.8622 20.2511 79.0068 20.2557L78.8154 26.2527C79.6453 26.2792 80.6971 26.0922 81.6177 25.4342C82.6876 24.6694 83.4184 23.3469 83.2288 21.7667L77.2715 22.4816ZM78.9996 20.2555C79.0544 20.2571 78.9674 20.2734 78.453 20.027C78.325 19.9657 77.8342 19.7209 77.5795 19.6023C77.2335 19.4413 76.7873 19.2497 76.2787 19.105L74.6367 24.8759C74.8935 24.949 75.0685 25.0586 75.8611 25.4382C76.4743 25.732 77.5332 26.2148 78.8225 26.2529L78.9996 20.2555Z" fill="#002C1F" mask="url(#path-10-inside-2_307_4)"/>
<mask id="path-12-inside-3_307_4" fill="white">
<path fill-rule="evenodd" clip-rule="evenodd" d="M72.4708 19.7618C72.3712 19.684 72.3566 19.4702 72.342 19.3632C72.2934 19.0157 72.3007 18.6633 72.3274 18.3158C72.3566 18.0023 72.4003 17.6888 72.4635 17.3801C72.5121 17.142 72.568 16.9038 72.6434 16.6705C72.9496 15.7373 73.9849 14.0021 75.2219 14.77C75.8853 15.1808 75.4868 16.0216 75.1806 16.5223C74.4077 17.8006 73.0978 18.8553 72.743 20.3451"/>
</mask>
<path d="M72.342 19.3632L75.3145 18.9579L75.3131 18.9477L72.342 19.3632ZM72.3274 18.3158L69.3403 18.0379L69.3381 18.0618L69.3363 18.0857L72.3274 18.3158ZM72.4635 17.3801L75.4026 17.9818L75.4029 17.98L72.4635 17.3801ZM72.6434 16.6705L69.7929 15.7352L69.7885 15.7486L72.6434 16.6705ZM75.2219 14.77L73.6395 17.3188L73.6428 17.3208L75.2219 14.77ZM75.1806 16.5223L72.6213 14.9569L72.6173 14.9635L72.6133 14.9702L75.1806 16.5223ZM74.3166 17.3969C74.7793 17.758 75.0121 18.1677 75.1175 18.3882C75.2276 18.6186 75.2761 18.8067 75.2955 18.8896C75.317 18.9813 75.3256 19.0458 75.3265 19.0524C75.3272 19.0574 75.3273 19.0586 75.3254 19.0431C75.3246 19.0364 75.3198 18.9966 75.3145 18.9579L69.3695 19.7686C69.352 19.6399 69.3925 19.9967 69.4535 20.2573C69.4908 20.4168 69.5626 20.6796 69.7039 20.9753C69.8405 21.2611 70.1125 21.7267 70.625 22.1267L74.3166 17.3969ZM75.3131 18.9477C75.3071 18.9048 75.2995 18.7943 75.3186 18.5459L69.3363 18.0857C69.3019 18.5323 69.2797 19.1266 69.3709 19.7788L75.3131 18.9477ZM75.3145 18.5937C75.3353 18.3708 75.3646 18.1671 75.4026 17.9818L69.5245 16.7784C69.436 17.2105 69.3779 17.6338 69.3403 18.0379L75.3145 18.5937ZM75.4029 17.98C75.441 17.7934 75.4712 17.6761 75.4982 17.5924L69.7885 15.7486C69.6649 16.1316 69.5832 16.4906 69.5241 16.7803L75.4029 17.98ZM75.4938 17.6058C75.5065 17.5673 75.5471 17.4648 75.6127 17.3488C75.6814 17.2275 75.7254 17.183 75.7113 17.1972C75.7 17.2086 75.6501 17.2574 75.5554 17.3178C75.4594 17.3789 75.2972 17.4646 75.0709 17.5214C74.8354 17.5805 74.5638 17.5996 74.2816 17.5532C74.0018 17.5071 73.7847 17.4089 73.6395 17.3188L76.8042 12.2213C75.8354 11.6198 74.7077 11.4263 73.6095 11.7021C72.6208 11.9504 71.9065 12.514 71.4559 12.9674C70.5807 13.8478 70.0436 14.9711 69.7929 15.7352L75.4938 17.6058ZM73.6428 17.3208C73.2627 17.0855 72.9004 16.6845 72.7105 16.1483C72.5408 15.6691 72.5784 15.2801 72.6071 15.1107C72.6228 15.0182 72.6422 14.9527 72.6536 14.9181C72.6652 14.8826 72.6737 14.8641 72.6738 14.8637C72.6743 14.8627 72.6705 14.8711 72.6606 14.8893C72.6509 14.9072 72.638 14.9296 72.6213 14.9569L77.7398 18.0876C77.9324 17.7726 78.3672 17.0304 78.5226 16.1142C78.6063 15.6207 78.6383 14.9131 78.3662 14.1451C78.074 13.3201 77.5127 12.6599 76.8009 12.2192L73.6428 17.3208ZM72.6133 14.9702C72.3401 15.4219 72.0836 15.6708 71.4261 16.5266C70.8966 17.2157 70.1542 18.2661 69.8246 19.65L75.6614 21.0401C75.6866 20.9343 75.7765 20.7124 76.184 20.1821C76.4326 19.8584 76.5524 19.7233 76.8833 19.3019C77.1465 18.9665 77.4608 18.5492 77.7478 18.0743L72.6133 14.9702Z" fill="#002C1F" mask="url(#path-12-inside-3_307_4)"/>
<mask id="path-14-inside-4_307_4" fill="white">
<path fill-rule="evenodd" clip-rule="evenodd" d="M63.3599 44.3319C63.355 44.4583 63.4862 44.1156 63.5446 44.0038C63.6904 43.7219 63.8313 43.4351 63.9601 43.1459C64.3028 42.3901 64.5823 41.6051 64.8205 40.8104C65.4961 38.5284 65.7294 36.1346 66.5508 33.8915C66.7865 33.2499 67.2629 31.7529 68.1524 31.7237C69.3067 31.6872 69.4258 33.4978 69.3699 34.2657C69.1609 37.1019 68.128 40.0692 67.1244 42.7182"/>
</mask>
<path d="M63.5446 44.0038L66.2043 45.3915L66.2092 45.3821L63.5446 44.0038ZM63.9601 43.1459L61.2278 41.9072L61.2237 41.9163L61.2197 41.9254L63.9601 43.1459ZM64.8205 40.8104L67.6942 41.6717L67.697 41.6621L64.8205 40.8104ZM66.5508 33.8915L63.7349 32.8568L63.7338 32.8599L66.5508 33.8915ZM68.1524 31.7237L68.0577 28.7252L68.054 28.7253L68.1524 31.7237ZM69.3699 34.2657L72.3618 34.4862L72.362 34.4835L69.3699 34.2657ZM60.3621 44.2166C60.3586 44.3078 60.3523 44.539 60.3986 44.8266C60.4114 44.9065 60.5415 45.9675 61.5275 46.7308C62.1508 47.2134 62.9159 47.4162 63.6523 47.3458C64.2951 47.2844 64.7567 47.0329 64.9901 46.8831C65.431 46.6003 65.6859 46.2694 65.7459 46.1923C65.9183 45.9708 66.0249 45.7678 66.047 45.7264C66.0893 45.6473 66.1228 45.5773 66.1425 45.5355C66.1799 45.4562 66.2203 45.3645 66.2309 45.3405C66.2615 45.2719 66.2412 45.3208 66.2043 45.3915L60.8848 42.6161C60.8384 42.705 60.6282 43.162 60.7145 42.9788C60.7157 42.9763 60.7193 42.9686 60.725 42.9571C60.7305 42.9461 60.7405 42.926 60.7546 42.8998C60.7597 42.8901 60.8512 42.7125 61.011 42.5071C61.0648 42.438 61.3141 42.1129 61.7502 41.8331C61.9811 41.6849 62.4405 41.4343 63.0812 41.3731C63.8156 41.3028 64.5788 41.5052 65.2006 41.9865C65.7468 42.4094 66.008 42.9101 66.1257 43.1889C66.2494 43.4818 66.2997 43.7324 66.3224 43.8739C66.3673 44.1527 66.3606 44.3718 66.3577 44.4472L60.3621 44.2166ZM66.2092 45.3821C66.3732 45.065 66.5415 44.7238 66.7006 44.3665L61.2197 41.9254C61.1212 42.1465 61.0076 42.3788 60.8799 42.6255L66.2092 45.3821ZM66.6924 44.3847C67.1034 43.4782 67.4274 42.5618 67.6942 41.6717L61.9467 39.9492C61.7372 40.6485 61.5022 41.302 61.2278 41.9072L66.6924 44.3847ZM67.697 41.6621C68.0782 40.3745 68.3356 39.0502 68.5664 37.9553C68.8098 36.8012 69.0373 35.8257 69.3679 34.9231L63.7338 32.8599C63.2429 34.2004 62.9431 35.5434 62.6955 36.7174C62.4354 37.9508 62.2383 38.9643 61.9439 39.9588L67.697 41.6621ZM69.3667 34.9261C69.4509 34.697 69.4907 34.5771 69.5638 34.393C69.6297 34.227 69.6812 34.1192 69.7161 34.0576C69.7613 33.978 69.7214 34.0768 69.5554 34.2247C69.3661 34.3932 68.9193 34.7002 68.2507 34.7221L68.054 28.7253C65.8648 28.7971 64.7906 30.5799 64.4967 31.0983C64.0832 31.8276 63.8051 32.6657 63.7349 32.8568L69.3667 34.9261ZM68.247 34.7222C67.9872 34.7304 67.6858 34.6862 67.3809 34.5587C67.0804 34.433 66.852 34.2582 66.6921 34.0945C66.5381 33.9369 66.4513 33.7945 66.4082 33.713C66.3647 33.6309 66.3488 33.579 66.3472 33.5737C66.3468 33.5726 66.3643 33.6381 66.3744 33.7697C66.3841 33.8947 66.3812 34.002 66.3778 34.048L72.362 34.4835C72.4053 33.888 72.3977 32.8377 72.0828 31.8124C71.9242 31.2958 71.6167 30.5491 70.9829 29.9005C70.2646 29.1657 69.2442 28.6877 68.0577 28.7252L68.247 34.7222ZM66.378 34.0453C66.2047 36.3973 65.3273 38.9941 64.319 41.6552L69.9297 43.7812C70.9288 41.1443 72.1171 37.8064 72.3618 34.4862L66.378 34.0453Z" fill="#002C1F" mask="url(#path-14-inside-4_307_4)"/>
</svg>
