<svg width="77" height="100" viewBox="0 0 77 100" fill="none" xmlns="http://www.w3.org/2000/svg">
<path d="M59.6523 17.0061C51.0713 9.43939 32.4623 9.17316 22.2756 17.5658C12.089 25.9584 10.3027 43.0848 15.5072 59.0945C20.7645 75.2011 33.0653 90.2878 42.5505 89.2539C52.1105 88.242 58.8548 71.1094 62.902 55.136C66.9273 39.2374 68.2554 24.4979 59.6523 17.0061Z" fill="#FD961E"/>
<mask id="mask0_307_6" style="mask-type:luminance" maskUnits="userSpaceOnUse" x="22" y="0" width="55" height="100">
<path d="M22.9999 0H76.809V100H22.9999V0Z" fill="white"/>
</mask>
<g mask="url(#mask0_307_6)">
<path d="M75.1975 34.8474C73.5108 31.9474 70.4656 29.7634 67.1607 29.1141C70.293 25.5186 71.8122 20.7696 71.7404 15.9967C71.708 13.2899 71.1748 10.6873 70.1392 8.18718C69.2335 6.02374 67.7177 4.71816 65.5526 3.82613C61.4684 2.1463 56.5144 2.36675 52.7001 4.67031C48.8859 -0.604987 41.196 -0.717773 35.9463 2.57181C30.1276 6.21685 29.6816 12.861 31.9817 18.719C28.8835 19.8673 26.1545 22.1675 24.6131 25.0863C22.559 28.9739 22.9486 33.6358 24.907 37.4773C27.419 42.4023 32.3543 44.8409 36.7734 47.7408C37.9679 53.6211 42.7254 57.7172 47.3069 61.3999C47.3821 62.0612 46.9788 62.6781 46.714 63.2574C46.4474 63.8043 46.2867 64.3801 46.232 64.9851C46.232 65.1594 46.285 65.3166 46.391 65.455C46.4952 65.5934 46.6319 65.6857 46.7994 65.7319C47.1736 65.8036 47.5513 65.8293 47.9324 65.8105C48.3493 68.7173 48.6672 71.8343 47.4266 74.5685C46.3397 76.9626 44.5198 78.9757 43.2432 81.2929C40.9892 83.0018 38.9164 84.8849 37.5322 87.4278C37.498 87.4893 37.4877 87.5525 37.5065 87.6209C37.5236 87.6892 37.5629 87.7405 37.6244 87.7764C37.6843 87.8123 37.7492 87.8208 37.8175 87.802C37.8842 87.7849 37.9372 87.7456 37.9713 87.6841C39.1641 85.7633 40.7466 84.2185 42.4896 82.8326C42.0333 83.8801 41.6659 84.9806 41.5292 86.1034C39.4957 87.9951 37.5971 90.0646 36.9272 92.8073C36.218 95.7073 37.3117 98.8225 40.2236 99.894C40.4783 99.988 40.6594 99.5659 40.4099 99.448C38.3063 98.4825 37.257 96.1875 37.5117 93.9471C37.7663 91.6709 39.1112 89.7279 40.6628 88.1147C40.9311 87.8362 41.2045 87.5628 41.4797 87.291C41.4933 87.6499 41.5361 88.0054 41.6061 88.3557C39.9519 90.4354 38.3217 92.9389 38.701 95.4202C39.2274 98.8533 43.7884 99.366 46.5533 99.4993C46.7891 99.5112 46.7823 99.1592 46.5533 99.137C44.5932 98.9387 41.8539 98.3235 40.4492 96.8522C38.7181 95.0391 40.0493 92.5527 41.1892 90.7823C41.4455 90.3841 41.7138 89.9945 41.9906 89.6117C42.3392 90.4268 42.8177 91.1548 43.4261 91.7974C44.0344 92.4399 44.7368 92.956 45.5297 93.3473C45.8954 93.5302 46.2115 93.0021 45.8527 92.7902C45.07 92.3442 44.4053 91.7615 43.8601 91.042C43.315 90.3226 42.9322 89.5263 42.7135 88.6513C44.4719 86.3939 46.4867 84.333 48.2383 82.0687C49.1098 80.958 49.8805 79.7805 50.5538 78.5399C52.1858 76.8071 53.8878 74.9085 54.7713 72.7058C55.9556 71.0977 56.8202 69.247 56.4921 67.2306C56.0393 64.4485 53.5939 62.5363 53.1205 59.7799C54.016 59.0245 54.8021 58.1684 55.4822 57.2148C55.73 56.8662 55.9556 56.5074 56.1743 56.1417C63.9633 57.5566 72.2617 51.9635 75.3752 44.94C76.8124 41.7051 77.0226 37.9831 75.1975 34.8474ZM63.0491 4.62246C65.2006 5.19494 67.4409 6.11602 68.4748 8.21452C69.4779 10.2583 69.9923 12.6405 70.1461 14.8996C70.4913 20.0382 68.9208 25.2503 65.2279 28.9227C63.666 28.9193 62.1724 29.2354 60.7455 29.8694C60.8241 29.7686 60.8276 29.666 60.7558 29.5601C58.741 26.156 55.325 23.9721 54.1647 19.9938C54.1527 19.9545 54.1271 19.9237 54.0912 19.9049C54.0553 19.8844 54.016 19.881 53.9767 19.8913C53.9374 19.9015 53.9066 19.9254 53.8844 19.9613C53.8639 19.9972 53.8588 20.0348 53.8673 20.0758C54.1903 22.0222 55.0618 23.632 56.2221 25.2144C57.4047 26.8276 58.741 28.6561 60.2893 29.919C60.3422 29.9617 60.4038 29.9839 60.4704 29.9873C59.8774 30.2659 59.3101 30.5888 58.7667 30.9562C55.1387 28.4664 51.7791 25.2913 49.9318 21.2327C48.0144 17.0221 47.9443 11.4665 51.1827 7.87445C54.0245 4.72671 59.0162 3.54416 63.0525 4.62246H63.0491ZM55.4087 34.186C53.3546 32.3285 50.3932 31.7013 47.5274 31.9064C47.5052 31.5629 47.4761 31.2194 47.4419 30.8742C47.4829 30.8588 47.524 30.8417 47.5616 30.8195C49.2602 29.8318 50.5709 28.4271 51.9465 27.0651C53.5785 28.909 55.489 30.5307 57.4747 31.9354C56.7006 32.607 56.0119 33.3589 55.4121 34.1894L55.4087 34.186ZM36.7256 3.90986C41.2456 1.06629 48.1033 0.907368 51.4373 5.55209C47.5137 8.67592 46.3773 13.9324 47.4573 18.7104C48.0588 21.3712 49.3183 23.755 50.9639 25.8723C49.7694 27.0515 48.6433 28.2767 47.2403 29.1995C46.7652 26.127 45.7501 23.1159 43.5149 20.8927C40.8611 18.2542 37.0366 17.4083 33.4565 18.273C31.3443 13.1207 31.5801 7.14476 36.7256 3.90986ZM26.2502 36.6946C23.8885 32.0516 24.3994 26.5542 28.2188 22.8835C31.2127 19.9989 35.9139 18.449 39.8682 20.233C44.4599 22.3059 45.6869 27.5077 45.9979 32.1012C45.0529 32.2652 44.1336 32.5199 43.2415 32.8685C40.9294 33.7742 38.8617 35.3908 37.6535 37.5918C36.8076 39.1366 36.4915 40.9002 36.4282 42.6791C35.8233 42.0691 35.0833 41.5444 34.4938 40.9497C33.5112 39.9825 32.6021 38.9504 31.7647 37.855C31.6331 37.679 31.3375 37.8379 31.4622 38.0327C32.1629 39.1264 32.8789 40.1927 33.7316 41.1736C34.4801 42.0332 35.3721 43.1901 36.4163 43.725C36.4248 44.4034 36.4607 45.0767 36.512 45.7329C32.5952 43.2602 28.4273 40.9925 26.2502 36.6946ZM53.4811 66.8085C54.5338 68.4968 54.5662 70.3322 53.9647 72.0684C53.4264 72.8203 52.8317 73.5278 52.1824 74.1874C52.2302 73.9567 52.2746 73.7226 52.3105 73.4885C52.5344 72.0222 52.5258 70.5184 52.1431 69.0796C51.7739 67.6834 51.0084 66.4513 50.4598 65.132C50.711 65.1201 50.9349 65.0381 51.1331 64.8826C51.3313 64.7288 51.4663 64.5322 51.5398 64.2913C52.1977 65.1184 52.9223 65.9096 53.4811 66.8085ZM49.9642 63.0079C49.995 63.1583 50.1163 63.4351 50.0958 63.6077H50.0804C50.0138 63.6009 49.9471 63.6009 49.8805 63.6077C49.5797 63.3018 48.9885 63.4676 48.8774 63.8897C48.5852 64.0298 48.2827 64.1409 47.97 64.2246C48.1409 63.7786 48.3921 63.3599 48.5681 62.9242C48.6347 62.755 48.6928 62.5824 48.739 62.4047C48.997 62.4628 49.2209 62.3979 49.4071 62.2099C49.5182 62.1108 49.631 62.0202 49.7421 61.9296C49.8156 62.2919 49.889 62.6473 49.9642 63.0079ZM46.4474 78.2528C47.8418 76.2893 49.0107 74.4164 49.3354 71.9829C49.6259 69.8332 49.3815 67.6697 49.0773 65.5336C49.1508 65.4977 49.2243 65.4602 49.3012 65.4226C49.9078 66.9042 50.7845 68.2764 51.1126 69.8639C51.5193 71.836 51.1998 73.8866 50.5418 75.7698C48.9816 77.1967 47.2249 78.4288 45.4733 79.6729C45.7912 79.1876 46.1193 78.7159 46.4474 78.2528ZM44.3967 81.4091C46.1654 80.1497 48.0127 78.9671 49.7387 77.6598C49.5934 77.9555 49.4362 78.246 49.2756 78.5313L48.8364 79.0013C47.3206 80.6384 45.7484 82.2191 44.1199 83.7417C43.7115 84.1262 43.2877 84.509 42.857 84.8952C43.2381 83.6734 43.7508 82.5113 44.3967 81.4091ZM42.5204 87.2347C42.5118 86.898 42.5272 86.5631 42.5682 86.2298C43.773 85.0849 45.0085 83.969 46.232 82.8394C45.2289 84.0664 44.1694 85.2541 43.1646 86.4674C42.9664 86.71 42.7442 86.9681 42.5204 87.2347ZM55.3284 69.1342C55.0054 66.5077 52.977 64.5767 51.4732 62.3791C51.3621 61.8818 51.2168 61.4118 51.1382 61.0649C51.4663 60.8889 51.7944 60.7129 52.1123 60.5215C52.5532 62.4987 54.0655 64.0913 54.9336 65.9181C55.178 66.4171 55.3335 66.9417 55.4002 67.4937C55.4685 68.044 55.4446 68.5908 55.3284 69.1342ZM51.3006 59.2433C50.4872 59.7696 49.6276 60.1199 48.8569 60.6736C45.0187 57.6232 40.3057 54.0671 38.7079 49.3198C37.8944 46.9052 37.8158 44.0531 38.067 41.5291C38.3388 38.829 39.805 36.5699 42.1051 35.1447C46.1996 32.6053 53.705 32.3763 55.8957 37.5662C57.2628 40.8113 57.4235 44.8409 57.0527 48.3082C56.7519 51.1295 55.9145 53.903 54.2809 56.2459C53.4828 57.3891 52.4763 58.4794 51.3006 59.2433ZM74.9822 40.3209C74.5362 48.4927 64.8878 55.8699 56.9279 54.7062C57.2287 54.0517 57.4884 53.3835 57.7072 52.6983C57.6678 52.8521 57.849 52.9888 58.0011 52.9632C58.6932 52.8435 59.3152 52.2984 59.8945 51.9224C60.2585 51.6849 59.9321 51.1141 59.5544 51.338C58.9358 51.7054 58.1771 52.0318 57.7465 52.6248C57.7328 52.6436 57.7242 52.6624 57.7174 52.6846C58.0404 51.6661 58.2796 50.6305 58.4368 49.5744C58.8589 46.7565 58.6778 44.0223 58.3565 41.2061C58.1942 39.7963 57.9772 38.5112 57.4645 37.2329C58.7598 35.9427 59.6245 34.5261 61.3146 33.5623C63.0918 32.5489 65.1356 32.1234 67.1658 32.0926C67.3794 32.0926 67.4426 31.7457 67.2188 31.7064C65.0758 31.3219 63.0081 31.7064 61.0736 32.7044C59.6382 33.4444 57.8285 34.7277 57.039 36.3033C57.027 36.2777 57.0151 36.2521 57.0031 36.2281C56.8425 35.9274 56.663 35.6386 56.4648 35.3617C58.8692 31.7748 63.4387 29.5891 67.7092 30.8315C71.8225 32.0311 75.2197 35.9103 74.9822 40.3209Z" fill="#002C1F"/>
</g>
<path d="M43.9456 35.5515C44.1473 35.4233 44.0208 35.0815 43.7764 35.155C43.0348 35.384 42.3581 35.7377 41.748 36.2196C41.1379 36.6998 40.6355 37.2757 40.2391 37.9439C39.5025 39.1606 38.8053 41.0746 39.4496 42.4365C39.5401 42.6262 39.805 42.5476 39.8631 42.3819C40.3416 41.0182 40.1912 39.6938 40.9773 38.3745C41.6967 37.1578 42.7699 36.2983 43.9456 35.5515Z" fill="#002C1F"/>
<path d="M44.3746 53.6108C42.8485 51.8626 41.2644 49.7795 40.6441 47.5015C40.6338 47.4657 40.6116 47.4366 40.5792 47.4178C40.545 47.399 40.5091 47.3939 40.4732 47.4058C40.4356 47.4161 40.4083 47.4366 40.3895 47.4708C40.3707 47.505 40.3655 47.5391 40.3758 47.5767C40.8714 49.7761 41.6745 51.5157 43.069 53.3066C44.5181 55.1693 46.2612 57.225 48.1119 58.6878C48.3494 58.8741 48.7356 58.6417 48.5579 58.3427C47.5035 56.5569 45.7348 55.1659 44.3746 53.6108Z" fill="#002C1F"/>
<path d="M29.7346 23.2987C28.2308 24.6453 27.1884 26.3114 26.8158 28.3142C26.4997 30.0129 26.5133 32.3215 27.7403 33.6681C27.8155 33.7416 27.9027 33.7587 28.0018 33.7177C28.0992 33.6767 28.1487 33.6032 28.1522 33.4973C28.0411 31.6978 27.3524 30.141 27.6925 28.2766C28.0103 26.5336 28.8887 24.946 30.102 23.6712C30.3344 23.4234 29.9824 23.0765 29.7346 23.2987Z" fill="#002C1F"/>
<path d="M50.9554 15.7319C51.099 15.9985 51.586 15.8926 51.5518 15.5696C51.3297 13.5292 51.3075 11.6648 52.3738 9.8158C53.2556 8.28635 54.7816 6.82526 56.2837 5.90247C56.3213 5.87513 56.3452 5.83924 56.3538 5.79481C56.364 5.75038 56.3572 5.70766 56.335 5.66835C56.311 5.62734 56.2786 5.60171 56.2341 5.58804C56.1897 5.57437 56.147 5.57778 56.106 5.59829C54.0998 6.6014 52.4473 7.74976 51.3553 9.77649C50.3898 11.5725 49.954 13.8675 50.9554 15.7319Z" fill="#002C1F"/>
<path d="M34.3178 12.2748C34.4374 12.4491 34.7792 12.4081 34.7569 12.1551C34.6168 10.5676 34.5006 9.25517 35.3345 7.80434C36.0318 6.59275 37.2451 5.26495 38.4413 4.51988C38.4943 4.48912 38.5301 4.44298 38.5455 4.38146C38.5609 4.32165 38.5541 4.26526 38.5216 4.21057C38.4908 4.15589 38.4447 4.12171 38.3849 4.10633C38.3234 4.08924 38.267 4.09779 38.2123 4.12855C35.7395 5.36919 32.3355 9.40043 34.3178 12.2748Z" fill="#002C1F"/>
<path d="M60.2124 27.8478C60.5457 28.3058 60.8567 28.9415 61.3779 29.1995C61.5026 29.261 61.6974 29.1892 61.6821 29.0252C61.6257 28.4015 61.125 27.9093 60.7524 27.4291C60.262 26.8071 59.7493 26.2073 59.2127 25.6228C58.9479 25.3323 58.536 25.7578 58.7855 26.0517C59.2811 26.6345 59.7596 27.2309 60.2124 27.8478Z" fill="#002C1F"/>
<path d="M46.9019 22.969C47.124 24.4609 47.107 25.9937 47.406 27.4685C47.4521 27.6906 47.7495 27.6086 47.7734 27.4189C48.1545 24.5019 47.2009 21.1781 46.3653 18.408C46.2901 18.1568 45.9005 18.2611 45.9705 18.5208C46.3687 19.9853 46.6797 21.4669 46.9019 22.969Z" fill="#002C1F"/>
<path d="M48.6843 27.3728C48.9201 26.1595 48.6381 24.7907 48.3921 23.5962C48.3664 23.5142 48.3118 23.4783 48.2263 23.4903C48.1426 23.5022 48.0981 23.5501 48.0964 23.6355C48.1836 24.8642 48.0623 26.1613 48.2656 27.3728C48.2998 27.5882 48.6501 27.5813 48.6843 27.3728Z" fill="#002C1F"/>
<path d="M54.5338 51.0031C53.3444 53.2691 51.4185 55.3009 50.5162 57.6968C50.4376 57.9035 50.7145 58.0112 50.8495 57.8933C52.8027 56.2203 53.7136 53.3665 54.6808 51.068C54.7201 50.9809 54.5765 50.9211 54.5338 51.0031Z" fill="#002C1F"/>
<path d="M49.9523 55.5351C49.7472 56.41 49.5439 57.2815 49.4721 58.1804C49.4448 58.5034 49.9626 58.5683 50.036 58.2556C50.2394 57.3806 50.306 56.4869 50.3778 55.5914C50.3983 55.3471 50.007 55.2975 49.9523 55.5351Z" fill="#002C1F"/>
<path d="M64.5136 50.8117C62.41 51.7157 59.7715 52.2625 57.8814 53.563C57.6285 53.739 57.7943 54.0773 58.0814 54.038C60.3491 53.7253 62.6988 52.1668 64.7255 51.1774C64.975 51.056 64.758 50.7074 64.5136 50.8117Z" fill="#002C1F"/>
</svg>
