<svg width="91" height="101" viewBox="0 0 91 101" fill="none" xmlns="http://www.w3.org/2000/svg">
<path d="M57.9431 10.205C51.7267 8.48118 40.8287 24.7587 27.2521 40.5383C13.6689 56.4304 -2.58618 71.7122 1.79811 83.3697C6.18908 94.9147 31.1136 102.716 45.5767 96.6935C59.9207 90.7764 63.8098 70.9226 64.8745 51.1263C66.045 31.4492 64.2787 11.8231 57.9431 10.205Z" fill="#FD961E"/>
<path d="M77.1832 20.7437C76.6062 19.9583 75.9937 19.1999 75.3478 18.4708C74.702 17.7395 74.0249 17.0395 73.3145 16.3708C72.6062 15.702 71.8687 15.0666 71.102 14.4624C70.3374 13.8603 69.5457 13.2937 68.727 12.7603C67.9103 12.2291 67.0707 11.7353 66.2103 11.2791C65.3478 10.8228 64.4666 10.4062 63.5687 10.0291C62.6687 9.652 61.7562 9.31658 60.8249 9.02283C59.8957 8.727 58.9562 8.47492 58.0041 8.2645C57.052 8.05408 56.0916 7.88742 55.1249 7.7645C54.1582 7.6395 53.1874 7.56033 52.2145 7.52283C51.2395 7.48742 50.2666 7.49367 49.2916 7.54367C48.3187 7.59575 47.3499 7.6895 46.3832 7.82908C45.4187 7.96658 44.4624 8.14783 43.5145 8.37283C42.5645 8.59575 41.627 8.86242 40.7041 9.17075C39.7791 9.47908 38.8687 9.82908 37.9749 10.2187C37.0832 10.6103 36.2082 11.0395 35.3541 11.5083L34.1478 9.31867C35.0687 8.81242 36.0103 8.34992 36.9728 7.92908C37.9353 7.51033 38.9124 7.13325 39.9103 6.79992C40.9062 6.46867 41.9145 6.18117 42.9353 5.9395C43.9582 5.69783 44.9874 5.502 46.027 5.35408C47.0666 5.20617 48.1103 5.10408 49.1582 5.04783C50.2082 4.99367 51.2562 4.98533 52.3062 5.02492C53.3541 5.0645 54.3999 5.14992 55.4416 5.28325C56.4832 5.41658 57.5166 5.59783 58.5416 5.82283C59.5666 6.04992 60.5791 6.32075 61.5791 6.6395C62.5812 6.95617 63.5645 7.31867 64.5332 7.72283C65.502 8.12908 66.4499 8.57908 67.377 9.06867C68.3062 9.56033 69.2103 10.0916 70.0895 10.6645C70.9687 11.2374 71.8228 11.8478 72.6478 12.4978C73.4728 13.1458 74.2666 13.8312 75.0291 14.552C75.7937 15.2728 76.5228 16.027 77.2187 16.8124C77.9145 17.5978 78.5728 18.4145 79.1957 19.2603L77.1832 20.7437Z" fill="#002C1F"/>
<path d="M30.5708 14.7209L29 12.7792C29.8208 12.1146 30.6792 11.4813 31.5542 10.8938L32.9479 12.9709C32.1313 13.5167 31.3333 14.1063 30.5708 14.7209Z" fill="#002C1F"/>
<path d="M50.9998 75.0003C49.7728 75.0003 48.5478 74.9336 47.3269 74.8044C46.1082 74.6753 44.8978 74.4836 43.6957 74.2253C42.4957 73.969 41.3123 73.6503 40.1457 73.269C38.979 72.8899 37.8353 72.4482 36.7144 71.9461C35.5936 71.4461 34.504 70.8878 33.4415 70.2711C32.379 69.6565 31.3519 68.9878 30.3623 68.2628C29.3707 67.5399 28.4186 66.7669 27.5082 65.944C26.5978 65.119 25.7332 64.2503 24.9144 63.3378L26.7769 61.669C27.2269 62.1732 27.6915 62.6607 28.1728 63.1336C28.654 63.6086 29.1478 64.0669 29.6561 64.5107C30.1644 64.9524 30.6873 65.3794 31.2228 65.7899C31.7582 66.2003 32.3061 66.594 32.8665 66.9711C33.4269 67.3482 33.9978 67.7065 34.579 68.0461C35.1623 68.3878 35.754 68.7107 36.3561 69.0149C36.9582 69.319 37.5707 69.6024 38.1894 69.869C38.8103 70.1357 39.4373 70.3815 40.0728 70.6086C40.7082 70.8357 41.3498 71.0419 41.9998 71.2294C42.6478 71.4149 43.3019 71.5815 43.9603 71.7294C44.6186 71.8753 45.2811 72.0003 45.9478 72.1044C46.6144 72.2107 47.2832 72.294 47.954 72.3586C48.6269 72.4211 49.2998 72.4628 49.9748 72.4836C50.6478 72.5065 51.3228 72.5065 51.9978 72.4857C52.6728 72.4649 53.3457 72.4232 54.0165 72.3607C54.6894 72.2982 55.3582 72.2149 56.0248 72.1107C56.6915 72.0065 57.354 71.8815 58.0123 71.7357C58.6707 71.5899 59.3248 71.4253 59.9728 71.2399C60.6228 71.0524 61.2644 70.8461 61.8998 70.6211C62.5353 70.394 63.1644 70.1482 63.7853 69.8836C64.404 69.6169 65.0165 69.3336 65.6186 69.0294C66.2207 68.7274 66.8144 68.4044 67.3978 68.0649C67.979 67.7253 68.5519 67.3669 69.1123 66.9899C69.6728 66.6149 70.2207 66.2211 70.7561 65.8128C71.2915 65.4024 71.8144 64.9753 72.3248 64.5336C72.8332 64.0899 73.329 63.6336 73.8082 63.1586C74.2894 62.6857 74.7561 62.1982 75.2061 61.6961C75.6561 61.194 76.0915 60.6774 76.5103 60.1482C76.9269 59.619 77.329 59.0774 77.7144 58.5232C78.0978 57.969 78.4644 57.4024 78.8144 56.8253C79.1644 56.2482 79.4957 55.6607 79.8082 55.0628C80.1207 54.4649 80.4144 53.8586 80.6894 53.2419L82.9728 54.2607C82.629 55.0274 82.2603 55.7794 81.8623 56.5211C81.4644 57.2607 81.0415 57.9857 80.5936 58.694C80.1436 59.4044 79.6686 60.0961 79.1707 60.7711C78.6707 61.4482 78.1498 62.1044 77.6019 62.7419C77.0561 63.3794 76.4894 63.9982 75.8978 64.594C75.3082 65.1919 74.6957 65.7669 74.0644 66.319C73.4332 66.8732 72.7811 67.4024 72.1123 67.9086C71.4415 68.4149 70.754 68.8961 70.0498 69.3544C69.3457 69.8107 68.6248 70.2419 67.8894 70.6482C67.154 71.0524 66.4061 71.4315 65.6436 71.7836C64.8811 72.1336 64.1061 72.4586 63.3207 72.7544C62.5332 73.0503 61.7394 73.3169 60.9332 73.5544C60.129 73.794 59.3165 74.0024 58.4957 74.1836C57.6748 74.3628 56.8498 74.5149 56.0186 74.6357C55.1873 74.7565 54.354 74.8461 53.5165 74.9086C52.679 74.969 51.8394 75.0003 50.9998 75.0003Z" fill="#002C1F"/>
<path d="M75.854 51.7854L73.5957 50.7146C73.9624 49.9417 74.2895 49.15 74.577 48.3396L76.9353 49.1708C76.6186 50.0604 76.2582 50.9333 75.854 51.7854Z" fill="#002C1F"/>
<path d="M50.9999 67.5C50.527 67.5 50.0561 67.4875 49.5832 67.4625C49.1124 67.4375 48.6416 67.4 48.1728 67.3521C47.702 67.3021 47.2332 67.2417 46.7666 67.1667C46.2999 67.0938 45.8374 67.0084 45.3749 66.9125C44.9124 66.8146 44.452 66.7042 43.9957 66.5834C43.5395 66.4625 43.0874 66.3313 42.6374 66.1854C42.1874 66.0417 41.7416 65.8854 41.2999 65.7188C40.8582 65.5521 40.4207 65.3729 39.9895 65.1834C39.5561 64.9938 39.1291 64.7917 38.7061 64.5813C38.2853 64.3688 37.8686 64.1459 37.4582 63.9125C37.0478 63.6792 36.6436 63.4354 36.2457 63.1813C35.8478 62.9271 35.4561 62.6625 35.0707 62.3875C34.6874 62.1146 34.3103 61.8292 33.9395 61.5354C33.5707 61.2417 33.2082 60.9396 32.8541 60.6271C32.4999 60.3146 32.1541 59.9917 31.8166 59.6625C31.4791 59.3313 31.1499 58.9917 30.8311 58.6459C30.5103 58.2979 30.1999 57.9417 29.8978 57.5792C29.5957 57.2167 29.3041 56.8459 29.0207 56.4667C28.7395 56.0875 28.4666 55.7021 28.2041 55.3104C27.9416 54.9188 27.6895 54.5188 27.4457 54.1125C27.2041 53.7084 26.9728 53.2959 26.752 52.8792C26.5311 52.4604 26.3207 52.0375 26.1228 51.6104C25.9228 51.1813 25.7353 50.7479 25.5582 50.3104C25.3811 49.8729 25.2166 49.4313 25.0624 48.9834C24.9082 48.5375 24.7666 48.0875 24.6353 47.6334C24.5041 47.1792 24.3853 46.7229 24.2791 46.2625C24.1707 45.8021 24.077 45.3396 23.9936 44.875C23.9103 44.4104 23.8374 43.9438 23.7791 43.475C23.7207 43.0063 23.6728 42.5375 23.6374 42.0667C23.602 41.5959 23.5791 41.1229 23.5686 40.6521C23.5582 40.1792 23.5603 39.7063 23.5749 39.2354C23.5874 38.7625 23.6145 38.2917 23.652 37.8209C23.6895 37.35 23.7395 36.8813 23.802 36.4125C23.8645 35.9438 23.9374 35.4771 24.0249 35.0125C24.1103 34.55 24.2082 34.0875 24.3186 33.6271C24.4291 33.1688 24.552 32.7125 24.6853 32.2604C24.8186 31.8063 24.9645 31.3584 25.1207 30.9125C25.277 30.4667 25.4457 30.025 25.6249 29.5875C25.8041 29.1521 25.9957 28.7188 26.1978 28.2917C26.3999 27.8646 26.6124 27.4438 26.8353 27.0271C27.0582 26.6125 27.2936 26.2021 27.5374 25.7979C27.7832 25.3938 28.0374 24.9959 28.302 24.6063C28.5686 24.2146 28.8436 23.8313 29.127 23.4542C29.4124 23.0792 29.7082 22.7084 30.0124 22.3479C30.3166 21.9875 30.6291 21.6334 30.952 21.2875C31.2728 20.9438 31.6041 20.6063 31.9436 20.2771C32.2832 19.95 32.6311 19.6313 32.9874 19.3209C33.3436 19.0104 33.7082 18.7084 34.0791 18.4167C34.4499 18.1271 34.8291 17.8438 35.2166 17.5729C35.602 17.3 35.9957 17.0396 36.3936 16.7875C36.7936 16.5354 37.1999 16.2938 37.6124 16.0646C38.0249 15.8334 38.4416 15.6125 38.8666 15.4042C39.2895 15.1938 39.7166 14.9959 40.152 14.8104C40.5853 14.6229 41.0228 14.4459 41.4666 14.2813C41.9082 14.1167 42.3561 13.9646 42.8061 13.8229C43.2561 13.6813 43.7103 13.5521 44.1686 13.4334C44.6249 13.3167 45.0853 13.2104 45.5478 13.1167C46.0103 13.0209 46.4749 12.9396 46.9416 12.8688C47.4103 12.7979 47.8791 12.7396 48.3478 12.6938C48.8186 12.6479 49.2895 12.6146 49.7603 12.5917C50.2332 12.5709 50.7041 12.5604 51.177 12.5625C51.6499 12.5667 52.1207 12.5813 52.5936 12.6063C53.0645 12.6334 53.5353 12.6729 54.0041 12.725C54.4728 12.775 54.9416 12.8375 55.4082 12.9146C55.8749 12.9896 56.3374 13.0771 56.7999 13.175C57.2624 13.275 57.7207 13.3854 58.177 13.5084C58.6332 13.6313 59.0853 13.7667 59.5353 13.9125C59.9832 14.0584 60.4291 14.2167 60.8686 14.3854C61.3103 14.5542 61.7457 14.7354 62.1791 14.9271C62.6103 15.1188 63.0374 15.3209 63.4582 15.5334C63.8791 15.7479 64.2936 15.9729 64.7041 16.2084C65.1145 16.4417 65.5166 16.6875 65.9145 16.9438C66.3103 17.2 66.6999 17.4667 67.0832 17.7417C67.4666 18.0188 67.8436 18.3042 68.2124 18.5979C68.5811 18.8938 68.9416 19.2 69.2936 19.5125C69.6457 19.8271 69.9916 20.15 70.327 20.4813C70.6624 20.8125 70.9916 21.1542 71.3082 21.5021C71.627 21.85 71.9374 22.2084 72.2374 22.5729C72.5374 22.9375 72.8291 23.3084 73.1082 23.6875C73.3895 24.0688 73.6603 24.4542 73.9228 24.8479C74.1832 25.2417 74.4332 25.6417 74.6749 26.0479C74.9145 26.4542 75.1436 26.8667 75.3645 27.2854C75.5832 27.7042 75.7916 28.1271 75.9895 28.5563C76.1853 28.9854 76.3728 29.4209 76.5457 29.8584C76.7207 30.2979 76.8853 30.7396 77.0374 31.1875C77.1895 31.6354 77.3291 32.0854 77.4582 32.5396C77.5874 32.9938 77.7041 33.4521 77.8103 33.9125C77.9145 34.3729 78.0082 34.8354 78.0895 35.3C78.1707 35.7667 78.2395 36.2334 78.2978 36.7021C78.3541 37.1709 78.3999 37.6396 78.4332 38.1104C78.4666 38.5834 78.4874 39.0542 78.4957 39.5271C78.5041 39.9979 78.4999 40.4709 78.4853 40.9438C78.4686 41.4146 78.4416 41.8854 78.402 42.3563C78.3603 42.8271 78.3082 43.2959 78.2457 43.7646C78.1811 44.2334 78.1041 44.6979 78.0166 45.1625C77.9291 45.6271 77.8291 46.0875 77.7166 46.5459L75.2874 45.9521C75.4103 45.4479 75.5186 44.9396 75.6103 44.4292C75.7041 43.9188 75.7791 43.4042 75.8395 42.8875C75.8999 42.3729 75.9436 41.8542 75.9707 41.3354C75.9999 40.8188 76.0103 40.2979 76.0061 39.7792C76.002 39.2604 75.9811 38.7417 75.9436 38.2229C75.9061 37.7042 75.8541 37.1875 75.7853 36.6729C75.7166 36.1584 75.6311 35.6459 75.5291 35.1375C75.4291 34.6271 75.3124 34.1209 75.1791 33.6188C75.0478 33.1167 74.8999 32.6188 74.7353 32.1271C74.5728 31.6334 74.3936 31.1459 74.1999 30.6646C74.0061 30.1813 73.7957 29.7063 73.5728 29.2375C73.3499 28.7688 73.1124 28.3063 72.8582 27.8542C72.6061 27.4 72.3416 26.9542 72.0603 26.5167C71.7811 26.0792 71.4874 25.65 71.1791 25.2313C70.8728 24.8125 70.5541 24.4021 70.2207 24.0042C69.8895 23.6042 69.5436 23.2167 69.1874 22.8375C68.8311 22.4604 68.4645 22.0938 68.0832 21.7396C67.7041 21.3834 67.3145 21.0417 66.9145 20.7104C66.5124 20.3813 66.102 20.0625 65.6811 19.7584C65.2624 19.4521 64.8311 19.1625 64.3936 18.8834C63.9541 18.6042 63.5082 18.3417 63.052 18.0917C62.5978 17.8396 62.1353 17.6042 61.6645 17.3834C61.1957 17.1625 60.7186 16.9542 60.2353 16.7625C59.752 16.5709 59.2645 16.3959 58.7707 16.2334C58.277 16.0729 57.7791 15.9271 57.277 15.7959C56.7728 15.6667 56.2666 15.5521 55.7561 15.4521C55.2457 15.3542 54.7332 15.2709 54.2186 15.2042C53.7041 15.1375 53.1874 15.0875 52.6686 15.0521C52.1499 15.0188 51.6311 15 51.1124 14.9979C50.5936 14.9959 50.0728 15.0104 49.5561 15.0396C49.0374 15.0709 48.5186 15.1167 48.0041 15.1792C47.4874 15.2417 46.9749 15.3188 46.4645 15.4146C45.9541 15.5084 45.4457 15.6188 44.9416 15.7438C44.4374 15.8709 43.9395 16.0125 43.4436 16.1688C42.9478 16.3271 42.4582 16.4979 41.9749 16.6875C41.4895 16.875 41.0124 17.0771 40.5395 17.2938C40.0686 17.5125 39.6041 17.7438 39.1457 17.9896C38.6895 18.2375 38.2395 18.4979 37.7999 18.7709C37.3582 19.0459 36.9249 19.3334 36.502 19.6354C36.0791 19.9375 35.6666 20.25 35.2624 20.5771C34.8603 20.9042 34.4666 21.2438 34.0832 21.5959C33.702 21.9479 33.3311 22.3104 32.9707 22.6854C32.6103 23.0604 32.2645 23.4459 31.927 23.8417C31.5916 24.2396 31.2686 24.6459 30.9582 25.0625C30.6478 25.4792 30.352 25.9042 30.0686 26.3396C29.7832 26.775 29.5145 27.2188 29.2582 27.6709C29.002 28.1209 28.7603 28.5813 28.5332 29.0479C28.3041 29.5146 28.0916 29.9896 27.8936 30.4688C27.6957 30.95 27.5124 31.4354 27.3457 31.9271C27.177 32.4188 27.0249 32.9146 26.8895 33.4167C26.752 33.9167 26.6311 34.4229 26.5249 34.9313C26.4207 35.4396 26.3311 35.95 26.2582 36.4646C26.1853 36.9792 26.127 37.4959 26.0853 38.0125C26.0436 38.5313 26.0186 39.05 26.0103 39.5688C26.002 40.0875 26.0082 40.6084 26.0332 41.1271C26.0561 41.6459 26.0957 42.1625 26.152 42.6792C26.2061 43.1959 26.2791 43.7104 26.3666 44.2229C26.4541 44.7334 26.5582 45.2438 26.677 45.7479C26.7978 46.2542 26.9311 46.7542 27.0832 47.2521C27.2332 47.75 27.3999 48.2417 27.5811 48.7271C27.7624 49.2146 27.9582 49.6959 28.1707 50.1709C28.3811 50.6438 28.6082 51.1125 28.8478 51.5729C29.0895 52.0334 29.3436 52.4854 29.6124 52.9292C29.8811 53.375 30.1624 53.8104 30.4582 54.2375C30.7541 54.6646 31.0624 55.0813 31.3853 55.4896C31.7061 55.8959 32.0416 56.2938 32.3874 56.6813C32.7353 57.0688 33.0936 57.4438 33.4624 57.8084C33.8332 58.1729 34.2145 58.525 34.6061 58.8667C34.9978 59.2063 35.3999 59.5354 35.8124 59.85C36.2249 60.1667 36.6478 60.4688 37.0791 60.7584C37.5103 61.0479 37.9499 61.3229 38.3978 61.5854C38.8478 61.8479 39.3041 62.0959 39.7686 62.3292C40.2311 62.5625 40.702 62.7813 41.1811 62.9854C41.6582 63.1896 42.1416 63.3792 42.6311 63.5521C43.1207 63.7271 43.6145 63.8854 44.1145 64.0292C44.6124 64.1709 45.1166 64.3 45.6228 64.4104C46.1311 64.5229 46.6416 64.6188 47.1541 64.7C47.6686 64.7792 48.1832 64.8438 48.6999 64.8917C49.2166 64.9396 49.7353 64.9709 50.2541 64.9854C50.7749 65.0021 51.2936 65.0021 51.8124 64.9854C52.3311 64.9688 52.8499 64.9354 53.3666 64.8854C53.8832 64.8375 54.3999 64.7709 54.9124 64.6917C55.4249 64.6104 55.9353 64.5125 56.4416 64.4C56.9499 64.2875 57.452 64.1584 57.952 64.0146C58.4499 63.8688 58.9436 63.7104 59.4332 63.5354C59.9228 63.3604 60.4061 63.1688 60.8832 62.9646C61.3603 62.7584 61.8311 62.5396 62.2936 62.3042C62.7582 62.0709 63.2124 61.8209 63.6603 61.5584C64.1103 61.2959 64.5478 61.0188 64.9791 60.7292C65.4103 60.4375 65.8311 60.1354 66.2436 59.8188C66.6561 59.5021 67.0561 59.1729 67.4478 58.8313C67.8395 58.4896 68.2186 58.1354 68.5895 57.7709C68.9582 57.4042 69.3166 57.0292 69.6624 56.6417C70.0082 56.2542 70.3416 55.8563 70.6624 55.4479C70.9832 55.0396 71.2916 54.6209 71.5853 54.1938C71.8811 53.7646 72.1624 53.3292 72.4291 52.8834L74.5707 54.175C73.9645 55.1896 73.2957 56.1625 72.5645 57.0896C71.8332 58.0188 71.0457 58.8959 70.1999 59.7229C69.3541 60.5479 68.4582 61.3167 67.5145 62.0271C66.5686 62.7375 65.5811 63.3834 64.552 63.9646C63.5228 64.5459 62.4624 65.0584 61.3666 65.5021C60.2707 65.9459 59.1499 66.3167 58.0061 66.6167C56.8624 66.9146 55.7041 67.1375 54.5311 67.2854C53.3603 67.4334 52.1811 67.5063 50.9999 67.5Z" fill="#002C1F"/>
<mask id="mask0_307_3" style="mask-type:luminance" maskUnits="userSpaceOnUse" x="79" y="0" width="12" height="80">
<path d="M79.3916 0H90.9999V80H79.3916V0Z" fill="white"/>
</mask>
<g mask="url(#mask0_307_3)">
<path d="M87.25 80C87.0041 80 86.7604 79.9771 86.5187 79.9292C86.277 79.8813 86.0416 79.8083 85.8145 79.7146C85.5875 79.6208 85.3708 79.5042 85.1666 79.3688C84.9625 79.2313 84.7729 79.0771 84.5979 78.9021C84.425 78.7271 84.2687 78.5375 84.1312 78.3333C83.9958 78.1292 83.8791 77.9125 83.7854 77.6854C83.6916 77.4583 83.6208 77.2229 83.5729 76.9813C83.525 76.7396 83.5 76.4958 83.5 76.25V45.3271C82.2187 42.7563 81.2625 40.0667 80.627 37.2646C79.9937 34.4625 79.7 31.6229 79.75 28.75C79.75 25.9521 80.027 1.375 89.5729 0.0125C89.752 -0.0125 89.9291 0 90.102 0.05C90.277 0.102084 90.4312 0.1875 90.5687 0.30625C90.7062 0.425 90.8125 0.566667 90.8875 0.73125C90.9625 0.895833 91 1.06875 91 1.25V76.25C91 76.4958 90.975 76.7396 90.927 76.9813C90.8791 77.2229 90.8083 77.4583 90.7145 77.6854C90.6208 77.9125 90.5041 78.1292 90.3687 78.3333C90.2312 78.5375 90.075 78.7271 89.902 78.9021C89.727 79.0771 89.5375 79.2313 89.3333 79.3688C89.1291 79.5042 88.9125 79.6208 88.6854 79.7146C88.4583 79.8083 88.2229 79.8813 87.9812 79.9292C87.7395 79.9771 87.4958 80 87.25 80ZM88.5 3.05208C83.977 6.07292 82.25 19.8958 82.25 28.75C82.1979 31.4583 82.475 34.1333 83.0791 36.7729C83.6833 39.4146 84.5979 41.9438 85.8229 44.3583C85.9395 44.5563 86 44.7708 86 45V76.25C86 76.4167 86.0312 76.575 86.0958 76.7292C86.1583 76.8813 86.2479 77.0167 86.3666 77.1333C86.4833 77.2521 86.6187 77.3417 86.7708 77.4042C86.925 77.4688 87.0833 77.5 87.25 77.5C87.4166 77.5 87.575 77.4688 87.7291 77.4042C87.8812 77.3417 88.0166 77.2521 88.1333 77.1333C88.252 77.0167 88.3416 76.8813 88.4041 76.7292C88.4687 76.575 88.5 76.4167 88.5 76.25V3.05208Z" fill="#002C1F"/>
</g>
<mask id="mask1_307_3" style="mask-type:luminance" maskUnits="userSpaceOnUse" x="11" y="0" width="18" height="80">
<path d="M11 0H28.725V80H11V0Z" fill="white"/>
</mask>
<g mask="url(#mask1_307_3)">
<path d="M19.75 80.0001C19.5438 80.0001 19.3396 79.9835 19.1355 79.9501C18.9167 79.9085 18.7 79.848 18.4896 79.7689C18.2813 79.6897 18.0792 79.5918 17.8855 79.4772C17.6938 79.3647 17.5105 79.2335 17.3417 79.0876C17.1709 78.9418 17.0146 78.7814 16.873 78.6085C16.7292 78.4335 16.6042 78.2501 16.4938 78.0543C16.3834 77.8585 16.2917 77.6543 16.2167 77.4439C16.1438 77.2314 16.0875 77.0147 16.05 76.7939C16.0146 76.573 15.998 76.3501 16 76.1251V33.1647C15.9917 32.7418 15.9313 32.3272 15.8209 31.9189C15.7105 31.5105 15.5542 31.121 15.348 30.7522C15.1417 30.3835 14.8938 30.0439 14.6042 29.7355C14.3167 29.4272 13.9938 29.1585 13.6396 28.9293C13.2209 28.6418 12.8459 28.3064 12.5105 27.9251C12.1771 27.5418 11.8938 27.1251 11.6646 26.673C11.4334 26.221 11.2625 25.748 11.15 25.2543C11.0375 24.7585 10.9875 24.2585 11 23.7501V22.6064C11.0021 20.2272 11.1688 17.8605 11.5 15.5064L13.5125 1.07721C13.5292 0.923047 13.575 0.777213 13.6459 0.639714C13.7188 0.502214 13.8146 0.383464 13.9334 0.283464C14.0521 0.183464 14.1855 0.108464 14.3313 0.0605469C14.4792 0.0105469 14.6292 -0.00820312 14.7855 0.000130208C14.9396 0.00429714 15.0875 0.0355474 15.2292 0.0938802C15.373 0.152214 15.5 0.235547 15.6125 0.341797C15.725 0.445964 15.8146 0.568881 15.8813 0.708463C15.948 0.845964 15.9875 0.99388 16 1.14596L16.8355 11.1647L18.523 1.03971C18.548 0.89388 18.5959 0.75638 18.6688 0.629297C18.7417 0.50013 18.8355 0.387631 18.948 0.29388C19.0605 0.198047 19.1875 0.12513 19.325 0.0730469C19.4646 0.0230469 19.6063 -0.00195312 19.7542 -0.00195312C19.9021 -0.00195312 20.0459 0.0230469 20.1855 0.0730469C20.323 0.12513 20.45 0.198047 20.5625 0.29388C20.675 0.387631 20.7667 0.50013 20.8417 0.629297C20.9146 0.75638 20.9625 0.89388 20.9875 1.03971L22.675 11.1647L23.5 1.14596C23.5125 0.99388 23.5521 0.845964 23.6188 0.708463C23.6855 0.568881 23.775 0.448047 23.8875 0.341797C24 0.235547 24.1271 0.152214 24.2688 0.0938802C24.4125 0.0355474 24.5605 0.00429714 24.7146 0.000130208C24.8688 -0.00611992 25.0188 0.0147134 25.1646 0.0626302C25.3105 0.11263 25.4438 0.18763 25.5605 0.28763C25.6792 0.385547 25.775 0.504297 25.848 0.639714C25.923 0.77513 25.9688 0.91888 25.9875 1.07305L27.9875 15.0564C28.3292 17.4605 28.5021 19.8772 28.5021 22.3064V23.7501C28.5146 24.2585 28.4646 24.7585 28.3521 25.2543C28.2396 25.748 28.0688 26.223 27.8375 26.6751C27.6084 27.1272 27.325 27.5439 26.9917 27.9251C26.6584 28.3064 26.2813 28.6418 25.8646 28.9314C25.5084 29.1605 25.1855 29.4293 24.8959 29.7376C24.6063 30.046 24.3584 30.3855 24.1542 30.7543C23.948 31.123 23.7896 31.5126 23.6792 31.921C23.5688 32.3293 23.5084 32.746 23.5 33.1689V76.2501C23.5 76.496 23.475 76.7397 23.4271 76.9814C23.3792 77.223 23.3084 77.4585 23.2146 77.6855C23.1209 77.9126 23.0042 78.1293 22.8688 78.3335C22.7313 78.5376 22.575 78.7272 22.4021 78.9022C22.2271 79.0772 22.0375 79.2314 21.8334 79.3689C21.6292 79.5043 21.4125 79.621 21.1855 79.7147C20.9584 79.8085 20.723 79.8814 20.4813 79.9293C20.2396 79.9772 19.9959 80.0001 19.75 80.0001ZM14.4355 12.5272L13.9709 15.8522C13.6584 18.0939 13.5 20.3439 13.5 22.6064V23.7501C13.475 24.3647 13.598 24.9501 13.8709 25.5001C14.1438 26.0522 14.5334 26.5043 15.0375 26.8585C15.5625 27.2022 16.0375 27.6043 16.4646 28.0647C16.8896 28.523 17.2542 29.0293 17.5563 29.5793C17.8584 30.1293 18.0875 30.7064 18.248 31.3126C18.4084 31.921 18.4917 32.5376 18.5 33.1647V76.1251C18.4938 76.2814 18.5125 76.4335 18.5584 76.5814C18.6063 76.7314 18.675 76.8668 18.7709 76.9897C18.8646 77.1147 18.9771 77.2189 19.1084 77.3043C19.2375 77.3876 19.3792 77.448 19.5313 77.4835C19.9167 77.548 20.2605 77.4543 20.5584 77.2022C20.8521 76.9543 21 76.6355 21 76.2501V33.1689C21.0084 32.5397 21.0917 31.923 21.2521 31.3168C21.4105 30.7085 21.6417 30.1314 21.9438 29.5814C22.2459 29.0314 22.6105 28.5251 23.0355 28.0647C23.4625 27.6043 23.9375 27.2022 24.4625 26.8585C24.9667 26.5043 25.3563 26.0522 25.6292 25.5001C25.9021 24.9501 26.025 24.3647 26 23.7501V22.3043C26 19.9939 25.8355 17.696 25.5084 15.4105L25.0771 12.3751L24.75 16.3543C24.7375 16.5105 24.6959 16.6605 24.6271 16.8001C24.5584 16.9418 24.4646 17.0647 24.35 17.171C24.2334 17.2772 24.1021 17.3585 23.9563 17.4168C23.8084 17.473 23.6563 17.5001 23.5 17.5001H22.25C22.1021 17.5001 21.9584 17.4751 21.8209 17.423C21.6813 17.373 21.5563 17.3001 21.4417 17.2043C21.3292 17.1085 21.2375 16.996 21.1646 16.8689C21.0896 16.7397 21.0417 16.6022 21.0167 16.4564L19.75 8.8543L18.4834 16.4564C18.4584 16.6022 18.4084 16.7397 18.3355 16.8689C18.2625 16.996 18.1709 17.1085 18.0584 17.2043C17.9438 17.3001 17.8188 17.373 17.6792 17.423C17.5417 17.4751 17.398 17.5001 17.25 17.5001H16C15.8438 17.5001 15.6917 17.473 15.5438 17.4168C15.398 17.3585 15.2667 17.2772 15.15 17.171C15.0355 17.0647 14.9417 16.9418 14.873 16.8001C14.8042 16.6605 14.7625 16.5105 14.75 16.3543L14.4355 12.5272Z" fill="#002C1F"/>
</g>
<path d="M51 52.5001C48.0313 52.5001 36 47.2751 36 36.2501C35.9896 35.9605 35.9958 35.673 36.0146 35.3835C36.0354 35.096 36.0708 34.8085 36.1188 34.523C36.1688 34.2376 36.2333 33.9564 36.3104 33.6772C36.3896 33.4001 36.4813 33.1251 36.5875 32.8564C36.6938 32.5876 36.8125 32.3251 36.9458 32.0689C37.0792 31.8105 37.225 31.5626 37.3833 31.321C37.5438 31.0772 37.7125 30.846 37.8958 30.621C38.0792 30.396 38.2729 30.1814 38.4771 29.9772C38.6813 29.773 38.8958 29.5793 39.1208 29.396C39.3438 29.2147 39.5771 29.0439 39.8188 28.8855C40.0604 28.7251 40.3104 28.5793 40.5667 28.446C40.825 28.3147 41.0875 28.1939 41.3563 28.0876C41.625 27.9814 41.9 27.8897 42.1771 27.8105C42.4563 27.7335 42.7375 27.6689 43.0229 27.6189C43.3083 27.571 43.5958 27.5355 43.8833 27.5168C44.1729 27.496 44.4604 27.4918 44.75 27.5001C45.3708 27.4897 45.9833 27.5564 46.5875 27.7022C47.1917 27.848 47.7667 28.0668 48.3125 28.3605C48.8604 28.6543 49.3625 29.0126 49.8167 29.4355C50.2729 29.8585 50.6667 30.3314 51 30.8564C51.3333 30.3314 51.7271 29.8585 52.1833 29.4355C52.6375 29.0126 53.1396 28.6543 53.6875 28.3605C54.2333 28.0668 54.8083 27.848 55.4125 27.7022C56.0167 27.5564 56.6292 27.4897 57.25 27.5001C57.5396 27.4918 57.8271 27.496 58.1167 27.5168C58.4042 27.5355 58.6917 27.571 58.9771 27.6189C59.2625 27.6689 59.5438 27.7335 59.8229 27.8105C60.1 27.8897 60.375 27.9814 60.6438 28.0876C60.9125 28.1939 61.175 28.3147 61.4333 28.446C61.6896 28.5793 61.9396 28.7251 62.1813 28.8855C62.4229 29.0439 62.6563 29.2147 62.8792 29.396C63.1042 29.5793 63.3188 29.773 63.5229 29.9772C63.7271 30.1814 63.9208 30.396 64.1042 30.621C64.2854 30.846 64.4563 31.0772 64.6167 31.321C64.775 31.5626 64.9208 31.8105 65.0542 32.0689C65.1875 32.3251 65.3063 32.5876 65.4125 32.8564C65.5188 33.1251 65.6104 33.4001 65.6896 33.6772C65.7667 33.9564 65.8313 34.2376 65.8813 34.523C65.9292 34.8085 65.9646 35.096 65.9854 35.3835C66.0042 35.673 66.0104 35.9605 66 36.2501C66 47.2751 53.9688 52.5001 51 52.5001ZM44.75 30.0001C44.3354 29.9814 43.9229 30.0064 43.5125 30.073C43.1021 30.1418 42.7021 30.2501 42.3146 30.4001C41.9271 30.5522 41.5604 30.7397 41.2125 30.9668C40.8625 31.1939 40.5417 31.4543 40.2479 31.748C39.9542 32.0439 39.6938 32.3647 39.4667 32.7126C39.2396 33.0605 39.05 33.4272 38.9 33.8147C38.75 34.2022 38.6417 34.6022 38.5729 35.0126C38.5063 35.423 38.4813 35.8355 38.5 36.2501C38.5 45.3835 48.8896 50.0001 51 50.0001C53.1104 50.0001 63.5 45.3835 63.5 36.2501C63.5188 35.8355 63.4938 35.423 63.4271 35.0126C63.3583 34.6022 63.25 34.2022 63.1 33.8147C62.9479 33.4272 62.7604 33.0605 62.5333 32.7126C62.3063 32.3647 62.0458 32.0439 61.7521 31.748C61.4583 31.4543 61.1354 31.1939 60.7875 30.9668C60.4396 30.7397 60.0729 30.5522 59.6854 30.4001C59.2979 30.2501 58.8979 30.1418 58.4875 30.073C58.0771 30.0064 57.6646 29.9814 57.25 30.0001C54.8063 30.0001 53.1042 31.396 52.1854 34.146C52.1 34.4022 51.95 34.6085 51.7313 34.7668C51.5125 34.9251 51.2667 35.0043 50.9979 35.0043C50.7271 35.0043 50.4833 34.9251 50.2646 34.7668C50.0458 34.6085 49.8938 34.4022 49.8104 34.146C48.8958 31.396 47.1938 30.0001 44.75 30.0001Z" fill="#002C1F"/>
</svg>
