<svg width="86" height="98" viewBox="0 0 86 98" fill="none" xmlns="http://www.w3.org/2000/svg">
<path d="M27.4229 16.079C34.4935 8.10682 49.5832 2.76431 58.9485 8.40259C68.3138 14.0409 71.9772 30.7154 68.6024 47.3354C65.2277 63.9554 54.8372 80.5764 45.9733 80.228C37.1094 79.8797 29.6952 62.5285 25.5523 48.5688C21.3551 34.631 20.4066 24.0292 27.4229 16.079Z" fill="#FD961E"/>
<mask id="mask0_307_5" style="mask-type:luminance" maskUnits="userSpaceOnUse" x="1" y="8" width="72" height="90">
<path d="M1.12439 8H72.9377V98H1.12439V8Z" fill="white"/>
</mask>
<g mask="url(#mask0_307_5)">
<path d="M49.1783 70.8673C48.8247 70.8155 48.4994 71.063 48.4499 71.4142C48.4004 71.7655 48.6456 72.0932 48.9968 72.1427C62.2237 74.0332 71.1108 78.7879 71.1108 83.9717C71.1108 87.1941 67.5324 90.4048 61.2926 92.781C54.7652 95.2703 46.0714 96.6375 36.8142 96.6375C27.5594 96.6375 18.8632 95.2703 12.3358 92.781C6.09601 90.4048 2.5176 87.1941 2.5176 83.9717C2.5176 78.3542 13.1939 73.227 27.9413 71.7443L30.598 76.6381C20.6595 77.4773 13.3565 80.2848 13.3565 83.6157C13.3565 87.6114 23.8584 90.8503 36.8166 90.8503C49.7747 90.8503 60.2766 87.6114 60.2766 83.6157C60.2766 80.2825 52.9736 77.4773 43.0352 76.6381L59.4963 46.3112C62.9568 39.9087 63.5532 32.3016 61.137 25.4348C58.7184 18.5703 53.4875 13.0211 46.7857 10.2065C40.4492 7.5451 33.1839 7.5451 26.8498 10.2065C20.1456 13.0188 14.9171 18.5703 12.4985 25.4348C10.0822 32.3016 10.6786 39.9087 14.1368 46.3112L18.5309 54.4038C18.7006 54.7174 19.0919 54.8305 19.4054 54.6608C19.7189 54.4934 19.8344 54.0998 19.6624 53.7862L15.2683 45.6936C11.9846 39.6117 11.4165 32.3841 13.7125 25.8614C16.0085 19.3388 20.9777 14.0654 27.3449 11.3922C33.3654 8.86519 40.2677 8.86519 46.2883 11.3922C52.6554 14.0654 57.6246 19.3388 59.9206 25.8614C62.2166 32.3841 61.6509 39.6117 58.3648 45.6936L38.7566 81.8124C38.363 82.5384 37.6369 82.9698 36.8118 82.9698C35.9891 82.9698 35.2631 82.5384 34.8694 81.8124L21.428 57.0488C21.2583 56.7352 20.867 56.6197 20.5534 56.7894C20.2399 56.9592 20.1244 57.3528 20.2965 57.664L27.2718 70.5161C20.1362 71.2822 13.696 72.9229 9.06387 75.1647C3.93906 77.6446 1.22815 80.6903 1.22815 83.9717C1.22815 87.8141 5.01164 91.3713 11.8761 93.9879C18.5474 96.5267 27.4038 97.927 36.8118 97.927C46.2223 97.927 55.0787 96.5267 61.7499 93.9879C68.6168 91.3713 72.3979 87.8141 72.3979 83.9717C72.3979 78.0265 63.2845 72.8852 49.1783 70.8673Z" fill="#002C1F"/>
</g>
<path d="M34.7703 23.6811C34.2682 21.411 32.974 19.386 31.1259 17.9811C30.454 17.4695 29.5182 17.4695 28.8463 17.9811C26.9982 19.386 25.704 21.411 25.2019 23.6811C24.5725 26.524 25.2279 29.4777 27.0006 31.7879C27.6842 32.6813 28.0307 33.7916 27.9765 34.9042L27.5922 40.6137H27.3801C27.0241 40.6137 26.7365 40.9036 26.7365 41.2596C26.7365 41.6155 27.0241 41.9055 27.3801 41.9055H27.7761L26.9463 55.8113C26.8403 57.5628 28.2311 59.0432 29.9849 59.0432C31.7388 59.0432 33.1296 57.5628 33.0259 55.8113L32.1961 41.9055H32.5898C32.9457 41.9055 33.2357 41.6155 33.2357 41.2596C33.2357 40.9036 32.9457 40.6137 32.5898 40.6137H32.3304L31.9934 34.9184C31.9391 33.7939 32.2857 32.6813 32.9716 31.7902C34.7443 29.4801 35.3997 26.524 34.7703 23.6811ZM31.9509 31.0029C31.0811 32.1391 30.6379 33.5511 30.711 34.9867L31.0434 40.6137H28.8841L29.2636 34.9773C29.3319 33.5488 28.8911 32.1368 28.0213 31.0029C26.4819 28.9944 25.9115 26.4297 26.4584 23.9592C26.8945 21.9861 28.0189 20.2299 29.6242 19.0065C29.8364 18.8462 30.1334 18.8462 30.3456 19.0065C31.9533 20.2299 33.0754 21.9861 33.5115 23.9592C34.0584 26.4297 33.4902 28.9968 31.9509 31.0029Z" fill="#002C1F"/>
<path d="M40.9583 18.3134C40.996 17.9598 40.7438 17.6392 40.3902 17.5991C40.0366 17.559 39.7183 17.816 39.6783 18.1696L38.5468 28.3602C38.3629 30.0127 39.1078 31.611 40.4939 32.5303C41.2129 33.0042 41.6301 33.8339 41.59 34.6755L41.1304 40.6112H40.9795C40.6259 40.6112 40.336 40.9012 40.336 41.2548C40.336 41.6107 40.6259 41.9007 40.9795 41.9007H41.3755L40.5458 55.8088C40.442 57.5603 41.8329 59.0407 43.5843 59.0407C45.3382 59.0407 46.729 57.5603 46.6253 55.8088L45.7955 41.9007H46.1892C46.5451 41.9007 46.8351 41.6107 46.8351 41.2548C46.8351 40.9012 46.5451 40.6112 46.1892 40.6112H45.9629L45.5833 34.6944C45.5409 33.8339 45.9605 33.0042 46.6771 32.5303C48.0632 31.611 48.8105 30.0127 48.6266 28.3602L47.4951 18.1696C47.4551 17.816 47.1368 17.559 46.7832 17.5991C46.4296 17.6392 46.1727 17.9574 46.2151 18.3134L47.3466 28.504C47.4763 29.6733 46.9459 30.8048 45.9652 31.4554C44.8714 32.1815 44.2326 33.4473 44.2962 34.7674L44.6734 40.6112H42.4198L42.8701 34.758C42.9337 33.4473 42.2925 32.1815 41.2011 31.4554C40.2204 30.8048 39.6924 29.6733 39.8221 28.504L40.9583 18.3134Z" fill="#002C1F"/>
<path d="M44.2302 28.0325V18.2426C44.2302 17.8866 43.9426 17.5967 43.5867 17.5967C43.2307 17.5967 42.9431 17.8866 42.9431 18.2426V28.0325C42.9431 28.3885 43.2307 28.6761 43.5867 28.6761C43.9426 28.6761 44.2302 28.3885 44.2302 28.0325Z" fill="#002C1F"/>
<path d="M3.15163 52.1996C3.27893 52.3741 3.47458 52.4637 3.6726 52.4637C3.80461 52.4637 3.93898 52.4236 4.05213 52.3411L7.92048 49.5076C8.20572 49.2978 8.26937 48.8947 8.05956 48.6071C7.84976 48.3195 7.44666 48.2582 7.15907 48.468L3.29307 51.2991C3.00548 51.5089 2.94183 51.912 3.15163 52.1996Z" fill="#002C1F"/>
<mask id="mask1_307_5" style="mask-type:luminance" maskUnits="userSpaceOnUse" x="0" y="32" width="7" height="4">
<path d="M0 32.1389H6.5557V35.7598H0V32.1389Z" fill="white"/>
</mask>
<g mask="url(#mask1_307_5)">
<path d="M5.31339 35.1964C5.59391 35.1964 5.85086 35.0149 5.93336 34.732C6.03237 34.3902 5.83671 34.0319 5.4949 33.9329L0.898134 32.5892C0.553967 32.4879 0.198012 32.6835 0.0990041 33.0277C-2.85357e-06 33.3695 0.193297 33.7278 0.537465 33.8268L5.13423 35.1705C5.19317 35.1894 5.25446 35.1964 5.31339 35.1964Z" fill="#002C1F"/>
</g>
<mask id="mask2_307_5" style="mask-type:luminance" maskUnits="userSpaceOnUse" x="69" y="33" width="8" height="4">
<path d="M69.9204 33.9495H76.0376V36.3634H69.9204V33.9495Z" fill="white"/>
</mask>
<g mask="url(#mask2_307_5)">
<path d="M75.981 34.7744C75.9291 34.4232 75.5991 34.1827 75.2502 34.2346L70.512 34.9512C70.1608 35.0031 69.918 35.3307 69.9722 35.6843C70.0193 36.0026 70.2928 36.2336 70.6086 36.2336C70.6393 36.2336 70.6723 36.2312 70.7053 36.2265L75.4435 35.5099C75.7924 35.4557 76.0352 35.128 75.981 34.7744Z" fill="#002C1F"/>
</g>
<path d="M68.9114 53.204C69.0364 53.3242 69.1967 53.3855 69.3593 53.3855C69.5267 53.3855 69.6964 53.3195 69.8214 53.1875C70.0689 52.9305 70.0618 52.5227 69.8049 52.2752L66.3514 48.949C66.0945 48.7038 65.6866 48.7109 65.4391 48.9679C65.194 49.2248 65.201 49.6326 65.458 49.8801L68.9114 53.204Z" fill="#002C1F"/>
</svg>
